<svg width="55" height="60" viewBox="0 0 55 60" fill="none" xmlns="http://www.w3.org/2000/svg">
<path d="M36.6979 48.2812H17.5391V52.7942H36.6979V48.2812Z" fill="#344887"/>
<path d="M36.6979 55.1777H17.5391V59.6907H36.6979V55.1777Z" fill="#344887"/>
<path d="M36.6991 45.5561H32.5267V37.1262L33.4634 36.5302C36.4436 34.4866 38.2318 30.9954 38.2318 27.3339C38.2318 21.2031 33.2079 16.1792 27.0771 16.1792C20.9462 16.1792 15.9224 21.2031 15.9224 27.3339C15.9224 31.0805 17.7957 34.4866 20.8611 36.6153L21.7978 37.2114V45.5561H17.6254V39.4253C13.9639 36.5302 11.75 32.1023 11.75 27.3339C11.75 18.904 18.6472 12.0068 27.0771 12.0068C35.507 12.0068 42.4042 18.904 42.4042 27.3339C42.4042 32.0172 40.2754 36.3599 36.6991 39.255V45.5561Z" fill="#344887"/>
<path d="M29.3763 0H24.8633V7.57839H29.3763V0Z" fill="#344887"/>
<path d="M54.3264 25.2051H46.748V29.7181H54.3264V25.2051Z" fill="#344887"/>
<path d="M7.57839 25.2051H0V29.7181H7.57839V25.2051Z" fill="#344887"/>
<path d="M8.37969 5.92195L5.29688 9.21777L10.8314 14.3946L13.9142 11.0987L8.37969 5.92195Z" fill="#344887"/>
<path d="M45.2438 5.93145L39.6934 11.0908L42.7658 14.3961L48.3162 9.23675L45.2438 5.93145Z" fill="#344887"/>
<path d="M43.4422 38.2369L40.3594 41.5332L45.8946 46.71L48.9774 43.4137L43.4422 38.2369Z" fill="#344887"/>
<path d="M10.8082 38.2176L5.25781 43.377L8.33025 46.6823L13.8807 41.5229L10.8082 38.2176Z" fill="#344887"/>
</svg>
