<svg viewBox="0 0 55 60" fill="none" xmlns="http://www.w3.org/2000/svg"><path d="M34.44 48.28H19.8a2.26 2.26 0 000 4.51h14.64a2.26 2.26 0 100-4.5zM34.44 55.18H19.8a2.26 2.26 0 000 4.51h14.64a2.26 2.26 0 000-4.51zM36.7 43.47a2.09 2.09 0 11-4.17 0v-6.34l.93-.6a11.19 11.19 0 00-6.38-20.35 11.2 11.2 0 00-11.16 11.15c0 3.75 1.88 7.16 4.94 9.29l.94.6v6.25a2.09 2.09 0 01-4.18 0v-4.04a15.42 15.42 0 01-5.87-12.1c0-8.43 6.9-15.32 15.33-15.32S42.4 18.9 42.4 27.33c0 4.69-2.13 9.03-5.7 11.93v4.21zM29.38 5.32V2.26a2.26 2.26 0 10-4.52 0v3.06a2.26 2.26 0 104.52 0zM52.07 25.2H49a2.26 2.26 0 100 4.52h3.07a2.26 2.26 0 100-4.51zM5.32 25.2H2.26a2.26 2.26 0 100 4.52h3.06a2.26 2.26 0 000-4.51zM12.27 9.56l-2.24-2.1a2.26 2.26 0 10-3.09 3.3l2.24 2.1a2.26 2.26 0 003.09-3.3zM43.59 7.47l-2.25 2.08a2.26 2.26 0 003.08 3.3l2.24-2.08a2.26 2.26 0 00-3.07-3.3zM47.33 41.87l-2.24-2.1a2.26 2.26 0 10-3.08 3.3l2.24 2.1a2.26 2.26 0 103.08-3.3zM9.16 39.75l-2.25 2.1a2.26 2.26 0 003.07 3.3l2.25-2.1a2.26 2.26 0 10-3.07-3.3z" fill="#F32735"/></svg>
