<svg width="43" height="59" viewBox="0 0 43 59" fill="none" xmlns="http://www.w3.org/2000/svg">
<path d="M21.4579 42.9158C9.62201 42.9158 0 33.2938 0 21.4579C0 9.622 9.62201 0 21.4579 0C33.2938 0 42.9158 9.622 42.9158 21.4579C42.9158 33.2938 33.2087 42.9158 21.4579 42.9158ZM21.4579 4.17237C11.9211 4.17237 4.17237 11.9211 4.17237 21.4579C4.17237 30.9948 11.9211 38.7435 21.4579 38.7435C30.9948 38.7435 38.7435 30.9948 38.7435 21.4579C38.7435 11.9211 30.9096 4.17237 21.4579 4.17237Z" fill="#344887"/>
<path d="M32.9532 43.2557V52.7925L21.4579 49.0459L9.87745 52.7925V43.0002L5.70508 40.2754V58.5827L21.4579 53.4737L37.1256 58.5827V40.4457L32.9532 43.2557Z" fill="#344887"/>
<path d="M27.7592 32.8673H15.0718L8.68555 21.8828L15.0718 10.8984H27.7592L34.1455 21.8828L27.7592 32.8673ZM17.456 28.6949H25.375L29.2919 21.8828L25.375 15.0708H17.456L13.5391 21.8828L17.456 28.6949Z" fill="#344887"/>
</svg>
