<svg viewBox="0 0 44 59" fill="none" xmlns="http://www.w3.org/2000/svg"><path d="M22.44 42.92A21.48 21.48 0 01.98 21.46 21.48 21.48 0 0122.44 0a21.48 21.48 0 0121.45 21.46c0 11.83-9.7 21.46-21.45 21.46zm0-38.75a17.3 17.3 0 000 34.57 17.3 17.3 0 0017.28-17.28c0-9.54-7.83-17.29-17.28-17.29z" fill="#344887"/><path d="M34.85 42.64a2.09 2.09 0 00-.92 1.73v8.42l-11.5-3.74-11.57 3.74v-8.66a2.09 2.09 0 00-4.18 0V56.2c0 1.17 1.15 2 2.26 1.64l13.5-4.38 13.46 4.4c1.09.35 2.2-.46 2.2-1.6v-11.9a2.09 2.09 0 00-3.25-1.73zM28.74 32.87h-12.7L9.67 21.88l6.39-10.98h12.69l6.38 10.98-6.38 10.99zm-10.3-4.18h7.91l3.92-6.8-3.92-6.82h-7.92l-3.91 6.81 3.91 6.81z" fill="#344887"/></svg>
