<svg width="54" height="66" viewBox="0 0 54 66" fill="none" xmlns="http://www.w3.org/2000/svg">
<path d="M40.1059 43.0859L36.9553 45.8959L48.9615 56.6249V60.8824H4.17239V56.6249L16.1786 45.9811L13.1132 43.1711L0 54.7516V65.0548H53.1339V54.7516L40.1059 43.0859Z" fill="#344887"/>
<path d="M52.538 11.0696L26.8225 0L1.70312 11.0696L27.078 22.2243L44.5338 14.5607V20.4361H48.7062V12.6874L52.538 11.0696ZM27.078 17.6261L12.0915 11.0696L26.8225 4.51297L41.9793 11.0696L27.078 17.6261Z" fill="#344887"/>
<path d="M41.8085 20.6914C32.3568 24.8638 21.4575 24.9489 11.9207 20.8617L11.5801 20.6914V24.7786C16.4337 26.6519 21.4575 27.5886 26.5666 27.5886C31.7607 27.5886 36.8698 26.6519 41.7233 24.6935V20.6914H41.8085Z" fill="#344887"/>
<path d="M37.6357 29.6329V30.6547C37.6357 36.7856 32.6118 41.7243 26.5661 41.7243C20.5205 41.7243 15.4966 36.7004 15.4966 30.6547V30.0587L11.3242 28.6963V30.6547C11.3242 39.0846 18.2214 45.8967 26.5661 45.8967C34.9109 45.8967 41.8081 38.9995 41.8081 30.6547V28.2705L37.6357 29.6329Z" fill="#344887"/>
</svg>
