<svg width="80" height="69" viewBox="0 0 80 69" fill="none" xmlns="http://www.w3.org/2000/svg">
<path d="M51.2594 39.1688H47.087V24.0972H32.7817V39.1688H28.6094V19.9248H51.2594V39.1688Z" fill="#344887"/>
<path d="M11.4946 48.4512H7.32227V68.3764H17.37V64.204H11.4946V48.4512Z" fill="#344887"/>
<path d="M68.3754 64.204H62.5V68.3764H72.5478V48.4512H68.3754V64.204Z" fill="#344887"/>
<path d="M55.3484 64.204H47.8552V48.4512H43.6828V64.204H36.1895V48.4512H32.0172V64.204H24.5239V48.4512H20.3516V68.3764H59.5208V48.4512H55.3484V64.204Z" fill="#344887"/>
<path d="M7.40809 41.9791L10.6438 36.6997H25.6303V32.5273H8.25959L0 46.1514H16.6043H63.3519V41.9791H16.6043H7.40809Z" fill="#344887"/>
<path d="M63.3521 46.1514H79.8713L71.6117 32.5273H54.3262V36.6997H69.3127L72.4632 41.9791H63.3521V46.1514Z" fill="#344887"/>
<path d="M45.0446 17.5414H40.8722V13.6245H38.4028V17.5414H34.2305V9.45215H45.0446V17.5414Z" fill="#344887"/>
<path d="M41.7232 0H37.5508V7.15265H41.7232V0Z" fill="#344887"/>
<path d="M19.4985 24.4385H15.3262V29.8881H19.4985V24.4385Z" fill="#344887"/>
<path d="M64.5435 24.4385H60.3711V29.8881H64.5435V24.4385Z" fill="#344887"/>
</svg>
