<svg viewBox="0 0 69 59" fill="none" xmlns="http://www.w3.org/2000/svg"><path d="M44.41 31.77a1.79 1.79 0 11-3.57 0V20.65H28.58v11.12a1.79 1.79 0 11-3.57 0v-12.7c0-1.1.9-2 2-2h15.4a2 2 0 012 2v12.7zM10.34 43.3a1.79 1.79 0 00-3.57 0v13.85c0 .79.64 1.43 1.43 1.43h5.39a1.79 1.79 0 000-3.57h-3.25V43.3zM59.07 55h-3.24a1.79 1.79 0 100 3.58h5.38c.8 0 1.44-.64 1.44-1.43V43.3a1.79 1.79 0 10-3.58 0V55zM47.91 55H41.5V43.3a1.79 1.79 0 10-3.57 0V55H31.5V43.3a1.79 1.79 0 10-3.58 0V55H21.5V43.3a1.79 1.79 0 10-3.57 0v13.28c0 1.1.9 2 2 2h29.56a2 2 0 002-2V43.3a1.79 1.79 0 10-3.58 0V55z" fill="#344887"/><path d="M6.84 35.96l2.77-4.52h11.05a1.79 1.79 0 100-3.57H8.7a2 2 0 00-1.71.96L2.34 36.5a2 2 0 001.7 3.04h50.73v-3.58H6.84z" fill="#344887"/><path d="M54.77 39.54h10.6a2 2 0 001.71-3.04l-4.65-7.67a2 2 0 00-1.71-.96h-11.9a1.79 1.79 0 100 3.57h11.06l2.7 4.52h-7.81v3.58zM39.09 13.24a1.79 1.79 0 11-3.58 0v-1.57H33.4v1.57a1.79 1.79 0 11-3.57 0V10.1c0-1.1.9-2 2-2h5.27a2 2 0 012 2v3.14zM36.24 4.34V1.8a1.79 1.79 0 00-3.58 0v2.55a1.79 1.79 0 103.58 0zM17.2 23.82v-2.8a1.79 1.79 0 10-3.57 0v2.8a1.79 1.79 0 103.57 0zM55.8 23.82v-2.8a1.79 1.79 0 10-3.58 0v2.8a1.79 1.79 0 103.57 0z" fill="#344887"/></svg>
