<svg width="52" height="61" viewBox="0 0 52 61" fill="none" xmlns="http://www.w3.org/2000/svg">
<path d="M16.3492 40.528L5.53516 32.7793L26.1416 3.82812L36.9557 11.5768L16.3492 40.528ZM11.2402 31.8426L15.4977 34.8229L31.3357 12.5135L27.0782 9.5332L11.2402 31.8426Z" fill="#F32735"/>
<path d="M6.28537 35.8266L3.91602 39.1572L11.4794 44.5377L13.8488 41.207L6.28537 35.8266Z" fill="#F32735"/>
<path d="M31.2541 -0.000181992L28.8848 3.33008L36.4472 8.7105L38.8166 5.38024L31.2541 -0.000181992Z" fill="#F32735"/>
<path d="M19.4143 50.4912H0V54.5784H19.4143V50.4912Z" fill="#F32735"/>
<path d="M34.5706 18.5596L31.7606 22.4765L45.8105 56.707H9.87695V60.7942H51.8561L34.5706 18.5596Z" fill="#F32735"/>
<path d="M31.6753 18.9854L30.5684 19.4963L30.8238 20.2626L31.6753 18.9854Z" fill="#F32735"/>
</svg>
