<svg width="61" height="61" viewBox="0 0 61 61" fill="none" xmlns="http://www.w3.org/2000/svg">
<path d="M26.3966 60.6273C11.8359 60.6273 0 48.7914 0 34.2306C0 19.8402 11.6656 8.00429 26.056 7.83398H28.1848V32.187H52.8784V34.3158C52.7933 48.7914 40.9574 60.6273 26.3966 60.6273ZM24.0124 12.0915C12.9429 13.2836 4.17237 22.8205 4.17237 34.2306C4.17237 46.4923 14.135 56.4549 26.3966 56.4549C37.9771 56.4549 47.514 47.5993 48.5358 36.2742H24.0124V12.0915Z" fill="#F32735"/>
<path d="M60.6277 28.27H31.7617V0H33.8905C33.9756 0 34.0608 0 34.1459 0C48.6215 0 60.4574 11.7508 60.5426 26.2263L60.6277 28.27ZM35.9341 24.0976H56.285C55.1781 13.5389 46.5779 5.02388 35.9341 4.25752V24.0976Z" fill="#F32735"/>
</svg>
