<svg viewBox="0 0 62 50" fill="none" xmlns="http://www.w3.org/2000/svg"><path d="M61.69 39.04a2 2 0 01-2 2H2.13a2 2 0 01-2-2V2c0-1.1.9-2 2-2h57.56a2 2 0 012 2v37.04zm-57.4-2.17h53.14V4.17H4.3v32.7zM43.08 45.21H18.73a2.09 2.09 0 000 4.18h24.35a2.09 2.09 0 100-4.18z" fill="#344887"/><path d="M27.9 16.35h-2.17a1 1 0 00-1 1v2.17a1 1 0 001 1h2.18a1 1 0 001-1v-2.17a1 1 0 00-1-1zM23.73 20.52h-2.17a1 1 0 00-1 1v2.17a1 1 0 001 1h2.17a1 1 0 001-1v-2.17a1 1 0 00-1-1zM19.65 24.6h-2.18a1 1 0 00-1 1v2.18a1 1 0 001 1h2.18a1 1 0 001-1v-2.17a1 1 0 00-1-1zM44.43 24.6h-2.18a1 1 0 00-1 1v2.18a1 1 0 001 1h2.18a1 1 0 001-1v-2.17a1 1 0 00-1-1zM32 12.18h-2.18a1 1 0 00-1 1v2.17a1 1 0 001 1H32a1 1 0 001-1v-2.17a1 1 0 00-1-1zM36.17 16.35h-2.18a1 1 0 00-1 1v2.17a1 1 0 001 1h2.18a1 1 0 001-1v-2.17a1 1 0 00-1-1zM40.34 20.52h-2.17a1 1 0 00-1 1v2.17a1 1 0 001 1h2.17a1 1 0 001-1v-2.17a1 1 0 00-1-1z" fill="#344887"/></svg>
