<svg width="62" height="50" viewBox="0 0 62 50" fill="none" xmlns="http://www.w3.org/2000/svg">
<path d="M61.5638 41.0425H0V0H61.5638V41.0425ZM4.17237 36.8702H57.3062V4.17237H4.17237V36.8702Z" fill="#F32735"/>
<path d="M45.0449 45.2148H16.5195V49.3872H45.0449V45.2148Z" fill="#F32735"/>
<path d="M28.7817 16.3486H24.6094V20.521H28.7817V16.3486Z" fill="#F32735"/>
<path d="M24.6099 20.5215H20.4375V24.6939H24.6099V20.5215Z" fill="#F32735"/>
<path d="M20.522 24.6084H16.3496V28.7808H20.522V24.6084Z" fill="#F32735"/>
<path d="M45.3013 24.6084H41.1289V28.7808H45.3013V24.6084Z" fill="#F32735"/>
<path d="M32.8697 12.1768H28.6973V16.3491H32.8697V12.1768Z" fill="#F32735"/>
<path d="M37.0415 16.3486H32.8691V20.521H37.0415V16.3486Z" fill="#F32735"/>
<path d="M41.2134 20.5215H37.041V24.6939H41.2134V20.5215Z" fill="#F32735"/>
</svg>
