<svg viewBox="0 0 65 55" fill="none" xmlns="http://www.w3.org/2000/svg"><path d="M37.95 30.48c-8.43 0-15.24-6.9-15.24-15.24C22.7 6.81 29.6 0 37.95 0s15.24 6.9 15.24 15.24c0 8.43-6.81 15.24-15.24 15.24zm0-26.4a11.1 11.1 0 00-11.07 11.08c0 6.04 5.02 11.07 11.07 11.07 6.05 0 11.07-5.03 11.07-11.07A11.1 11.1 0 0037.95 4.09z" fill="#344887"/><path d="M52.84 28.89a2.07 2.07 0 00-2.76 3.08l10.26 9.24v9.03H15.55V41.2l10.29-9.12A2.07 2.07 0 0023.1 29l-11.12 9.75a2 2 0 00-.68 1.5v12.17c0 1.1.9 2 2 2h49.22a2 2 0 002-2V40.23a2 2 0 00-.67-1.49l-11-9.85zM9.1 15.58a3.8 3.8 0 003-1.47l7.1-9.13a2.1 2.1 0 10-3.3-2.56l-6.82 8.82-3.7-3.58a2.08 2.08 0 00-2.9 2.99l3.96 3.85a3.8 3.8 0 002.66 1.08z" fill="#344887"/></svg>
