<svg width="64" height="55" viewBox="0 0 64 55" fill="none" xmlns="http://www.w3.org/2000/svg">
<path d="M36.9548 30.4839C28.5249 30.4839 21.7129 23.5867 21.7129 15.2419C21.7129 6.81203 28.6101 0 36.9548 0C45.2996 0 52.1968 6.89718 52.1968 15.2419C52.1968 23.6718 45.3847 30.4839 36.9548 30.4839ZM36.9548 4.08721C30.824 4.08721 25.8853 9.11109 25.8853 15.1568C25.8853 21.2025 30.9091 26.2263 36.9548 26.2263C43.0005 26.2263 48.0244 21.2025 48.0244 15.1568C48.0244 9.11109 43.0857 4.08721 36.9548 4.08721Z" fill="#344887"/>
<path d="M50.4938 27.6738L47.3432 30.3986L59.3494 41.2127V50.2387H14.5603V41.2127L26.5665 30.5689L23.5011 27.759L10.3027 39.3394V54.4111H63.5218V39.3394L50.4938 27.6738Z" fill="#344887"/>
<path d="M9.96259 15.5828L19.4995 3.32112L16.1786 0.766602L8.08929 11.2401L2.89511 6.21623L0 9.19649L6.55657 15.5828H9.96259Z" fill="#344887"/>
</svg>
