<svg viewBox="0 0 49 59" fill="none" xmlns="http://www.w3.org/2000/svg"><path d="M38.26 39.92a1.89 1.89 0 10-2.51 2.82l9.23 8.25v3.83H4.65V51l9.27-8.21a1.86 1.86 0 00-2.47-2.8l-9.88 8.73a2 2 0 00-.68 1.5v6.37c0 1.1.9 2 2 2h43.85a2 2 0 002-2V50.2a2 2 0 00-.67-1.5l-9.8-8.78zM48.2 9.97L25.05 0 2.43 9.97 25.28 20 41 13.11v3.41a1.88 1.88 0 003.75 0v-5.1l3.45-1.45zm-22.92 5.9l-13.5-5.9 13.27-5.9 13.65 5.9-13.42 5.9z" fill="#F32735"/><path d="M38.49 21.17c.02-1.18-1.2-2-2.31-1.6a34.78 34.78 0 01-22.5-.03c-1.13-.39-2.36.43-2.36 1.63 0 .69.43 1.31 1.08 1.54a37.2 37.2 0 0025.07-.1c.6-.21 1-.8 1.02-1.44zM34.78 26.68v.92a10 10 0 01-9.96 9.97c-5.45 0-9.97-4.52-9.97-9.97v-.53l-3.76-1.23v1.76c0 7.6 6.21 13.73 13.73 13.73 7.51 0 13.72-6.21 13.72-13.73v-2.14l-3.76 1.22z" fill="#F32735"/></svg>
