<svg width="49" height="60" fill="none" xmlns="http://www.w3.org/2000/svg"><path d="M38.57 26.07v2.2c0 7.78-6.27 14.06-14.1 14.06a14.15 14.15 0 01-14.12-14.06v-1.8l3.84 1.25v.55a10.18 10.18 0 1020.39 0v-.94l4-1.26z" fill="#344887"/><path d="M49 50.5V60H0v-9.5l12.15-10.68 2.82 2.59-11.13 9.82v3.84h41.24v-3.84l-11.05-9.9 2.97-2.6L49 50.5zM24.77 0L1.65 10.2 25 20.43l16.07-7.07v5.5h3.84V11.7l3.45-1.5L24.77 0zm.24 16.26L11.13 10.2 24.7 4.16l14.03 6.05-13.72 6.05z" fill="#344887"/><path d="M38.57 19.08v3.85a37.75 37.75 0 01-27.75.08v-3.77l.31.16a35.05 35.05 0 0027.44-.32z" fill="#344887"/></svg>