<svg viewBox="0 0 53 58" fill="none" xmlns="http://www.w3.org/2000/svg"><path d="M50.41 20.6H2.95a2.33 2.33 0 000 4.65H50.4a2.33 2.33 0 100-4.65zM48.56 53.35V29.48a2.33 2.33 0 00-4.65 0v23.87h-8.35V29.48a2.33 2.33 0 00-4.66 0v23.87h-8.35V29.48a2.33 2.33 0 10-4.65 0v23.87H9.55V29.48a2.33 2.33 0 00-4.65 0v23.87H2.95a2.33 2.33 0 000 4.65H50.5a2.33 2.33 0 100-4.65h-1.95zM52.74 14.81c0-.87-.5-1.68-1.27-2.07L27.46.47a2 2 0 00-1.84.01L2.05 12.83a2.32 2.32 0 002.15 4.1L26.54 5.33l22.81 11.57a2.33 2.33 0 003.39-2.08z" fill="#F32735"/></svg>
