<svg width="44" height="49" fill="none" xmlns="http://www.w3.org/2000/svg"><g clip-path="url(#clip0)" fill="#344887"><path d="M44 11.16v4.36L21.8 4.35.16 15.6v-4.43L21.8 0 44 11.16zM44 17.26H0v3.88h44v-3.88zM7.53 45.12H3.61v1.19h3.92v-1.19zM18.51 45.12H14.6v1.19h3.92v-1.19z"/><path d="M43.2 45.12V49H.8v-3.88h2.8V23.2h3.93v21.93h7.06V23.2h3.92v21.93h6.98V23.2h4v21.93h6.98V23.2h4v21.93h2.73zM.16 17.26H0v3.88h.16v-3.88z"/></g><defs><clipPath id="clip0"><path fill="#fff" d="M0 0h44v49H0z"/></clipPath></defs></svg>