<svg width="87" height="65" viewBox="0 0 87 65" fill="none" xmlns="http://www.w3.org/2000/svg">
<path d="M73.5704 13L43.3904 0L13.9004 13L43.7004 26.08L64.2504 17.08V24H69.1604V14.93L73.5704 13ZM43.7004 20.73L26.0804 13L43.4104 5.35L61.2504 13L43.7004 20.73Z" fill="#E4002B"/>
<path d="M60.9991 24.2695C55.474 26.6931 49.5129 27.9652 43.4798 28.0082C37.4467 28.0512 31.4681 26.8641 25.9091 24.5195L25.5391 24.3595V29.1995C31.1644 31.3808 37.1456 32.4997 43.1791 32.4995C49.2774 32.4988 55.3216 31.3558 60.9991 29.1295V24.2695Z" fill="#E4002B"/>
<path d="M7.2793 54.6613H27.5893C33.3959 54.6623 38.971 56.9382 43.1193 61.0013C47.2698 56.9428 52.8443 54.6707 58.6493 54.6712H78.9993L73.9993 44.5313H58.6493C52.8443 44.5307 47.2698 46.8028 43.1193 50.8613C38.9688 46.8028 33.3943 44.5307 27.5893 44.5313H12.2793L7.2793 54.6613Z" fill="white"/>
<path d="M43.1198 64.2405L41.4998 62.6505C37.7865 59.0114 32.7891 56.9815 27.5898 57.0005H3.58984L10.8798 42.2305H27.5898C33.253 42.2167 38.7441 44.1755 43.1198 47.7705C47.4956 44.1755 52.9867 42.2167 58.6498 42.2305H75.4099L82.6998 57.0005H58.6998C53.498 56.9879 48.5006 59.025 44.7898 62.6705L43.1198 64.2405ZM10.9998 52.3405H27.5898C33.253 52.3267 38.7441 54.2855 43.1198 57.8805C47.4956 54.2855 52.9867 52.3267 58.6498 52.3405H75.2299L72.5198 46.8505H58.6498C53.448 46.8379 48.4506 48.875 44.7398 52.5205L43.1198 54.1105L41.4998 52.5205C37.7897 48.8741 32.7919 46.8369 27.5898 46.8505H13.7198L10.9998 52.3405Z" fill="#E4002B"/>
<path d="M45.4408 50.8711H40.8008V61.0011H45.4408V50.8711Z" fill="#E4002B"/>
<path d="M86.55 52.3398H72V56.9798H86.55V52.3398Z" fill="#E4002B"/>
<path d="M14.55 52.3398H0V56.9798H14.55V52.3398Z" fill="#E4002B"/>
</svg>
