<svg width="76" height="61" viewBox="0 0 76 61" fill="none" xmlns="http://www.w3.org/2000/svg">
<path d="M3.2793 48.4104L9.4193 53.8365L39.2993 27.485L33.1293 22.0234L3.2793 48.4104Z" fill="white"/>
<path d="M9.42 56.7409L0 48.4026L33.13 19.1211L42.58 27.486L9.42 56.7409ZM6.57 48.4114L9.43 50.943L36 27.486L33.11 24.9278L6.57 48.4114Z" fill="#E4002B"/>
<path d="M36.7951 0.000412116L18.3184 16.3555L21.5993 19.2597L40.076 2.90464L36.7951 0.000412116Z" fill="#E4002B"/>
<path d="M41.4691 30.8123C40.3691 28.4223 38.7891 25.5721 36.9991 24.0496C34.7357 22.345 32.1537 21.003 29.3691 20.084L41.5391 9.32031C42.6191 11.6483 44.1791 14.4366 46.0191 16.0742C47.8591 17.7118 51.0191 19.0838 53.6491 20.0398L41.4691 30.8123Z" fill="white"/>
<path d="M40.8102 12.8688C41.7263 14.5722 42.9301 16.1422 44.3802 17.5248C45.9422 18.8084 47.7158 19.8739 49.6402 20.6849L42.2002 27.2617C41.292 25.5324 40.0729 23.945 38.5902 22.5615C37.026 21.3161 35.2681 20.2757 33.3702 19.4722L40.8102 12.8865V12.8688ZM42.4502 5.61927L25.1602 20.9062C28.3402 21.8445 32.9502 23.4821 35.3902 25.5357C37.5302 27.3591 39.6102 32.0328 40.5602 34.529L57.8502 19.2244C55.0102 18.3923 49.9302 16.6131 47.6702 14.6126C45.4102 12.6121 43.4002 8.1066 42.4602 5.60156L42.4502 5.61927Z" fill="#E4002B"/>
<path d="M61.2619 21.3246L42.7852 37.6797L46.0661 40.5839L64.5428 24.2289L61.2619 21.3246Z" fill="#E4002B"/>
<path d="M67.7196 58.827V51.1172H41.5996V58.827H67.7196Z" fill="white"/>
<path d="M69.9993 60.8835H39.2793V49.0664H69.9993V60.8835ZM43.9193 56.7763H65.3993V53.1825H43.9193V56.7763Z" fill="#E4002B"/>
<path d="M75.0703 56.7734H34.2402V60.8806H75.0703V56.7734Z" fill="#E4002B"/>
</svg>
