<svg width="51" height="69" viewBox="0 0 51 69" fill="none" xmlns="http://www.w3.org/2000/svg">
<path d="M25.2 50.4C20.2159 50.4 15.3438 48.9221 11.1996 46.153C7.05552 43.384 3.82558 39.4483 1.91825 34.8436C0.0109187 30.2389 -0.488125 25.1721 0.484222 20.2837C1.45657 15.3954 3.85664 10.9052 7.38092 7.38092C10.9052 3.85664 15.3954 1.45657 20.2837 0.484222C25.1721 -0.488125 30.2389 0.0109187 34.8436 1.91825C39.4483 3.82558 43.384 7.05552 46.153 11.1996C48.9221 15.3438 50.4 20.2159 50.4 25.2C50.3921 31.881 47.7345 38.2861 43.0103 43.0103C38.2861 47.7345 31.881 50.3921 25.2 50.4ZM25.2 4.90001C21.1851 4.90001 17.2603 6.09059 13.9219 8.32118C10.5836 10.5518 7.98172 13.7222 6.44526 17.4315C4.9088 21.1409 4.50679 25.2225 5.29007 29.1603C6.07335 33.0982 8.00674 36.7153 10.8457 39.5543C13.6847 42.3933 17.3019 44.3267 21.2397 45.11C25.1775 45.8932 29.2591 45.4912 32.9685 43.9548C36.6778 42.4183 39.8483 39.8164 42.0788 36.4781C44.3094 33.1398 45.5 29.215 45.5 25.2C45.4921 19.8195 43.3505 14.6617 39.5449 10.8581C35.7393 7.05437 30.5806 4.9153 25.2 4.91001" fill="#E4002B"/>
<path d="M38.7909 50.8408V62.0608L25.2009 57.6408L11.6209 62.0608V50.5708L6.71094 47.3008V68.8208L25.2009 62.8008L43.6909 68.8208V47.5708L38.7909 50.8408Z" fill="#E4002B"/>
<path d="M17.4297 17.2112L24.4297 11.7812H28.3497V37.0013H23.6197V18.1013L17.4297 22.4812V17.2112Z" fill="#E4002B"/>
</svg>
