<svg width="58" height="78" viewBox="0 0 58 78" fill="none" xmlns="http://www.w3.org/2000/svg">
<path d="M45.8091 30.1914H11.1191V34.8314H45.8091V30.1914Z" fill="#E4002B"/>
<path d="M22.4991 40.8711H11.1191V45.5111H22.4991V40.8711Z" fill="#E4002B"/>
<path d="M45.8091 19.5117H11.1191V24.1517H45.8091V19.5117Z" fill="#E4002B"/>
<path d="M0 0V70.86H25V66.22H4.64V4.64H53.28V66.22H46.67V70.86H57.93V0H0Z" fill="#E4002B"/>
<path d="M42.0005 73.9017L35.9105 70.5417L29.8105 73.9017V56.0117H42.0005V73.9017Z" fill="white"/>
<path d="M27.4902 77.8214V53.6914H44.3202V77.8214L35.9002 73.1914L27.4902 77.8214ZM35.9002 67.8914L39.6802 70.0014V58.3314H32.1302V70.0014L35.9002 67.8914Z" fill="#E4002B"/>
<path d="M35.9105 61.36C40.152 61.36 43.5905 57.9215 43.5905 53.68C43.5905 49.4385 40.152 46 35.9105 46C31.6689 46 28.2305 49.4385 28.2305 53.68C28.2305 57.9215 31.6689 61.36 35.9105 61.36Z" fill="white"/>
<path d="M35.9102 63.6797C33.9323 63.6797 31.9989 63.0932 30.3545 61.9944C28.71 60.8956 27.4282 59.3338 26.6714 57.5065C25.9145 55.6793 25.7165 53.6686 26.1023 51.7288C26.4882 49.789 27.4406 48.0072 28.8391 46.6086C30.2376 45.2101 32.0194 44.2577 33.9593 43.8718C35.8991 43.486 37.9097 43.684 39.737 44.4409C41.5643 45.1978 43.126 46.4795 44.2249 48.124C45.3237 49.7685 45.9102 51.7019 45.9102 53.6797C45.9102 54.9929 45.6515 56.2933 45.149 57.5065C44.6464 58.7198 43.9098 59.8222 42.9812 60.7508C42.0526 61.6793 40.9503 62.4159 39.737 62.9185C38.5237 63.421 37.2234 63.6797 35.9102 63.6797ZM35.9102 48.3097C34.8501 48.3097 33.8138 48.624 32.9323 49.213C32.0509 49.802 31.3639 50.6391 30.9582 51.6185C30.5525 52.5979 30.4463 53.6756 30.6532 54.7154C30.86 55.7551 31.3705 56.7102 32.1201 57.4598C32.8697 58.2094 33.8247 58.7199 34.8645 58.9267C35.9042 59.1335 36.9819 59.0274 37.9613 58.6217C38.9408 58.216 39.7779 57.529 40.3668 56.6476C40.9558 55.7661 41.2702 54.7298 41.2702 53.6697C41.2675 52.2489 40.702 50.8871 39.6973 49.8825C38.6927 48.8779 37.3309 48.3123 35.9102 48.3097Z" fill="#E4002B"/>
</svg>
