<svg width="51" height="69" viewBox="0 0 51 69" fill="none" xmlns="http://www.w3.org/2000/svg">
<path d="M25.2 50.4C20.2159 50.4 15.3438 48.9221 11.1996 46.153C7.05552 43.384 3.82558 39.4483 1.91825 34.8436C0.0109187 30.2389 -0.488125 25.1721 0.484222 20.2837C1.45657 15.3954 3.85664 10.9052 7.38092 7.38092C10.9052 3.85664 15.3954 1.45657 20.2837 0.484222C25.1721 -0.488125 30.2389 0.0109187 34.8436 1.91825C39.4483 3.82558 43.384 7.05552 46.153 11.1996C48.9221 15.3438 50.4 20.2159 50.4 25.2C50.3921 31.881 47.7345 38.2861 43.0103 43.0103C38.2861 47.7345 31.881 50.3921 25.2 50.4ZM25.2 4.90001C21.1851 4.90001 17.2603 6.09059 13.9219 8.32118C10.5836 10.5518 7.98172 13.7222 6.44526 17.4315C4.9088 21.1409 4.50679 25.2225 5.29007 29.1603C6.07335 33.0982 8.00674 36.7153 10.8457 39.5543C13.6847 42.3933 17.3019 44.3267 21.2397 45.11C25.1775 45.8932 29.2591 45.4912 32.9685 43.9548C36.6778 42.4183 39.8483 39.8164 42.0788 36.4781C44.3094 33.1398 45.5 29.215 45.5 25.2C45.4921 19.8195 43.3505 14.6617 39.5449 10.8581C35.7393 7.05437 30.5806 4.9153 25.2 4.91001" fill="#E4002B"/>
<path d="M38.7909 50.8408V62.0608L25.2009 57.6408L11.6209 62.0608V50.5708L6.71094 47.3008V68.8208L25.2009 62.8008L43.6909 68.8208V47.5708L38.7909 50.8408Z" fill="#E4002B"/>
<path d="M24.4503 16.1914C23.2085 16.1649 21.9937 16.5558 21.0003 17.3014C20.5558 17.6319 20.1558 18.0184 19.8103 18.4514C19.4778 18.8661 19.1801 19.3076 18.9203 19.7714L17.0703 16.6414C17.2879 15.9413 17.6263 15.2847 18.0703 14.7014C18.5345 14.0758 19.1028 13.5346 19.7503 13.1014C20.4458 12.6323 21.203 12.2621 22.0003 12.0014C22.8757 11.7197 23.7908 11.5813 24.7103 11.5914C25.8769 11.5694 27.0361 11.7802 28.1203 12.2114C29.0481 12.591 29.8846 13.1636 30.5742 13.8912C31.2638 14.6187 31.7909 15.4846 32.1203 16.4314C32.4759 17.4157 32.6553 18.4549 32.6503 19.5014C32.6573 20.4224 32.543 21.3403 32.3103 22.2314C32.0746 23.0973 31.739 23.933 31.3103 24.7214C30.8334 25.5971 30.2919 26.4361 29.6903 27.2314C29.0236 28.0847 28.277 29.0014 27.4503 29.9814L23.5303 34.5414H33.3203V39.1414H17.1803V35.4414L24.6003 27.0014C25.6105 25.8616 26.53 24.6446 27.3503 23.3614C28.0046 22.3297 28.3515 21.133 28.3503 19.9114C28.3613 19.4189 28.2741 18.9292 28.0939 18.4708C27.9136 18.0124 27.6438 17.5945 27.3003 17.2414C26.9233 16.8793 26.4756 16.5991 25.9851 16.4184C25.4946 16.2377 24.9721 16.1604 24.4503 16.1914Z" fill="#E4002B"/>
</svg>
