<svg width="60" height="67" viewBox="0 0 60 67" fill="none" xmlns="http://www.w3.org/2000/svg">
<path d="M29.55 66.14C21 66.14 16.5 49.5 16.5 33.07C16.5 16.64 21 0 29.55 0C38.1 0 42.6 16.64 42.6 33.07C42.6 49.5 38.12 66.14 29.55 66.14ZM29.55 4.64C26.12 4.64 21.14 15.71 21.14 33.07C21.14 50.43 26.14 61.5 29.55 61.5C32.96 61.5 38 50.43 38 33.07C38 15.71 33 4.64 29.55 4.64Z" fill="#E4002B"/>
<path d="M49.5692 53.3285C42.3492 53.3285 32.2092 49.6385 23.0492 44.3885C8.79917 36.2085 -3.40083 23.9985 0.859169 16.6085C2.15917 14.3485 5.41917 11.9185 13.6392 13.1685C15.0496 13.388 16.448 13.6784 17.8292 14.0385C24.1969 15.8029 30.3057 18.395 35.9992 21.7485C43.3392 25.9585 49.6992 30.9485 53.8892 35.7485C59.9492 42.7485 59.5692 47.0785 58.1892 49.4885C56.7092 52.1885 53.5892 53.3285 49.5692 53.3285ZM9.56917 17.4785C6.80917 17.4785 5.34917 18.1685 4.91917 18.9185C3.20917 21.9185 10.3392 31.7285 25.3992 40.3585C40.4592 48.9885 52.5392 50.1785 54.2392 47.2085C54.8792 46.0885 54.2392 43.2085 50.4592 38.8185C46.6792 34.4285 40.6692 29.7285 33.7592 25.7685C28.4087 22.6292 22.6744 20.1957 16.6992 18.5285C15.4697 18.206 14.2248 17.9457 12.9692 17.7485C11.8343 17.5722 10.6877 17.4819 9.53917 17.4785H9.56917Z" fill="#E4002B"/>
<path d="M13.7891 33.8194L10.7891 30.2894C14.6128 27.0782 18.7196 24.2198 23.0591 21.7494C28.76 18.3798 34.879 15.7742 41.2591 13.9994C42.6402 13.6391 44.0386 13.3487 45.4491 13.1294C53.6691 11.8794 56.9391 14.3094 58.2291 16.5694C59.6191 18.9994 59.9991 23.3694 53.9391 30.3494L50.4291 27.3494C54.2491 22.9494 54.8491 20.0794 54.2091 18.9594C53.5691 17.8394 51.2091 17.0394 46.1491 17.7994C44.8934 17.9965 43.6485 18.2568 42.4191 18.5794C36.444 20.247 30.7097 22.6806 25.3591 25.8194C21.2695 28.1325 17.3971 30.81 13.7891 33.8194Z" fill="#E4002B"/>
<path d="M9.51912 53.3291C5.51912 53.3291 2.37912 52.1791 0.859124 49.5191C-0.310876 47.5191 -0.840876 43.8391 3.28912 38.1291C3.89077 37.2777 4.5384 36.4599 5.22912 35.6791L8.69912 38.7691C8.11158 39.4353 7.56077 40.133 7.04912 40.8591C5.04912 43.6291 4.21912 46.0591 4.88912 47.2191C6.58912 50.2191 18.6791 48.9991 33.7291 40.3691C38.2029 37.6648 42.4682 34.6297 46.4891 31.2891L49.4891 34.8591C45.2374 38.369 40.728 41.5546 35.9991 44.3891C26.8891 49.6391 16.7391 53.3291 9.51912 53.3291Z" fill="#E4002B"/>
<path d="M29.9991 36.8186C31.7278 36.8186 33.1291 35.4172 33.1291 33.6886C33.1291 31.9599 31.7278 30.5586 29.9991 30.5586C28.2705 30.5586 26.8691 31.9599 26.8691 33.6886C26.8691 35.4172 28.2705 36.8186 29.9991 36.8186Z" fill="#E4002B"/>
</svg>
