<svg width="102" height="39" viewBox="0 0 102 39" fill="none" xmlns="http://www.w3.org/2000/svg">
<path d="M41.5899 33.3246V16.5245C39.6547 17.6024 37.5074 18.2376 35.3008 18.3848V14.3112C36.2479 14.3112 40.4249 13.2808 42.1393 10.8672H47.2635V33.3246H41.5899Z" fill="#194888"/>
<path d="M60.4675 33.5908C54.7277 33.5908 49.1016 30.4616 49.1016 21.885C49.1016 14.2529 53.6479 10.2461 60.4675 10.2461C67.7512 10.2461 71.7482 14.7872 71.7482 21.8469C71.7482 28.42 68.329 33.5908 60.4675 33.5908ZM60.3349 29.2214C63.7921 29.2214 65.7053 26.6074 65.7053 21.7133C65.7053 18.6796 64.9571 14.625 60.5054 14.625C55.8833 14.625 54.9361 18.4792 54.9361 21.9423C54.9361 25.4053 56.2053 29.1737 60.3349 29.1737" fill="#194888"/>
<path d="M85.0261 33.5908C79.2863 33.5908 73.6602 30.4616 73.6602 21.885C73.6602 14.2529 78.2065 10.2461 85.0261 10.2461C92.3098 10.2461 96.3068 14.7872 96.3068 21.8469C96.3068 28.42 92.8876 33.5908 85.0261 33.5908ZM84.8935 29.2214C88.3507 29.2214 90.2639 26.6074 90.2639 21.7133C90.2639 18.6796 89.5157 14.625 85.064 14.625C80.4513 14.625 79.4947 18.4411 79.4947 21.99C79.4947 25.5389 80.7639 29.2214 84.8935 29.2214Z" fill="#194888"/>
<path d="M64.4071 0.0660348C50.749 -0.29649 27.2688 0.686143 8.93175 6.74412L7.34051 11.0372C8.7139 10.522 10.182 10.0832 11.6312 9.61569L5.95766 21.9415L5.72087 22.2659L5.68298 22.3327L4.1391 24.3456L5.08627 25.0516L5.96713 23.8495C6.09026 23.7351 6.2418 23.592 6.41229 23.4489C11.366 19.3657 21.0554 19.5756 25.8386 22.2945C28.0739 23.5633 29.7125 25.1565 29.9304 27.6465C29.9156 28.7667 29.5325 29.8504 28.8411 30.728C28.1181 31.4056 27.2724 31.9367 26.3501 32.2925C21.7031 33.9549 16.787 34.722 11.8585 34.5536C8.76297 34.4997 5.68369 34.09 2.68047 33.3324L0 37.6827H0.123131C3.87299 38.4092 7.67293 38.8429 11.4891 38.9802C12.673 38.9802 15.9408 38.7417 17.6741 38.5032C27.875 37.0722 31.1901 31.2336 32.2035 28.9153C32.238 28.8316 32.2665 28.7456 32.2888 28.6578C34.9977 24.317 32.6961 20.4914 28.7653 18.1636C24.6093 15.9571 19.8185 15.2822 15.2209 16.2556C13.1093 16.6171 11.1074 17.4589 9.36744 18.717L13.8191 9.06237C28.4812 5.1223 46.8656 4.59759 58.1558 4.59759H58.5347C73.8503 4.59759 89.2701 6.50561 99.0354 9.27225H99.1206L101.962 4.88379C94.9057 2.4606 80.2721 0.4858 64.4071 0.0660348Z" fill="#E53E2A"/>
</svg>
