<svg width="59" height="77" viewBox="0 0 59 77" fill="none" xmlns="http://www.w3.org/2000/svg">
<path d="M7.71583 34.9219H3.80273V69.0659H7.71583V34.9219Z" fill="#E4002B"/>
<path d="M55.1885 34.9219H51.2754V69.0659H55.1885V34.9219Z" fill="#E4002B"/>
<path d="M59 73.1055H0V76.9923H59V73.1055Z" fill="#E4002B"/>
<path d="M37.7471 54.7188H21.0996V75.0577H37.7471V54.7188Z" fill="white"/>
<path d="M39.7136 76.9993H19.1445V52.7734H39.7136V76.9993ZM23.0576 73.104H35.792V56.6603H23.0576V73.104Z" fill="#E4002B"/>
<path d="M47.6056 76.9981H11.3926V25.4805H47.6056V76.9981ZM15.3057 73.1112H43.6925V29.3673H15.3057V73.1112Z" fill="#E4002B"/>
<path d="M57.4234 32.9805H45.6504V36.8673H57.4234V32.9805Z" fill="#E4002B"/>
<path d="M12.1011 32.9805H0.328125V36.8673H12.1011V32.9805Z" fill="#E4002B"/>
<path d="M23.0576 33.5586H19.1445V37.8811H23.0576V33.5586Z" fill="#E4002B"/>
<path d="M39.7139 33.5586H35.8008V37.8811H39.7139V33.5586Z" fill="#E4002B"/>
<path d="M31.4561 33.5586H27.543V37.8811H31.4561V33.5586Z" fill="#E4002B"/>
<path d="M23.0576 41.6836H19.1445V46.0061H23.0576V41.6836Z" fill="#E4002B"/>
<path d="M39.7139 41.6836H35.8008V46.0061H39.7139V41.6836Z" fill="#E4002B"/>
<path d="M31.4561 41.6836H27.543V46.0061H31.4561V41.6836Z" fill="#E4002B"/>
<path d="M31.3799 55.7812H27.4668V73.4815H31.3799V55.7812Z" fill="#E4002B"/>
<path d="M29.4238 22.7838V13.3515V3.08984L43.3305 9.71593L29.4238 13.3515" fill="white"/>
<path d="M31.3799 22.785H27.4668V0L48.9719 10.2533L31.3799 14.8522V22.785ZM31.3799 6.18212V10.8396L37.6881 9.16427L31.3799 6.18212Z" fill="#E4002B"/>
</svg>
