<svg width="111" height="32" viewBox="0 0 111 32" fill="none" xmlns="http://www.w3.org/2000/svg">
<path d="M10.5664 0.296875V11.0949H7.85399V3.12623H3.08388V11.0949H0.365234V0.296875H10.5664Z" fill="#001A71"/>
<path d="M24.2172 3.3747C24.5333 4.10502 24.6925 4.89134 24.6848 5.68462C24.6936 6.47542 24.5365 7.25956 24.2234 7.98843C23.9331 8.6731 23.5095 9.2958 22.9763 9.82171C22.4663 10.321 21.863 10.7194 21.1992 10.995C20.5373 11.2736 19.8244 11.4171 19.1041 11.4167C18.3889 11.4323 17.6793 11.2903 17.0277 11.0011C16.5342 10.8076 16.1274 10.4479 15.8804 9.9867V15.5843H13.168V0.294797H15.7993V1.42531C16.051 0.960818 16.4649 0.600699 16.9653 0.410904C17.6284 0.123722 18.3482 -0.0160974 19.0729 0.00147284C19.8022 -0.000146008 20.5247 0.138977 21.1992 0.410904C21.8667 0.677546 22.473 1.07231 22.9825 1.57198C23.5158 2.09789 23.9394 2.72058 24.2296 3.40525L24.2172 3.3747ZM21.7355 6.87625C21.8948 6.50924 21.9755 6.11403 21.9724 5.71517C21.9768 5.31817 21.8961 4.9247 21.7355 4.56021C21.593 4.22005 21.3808 3.91221 21.1119 3.6558C20.8229 3.38767 20.4814 3.17979 20.108 3.04471C19.6916 2.90099 19.2525 2.83065 18.811 2.83694C18.179 2.82449 17.5536 2.96513 16.9903 3.24637C16.5053 3.44591 16.1124 3.81358 15.8866 4.27911V7.15124C16.1023 7.60024 16.4735 7.95971 16.9342 8.16565C17.4975 8.44689 18.1229 8.58752 18.7549 8.57508C19.1964 8.58136 19.6355 8.51102 20.0519 8.36731C20.4252 8.23223 20.7668 8.02434 21.0558 7.75622C21.3262 7.49871 21.5386 7.18854 21.6793 6.84569" fill="#001A71"/>
<path d="M29.2727 0.296875V6.77444L34.2548 0.296875H36.9734V11.0949H34.2984V4.61729L29.3163 11.0949H26.5977V0.296875H29.2727Z" fill="#001A71"/>
<path d="M50.5357 5.70497C50.5434 6.48702 50.3819 7.26178 50.0618 7.97823C49.7686 8.6487 49.345 9.25683 48.8148 9.76872C48.2725 10.2752 47.6379 10.6774 46.9441 10.9542C45.5179 11.5281 43.9183 11.5281 42.492 10.9542C41.7982 10.6774 41.1637 10.2752 40.6214 9.76872C40.0911 9.25683 39.6676 8.6487 39.3743 7.97823C39.0564 7.26132 38.8971 6.48658 38.9067 5.70497C38.8996 4.92754 39.0589 4.15729 39.3743 3.44393C39.9749 2.08245 41.0933 1.00395 42.492 0.437363C43.9175 -0.138455 45.517 -0.140651 46.9441 0.431252C47.6419 0.717212 48.277 1.13216 48.8148 1.65343C49.3478 2.17954 49.7713 2.80218 50.0618 3.48671C50.3794 4.19961 50.5409 4.96988 50.5357 5.74774V5.70497ZM41.8747 4.54389C41.7152 4.91085 41.6345 5.3061 41.6378 5.70497C41.6332 6.10198 41.7139 6.4955 41.8747 6.85993C42.0168 7.20026 42.2291 7.50816 42.4983 7.76434C42.7825 8.02949 43.1173 8.23714 43.4835 8.37544C43.8704 8.51638 44.2804 8.5868 44.6931 8.58321C45.1019 8.58711 45.5078 8.51666 45.8903 8.37544C46.2517 8.23504 46.582 8.02754 46.8631 7.76434C47.1428 7.50914 47.3675 7.20162 47.524 6.85993C47.6901 6.49695 47.7731 6.10273 47.7672 5.70497C47.7709 5.31569 47.6918 4.92993 47.5351 4.57223C47.3784 4.21452 47.1474 3.89271 46.8568 3.62726C46.5758 3.36407 46.2455 3.15657 45.8841 3.01617C45.5015 2.87508 45.0956 2.80464 44.6869 2.8084C44.282 2.82226 43.8828 2.90712 43.5084 3.05894C43.1422 3.19723 42.8075 3.40489 42.5232 3.67003C42.2529 3.92766 42.0405 4.23779 41.8997 4.58056" fill="#001A71"/>
<path d="M63.4613 3.3747C63.7744 4.10357 63.9315 4.88771 63.9227 5.67851C63.9315 6.46931 63.7744 7.25345 63.4613 7.98232C63.1713 8.66714 62.7477 9.28988 62.2142 9.81559C61.7042 10.3149 61.1009 10.7133 60.4371 10.9889C59.7752 11.2673 59.0623 11.4108 58.342 11.4105C57.6294 11.4274 56.922 11.2875 56.2718 11.0011C55.7784 10.8076 55.3715 10.4479 55.1245 9.9867V15.5843H52.4121V0.294797H55.0435V1.42531C55.2951 0.960818 55.709 0.600699 56.2095 0.410904C56.8726 0.123722 57.5923 -0.0160974 58.3171 0.00147284C59.0464 -0.000146008 59.7689 0.138977 60.4433 0.410904C61.1109 0.677399 61.7173 1.07218 62.2267 1.57198C62.76 2.09779 63.1837 2.7205 63.4738 3.40525L63.4613 3.3747ZM60.9796 6.87625C61.1391 6.50929 61.2198 6.11404 61.2165 5.71517C61.2211 5.31816 61.1404 4.92464 60.9796 4.56021C60.837 4.22013 60.6248 3.91232 60.356 3.6558C60.0475 3.38501 59.6842 3.18096 59.2898 3.05693C58.8734 2.91322 58.4343 2.84287 57.9928 2.84916C57.3608 2.83671 56.7354 2.97735 56.1721 3.25859C55.7126 3.46723 55.3437 3.82886 55.1308 4.27911V7.15124C55.3459 7.60056 55.7173 7.96015 56.1783 8.16565C56.7416 8.44689 57.367 8.58752 57.9991 8.57508C58.4405 8.58136 58.8796 8.51102 59.296 8.36731C59.6693 8.23207 60.0108 8.02421 60.2999 7.75622C60.5702 7.49859 60.7826 7.18846 60.9235 6.84569" fill="#001A71"/>
<path d="M68.5109 0.296875V6.77444L73.4931 0.296875H76.2117V11.0949H73.5367V4.61729L68.5546 11.0949H65.8359V0.296875H68.5109Z" fill="#001A71"/>
<path d="M87.543 3.12623H84.1384V11.0949H81.426V3.12623H78.0215V0.296875H87.543V3.12623Z" fill="#001A71"/>
<path d="M94.7509 8.70258C95.4256 8.70498 96.0945 8.58051 96.7213 8.33593C97.2736 8.14277 97.7611 7.80453 98.1305 7.35818L98.9661 9.41145C98.567 10.021 98.0008 10.5081 97.3324 10.817C96.5041 11.2125 95.591 11.4074 94.6699 11.3853C93.8703 11.3931 93.0759 11.2585 92.3254 10.9881C91.6307 10.7381 90.9945 10.3536 90.4547 9.85754C89.9153 9.35557 89.4903 8.74747 89.2076 8.07316C88.8975 7.32026 88.7448 6.51396 88.7587 5.70213C88.7529 4.95755 88.886 4.2182 89.1515 3.52053C89.4047 2.84301 89.7902 2.22032 90.2864 1.68726C90.7889 1.16693 91.3933 0.751249 92.0635 0.465075C92.8018 0.146944 93.6015 -0.0114639 94.408 0.000645452C95.1729 -0.0109287 95.9303 0.150068 96.6216 0.471186C97.2672 0.772484 97.8424 1.20103 98.3114 1.73003C98.7826 2.27111 99.1483 2.89255 99.3901 3.56331C99.648 4.25433 99.7789 4.98467 99.7767 5.72046C99.7767 5.87527 99.7767 6.04026 99.7767 6.21544C99.7716 6.3675 99.7528 6.51883 99.7206 6.66765H91.5522C91.5951 6.99123 91.7136 7.30074 91.8986 7.57207C92.0835 7.84341 92.3299 8.06926 92.6184 8.23204C93.2746 8.57837 94.0123 8.7491 94.7572 8.72703L94.7509 8.70258ZM97.0144 4.46772C96.9817 4.20075 96.888 3.94447 96.74 3.71802C96.5921 3.49156 96.3939 3.3008 96.1601 3.15999C95.6386 2.84935 95.0368 2.69237 94.4267 2.70778C93.7976 2.69807 93.1773 2.85425 92.6309 3.15999C92.3818 3.29438 92.1663 3.48148 92.0002 3.70769C91.8341 3.93389 91.7215 4.19353 91.6706 4.46772H97.0144Z" fill="#001A71"/>
<path d="M110.521 3.12623H107.123V11.0949H104.404V3.12623H101.006V0.296875H110.521V3.12623Z" fill="#001A71"/>
<path d="M3.58272 22.2942C3.32997 22.2919 3.07879 22.3332 2.8407 22.4164C2.61876 22.4933 2.40888 22.6003 2.21716 22.7341C2.03307 22.8648 1.8656 23.0167 1.71832 23.1864C1.57081 23.3556 1.43932 23.5376 1.32549 23.7302L0.365234 22.0986C0.449532 21.7801 0.593293 21.4797 0.789244 21.2125C0.993785 20.9315 1.24454 20.6858 1.53126 20.4853C1.84006 20.272 2.18085 20.1071 2.5414 19.9965C2.94446 19.8706 3.36547 19.8087 3.78849 19.8131C4.30759 19.8042 4.82376 19.8912 5.30993 20.0698C5.71947 20.2209 6.09085 20.4569 6.39866 20.7617C6.70646 21.0665 6.9434 21.4329 7.09326 21.8358C7.24921 22.2505 7.32737 22.6894 7.32397 23.1314C7.32761 23.4943 7.28147 23.856 7.18679 24.2069C7.09195 24.5416 6.95585 24.8638 6.78149 25.1663C6.58672 25.5018 6.36354 25.8207 6.1143 26.1196C5.84826 26.4414 5.54064 26.7938 5.19146 27.1768L4.08155 28.399H7.54845V30.8433H0.44006V28.9673L3.59519 25.6002L4.18132 24.9891C4.33341 24.8191 4.47105 24.6372 4.59286 24.4452C4.69231 24.2938 4.77389 24.1319 4.83604 23.9624C4.89522 23.7955 4.92475 23.6198 4.92333 23.443C4.92817 23.2871 4.89832 23.132 4.83587 22.9884C4.77342 22.8449 4.67986 22.7165 4.56168 22.6119C4.29152 22.3814 3.9404 22.2631 3.58272 22.2819" fill="#EB0029"/>
<path d="M12.2128 20.2365C13.6472 19.6816 15.2431 19.6816 16.6774 20.2365C17.3724 20.5027 18.0078 20.8992 18.548 21.4037C19.0815 21.9153 19.5055 22.5261 19.7951 23.2003C20.4139 24.6678 20.4139 26.3159 19.7951 27.7835C19.5032 28.4528 19.0794 29.0592 18.548 29.5678C18.0079 30.0724 17.3725 30.4689 16.6774 30.735C15.2431 31.2899 13.6472 31.2899 12.2128 30.735C11.5177 30.4691 10.8823 30.0726 10.3422 29.5678C9.81086 29.0592 9.38708 28.4528 9.09513 27.7835C8.48392 26.3229 8.48392 24.6853 9.09513 23.2247C9.38039 22.5374 9.80459 21.9138 10.3422 21.3914C10.8824 20.8869 11.5178 20.4904 12.2128 20.2243V20.2365ZM14.4451 28.6512C14.9007 28.6549 15.3531 28.5762 15.7795 28.419C16.179 28.2718 16.5454 28.0497 16.8582 27.7651C17.1646 27.4826 17.4086 27.1415 17.5753 26.7629C17.7482 26.3542 17.8372 25.916 17.8372 25.4735C17.8372 25.031 17.7482 24.5929 17.5753 24.1841C17.4097 23.8032 17.1656 23.46 16.8582 23.1758C16.5453 22.8914 16.1789 22.6693 15.7795 22.522C14.9143 22.209 13.9635 22.209 13.0983 22.522C12.7013 22.6705 12.3372 22.8925 12.0258 23.1758C11.7182 23.4597 11.474 23.8031 11.3087 24.1841C11.1358 24.5929 11.0468 25.031 11.0468 25.4735C11.0468 25.916 11.1358 26.3542 11.3087 26.7629C11.4751 27.1417 11.7192 27.4828 12.0258 27.7651C12.3371 28.0486 12.7012 28.2706 13.0983 28.419C13.5285 28.5779 13.9853 28.6567 14.4451 28.6512Z" fill="#EB0029"/>
<path d="M24.1216 28.6757C24.5453 28.6946 24.9631 28.5718 25.3063 28.3273C25.4531 28.2187 25.5711 28.077 25.6503 27.9143C25.7295 27.7516 25.7677 27.5726 25.7615 27.3924C25.7671 27.2312 25.7333 27.0711 25.6628 26.9255C25.5923 26.7798 25.4871 26.6528 25.3562 26.5552C25.0343 26.3332 24.6456 26.2234 24.2525 26.2435C23.9744 26.238 23.697 26.273 23.4294 26.3474C23.2459 26.3959 23.0713 26.4721 22.9119 26.5735L22.5253 24.8808L24.3959 22.5587H21.378V20.0898H27.551V21.8559L25.6804 24.1169C25.9728 24.1872 26.2554 24.2919 26.5222 24.4286C26.8266 24.5846 27.1009 24.7914 27.3328 25.0397C27.6014 25.322 27.813 25.6517 27.9564 26.0113C28.1257 26.4651 28.2061 26.9461 28.1933 27.429C28.1958 27.9256 28.0983 28.4177 27.9065 28.8773C27.7211 29.3238 27.4429 29.7275 27.0896 30.0628C26.7304 30.4059 26.3069 30.6777 25.8425 30.8634C25.2951 31.0757 24.7102 31.1796 24.1216 31.1689C23.7007 31.1735 23.2812 31.1221 22.8745 31.0161C22.5329 30.929 22.2054 30.7953 21.9017 30.6189C21.6451 30.4695 21.4119 30.2842 21.2096 30.069C21.0392 29.8912 20.9039 29.684 20.8105 29.4579L21.3655 27.4657C21.6703 27.823 22.0403 28.1214 22.4567 28.3457C22.9718 28.601 23.5449 28.723 24.1216 28.7001" fill="#EB0029"/>
<path d="M32.8513 20.2365C34.2856 19.6816 35.8815 19.6816 37.3159 20.2365C38.0109 20.5026 38.6464 20.8991 39.1865 21.4037C39.72 21.9153 40.1439 22.5261 40.4336 23.2003C41.0523 24.6678 41.0523 26.3159 40.4336 27.7835C40.1416 28.4528 39.7178 29.0592 39.1865 29.5678C38.6465 30.0726 38.011 30.4691 37.3159 30.735C35.8815 31.2899 34.2856 31.2899 32.8513 30.735C32.1562 30.4691 31.5207 30.0726 30.9807 29.5678C30.4486 29.0598 30.0247 28.4533 29.7336 27.7835C29.1148 26.3159 29.1148 24.6678 29.7336 23.2003C30.0232 22.5261 30.4472 21.9153 30.9807 21.4037C31.5209 20.8992 32.1563 20.5027 32.8513 20.2365ZM35.0836 28.6634C35.5391 28.6663 35.9913 28.5876 36.418 28.4312C36.8175 28.284 37.1839 28.0619 37.4967 27.7773C37.8033 27.495 38.0474 27.1539 38.2138 26.7752C38.3867 26.3664 38.4757 25.9282 38.4757 25.4858C38.4757 25.0433 38.3867 24.6051 38.2138 24.1964C38.0485 23.8153 37.8043 23.4719 37.4967 23.1881C37.1838 22.9036 36.8174 22.6816 36.418 22.5342C35.5527 22.2213 34.602 22.2213 33.7367 22.5342C33.3397 22.6827 32.9756 22.9047 32.6642 23.1881C32.3566 23.4719 32.1125 23.8153 31.9472 24.1964C31.7743 24.6051 31.6853 25.0433 31.6853 25.4858C31.6853 25.9282 31.7743 26.3664 31.9472 26.7752C32.1135 27.1539 32.3576 27.495 32.6642 27.7773C32.9755 28.0609 33.3397 28.2829 33.7367 28.4312C34.167 28.5903 34.6238 28.6691 35.0836 28.6634Z" fill="#EB0029"/>
<path d="M46.7455 18.2461H44.5382L41.9941 22.5665H44.2015L46.7455 18.2461Z" fill="#EB0029"/>
<path d="M44.5371 18.2461H46.7445L49.2885 22.5665H47.0874L44.5371 18.2461Z" fill="#EB0029"/>
</svg>
