<svg width="28" height="18" viewBox="0 0 28 18" fill="none" xmlns="http://www.w3.org/2000/svg">
<path d="M15.1667 7.8335C15.8589 7.8335 16.5356 7.62823 17.1112 7.24364C17.6867 6.85906 18.1353 6.31243 18.4002 5.67289C18.6652 5.03335 18.7345 4.32962 18.5994 3.65068C18.4644 2.97175 18.131 2.34811 17.6415 1.85862C17.1521 1.36914 16.5284 1.0358 15.8495 0.900749C15.1705 0.765701 14.4668 0.835013 13.8273 1.09992C13.1877 1.36483 12.6411 1.81343 12.2565 2.389C11.8719 2.96457 11.6667 3.64126 11.6667 4.3335C11.6667 5.26176 12.0354 6.15199 12.6918 6.80837C13.3482 7.46475 14.2384 7.8335 15.1667 7.8335ZM15.1667 3.16683C15.3974 3.16683 15.623 3.23525 15.8148 3.36345C16.0067 3.49164 16.1562 3.67385 16.2445 3.88703C16.3328 4.10021 16.3559 4.33479 16.3109 4.5611C16.2659 4.78741 16.1548 4.99529 15.9916 5.15846C15.8285 5.32162 15.6206 5.43273 15.3943 5.47775C15.168 5.52276 14.9334 5.49966 14.7202 5.41136C14.507 5.32306 14.3248 5.17352 14.1966 4.98166C14.0684 4.78981 14 4.56424 14 4.3335C14 4.02408 14.1229 3.72733 14.3417 3.50854C14.5605 3.28975 14.8572 3.16683 15.1667 3.16683ZM19.9617 7.67016C20.6442 6.69137 21.0102 5.52678 21.0102 4.3335C21.0102 3.14021 20.6442 1.97563 19.9617 0.996831C20.2972 0.888813 20.6475 0.833708 21 0.833497C21.9283 0.833497 22.8185 1.20225 23.4749 1.85862C24.1313 2.515 24.5 3.40524 24.5 4.3335C24.5 5.26176 24.1313 6.15199 23.4749 6.80837C22.8185 7.46475 21.9283 7.8335 21 7.8335C20.6475 7.83329 20.2972 7.77818 19.9617 7.67016ZM15.1667 10.1668C8.16667 10.1668 8.16667 14.8335 8.16667 14.8335V17.1668H22.1667V14.8335C22.1667 14.8335 22.1667 10.1668 15.1667 10.1668ZM10.5 14.8335C10.5 14.4952 10.8733 12.5002 15.1667 12.5002C19.25 12.5002 19.7633 14.3202 19.8333 14.8335H10.5ZM28 14.8335V17.1668H24.5V14.8335C24.4727 13.9662 24.273 13.1131 23.9124 12.3239C23.5519 11.5347 23.0377 10.8252 22.4 10.2368C28 10.8085 28 14.8335 28 14.8335ZM9.33333 9.00016H5.83333V12.5002H3.5V9.00016H0V6.66683H3.5V3.16683H5.83333V6.66683H9.33333V9.00016Z" fill="#F32735"/>
</svg>
