<svg width="28" height="28" viewBox="0 0 28 28" fill="none" xmlns="http://www.w3.org/2000/svg">
<path d="M24.4998 5.83333C23.2048 5.425 21.7815 5.25 20.4165 5.25C18.1415 5.25 15.6915 5.71667 13.9998 7C12.3082 5.71667 9.85817 5.25 7.58317 5.25C5.30817 5.25 2.85817 5.71667 1.1665 7V24.0917C1.1665 24.3833 1.45817 24.675 1.74984 24.675C1.8665 24.675 1.92484 24.6167 2.0415 24.6167C3.6165 23.8583 5.8915 23.3333 7.58317 23.3333C9.85817 23.3333 12.3082 23.8 13.9998 25.0833C15.5748 24.0917 18.4332 23.3333 20.4165 23.3333C22.3415 23.3333 24.3248 23.6833 25.9582 24.5583C26.0748 24.6167 26.1332 24.6167 26.2498 24.6167C26.5415 24.6167 26.8332 24.325 26.8332 24.0333V7C26.1332 6.475 25.3748 6.125 24.4998 5.83333ZM24.4998 21.5833C23.2165 21.175 21.8165 21 20.4165 21C18.4332 21 15.5748 21.7583 13.9998 22.75V9.33333C15.5748 8.34167 18.4332 7.58333 20.4165 7.58333C21.8165 7.58333 23.2165 7.75833 24.4998 8.16667V21.5833Z" fill="#F32735"/>
</svg>
