<svg width="64" height="70" viewBox="0 0 64 70" fill="none" xmlns="http://www.w3.org/2000/svg">
<path d="M60.0896 24.8613H2.80685C1.25667 24.8613 0 26.118 0 27.6682C0 29.2184 1.25667 30.475 2.80685 30.475H60.0896C61.6397 30.475 62.8964 29.2184 62.8964 27.6682C62.8964 26.118 61.6397 24.8613 60.0896 24.8613Z" fill="#F32735"/>
<path d="M57.8555 64.3857V35.5725C57.8555 34.0223 56.5989 32.7656 55.0487 32.7656C53.4985 32.7656 52.2419 34.0223 52.2419 35.5725V64.3857H42.16V35.5725C42.16 34.0223 40.9034 32.7656 39.3532 32.7656C37.803 32.7656 36.5464 34.0223 36.5464 35.5725V64.3857H26.4646V35.5725C26.4646 34.0223 25.208 32.7656 23.6578 32.7656C22.1076 32.7656 20.8509 34.0223 20.8509 35.5725V64.3857H10.7692V35.5725C10.7692 34.0223 9.5125 32.7656 7.96231 32.7656C6.41212 32.7656 5.15544 34.0223 5.15544 35.5725V64.3857H2.80686C1.25667 64.3857 0 65.6423 0 67.1925C0 68.7427 1.25667 69.9994 2.80686 69.9994H60.2041C61.7543 69.9994 63.011 68.7427 63.011 67.1925C63.011 65.6423 61.7543 64.3857 60.2041 64.3857H57.8555Z" fill="#F32735"/>
<path d="M62.8958 17.875C62.8958 16.8186 62.3037 15.8513 61.363 15.3706L32.1972 0.470782C31.6193 0.175519 30.934 0.179063 30.3591 0.48029L1.72753 15.4828C0.80595 15.9657 0.228516 16.9202 0.228516 17.9606C0.228516 20.0598 2.45475 21.4111 4.31699 20.4422L31.2757 6.41567L58.8114 20.383C60.6821 21.332 62.8958 19.9727 62.8958 17.875Z" fill="#F32735"/>
</svg>
