<svg width="82" height="70" viewBox="0 0 82 70" fill="none" xmlns="http://www.w3.org/2000/svg">
<path d="M52.4768 37.9636C52.4768 39.1431 51.5206 40.0993 50.3411 40.0993C49.1616 40.0993 48.2054 39.1431 48.2054 37.9636V24.6699H33.5605V37.9636C33.5605 39.1431 32.6043 40.0993 31.4248 40.0993C30.2453 40.0993 29.2891 39.1431 29.2891 37.9636V22.3984C29.2891 21.2939 30.1845 20.3984 31.2891 20.3984H50.4768C51.5814 20.3984 52.4768 21.2939 52.4768 22.3984V37.9636Z" fill="#F32735"/>
<path d="M11.7675 51.7373C11.7675 50.5578 10.8113 49.6016 9.63181 49.6016C8.45229 49.6016 7.49609 50.5578 7.49609 51.7373V68.2854C7.49609 69.2323 8.26365 69.9998 9.21048 69.9998H15.6467C16.8262 69.9998 17.7824 69.0436 17.7824 67.8641C17.7824 66.6846 16.8262 65.7284 15.6467 65.7284H11.7675V51.7373Z" fill="#F32735"/>
<path d="M69.9992 65.7284H66.1201C64.9406 65.7284 63.9844 66.6846 63.9844 67.8641C63.9844 69.0436 64.9406 69.9998 66.1201 69.9998H72.5563C73.5031 69.9998 74.2707 69.2323 74.2707 68.2854V51.7373C74.2707 50.5578 73.3145 49.6016 72.135 49.6016C70.9554 49.6016 69.9992 50.5578 69.9992 51.7373V65.7284Z" fill="#F32735"/>
<path d="M56.6627 65.7284H48.9915V51.7373C48.9915 50.5578 48.0353 49.6016 46.8558 49.6016C45.6763 49.6016 44.7201 50.5578 44.7201 51.7373V65.7284H37.049V51.7373C37.049 50.5578 36.0928 49.6016 34.9132 49.6016C33.7337 49.6016 32.7775 50.5578 32.7775 51.7373V65.7284H25.1064V51.7373C25.1064 50.5578 24.1502 49.6016 22.9707 49.6016C21.7912 49.6016 20.835 50.5578 20.835 51.7373V67.9998C20.835 69.1044 21.7304 69.9998 22.835 69.9998H58.9341C60.0387 69.9998 60.9341 69.1044 60.9341 67.9998V51.7373C60.9341 50.5578 59.9779 49.6016 58.7984 49.6016C57.6189 49.6016 56.6627 50.5578 56.6627 51.7373V65.7284Z" fill="#F32735"/>
<path d="M7.58397 42.9749L10.8965 37.5703H24.1031C25.2826 37.5703 26.2388 36.6141 26.2388 35.4345C26.2388 34.255 25.2826 33.2988 24.1031 33.2988H9.58203C8.88277 33.2988 8.23428 33.664 7.87177 34.262L1.84109 44.2095C1.03303 45.5424 1.99265 47.2464 3.55134 47.2464H16.9985H64.856V42.9749H16.9985H7.58397Z" fill="#F32735"/>
<path d="M64.8565 47.2464H78.2165C79.7752 47.2464 80.7348 45.5424 79.9267 44.2095L73.8961 34.262C73.5335 33.664 72.8851 33.2988 72.1858 33.2988H57.7519C56.5724 33.2988 55.6162 34.255 55.6162 35.4345C55.6162 36.6141 56.5724 37.5703 57.7519 37.5703H70.9585L74.1839 42.9749H64.8565V47.2464Z" fill="#F32735"/>
<path d="M46.1138 15.9571C46.1138 17.0617 45.2184 17.9571 44.1138 17.9571H43.8424C42.7378 17.9571 41.8424 17.0617 41.8424 15.9571V13.9472H39.3144V15.9571C39.3144 17.0617 38.419 17.9571 37.3144 17.9571H37.043C35.9384 17.9571 35.043 17.0617 35.043 15.9571V11.6758C35.043 10.5712 35.9384 9.67578 37.043 9.67578H44.1138C45.2184 9.67578 46.1138 10.5712 46.1138 11.6758V15.9571Z" fill="#F32735"/>
<path d="M40.7128 0H40.4414C39.3368 0 38.4414 0.895429 38.4414 2V5.32246C38.4414 6.42703 39.3368 7.32246 40.4414 7.32246H40.7128C41.8174 7.32246 42.7128 6.42703 42.7128 5.32246V2C42.7128 0.895431 41.8174 0 40.7128 0Z" fill="#F32735"/>
<path d="M17.9619 22.9707H17.6904C16.5859 22.9707 15.6904 23.8661 15.6904 24.9707V28.5972C15.6904 29.7018 16.5859 30.5972 17.6904 30.5972H17.9619C19.0664 30.5972 19.9619 29.7018 19.9619 28.5972V24.9707C19.9619 23.8661 19.0664 22.9707 17.9619 22.9707Z" fill="#F32735"/>
<path d="M64.0771 22.9707H63.8057C62.7011 22.9707 61.8057 23.8661 61.8057 24.9707V28.5972C61.8057 29.7018 62.7011 30.5972 63.8057 30.5972H64.0771C65.1817 30.5972 66.0771 29.7018 66.0771 28.5972V24.9707C66.0771 23.8661 65.1817 22.9707 64.0771 22.9707Z" fill="#F32735"/>
</svg>
