<svg width="64" height="70" viewBox="0 0 64 70" fill="none" xmlns="http://www.w3.org/2000/svg">
<path d="M40.39 56.6191H23.2146C21.7531 56.6191 20.5684 57.8039 20.5684 59.2654C20.5684 60.7268 21.7531 61.9116 23.2146 61.9116H40.39C41.8514 61.9116 43.0362 60.7268 43.0362 59.2654C43.0362 57.8039 41.8514 56.6191 40.39 56.6191Z" fill="#F32735"/>
<path d="M40.39 64.707H23.2146C21.7531 64.707 20.5684 65.8918 20.5684 67.3532C20.5684 68.8147 21.7531 69.9994 23.2146 69.9994H40.39C41.8514 69.9994 43.0362 68.8147 43.0362 67.3532C43.0362 65.8918 41.8514 64.707 40.39 64.707Z" fill="#F32735"/>
<path d="M43.0374 50.9772C43.0374 52.3284 41.942 53.4237 40.5909 53.4237C39.2397 53.4237 38.1444 52.3284 38.1444 50.9772V43.5379L39.2428 42.8389C42.7378 40.4423 44.8348 36.3482 44.8348 32.0543C44.8348 24.8646 38.9432 18.9731 31.7535 18.9731C24.5638 18.9731 18.6723 24.8646 18.6723 32.0543C18.6723 36.448 20.8691 40.4423 24.464 42.9387L25.5624 43.6377V50.9772C25.5624 52.3284 24.4671 53.4237 23.1159 53.4237C21.7648 53.4237 20.6694 52.3284 20.6694 50.9772V46.234C16.3756 42.8389 13.7793 37.6463 13.7793 32.0543C13.7793 22.1685 21.8677 14.0801 31.7535 14.0801C41.6394 14.0801 49.7278 22.1685 49.7278 32.0543C49.7278 37.5465 47.2314 42.6392 43.0374 46.0343V50.9772Z" fill="#F32735"/>
<path d="M34.4506 6.24106V2.64621C34.4506 1.18475 33.2659 0 31.8044 0C30.343 0 29.1582 1.18475 29.1582 2.64621V6.24106C29.1582 7.70252 30.343 8.88727 31.8044 8.88727C33.2659 8.88727 34.4506 7.70252 34.4506 6.24106Z" fill="#F32735"/>
<path d="M61.0633 29.5586H57.4685C56.007 29.5586 54.8223 30.7433 54.8223 32.2048C54.8223 33.6663 56.007 34.851 57.4685 34.851H61.0633C62.5248 34.851 63.7095 33.6663 63.7095 32.2048C63.7095 30.7433 62.5248 29.5586 61.0633 29.5586Z" fill="#F32735"/>
<path d="M6.24106 29.5586H2.64621C1.18475 29.5586 0 30.7433 0 32.2048C0 33.6663 1.18475 34.851 2.64621 34.851H6.24106C7.70252 34.851 8.88727 33.6663 8.88727 32.2048C8.88727 30.7433 7.70252 29.5586 6.24106 29.5586Z" fill="#F32735"/>
<path d="M14.386 11.2068L11.7607 8.75117C10.6934 7.75284 9.01884 7.80876 8.02052 8.87607C7.02219 9.94337 7.07811 11.6179 8.14542 12.6162L10.7707 15.0719C11.838 16.0702 13.5126 16.0143 14.5109 14.947C15.5092 13.8797 15.4533 12.2051 14.386 11.2068Z" fill="#F32735"/>
<path d="M51.1198 8.75889L48.4869 11.2063C47.4165 12.2012 47.3554 13.8755 48.3504 14.9459C49.3453 16.0163 51.0196 16.0774 52.09 15.0824L54.7229 12.6351C55.7932 11.6401 55.8544 9.96581 54.8594 8.89544C53.8644 7.82506 52.1901 7.76393 51.1198 8.75889Z" fill="#F32735"/>
<path d="M55.5038 49.1067L52.8781 46.651C51.8107 45.6527 50.136 45.7087 49.1377 46.7762C48.1394 47.8436 48.1954 49.5183 49.2629 50.5166L51.8885 52.9723C52.956 53.9706 54.6306 53.9145 55.629 52.8471C56.6273 51.7796 56.5712 50.105 55.5038 49.1067Z" fill="#F32735"/>
<path d="M10.737 46.6202L8.1041 49.0676C7.03373 50.0626 6.97259 51.7368 7.96756 52.8072C8.96252 53.8776 10.6368 53.9387 11.7072 52.9438L14.3401 50.4964C15.4104 49.5014 15.4716 47.8271 14.4766 46.7568C13.4816 45.6864 11.8073 45.6253 10.737 46.6202Z" fill="#F32735"/>
</svg>
