<svg width="28" height="23" viewBox="0 0 28 23" fill="none" xmlns="http://www.w3.org/2000/svg">
<path d="M11.6667 0.333252V2.96992L14 4.52159V2.66659H25.6667V20.1666H19.8333V22.4999H28V0.333252H11.6667ZM8.75 3.83325L0 9.66658V22.4999H17.5V9.66658L8.75 3.83325ZM16.3333 4.99992V6.08492L18.2117 7.33325H18.6667V4.99992H16.3333ZM21 4.99992V7.33325H23.3333V4.99992H21ZM8.75 6.74992L15.1667 10.8333V20.1666H11.6667V13.1666H5.83333V20.1666H2.33333V10.8333L8.75 6.74992ZM21 9.66658V11.9999H23.3333V9.66658H21ZM21 14.3333V16.6666H23.3333V14.3333H21Z" fill="#F32735"/>
</svg>
