<svg width="75" height="66" viewBox="0 0 75 66" fill="none" xmlns="http://www.w3.org/2000/svg">
<path d="M5.79315 34.5586C4.88372 34.5586 4.14648 35.2958 4.14648 36.2053V36.2053C4.14648 37.1147 4.88372 37.8519 5.79315 37.8519H7.45315V60.1319C7.45315 61.1586 8.29315 61.9986 9.31982 61.9986H65.3198C66.3465 61.9986 67.1865 61.1586 67.1865 60.1319V37.8519H68.7531C69.6626 37.8519 70.3998 37.1147 70.3998 36.2053V36.2053C70.3998 35.2958 69.6626 34.5586 68.7532 34.5586H5.79315ZM64.2665 59.1719H10.3732V37.8519H64.2665V59.1719Z" fill="#F32735"/>
<g clip-path="url(#clip0)">
<path d="M68.8733 23.9998L62.486 18.1931C63.5506 16.935 64.228 15.2898 64.228 13.451C64.228 9.28957 60.8408 5.99912 56.6793 5.99912C52.5179 5.99912 49.1307 9.38634 49.1307 13.451C49.1307 15.2898 49.8081 16.935 50.8727 18.1931L47.1951 21.7739L43.2272 18.0963C44.2918 16.8382 44.9692 15.193 44.9692 13.3542C44.9692 9.19279 41.582 5.90234 37.4206 5.90234C33.2591 5.90234 29.8719 9.28957 29.8719 13.3542C29.8719 15.0962 30.5493 16.7415 31.6139 18.0963L27.2589 21.7739L23.6781 18.1931C24.7427 16.935 25.4201 15.2898 25.4201 13.451C25.4201 9.28957 22.0329 5.99912 17.8714 5.99912C13.71 5.99912 10.226 9.38634 10.226 13.451C10.226 15.193 10.9034 16.8382 11.968 18.1931L5.58067 23.9998C5.19356 24.2901 5 24.6772 5 25.1611V30.5807C5 31.4517 5.67744 32.1291 6.54844 32.1291H25.904H30.1622H44.195H48.4532H67.8088C68.6798 32.1291 69.3572 31.4517 69.3572 30.5807V25.1611C69.3572 24.6772 69.1637 24.2901 68.8733 23.9998ZM7.90333 29.2258V25.7418L14.1939 20.0319C15.2584 20.6126 16.5166 20.9029 17.7747 20.9029C19.1296 20.9029 20.2909 20.6126 21.3554 20.0319L25.033 23.8062L24.8394 23.9998C24.4523 24.2901 24.2588 24.6772 24.2588 25.1611V29.2258H7.90333ZM17.7747 18.1931C15.1617 18.1931 13.1293 16.064 13.1293 13.5478C13.1293 10.9348 15.1617 8.90245 17.7747 8.90245C20.3877 8.90245 22.42 10.9348 22.42 13.5478C22.5168 16.064 20.3877 18.1931 17.7747 18.1931ZM27.2589 26.0321L29.388 23.903L33.5494 20.1287C34.614 20.7093 35.8721 20.9997 37.1302 20.9997C38.4851 20.9997 39.6464 20.7093 40.8078 20.0319L45.1628 24.0966L47.0016 25.9353V29.2258H44.195H30.1622H27.2589V26.0321ZM37.1302 18.1931C34.5172 18.1931 32.4849 16.064 32.4849 13.5478C32.4849 10.9348 34.5172 8.90245 37.1302 8.90245C39.7432 8.90245 41.7756 10.9348 41.7756 13.5478C41.8723 16.064 39.7432 18.1931 37.1302 18.1931ZM49.421 23.9998L49.2274 23.8062L52.905 20.0319C53.9696 20.6126 55.2277 20.9029 56.4858 20.9029C57.7439 20.9029 59.002 20.6126 60.0666 20.0319L66.3571 25.7418V29.2258H49.9049V25.1611C50.0017 24.774 49.8081 24.3869 49.421 23.9998ZM56.5826 18.1931C53.9696 18.1931 51.9372 16.064 51.9372 13.5478C51.9372 10.9348 53.9696 8.90245 56.5826 8.90245C59.1956 8.90245 61.2279 10.9348 61.2279 13.5478C61.2279 16.064 59.0988 18.1931 56.5826 18.1931Z" fill="#F32735"/>
</g>
<defs>
<clipPath id="clip0">
<rect width="64.3572" height="26.13" fill="white" transform="translate(5 6)"/>
</clipPath>
</defs>
</svg>
