<svg width="81" height="70" viewBox="0 0 81 70" fill="none" xmlns="http://www.w3.org/2000/svg">
<g clip-path="url(#clip0)">
<path d="M40.7002 11C33.2002 11 27.2002 17 27.2002 24.3C27.2002 31.6 33.2002 37.6 40.7002 37.6C48.2002 37.6 54.2002 31.6 54.2002 24.3C54.2002 17 48.2002 11 40.7002 11ZM40.7002 34.1C35.4002 34.1 30.9002 29.8 30.9002 24.3C30.9002 18.8 35.3002 14.5 40.7002 14.5C46.1002 14.5 50.5002 18.8 50.5002 24.3C50.5002 29.8 46.0002 34.1 40.7002 34.1Z" fill="#F32735"/>
<path d="M63.3998 45.0008C63.7998 45.4008 64.0998 45.9008 64.0998 46.5008V56.8008C64.0998 57.9008 63.1998 58.8008 62.0998 58.8008H19.2998C18.1998 58.8008 17.2998 57.9008 17.2998 56.8008V46.5008C17.2998 45.9008 17.4998 45.4008 17.9998 45.0008L27.6998 36.5008C28.3998 35.9008 29.4998 35.9008 30.1998 36.5008C30.9998 37.3008 30.9998 38.5008 30.0998 39.3008L20.9998 47.3008V55.2008H60.2998V47.3008L51.2998 39.2008C50.4998 38.5008 50.4998 37.2008 51.2998 36.5008C51.9998 35.9008 52.9998 35.9008 53.6998 36.5008L63.3998 45.0008Z" fill="#F32735"/>
<path d="M65 15.5C59.8 15.5 55.5 19.8 55.5 25C55.5 30.2 59.8 34.4 65 34.4C70.2 34.4 74.5 30.2 74.5 25C74.5 19.8 70.2 15.5 65 15.5ZM71 25C71 28.3 68.3 31 65 31C61.6 31 59 28.4 59 25C59 21.6 61.6 19 65 19C68.2 19 71 21.7 71 25Z" fill="#F32735"/>
<path d="M79.4002 38.1999L74.1002 32.7999C73.5002 32.0999 72.4002 32.0999 71.7002 32.6999C71.3002 32.9999 71.1002 33.3999 71.1002 33.8999C71.1002 34.3999 71.3002 34.7999 71.6002 35.1999L76.7002 40.4999V44.9999H67.9002C66.9002 44.9999 66.2002 45.7999 66.2002 46.6999C66.2002 47.6999 67.0002 48.3999 67.9002 48.3999H77.6002C79.0002 48.3999 80.1002 47.2999 80.1002 45.8999V39.6999C80.1002 39.1999 79.9002 38.5999 79.4002 38.1999Z" fill="#F32735"/>
<path d="M16.0996 15.5C10.8996 15.5 6.59961 19.8 6.59961 25C6.59961 30.2 10.8996 34.4 16.0996 34.4C21.2996 34.4 25.5996 30.2 25.5996 25C25.5996 19.8 21.3996 15.5 16.0996 15.5ZM22.0996 25C22.0996 28.3 19.2996 31 16.0996 31C12.6996 31 10.0996 28.4 10.0996 25C10.0996 21.6 12.6996 19 16.0996 19C19.3996 19 22.0996 21.7 22.0996 25Z" fill="#F32735"/>
<path d="M13.2 44.9984H4.5V40.3984L9.5 35.1984C9.9 34.8984 10 34.3984 10 33.8984C10 33.3984 9.8 32.9984 9.4 32.5984C8.7 31.9984 7.6 32.0984 7 32.6984L1.7 38.0984C1.3 38.4984 1 39.0984 1 39.7984V45.9984C1 47.3984 2.1 48.4984 3.5 48.4984H13.2C14.2 48.4984 14.9 47.6984 14.9 46.7984C15 45.7984 14.2 44.9984 13.2 44.9984Z" fill="#F32735"/>
</g>
<defs>
<clipPath id="clip0">
<rect width="79.1" height="47.8" fill="white" transform="translate(1 11)"/>
</clipPath>
</defs>
</svg>
