<svg width="24" height="24" viewBox="0 0 24 24" fill="none" xmlns="http://www.w3.org/2000/svg">
<g clip-path="url(#clip0)">
<path d="M11.9998 0C5.38309 0 0 5.38317 0 12C0 18.6169 5.38309 24.0001 11.9998 24.0001C13.6866 24.0001 15.3181 23.6568 16.8492 22.9797C17.2637 22.7964 17.4511 22.3118 17.2678 21.8973C17.0844 21.4827 16.5997 21.2955 16.1853 21.4787C14.8648 22.0626 13.4565 22.3588 11.9998 22.3588C6.2881 22.3588 1.64126 17.7119 1.64126 12C1.64126 6.28817 6.2881 1.64126 11.9998 1.64126C17.7117 1.64126 22.3587 6.28817 22.3587 12C22.3587 13.0824 22.1925 14.1488 21.8651 15.1695C21.1597 17.3671 20.0006 18.0452 19.4366 17.9575C18.8956 17.8727 18.8536 17.0638 18.8536 16.8179V7.0715C18.8536 6.61829 18.4862 6.25087 18.033 6.25087C17.5798 6.25087 17.2124 6.61829 17.2124 7.0715V7.5544C15.9543 6.0813 14.0844 5.14616 11.9999 5.14616C8.22067 5.14616 5.14601 8.22082 5.14601 12C5.14601 15.7793 8.22067 18.8539 11.9999 18.8539C14.0844 18.8539 15.9543 17.9188 17.2124 16.4457V16.8179C17.2124 18.3078 17.9858 19.3916 19.1828 19.5791C20.5993 19.8003 22.4624 18.6788 23.4278 15.671C23.8075 14.488 23.9999 13.2529 23.9999 12C23.9998 5.38317 18.6167 0 11.9998 0ZM11.9998 17.2127C9.1256 17.2127 6.78719 14.8742 6.78719 12C6.78719 9.12583 9.1256 6.78741 11.9998 6.78741C14.8739 6.78741 17.2123 9.12583 17.2123 12C17.2123 14.8742 14.8739 17.2127 11.9998 17.2127Z" fill="#F32735"/>
</g>
<defs>
<clipPath id="clip0">
<rect width="24" height="24" fill="white"/>
</clipPath>
</defs>
</svg>
