<svg viewBox="0 0 16 14" fill="none" xmlns="http://www.w3.org/2000/svg"><path d="M11.4 0H4.8A3.97 3.97 0 00.76 3.86v6.28A3.97 3.97 0 004.8 14h6.59a3.97 3.97 0 004.05-3.86V3.86A3.97 3.97 0 0011.4 0zm2.75 10.14a2.7 2.7 0 01-2.75 2.62H4.8a2.7 2.7 0 01-2.75-2.62V3.86a2.7 2.7 0 012.75-2.62h6.59a2.7 2.7 0 012.75 2.62v6.28z" fill="currentColor"/><path d="M8.1 3.4A3.7 3.7 0 004.33 7a3.7 3.7 0 003.79 3.6A3.7 3.7 0 0011.89 7a3.7 3.7 0 00-3.78-3.6zm0 5.97A2.43 2.43 0 015.63 7c0-1.3 1.12-2.36 2.49-2.36A2.43 2.43 0 0110.59 7c0 1.3-1.11 2.37-2.48 2.37zM12.05 2.34c-.25 0-.5.1-.67.27a.9.9 0 00-.29.64c0 .24.1.48.29.65a.99.99 0 001.35 0 .9.9 0 00.28-.65.9.9 0 00-.28-.64.98.98 0 00-.68-.27z" fill="currentColor"/></svg>
