<svg width="52" height="70" viewBox="0 0 52 70" fill="none" xmlns="http://www.w3.org/2000/svg">
<path d="M25.6398 51.2795C11.4972 51.2795 0 39.7823 0 25.6398C0 11.4972 11.4972 0 25.6398 0C39.7823 0 51.2795 11.4972 51.2795 25.6398C51.2795 39.7823 39.6806 51.2795 25.6398 51.2795ZM25.6398 4.98551C14.2443 4.98551 4.9855 14.2443 4.9855 25.6398C4.9855 37.0352 14.2443 46.294 25.6398 46.294C37.0352 46.294 46.294 37.0352 46.294 25.6398C46.294 14.2443 36.9335 4.98551 25.6398 4.98551Z" fill="#F32735"/>
<path d="M40.4761 50.9451C39.7882 51.4083 39.3758 52.1833 39.3758 53.0126V63.0815L25.6402 58.6047L11.8029 63.0815V52.7302C11.8029 51.8883 11.378 51.1034 10.6731 50.6431C9.01513 49.5603 6.81738 50.7499 6.81738 52.7302V67.249C6.81738 68.6073 8.14236 69.5705 9.43439 69.1514L25.6402 63.8955L41.7413 69.1458C43.0339 69.5674 44.3613 68.604 44.3613 67.2444V53.0126C44.3613 51.0164 42.1319 49.83 40.4761 50.9451Z" fill="#F32735"/>
<path d="M33.1688 39.2727H18.0088L10.3779 26.1476L18.0088 13.0225H33.1688L40.7997 26.1476L33.1688 39.2727ZM20.8577 34.2872H30.3199L35.0002 26.1476L30.3199 18.008H20.8577L16.1774 26.1476L20.8577 34.2872Z" fill="#F32735"/>
</svg>
