<svg width="46" height="43" fill="none" xmlns="http://www.w3.org/2000/svg"><path d="M45.6 33.7a2 2 0 01-2 2H2a2 2 0 01-2-2V2C0 .9.9 0 2 0h41.6a2 2 0 012 2v31.7zm-42-1.6H42V3.6H3.6v28.5z" fill="#F32735"/><path d="M33.4 39.4H12.2a1.8 1.8 0 100 3.6h21.2a1.8 1.8 0 000-3.6z" fill="#F32735"/><path d="M20 14.2h-1.6a1 1 0 00-1 1V17c0 .5.5 1 1 1h1.7c.5 0 1-.5 1-1v-1.7c0-.5-.5-1-1-1z" fill="#F32735"/><path d="M16.4 17.9h-1.6a1 1 0 00-1 1v1.6c0 .6.4 1 1 1h1.6c.6 0 1-.4 1-1v-1.6c0-.6-.4-1-1-1z" fill="#F32735"/><path d="M12.9 21.4h-1.7a1 1 0 00-1 1v1.7c0 .5.5 1 1 1H13c.5 0 1-.5 1-1v-1.7c0-.5-.5-1-1-1z" fill="#F32735"/><path d="M34.4 21.4h-1.6a1 1 0 00-1 1v1.7c0 .5.5 1 1 1h1.6c.6 0 1-.5 1-1v-1.7c0-.5-.4-1-1-1z" fill="#F32735"/><path d="M23.6 10.6H22a1 1 0 00-1 1v1.6c0 .6.4 1 1 1h1.6c.6 0 1-.4 1-1v-1.6c0-.5-.4-1-1-1z" fill="#F32735"/><path d="M27.2 14.2h-1.6a1 1 0 00-1 1V17c0 .5.5 1 1 1h1.6c.6 0 1-.5 1-1v-1.7c0-.5-.4-1-1-1z" fill="#F32735"/><path d="M30.9 17.9h-1.6a1 1 0 00-1 1v1.6c0 .6.4 1 1 1h1.6c.5 0 1-.4 1-1v-1.6c0-.6-.5-1-1-1z" fill="#F32735"/></svg>
