<svg width="37" height="45" fill="none" xmlns="http://www.w3.org/2000/svg"><path d="M2.6 34H2V16.4a.8.8 0 00-1.6 0V34c0 .8.7 1.5 1.5 1.5h24c.9 0 1.6-.7 1.6-1.5V2c0-.8-.7-1.5-1.5-1.5H9.5c-.5 0-.9.2-1.1.5L.7 9.6a.8.8 0 00.6 1.3h7.8c.9 0 1.5-.7 1.5-1.5V2.1H26v32H2.5zM8.2 3.9l.9-1v6.5H3l.8-.8 4.3-4.7z" fill="#F32735" stroke="#F32735"/><path d="M31 4v35H4" stroke="#F32735" stroke-width="2.5" stroke-linecap="round" stroke-linejoin="round"/><path d="M35 8v35H8" stroke="#F32735" stroke-width="2.5" stroke-linecap="round" stroke-linejoin="round"/></svg>
