<svg width="58" height="70" viewBox="0 0 58 70" fill="none" xmlns="http://www.w3.org/2000/svg">
<path d="M44.6564 47.7061C43.8011 46.9402 42.507 46.9389 41.6502 47.7031C40.6451 48.5995 40.6444 50.1711 41.6486 51.0685L52.6834 60.9294V65.5106H4.48956V60.9294L15.5597 51.1155C16.5483 50.2391 16.5611 48.6998 15.5872 47.8071C14.7474 47.0372 13.4619 47.0253 12.6079 47.7794L0.676114 58.3166C0.246222 58.6963 0 59.2422 0 59.8157V68.0001C0 69.1047 0.895431 70.0001 2 70.0001H55.173C56.2775 70.0001 57.173 69.1047 57.173 68.0001V59.8075C57.173 59.2387 56.9308 58.6969 56.5071 58.3175L44.6564 47.7061Z" fill="#F32735"/>
<path d="M56.5321 11.911L28.8619 0L1.83301 11.911L29.1368 23.9137L47.9195 15.6676V19.7448C47.9195 20.9846 48.9245 21.9896 50.1643 21.9896C51.4041 21.9896 52.4091 20.9846 52.4091 19.7448V13.6519L56.5321 11.911ZM29.1368 18.966L13.0111 11.911L28.8619 4.85603L45.1708 11.911L29.1368 18.966Z" fill="#F32735"/>
<path d="M44.9217 25.2967C44.9518 23.8837 43.499 22.9105 42.1645 23.3758C33.5783 26.3701 23.9318 26.3115 15.2857 23.3508C13.9294 22.8864 12.46 23.8584 12.46 25.2919C12.46 26.1173 12.9665 26.8616 13.745 27.1359C18.5673 28.8354 23.5379 29.6852 28.5857 29.6852C33.7525 29.6852 38.841 28.8238 43.7065 27.0287C44.4313 26.7613 44.9053 26.0691 44.9217 25.2967Z" fill="#F32735"/>
<path d="M40.4971 31.8854V32.9849C40.4971 39.5818 35.0914 44.8959 28.5861 44.8959C22.0809 44.8959 16.6751 39.4901 16.6751 32.9849V32.3435L12.1855 30.8776V32.9849C12.1855 42.0556 19.607 49.3855 28.5861 49.3855C37.5652 49.3855 44.9867 41.964 44.9867 32.9849V30.4194L40.4971 31.8854Z" fill="#F32735"/>
</svg>
