<svg width="128" height="99" viewBox="0 0 128 99" fill="none" xmlns="http://www.w3.org/2000/svg">
<path d="M105.109 50.1425C109.488 51.4306 113.481 53.878 117.088 57.4847C120.695 61.0914 122.498 66.5014 122.498 73.7147C122.498 80.928 120.05 86.9821 115.156 91.8768C110.261 96.514 104.207 98.8326 96.9936 98.8326C89.5226 98.8326 83.211 96.3852 78.0586 91.4904C73.1638 86.5956 70.7164 80.4128 70.7164 72.9418C70.7164 66.759 71.6181 61.4778 73.4214 57.0983C75.4824 52.7187 78.0586 47.824 81.15 42.414L104.722 0.679688H127.908L105.109 50.1425ZM34.3922 50.1425C38.7717 51.4306 42.7648 53.878 46.3714 57.4847C49.9781 61.0914 51.7814 66.5014 51.7814 73.7147C51.7814 80.928 49.334 86.9821 44.4393 91.8768C39.5445 96.514 33.4905 98.8326 26.2771 98.8326C18.8062 98.8326 12.4945 96.3852 7.34214 91.4904C2.44738 86.5956 0 80.4128 0 72.9418C0 66.759 0.901667 61.4778 2.705 57.0983C4.76595 52.7187 7.34214 47.824 10.4336 42.414L34.0057 0.679688H57.1914L34.3922 50.1425Z" fill="#F4F4F6"/>
</svg>
