<svg width="60" height="70" viewBox="0 0 60 70" fill="none" xmlns="http://www.w3.org/2000/svg">
<path d="M19.989 45.0306C19.3471 45.9326 18.0946 46.1414 17.1947 45.4966L7.99463 38.9044C7.09876 38.2625 6.89103 37.0168 7.53012 36.1189L28.9373 6.04277C29.5792 5.14086 30.8317 4.93199 31.7316 5.57678L40.9317 12.169C41.8276 12.8109 42.0353 14.0566 41.3962 14.9545L19.989 45.0306ZM12.943 36.6647L17.8452 40.0963L36.0814 14.4087L31.1792 10.9772L12.943 36.6647Z" fill="#F32735"/>
<path d="M14.0291 46.084L9.15541 42.617C8.0964 41.8636 6.62719 42.1114 5.87383 43.1704C5.12048 44.2294 5.36826 45.6986 6.42727 46.452L11.301 49.919C12.36 50.6723 13.8292 50.4245 14.5825 49.3655C15.3359 48.3065 15.0881 46.8373 14.0291 46.084Z" fill="#F32735"/>
<path d="M42.7772 4.8315L37.9042 1.36449C36.8453 0.611136 35.3762 0.858813 34.6229 1.91769C33.8695 2.97657 34.1172 4.44568 35.1761 5.19903L40.0491 8.66604C41.108 9.4194 42.5771 9.17172 43.3305 8.11284C44.0838 7.05396 43.8361 5.58486 42.7772 4.8315Z" fill="#F32735"/>
<path d="M20.001 58.1372H2.35306C1.0535 58.1372 0 59.1907 0 60.4903C0 61.7898 1.0535 62.8433 2.35306 62.8433H20.001C21.3006 62.8433 22.3541 61.7898 22.3541 60.4903C22.3541 59.1907 21.3006 58.1372 20.001 58.1372Z" fill="#F32735"/>
<path d="M41.414 25.3019C40.7141 23.5918 38.4056 23.3206 37.3285 24.822C36.8563 25.4803 36.7563 26.3354 37.0639 27.0848L52.7467 65.2939H13.7251C12.4256 65.2939 11.3721 66.3474 11.3721 67.6469C11.3721 68.9465 12.4256 70 13.7251 70H56.7283C58.15 70 59.1178 68.5583 58.5792 67.2424L41.414 25.3019Z" fill="#F32735"/>
<path d="M36.4718 21.8604L35.1973 22.4486L35.4914 23.331L36.4718 21.8604Z" fill="#F32735"/>
</svg>
