<svg width="144" height="144" viewBox="0 0 144 144" fill="none" xmlns="http://www.w3.org/2000/svg">
<path fill-rule="evenodd" clip-rule="evenodd" d="M72 143.465C111.469 143.465 143.465 111.469 143.465 72C143.465 32.5311 111.469 0.535316 72 0.535316C32.5311 0.535316 0.535316 32.5311 0.535316 72C0.535316 111.469 32.5311 143.465 72 143.465ZM72 124.405C43.0573 124.405 19.5947 100.943 19.5947 72C19.5947 43.0573 43.0573 19.5947 72 19.5947C100.943 19.5947 124.405 43.0573 124.405 72C124.405 100.943 100.943 124.405 72 124.405ZM72 144C111.765 144 144 111.765 144 72C144 32.2355 111.765 0 72 0C32.2355 0 0 32.2355 0 72C0 111.765 32.2355 144 72 144ZM72 123.87C43.353 123.87 20.13 100.647 20.13 72C20.13 43.353 43.353 20.13 72 20.13C100.647 20.13 123.87 43.353 123.87 72C123.87 100.647 100.647 123.87 72 123.87Z" fill="#5D5D65"/>
<g clip-path="url(#clip0_4114_50888)">
<path d="M35.0254 66.2227V71.5837H33.6025V67.6282H31.0825V71.5837H29.6487V66.2227H35.0254Z" fill="#344887"/>
<path d="M42.2161 67.7486C42.379 68.1 42.4551 68.4815 42.4551 68.8931C42.4551 69.3047 42.379 69.6962 42.2161 70.0376C42.0532 70.3889 41.8359 70.6801 41.5644 70.9311C41.2928 71.1821 40.9778 71.3728 40.6303 71.5134C40.2718 71.6539 39.9134 71.7242 39.5223 71.7242C39.0987 71.7242 38.7294 71.6539 38.4253 71.5234C38.1211 71.3929 37.9147 71.2222 37.8278 71.0214V73.8023H36.394V66.2226H37.7844V66.7848C37.8821 66.584 38.0885 66.4133 38.4035 66.2828C38.7185 66.1523 39.0878 66.082 39.5115 66.082C39.9025 66.082 40.2718 66.1523 40.6303 66.2828C40.9887 66.4133 41.3037 66.6141 41.5753 66.8651C41.8468 67.1161 42.0532 67.4072 42.2161 67.7486ZM40.8909 69.4754C40.9778 69.2946 41.0104 69.1039 41.0104 68.8931C41.0104 68.6822 40.967 68.4915 40.8909 68.3208C40.804 68.1502 40.6954 67.9996 40.5434 67.869C40.4021 67.7486 40.2175 67.6482 40.0111 67.5779C39.8047 67.5076 39.5766 67.4775 39.3268 67.4775C38.9684 67.4775 38.6425 67.5478 38.3709 67.6783C38.0885 67.8088 37.9039 67.9795 37.817 68.1803V69.6059C37.9039 69.8067 38.0885 69.9773 38.3709 70.1078C38.6534 70.2383 38.9684 70.3086 39.3268 70.3086C39.5766 70.3086 39.8047 70.2785 40.0111 70.2082C40.2175 70.138 40.3913 70.0376 40.5434 69.9171C40.6954 69.8067 40.8149 69.6561 40.8909 69.4754Z" fill="#344887"/>
<path d="M44.8774 66.2227V69.4453L47.506 66.2227H48.9398V71.5837H47.5277V68.3611L44.8991 71.5837H43.4653V66.2227H44.8774Z" fill="#344887"/>
<path d="M56.0871 68.9014C56.0871 69.313 56.0002 69.6845 55.8373 70.0359C55.6744 70.3772 55.4463 70.6784 55.1639 70.9294C54.8814 71.1804 54.5556 71.3711 54.1863 71.5217C53.817 71.6623 53.4259 71.7325 53.0132 71.7325C52.6004 71.7325 52.2094 71.6623 51.8401 71.5217C51.4708 71.3812 51.1449 71.1804 50.8625 70.9294C50.5801 70.6784 50.352 70.3873 50.189 70.0359C50.0261 69.6945 49.9392 69.313 49.9392 68.9014C49.9392 68.4999 50.0261 68.1284 50.189 67.777C50.352 67.4256 50.5801 67.1345 50.8625 66.8735C51.1449 66.6225 51.4708 66.4217 51.8401 66.2811C52.2094 66.1406 52.6004 66.0703 53.0132 66.0703C53.4259 66.0703 53.817 66.1406 54.1863 66.2811C54.5556 66.4217 54.8814 66.6225 55.1639 66.8735C55.4463 67.1245 55.6635 67.4256 55.8373 67.777C56.0002 68.1284 56.0871 68.4999 56.0871 68.9014ZM51.5142 68.3292C51.4273 68.5099 51.3947 68.7006 51.3947 68.9115C51.3947 69.1223 51.4382 69.313 51.5142 69.4837C51.6011 69.6544 51.7097 69.805 51.8618 69.9355C52.003 70.056 52.1768 70.1564 52.3832 70.2266C52.5787 70.2969 52.7959 70.327 53.024 70.327C53.2521 70.327 53.4585 70.2969 53.654 70.2266C53.8496 70.1564 54.0233 70.056 54.1646 69.9355C54.3058 69.815 54.4252 69.6644 54.5121 69.4837C54.599 69.313 54.6425 69.1223 54.6425 68.9115C54.6425 68.7006 54.599 68.5099 54.5121 68.3292C54.4252 68.1485 54.3058 67.9979 54.1646 67.8774C54.0233 67.7569 53.8496 67.6565 53.654 67.5863C53.4585 67.516 53.2521 67.4859 53.024 67.4859C52.7959 67.4859 52.5896 67.516 52.3832 67.5863C52.1877 67.6565 52.0139 67.7569 51.8618 67.8774C51.7206 67.9979 51.6011 68.1485 51.5142 68.3292Z" fill="#344887"/>
<path d="M62.8975 67.7486C63.0605 68.1 63.1365 68.4815 63.1365 68.8931C63.1365 69.3047 63.0605 69.6962 62.8975 70.0376C62.7346 70.3889 62.5173 70.6801 62.2458 70.9311C61.9742 71.1821 61.6592 71.3728 61.3117 71.5134C60.9532 71.6539 60.5948 71.7242 60.2037 71.7242C59.7801 71.7242 59.4108 71.6539 59.1067 71.5234C58.8025 71.3929 58.5961 71.2222 58.5092 71.0214V73.8023H57.0754V66.2226H58.4658V66.7848C58.5635 66.584 58.7699 66.4133 59.0849 66.2828C59.3999 66.1523 59.7692 66.082 60.1929 66.082C60.5839 66.082 60.9532 66.1523 61.3117 66.2828C61.6701 66.4133 61.9851 66.6141 62.2567 66.8651C62.5173 67.1061 62.7346 67.4072 62.8975 67.7486ZM61.5723 69.4754C61.6592 69.2946 61.6918 69.1039 61.6918 68.8931C61.6918 68.6822 61.6484 68.4915 61.5723 68.3208C61.4854 68.1502 61.3768 67.9996 61.2248 67.869C61.0836 67.7486 60.8989 67.6482 60.6925 67.5779C60.4861 67.5076 60.258 67.4775 60.0082 67.4775C59.6498 67.4775 59.3239 67.5478 59.0523 67.6783C58.7699 67.8088 58.5853 67.9795 58.4984 68.1803V69.6059C58.5853 69.8067 58.7699 69.9773 59.0523 70.1078C59.3348 70.2383 59.6498 70.3086 60.0082 70.3086C60.258 70.3086 60.4861 70.2785 60.6925 70.2082C60.8989 70.138 61.0727 70.0376 61.2248 69.9171C61.366 69.8067 61.4854 69.6561 61.5723 69.4754Z" fill="#344887"/>
<path d="M65.5588 66.2227V69.4453L68.1874 66.2227H69.6212V71.5837H68.2091V68.3611L65.5805 71.5837H64.1467V66.2227H65.5588Z" fill="#344887"/>
<path d="M75.5737 67.6282H73.7815V71.5837H72.3477V67.6282H70.5554V66.2227H75.5737V67.6282Z" fill="#344887"/>
<path d="M79.3753 70.399C79.7338 70.399 80.0814 70.3387 80.4072 70.2183C80.7331 70.0978 80.9829 69.9372 81.1459 69.7364L81.5803 70.7604C81.3957 71.0415 81.1133 71.2724 80.7222 71.4632C80.3312 71.6539 79.8641 71.7443 79.321 71.7443C78.8757 71.7443 78.4629 71.674 78.0828 71.5435C77.7026 71.413 77.3767 71.2222 77.0943 70.9813C76.8119 70.7403 76.5946 70.4391 76.4426 70.0978C76.2796 69.7464 76.2036 69.3549 76.2036 68.9232C76.2036 68.5417 76.2688 68.1803 76.41 67.8389C76.5512 67.4976 76.7467 67.1964 77.0074 66.9354C77.2681 66.6744 77.5831 66.4736 77.9415 66.3129C78.3109 66.1623 78.7128 66.082 79.1798 66.082C79.6034 66.082 79.9945 66.1623 80.3421 66.3129C80.6897 66.4635 80.9829 66.6744 81.2328 66.9354C81.4717 67.1964 81.6672 67.4976 81.7976 67.8389C81.9279 68.1803 82.004 68.5417 82.004 68.9131C82.004 68.9935 82.004 69.0738 81.9931 69.1541C81.9931 69.2444 81.9822 69.3147 81.9605 69.375H77.6591C77.7243 69.7263 77.909 69.9874 78.224 70.148C78.5607 70.3187 78.93 70.399 79.3753 70.399ZM80.5593 68.2907C80.5159 68.0096 80.3638 67.7887 80.1031 67.6381C79.8424 67.4875 79.5383 67.4173 79.1907 67.4173C78.8322 67.4173 78.5172 67.4875 78.2457 67.6381C77.9633 67.7887 77.8003 67.9996 77.7352 68.2907H80.5593Z" fill="#344887"/>
<path d="M87.6848 67.6282H85.8925V71.5837H84.4587V67.6282H82.6665V66.2227H87.6848V67.6282Z" fill="#344887"/>
<path d="M90.4765 67.3169C90.3353 67.3169 90.2049 67.337 90.0854 67.3771C89.966 67.4173 89.8573 67.4675 89.7596 67.5377C89.6618 67.598 89.5749 67.6783 89.4989 67.7586C89.4228 67.8389 89.3468 67.9293 89.2925 68.0297L88.782 67.2165C88.8254 67.0659 88.9015 66.9153 89.0101 66.7748C89.1187 66.6342 89.2491 66.5137 89.4011 66.4133C89.5532 66.3129 89.727 66.2326 89.9334 66.1724C90.1289 66.1121 90.3461 66.082 90.5851 66.082C90.8892 66.082 91.1608 66.1222 91.3889 66.2125C91.617 66.2929 91.8125 66.4133 91.9754 66.5639C92.1275 66.7145 92.247 66.8852 92.3339 67.086C92.4099 67.2868 92.4534 67.4976 92.4534 67.7285C92.4534 67.9192 92.4316 68.1 92.3773 68.2606C92.3339 68.4212 92.2579 68.5818 92.1601 68.7324C92.0623 68.883 91.9429 69.0437 91.8125 69.2043C91.6713 69.3649 91.5084 69.5356 91.3237 69.7263L90.7372 70.3287H92.5511V71.5535H88.8146V70.6299L90.4873 68.9633C90.6068 68.8429 90.7046 68.7425 90.7915 68.6521C90.8784 68.5618 90.9544 68.4714 91.0087 68.3911C91.063 68.3108 91.1065 68.2305 91.1391 68.1502C91.1716 68.0698 91.1825 67.9895 91.1825 67.8891C91.1825 67.7285 91.1173 67.598 90.987 67.4875C90.8675 67.3771 90.6937 67.3169 90.4765 67.3169Z" fill="#F32735"/>
<path d="M95.0276 66.2929C95.3969 66.1523 95.7879 66.082 96.2007 66.082C96.6134 66.082 97.0045 66.1523 97.3738 66.2929C97.7431 66.4334 98.069 66.6242 98.3514 66.8751C98.6338 67.1261 98.851 67.4173 99.014 67.7687C99.1769 68.11 99.2529 68.4915 99.2529 68.9031C99.2529 69.3147 99.1769 69.6962 99.014 70.0476C98.851 70.3889 98.6338 70.6901 98.3514 70.9311C98.069 71.1821 97.7431 71.3728 97.3738 71.5134C97.0045 71.6539 96.6134 71.7242 96.2007 71.7242C95.7879 71.7242 95.3969 71.6539 95.0276 71.5134C94.6583 71.3728 94.3324 71.1821 94.05 70.9311C93.7676 70.6801 93.5503 70.3889 93.3874 70.0476C93.2245 69.7063 93.1484 69.3248 93.1484 68.9031C93.1484 68.4915 93.2245 68.11 93.3874 67.7687C93.5503 67.4273 93.7676 67.1261 94.05 66.8751C94.3324 66.6242 94.6583 66.4334 95.0276 66.2929ZM96.2007 70.4793C96.4505 70.4793 96.6895 70.4391 96.9067 70.3588C97.124 70.2785 97.3195 70.1781 97.4715 70.0376C97.6345 69.897 97.754 69.7364 97.8517 69.5456C97.9386 69.3549 97.9929 69.134 97.9929 68.9031C97.9929 68.6722 97.9495 68.4614 97.8517 68.2606C97.754 68.0698 97.6345 67.8992 97.4715 67.7586C97.3086 67.6181 97.124 67.5177 96.9067 67.4374C96.6895 67.357 96.4505 67.3169 96.2007 67.3169C95.9508 67.3169 95.7119 67.357 95.4946 67.4374C95.2774 67.5177 95.0928 67.6181 94.9298 67.7586C94.7669 67.8992 94.6474 68.0598 94.5496 68.2606C94.4519 68.4513 94.4084 68.6722 94.4084 68.9031C94.4084 69.134 94.4519 69.3549 94.5496 69.5456C94.6365 69.7364 94.7669 69.907 94.9298 70.0376C95.0928 70.1781 95.2774 70.2785 95.4946 70.3588C95.7119 70.4391 95.9508 70.4793 96.2007 70.4793Z" fill="#F32735"/>
<path d="M101.295 70.4894C101.556 70.4894 101.762 70.4292 101.925 70.3187C102.088 70.2083 102.164 70.0477 102.164 69.8569C102.164 69.6863 102.088 69.5457 101.947 69.4453C101.806 69.3449 101.61 69.2947 101.371 69.2947C101.208 69.2947 101.056 69.3148 100.937 69.3449C100.817 69.375 100.719 69.4152 100.665 69.4553L100.459 68.612L101.458 67.4575H99.8505V66.2227H103.098V67.0961L102.121 68.2205C102.262 68.2506 102.414 68.3008 102.566 68.3711C102.718 68.4414 102.859 68.5418 102.99 68.6723C103.12 68.8028 103.229 68.9634 103.316 69.1542C103.402 69.3449 103.446 69.5859 103.446 69.8569C103.446 70.1079 103.392 70.3489 103.294 70.5798C103.196 70.8006 103.055 71.0014 102.859 71.1721C102.675 71.3428 102.447 71.4733 102.186 71.5737C101.925 71.6741 101.632 71.7243 101.306 71.7243C101.067 71.7243 100.839 71.7042 100.654 71.654C100.459 71.6038 100.285 71.5335 100.144 71.4532C100.003 71.3729 99.8723 71.2825 99.7745 71.1821C99.6767 71.0817 99.6116 70.9813 99.5681 70.8709L99.8614 69.877C100.013 70.0477 100.209 70.1983 100.437 70.3187C100.643 70.4292 100.937 70.4894 101.295 70.4894Z" fill="#F32735"/>
<path d="M105.89 66.2929C106.259 66.1523 106.65 66.082 107.063 66.082C107.475 66.082 107.867 66.1523 108.236 66.2929C108.605 66.4334 108.931 66.6242 109.213 66.8751C109.496 67.1261 109.713 67.4173 109.876 67.7687C110.039 68.11 110.115 68.4915 110.115 68.9031C110.115 69.3147 110.039 69.6962 109.876 70.0476C109.713 70.3889 109.496 70.6901 109.213 70.9311C108.931 71.1821 108.605 71.3728 108.236 71.5134C107.867 71.6539 107.475 71.7242 107.063 71.7242C106.65 71.7242 106.259 71.6539 105.89 71.5134C105.52 71.3728 105.194 71.1821 104.912 70.9311C104.63 70.6801 104.412 70.3889 104.249 70.0476C104.087 69.7063 104.01 69.3248 104.01 68.9031C104.01 68.4915 104.087 68.11 104.249 67.7687C104.412 67.4273 104.63 67.1261 104.912 66.8751C105.194 66.6242 105.52 66.4334 105.89 66.2929ZM107.074 70.4793C107.323 70.4793 107.562 70.4391 107.78 70.3588C107.997 70.2785 108.192 70.1781 108.344 70.0376C108.507 69.897 108.627 69.7364 108.725 69.5456C108.812 69.3549 108.866 69.134 108.866 68.9031C108.866 68.6722 108.822 68.4614 108.725 68.2606C108.627 68.0698 108.507 67.8992 108.344 67.7586C108.182 67.6181 107.997 67.5177 107.78 67.4374C107.562 67.357 107.323 67.3169 107.074 67.3169C106.824 67.3169 106.585 67.357 106.368 67.4374C106.15 67.5177 105.966 67.6181 105.803 67.7586C105.64 67.8992 105.52 68.0598 105.423 68.2606C105.325 68.4513 105.281 68.6722 105.281 68.9031C105.281 69.134 105.325 69.3549 105.423 69.5456C105.509 69.7364 105.64 69.907 105.803 70.0376C105.966 70.1781 106.15 70.2785 106.368 70.3588C106.574 70.4391 106.813 70.4793 107.074 70.4793Z" fill="#F32735"/>
<path d="M113.211 65.3086H112.048L110.712 67.457H111.875L113.211 65.3086Z" fill="#F32735"/>
<path d="M112.048 65.3086H113.211L114.557 67.457H113.395L112.048 65.3086Z" fill="#F32735"/>
<path d="M33.7981 76.6055V78.1817L35.0798 76.6055H35.775V79.2258H35.0907V77.6496L33.8089 79.2258H33.1138V76.6055H33.7981Z" fill="#F32735"/>
<path d="M36.5029 78.533C36.5572 78.4427 36.6224 78.3423 36.6767 78.2218C36.731 78.1114 36.7853 77.9809 36.8287 77.8403C36.8722 77.6998 36.9048 77.5492 36.9374 77.3885C36.9591 77.2279 36.9808 77.0472 36.9808 76.8665V76.6055H39.0229V78.5431H39.4139V79.9285H38.7405V79.2358H36.8939V79.9285H36.2205V78.5431H36.5029V78.533ZM38.3168 78.533V77.2881H37.5891C37.5565 77.5793 37.5022 77.8303 37.437 78.0311C37.3718 78.2319 37.2958 78.4025 37.2198 78.533H38.3168Z" fill="#F32735"/>
<path d="M41.2496 78.6395C41.4234 78.6395 41.5972 78.6094 41.7601 78.5492C41.923 78.4889 42.0425 78.4086 42.1185 78.3082L42.3358 78.8102C42.2489 78.9507 42.1077 79.0612 41.9122 79.1515C41.7166 79.2419 41.4885 79.2921 41.2278 79.2921C41.0106 79.2921 40.8151 79.262 40.6304 79.1917C40.4458 79.1315 40.2828 79.0311 40.1525 78.9206C40.0222 78.8002 39.9135 78.6596 39.8375 78.4889C39.7615 78.3183 39.718 78.1275 39.718 77.9167C39.718 77.7259 39.7506 77.5553 39.8158 77.3846C39.8809 77.2139 39.9787 77.0734 40.1091 76.9429C40.2394 76.8124 40.3915 76.712 40.5653 76.6417C40.7391 76.5714 40.9454 76.5312 41.1627 76.5312C41.3691 76.5312 41.5646 76.5714 41.7275 76.6417C41.9013 76.722 42.0425 76.8224 42.162 76.9429C42.2815 77.0633 42.3792 77.2139 42.4444 77.3846C42.5096 77.5553 42.5422 77.7259 42.5422 77.9066C42.5422 77.9468 42.5422 77.987 42.5422 78.0271C42.5422 78.0673 42.5313 78.1074 42.5313 78.1376H40.4241C40.4566 78.3082 40.5435 78.4387 40.6956 78.5191C40.8477 78.5994 41.0323 78.6395 41.2496 78.6395ZM41.8253 77.6055C41.8035 77.4649 41.7275 77.3645 41.608 77.2842C41.4885 77.2139 41.3365 77.1738 41.1627 77.1738C40.9889 77.1738 40.8368 77.2139 40.6956 77.2842C40.5653 77.3545 40.4784 77.4649 40.4458 77.6055H41.8253Z" fill="#F32735"/>
<path d="M45.9092 77.345C45.9853 77.5157 46.0287 77.6964 46.0287 77.9072C46.0287 78.108 45.9853 78.2987 45.9092 78.4694C45.8332 78.6401 45.7246 78.7806 45.5942 78.9111C45.4639 79.0316 45.3118 79.132 45.138 79.1922C44.9642 79.2525 44.7904 79.2926 44.5949 79.2926C44.3885 79.2926 44.2039 79.2625 44.0627 79.1922C43.9106 79.122 43.8128 79.0417 43.7694 78.9413V80.2966H43.0742V76.592H43.7477V76.8631C43.7911 76.7627 43.8997 76.6824 44.0518 76.6121C44.2039 76.5418 44.3885 76.5117 44.5949 76.5117C44.7904 76.5117 44.9642 76.5418 45.138 76.6121C45.3118 76.6824 45.4639 76.7727 45.5942 76.8932C45.7246 77.0338 45.8223 77.1743 45.9092 77.345ZM45.2575 78.1883C45.3009 78.0979 45.3227 78.0076 45.3227 77.9072C45.3227 77.8068 45.3009 77.7164 45.2575 77.6261C45.2141 77.5458 45.1597 77.4655 45.0946 77.4052C45.0185 77.345 44.9316 77.2948 44.8339 77.2647C44.7361 77.2346 44.6166 77.2145 44.4972 77.2145C44.3234 77.2145 44.1604 77.2446 44.0301 77.3149C43.8997 77.3851 43.802 77.4655 43.7585 77.5659V78.2586C43.802 78.359 43.8889 78.4393 44.0301 78.5096C44.1604 78.5798 44.3234 78.61 44.4972 78.61C44.6166 78.61 44.7253 78.5899 44.8339 78.5598C44.9316 78.5296 45.0185 78.4794 45.0946 78.4192C45.1597 78.3489 45.2141 78.2787 45.2575 78.1883Z" fill="#F32735"/>
<path d="M46.5068 76.9931C46.5611 76.9228 46.6263 76.8525 46.7023 76.7923C46.7784 76.732 46.8653 76.6818 46.963 76.6517C47.0608 76.6116 47.1585 76.5814 47.2672 76.5614C47.3758 76.5413 47.4844 76.5312 47.593 76.5312C47.7777 76.5312 47.9515 76.5513 48.1035 76.6015C48.2556 76.6517 48.3859 76.712 48.4946 76.8023C48.6032 76.8927 48.6901 77.0031 48.7553 77.1336C48.8204 77.2641 48.8422 77.4147 48.8422 77.5753V79.2218H48.1687V78.9909C48.1035 79.0913 47.9949 79.1616 47.8428 79.2118C47.6908 79.262 47.5496 79.2921 47.3866 79.2921C47.2346 79.2921 47.0934 79.272 46.9739 79.2319C46.8544 79.1917 46.7349 79.1315 46.648 79.0612C46.5503 78.9909 46.4851 78.9006 46.4308 78.7901C46.3765 78.6797 46.3547 78.5592 46.3547 78.4287C46.3547 78.2881 46.3873 78.1677 46.4416 78.0572C46.4959 77.9468 46.5828 77.8565 46.6915 77.7862C46.7892 77.7159 46.9087 77.6557 47.0499 77.6255C47.1803 77.5854 47.3215 77.5653 47.4627 77.5653C47.6473 77.5653 47.7994 77.5854 47.908 77.6255C48.0275 77.6657 48.1035 77.7059 48.147 77.746V77.6757C48.147 77.5252 48.0927 77.4047 47.9841 77.3143C47.8754 77.224 47.7125 77.1738 47.5061 77.1738C47.3215 77.1738 47.1694 77.2039 47.0173 77.2742C46.8761 77.3344 46.7566 77.4248 46.6697 77.5151L46.5068 76.9931ZM48.147 78.2781C48.1144 78.2279 48.0492 78.1878 47.9515 78.1576C47.8537 78.1175 47.7342 78.1074 47.6147 78.1074C47.4301 78.1074 47.2889 78.1376 47.202 78.1878C47.1151 78.238 47.0608 78.3082 47.0608 78.3986C47.0608 78.4889 47.1042 78.5592 47.202 78.6094C47.2997 78.6596 47.4301 78.6897 47.6039 78.6897C47.7342 78.6897 47.8428 78.6696 47.9406 78.6295C48.0384 78.5893 48.1035 78.5391 48.1361 78.4789V78.2781H48.147Z" fill="#F32735"/>
<path d="M52.0573 76.6055H52.7308L53.1761 79.2258H52.4809L52.2311 77.8403L51.5685 79.2258H51.0037L50.3411 77.8403L50.0913 79.2258H49.3853L49.8306 76.6055H50.4606L51.2535 78.282L52.0573 76.6055Z" fill="#F32735"/>
<path d="M54.436 76.6055V78.1817L55.7177 76.6055H56.4129V79.2258H55.7286V77.6496L54.4469 79.2258H53.7517V76.6055H54.436Z" fill="#F32735"/>
<path d="M60.8554 78.8225C60.7686 78.953 60.6382 79.0634 60.4427 79.1538C60.2472 79.2441 60.0299 79.2943 59.7801 79.2943C59.5846 79.2943 59.3891 79.2642 59.2153 79.1939C59.0415 79.1236 58.8785 79.0333 58.7373 78.9128C58.5961 78.7923 58.4875 78.6418 58.4115 78.4711C58.3354 78.3004 58.292 78.1197 58.292 77.9089C58.292 77.7081 58.3354 77.5173 58.4115 77.3467C58.4875 77.176 58.5961 77.0354 58.7373 76.9049C58.8785 76.7845 59.0306 76.6841 59.2153 76.6238C59.3891 76.5536 59.5846 76.5234 59.7801 76.5234C60.0299 76.5234 60.2472 76.5736 60.4427 76.664C60.6273 76.7543 60.7577 76.8648 60.8446 76.9853L60.6491 77.5274C60.573 77.4471 60.4753 77.3768 60.3341 77.3065C60.2037 77.2463 60.0408 77.2061 59.867 77.2061C59.6063 77.2061 59.3999 77.2664 59.2479 77.3969C59.0958 77.5274 59.0198 77.688 59.0198 77.8988C59.0198 78.1097 59.0958 78.2703 59.2479 78.4008C59.3999 78.5313 59.6063 78.5916 59.867 78.5916C60.0517 78.5916 60.2037 78.5614 60.3449 78.4912C60.4753 78.4209 60.5839 78.3506 60.6599 78.2703L60.8554 78.8225Z" fill="#F32735"/>
<path d="M63.582 77.2881H62.7022V79.2258H62.007V77.2881H61.1272V76.6055H63.5712V77.2881H63.582Z" fill="#F32735"/>
<path d="M63.9946 76.9931C64.0489 76.9228 64.1141 76.8525 64.1901 76.7923C64.2661 76.732 64.353 76.6818 64.4508 76.6517C64.5486 76.6116 64.6463 76.5814 64.7549 76.5614C64.8636 76.5413 64.9722 76.5312 65.0808 76.5312C65.2655 76.5312 65.4393 76.5513 65.5913 76.6015C65.7434 76.6517 65.8737 76.712 65.9824 76.8023C66.091 76.8927 66.1779 77.0031 66.243 77.1336C66.3082 77.2641 66.3299 77.4147 66.3299 77.5753V79.2218H65.6565V78.9909C65.5913 79.0913 65.4827 79.1616 65.3306 79.2118C65.1786 79.262 65.0374 79.2921 64.8744 79.2921C64.7224 79.2921 64.5811 79.272 64.4617 79.2319C64.3422 79.1917 64.2227 79.1315 64.1358 79.0612C64.038 78.9909 63.9729 78.9006 63.9186 78.7901C63.8643 78.6797 63.8425 78.5592 63.8425 78.4287C63.8425 78.2881 63.8751 78.1677 63.9294 78.0572C63.9837 77.9468 64.0706 77.8565 64.1793 77.7862C64.277 77.7159 64.3965 77.6557 64.5377 77.6255C64.668 77.5854 64.8093 77.5653 64.9505 77.5653C65.1351 77.5653 65.2872 77.5854 65.3958 77.6255C65.5153 77.6657 65.5913 77.7059 65.6348 77.746V77.6757C65.6348 77.5252 65.5805 77.4047 65.4718 77.3143C65.3632 77.224 65.2003 77.1738 64.9939 77.1738C64.8093 77.1738 64.6572 77.2039 64.5051 77.2742C64.3639 77.3344 64.2444 77.4248 64.1575 77.5151L63.9946 76.9931ZM65.6348 78.2781C65.6022 78.2279 65.537 78.1878 65.4393 78.1576C65.3415 78.1175 65.222 78.1074 65.1025 78.1074C64.9179 78.1074 64.7767 78.1376 64.6898 78.1878C64.6029 78.238 64.5486 78.3082 64.5486 78.3986C64.5486 78.4889 64.592 78.5592 64.6898 78.6094C64.7875 78.6596 64.9179 78.6897 65.0917 78.6897C65.222 78.6897 65.3306 78.6696 65.4284 78.6295C65.5261 78.5893 65.5913 78.5391 65.6239 78.4789V78.2781H65.6348Z" fill="#F32735"/>
<path d="M67.7203 76.6055V77.5391H68.9695V76.6055H69.6646V79.2258H68.9695V78.2218H67.7203V79.2258H67.0251V76.6055H67.7203Z" fill="#F32735"/>
<path d="M73.184 77.9089C73.184 78.1097 73.1405 78.2904 73.0645 78.461C72.9885 78.6317 72.8798 78.7723 72.7386 78.8927C72.5974 79.0132 72.4454 79.1136 72.2607 79.1839C72.076 79.2542 71.8914 79.2843 71.685 79.2843C71.4786 79.2843 71.294 79.2542 71.1093 79.1839C70.9247 79.1136 70.7726 79.0233 70.6314 78.8927C70.4902 78.7622 70.3816 78.6217 70.3055 78.461C70.2295 78.3004 70.186 78.1097 70.186 77.9089C70.186 77.7081 70.2295 77.5274 70.3055 77.3567C70.3816 77.186 70.4902 77.0455 70.6314 76.915C70.7726 76.7945 70.9247 76.6941 71.1093 76.6238C71.294 76.5536 71.4786 76.5234 71.685 76.5234C71.8914 76.5234 72.076 76.5536 72.2607 76.6238C72.4454 76.6941 72.5974 76.7945 72.7386 76.915C72.8798 77.0354 72.9885 77.186 73.0645 77.3567C73.1405 77.5374 73.184 77.7181 73.184 77.9089ZM70.9572 77.6278C70.9138 77.7181 70.8921 77.8085 70.8921 77.9089C70.8921 78.0093 70.9138 78.0996 70.9572 78.19C71.0007 78.2703 71.055 78.3506 71.1202 78.4108C71.1962 78.4711 71.2722 78.5213 71.37 78.5514C71.4678 78.5815 71.5655 78.6016 71.685 78.6016C71.7936 78.6016 71.9022 78.5815 71.9891 78.5514C72.0869 78.5213 72.1629 78.4711 72.239 78.4108C72.315 78.3506 72.3693 78.2803 72.4128 78.19C72.4562 78.1097 72.4779 78.0093 72.4779 77.9089C72.4779 77.8085 72.4562 77.7081 72.4128 77.6278C72.3693 77.5374 72.315 77.4671 72.239 77.4069C72.1629 77.3467 72.0869 77.2965 71.9891 77.2664C71.8914 77.2362 71.7936 77.2162 71.685 77.2162C71.5764 77.2162 71.4678 77.2362 71.37 77.2664C71.2722 77.2965 71.1854 77.3467 71.1202 77.4069C71.055 77.4671 70.9898 77.5475 70.9572 77.6278Z" fill="#F32735"/>
<path d="M74.7917 76.6055C74.9329 76.6055 75.0741 76.6255 75.1936 76.6557C75.313 76.6858 75.4217 76.736 75.5194 76.7962C75.6063 76.8565 75.6823 76.9368 75.7367 77.0271C75.791 77.1175 75.8127 77.2279 75.8127 77.3584C75.8127 77.4689 75.791 77.5592 75.7584 77.6295C75.7258 77.6998 75.6715 77.76 75.6063 77.8303C75.7149 77.8905 75.8018 77.9708 75.867 78.0712C75.9322 78.1716 75.9648 78.2921 75.9648 78.4427C75.9648 78.5732 75.9322 78.6836 75.8779 78.784C75.8236 78.8844 75.7475 78.9647 75.6498 79.035C75.552 79.1053 75.4434 79.1555 75.313 79.1856C75.1827 79.2258 75.0523 79.2358 74.9111 79.2358H73.6946V76.6155H74.7917V76.6055ZM74.3789 77.1978V77.6395H74.8785C74.9654 77.6395 75.0306 77.6194 75.0741 77.5693C75.1175 77.5291 75.1501 77.4789 75.1501 77.4187C75.1501 77.3584 75.1284 77.3082 75.0741 77.258C75.0306 77.2179 74.9546 77.1878 74.8677 77.1878H74.3789V77.1978ZM74.3789 78.1716V78.6234H75.0198C75.0958 78.6234 75.161 78.6033 75.2153 78.5632C75.2587 78.523 75.2913 78.4628 75.2913 78.4025C75.2913 78.3423 75.2696 78.2921 75.2153 78.2519C75.1718 78.2017 75.1067 78.1817 75.0198 78.1817H74.3789V78.1716Z" fill="#F32735"/>
<path d="M78.5391 76.6055V79.2258H77.8439V78.4427H77.6158L77.0401 79.2258H76.2363L76.8772 78.3523C76.7143 78.272 76.5839 78.1716 76.497 78.0311C76.4101 77.8905 76.3558 77.7299 76.3558 77.5391C76.3558 77.3885 76.3884 77.258 76.4427 77.1476C76.497 77.0372 76.5731 76.9368 76.6708 76.8565C76.7686 76.7761 76.8772 76.7159 77.0075 76.6757C77.1379 76.6356 77.2791 76.6155 77.4312 76.6155H78.5391V76.6055ZM77.366 77.258C77.2682 77.258 77.1813 77.2881 77.127 77.3383C77.0727 77.3986 77.0401 77.4588 77.0401 77.5391C77.0401 77.6194 77.0727 77.6897 77.1379 77.7399C77.2031 77.7901 77.2791 77.8102 77.3768 77.8102H77.8548V77.258H77.366Z" fill="#F32735"/>
<path d="M81.4499 77.2881H80.5701V79.2258H79.8749V77.2881H78.9951V76.6055H81.4391V77.2881H81.4499Z" fill="#F32735"/>
<path d="M84.2634 78.8225C84.1765 78.953 84.0462 79.0634 83.8506 79.1538C83.6551 79.2441 83.4379 79.2943 83.1881 79.2943C82.9925 79.2943 82.797 79.2642 82.6232 79.1939C82.4494 79.1236 82.2865 79.0333 82.1453 78.9128C82.0041 78.7923 81.8955 78.6418 81.8194 78.4711C81.7434 78.3004 81.7 78.1197 81.7 77.9089C81.7 77.7081 81.7434 77.5173 81.8194 77.3467C81.8955 77.176 82.0041 77.0354 82.1453 76.9049C82.2865 76.7845 82.4386 76.6841 82.6232 76.6238C82.797 76.5536 82.9925 76.5234 83.1881 76.5234C83.4379 76.5234 83.6551 76.5736 83.8506 76.664C84.0353 76.7543 84.1656 76.8648 84.2525 76.9853L84.057 77.5274C83.981 77.4471 83.8832 77.3768 83.742 77.3065C83.6117 77.2463 83.4487 77.2061 83.2749 77.2061C83.0143 77.2061 82.8079 77.2664 82.6558 77.3969C82.5037 77.5274 82.4277 77.688 82.4277 77.8988C82.4277 78.1097 82.5037 78.2703 82.6558 78.4008C82.8079 78.5313 83.0143 78.5916 83.2749 78.5916C83.4596 78.5916 83.6117 78.5614 83.7529 78.4912C83.8832 78.4209 83.9918 78.3506 84.0679 78.2703L84.2634 78.8225Z" fill="#F32735"/>
<path d="M86.8377 76.6055V79.2258H86.1425V78.4427H85.9144L85.3387 79.2258H84.5349L85.1758 78.3523C85.0128 78.272 84.8825 78.1716 84.7956 78.0311C84.7087 77.8905 84.6544 77.7299 84.6544 77.5391C84.6544 77.3885 84.687 77.258 84.7413 77.1476C84.7956 77.0372 84.8716 76.9368 84.9694 76.8565C85.0672 76.7761 85.1758 76.7159 85.3061 76.6757C85.4365 76.6356 85.5777 76.6155 85.7297 76.6155H86.8377V76.6055ZM85.6646 77.258C85.5668 77.258 85.4799 77.2881 85.4256 77.3383C85.3713 77.3986 85.3387 77.4588 85.3387 77.5391C85.3387 77.6194 85.3713 77.6897 85.4365 77.7399C85.5016 77.7901 85.5777 77.8102 85.6754 77.8102H86.1534V77.258H85.6646Z" fill="#F32735"/>
<path d="M32.7336 79.2218L31.5931 76.6016H30.5938L29.4424 79.2218H30.4417L31.0934 77.736L31.7451 79.2218H32.7336Z" fill="#F32735"/>
</g>
<path d="M131.56 73.1269L131.588 72.5254L137.278 72.7891L137.071 77.2514L131.381 76.9877L131.409 76.3862L136.554 76.6247L136.705 73.3653L131.56 73.1269Z" fill="#5D5D65"/>
<path d="M131.162 78.8715L131.245 78.2752L136.886 79.0625L136.556 81.4318C136.478 81.9905 136.274 82.4112 135.944 82.6938C135.614 82.9764 135.213 83.0847 134.74 83.0187C134.257 82.9512 133.893 82.736 133.647 82.3732C133.408 82.0111 133.327 81.5507 133.405 80.992L133.652 79.2191L131.162 78.8715ZM136.263 79.5835L134.192 79.2944L133.95 81.027C133.895 81.4246 133.94 81.7459 134.087 81.9909C134.239 82.2367 134.479 82.3824 134.806 82.4282C135.14 82.4747 135.41 82.4001 135.618 82.2046C135.831 82.0152 135.965 81.719 136.021 81.3161L136.263 79.5835Z" fill="#5D5D65"/>
<path d="M135.127 85.2943C135.546 85.9598 135.659 86.6905 135.466 87.4865C135.274 88.2772 134.839 88.8723 134.162 89.2717C133.484 89.6711 132.74 89.7723 131.928 89.5753C131.111 89.3771 130.493 88.9452 130.074 88.2797C129.659 87.6208 129.548 86.8934 129.741 86.0974C129.935 85.2961 130.368 84.6978 131.039 84.3023C131.71 83.9069 132.456 83.809 133.279 84.0086C134.096 84.2068 134.712 84.6354 135.127 85.2943ZM131.329 84.8332C130.785 85.1422 130.437 85.6077 130.286 86.2298C130.135 86.8518 130.231 87.4248 130.573 87.9487C130.918 88.4791 131.418 88.8237 132.072 88.9823C132.725 89.1409 133.328 89.0637 133.878 88.7507C134.422 88.4417 134.769 87.9762 134.92 87.3541C135.071 86.7321 134.976 86.1591 134.634 85.6352C134.288 85.1048 133.788 84.7602 133.135 84.6016C132.481 84.443 131.879 84.5202 131.329 84.8332Z" fill="#5D5D65"/>
<path d="M128.659 90.2575L128.853 89.6876L134.244 91.5273L133.011 95.139L132.495 94.9629L133.533 91.9211L128.659 90.2575Z" fill="#5D5D65"/>
<path d="M127.17 94.3331L127.411 93.7812L132.632 96.0586L131.675 98.2513C131.45 98.7684 131.14 99.1186 130.746 99.302C130.353 99.4853 129.937 99.4816 129.5 99.2907C129.052 99.0955 128.759 98.7902 128.621 98.3747C128.488 97.9615 128.534 97.4963 128.759 96.9792L129.475 95.3384L127.17 94.3331ZM131.891 96.3925L129.975 95.5564L129.275 97.1599C129.115 97.5278 129.072 97.8495 129.147 98.1249C129.227 98.4025 129.419 98.6075 129.722 98.7398C130.031 98.8742 130.311 98.8753 130.564 98.7431C130.82 98.6179 131.029 98.3689 131.192 97.996L131.891 96.3925Z" fill="#5D5D65"/>
<path d="M125.223 98.6372L125.526 98.0886L129.315 103.078L129.044 103.57L122.798 103.033L123.105 102.477L124.822 102.616L126.264 100.001L125.223 98.6372ZM128.519 102.955L126.629 100.435L125.379 102.701L128.519 102.955Z" fill="#5D5D65"/>
<path d="M122.045 104.126L122.384 103.638L127.062 106.887L126.723 107.375L123.283 107.492L124.375 110.756L124.041 111.238L119.362 107.989L119.701 107.501L123.631 110.23L122.649 107.279L122.857 106.979L125.975 106.855L122.045 104.126Z" fill="#5D5D65"/>
<path d="M118.343 109.206L118.732 108.756L123.041 112.48L122.653 112.93L119.22 112.684L119.96 116.045L119.577 116.488L115.268 112.764L115.656 112.314L119.276 115.443L118.611 112.405L118.85 112.128L121.963 112.334L118.343 109.206Z" fill="#5D5D65"/>
<path d="M114.499 113.498L114.954 113.068L117.039 118.977L116.631 119.362L110.847 116.943L111.309 116.508L112.901 117.164L115.073 115.115L114.499 113.498ZM116.318 118.616L115.288 115.639L113.406 117.415L116.318 118.616Z" fill="#5D5D65"/>
<path d="M108.195 118.872C108.43 118.698 108.645 118.586 108.838 118.538L109.172 118.99C108.97 119.044 108.781 119.136 108.607 119.265C108.376 119.436 108.259 119.671 108.257 119.969C108.255 120.112 108.261 120.249 108.276 120.379C108.285 120.454 108.31 120.617 108.354 120.868L112.632 122.797L112.095 123.193L108.486 121.54L109.261 125.287L108.744 125.669L107.764 120.808C107.664 120.309 107.652 119.903 107.726 119.592C107.798 119.289 107.955 119.049 108.195 118.872Z" fill="#5D5D65"/>
<path d="M103.064 122.486L103.576 122.168L106.293 126.544L107.959 125.51L108.246 125.973L104.382 128.372L104.094 127.909L105.781 126.862L103.064 122.486Z" fill="#5D5D65"/>
<path d="M98.7031 124.883L101.125 123.65L103.709 128.727L101.512 129.845C101.062 130.074 100.65 130.143 100.276 130.054C99.904 129.969 99.6209 129.736 99.4265 129.354C99.2936 129.093 99.2397 128.837 99.2645 128.587C99.2846 128.34 99.3789 128.124 99.5474 127.941C99.1819 128.06 98.8386 128.049 98.5173 127.909C98.1961 127.768 97.942 127.514 97.755 127.146C97.536 126.716 97.5111 126.296 97.6804 125.888C97.8498 125.479 98.1906 125.144 98.7031 124.883ZM101.84 126.382L100.836 124.409L99.0446 125.321C98.6676 125.513 98.4194 125.749 98.3001 126.029C98.1808 126.309 98.2011 126.606 98.361 126.92C98.5185 127.229 98.7443 127.416 99.0383 127.479C99.3347 127.547 99.6715 127.485 100.049 127.294L101.84 126.382ZM102.925 128.514L102.08 126.853L100.506 127.654C100.182 127.819 99.9688 128.016 99.8662 128.245C99.7586 128.476 99.7726 128.724 99.9079 128.99C100.046 129.261 100.241 129.423 100.494 129.477C100.741 129.534 101.027 129.48 101.351 129.315L102.925 128.514Z" fill="#5D5D65"/>
<path d="M92.1722 127.701L95.9104 126.202L98.0308 131.488L94.4058 132.942L94.2029 132.436L97.269 131.206L96.5905 129.515L94.0756 130.523L93.8727 130.018L96.3875 129.009L95.5545 126.932L92.3751 128.207L92.1722 127.701Z" fill="#5D5D65"/>
<path d="M90.84 128.112L91.4162 127.937L93.0718 133.387L90.7829 134.082C90.2431 134.246 89.7757 134.238 89.3807 134.057C88.9857 133.877 88.7188 133.558 88.5801 133.101C88.4382 132.634 88.4803 132.213 88.7066 131.838C88.9345 131.469 89.3183 131.202 89.8581 131.038L91.5709 130.518L90.84 128.112ZM92.3372 133.04L91.7293 131.039L90.0555 131.548C89.6714 131.664 89.399 131.841 89.2382 132.077C89.079 132.318 89.0475 132.597 89.1437 132.913C89.2414 133.235 89.4227 133.449 89.6876 133.556C89.9488 133.669 90.274 133.667 90.6633 133.549L92.3372 133.04Z" fill="#5D5D65"/>
<path d="M87.6593 135L86.9074 135.14L84.0992 133.09L84.5638 135.578L83.972 135.688L83.5043 133.185L81.6124 136.129L80.8605 136.27L82.8761 133.145L79.4948 130.73L80.2867 130.582L83.4401 132.841L82.9262 130.089L83.5181 129.979L84.029 132.714L86.1416 129.489L86.9254 129.342L84.6517 132.813L87.6593 135Z" fill="#5D5D65"/>
<path d="M78.7369 129.446L79.297 129.407L79.4229 131.217L78.8872 131.255C78.5697 131.771 78.3581 132.365 78.2525 133.036C78.1423 133.718 78.127 134.633 78.2068 135.78L78.2542 136.462L74.7476 136.706L74.3902 131.567L73.5298 131.627L73.4039 129.817L73.964 129.778L74.0521 131.044L78.825 130.712L78.7369 129.446ZM78.2134 131.301L74.9909 131.526L75.3105 136.12L77.6239 135.959L77.5973 135.577C77.4626 133.64 77.668 132.215 78.2134 131.301Z" fill="#5D5D65"/>
<path d="M68.6607 130.939L72.6873 131.032L72.5554 136.727L68.6508 136.636L68.6634 136.091L71.9661 136.168L72.0083 134.345L69.2995 134.283L69.3121 133.738L72.0209 133.8L72.0727 131.563L68.6481 131.484L68.6607 130.939Z" fill="#5D5D65"/>
<path d="M67.2814 130.804L67.8798 130.871L67.2444 136.531L66.646 136.464L66.9102 134.111L63.5464 133.733L63.2822 136.086L62.6839 136.019L63.3193 130.359L63.9176 130.426L63.6072 133.192L66.971 133.569L67.2814 130.804Z" fill="#5D5D65"/>
<path d="M62.0744 130.139L62.687 130.27L59.0029 135.338L58.454 135.221L57.1657 129.085L57.7863 129.219L58.1489 130.903L61.0687 131.529L62.0744 130.139ZM58.8912 134.541L60.7588 132.004L58.2289 131.461L58.8912 134.541Z" fill="#5D5D65"/>
<path d="M48.8721 129.128L49.2868 129.296L48.8453 130.32L49.9447 130.143L50.0121 130.583L48.9024 130.721L49.6055 131.585L49.2476 131.862L48.5855 130.961L48.1892 132.003L47.7745 131.835L48.216 130.811L47.1136 130.997L47.0492 130.549L48.1634 130.421L47.4559 129.546L47.8107 129.277L48.4759 130.17L48.8721 129.128Z" fill="#5D5D65"/>
<path d="M42.2544 122.737L42.7636 123.058L39.7236 127.875L35.946 125.491L38.9859 120.674L39.4951 120.995L36.7461 125.351L39.5054 127.093L42.2544 122.737Z" fill="#5D5D65"/>
<path d="M37.4535 119.54L37.9312 119.907L34.4641 124.426L32.5661 122.97C32.1186 122.626 31.8532 122.241 31.7699 121.815C31.6867 121.389 31.7904 120.986 32.081 120.608C32.3781 120.22 32.745 120.01 33.1815 119.975C33.6148 119.945 34.0552 120.102 34.5028 120.445L35.923 121.535L37.4535 119.54ZM34.3182 123.627L35.5912 121.968L34.2032 120.903C33.8847 120.658 33.5828 120.54 33.2973 120.546C33.0086 120.557 32.7636 120.694 32.5621 120.956C32.3574 121.223 32.2888 121.495 32.3563 121.773C32.4162 122.051 32.6075 122.314 32.9303 122.562L34.3182 123.627Z" fill="#5D5D65"/>
<path d="M29.967 119.857C29.1815 119.895 28.4898 119.633 27.892 119.073C27.2982 118.517 26.9941 117.846 26.9799 117.06C26.9657 116.273 27.2441 115.575 27.8152 114.966C28.39 114.352 29.0701 114.026 29.8557 113.989C30.6335 113.952 31.3214 114.214 31.9192 114.774C32.521 115.337 32.8288 116.009 32.8428 116.787C32.8568 117.566 32.5745 118.264 31.996 118.881C31.4212 119.495 30.7449 119.82 29.967 119.857ZM32.2381 116.778C32.2368 116.153 32.0026 115.621 31.5354 115.183C31.0682 114.746 30.5225 114.547 29.8982 114.587C29.2663 114.626 28.7204 114.892 28.2606 115.383C27.8008 115.874 27.5716 116.436 27.5732 117.069C27.5744 117.694 27.8087 118.226 28.2758 118.664C28.743 119.101 29.2887 119.3 29.913 119.26C30.5449 119.221 31.0908 118.955 31.5506 118.464C32.0104 117.973 32.2396 117.411 32.2381 116.778Z" fill="#5D5D65"/>
<path d="M28.8376 111.779L29.2379 112.229L24.9832 116.016L22.4461 113.165L22.8533 112.803L24.9901 115.203L28.8376 111.779Z" fill="#5D5D65"/>
<path d="M26.0498 108.511L26.4128 108.992L21.8687 112.426L20.4264 110.517C20.0862 110.067 19.9327 109.626 19.9659 109.193C19.999 108.76 20.206 108.399 20.5868 108.111C20.9763 107.817 21.3861 107.711 21.816 107.794C22.2416 107.881 22.6244 108.149 22.9646 108.599L24.0438 110.027L26.0498 108.511ZM21.9406 111.617L23.6089 110.356L22.5542 108.96C22.3122 108.64 22.0527 108.445 21.7758 108.376C21.4946 108.309 21.2219 108.376 20.9579 108.575C20.6896 108.778 20.5511 109.022 20.5424 109.308C20.5261 109.592 20.6405 109.896 20.8858 110.221L21.9406 111.617Z" fill="#5D5D65"/>
<path d="M23.2153 104.65L23.5439 105.184L17.3351 106.026L17.0407 105.548L20.5828 100.375L20.9156 100.916L19.9496 102.342L21.5155 104.885L23.2153 104.65ZM17.8343 105.393L20.9585 104.989L19.6017 102.786L17.8343 105.393Z" fill="#5D5D65"/>
<path d="M20.0539 99.2891L20.3135 99.8234L15.1904 102.312L14.9309 101.778L16.5123 98.7212L13.1316 98.075L12.8756 97.548L17.9987 95.0589L18.2582 95.5932L13.9548 97.684L17.0087 98.2719L17.1687 98.6013L15.7505 101.38L20.0539 99.2891Z" fill="#5D5D65"/>
<path d="M17.4317 93.5514L17.632 94.1106L12.2698 96.0312L12.0695 95.4721L13.9721 92.6039L10.6811 91.596L10.4836 91.0444L15.8458 89.1238L16.0461 89.683L11.5418 91.2963L14.5142 92.2109L14.6377 92.5556L12.9274 95.1648L17.4317 93.5514Z" fill="#5D5D65"/>
<path d="M15.5951 88.1526L15.7452 88.7609L9.57558 87.668L9.44112 87.1229L14.3928 83.2783L14.5448 83.8945L13.1896 84.9579L13.9048 87.8572L15.5951 88.1526ZM10.244 87.2182L13.3426 87.7864L12.7229 85.2742L10.244 87.2182Z" fill="#5D5D65"/>
<path d="M14.0224 80.0581C14.0573 80.3489 14.0481 80.5904 13.9947 80.7826L13.4372 80.8495C13.4893 80.6466 13.5025 80.4374 13.4766 80.2219C13.4424 79.9365 13.2961 79.7191 13.0377 79.5698C12.9143 79.4972 12.7921 79.4354 12.6713 79.3844C12.6021 79.3544 12.4477 79.2965 12.2079 79.2105L8.41772 81.9766L8.3382 81.3141L11.559 78.9934L7.91826 77.816L7.84165 77.1778L12.5514 78.7267C13.035 78.8872 13.3937 79.0764 13.6275 79.2942C13.8552 79.5072 13.9869 79.7618 14.0224 80.0581Z" fill="#5D5D65"/>
<path d="M13.4061 73.8616L13.4316 74.4631L8.28567 74.6817L8.36889 76.6409L7.82422 76.6641L7.63119 72.1197L8.17587 72.0966L8.26012 74.0801L13.4061 73.8616Z" fill="#5D5D65"/>
<path d="M13.4666 68.6192L13.3408 71.334L7.65112 71.0703L7.76525 68.6075C7.78861 68.1036 7.93169 67.7111 8.19451 67.43C8.45192 67.1487 8.79466 67.018 9.22274 67.0378C9.51535 67.0514 9.76418 67.1308 9.96923 67.276C10.1745 67.4159 10.3151 67.6043 10.391 67.8413C10.4682 67.4648 10.6474 67.1717 10.9287 66.9621C11.2099 66.7525 11.5564 66.6572 11.9682 66.6763C12.4505 66.6986 12.8275 66.8844 13.0991 67.2337C13.3707 67.583 13.4932 68.0448 13.4666 68.6192ZM10.6132 70.6048L12.8241 70.7073L12.9171 68.6996C12.9367 68.277 12.8543 67.9446 12.6701 67.7026C12.4858 67.4605 12.2176 67.3313 11.8653 67.315C11.5185 67.2989 11.2449 67.403 11.0445 67.6272C10.8386 67.8512 10.7259 68.1745 10.7063 68.5972L10.6132 70.6048ZM8.22358 70.4941L10.0849 70.5803L10.1666 68.8165C10.1835 68.4535 10.1178 68.1708 9.96973 67.9684C9.82187 67.7606 9.59893 67.6499 9.3009 67.636C8.99746 67.622 8.75981 67.7114 8.58795 67.9044C8.41635 68.0919 8.32214 68.3672 8.30531 68.7303L8.22358 70.4941Z" fill="#5D5D65"/>
<path d="M14.2282 61.6144L13.6868 65.6055L8.04272 64.8398L8.56776 60.9696L9.10798 61.0429L8.66389 64.3165L10.47 64.5615L10.8342 61.8765L11.3744 61.9498L11.0102 64.6348L13.2275 64.9356L13.688 61.5411L14.2282 61.6144Z" fill="#5D5D65"/>
<path d="M14.5388 60.1323L14.4058 60.7196L8.85083 59.4609L9.37946 57.1279C9.50413 56.5777 9.74262 56.1756 10.0949 55.9217C10.4473 55.6678 10.8562 55.5936 11.3217 55.6991C11.7979 55.807 12.1428 56.052 12.3566 56.4342C12.5651 56.8151 12.607 57.2807 12.4823 57.8309L12.0867 59.5767L14.5388 60.1323ZM9.51558 58.9942L11.555 59.4563L11.9416 57.7501C12.0303 57.3586 12.012 57.0346 11.8865 56.7782C11.7558 56.5205 11.5291 56.3551 11.2064 56.282C10.8784 56.2077 10.6025 56.2592 10.3788 56.4365C10.1509 56.6074 9.99206 56.8912 9.90216 57.288L9.51558 58.9942Z" fill="#5D5D65"/>
<path d="M10.0799 54.0555L10.3297 53.3326L13.5001 51.9056L11.1083 51.0792L11.3049 50.5101L13.7121 51.3418L12.0887 48.2413L12.3385 47.5184L14.0575 50.8155L17.8283 49.0708L17.5652 49.8322L14.0428 51.456L16.6884 52.3701L16.4918 52.9392L13.8615 52.0305L15.6202 55.4618L15.3598 56.2155L13.4676 52.5228L10.0799 54.0555Z" fill="#5D5D65"/>
<path d="M19.322 48.9912L19.0786 49.4971L17.4436 48.7102L17.6764 48.2263C17.3846 47.6945 16.9734 47.2167 16.4429 46.7928C15.905 46.3594 15.118 45.8933 14.0818 45.3946L13.4659 45.0982L14.9903 41.9308L19.6313 44.1645L20.0054 43.3873L21.6404 44.1742L21.3969 44.6801L20.2531 44.1296L18.1783 48.4407L19.322 48.9912ZM17.9693 47.6178L19.3702 44.707L15.2204 42.7098L14.2147 44.7994L14.5593 44.9652C16.3092 45.8074 17.4458 46.6916 17.9693 47.6178Z" fill="#5D5D65"/>
<path d="M22.815 39.7985L20.7536 43.2588L15.8604 40.3438L17.8592 36.9883L18.3276 37.2674L16.6369 40.1055L18.2027 41.0383L19.5894 38.7105L20.0578 38.9895L18.6711 41.3173L20.5935 42.4625L22.3466 39.5195L22.815 39.7985Z" fill="#5D5D65"/>
<path d="M23.6966 38.5159L23.3424 39.0029L18.7363 35.6523L19.0905 35.1654L21.0053 36.5583L22.9965 33.821L21.0817 32.4281L21.4359 31.9412L26.0419 35.2917L25.6877 35.7786L23.4374 34.1417L21.4462 36.879L23.6966 38.5159Z" fill="#5D5D65"/>
<path d="M26.8982 34.2465L26.4817 34.7145L23.8904 29.0098L24.2637 28.5904L30.2359 30.4963L29.814 30.9704L28.1702 30.4551L26.1849 32.6858L26.8982 34.2465ZM24.6396 29.3063L25.9251 32.1823L27.6453 30.2494L24.6396 29.3063Z" fill="#5D5D65"/>
<path d="M34.2942 23.2425L33.9432 23.5201L33.2709 22.6305L32.8825 23.6742L32.4666 23.5155L32.8944 22.4822L31.7954 22.6666L31.7318 22.2189L32.842 22.088L32.1314 21.2287L32.4825 20.9511L33.1547 21.8407L33.5382 20.7907L33.9591 20.9558L33.5199 21.9877L34.6303 21.8047L34.6888 22.246L33.5837 22.3832L34.2942 23.2425Z" fill="#5D5D65"/>
<path d="M42.8132 20.7752L42.2838 21.0621L39.5696 16.0547L43.4969 13.926L46.2111 18.9334L45.6817 19.2204L43.2273 14.6922L40.3587 16.247L42.8132 20.7752Z" fill="#5D5D65"/>
<path d="M48.1969 18.0191L47.6424 18.2536L45.4236 13.0078L47.6268 12.0759C48.1464 11.8562 48.6121 11.8153 49.0238 11.9533C49.4356 12.0913 49.7345 12.3801 49.9204 12.8197C50.1106 13.2694 50.1129 13.6925 49.9272 14.0891C49.7394 14.4806 49.3858 14.7863 48.8662 15.0061L47.2175 15.7034L48.1969 18.0191ZM46.1905 13.2754L47.0051 15.2013L48.6163 14.5198C48.9861 14.3635 49.2385 14.1595 49.3736 13.908C49.5065 13.6515 49.5086 13.3709 49.3797 13.0661C49.2487 12.7564 49.0459 12.5624 48.7713 12.4841C48.4996 12.3988 48.1764 12.4354 47.8017 12.5939L46.1905 13.2754Z" fill="#5D5D65"/>
<path d="M51.4934 11.3701C51.8484 10.6683 52.4168 10.1955 53.1987 9.95146C53.9755 9.70906 54.7094 9.77553 55.4004 10.1509C56.0915 10.5262 56.5614 11.1126 56.8103 11.91C57.0608 12.7126 57.0085 13.4648 56.6536 14.1666C56.3022 14.8615 55.7356 15.331 54.9537 15.575C54.1666 15.8207 53.4309 15.7576 52.7466 15.3858C52.0623 15.0141 51.5942 14.4243 51.3421 13.6165C51.0916 12.8138 51.142 12.0651 51.4934 11.3701ZM53.0526 14.8641C53.5974 15.1715 54.1754 15.2298 54.7864 15.0391C55.3974 14.8484 55.8396 14.4717 56.113 13.9091C56.3899 13.3397 56.4281 12.7339 56.2277 12.0918C56.0274 11.4497 55.6514 10.9732 55.0997 10.6623C54.5549 10.355 53.977 10.2967 53.366 10.4874C52.7549 10.6781 52.3127 11.0547 52.0394 11.6174C51.7625 12.1868 51.7242 12.7926 51.9246 13.4347C52.125 14.0768 52.501 14.5533 53.0526 14.8641Z" fill="#5D5D65"/>
<path d="M59.1224 14.345L58.5337 14.4713L57.3386 8.90234L61.0698 8.10167L61.1842 8.6347L58.0417 9.30904L59.1224 14.345Z" fill="#5D5D65"/>
<path d="M63.1867 13.5449L62.5897 13.6235L61.8457 7.97656L64.2174 7.66408C64.7767 7.59039 65.2365 7.6748 65.5968 7.91733C65.957 8.15985 66.1683 8.51774 66.2306 8.99101C66.2944 9.47504 66.1841 9.88352 65.8997 10.2164C65.6145 10.544 65.1923 10.7446 64.633 10.8183L62.8582 11.0521L63.1867 13.5449ZM62.5139 8.43841L62.787 10.5116L64.5215 10.2831C64.9194 10.2307 65.217 10.1012 65.4141 9.89469C65.6105 9.68278 65.6871 9.4128 65.6439 9.08474C65.5999 8.7513 65.456 8.51036 65.2122 8.36194C64.9729 8.20743 64.6517 8.15675 64.2483 8.20989L62.5139 8.43841Z" fill="#5D5D65"/>
<path d="M67.8075 12.9733L67.1815 12.9975L69.4972 7.17549L70.0583 7.15382L72.8242 12.7796L72.19 12.8041L71.422 11.2622L68.4381 11.3774L67.8075 12.9733ZM69.8029 7.92097L68.6209 10.841L71.2065 10.7412L69.8029 7.92097Z" fill="#5D5D65"/>
<path d="M74.3361 12.8318L73.7434 12.7929L74.1167 7.10938L74.7094 7.1483L76.5828 10.0357L78.8178 7.41814L79.4024 7.45654L79.0291 13.1401L78.4364 13.1011L78.7499 8.32697L76.7274 10.6894L76.3621 10.6654L74.6497 8.05767L74.3361 12.8318Z" fill="#5D5D65"/>
<path d="M80.7851 13.3887L80.2 13.2864L81.1814 7.67578L81.7665 7.77813L83.319 10.85L85.8221 8.48756L86.3992 8.58851L85.4178 14.1991L84.8327 14.0967L85.6571 9.38385L83.3926 11.5154L83.0319 11.4523L81.6095 8.67582L80.7851 13.3887Z" fill="#5D5D65"/>
<path d="M86.4556 14.4596L85.8527 14.2888L89.8564 9.46918L90.3966 9.62219L91.2859 15.8277L90.6753 15.6548L90.4222 13.9509L87.549 13.1371L86.4556 14.4596ZM89.9164 10.2727L87.8888 12.6837L90.3784 13.3888L89.9164 10.2727Z" fill="#5D5D65"/>
<path d="M94.3991 17.1379C94.1293 17.0237 93.9243 16.8958 93.784 16.754L94.0027 16.2369C94.153 16.3829 94.328 16.4982 94.5279 16.5827C94.7927 16.6947 95.054 16.6757 95.3118 16.5256C95.4362 16.4545 95.5505 16.3792 95.6548 16.2996C95.7151 16.2544 95.8421 16.1491 96.0358 15.9837L95.5168 11.3203L96.1314 11.5802L96.5465 15.5282L99.3763 12.9527L99.9683 13.2031L96.2852 16.522C95.9057 16.8622 95.5634 17.0796 95.2583 17.1744C94.9603 17.2663 94.6739 17.2541 94.3991 17.1379Z" fill="#5D5D65"/>
<path d="M100.116 19.6894L99.5812 19.4123L101.952 14.8396L100.211 13.9371L100.461 13.4531L104.5 15.5463L104.249 16.0303L102.486 15.1167L100.116 19.6894Z" fill="#5D5D65"/>
<path d="M104.318 22.15L102.02 20.6995L105.06 15.8828L107.145 17.1987C107.571 17.4679 107.842 17.7862 107.956 18.1536C108.074 18.5163 108.018 18.8789 107.789 19.2413C107.633 19.489 107.441 19.6662 107.213 19.7727C106.99 19.8821 106.757 19.9113 106.514 19.8602C106.803 20.1133 106.969 20.4139 107.012 20.762C107.056 21.11 106.967 21.4584 106.747 21.807C106.49 22.2153 106.142 22.4512 105.704 22.5149C105.266 22.5785 104.804 22.4569 104.318 22.15ZM104.001 18.6882L102.82 20.5598L104.519 21.6325C104.877 21.8583 105.207 21.9509 105.508 21.9103C105.81 21.8696 106.055 21.7002 106.243 21.402C106.428 21.1084 106.473 20.8191 106.377 20.5341C106.284 20.2444 106.058 19.9867 105.701 19.7609L104.001 18.6882ZM105.278 16.6652L104.283 18.241L105.776 19.1833C106.084 19.3773 106.362 19.4599 106.611 19.4311C106.865 19.4052 107.071 19.2661 107.231 19.0138C107.393 18.7569 107.432 18.5061 107.349 18.2613C107.271 18.0195 107.078 17.8016 106.771 17.6076L105.278 16.6652Z" fill="#5D5D65"/>
<path d="M110.251 26.4394L107.055 23.9877L110.522 19.4688L113.621 21.8462L113.289 22.2787L110.668 20.2678L109.559 21.7139L111.709 23.3632L111.377 23.7957L109.227 22.1464L107.865 23.9217L110.583 26.0069L110.251 26.4394Z" fill="#5D5D65"/>
<path d="M111.17 27.2551L110.724 26.8499L114.557 22.6367L116.327 24.2465C116.744 24.6261 116.976 25.0318 117.024 25.4635C117.071 25.8952 116.934 26.2876 116.613 26.6407C116.284 27.0018 115.901 27.1812 115.463 27.1789C115.029 27.1725 114.603 26.9795 114.186 26.5999L112.862 25.3953L111.17 27.2551ZM114.636 23.4452L113.228 24.992L114.523 26.1692C114.819 26.4394 115.11 26.5831 115.395 26.6003C115.684 26.6135 115.94 26.4978 116.162 26.253C116.389 26.0042 116.48 25.7388 116.436 25.4567C116.399 25.1743 116.231 24.8962 115.93 24.6224L114.636 23.4452Z" fill="#5D5D65"/>
<path d="M118.695 26.4058L119.202 26.979L118.884 30.4411L120.78 28.7657L121.179 29.2169L119.27 30.9031L122.768 31.0158L123.275 31.589L119.559 31.4628L119.222 35.604L118.688 35.0003L119.008 31.1348L116.911 32.9881L116.512 32.5368L118.597 30.6943L114.745 30.5367L114.217 29.9391L118.363 30.1091L118.695 26.4058Z" fill="#5D5D65"/>
<path d="M118.495 36.852L118.173 36.3921L119.659 35.3517L119.967 35.7916C120.574 35.7975 121.192 35.6729 121.821 35.4179C122.462 35.1611 123.254 34.703 124.196 34.0436L124.756 33.6517L126.772 36.5316L122.552 39.4848L123.046 40.1915L121.56 41.2319L121.238 40.7719L122.278 40.0441L119.535 36.1242L118.495 36.852ZM120.354 36.345L122.207 38.9915L125.98 36.3509L124.65 34.451L124.337 34.6702C122.746 35.7837 121.418 36.342 120.354 36.345Z" fill="#5D5D65"/>
<path d="M124.958 44.6775L122.961 41.1799L127.907 38.3555L129.844 41.7471L129.37 42.0174L127.732 39.1487L126.149 40.0525L127.493 42.4055L127.02 42.6758L125.676 40.3228L123.733 41.4324L125.432 44.4072L124.958 44.6775Z" fill="#5D5D65"/>
<path d="M125.519 45.8317L125.268 45.2844L130.445 42.9102L130.696 43.4575L128.544 44.4445L129.955 47.5213L132.107 46.5343L132.358 47.0816L127.181 49.4558L126.93 48.9085L129.459 47.7485L128.048 44.6717L125.519 45.8317Z" fill="#5D5D65"/>
<path d="M127.611 50.5526L127.407 49.9605L133.65 50.4894L133.833 51.02L129.251 55.2978L129.044 54.6979L130.297 53.516L129.322 50.6935L127.611 50.5526ZM133.025 50.9979L129.888 50.7131L130.733 53.1587L133.025 50.9979Z" fill="#5D5D65"/>
<path d="M133.621 62.5595L133.553 62.1172L134.658 61.9703L133.941 61.1182L134.284 60.8344L134.973 61.7156L135.353 60.6684L135.774 60.8336L135.341 61.8642L136.439 61.6691L136.508 62.1113L135.403 62.2582L136.128 63.1091L135.777 63.3941L135.095 62.5036L134.707 63.5601L134.294 63.3937L134.719 62.3643L133.621 62.5595Z" fill="#5D5D65"/>
<defs>
<clipPath id="clip0_4114_50888">
<rect width="85.1152" height="14.9888" fill="white" transform="translate(29.4424 65.3086)"/>
</clipPath>
</defs>
</svg>
