<svg width="24" height="24" viewBox="0 0 24 24" fill="none" xmlns="http://www.w3.org/2000/svg">
<g clip-path="url(#clip0)">
<path d="M18.4817 14.2046C18.091 13.8139 17.4577 13.8138 17.0673 14.2048C16.4008 14.8723 15.6111 15.6636 14.8629 16.4157C14.528 16.7523 14.0014 16.8092 13.6121 16.5373C12.4799 15.7464 11.4548 14.8993 10.6032 14.0477C9.555 12.9995 8.28789 11.5809 7.40314 10.4033C7.11547 10.0204 7.16953 9.48893 7.50901 9.15113C8.22848 8.43523 9.02698 7.63841 9.74094 6.92539C10.1318 6.535 10.1319 5.90167 9.74123 5.51102L4.93092 0.700714C4.5429 0.312695 3.91468 0.309843 3.52315 0.694322L1.12748 3.04688L1.1229 3.05145C0.254616 3.91974 -0.11306 5.10498 0.0301287 6.57422C0.488075 11.2723 6.23319 18.0775 11.3118 21.4858C14.2521 23.4591 18.4784 25.2858 20.9781 22.7858C22.7931 20.9711 23.4869 20.2317 23.5156 20.2011C23.7751 19.9241 23.768 19.4911 23.4996 19.2227L18.4817 14.2046ZM19.9831 21.7908C18.0907 23.683 14.3378 21.8218 12.0959 20.3172C7.38309 17.1542 1.84397 10.6763 1.4307 6.43762C1.33036 5.40894 1.56089 4.6051 2.1157 4.04883L3.51417 2.67554C3.9057 2.29105 4.53393 2.29391 4.92194 2.68195L7.75012 5.51025C8.14084 5.90098 8.14005 6.53514 7.74886 6.92541C6.56626 8.10521 5.95528 8.7118 5.53355 9.12962C5.30593 9.35512 5.25942 9.70558 5.4202 9.98273C6.24931 11.4109 8.17228 13.6069 9.60819 15.0428C11.035 16.4696 12.496 17.5164 14.0151 18.4874C14.2923 18.6646 14.6552 18.6221 14.8868 18.3884C15.5208 17.7486 16.3644 16.9017 17.0679 16.1963C17.4582 15.805 18.0916 15.8049 18.4824 16.1957L21.3211 19.0343C21.7072 19.4205 21.7123 20.0449 21.3294 20.4343C20.9742 20.7954 20.5291 21.2447 19.9831 21.7908Z" fill="#F32735"/>
</g>
<defs>
<clipPath id="clip0">
<rect width="24" height="24" fill="white"/>
</clipPath>
</defs>
</svg>
