<svg viewBox="0 0 21 17" fill="none" xmlns="http://www.w3.org/2000/svg"><path fill-rule="evenodd" clip-rule="evenodd" d="M9.88 4.66l.04.71-.72-.09a11.74 11.74 0 01-6.86-3.35L1.4.98l-.24.7a4.16 4.16 0 00.9 4.28c.57.61.44.7-.56.34-.34-.12-.64-.2-.67-.16-.1.1.24 1.42.52 1.94A4.64 4.64 0 003.3 9.93l.7.33-.83.02c-.8 0-.84.01-.75.32.29.94 1.43 1.94 2.7 2.37l.89.3-.78.47a8.15 8.15 0 01-3.86 1.07c-.65.01-1.18.07-1.18.11 0 .15 1.76.96 2.78 1.28 3.07.94 6.71.53 9.45-1.07a12.6 12.6 0 004.8-5.62c.5-1.17.98-3.31.98-4.34 0-.67.04-.75.85-1.55.48-.46.92-.97 1.01-1.12.14-.27.13-.27-.6-.02-1.23.43-1.4.37-.8-.28.45-.46.98-1.3.98-1.55 0-.04-.21.03-.46.16-.26.15-.83.36-1.27.5l-.77.24-.71-.48A5.87 5.87 0 0015.2.43 4.95 4.95 0 0012.7.5a4.14 4.14 0 00-2.8 4.17z" fill="currentColor"/></svg>
