<svg width="24" height="19" viewBox="0 0 24 19" fill="none" xmlns="http://www.w3.org/2000/svg">
<path d="M13.2483 8.14502C13.957 7.15483 14.3381 5.96769 14.3381 4.75002C14.3381 3.53235 13.957 2.34521 13.2483 1.35502C13.9116 0.902302 14.697 0.662216 15.5 0.666687C16.583 0.666687 17.6216 1.09689 18.3874 1.86267C19.1531 2.62844 19.5833 3.66705 19.5833 4.75002C19.5833 5.83299 19.1531 6.8716 18.3874 7.63737C17.6216 8.40315 16.583 8.83335 15.5 8.83335C14.697 8.83782 13.9116 8.59774 13.2483 8.14502ZM4.41667 4.75002C4.41667 3.94241 4.65615 3.15294 5.10483 2.48144C5.55351 1.80994 6.19124 1.28657 6.93738 0.977513C7.68351 0.668455 8.50453 0.587591 9.29662 0.745148C10.0887 0.902704 10.8163 1.2916 11.3874 1.86267C11.9584 2.43373 12.3473 3.16131 12.5049 3.9534C12.6624 4.74549 12.5816 5.56651 12.2725 6.31264C11.9635 7.05878 11.4401 7.69651 10.7686 8.14519C10.0971 8.59387 9.30761 8.83335 8.5 8.83335C7.41703 8.83335 6.37842 8.40315 5.61265 7.63737C4.84687 6.8716 4.41667 5.83299 4.41667 4.75002ZM6.75 4.75002C6.75 5.09614 6.85263 5.43448 7.04493 5.72227C7.23722 6.01005 7.51053 6.23436 7.8303 6.36681C8.15007 6.49926 8.50194 6.53392 8.84141 6.46639C9.18087 6.39887 9.49269 6.2322 9.73744 5.98746C9.98218 5.74272 10.1488 5.4309 10.2164 5.09143C10.2839 4.75196 10.2492 4.4001 10.1168 4.08032C9.98433 3.76055 9.76003 3.48724 9.47225 3.29495C9.18446 3.10266 8.84612 3.00002 8.5 3.00002C8.03587 3.00002 7.59075 3.18439 7.26256 3.51258C6.93437 3.84077 6.75 4.28589 6.75 4.75002ZM16.6667 15.8334V18.1667H0.333332V15.8334C0.333332 15.8334 0.333332 11.1667 8.5 11.1667C16.6667 11.1667 16.6667 15.8334 16.6667 15.8334ZM14.3333 15.8334C14.17 14.9234 12.7817 13.5 8.5 13.5C4.21833 13.5 2.74833 15.0284 2.66667 15.8334H14.3333ZM16.6083 11.1667C17.3234 11.7229 17.908 12.4288 18.3212 13.235C18.7344 14.0412 18.9661 14.9281 19 15.8334V18.1667H23.6667V15.8334C23.6667 15.8334 23.6667 11.5984 16.5967 11.1667H16.6083Z" fill="#F32735"/>
</svg>
