<svg width="45" height="49" viewBox="0 0 45 49" fill="none" xmlns="http://www.w3.org/2000/svg">
<path d="M42.063 17.4023H1.96481C0.879674 17.4023 0 18.282 0 19.3671C0 20.4523 0.879677 21.332 1.96481 21.332H42.063C43.1481 21.332 44.0278 20.4523 44.0278 19.3671C44.0278 18.282 43.1481 17.4023 42.063 17.4023Z" fill="#F32735"/>
<path d="M40.4991 45.0697V24.9003C40.4991 23.8152 39.6194 22.9355 38.5343 22.9355C37.4492 22.9355 36.5695 23.8152 36.5695 24.9003V45.0697H29.5122V24.9003C29.5122 23.8152 28.6325 22.9355 27.5474 22.9355C26.4623 22.9355 25.5826 23.8152 25.5826 24.9003V45.0697H18.5254V24.9004C18.5254 23.8152 17.6457 22.9355 16.5605 22.9355C15.4754 22.9355 14.5957 23.8152 14.5957 24.9004V45.0697H7.53847V24.9004C7.53847 23.8152 6.65879 22.9355 5.57365 22.9355C4.48851 22.9355 3.60883 23.8152 3.60883 24.9004V45.0697H1.96481C0.879676 45.0697 0 45.9494 0 47.0345C0 48.1197 0.879676 48.9993 1.96481 48.9993H42.1431C43.2283 48.9993 44.1079 48.1197 44.1079 47.0345C44.1079 45.9494 43.2283 45.0697 42.1431 45.0697H40.4991Z" fill="#F32735"/>
<path d="M44.0275 12.5126C44.0275 11.7731 43.6131 11.096 42.9545 10.7595L22.8149 0.470782C22.2369 0.175519 21.5516 0.179063 20.9767 0.48029L1.20947 10.838C0.564362 11.1761 0.160156 11.8442 0.160156 12.5725C0.160156 14.042 1.71853 14.9878 3.0221 14.3096L21.8933 4.491L41.1684 14.2682C42.478 14.9325 44.0275 13.981 44.0275 12.5126Z" fill="#F32735"/>
</svg>
