<svg width="82" height="70" viewBox="0 0 82 70" fill="none" xmlns="http://www.w3.org/2000/svg">
<path d="M47.5414 39.2175C36.6963 39.2175 27.9326 30.3443 27.9326 19.6088C27.9326 8.76369 36.8059 0 47.5414 0C58.2769 0 67.1502 8.87323 67.1502 19.6088C67.1502 30.4538 58.3865 39.2175 47.5414 39.2175ZM47.5414 5.2582C39.6541 5.2582 33.3004 11.7214 33.3004 19.4992C33.3004 27.277 39.7636 33.7402 47.5414 33.7402C55.3192 33.7402 61.7824 27.277 61.7824 19.4992C61.7824 11.7214 55.4287 5.2582 47.5414 5.2582Z" fill="#F32735"/>
<path d="M66.705 37.1643C65.7072 36.2708 64.2009 36.2579 63.1878 37.134C61.9765 38.1816 61.9576 40.0538 63.1476 41.1256L76.3525 53.0194V64.6313H18.7312V53.0194L31.9636 41.2885C33.1473 40.2392 33.1626 38.3961 31.9966 37.3272C30.9934 36.4076 29.4587 36.391 28.4358 37.2885L13.9348 50.0119C13.502 50.3916 13.2539 50.9395 13.2539 51.5153V67.9991C13.2539 69.1036 14.1493 69.9991 15.2539 69.9991H79.7203C80.8248 69.9991 81.7203 69.1036 81.7203 67.9991V51.5031C81.7203 50.9344 81.4781 50.3926 81.0544 50.0132L66.705 37.1643Z" fill="#F32735"/>
<path d="M10.424 20.0454C11.9338 20.0454 13.359 19.3483 14.286 18.1566L23.4254 6.40587C24.3411 5.22853 24.1243 3.53096 22.9421 2.62156C21.766 1.71685 20.0794 1.93515 19.1724 3.1095L10.4069 14.4585L5.64486 9.85266C4.58363 8.82623 2.89179 8.85259 1.86306 9.91158C0.833719 10.9712 0.857126 12.6643 1.91537 13.6951L7.01024 18.6576C7.9238 19.5474 9.1487 20.0454 10.424 20.0454Z" fill="#F32735"/>
</svg>
