<svg viewBox="0 0 23 13" fill="none" xmlns="http://www.w3.org/2000/svg"><path fill-rule="evenodd" clip-rule="evenodd" d="M12.68 12.23s.4-.05.6-.26c.19-.2.18-.56.18-.56s-.03-1.72.8-1.98c.8-.25 1.83 1.67 2.93 2.4.83.56 1.46.44 1.46.44l2.94-.04s1.53-.1.8-1.27c-.06-.1-.42-.88-2.18-2.47-1.84-1.67-1.6-1.4.63-4.28 1.35-1.76 1.89-2.83 1.72-3.3C22.4.49 21.4.6 21.4.6l-3.3.02s-.25-.03-.43.08c-.18.1-.29.34-.29.34s-.52 1.36-1.22 2.52c-1.47 2.44-2.06 2.57-2.3 2.42-.56-.36-.42-1.42-.42-2.18 0-2.36.37-3.35-.72-3.6a5.77 5.77 0 00-1.54-.15C10 .02 9.01.04 8.44.3c-.38.18-.67.58-.49.6.22.03.71.13.98.48.33.45.32 1.46.32 1.46s.2 2.79-.45 3.13c-.45.24-1.06-.25-2.37-2.46-.67-1.13-1.18-2.39-1.18-2.39S5.15.9 4.98.77c-.21-.15-.51-.2-.51-.2L1.33.6S.86.61.7.81c-.16.17-.02.54-.02.54S3.13 6.97 5.92 9.8c2.55 2.6 5.45 2.43 5.45 2.43h1.31z" fill="currentColor"/></svg>
