<svg width="28" height="28" viewBox="0 0 28 28" fill="none" xmlns="http://www.w3.org/2000/svg">
<path d="M24.5 8.49333V5.83333C24.5 4.55 23.45 3.5 22.1667 3.5H5.83333C4.53833 3.5 3.5 4.55 3.5 5.83333V22.1667C3.5 23.45 4.53833 24.5 5.83333 24.5H22.1667C23.45 24.5 24.5 23.45 24.5 22.1667V19.5067C25.1883 19.0983 25.6667 18.3633 25.6667 17.5V10.5C25.6667 9.63667 25.1883 8.90167 24.5 8.49333ZM23.3333 10.5V17.5H15.1667V10.5H23.3333ZM5.83333 22.1667V5.83333H22.1667V8.16667H15.1667C13.8833 8.16667 12.8333 9.21667 12.8333 10.5V17.5C12.8333 18.7833 13.8833 19.8333 15.1667 19.8333H22.1667V22.1667H5.83333Z" fill="white"/>
<path d="M24.5 8.49333V5.83333C24.5 4.55 23.45 3.5 22.1667 3.5H5.83333C4.53833 3.5 3.5 4.55 3.5 5.83333V22.1667C3.5 23.45 4.53833 24.5 5.83333 24.5H22.1667C23.45 24.5 24.5 23.45 24.5 22.1667V19.5067C25.1883 19.0983 25.6667 18.3633 25.6667 17.5V10.5C25.6667 9.63667 25.1883 8.90167 24.5 8.49333ZM23.3333 10.5V17.5H15.1667V10.5H23.3333ZM5.83333 22.1667V5.83333H22.1667V8.16667H15.1667C13.8833 8.16667 12.8333 9.21667 12.8333 10.5V17.5C12.8333 18.7833 13.8833 19.8333 15.1667 19.8333H22.1667V22.1667H5.83333Z" fill="#F32735"/>
<path d="M18.6665 15.75C19.633 15.75 20.4165 14.9665 20.4165 14C20.4165 13.0335 19.633 12.25 18.6665 12.25C17.7 12.25 16.9165 13.0335 16.9165 14C16.9165 14.9665 17.7 15.75 18.6665 15.75Z" fill="white"/>
<path d="M18.6665 15.75C19.633 15.75 20.4165 14.9665 20.4165 14C20.4165 13.0335 19.633 12.25 18.6665 12.25C17.7 12.25 16.9165 13.0335 16.9165 14C16.9165 14.9665 17.7 15.75 18.6665 15.75Z" fill="#F32735"/>
</svg>
