<svg viewBox="0 0 23 17" fill="none" xmlns="http://www.w3.org/2000/svg"><path fill-rule="evenodd" clip-rule="evenodd" d="M21.98 3.12c-.26-.97-1-1.73-1.95-1.98-1.71-.47-8.58-.47-8.58-.47s-6.88 0-8.59.47A2.78 2.78 0 00.92 3.12C.46 4.87.46 8.52.46 8.52s0 3.66.46 5.4c.25.97 1 1.73 1.94 2 1.71.46 8.59.46 8.59.46s6.87 0 8.58-.47a2.78 2.78 0 001.95-1.98c.46-1.75.46-5.4.46-5.4s0-3.66-.46-5.41z" fill="currentColor"/><path fill-rule="evenodd" clip-rule="evenodd" d="M9.39 12.28V5.45l5.5 3.42-5.5 3.41z" fill="#fff"/></svg>
