<svg viewBox="0 0 51 58" fill="none" xmlns="http://www.w3.org/2000/svg"><path d="M17.68 37.03a2 2 0 01-2.8.47l-7.06-5.07a2 2 0 01-.46-2.78L24.7 5.29a2 2 0 012.8-.47l7.06 5.06a2 2 0 01.46 2.79L17.68 37.03zm-6.04-6.65l4.07 2.84 15.1-21.28-4.05-2.84-15.12 21.28zM12.55 38.18L8.5 35.31a1.95 1.95 0 00-2.26 3.18l4.04 2.87a1.95 1.95 0 102.26-3.18zM36.37 4l-4.04-2.87a1.95 1.95 0 10-2.26 3.18l4.04 2.87A1.95 1.95 0 1036.37 4zM17.5 48.17H2.86a1.95 1.95 0 000 3.9H17.5a1.95 1.95 0 100-3.9z" fill="#F32735"/><path d="M35.24 20.96a1.95 1.95 0 10-3.6 1.48L44.62 54.1H12.29a1.95 1.95 0 100 3.9h35.12a2 2 0 001.86-2.76L35.24 20.96zM31.14 18.11l-1.05.5.24.72.81-1.22z" fill="#F32735"/></svg>
