<svg width="443" height="48" fill="none" xmlns="http://www.w3.org/2000/svg"><path d="M28.61 3.96v30.68h-7.6V12.07H7.69v22.7H.1V3.95H28.6zM66.52 12.7a16.1 16.1 0 011.27 6.6 16.1 16.1 0 01-4.7 11.66 14.7 14.7 0 01-4.94 3.3c-1.9.76-3.8 1.14-5.83 1.14-2.28 0-4.18-.38-5.83-1.14a6.02 6.02 0 01-3.17-2.92V47.2h-7.6V3.96h7.34v3.17c.51-1.14 1.65-2.16 3.3-2.92a13.67 13.67 0 015.83-1.14c2.03 0 4.06.38 5.96 1.14 1.9.89 3.55 2.03 4.95 3.42 1.39 1.4 2.66 3.17 3.42 5.07zm-6.97 9.9c.38-1.02.63-2.16.63-3.3 0-1.14-.25-2.28-.63-3.3a6.12 6.12 0 00-1.78-2.53 6.8 6.8 0 00-2.79-1.65 11.05 11.05 0 00-8.62.5 5.9 5.9 0 00-2.91 2.92v8.11a5.9 5.9 0 002.91 2.92 11.05 11.05 0 008.62.5 8.55 8.55 0 002.8-1.64 6.12 6.12 0 001.77-2.54zM80.72 3.96v18.38L94.66 3.96h7.61v30.68h-7.48V16.25L80.84 34.64h-7.6V3.96h7.48zM139.92 19.3c0 2.28-.38 4.43-1.27 6.46a14.64 14.64 0 01-3.55 5.07 18.52 18.52 0 01-5.2 3.43c-1.9.76-4.05 1.26-6.2 1.26-2.16 0-4.32-.38-6.22-1.26-1.9-.76-3.67-1.9-5.2-3.43a17.45 17.45 0 01-3.55-5.07 15.9 15.9 0 01-1.26-6.46 15.9 15.9 0 014.81-11.67 18.52 18.52 0 015.2-3.42c1.9-.76 4.06-1.27 6.21-1.27 2.16 0 4.31.38 6.22 1.27 1.9.76 3.67 1.9 5.2 3.42a15.16 15.16 0 013.54 5.2 18.36 18.36 0 011.27 6.47zM115.71 16a9.53 9.53 0 00-.64 3.3c0 1.14.26 2.28.64 3.3a6.13 6.13 0 001.77 2.53 6.8 6.8 0 002.8 1.65c1 .38 2.15.63 3.41.63 1.14 0 2.29-.25 3.3-.63a9.42 9.42 0 002.66-1.65 9.49 9.49 0 001.9-2.54c.51-1.01.64-2.03.64-3.3 0-1.13-.26-2.28-.64-3.29a6.38 6.38 0 00-1.9-2.53 7.24 7.24 0 00-2.66-1.65 9.52 9.52 0 00-3.3-.64c-1.14 0-2.28.26-3.42.64a10.14 10.14 0 00-2.79 1.65 9.94 9.94 0 00-1.77 2.53zM175.93 12.7a16.1 16.1 0 011.26 6.6 16.1 16.1 0 01-4.69 11.66 14.7 14.7 0 01-4.94 3.3 15.4 15.4 0 01-5.83 1.14c-2.28 0-4.19-.38-5.83-1.14a6.01 6.01 0 01-3.17-2.92V47.2h-7.61V3.96h7.35v3.17c.5-1.14 1.65-2.16 3.3-2.92a13.67 13.67 0 015.83-1.14c2.03 0 4.06.38 5.96 1.14 1.9.76 3.55 1.9 4.94 3.3 1.4 1.4 2.54 3.3 3.43 5.2zm-6.98 9.9c.38-1.02.64-2.16.64-3.3 0-1.14-.26-2.28-.64-3.3a6.12 6.12 0 00-1.77-2.53 6.8 6.8 0 00-2.8-1.65 11.06 11.06 0 00-8.62.5 5.9 5.9 0 00-2.9 2.92v8.11a5.9 5.9 0 002.9 2.92 11.06 11.06 0 008.63.5 8.56 8.56 0 002.79-1.64 9.94 9.94 0 001.77-2.54zM190 3.96v18.38l13.94-18.38h7.6v30.68h-7.47V16.25l-13.95 18.39h-7.6V3.96H190zM242.99 12.07h-9.5v22.7h-7.62v-22.7h-9.5V3.96h26.5v8.11h.12zM263.02 27.92c1.9 0 3.68-.38 5.45-1.02a8.49 8.49 0 003.93-2.79l2.28 5.84a10.78 10.78 0 01-4.56 3.93 16.71 16.71 0 01-7.48 1.64c-2.28 0-4.56-.38-6.47-1.14-1.9-.76-3.8-1.77-5.2-3.17a12.86 12.86 0 01-3.42-5.07 16.28 16.28 0 01-1.27-6.72 16.89 16.89 0 014.32-11.4 15.37 15.37 0 014.94-3.56 15.1 15.1 0 016.47-1.26c2.28 0 4.3.5 6.2 1.4 1.9.88 3.43 2.02 4.7 3.54a17.55 17.55 0 013.04 5.2c.76 1.9 1.01 3.93 1.01 6.08v1.4c0 .5-.12.89-.12 1.27h-22.82a6.23 6.23 0 002.91 4.43c1.78.89 3.8 1.4 6.09 1.4zm6.34-12.05a4.74 4.74 0 00-2.41-3.67 8.55 8.55 0 00-4.82-1.27c-1.9 0-3.55.38-4.94 1.27a5.17 5.17 0 00-2.66 3.67h14.83zM307.01 12.07h-9.5v22.7h-7.61v-22.7h-9.51V3.96h26.5v8.11h.12z" fill="#343434"/><path d="M321.72 10.3c-.76 0-1.4.12-2.03.38-.63.25-1.14.5-1.77.88-.51.38-1.02.76-1.4 1.27l-1.14 1.52-2.66-4.69a7.72 7.72 0 013.17-4.56c.76-.64 1.77-1.02 2.79-1.4a9.71 9.71 0 013.42-.5c1.65 0 3.04.25 4.18.76a7.55 7.55 0 013.04 2.03 7.7 7.7 0 011.9 3.04c.64 1.14.9 2.28.9 3.67 0 1.15-.13 2.16-.39 3.05-.25.88-.63 1.77-1.14 2.66-.5.89-1.14 1.77-1.9 2.66-.76.89-1.65 1.9-2.54 3.04l-3.04 3.43h9.64v6.97h-19.78v-5.32l8.75-9.51c.63-.64 1.14-1.27 1.65-1.78.5-.5.88-1.01 1.14-1.52.25-.5.5-.89.63-1.4.13-.37.25-.88.25-1.51 0-.9-.38-1.65-1.01-2.29-.63-.63-1.52-.88-2.66-.88zM345.8 4.46a16.9 16.9 0 016.21-1.14c2.16 0 4.32.38 6.22 1.14 1.9.77 3.67 1.9 5.2 3.3a15.93 15.93 0 013.55 5.07 15.91 15.91 0 011.26 6.47c0 2.4-.38 4.56-1.26 6.46a15.79 15.79 0 01-8.75 8.37 17.38 17.38 0 01-12.43 0 15.8 15.8 0 01-8.74-8.37 15.49 15.49 0 01-1.27-6.46c0-2.41.38-4.57 1.27-6.47a14.61 14.61 0 013.55-5.07 15.08 15.08 0 015.2-3.3zm6.21 23.84c1.27 0 2.54-.26 3.68-.64a9.47 9.47 0 003.04-1.9 8.67 8.67 0 002.79-6.47 9.1 9.1 0 00-2.79-6.58c-.88-.77-1.9-1.4-3.04-1.9a9 9 0 00-3.68-.64c-1.39 0-2.53.25-3.8.63a9.49 9.49 0 00-3.04 1.9 8.04 8.04 0 00-2.03 2.92 8.67 8.67 0 00-.76 3.68 8.67 8.67 0 002.79 6.46c.89.76 1.9 1.4 3.04 1.9 1.27.51 2.41.64 3.8.64zM379.02 28.42c1.4 0 2.54-.38 3.3-1.01.88-.63 1.26-1.52 1.26-2.66 0-1.02-.38-1.78-1.14-2.41a4.58 4.58 0 00-3.04-.89c-.89 0-1.65.13-2.28.26-.64.25-1.14.38-1.4.63l-1.01-4.82 5.32-6.59h-8.49V3.96h17.24v5.07l-5.2 6.46a9.28 9.28 0 014.56 2.66 6.8 6.8 0 011.66 2.8 12.36 12.36 0 01-.13 8.1 10.13 10.13 0 01-5.83 5.71c-1.4.51-2.92.9-4.7.9-1.26 0-2.4-.14-3.42-.39a8.46 8.46 0 01-2.66-1.14c-.76-.5-1.4-1.01-1.9-1.52a6.94 6.94 0 01-1.14-1.78l1.52-5.7a14.7 14.7 0 003.04 2.53c.89.38 2.54.76 4.44.76zM403.23 4.46a16.9 16.9 0 016.21-1.14c2.16 0 4.31.38 6.22 1.14 1.9.77 3.67 1.9 5.2 3.3a15.91 15.91 0 013.54 5.07 15.9 15.9 0 011.27 6.47c0 2.4-.38 4.56-1.27 6.46a15.81 15.81 0 01-8.75 8.37 17.39 17.39 0 01-12.42 0 15.81 15.81 0 01-8.74-8.37 15.49 15.49 0 01-1.27-6.46c0-2.41.38-4.57 1.27-6.47a14.62 14.62 0 013.55-5.07 15.09 15.09 0 015.2-3.3zm6.21 23.84c1.27 0 2.54-.26 3.68-.64a9.47 9.47 0 003.04-1.9 8.66 8.66 0 002.79-6.47 9.08 9.08 0 00-2.79-6.58c-.88-.77-1.9-1.4-3.04-1.9a9 9 0 00-3.68-.64c-1.39 0-2.53.25-3.8.63a9.49 9.49 0 00-3.04 1.9 8.04 8.04 0 00-2.03 2.92 8.67 8.67 0 00-.76 3.68 8.67 8.67 0 002.79 6.46c.89.76 1.9 1.4 3.04 1.9a10 10 0 003.8.64z" fill="#F32735"/></svg>
