<?xml version="1.0" standalone="no"?>
<!DOCTYPE svg PUBLIC "-//W3C//DTD SVG 20010904//EN"
 "http://www.w3.org/TR/2001/REC-SVG-20010904/DTD/svg10.dtd">
<svg version="1.0" xmlns="http://www.w3.org/2000/svg"
 width="500.000000pt" height="500.000000pt" viewBox="0 0 500.000000 500.000000"
 preserveAspectRatio="xMidYMid meet">
<metadata>
Created by potrace 1.14, written by Peter Selinger 2001-2017
</metadata>
<g transform="translate(0.000000,500.000000) scale(0.100000,-0.100000)"
fill="#000000" stroke="none">
<path d="M1305 2513 c-352 -609 -641 -1110 -643 -1115 -2 -4 250 -8 560 -8
l563 0 359 620 c198 342 362 623 365 625 4 2 168 -276 366 -618 l360 -622 554
-3 c304 -1 551 2 549 6 -1 5 -286 507 -633 1115 l-629 1107 -566 0 -565 -1
-640 -1106z"/>
</g>
</svg>
