<?xml version="1.0" standalone="no"?>
<!DOCTYPE svg PUBLIC "-//W3C//DTD SVG 20010904//EN"
 "http://www.w3.org/TR/2001/REC-SVG-20010904/DTD/svg10.dtd">
<svg version="1.0" xmlns="http://www.w3.org/2000/svg"
 width="500.000000pt" height="500.000000pt" viewBox="0 0 500.000000 500.000000"
 preserveAspectRatio="xMidYMid meet">
<metadata>
Created by potrace 1.14, written by Peter Selinger 2001-2017
</metadata>
<g transform="translate(0.000000,500.000000) scale(0.100000,-0.100000)"
fill="#000000" stroke="none">
<path d="M2295 3936 c-34 -15 -55 -52 -55 -96 0 -16 19 -65 41 -109 47 -91 47
-110 -1 -165 -27 -30 -104 -76 -129 -76 -6 0 -3 12 5 28 20 39 18 88 -6 112
-28 28 -55 25 -100 -11 l-39 -32 -36 32 c-42 36 -76 40 -106 10 -17 -17 -20
-29 -15 -61 4 -22 16 -53 28 -69 l22 -29 145 0 c141 0 148 1 208 29 63 30 117
87 129 138 6 22 10 23 98 23 l91 0 29 -56 c30 -57 81 -101 145 -122 20 -7 96
-12 182 -12 l148 0 26 43 c32 55 32 97 2 125 -31 30 -51 28 -97 -9 -41 -33
-56 -32 -94 10 -24 26 -60 27 -86 1 -24 -24 -26 -70 -5 -110 14 -27 14 -30 0
-30 -31 0 -107 43 -130 75 -42 54 -42 82 1 154 65 109 51 186 -39 213 l-40 12
-64 -69 -64 -70 -62 68 c-65 71 -79 76 -132 53z"/>
<path d="M3281 3894 c-74 -74 -82 -202 -11 -179 67 21 105 -69 60 -143 -21
-33 -104 -81 -145 -83 -11 0 -29 -5 -40 -10 -14 -6 1 -8 50 -5 81 5 172 36
203 69 30 32 43 101 29 146 -12 35 -13 36 -70 39 l-57 3 0 32 c0 18 10 53 23
77 21 44 23 45 74 48 46 3 54 0 68 -22 9 -14 23 -52 31 -86 21 -90 48 -136 94
-160 21 -11 49 -20 61 -20 19 0 18 4 -15 40 -44 49 -50 94 -12 84 41 -10 49 5
17 32 -16 14 -35 40 -41 58 -22 67 -86 103 -205 113 l-74 6 -40 -39z"/>
<path d="M1507 3909 c-21 -5 -50 -15 -66 -24 -31 -16 -81 -70 -81 -88 0 -6
-12 -23 -27 -39 -21 -22 -23 -29 -11 -33 8 -3 27 -1 41 4 25 10 27 8 27 -14 0
-13 -15 -40 -35 -61 -19 -20 -33 -39 -31 -42 8 -7 74 18 101 39 35 28 52 65
64 139 14 86 40 114 100 107 49 -5 55 -12 76 -84 21 -71 14 -83 -46 -83 -58 0
-79 -23 -79 -85 0 -56 28 -105 74 -128 48 -25 139 -47 191 -46 l40 1 -50 12
c-73 18 -132 52 -150 86 -20 38 -19 100 1 128 14 20 21 22 60 16 l44 -6 0 43
c0 55 -29 119 -65 147 -30 24 -104 28 -178 11z"/>
<path d="M1126 3520 c-25 -31 -46 -87 -46 -126 0 -39 30 -121 60 -162 37 -51
118 -116 229 -185 46 -28 86 -58 89 -65 11 -29 -15 -32 -84 -8 -132 45 -212
94 -320 198 l-71 68 -11 -25 c-44 -97 -10 -209 83 -269 54 -36 168 -71 298
-92 87 -14 108 -21 113 -36 3 -11 3 -23 -1 -26 -4 -4 -57 -7 -118 -6 -119 1
-248 26 -335 64 -65 29 -72 27 -72 -22 0 -70 40 -141 97 -175 45 -26 55 -28
153 -27 89 0 213 17 296 40 16 4 23 0 27 -15 4 -18 -4 -26 -52 -50 -86 -44
-163 -61 -298 -68 l-123 -6 0 -32 c0 -37 32 -88 73 -119 24 -17 43 -21 110
-21 73 0 90 4 157 36 41 20 103 58 138 84 58 44 65 46 79 32 15 -14 15 -18 0
-41 -59 -90 -162 -166 -279 -207 l-77 -26 24 -35 c28 -41 79 -68 128 -68 20 0
62 14 98 33 70 36 137 109 186 204 36 69 59 68 56 -1 -2 -74 -61 -183 -145
-272 -74 -78 -78 -91 -34 -119 73 -48 169 -16 222 72 33 55 60 156 72 263 7
63 8 64 37 65 l30 0 5 83 c6 96 5 102 -21 102 -32 0 -83 25 -123 60 -78 69
-96 157 -51 246 20 39 22 50 11 56 -137 77 -381 334 -521 551 -27 42 -53 77
-57 77 -3 0 -18 -14 -32 -30z"/>
<path d="M3768 3462 c-124 -190 -299 -382 -443 -488 -44 -32 -81 -59 -82 -59
-1 -1 9 -23 22 -50 43 -84 30 -160 -39 -233 -35 -38 -77 -62 -121 -72 l-30 -6
0 -89 0 -90 30 0 c30 -1 30 -2 37 -66 8 -84 32 -180 63 -246 41 -90 141 -135
214 -96 64 33 62 43 -17 128 -86 92 -143 197 -145 271 -3 74 20 68 68 -18 71
-127 184 -218 273 -218 46 0 106 33 130 72 l21 32 -52 16 c-122 39 -232 114
-292 200 -26 37 -27 42 -12 57 14 14 21 12 79 -32 35 -26 97 -64 138 -84 67
-32 83 -36 157 -36 67 0 87 4 110 21 41 31 73 82 73 119 l0 32 -122 6 c-130 6
-218 27 -311 73 -42 22 -46 27 -37 45 7 12 18 18 28 15 78 -22 205 -40 292
-40 93 -1 110 2 147 23 46 27 74 60 91 110 14 41 16 111 2 111 -5 0 -33 -9
-62 -21 -103 -41 -218 -62 -335 -63 -61 -1 -114 2 -118 6 -4 3 -4 15 -1 26 5
15 26 22 113 36 130 21 244 56 298 92 93 60 127 172 83 269 l-11 25 -71 -68
c-108 -104 -197 -159 -326 -201 -63 -21 -88 -17 -78 11 3 7 48 39 101 72 213
132 301 258 268 383 -12 42 -49 105 -66 109 -5 2 -36 -36 -67 -84z"/>
<path d="M2340 3399 c-19 -6 -138 -13 -265 -18 -202 -6 -236 -10 -277 -28 -25
-12 -51 -30 -57 -41 -15 -28 -13 -82 4 -112 12 -22 14 -23 20 -7 11 27 59 47
114 47 143 0 289 -122 341 -284 l17 -51 112 -3 c70 -2 111 1 111 7 0 21 -51
145 -80 196 -16 28 -49 73 -74 99 l-44 47 50 47 c43 40 78 88 78 107 0 6 -5 6
-50 -6z"/>
<path d="M2590 3406 c0 -37 62 -114 116 -144 16 -9 12 -16 -30 -63 -45 -51
-142 -231 -148 -274 -3 -19 4 -20 108 -23 l111 -3 13 46 c17 62 77 152 130
198 67 57 125 81 206 85 64 4 73 2 101 -22 l31 -26 11 31 c27 77 -4 135 -85
159 -21 6 -147 15 -279 20 -132 4 -250 11 -262 15 -13 4 -23 4 -23 1z"/>
<path d="M1960 2694 c0 -9 12 -38 27 -65 38 -70 101 -115 207 -146 75 -22 116
-46 164 -94 41 -41 122 -185 122 -215 0 -32 27 -10 43 36 25 72 95 169 153
213 27 20 77 46 111 57 84 26 136 54 176 94 35 34 67 92 67 120 0 18 -15 22
-25 6 -3 -5 -37 -19 -75 -31 -78 -23 -119 -22 -265 6 -109 21 -315 16 -410
-11 -77 -21 -156 -14 -231 20 -67 31 -64 30 -64 10z"/>
<path d="M2031 2428 c-17 -48 -13 -99 13 -154 46 -100 159 -158 261 -135 29 7
60 17 68 24 15 11 15 15 1 44 -13 27 -19 31 -34 23 -29 -15 -108 -12 -146 6
-54 26 -94 108 -75 157 8 22 5 26 -34 45 l-43 21 -11 -31z"/>
<path d="M2910 2440 c-8 -5 -23 -11 -33 -14 -14 -5 -17 -12 -12 -40 10 -49
-23 -117 -69 -145 -29 -18 -47 -22 -89 -19 -28 2 -60 8 -69 12 -12 6 -21 0
-32 -23 -9 -16 -16 -35 -16 -41 0 -19 67 -40 127 -40 134 1 233 100 233 233 0
59 -16 90 -40 77z"/>
<path d="M2204 2375 c-7 -17 20 -63 42 -72 8 -3 26 -2 40 1 l27 7 -24 25 c-13
14 -36 32 -52 40 -24 13 -28 13 -33 -1z"/>
<path d="M2740 2373 c-51 -34 -71 -56 -58 -65 39 -24 98 10 98 57 0 29 -7 31
-40 8z"/>
<path d="M1324 2065 c6 -24 5 -24 -44 -18 -76 9 -96 -21 -65 -99 6 -14 2 -18
-19 -18 -34 0 -33 -19 2 -52 26 -26 49 -31 173 -41 30 -2 56 -21 165 -122
l129 -119 -3 -48 c-3 -40 0 -51 21 -72 31 -31 71 -42 106 -29 23 8 31 5 69
-29 44 -40 58 -43 75 -17 8 12 0 25 -34 57 l-44 41 45 20 c41 18 101 32 202
46 l36 6 -5 53 c-5 49 -3 57 20 80 43 43 124 27 167 -35 23 -31 23 -33 5 -43
-49 -29 -172 -135 -206 -178 l-39 -49 19 -37 c18 -34 39 -58 83 -91 14 -10 16
-9 11 8 -11 43 8 92 52 137 45 45 86 63 48 22 -89 -97 -85 -215 7 -263 37 -19
74 -20 67 -1 -25 65 -16 151 23 215 27 43 34 35 20 -20 -7 -24 -12 -82 -13
-129 0 -93 23 -159 64 -180 26 -14 62 7 84 51 30 56 29 217 0 304 -6 16 -3 16
14 -5 34 -40 54 -124 47 -191 -8 -68 -1 -72 64 -39 91 47 94 143 7 254 -26 33
-28 37 -9 27 65 -35 123 -131 106 -175 -9 -24 10 -19 46 10 33 28 60 73 60 99
0 24 -124 149 -191 194 l-57 38 18 28 c44 67 130 86 177 39 25 -25 27 -49 12
-114 -3 -11 15 -17 75 -26 112 -18 169 -41 232 -95 87 -73 165 -86 242 -39 38
23 71 88 72 139 0 41 -35 117 -59 130 -13 7 -28 1 -60 -25 -24 -19 -47 -34
-51 -34 -3 0 -24 13 -46 30 -21 16 -44 30 -51 30 -15 0 -63 -58 -63 -77 0 -13
-9 -15 -53 -10 -64 6 -137 27 -137 38 0 5 13 29 29 55 88 138 44 271 -98 298
-29 5 -39 1 -79 -35 -26 -22 -76 -57 -112 -76 -36 -20 -93 -53 -128 -74 l-63
-39 -32 24 c-18 13 -79 49 -137 80 -58 31 -121 72 -140 91 -32 31 -38 33 -71
26 -80 -18 -139 -84 -139 -153 0 -36 26 -106 57 -152 24 -36 24 -40 9 -52 -18
-13 -124 -34 -167 -34 -13 0 -33 7 -43 15 -11 8 -40 15 -65 15 -45 0 -50 3
-189 131 -104 96 -141 135 -137 148 3 9 -2 26 -10 37 -8 10 -15 34 -15 52 0
23 -9 42 -29 63 -37 37 -66 39 -57 4z"/>
<path d="M3261 1786 l-32 -33 33 -26 33 -26 27 26 27 26 -26 33 c-14 19 -26
34 -27 34 -1 0 -17 -15 -35 -34z"/>
</g>
</svg>
