<?xml version="1.0" standalone="no"?>
<!DOCTYPE svg PUBLIC "-//W3C//DTD SVG 20010904//EN"
 "http://www.w3.org/TR/2001/REC-SVG-20010904/DTD/svg10.dtd">
<svg version="1.0" xmlns="http://www.w3.org/2000/svg"
 width="500.000000pt" height="500.000000pt" viewBox="0 0 500.000000 500.000000"
 preserveAspectRatio="xMidYMid meet">
<metadata>
Created by potrace 1.14, written by Peter Selinger 2001-2017
</metadata>
<g transform="translate(0.000000,500.000000) scale(0.100000,-0.100000)"
fill="#000000" stroke="none">
<path d="M2294 3936 c-18 -8 -36 -27 -44 -45 -20 -50 -8 -98 55 -207 23 -38
15 -72 -25 -118 -27 -30 -104 -76 -129 -76 -5 0 -3 13 5 30 9 16 14 47 12 67
-3 32 -9 41 -38 55 -34 17 -35 17 -60 -5 -57 -52 -57 -52 -95 -18 -42 36 -77
39 -106 10 -28 -28 -20 -86 18 -136 l27 -36 136 6 c87 3 151 11 181 22 63 22
123 76 145 130 l19 45 92 0 91 0 12 -35 c17 -51 87 -119 146 -139 33 -12 95
-19 190 -23 l141 -6 27 36 c39 51 46 110 16 142 -31 33 -53 31 -100 -6 -41
-33 -56 -32 -94 10 -24 26 -60 27 -86 1 -24 -24 -26 -70 -5 -110 14 -28 14
-30 -2 -30 -33 1 -108 46 -131 80 -31 46 -38 79 -21 104 36 55 69 132 69 160
0 38 -22 71 -60 91 -49 25 -65 19 -129 -52 l-62 -68 -62 68 c-65 71 -79 76
-133 53z"/>
<path d="M3280 3892 c-52 -51 -77 -145 -46 -171 7 -6 26 -8 43 -5 64 13 94
-82 49 -151 -20 -31 -80 -62 -146 -76 -72 -15 -62 -27 17 -17 146 17 214 57
233 137 21 90 -20 140 -102 124 -26 -5 -28 -3 -28 29 0 18 10 54 23 78 19 38
27 45 56 48 78 8 93 -9 127 -142 20 -81 60 -127 123 -143 22 -6 41 -9 41 -6 0
3 -16 23 -35 44 -40 44 -48 91 -15 82 11 -3 27 -2 36 1 14 5 13 8 -6 24 -11 9
-33 39 -48 67 -15 27 -42 59 -60 71 -38 26 -112 44 -179 44 -39 0 -50 -5 -83
-38z"/>
<path d="M1507 3909 c-21 -5 -50 -15 -66 -24 -31 -16 -81 -70 -81 -88 0 -6
-12 -23 -27 -39 -21 -22 -23 -29 -11 -33 8 -3 27 -1 41 4 25 10 27 8 27 -14 0
-13 -15 -40 -35 -61 -19 -20 -33 -39 -31 -42 9 -8 81 21 104 42 35 31 53 71
62 139 11 72 38 107 85 107 46 0 72 -24 89 -84 21 -72 16 -83 -40 -82 -37 1
-50 -4 -65 -23 -36 -44 -17 -150 32 -182 42 -27 112 -49 182 -57 71 -9 93 1
30 13 -67 12 -140 51 -157 84 -23 43 -21 106 4 131 16 16 28 19 60 14 l40 -7
0 44 c0 55 -29 119 -65 147 -30 24 -104 28 -178 11z"/>
<path d="M1126 3520 c-72 -86 -53 -218 45 -325 39 -43 181 -145 247 -179 23
-12 32 -23 32 -41 l0 -24 -52 15 c-130 38 -234 100 -344 206 l-71 69 -14 -33
c-8 -18 -14 -58 -14 -88 1 -143 113 -218 398 -266 86 -15 108 -22 113 -37 3
-10 3 -21 -1 -25 -3 -4 -57 -6 -118 -6 -119 2 -250 27 -335 64 -71 32 -76 29
-69 -41 15 -165 138 -217 407 -169 163 28 155 28 158 4 7 -48 -215 -114 -384
-114 l-84 0 0 -33 c0 -50 32 -99 81 -125 92 -50 233 -15 388 96 66 47 76 52
89 38 13 -13 13 -18 -1 -40 -59 -90 -162 -166 -279 -207 l-78 -27 23 -32 c28
-41 81 -70 128 -70 53 0 151 53 200 108 23 26 58 77 78 115 43 81 67 86 64 15
-2 -74 -61 -186 -144 -272 -38 -41 -69 -78 -69 -84 0 -17 50 -51 85 -58 39 -7
93 8 130 38 51 40 97 163 112 304 8 69 8 69 41 72 l32 3 0 58 c0 32 3 72 6 90
5 21 2 32 -7 35 -8 2 -32 9 -54 15 -53 14 -123 74 -146 125 -26 58 -24 114 7
171 21 40 23 50 11 57 -138 77 -382 334 -522 551 -27 42 -53 77 -57 77 -3 0
-18 -14 -32 -30z"/>
<path d="M3768 3462 c-124 -190 -299 -382 -443 -488 -44 -32 -81 -59 -82 -59
-1 -1 9 -23 22 -50 14 -26 25 -66 25 -87 0 -101 -87 -198 -200 -222 -25 -5
-25 -6 -20 -93 l5 -88 30 -5 c28 -5 30 -8 37 -65 16 -147 62 -273 113 -313 37
-30 91 -45 130 -38 35 7 85 41 85 58 0 5 -31 43 -69 83 -82 89 -142 201 -144
272 -3 68 20 68 56 0 49 -95 116 -168 186 -204 37 -20 78 -33 100 -33 48 0
100 29 129 70 l22 34 -52 16 c-124 39 -231 112 -289 197 -28 39 -30 47 -17 60
13 13 24 8 89 -39 155 -111 296 -146 388 -96 49 26 81 75 81 124 l0 31 -117 6
c-130 6 -206 23 -301 67 -58 27 -62 31 -52 50 8 14 17 19 28 15 50 -19 264
-47 328 -43 130 9 201 72 211 188 7 69 6 69 -69 39 -101 -39 -218 -61 -335
-63 -61 0 -115 2 -118 6 -4 4 -4 15 -1 25 5 15 27 22 113 37 285 48 397 123
398 266 0 30 -6 70 -14 88 l-14 33 -71 -69 c-108 -104 -197 -159 -325 -201
-36 -12 -66 -21 -68 -21 -1 0 -3 11 -3 25 0 18 9 29 33 41 56 29 170 110 225
159 88 79 129 188 102 271 -13 40 -55 104 -68 104 -4 -1 -33 -40 -64 -88z"/>
<path d="M2340 3399 c-19 -5 -138 -13 -265 -17 -201 -7 -236 -11 -277 -29 -25
-12 -51 -30 -57 -41 -14 -27 -14 -75 0 -106 l12 -25 34 29 c28 25 42 30 88 30
77 0 155 -32 220 -91 63 -59 91 -100 121 -183 l22 -61 111 -3 c61 -1 111 1
111 6 0 20 -41 127 -70 181 -17 32 -53 82 -80 111 -53 57 -53 58 1 90 18 10
79 97 79 112 0 9 -3 9 -50 -3z"/>
<path d="M2590 3406 c0 -37 62 -114 116 -144 16 -9 12 -16 -30 -63 -45 -51
-142 -231 -148 -274 -3 -19 4 -20 108 -23 l111 -3 13 46 c17 59 75 150 125
194 100 88 250 119 313 66 l30 -25 11 31 c20 57 14 95 -19 123 -49 40 -91 47
-345 56 -132 4 -250 11 -262 15 -13 4 -23 4 -23 1z"/>
<path d="M1964 2678 c15 -74 93 -148 193 -183 23 -8 64 -23 90 -32 71 -25 146
-101 193 -196 22 -44 40 -86 40 -93 0 -29 26 -13 39 24 36 102 123 212 198
251 22 11 68 29 103 41 113 38 190 108 206 188 6 31 -7 45 -21 22 -9 -14 -132
-50 -172 -50 -19 0 -81 9 -136 21 -86 18 -124 20 -242 16 -84 -4 -164 -12
-200 -22 -76 -22 -158 -14 -233 20 -30 14 -57 25 -59 25 -3 0 -3 -15 1 -32z"/>
<path d="M2031 2428 c-39 -110 38 -247 158 -282 30 -9 64 -16 75 -16 31 0 89
18 110 33 17 13 17 15 2 45 -14 27 -20 31 -36 22 -28 -15 -108 -12 -146 6 -18
9 -43 31 -54 50 -20 31 -29 101 -17 121 3 5 -14 19 -38 31 l-43 21 -11 -31z"/>
<path d="M2917 2443 c-4 -6 -20 -13 -36 -16 -28 -6 -29 -8 -19 -36 17 -44 -13
-115 -62 -148 -33 -21 -48 -24 -92 -21 -29 2 -61 8 -70 12 -14 6 -21 0 -35
-29 -17 -35 -17 -37 1 -50 31 -23 107 -35 155 -24 57 13 89 31 128 71 43 44
63 96 63 161 0 52 -20 101 -33 80z"/>
<path d="M2206 2383 c-12 -12 -6 -40 14 -61 21 -22 74 -30 84 -14 11 17 -84
89 -98 75z"/>
<path d="M2740 2373 c-51 -34 -71 -56 -58 -65 39 -24 98 10 98 57 0 29 -7 31
-40 8z"/>
<path d="M1324 2065 c6 -24 5 -24 -44 -18 -76 9 -96 -21 -65 -99 6 -14 2 -18
-19 -18 -15 0 -26 -6 -26 -14 0 -18 49 -66 69 -67 9 0 34 -2 56 -5 22 -2 55
-5 73 -6 26 -2 60 -27 166 -123 l133 -120 -5 -47 c-4 -40 -1 -50 21 -72 31
-31 72 -42 108 -29 24 9 31 7 56 -19 36 -38 57 -50 77 -42 26 10 18 32 -24 71
-23 20 -37 40 -32 45 18 18 131 51 197 57 l70 6 -3 57 c-3 50 -1 60 22 83 14
14 37 25 52 25 40 0 94 -30 115 -64 18 -29 18 -32 3 -41 -50 -30 -171 -135
-205 -177 l-39 -49 19 -37 c18 -34 38 -57 85 -92 17 -14 18 -13 11 8 -13 44 4
92 50 138 58 57 74 56 30 -1 -74 -98 -64 -194 27 -241 15 -8 36 -14 48 -14 17
0 19 4 13 28 -14 50 -7 135 15 179 26 49 49 69 39 32 -45 -161 -19 -321 55
-345 29 -9 73 40 89 98 11 40 7 165 -6 243 -5 25 -1 22 22 -20 24 -44 28 -60
27 -132 -1 -92 2 -95 63 -66 91 43 97 143 14 252 -23 31 -24 33 -5 23 34 -18
94 -90 96 -115 0 -12 0 -35 -1 -51 l-3 -30 34 26 c42 32 78 84 78 113 0 24
-128 154 -197 200 -24 15 -43 33 -43 40 0 7 18 29 40 49 32 28 48 36 79 36 58
0 86 -27 85 -82 0 -23 -2 -50 -5 -57 -3 -12 18 -19 91 -32 108 -19 166 -44
226 -100 68 -61 141 -74 214 -36 33 16 51 34 67 67 29 55 29 101 2 157 -31 64
-47 68 -98 27 -24 -19 -47 -34 -51 -34 -3 0 -24 13 -46 30 -21 16 -44 30 -51
30 -15 0 -63 -58 -63 -77 0 -13 -9 -15 -57 -9 -69 8 -133 26 -133 37 0 5 13
29 29 54 63 100 62 196 -4 254 -29 25 -88 51 -118 51 -5 0 -30 -18 -55 -41
-26 -22 -76 -57 -112 -76 -36 -20 -93 -53 -128 -74 l-63 -39 -32 24 c-18 13
-79 49 -137 80 -58 31 -121 72 -140 91 -32 31 -38 33 -71 26 -80 -18 -139 -82
-139 -149 0 -39 25 -108 57 -156 24 -36 24 -40 9 -52 -18 -13 -124 -34 -167
-34 -13 0 -33 7 -43 15 -11 8 -40 15 -65 15 -45 0 -50 3 -189 131 -95 87 -141
136 -138 146 3 8 1 24 -6 36 -7 12 -13 38 -15 57 -1 24 -11 43 -33 63 -39 35
-64 36 -56 2z"/>
<path d="M3261 1786 l-32 -33 32 -27 32 -27 28 27 28 27 -26 33 c-14 19 -26
34 -27 34 -1 0 -17 -15 -35 -34z"/>
</g>
</svg>
