<svg width="380" height="42" viewBox="0 0 380 42" fill="none" xmlns="http://www.w3.org/2000/svg">
<path d="M24.1457 4.86328V30.8333H17.7068V11.7314H6.43885V30.9406H0V4.86328H24.1457Z" fill="black"/>
<path d="M56.2326 12.2692C56.9838 13.9862 57.3057 15.8105 57.3057 17.8495C57.3057 19.8885 56.9838 21.7128 56.2326 23.4298C55.4814 25.1469 54.5156 26.5419 53.3351 27.7224C52.1547 28.9028 50.7596 29.8687 49.1499 30.5126C47.5402 31.1564 45.9304 31.4784 44.2134 31.4784C42.2818 31.4784 40.6721 31.1564 39.277 30.5126C37.8819 29.8687 37.0234 29.0102 36.5941 28.0443V41.4586H30.1553V4.86448H36.3795V7.54733C36.8087 6.58151 37.7746 5.72299 39.1697 5.07911C40.5647 4.43522 42.1745 4.11328 44.1061 4.11328C45.8231 4.11328 47.5402 4.43522 49.1499 5.07911C50.7596 5.83031 52.1547 6.79613 53.3351 7.97659C54.5156 9.15705 55.5887 10.6594 56.2326 12.2692ZM50.3303 20.6397C50.6523 19.7811 50.8669 18.8153 50.8669 17.8495C50.8669 16.8837 50.6523 15.9178 50.3303 15.0593C50.0084 14.2008 49.4718 13.4496 48.8279 12.913C48.184 12.2692 47.4328 11.8399 46.467 11.518C45.5012 11.196 44.5354 10.9814 43.4622 10.9814C41.8525 10.9814 40.4574 11.3033 39.1697 11.9472C37.8819 12.5911 37.1307 13.4496 36.7014 14.4154V21.2835C37.1307 22.2494 37.8819 23.1079 39.1697 23.7518C40.4574 24.3957 41.8525 24.7176 43.4622 24.7176C44.5354 24.7176 45.6085 24.503 46.467 24.181C47.4328 23.8591 48.184 23.3225 48.8279 22.7859C49.4718 22.2494 50.0084 21.4982 50.3303 20.6397Z" fill="black"/>
<path d="M68.2515 4.86328V20.4238L80.056 4.86328H86.4949V30.8333H80.1633V15.2728L68.3588 30.8333H61.9199V4.86328H68.2515Z" fill="black"/>
<path d="M118.367 17.8494C118.367 19.781 118.045 21.6054 117.294 23.3224C116.543 25.0394 115.577 26.4345 114.289 27.615C113.001 28.7954 111.606 29.7613 109.889 30.5125C108.279 31.1563 106.455 31.5856 104.631 31.5856C102.806 31.5856 100.982 31.2637 99.3723 30.5125C97.7626 29.8686 96.2602 28.9027 94.9725 27.615C93.6847 26.3272 92.7189 24.9321 91.9677 23.3224C91.2165 21.6054 90.8945 19.781 90.8945 17.8494C90.8945 15.9177 91.2165 14.0934 91.9677 12.3764C92.7189 10.6593 93.6847 9.26425 94.9725 7.97648C96.2602 6.79603 97.6553 5.8302 99.3723 5.079C100.982 4.43512 102.806 4.00586 104.631 4.00586C106.455 4.00586 108.279 4.3278 109.889 5.079C111.499 5.72289 113.001 6.68871 114.289 7.97648C115.577 9.15694 116.543 10.6593 117.294 12.3764C117.938 14.0934 118.367 15.9177 118.367 17.8494ZM97.8699 15.0592C97.548 15.9177 97.3334 16.8836 97.3334 17.8494C97.3334 18.8152 97.548 19.781 97.8699 20.6396C98.1919 21.4981 98.7285 22.2493 99.3723 22.7858C100.016 23.4297 100.767 23.859 101.733 24.1809C102.592 24.5029 103.558 24.7175 104.631 24.7175C105.597 24.7175 106.562 24.5029 107.421 24.1809C108.279 23.859 109.031 23.3224 109.674 22.7858C110.318 22.142 110.855 21.4981 111.284 20.6396C111.713 19.781 111.821 18.9225 111.821 17.8494C111.821 16.8836 111.606 15.9177 111.284 15.0592C110.855 14.2007 110.426 13.4495 109.674 12.9129C109.031 12.269 108.279 11.8398 107.421 11.5178C106.562 11.1959 105.597 10.9813 104.631 10.9813C103.665 10.9813 102.699 11.1959 101.733 11.5178C100.875 11.8398 100.016 12.3764 99.3723 12.9129C98.8358 13.4495 98.2992 14.2007 97.8699 15.0592Z" fill="black"/>
<path d="M148.845 12.2692C149.596 13.9862 149.918 15.8105 149.918 17.8495C149.918 19.8885 149.596 21.7128 148.845 23.4298C148.094 25.1469 147.128 26.5419 145.947 27.7224C144.767 28.9028 143.372 29.8687 141.762 30.5126C140.152 31.1564 138.543 31.4784 136.826 31.4784C134.894 31.4784 133.284 31.1564 131.889 30.5126C130.494 29.8687 129.636 29.0102 129.206 28.0443V41.4586H122.768V4.86448H128.992V7.54733C129.421 6.58151 130.387 5.72299 131.782 5.07911C133.177 4.43522 134.787 4.11328 136.718 4.11328C138.435 4.11328 140.152 4.43522 141.762 5.07911C143.372 5.72299 144.767 6.68882 145.947 7.86928C147.128 9.04973 148.094 10.6594 148.845 12.2692ZM142.943 20.6397C143.265 19.7811 143.479 18.8153 143.479 17.8495C143.479 16.8837 143.265 15.9178 142.943 15.0593C142.621 14.2008 142.084 13.4496 141.44 12.913C140.796 12.2692 140.045 11.8399 139.079 11.518C138.114 11.196 137.148 10.9814 136.075 10.9814C134.465 10.9814 133.07 11.3033 131.782 11.9472C130.494 12.5911 129.743 13.4496 129.314 14.4154V21.2835C129.743 22.2494 130.494 23.1079 131.782 23.7518C133.07 24.3957 134.465 24.7176 136.075 24.7176C137.148 24.7176 138.221 24.503 139.079 24.181C140.045 23.8591 140.796 23.3225 141.44 22.7859C141.977 22.2494 142.513 21.4982 142.943 20.6397Z" fill="black"/>
<path d="M160.756 4.86328V20.4238L172.561 4.86328H179V30.8333H172.668V15.2728L160.864 30.8333H154.425V4.86328H160.756Z" fill="black"/>
<path d="M205.613 11.7314H197.565V30.9406H191.126V11.7314H183.077V4.86328H205.506V11.7314H205.613Z" fill="black"/>
<path d="M222.572 25.145C224.181 25.145 225.684 24.8231 227.186 24.2865C228.689 23.7499 229.762 22.8914 230.513 21.9256L232.445 26.862C231.586 28.2571 230.298 29.3303 228.581 30.1888C226.864 31.0473 224.718 31.5839 222.25 31.5839C220.318 31.5839 218.386 31.2619 216.777 30.618C215.167 29.9741 213.557 29.1156 212.377 27.9352C211.089 26.7547 210.123 25.3596 209.479 23.6426C208.728 21.9256 208.406 20.1012 208.406 17.955C208.406 16.1306 208.728 14.3063 209.372 12.6966C210.016 11.0869 210.874 9.58446 212.055 8.29669C213.235 7.00892 214.63 6.04309 216.24 5.29189C217.85 4.54069 219.674 4.21875 221.713 4.21875C223.645 4.21875 225.362 4.64801 226.972 5.39921C228.581 6.1504 229.869 7.11623 230.942 8.404C232.015 9.69177 232.874 11.0869 233.518 12.8039C234.162 14.4136 234.376 16.1306 234.376 17.955C234.376 18.2769 234.376 18.7062 234.376 19.1354C234.376 19.5647 234.269 19.8866 234.269 20.2086H214.952C215.274 21.9256 216.133 23.2134 217.421 23.9646C218.923 24.7157 220.64 25.145 222.572 25.145ZM227.937 14.9502C227.723 13.5551 227.079 12.4819 225.898 11.8381C224.718 11.0869 223.43 10.7649 221.821 10.7649C220.211 10.7649 218.816 11.0869 217.635 11.8381C216.347 12.5893 215.596 13.6624 215.382 14.9502H227.937Z" fill="black"/>
<path d="M259.81 11.7314H251.762V30.9406H245.323V11.7314H237.274V4.86328H259.703V11.7314H259.81Z" fill="black"/>
<path d="M272.257 10.2283C271.613 10.2283 271.077 10.3357 270.54 10.5503C270.003 10.7649 269.574 10.9795 269.038 11.3015C268.608 11.6234 268.179 11.9454 267.857 12.3746C267.535 12.8039 267.213 13.2331 266.891 13.6624L264.638 9.69177C264.852 8.94057 265.174 8.18937 265.604 7.54549C266.033 6.9016 266.677 6.25772 267.321 5.82846C267.964 5.29189 268.823 4.96995 269.681 4.64801C270.54 4.32606 271.506 4.21875 272.579 4.21875C273.974 4.21875 275.154 4.43338 276.12 4.86263C277.193 5.29189 278.052 5.82846 278.696 6.57966C279.447 7.33086 279.984 8.18937 280.306 9.1552C280.842 10.121 281.057 11.0869 281.057 12.2673C281.057 13.2331 280.949 14.0916 280.735 14.8428C280.52 15.594 280.198 16.3452 279.769 17.0964C279.34 17.8476 278.803 18.5988 278.159 19.35C277.515 20.1012 276.764 20.9598 276.013 21.9256L273.437 24.8231H281.593V30.7253H264.852V26.2181L272.257 18.1696C272.794 17.633 273.223 17.0964 273.652 16.6672C274.081 16.2379 274.403 15.8087 274.618 15.3794C274.833 14.9502 275.047 14.6282 275.154 14.199C275.262 13.877 275.369 13.4478 275.369 12.9112C275.369 12.16 275.047 11.5161 274.511 10.9795C273.974 10.443 273.223 10.2283 272.257 10.2283Z" fill="#F32735"/>
<path d="M292.644 5.29395C294.254 4.65007 296.078 4.32812 297.902 4.32812C299.727 4.32812 301.551 4.65007 303.161 5.29395C304.77 5.93784 306.273 6.90366 307.561 8.08412C308.848 9.26458 309.814 10.767 310.565 12.3767C311.316 14.0937 311.638 15.9181 311.638 17.8497C311.638 19.8887 311.316 21.713 310.565 23.3227C309.814 25.0398 308.848 26.4348 307.561 27.6153C306.273 28.7957 304.878 29.7616 303.161 30.4055C301.444 31.0493 299.727 31.3713 297.902 31.3713C296.078 31.3713 294.254 31.0493 292.644 30.4055C290.927 29.7616 289.532 28.7957 288.244 27.6153C286.956 26.4348 285.99 24.9324 285.239 23.3227C284.488 21.713 284.166 19.7814 284.166 17.8497C284.166 15.8107 284.488 13.9864 285.239 12.3767C285.99 10.6597 286.956 9.26458 288.244 8.08412C289.532 6.79635 291.034 5.93784 292.644 5.29395ZM297.902 25.469C298.975 25.469 300.049 25.2544 301.014 24.9324C301.98 24.5032 302.839 24.0739 303.59 23.3227C304.341 22.6788 304.878 21.8203 305.307 20.9618C305.736 19.996 305.951 19.0302 305.951 17.8497C305.951 16.7766 305.736 15.7034 305.307 14.7376C304.878 13.7718 304.341 13.0206 303.59 12.2694C302.839 11.6255 301.98 11.0889 301.014 10.6597C300.049 10.2304 298.975 10.1231 297.902 10.1231C296.722 10.1231 295.756 10.3377 294.683 10.6597C293.717 11.0889 292.858 11.5182 292.107 12.2694C291.356 12.9133 290.82 13.7718 290.39 14.7376C289.961 15.7034 289.746 16.6693 289.746 17.8497C289.746 19.0302 289.961 19.996 290.39 20.9618C290.82 21.9276 291.356 22.6788 292.107 23.3227C292.858 23.9666 293.717 24.5032 294.683 24.9324C295.756 25.3617 296.722 25.469 297.902 25.469Z" fill="#F32735"/>
<path d="M320.762 25.5749C321.942 25.5749 322.908 25.253 323.552 24.7164C324.303 24.1798 324.625 23.4286 324.625 22.4628C324.625 21.6043 324.303 20.9604 323.659 20.4238C323.015 19.8873 322.157 19.6726 321.084 19.6726C320.333 19.6726 319.689 19.7799 319.152 19.8873C318.616 20.1019 318.186 20.2092 317.972 20.4238L317.113 16.3459L321.62 10.7656H314.43V4.86328H329.025V9.15585L324.625 14.6289C325.269 14.7362 325.913 15.0581 326.557 15.3801C327.201 15.702 327.845 16.2386 328.489 16.8825C329.132 17.5264 329.562 18.2775 329.884 19.2434C330.206 20.2092 330.42 21.2823 330.42 22.6774C330.42 23.9652 330.206 25.0383 329.776 26.1115C329.347 27.1846 328.703 28.1505 327.845 29.009C326.986 29.8675 326.02 30.5114 324.84 30.9406C323.659 31.3699 322.372 31.6918 320.869 31.6918C319.796 31.6918 318.83 31.5845 317.972 31.3699C317.113 31.1552 316.362 30.8333 315.718 30.404C315.074 29.9748 314.538 29.5455 314.108 29.1163C313.679 28.5797 313.357 28.1504 313.143 27.6139L314.43 22.7847C315.182 23.6433 316.04 24.2871 317.006 24.931C317.757 25.253 319.152 25.5749 320.762 25.5749Z" fill="#F32735"/>
<path d="M341.261 5.29395C342.871 4.65007 344.695 4.32812 346.519 4.32812C348.344 4.32812 350.168 4.65007 351.778 5.29395C353.387 5.93784 354.89 6.90366 356.178 8.08412C357.465 9.26458 358.431 10.767 359.182 12.3767C359.934 14.0937 360.256 15.9181 360.256 17.8497C360.256 19.8887 359.934 21.713 359.182 23.3227C358.431 25.0398 357.465 26.4348 356.178 27.6153C354.89 28.7957 353.495 29.7616 351.778 30.4055C350.061 31.0493 348.344 31.3713 346.519 31.3713C344.695 31.3713 342.871 31.0493 341.261 30.4055C339.544 29.7616 338.149 28.7957 336.861 27.6153C335.573 26.4348 334.608 24.9324 333.856 23.3227C333.105 21.713 332.783 19.7814 332.783 17.8497C332.783 15.8107 333.105 13.9864 333.856 12.3767C334.608 10.6597 335.573 9.26458 336.861 8.08412C338.149 6.79635 339.651 5.93784 341.261 5.29395ZM346.519 25.469C347.593 25.469 348.666 25.2544 349.632 24.9324C350.597 24.5032 351.456 24.0739 352.207 23.3227C352.958 22.6788 353.495 21.8203 353.924 20.9618C354.353 19.996 354.568 19.0302 354.568 17.8497C354.568 16.7766 354.353 15.7034 353.924 14.7376C353.495 13.7718 352.958 13.0206 352.207 12.2694C351.456 11.6255 350.597 11.0889 349.632 10.6597C348.666 10.2304 347.593 10.1231 346.519 10.1231C345.339 10.1231 344.373 10.3377 343.3 10.6597C342.334 11.0889 341.476 11.5182 340.724 12.2694C339.973 12.9133 339.437 13.7718 339.007 14.7376C338.578 15.7034 338.364 16.6693 338.364 17.8497C338.364 19.0302 338.578 19.996 339.007 20.9618C339.437 21.9276 339.973 22.6788 340.724 23.3227C341.476 23.9666 342.334 24.5032 343.3 24.9324C344.373 25.3617 345.446 25.469 346.519 25.469Z" fill="#F32735"/>
<path d="M374.097 0.464844H368.839L362.829 10.8743H368.087L374.097 0.464844Z" fill="#F32735"/>
<path d="M368.84 0.464844H374.098L380.001 10.8743H374.849L368.84 0.464844Z" fill="#F32735"/>
</svg>
