<svg width="247" height="48" viewBox="0 0 247 48" fill="none" xmlns="http://www.w3.org/2000/svg">
<g clip-path="url(#clip0)">
<path d="M15.6969 2.84766V19.656H11.5296V7.29283H4.23669V19.7254H0.0693359V2.84766H15.6969Z" fill="white"/>
<path d="M36.4647 7.63998C36.9509 8.75127 37.1593 9.93202 37.1593 11.2517C37.1593 12.5713 36.9509 13.7521 36.4647 14.8634C35.9785 15.9747 35.3534 16.8776 34.5894 17.6416C33.8254 18.4056 32.9224 19.0307 31.8806 19.4475C30.8388 19.8642 29.7969 20.0726 28.6856 20.0726C27.4354 20.0726 26.3936 19.8642 25.4907 19.4475C24.5877 19.0307 24.0321 18.4751 23.7543 17.85V26.532H19.5869V2.84752H23.6154V4.58392C23.8932 3.95881 24.5183 3.40317 25.4212 2.98643C26.3241 2.5697 27.366 2.36133 28.6162 2.36133C29.7275 2.36133 30.8388 2.5697 31.8806 2.98643C32.9224 3.47262 33.8254 4.09773 34.5894 4.86174C35.3534 5.62575 36.048 6.59814 36.4647 7.63998ZM32.6446 13.0575C32.853 12.5019 32.9919 11.8768 32.9919 11.2517C32.9919 10.6266 32.853 10.0015 32.6446 9.44583C32.4362 8.89018 32.089 8.40399 31.6722 8.05671C31.2555 7.63998 30.7693 7.36215 30.1442 7.15378C29.5191 6.94542 28.894 6.8065 28.1994 6.8065C27.1576 6.8065 26.2547 7.01487 25.4212 7.43161C24.5877 7.84834 24.1015 8.40399 23.8237 9.02909V13.4743C24.1015 14.0994 24.5877 14.655 25.4212 15.0718C26.2547 15.4885 27.1576 15.6969 28.1994 15.6969C28.894 15.6969 29.5886 15.5579 30.1442 15.3496C30.7693 15.1412 31.2555 14.7939 31.6722 14.4467C32.089 14.0994 32.4362 13.6132 32.6446 13.0575Z" fill="white"/>
<path d="M44.2434 2.84766V12.9188L51.8836 2.84766H56.0509V19.656H51.953V9.58488L44.3129 19.656H40.1455V2.84766H44.2434Z" fill="white"/>
<path d="M76.6791 11.2508C76.6791 12.501 76.4708 13.6818 75.9846 14.7931C75.4984 15.9044 74.8733 16.8073 74.0398 17.5713C73.2063 18.3353 72.3034 18.9604 71.1921 19.4466C70.1503 19.8634 68.9695 20.1412 67.7888 20.1412C66.608 20.1412 65.4273 19.9328 64.3854 19.4466C63.3436 19.0299 62.3712 18.4048 61.5378 17.5713C60.7043 16.7378 60.0792 15.8349 59.593 14.7931C59.1068 13.6818 58.8984 12.501 58.8984 11.2508C58.8984 10.0006 59.1068 8.81987 59.593 7.70857C60.0792 6.59728 60.7043 5.69435 61.5378 4.86088C62.3712 4.09687 63.2742 3.47177 64.3854 2.98557C65.4273 2.56884 66.608 2.29102 67.7888 2.29102C68.9695 2.29102 70.1503 2.49938 71.1921 2.98557C72.234 3.40231 73.2063 4.02741 74.0398 4.86088C74.8733 5.6249 75.4984 6.59728 75.9846 7.70857C76.4013 8.81987 76.6791 10.0006 76.6791 11.2508ZM63.4131 9.44497C63.2047 10.0006 63.0658 10.6257 63.0658 11.2508C63.0658 11.8759 63.2047 12.501 63.4131 13.0567C63.6214 13.6123 63.9687 14.0985 64.3854 14.4458C64.8022 14.8625 65.2884 15.1404 65.9135 15.3487C66.4691 15.5571 67.0942 15.696 67.7888 15.696C68.4139 15.696 69.039 15.5571 69.5946 15.3487C70.1503 15.1404 70.6365 14.7931 71.0532 14.4458C71.4699 14.0291 71.8172 13.6123 72.095 13.0567C72.3729 12.501 72.4423 11.9454 72.4423 11.2508C72.4423 10.6257 72.3034 10.0006 72.095 9.44497C71.8172 8.88933 71.5394 8.40313 71.0532 8.05585C70.6365 7.63912 70.1503 7.3613 69.5946 7.15293C69.039 6.94456 68.4139 6.80565 67.7888 6.80565C67.1637 6.80565 66.5386 6.94456 65.9135 7.15293C65.3578 7.3613 64.8022 7.70857 64.3854 8.05585C64.0382 8.40313 63.6909 8.88933 63.4131 9.44497Z" fill="white"/>
<path d="M96.4042 7.63998C96.8904 8.75127 97.0987 9.93202 97.0987 11.2517C97.0987 12.5713 96.8904 13.7521 96.4042 14.8634C95.918 15.9747 95.2929 16.8776 94.5289 17.6416C93.7648 18.4056 92.8619 19.0307 91.8201 19.4475C90.7782 19.8642 89.7364 20.0726 88.6251 20.0726C87.3749 20.0726 86.3331 19.8642 85.4301 19.4475C84.5272 19.0307 83.9715 18.4751 83.6937 17.85V26.532H79.5264V2.84752H83.5548V4.58392C83.8326 3.95881 84.4577 3.40317 85.3607 2.98643C86.2636 2.5697 87.3054 2.36133 88.5556 2.36133C89.6669 2.36133 90.7782 2.5697 91.8201 2.98643C92.8619 3.40317 93.7648 4.02827 94.5289 4.79228C95.2929 5.5563 95.918 6.59814 96.4042 7.63998ZM92.5841 13.0575C92.7925 12.5019 92.9314 11.8768 92.9314 11.2517C92.9314 10.6266 92.7925 10.0015 92.5841 9.44583C92.3757 8.89018 92.0284 8.40399 91.6117 8.05671C91.195 7.63998 90.7088 7.36215 90.0837 7.15378C89.4586 6.94542 88.8335 6.8065 88.1389 6.8065C87.0971 6.8065 86.1941 7.01487 85.3607 7.43161C84.5272 7.84834 84.041 8.40399 83.7632 9.02909V13.4743C84.041 14.0994 84.5272 14.655 85.3607 15.0718C86.1941 15.4885 87.0971 15.6969 88.1389 15.6969C88.8335 15.6969 89.528 15.5579 90.0837 15.3496C90.7088 15.1412 91.195 14.7939 91.6117 14.4467C91.959 14.0994 92.3063 13.6132 92.5841 13.0575Z" fill="white"/>
<path d="M104.114 2.84766V12.9188L111.755 2.84766H115.922V19.656H111.824V9.58488L104.184 19.656H100.017V2.84766H104.114Z" fill="white"/>
<path d="M133.147 7.29283H127.938V19.7254H123.771V7.29283H118.562V2.84766H133.078V7.29283H133.147Z" fill="white"/>
<path d="M144.121 15.9755C145.163 15.9755 146.136 15.7672 147.108 15.4199C148.08 15.0726 148.775 14.517 149.261 13.8919L150.511 17.0868C149.956 17.9898 149.122 18.6843 148.011 19.24C146.9 19.7956 145.51 20.1429 143.913 20.1429C142.663 20.1429 141.413 19.9345 140.371 19.5178C139.329 19.1011 138.287 18.5454 137.523 17.7814C136.69 17.0174 136.064 16.1145 135.648 15.0032C135.161 13.8919 134.953 12.7111 134.953 11.322C134.953 10.1412 135.161 8.96049 135.578 7.91866C135.995 6.87682 136.551 5.90444 137.315 5.07096C138.079 4.23749 138.982 3.61239 140.023 3.1262C141.065 2.64001 142.246 2.43164 143.566 2.43164C144.816 2.43164 145.927 2.70946 146.969 3.19566C148.011 3.68185 148.844 4.30695 149.539 5.14042C150.233 5.97389 150.789 6.87682 151.206 7.98811C151.623 9.02995 151.761 10.1412 151.761 11.322C151.761 11.5304 151.761 11.8082 151.761 12.086C151.761 12.3638 151.692 12.5722 151.692 12.7806H139.19C139.398 13.8919 139.954 14.7253 140.787 15.2115C141.76 15.6977 142.871 15.9755 144.121 15.9755ZM147.594 9.37723C147.455 8.4743 147.038 7.77974 146.274 7.36301C145.51 6.87682 144.677 6.66845 143.635 6.66845C142.593 6.66845 141.69 6.87682 140.926 7.36301C140.093 7.8492 139.607 8.54376 139.468 9.37723H147.594Z" fill="white"/>
<path d="M168.222 7.29283H163.013V19.7254H158.846V7.29283H153.637V2.84766H168.153V7.29283H168.222Z" fill="white"/>
<path d="M176.279 6.32117C175.862 6.32117 175.515 6.39063 175.168 6.52954C174.82 6.66845 174.543 6.80736 174.195 7.01573C173.918 7.2241 173.64 7.43246 173.431 7.71029C173.223 7.98811 173.015 8.26593 172.806 8.54376L171.348 5.97389C171.487 5.4877 171.695 5.00151 171.973 4.58477C172.251 4.16804 172.667 3.7513 173.084 3.47348C173.501 3.1262 174.056 2.91783 174.612 2.70946C175.168 2.5011 175.793 2.43164 176.487 2.43164C177.39 2.43164 178.154 2.57055 178.779 2.84838C179.474 3.1262 180.03 3.47348 180.446 3.95967C180.933 4.44586 181.28 5.00151 181.488 5.62661C181.835 6.25171 181.974 6.87682 181.974 7.64083C181.974 8.26593 181.905 8.82158 181.766 9.30777C181.627 9.79396 181.419 10.2802 181.141 10.7663C180.863 11.2525 180.516 11.7387 180.099 12.2249C179.682 12.7111 179.196 13.2668 178.71 13.8919L177.043 15.7672H182.322V19.5872H171.487V16.6701L176.279 11.4609C176.626 11.1136 176.904 10.7663 177.182 10.4885C177.46 10.2107 177.668 9.93287 177.807 9.65505C177.946 9.37723 178.085 9.16886 178.154 8.89104C178.224 8.68267 178.293 8.40485 178.293 8.05757C178.293 7.57138 178.085 7.15464 177.738 6.80736C177.39 6.46008 176.904 6.32117 176.279 6.32117Z" fill="white"/>
<path d="M189.475 3.1251C190.517 2.70837 191.698 2.5 192.879 2.5C194.059 2.5 195.24 2.70837 196.282 3.1251C197.324 3.54184 198.296 4.16694 199.13 4.93096C199.963 5.69497 200.588 6.66735 201.074 7.70919C201.561 8.82049 201.769 10.0012 201.769 11.2514C201.769 12.5711 201.561 13.7519 201.074 14.7937C200.588 15.905 199.963 16.8079 199.13 17.5719C198.296 18.3359 197.393 18.961 196.282 19.3778C195.171 19.7945 194.059 20.0029 192.879 20.0029C191.698 20.0029 190.517 19.7945 189.475 19.3778C188.364 18.961 187.461 18.3359 186.628 17.5719C185.794 16.8079 185.169 15.8355 184.683 14.7937C184.197 13.7519 183.988 12.5016 183.988 11.2514C183.988 9.93178 184.197 8.75103 184.683 7.70919C185.169 6.5979 185.794 5.69497 186.628 4.93096C187.461 4.09749 188.433 3.54184 189.475 3.1251ZM192.879 16.1828C193.573 16.1828 194.268 16.0439 194.893 15.8355C195.518 15.5577 196.074 15.2799 196.56 14.7937C197.046 14.377 197.393 13.8213 197.671 13.2657C197.949 12.6406 198.088 12.0155 198.088 11.2514C198.088 10.5569 197.949 9.86232 197.671 9.23722C197.393 8.61212 197.046 8.12593 196.56 7.63974C196.074 7.223 195.518 6.87572 194.893 6.5979C194.268 6.32007 193.573 6.25062 192.879 6.25062C192.115 6.25062 191.49 6.38953 190.795 6.5979C190.17 6.87572 189.614 7.15354 189.128 7.63974C188.642 8.05647 188.295 8.61212 188.017 9.23722C187.739 9.86232 187.6 10.4874 187.6 11.2514C187.6 12.0155 187.739 12.6406 188.017 13.2657C188.295 13.8908 188.642 14.377 189.128 14.7937C189.614 15.2104 190.17 15.5577 190.795 15.8355C191.49 16.1134 192.115 16.1828 192.879 16.1828Z" fill="white"/>
<path d="M207.674 16.2526C208.438 16.2526 209.063 16.0443 209.479 15.697C209.966 15.3497 210.174 14.8635 210.174 14.2384C210.174 13.6828 209.966 13.266 209.549 12.9188C209.132 12.5715 208.576 12.4326 207.882 12.4326C207.396 12.4326 206.979 12.502 206.632 12.5715C206.284 12.7104 206.007 12.7798 205.868 12.9188L205.312 10.2794L208.229 6.66773H203.576V2.84766H213.022V5.62589L210.174 9.16814C210.591 9.2376 211.007 9.44596 211.424 9.65433C211.841 9.8627 212.258 10.21 212.674 10.6267C213.091 11.0435 213.369 11.5296 213.577 12.1547C213.786 12.7798 213.925 13.4744 213.925 14.3773C213.925 15.2108 213.786 15.9054 213.508 16.5999C213.23 17.2945 212.813 17.9196 212.258 18.4752C211.702 19.0309 211.077 19.4476 210.313 19.7254C209.549 20.0033 208.715 20.2116 207.743 20.2116C207.048 20.2116 206.423 20.1422 205.868 20.0033C205.312 19.8643 204.826 19.656 204.409 19.3782C203.992 19.1003 203.645 18.8225 203.367 18.5447C203.089 18.1974 202.881 17.9196 202.742 17.5723L203.576 14.4468C204.062 15.0024 204.617 15.4192 205.243 15.8359C205.729 16.0443 206.632 16.2526 207.674 16.2526Z" fill="white"/>
<path d="M220.939 3.1251C221.981 2.70837 223.162 2.5 224.342 2.5C225.523 2.5 226.704 2.70837 227.746 3.1251C228.788 3.54184 229.76 4.16694 230.594 4.93096C231.427 5.69497 232.052 6.66735 232.538 7.70919C233.024 8.82049 233.233 10.0012 233.233 11.2514C233.233 12.5711 233.024 13.7519 232.538 14.7937C232.052 15.905 231.427 16.8079 230.594 17.5719C229.76 18.3359 228.857 18.961 227.746 19.3778C226.635 19.7945 225.523 20.0029 224.342 20.0029C223.162 20.0029 221.981 19.7945 220.939 19.3778C219.828 18.961 218.925 18.3359 218.091 17.5719C217.258 16.8079 216.633 15.8355 216.147 14.7937C215.661 13.7519 215.452 12.5016 215.452 11.2514C215.452 9.93178 215.661 8.75103 216.147 7.70919C216.633 6.5979 217.258 5.69497 218.091 4.93096C218.925 4.09749 219.897 3.54184 220.939 3.1251ZM224.342 16.1828C225.037 16.1828 225.732 16.0439 226.357 15.8355C226.982 15.5577 227.537 15.2799 228.024 14.7937C228.51 14.377 228.857 13.8213 229.135 13.2657C229.413 12.6406 229.552 12.0155 229.552 11.2514C229.552 10.5569 229.413 9.86232 229.135 9.23722C228.857 8.61212 228.51 8.12593 228.024 7.63974C227.537 7.223 226.982 6.87572 226.357 6.5979C225.732 6.32007 225.037 6.25062 224.342 6.25062C223.578 6.25062 222.953 6.38953 222.259 6.5979C221.634 6.87572 221.078 7.15354 220.592 7.63974C220.106 8.05647 219.758 8.61212 219.481 9.23722C219.203 9.86232 219.064 10.4874 219.064 11.2514C219.064 12.0155 219.203 12.6406 219.481 13.2657C219.758 13.8908 220.106 14.377 220.592 14.7937C221.078 15.2104 221.634 15.5577 222.259 15.8355C222.953 16.1134 223.648 16.1828 224.342 16.1828Z" fill="white"/>
<path d="M242.192 0H238.789L234.899 6.73722H238.303L242.192 0Z" fill="white"/>
<path d="M238.789 0H242.192L246.012 6.73722H242.679L238.789 0Z" fill="white"/>
<path d="M10.4893 32.7949V45.0016H8.58522V34.869H4.98104C4.9357 36.6258 4.82803 38.1445 4.65802 39.4253C4.48801 40.706 4.24433 41.7657 3.92698 42.6044C3.60963 43.4431 3.21295 44.0665 2.73692 44.4745C2.27223 44.8712 1.71687 45.0696 1.07083 45.0696C0.946161 45.0696 0.821488 45.0582 0.696815 45.0356C0.572142 45.0129 0.470136 44.9846 0.390799 44.9506L0.0507812 43.1825C0.390799 43.1598 0.702482 43.0975 0.98583 42.9955C1.26918 42.8821 1.51852 42.6951 1.73387 42.4344C1.96055 42.1624 2.15889 41.7941 2.3289 41.3294C2.49891 40.8533 2.64058 40.2356 2.75392 39.4763C2.86726 38.7056 2.95227 37.7762 3.00893 36.6881C3.07694 35.6001 3.11661 34.3023 3.12794 32.7949H10.4893Z" fill="white"/>
<path d="M15.1663 36.3821V41.9584L19.3825 36.3821H21.2356V45.0016H19.3825V39.4253L15.1663 45.0016H13.3132V36.3821H15.1663Z" fill="white"/>
<path d="M23.9051 43.0295C24.3132 42.4174 24.6815 41.624 25.0102 40.6493C25.3389 39.6633 25.5032 38.4789 25.5032 37.0961V36.3821H31.5045V43.0295H32.8136V47.2967H31.0285V45.0016H24.8232V47.2967H23.0381V43.0295H23.9051ZM29.6514 43.0295V38.3542H27.2033C27.1126 39.4309 26.937 40.3716 26.6763 41.1764C26.4269 41.9811 26.1719 42.5988 25.9112 43.0295H29.6514Z" fill="white"/>
<path d="M38.8093 43.3185C39.3534 43.3185 39.8691 43.2108 40.3564 42.9955C40.8551 42.7688 41.2235 42.5024 41.4615 42.1964L42.0055 43.6415C41.8922 43.8455 41.7335 44.0438 41.5295 44.2365C41.3255 44.4292 41.0818 44.5992 40.7984 44.7465C40.5151 44.8939 40.1977 45.0072 39.8464 45.0866C39.5064 45.1772 39.138 45.2226 38.7413 45.2226C38.0953 45.2226 37.4946 45.1206 36.9392 44.9165C36.3839 44.7012 35.9022 44.4009 35.4942 44.0155C35.0861 43.6188 34.7688 43.1428 34.5421 42.5874C34.3154 42.0207 34.2021 41.3917 34.2021 40.7003C34.2021 40.0883 34.2984 39.5103 34.4911 38.9662C34.6951 38.4222 34.9841 37.9405 35.3582 37.5212C35.7322 37.1018 36.1855 36.7731 36.7182 36.5351C37.2509 36.2858 37.8516 36.1611 38.5203 36.1611C39.1437 36.1611 39.7104 36.2858 40.2204 36.5351C40.7304 36.7731 41.1611 37.1018 41.5125 37.5212C41.8752 37.9292 42.1528 38.4109 42.3455 38.9662C42.5382 39.5103 42.6345 40.0826 42.6345 40.6833C42.6345 40.9327 42.6175 41.1594 42.5835 41.3634H36.0892C36.1799 42.0321 36.4689 42.5251 36.9562 42.8424C37.4436 43.1598 38.0613 43.3185 38.8093 43.3185ZM40.6964 39.6973C40.6398 39.2099 40.4018 38.8189 39.9824 38.5242C39.5744 38.2295 39.087 38.0822 38.5203 38.0822C38.2256 38.0822 37.948 38.1219 37.6873 38.2012C37.4266 38.2805 37.1886 38.3939 36.9732 38.5412C36.7692 38.6772 36.5936 38.8472 36.4462 39.0512C36.3102 39.2439 36.2195 39.4593 36.1742 39.6973H40.6964Z" fill="white"/>
<path d="M53.191 38.8642C53.429 39.4196 53.548 40.0316 53.548 40.7003C53.548 41.369 53.429 41.9811 53.191 42.5364C52.953 43.0918 52.63 43.5678 52.222 43.9645C51.814 44.3612 51.3436 44.6729 50.8109 44.8995C50.2895 45.1149 49.7398 45.2226 49.1618 45.2226C48.5158 45.2226 47.9604 45.1149 47.4957 44.8995C47.031 44.6842 46.7307 44.4122 46.5947 44.0835V48.6227H44.7416V36.3821H46.5267V37.3002C46.674 36.9715 46.98 36.6995 47.4447 36.4841C47.9207 36.2688 48.4818 36.1611 49.1278 36.1611C49.7172 36.1611 50.2782 36.2744 50.8109 36.5011C51.3436 36.7165 51.814 37.0281 52.222 37.4362C52.63 37.8328 52.953 38.3089 53.191 38.8642ZM51.6779 40.6833C51.6779 39.9126 51.4286 39.2949 50.9299 38.8302C50.4425 38.3655 49.7965 38.1332 48.9918 38.1332C48.7085 38.1332 48.4364 38.1672 48.1758 38.2352C47.9151 38.3032 47.6771 38.3939 47.4617 38.5072C47.2577 38.6206 47.0764 38.7566 46.9177 38.9152C46.7704 39.0739 46.6627 39.2439 46.5947 39.4253V41.9754C46.6627 42.1567 46.7704 42.3267 46.9177 42.4854C47.0764 42.6441 47.2577 42.7801 47.4617 42.8934C47.6771 43.0068 47.9151 43.0975 48.1758 43.1655C48.4364 43.2221 48.7085 43.2505 48.9918 43.2505C49.7965 43.2505 50.4425 43.0181 50.9299 42.5534C51.4286 42.0887 51.6779 41.4654 51.6779 40.6833Z" fill="white"/>
<path d="M60.6816 41.9244C60.5683 41.7204 60.3303 41.5617 59.9676 41.4484C59.6162 41.335 59.2252 41.2784 58.7945 41.2784C58.1938 41.2784 57.7292 41.3747 57.4005 41.5674C57.0831 41.7487 56.9244 42.0037 56.9244 42.3324C56.9244 42.6498 57.0831 42.9048 57.4005 43.0975C57.7292 43.2901 58.1938 43.3865 58.7945 43.3865C59.2139 43.3865 59.5993 43.3071 59.9506 43.1485C60.3133 42.9898 60.557 42.7914 60.6816 42.5534V41.9244ZM55.4964 37.6912C55.8137 37.2152 56.2671 36.8411 56.8564 36.5691C57.4571 36.2971 58.0975 36.1611 58.7775 36.1611C59.9109 36.1611 60.8176 36.4558 61.4977 37.0451C62.1891 37.6232 62.5347 38.4562 62.5347 39.5443V45.0016H60.7496V44.2535C60.6476 44.4009 60.506 44.5369 60.3246 44.6615C60.1433 44.7749 59.9393 44.8769 59.7126 44.9676C59.4972 45.0469 59.2706 45.1092 59.0326 45.1546C58.7945 45.1999 58.5565 45.2226 58.3185 45.2226C57.8425 45.2226 57.4005 45.1546 56.9924 45.0186C56.5958 44.8939 56.2501 44.7125 55.9554 44.4745C55.672 44.2252 55.451 43.9305 55.2924 43.5905C55.1337 43.2391 55.0543 42.8424 55.0543 42.4004C55.0543 41.9471 55.145 41.5504 55.3264 41.2104C55.5077 40.859 55.7514 40.5643 56.0574 40.3263C56.3747 40.0883 56.7374 39.9126 57.1455 39.7993C57.5648 39.6746 58.0068 39.6123 58.4715 39.6123C58.9475 39.6123 59.3839 39.6689 59.7806 39.7823C60.1886 39.8956 60.489 40.0486 60.6816 40.2413V39.8843C60.6816 39.5669 60.6193 39.2949 60.4946 39.0682C60.3813 38.8416 60.2283 38.6602 60.0356 38.5242C59.8429 38.3769 59.6162 38.2749 59.3556 38.2182C59.0949 38.1502 58.8229 38.1162 58.5395 38.1162C58.0068 38.1162 57.5081 38.2182 57.0434 38.4222C56.5901 38.6149 56.2331 38.8869 55.9724 39.2383L55.4964 37.6912Z" fill="white"/>
<path d="M72.8648 36.3821H74.7178L76.0609 45.0016H74.2248L73.3748 39.8843L71.1817 45.0016H69.6006L67.4245 39.8673L66.5574 45.0016H64.6703L66.0134 36.3821H67.7645L70.3146 42.2984L72.8648 36.3821Z" fill="white"/>
<path d="M80.1648 36.3821V41.9584L84.381 36.3821H86.2341V45.0016H84.381V39.4253L80.1648 45.0016H78.3117V36.3821H80.1648Z" fill="white"/>
<path d="M100.66 43.7095C100.547 43.9135 100.388 44.1062 100.184 44.2875C99.9802 44.4689 99.7366 44.6275 99.4532 44.7635C99.1812 44.8995 98.8695 45.0072 98.5182 45.0866C98.1781 45.1772 97.8098 45.2226 97.4131 45.2226C96.8124 45.2226 96.24 45.1149 95.696 44.8995C95.1633 44.6729 94.6873 44.3612 94.2679 43.9645C93.8599 43.5678 93.5312 43.0918 93.2819 42.5364C93.0439 41.9811 92.9249 41.3634 92.9249 40.6833C92.9249 40.0033 93.0439 39.3856 93.2819 38.8302C93.5312 38.2749 93.8599 37.7988 94.2679 37.4022C94.6873 37.0055 95.1633 36.6995 95.696 36.4841C96.24 36.2688 96.8124 36.1611 97.4131 36.1611C98.1838 36.1611 98.8525 36.3084 99.4192 36.6031C99.9859 36.8978 100.377 37.2435 100.592 37.6402L100.082 39.1703C99.8556 38.8982 99.5269 38.6602 99.0962 38.4562C98.6655 38.2409 98.1951 38.1332 97.6851 38.1332C96.8124 38.1332 96.1097 38.3655 95.577 38.8302C95.0556 39.2949 94.795 39.9126 94.795 40.6833C94.795 41.454 95.0556 42.0774 95.577 42.5534C96.1097 43.0181 96.8124 43.2505 97.6851 43.2505C98.2291 43.2505 98.7108 43.1428 99.1302 42.9274C99.5495 42.7008 99.8782 42.4514 100.116 42.1794L100.66 43.7095Z" fill="white"/>
<path d="M109.346 38.3542H106.592V45.0016H104.739V38.3542H101.968V36.3821H109.346V38.3542Z" fill="white"/>
<path d="M116.267 41.9244C116.153 41.7204 115.915 41.5617 115.553 41.4484C115.201 41.335 114.81 41.2784 114.379 41.2784C113.779 41.2784 113.314 41.3747 112.985 41.5674C112.668 41.7487 112.509 42.0037 112.509 42.3324C112.509 42.6498 112.668 42.9048 112.985 43.0975C113.314 43.2901 113.779 43.3865 114.379 43.3865C114.799 43.3865 115.184 43.3071 115.536 43.1485C115.898 42.9898 116.142 42.7914 116.267 42.5534V41.9244ZM111.081 37.6912C111.399 37.2152 111.852 36.8411 112.441 36.5691C113.042 36.2971 113.682 36.1611 114.362 36.1611C115.496 36.1611 116.403 36.4558 117.083 37.0451C117.774 37.6232 118.12 38.4562 118.12 39.5443V45.0016H116.335V44.2535C116.233 44.4009 116.091 44.5369 115.91 44.6615C115.728 44.7749 115.524 44.8769 115.297 44.9676C115.082 45.0469 114.855 45.1092 114.617 45.1546C114.379 45.1999 114.141 45.2226 113.903 45.2226C113.427 45.2226 112.985 45.1546 112.577 45.0186C112.181 44.8939 111.835 44.7125 111.54 44.4745C111.257 44.2252 111.036 43.9305 110.877 43.5905C110.719 43.2391 110.639 42.8424 110.639 42.4004C110.639 41.9471 110.73 41.5504 110.911 41.2104C111.093 40.859 111.336 40.5643 111.642 40.3263C111.96 40.0883 112.322 39.9126 112.73 39.7993C113.15 39.6746 113.592 39.6123 114.056 39.6123C114.532 39.6123 114.969 39.6689 115.366 39.7823C115.774 39.8956 116.074 40.0486 116.267 40.2413V39.8843C116.267 39.5669 116.204 39.2949 116.08 39.0682C115.966 38.8416 115.813 38.6602 115.621 38.5242C115.428 38.3769 115.201 38.2749 114.94 38.2182C114.68 38.1502 114.408 38.1162 114.124 38.1162C113.592 38.1162 113.093 38.2182 112.628 38.4222C112.175 38.6149 111.818 38.8869 111.557 39.2383L111.081 37.6912Z" fill="white"/>
<path d="M122.567 36.3821V39.5783H126.716V36.3821H128.569V45.0016H126.716V41.5504H122.567V45.0016H120.714V36.3821H122.567Z" fill="white"/>
<path d="M139.23 38.8982C139.468 39.4536 139.587 40.0543 139.587 40.7003C139.587 41.3464 139.468 41.9471 139.23 42.5024C138.992 43.0578 138.669 43.5395 138.261 43.9475C137.853 44.3442 137.377 44.6559 136.833 44.8825C136.3 45.1092 135.734 45.2226 135.133 45.2226C134.532 45.2226 133.96 45.1092 133.416 44.8825C132.883 44.6559 132.413 44.3442 132.005 43.9475C131.597 43.5395 131.274 43.0578 131.036 42.5024C130.798 41.9471 130.679 41.3464 130.679 40.7003C130.679 40.0543 130.798 39.4536 131.036 38.8982C131.274 38.3429 131.597 37.8612 132.005 37.4532C132.413 37.0451 132.883 36.7278 133.416 36.5011C133.96 36.2744 134.532 36.1611 135.133 36.1611C135.734 36.1611 136.3 36.2744 136.833 36.5011C137.377 36.7278 137.853 37.0451 138.261 37.4532C138.669 37.8612 138.992 38.3429 139.23 38.8982ZM132.532 40.7003C132.532 41.0857 132.6 41.437 132.736 41.7544C132.872 42.0604 133.053 42.3267 133.28 42.5534C133.518 42.7688 133.796 42.9388 134.113 43.0635C134.43 43.1881 134.77 43.2505 135.133 43.2505C135.496 43.2505 135.836 43.1881 136.153 43.0635C136.47 42.9388 136.742 42.7688 136.969 42.5534C137.207 42.3267 137.388 42.0604 137.513 41.7544C137.649 41.437 137.717 41.0914 137.717 40.7173C137.717 40.332 137.649 39.9806 137.513 39.6633C137.388 39.3459 137.207 39.0739 136.969 38.8472C136.742 38.6206 136.47 38.4449 136.153 38.3202C135.836 38.1955 135.496 38.1332 135.133 38.1332C134.77 38.1332 134.43 38.1955 134.113 38.3202C133.796 38.4449 133.518 38.6206 133.28 38.8472C133.053 39.0739 132.872 39.3459 132.736 39.6633C132.6 39.9806 132.532 40.3263 132.532 40.7003Z" fill="white"/>
<path d="M144.998 36.3821C145.429 36.3821 145.825 36.4331 146.188 36.5351C146.551 36.6371 146.862 36.7901 147.123 36.9941C147.395 37.1982 147.605 37.4532 147.752 37.7592C147.911 38.0539 147.99 38.3939 147.99 38.7792C147.99 39.1419 147.933 39.4536 147.82 39.7143C147.718 39.9636 147.542 40.2016 147.293 40.4283C147.656 40.621 147.933 40.8817 148.126 41.2104C148.33 41.539 148.432 41.9527 148.432 42.4514C148.432 42.8481 148.347 43.2051 148.177 43.5225C148.018 43.8285 147.797 44.0948 147.514 44.3215C147.242 44.5369 146.919 44.7069 146.545 44.8315C146.171 44.9449 145.774 45.0016 145.355 45.0016H141.7V36.3821H144.998ZM145.661 43.1825C145.922 43.1825 146.137 43.1088 146.307 42.9614C146.488 42.8028 146.579 42.5931 146.579 42.3324C146.579 42.0944 146.488 41.9017 146.307 41.7544C146.137 41.5957 145.916 41.5164 145.644 41.5164H143.502V43.1825H145.661ZM145.253 39.8333C145.525 39.8333 145.74 39.7596 145.899 39.6123C146.069 39.4536 146.154 39.2609 146.154 39.0342C146.154 38.7736 146.069 38.5696 145.899 38.4222C145.729 38.2749 145.514 38.2012 145.253 38.2012H143.502V39.8333H145.253Z" fill="white"/>
<path d="M156.652 36.3821V45.0016H154.799V42.3834H153.694L151.909 45.0016H149.783L151.773 42.0944C151.251 41.8451 150.837 41.4937 150.531 41.0403C150.237 40.5757 150.089 40.026 150.089 39.3913C150.089 38.9379 150.169 38.5242 150.327 38.1502C150.497 37.7762 150.724 37.4588 151.007 37.1982C151.302 36.9375 151.648 36.7391 152.045 36.6031C152.441 36.4558 152.866 36.3821 153.32 36.3821H156.652ZM153.099 38.3032C152.736 38.3032 152.447 38.4109 152.232 38.6262C152.028 38.8302 151.926 39.0966 151.926 39.4253C151.926 39.7653 152.033 40.0316 152.249 40.2243C152.475 40.4056 152.759 40.4963 153.099 40.4963H154.799V38.3032H153.099Z" fill="white"/>
<path d="M165.911 38.3542H163.157V45.0016H161.304V38.3542H158.532V36.3821H165.911V38.3542Z" fill="white"/>
<path d="M174.823 43.7095C174.71 43.9135 174.551 44.1062 174.347 44.2875C174.143 44.4689 173.9 44.6275 173.616 44.7635C173.344 44.8995 173.033 45.0072 172.681 45.0866C172.341 45.1772 171.973 45.2226 171.576 45.2226C170.975 45.2226 170.403 45.1149 169.859 44.8995C169.326 44.6729 168.85 44.3612 168.431 43.9645C168.023 43.5678 167.694 43.0918 167.445 42.5364C167.207 41.9811 167.088 41.3634 167.088 40.6833C167.088 40.0033 167.207 39.3856 167.445 38.8302C167.694 38.2749 168.023 37.7988 168.431 37.4022C168.85 37.0055 169.326 36.6995 169.859 36.4841C170.403 36.2688 170.975 36.1611 171.576 36.1611C172.347 36.1611 173.016 36.3084 173.582 36.6031C174.149 36.8978 174.54 37.2435 174.755 37.6402L174.245 39.1703C174.019 38.8982 173.69 38.6602 173.259 38.4562C172.829 38.2409 172.358 38.1332 171.848 38.1332C170.975 38.1332 170.273 38.3655 169.74 38.8302C169.219 39.2949 168.958 39.9126 168.958 40.6833C168.958 41.454 169.219 42.0774 169.74 42.5534C170.273 43.0181 170.975 43.2505 171.848 43.2505C172.392 43.2505 172.874 43.1428 173.293 42.9274C173.713 42.7008 174.041 42.4514 174.279 42.1794L174.823 43.7095Z" fill="white"/>
<path d="M183.016 36.3821V45.0016H181.163V42.3834H180.058L178.273 45.0016H176.148L178.137 42.0944C177.616 41.8451 177.202 41.4937 176.896 41.0403C176.601 40.5757 176.454 40.026 176.454 39.3913C176.454 38.9379 176.533 38.5242 176.692 38.1502C176.862 37.7762 177.089 37.4588 177.372 37.1982C177.667 36.9375 178.012 36.7391 178.409 36.6031C178.806 36.4558 179.231 36.3821 179.684 36.3821H183.016ZM179.463 38.3032C179.101 38.3032 178.812 38.4109 178.596 38.6262C178.392 38.8302 178.29 39.0966 178.29 39.4253C178.29 39.7653 178.398 40.0316 178.613 40.2243C178.84 40.4056 179.123 40.4963 179.463 40.4963H181.163V38.3032H179.463Z" fill="white"/>
</g>
<defs>
<clipPath id="clip0">
<rect width="246.013" height="47.23" fill="white"/>
</clipPath>
</defs>
</svg>
