<svg width="246" height="48" viewBox="0 0 246 48" fill="none" xmlns="http://www.w3.org/2000/svg">
<g clip-path="url(#clip0)">
<path d="M15.6961 2.84766V19.6551H11.529V7.2926H4.23647V19.7246H0.0693359V2.84766H15.6961Z" fill="white"/>
<path d="M36.4624 7.6397C36.9485 8.75094 37.1569 9.93163 37.1569 11.2512C37.1569 12.5708 36.9485 13.7515 36.4624 14.8627C35.9762 15.974 35.3511 16.8769 34.5871 17.6408C33.8232 18.4048 32.9203 19.0299 31.8785 19.4466C30.8367 19.8633 29.7949 20.0717 28.6837 20.0717C27.4336 20.0717 26.3918 19.8633 25.4889 19.4466C24.586 19.0299 24.0304 18.4743 23.7526 17.8492V26.5307H19.5854V2.84749H23.6137V4.5838C23.8915 3.95873 24.5166 3.40311 25.4194 2.9864C26.3223 2.56969 27.3641 2.36133 28.6142 2.36133C29.7255 2.36133 30.8367 2.56969 31.8785 2.9864C32.9203 3.47256 33.8232 4.09764 34.5871 4.86161C35.3511 5.62559 36.0456 6.59792 36.4624 7.6397ZM32.6425 13.057C32.8508 12.5014 32.9897 11.8763 32.9897 11.2512C32.9897 10.6262 32.8508 10.0011 32.6425 9.44546C32.4341 8.88984 32.0869 8.40368 31.6701 8.05642C31.2534 7.6397 30.7673 7.36189 30.1422 7.15354C29.5171 6.94518 28.8921 6.80627 28.1975 6.80627C27.1557 6.80627 26.2529 7.01463 25.4194 7.43134C24.586 7.84806 24.0998 8.40368 23.822 9.02875V13.4737C24.0998 14.0988 24.586 14.6544 25.4194 15.0711C26.2529 15.4878 27.1557 15.6962 28.1975 15.6962C28.8921 15.6962 29.5866 15.5573 30.1422 15.3489C30.7673 15.1405 31.2534 14.7933 31.6701 14.446C32.0869 14.0988 32.4341 13.6126 32.6425 13.057Z" fill="white"/>
<path d="M44.2412 2.84766V12.9182L51.881 2.84766H56.0481V19.6551H51.9504V9.58453L44.3107 19.6551H40.1436V2.84766H44.2412Z" fill="white"/>
<path d="M76.6753 11.2513C76.6753 12.5015 76.4669 13.6822 75.9808 14.7934C75.4946 15.9046 74.8695 16.8075 74.0361 17.5715C73.2027 18.3355 72.2998 18.9605 71.1886 19.4467C70.1468 19.8634 68.9661 20.1412 67.7854 20.1412C66.6047 20.1412 65.424 19.9329 64.3822 19.4467C63.3404 19.03 62.3681 18.4049 61.5347 17.5715C60.7013 16.7381 60.0762 15.8352 59.59 14.7934C59.1039 13.6822 58.8955 12.5015 58.8955 11.2513C58.8955 10.0012 59.1039 8.82051 59.59 7.70927C60.0762 6.59803 60.7013 5.69515 61.5347 4.86173C62.3681 4.09775 63.271 3.47268 64.3822 2.98652C65.424 2.5698 66.6047 2.29199 67.7854 2.29199C68.9661 2.29199 70.1468 2.50035 71.1886 2.98652C72.2303 3.40323 73.2027 4.0283 74.0361 4.86173C74.8695 5.6257 75.4946 6.59803 75.9808 7.70927C76.3975 8.82051 76.6753 10.0012 76.6753 11.2513ZM63.4099 9.44558C63.2015 10.0012 63.0626 10.6263 63.0626 11.2513C63.0626 11.8764 63.2015 12.5015 63.4099 13.0571C63.6183 13.6127 63.9655 14.0989 64.3822 14.4461C64.7989 14.8629 65.2851 15.1407 65.9102 15.349C66.4658 15.5574 67.0909 15.6963 67.7854 15.6963C68.4105 15.6963 69.0355 15.5574 69.5912 15.349C70.1468 15.1407 70.6329 14.7934 71.0497 14.4461C71.4664 14.0294 71.8136 13.6127 72.0914 13.0571C72.3692 12.5015 72.4387 11.9459 72.4387 11.2513C72.4387 10.6263 72.2998 10.0012 72.0914 9.44558C71.8136 8.88996 71.5358 8.40379 71.0497 8.05653C70.6329 7.63982 70.1468 7.36201 69.5912 7.15365C69.0355 6.9453 68.4105 6.80639 67.7854 6.80639C67.1603 6.80639 66.5353 6.9453 65.9102 7.15365C65.3546 7.36201 64.7989 7.70927 64.3822 8.05653C64.035 8.40379 63.6877 8.88996 63.4099 9.44558Z" fill="white"/>
<path d="M96.3994 7.6397C96.8855 8.75094 97.0939 9.93163 97.0939 11.2512C97.0939 12.5708 96.8855 13.7515 96.3994 14.8627C95.9132 15.974 95.2881 16.8769 94.5242 17.6408C93.7602 18.4048 92.8573 19.0299 91.8155 19.4466C90.7737 19.8633 89.732 20.0717 88.6207 20.0717C87.3706 20.0717 86.3288 19.8633 85.4259 19.4466C84.523 19.0299 83.9674 18.4743 83.6896 17.8492V26.5307H79.5225V2.84749H83.5507V4.5838C83.8285 3.95873 84.4536 3.40311 85.3565 2.9864C86.2593 2.56969 87.3011 2.36133 88.5513 2.36133C89.6625 2.36133 90.7737 2.56969 91.8155 2.9864C92.8573 3.40311 93.7602 4.02818 94.5242 4.79216C95.2881 5.55613 95.9132 6.59792 96.3994 7.6397ZM92.5795 13.057C92.7879 12.5014 92.9268 11.8763 92.9268 11.2512C92.9268 10.6262 92.7879 10.0011 92.5795 9.44546C92.3711 8.88984 92.0239 8.40368 91.6072 8.05642C91.1904 7.6397 90.7043 7.36189 90.0792 7.15354C89.4541 6.94518 88.8291 6.80627 88.1346 6.80627C87.0928 6.80627 86.1899 7.01463 85.3565 7.43134C84.523 7.84806 84.0369 8.40368 83.7591 9.02875V13.4737C84.0369 14.0988 84.523 14.6544 85.3565 15.0711C86.1899 15.4878 87.0928 15.6962 88.1346 15.6962C88.8291 15.6962 89.5236 15.5573 90.0792 15.3489C90.7043 15.1405 91.1904 14.7933 91.6072 14.446C91.9544 14.0988 92.3017 13.6126 92.5795 13.057Z" fill="white"/>
<path d="M104.109 2.84766V12.9182L111.749 2.84766H115.916V19.6551H111.818V9.58453L104.178 19.6551H100.011V2.84766H104.109Z" fill="white"/>
<path d="M133.14 7.2926H127.931V19.7246H123.764V7.2926H118.555V2.84766H133.071V7.2926H133.14Z" fill="white"/>
<path d="M144.113 15.9739C145.155 15.9739 146.128 15.7655 147.1 15.4182C148.072 15.071 148.767 14.5154 149.253 13.8903L150.503 17.0851C149.947 17.988 149.114 18.6825 148.003 19.2381C146.892 19.7937 145.503 20.141 143.905 20.141C142.655 20.141 141.405 19.9326 140.363 19.5159C139.321 19.0992 138.28 18.5436 137.516 17.7796C136.682 17.0156 136.057 16.1128 135.64 15.0015C135.154 13.8903 134.946 12.7096 134.946 11.3206C134.946 10.1399 135.154 8.95918 135.571 7.91739C135.988 6.87561 136.543 5.90328 137.307 5.06985C138.071 4.23642 138.974 3.61135 140.016 3.12519C141.058 2.63902 142.238 2.43066 143.558 2.43066C144.808 2.43066 145.919 2.70847 146.961 3.19464C148.003 3.68081 148.836 4.30588 149.531 5.1393C150.225 5.97273 150.781 6.87561 151.198 7.98685C151.614 9.02863 151.753 10.1399 151.753 11.3206C151.753 11.5289 151.753 11.8067 151.753 12.0845C151.753 12.3623 151.684 12.5707 151.684 12.7791H139.182C139.391 13.8903 139.946 14.7237 140.78 15.2099C141.752 15.6961 142.863 15.9739 144.113 15.9739ZM147.586 9.37589C147.447 8.47301 147.03 7.77849 146.267 7.36178C145.503 6.87561 144.669 6.66725 143.627 6.66725C142.586 6.66725 141.683 6.87561 140.919 7.36178C140.085 7.84794 139.599 8.54247 139.46 9.37589H147.586Z" fill="white"/>
<path d="M168.213 7.2926H163.004V19.7246H158.837V7.2926H153.628V2.84766H168.144V7.2926H168.213Z" fill="white"/>
<path d="M176.27 6.31999C175.853 6.31999 175.506 6.38944 175.159 6.52835C174.811 6.66725 174.534 6.80616 174.186 7.01452C173.909 7.22287 173.631 7.43123 173.422 7.70904C173.214 7.98685 173.006 8.26466 172.797 8.54247L171.339 5.97273C171.478 5.48656 171.686 5.0004 171.964 4.58368C172.242 4.16697 172.658 3.75026 173.075 3.47245C173.492 3.12519 174.048 2.91683 174.603 2.70847C175.159 2.50012 175.784 2.43066 176.478 2.43066C177.381 2.43066 178.145 2.56957 178.77 2.84738C179.465 3.12519 180.02 3.47245 180.437 3.95861C180.923 4.44478 181.271 5.0004 181.479 5.62547C181.826 6.25054 181.965 6.87561 181.965 7.63959C181.965 8.26466 181.896 8.82027 181.757 9.30644C181.618 9.79261 181.409 10.2788 181.132 10.7649C180.854 11.2511 180.507 11.7373 180.09 12.2234C179.673 12.7096 179.187 13.2652 178.701 13.8903L177.034 15.7655H182.312V19.5854H171.478V16.6684L176.27 11.4595C176.617 11.1122 176.895 10.7649 177.173 10.4871C177.451 10.2093 177.659 9.93151 177.798 9.6537C177.937 9.37589 178.076 9.16754 178.145 8.88973C178.215 8.68137 178.284 8.40356 178.284 8.0563C178.284 7.57013 178.076 7.15342 177.728 6.80616C177.381 6.4589 176.895 6.31999 176.27 6.31999Z" fill="white"/>
<path d="M189.466 3.12556C190.508 2.70885 191.688 2.50049 192.869 2.50049C194.05 2.50049 195.23 2.70885 196.272 3.12556C197.314 3.54227 198.286 4.16734 199.12 4.93132C199.953 5.69529 200.578 6.66763 201.064 7.70941C201.55 8.82065 201.759 10.0013 201.759 11.2515C201.759 12.5711 201.55 13.7518 201.064 14.7935C200.578 15.9048 199.953 16.8077 199.12 17.5716C198.286 18.3356 197.383 18.9607 196.272 19.3774C195.161 19.7941 194.05 20.0025 192.869 20.0025C191.688 20.0025 190.508 19.7941 189.466 19.3774C188.354 18.9607 187.452 18.3356 186.618 17.5716C185.785 16.8077 185.16 15.8353 184.674 14.7935C184.187 13.7518 183.979 12.5016 183.979 11.2515C183.979 9.93188 184.187 8.75119 184.674 7.70941C185.16 6.59817 185.785 5.69529 186.618 4.93132C187.452 4.09789 188.424 3.54227 189.466 3.12556ZM192.869 16.1826C193.563 16.1826 194.258 16.0437 194.883 15.8353C195.508 15.5575 196.064 15.2797 196.55 14.7935C197.036 14.3768 197.383 13.8212 197.661 13.2656C197.939 12.6405 198.078 12.0155 198.078 11.2515C198.078 10.557 197.939 9.86243 197.661 9.23736C197.383 8.61229 197.036 8.12612 196.55 7.63996C196.064 7.22324 195.508 6.87598 194.883 6.59817C194.258 6.32036 193.563 6.25091 192.869 6.25091C192.105 6.25091 191.48 6.38982 190.785 6.59817C190.16 6.87598 189.605 7.15379 189.118 7.63996C188.632 8.05667 188.285 8.61229 188.007 9.23736C187.729 9.86243 187.591 10.4875 187.591 11.2515C187.591 12.0155 187.729 12.6405 188.007 13.2656C188.285 13.8907 188.632 14.3768 189.118 14.7935C189.605 15.2103 190.16 15.5575 190.785 15.8353C191.48 16.1131 192.105 16.1826 192.869 16.1826Z" fill="white"/>
<path d="M207.662 16.2519C208.426 16.2519 209.051 16.0436 209.468 15.6963C209.954 15.3491 210.162 14.8629 210.162 14.2378C210.162 13.6822 209.954 13.2655 209.537 12.9182C209.121 12.571 208.565 12.4321 207.87 12.4321C207.384 12.4321 206.968 12.5015 206.62 12.571C206.273 12.7099 205.995 12.7793 205.856 12.9182L205.301 10.2791L208.218 6.66753H203.564V2.84766H213.01V5.62575L210.162 9.16781C210.579 9.23727 210.996 9.44562 211.412 9.65398C211.829 9.86234 212.246 10.2096 212.663 10.6263C213.079 11.043 213.357 11.5292 213.566 12.1543C213.774 12.7793 213.913 13.4739 213.913 14.3767C213.913 15.2102 213.774 15.9047 213.496 16.5992C213.218 17.2937 212.802 17.9188 212.246 18.4744C211.69 19.03 211.065 19.4468 210.301 19.7246C209.537 20.0024 208.704 20.2107 207.732 20.2107C207.037 20.2107 206.412 20.1413 205.856 20.0024C205.301 19.8635 204.815 19.6551 204.398 19.3773C203.981 19.0995 203.634 18.8217 203.356 18.5439C203.078 18.1966 202.87 17.9188 202.731 17.5715L203.564 14.4462C204.051 15.0018 204.606 15.4185 205.231 15.8352C205.717 16.0436 206.62 16.2519 207.662 16.2519Z" fill="white"/>
<path d="M220.928 3.12556C221.969 2.70885 223.15 2.50049 224.331 2.50049C225.511 2.50049 226.692 2.70885 227.734 3.12556C228.776 3.54227 229.748 4.16734 230.582 4.93132C231.415 5.69529 232.04 6.66763 232.526 7.70941C233.012 8.82065 233.221 10.0013 233.221 11.2515C233.221 12.5711 233.012 13.7518 232.526 14.7935C232.04 15.9048 231.415 16.8077 230.582 17.5716C229.748 18.3356 228.845 18.9607 227.734 19.3774C226.623 19.7941 225.511 20.0025 224.331 20.0025C223.15 20.0025 221.969 19.7941 220.928 19.3774C219.816 18.9607 218.914 18.3356 218.08 17.5716C217.247 16.8077 216.622 15.8353 216.135 14.7935C215.649 13.7518 215.441 12.5016 215.441 11.2515C215.441 9.93188 215.649 8.75119 216.135 7.70941C216.622 6.59817 217.247 5.69529 218.08 4.93132C218.914 4.09789 219.886 3.54227 220.928 3.12556ZM224.331 16.1826C225.025 16.1826 225.72 16.0437 226.345 15.8353C226.97 15.5575 227.526 15.2797 228.012 14.7935C228.498 14.3768 228.845 13.8212 229.123 13.2656C229.401 12.6405 229.54 12.0155 229.54 11.2515C229.54 10.557 229.401 9.86243 229.123 9.23736C228.845 8.61229 228.498 8.12612 228.012 7.63996C227.526 7.22324 226.97 6.87598 226.345 6.59817C225.72 6.32036 225.025 6.25091 224.331 6.25091C223.567 6.25091 222.942 6.38982 222.247 6.59817C221.622 6.87598 221.067 7.15379 220.58 7.63996C220.094 8.05667 219.747 8.61229 219.469 9.23736C219.191 9.86243 219.052 10.4875 219.052 11.2515C219.052 12.0155 219.191 12.6405 219.469 13.2656C219.747 13.8907 220.094 14.3768 220.58 14.7935C221.067 15.2103 221.622 15.5575 222.247 15.8353C222.942 16.1131 223.636 16.1826 224.331 16.1826Z" fill="white"/>
<path d="M242.18 0H238.777L234.888 6.73687H238.291L242.18 0Z" fill="white"/>
<path d="M238.777 0H242.181L246 6.73687H242.667L238.777 0Z" fill="white"/>
<path d="M11.0429 42.7829C10.6957 43.4775 10.0706 44.0331 9.23715 44.4498C8.40373 44.8665 7.43139 45.1443 6.25071 45.1443C5.41728 45.1443 4.58385 45.0054 3.81988 44.6582C3.0559 44.3109 2.36138 43.8942 1.80576 43.3386C1.25014 42.7829 0.763975 42.0884 0.416714 41.255C0.138905 40.4216 0 39.5881 0 38.6158C0 37.6435 0.138905 36.7406 0.486166 35.9766C0.833427 35.2126 1.25014 34.5181 1.87521 33.9625C2.43083 33.4069 3.12535 32.9902 3.88933 32.6429C4.6533 32.2956 5.41728 32.1567 6.32016 32.1567C6.87578 32.1567 7.43139 32.2262 7.91756 32.3651C8.40373 32.504 8.88989 32.6429 9.23715 32.8513C9.58442 33.0596 10.0011 33.3374 10.2789 33.5458C10.5567 33.8236 10.8346 34.1014 10.9735 34.3792L10.3484 36.1155C10.14 35.8377 9.93168 35.6294 9.65387 35.3515C9.37606 35.0737 9.09825 34.9348 8.75099 34.7265C8.40373 34.5181 8.05647 34.4487 7.63975 34.3098C7.22304 34.2403 6.80632 34.1709 6.38961 34.1709C5.76454 34.1709 5.13947 34.2403 4.58385 34.4487C4.02823 34.657 3.61152 34.9348 3.19481 35.2821C2.77809 35.6294 2.50028 36.1155 2.29193 36.6711C2.08357 37.2268 1.94466 37.8518 1.94466 38.4769C1.94466 39.1714 2.08357 39.727 2.29193 40.2827C2.50028 40.8383 2.77809 41.255 3.19481 41.6717C3.61152 42.019 4.02823 42.3662 4.58385 42.5746C5.13947 42.7829 5.69509 42.8524 6.38961 42.8524C7.36194 42.8524 8.19537 42.644 8.82044 42.2968C9.51496 41.8801 10.0011 41.4633 10.4178 40.9077L11.0429 42.7829Z" fill="white"/>
<path d="M19.4466 38.0595H16.6686V44.9353H14.7933V38.0595H11.9458V36.0454H19.4466V38.0595Z" fill="white"/>
<path d="M25.2112 43.13C25.7668 43.13 26.3224 42.9911 26.8086 42.7827C27.2947 42.5744 27.7114 42.2966 27.9198 41.9493L28.4754 43.4078C28.3365 43.6162 28.1976 43.8245 27.9892 44.0329C27.7809 44.2412 27.5031 44.3801 27.2253 44.5885C26.9475 44.7274 26.6002 44.8663 26.2529 44.9358C25.9057 45.0052 25.489 45.0747 25.0722 45.0747C24.3777 45.0747 23.8221 44.9358 23.197 44.7274C22.6414 44.5191 22.1553 44.1718 21.7385 43.8245C21.3218 43.4078 20.9746 42.9217 20.7662 42.366C20.5578 41.8104 20.4189 41.1159 20.4189 40.4214C20.4189 39.7963 20.4884 39.1712 20.6968 38.6156C20.9051 38.06 21.1829 37.5738 21.5996 37.1571C22.0163 36.7404 22.4331 36.3931 22.9887 36.1153C23.5443 35.8375 24.1694 35.7681 24.8639 35.7681C25.489 35.7681 26.114 35.907 26.6002 36.1153C27.1558 36.3931 27.5725 36.6709 27.9198 37.1571C28.2671 37.5738 28.5449 38.06 28.7532 38.6156C28.9616 39.1712 29.031 39.7963 29.031 40.4214C29.031 40.6992 29.031 40.9075 28.9616 41.1159H22.2942C22.3636 41.8104 22.7109 42.2966 23.197 42.6438C23.8221 42.9911 24.4472 43.13 25.2112 43.13ZM27.1558 39.449C27.0864 38.9629 26.878 38.5462 26.4613 38.2683C26.0446 37.9905 25.5584 37.7822 24.9333 37.7822C24.6555 37.7822 24.3777 37.8516 24.0999 37.9211C23.8221 37.9905 23.6138 38.1294 23.4054 38.2683C23.197 38.4073 22.9887 38.6156 22.8498 38.824C22.7109 39.0323 22.6414 39.2407 22.572 39.5185H27.1558V39.449Z" fill="white"/>
<path d="M39.1016 35.9761V44.866H37.2264V37.9902H33.0593V44.866H31.1841V35.9761H39.1016Z" fill="white"/>
<path d="M45.7693 43.13C46.3249 43.13 46.8805 42.9911 47.3667 42.7827C47.8528 42.5744 48.2695 42.2966 48.4779 41.9493L49.0335 43.4078C48.8946 43.6162 48.7557 43.8245 48.5474 44.0329C48.339 44.2412 48.0612 44.3801 47.7834 44.5885C47.5056 44.7274 47.1583 44.8663 46.811 44.9358C46.4638 45.0052 46.0471 45.0747 45.6304 45.0747C44.9358 45.0747 44.3802 44.9358 43.7551 44.7274C43.1995 44.5191 42.7134 44.1718 42.2966 43.8245C41.8799 43.4078 41.5327 42.9217 41.3243 42.366C41.116 41.8104 40.9771 41.1159 40.9771 40.4214C40.9771 39.7963 41.0465 39.1712 41.2549 38.6156C41.4632 38.06 41.741 37.5738 42.1577 37.1571C42.5745 36.7404 42.9912 36.3931 43.5468 36.1153C44.1024 35.8375 44.7275 35.7681 45.422 35.7681C46.0471 35.7681 46.6721 35.907 47.1583 36.1153C47.7139 36.3931 48.1306 36.6709 48.4779 37.1571C48.8252 37.5738 49.103 38.06 49.3113 38.6156C49.5197 39.1712 49.5891 39.7963 49.5891 40.4214C49.5891 40.6992 49.5891 40.9075 49.5197 41.1159H42.8523C42.9217 41.8104 43.269 42.2966 43.7551 42.6438C44.3108 42.9911 45.0053 43.13 45.7693 43.13ZM47.7139 39.449C47.6445 38.9629 47.4361 38.5462 47.0194 38.2683C46.6027 37.9905 46.1165 37.7822 45.4915 37.7822C45.2136 37.7822 44.9358 37.8516 44.658 37.9211C44.3802 37.9905 44.1719 38.1294 43.9635 38.2683C43.7551 38.4073 43.5468 38.6156 43.4079 38.824C43.269 39.0323 43.1995 39.2407 43.1301 39.5185H47.7139V39.449Z" fill="white"/>
<path d="M53.4782 35.9761V39.2403H57.7148V35.9761H59.59V44.866H57.7148V41.3239H53.4782V44.866H51.603V35.9761H53.4782Z" fill="white"/>
<path d="M62.1597 44.866V35.9761H64.0349V38.5458H65.5628C66.049 38.5458 66.4657 38.6153 66.8824 38.7542C67.2991 38.8931 67.6464 39.1014 67.9242 39.3792C68.202 39.657 68.4798 40.0043 68.6187 40.3516C68.7576 40.6988 68.8965 41.185 68.8965 41.6712C68.8965 42.1573 68.8271 42.574 68.6187 42.9908C68.4104 43.4075 68.202 43.6853 67.9242 43.9631C67.6464 44.2409 67.2297 44.4492 66.8824 44.5882C66.4657 44.7271 66.049 44.7965 65.5628 44.7965H62.1597V44.866ZM65.7712 42.9213C66.1879 42.9213 66.4657 42.7824 66.7435 42.574C66.9519 42.3657 67.0908 42.0879 67.0908 41.7406C67.0908 41.3934 66.9519 41.0461 66.7435 40.9072C66.4657 40.6988 66.1879 40.6294 65.8406 40.6294H64.1043V42.9908H65.7712V42.9213Z" fill="white"/>
<path d="M82.5786 38.0595H79.7311V44.9353H77.8558V38.0595H75.0083V36.0454H82.5786V38.0595Z" fill="white"/>
<path d="M87.5097 35.9761C87.9264 35.9761 88.3432 36.0455 88.7599 36.115C89.1071 36.2539 89.4544 36.3928 89.7322 36.6011C90.01 36.8095 90.2184 37.0873 90.3573 37.3651C90.4962 37.6429 90.5656 38.0596 90.5656 38.4069C90.5656 38.7542 90.4962 39.1014 90.4267 39.3792C90.2878 39.657 90.1489 39.8654 89.8711 40.1432C90.2184 40.3516 90.5656 40.6294 90.7045 40.9766C90.9129 41.3239 90.9823 41.7406 90.9823 42.2268C90.9823 42.6435 90.9129 42.9908 90.7045 43.338C90.5656 43.6853 90.2878 43.9631 90.01 44.1714C89.7322 44.3798 89.3849 44.5882 89.0377 44.7271C88.6904 44.866 88.2737 44.9354 87.7875 44.9354H84.0371V35.9761H87.5097ZM87.7875 39.5876C88.0653 39.5876 88.2737 39.5181 88.4821 39.3792C88.6904 39.2403 88.7599 39.032 88.7599 38.8236C88.7599 38.5458 88.6904 38.3375 88.4821 38.1985C88.2737 38.0596 88.0653 37.9902 87.7875 37.9902H85.9818V39.5876H87.7875ZM88.2042 42.9908C88.4821 42.9908 88.6904 42.9213 88.8988 42.7824C89.1071 42.6435 89.1766 42.4351 89.1766 42.1573C89.1766 41.8795 89.1071 41.7406 88.8988 41.5323C88.6904 41.3934 88.4821 41.3239 88.2042 41.3239H85.9818V43.0602H88.2042V42.9908Z" fill="white"/>
<path d="M101.192 38.615C101.47 39.1706 101.54 39.7957 101.54 40.4902C101.54 41.1847 101.401 41.7404 101.192 42.3654C100.984 42.9905 100.637 43.4072 100.22 43.8239C99.8032 44.2406 99.3171 44.5879 98.7615 44.7963C98.2058 45.0046 97.6502 45.1435 97.0251 45.1435C96.4001 45.1435 95.8445 45.0046 95.2888 44.7963C94.7332 44.5879 94.2471 44.2406 93.8303 43.8239C93.4136 43.4072 93.0664 42.921 92.858 42.3654C92.6496 41.8098 92.5107 41.1847 92.5107 40.4902C92.5107 39.7957 92.6496 39.2401 92.858 38.615C93.0664 37.9899 93.4136 37.5732 93.8303 37.1565C94.2471 36.7398 94.7332 36.3925 95.2888 36.1842C95.8445 35.9758 96.4001 35.8369 97.0251 35.8369C97.6502 35.8369 98.2058 35.9758 98.7615 36.1842C99.3171 36.3925 99.8032 36.7398 100.22 37.1565C100.637 37.5038 100.984 38.0594 101.192 38.615ZM94.3165 40.4208C94.3165 40.8375 94.386 41.1847 94.5249 41.4626C94.6638 41.8098 94.8721 42.0876 95.0805 42.296C95.2888 42.5043 95.6361 42.7127 95.9139 42.8516C96.2612 42.9905 96.6084 43.06 96.9557 43.06C97.303 43.06 97.6502 42.9905 97.9975 42.8516C98.3447 42.7127 98.6226 42.5738 98.8309 42.296C99.0393 42.0876 99.2476 41.8098 99.3865 41.4626C99.5254 41.1153 99.5949 40.768 99.5949 40.4208C99.5949 40.0041 99.5254 39.6568 99.3865 39.3095C99.2476 38.9623 99.0393 38.6845 98.8309 38.4761C98.6226 38.2677 98.2753 38.0594 97.9975 37.9205C97.6502 37.7816 97.303 37.7121 96.9557 37.7121C96.6084 37.7121 96.2612 37.7816 95.9139 37.9205C95.5667 38.0594 95.2888 38.1983 95.0805 38.4761C94.8721 38.7539 94.6638 38.9623 94.5249 39.3095C94.386 39.7262 94.3165 40.0735 94.3165 40.4208Z" fill="white"/>
<path d="M105.359 35.9761V41.7406L109.665 35.9761H111.54V44.866H109.735V39.1014L105.429 44.866H103.484V35.9761H105.359Z" fill="white"/>
<path d="M115.36 44.866H112.999L116.402 40.1432L113.346 35.9761H115.638L117.513 38.6153L119.389 35.9761H121.75L118.764 40.1432L122.167 44.866H119.875L117.652 41.7406L115.36 44.866Z" fill="white"/>
<path d="M128.348 42.8519C128.764 42.2268 129.181 41.3934 129.459 40.421C129.737 39.4487 129.945 38.1985 129.945 36.7401V35.9761H136.126V42.8519H137.446V47.2273H135.64V44.866H129.251V47.2273H127.445V42.8519H128.348ZM134.251 42.8519V38.0596H131.751C131.681 39.1709 131.473 40.1432 131.195 40.9766C130.917 41.8101 130.64 42.4351 130.431 42.8519H134.251Z" fill="white"/>
<path d="M147.378 38.615C147.656 39.1706 147.725 39.7957 147.725 40.4902C147.725 41.1847 147.586 41.7404 147.378 42.3654C147.17 42.9905 146.822 43.4072 146.406 43.8239C145.989 44.2406 145.503 44.5879 144.947 44.7963C144.391 45.0046 143.766 45.1435 143.141 45.1435C142.516 45.1435 141.961 45.0046 141.405 44.7963C140.849 44.5879 140.363 44.2406 139.947 43.8239C139.53 43.4072 139.183 42.921 138.974 42.3654C138.766 41.8098 138.627 41.1847 138.627 40.4902C138.627 39.7957 138.766 39.2401 138.974 38.615C139.183 37.9899 139.53 37.5732 139.947 37.1565C140.363 36.7398 140.849 36.3925 141.405 36.1842C141.961 35.9758 142.516 35.8369 143.141 35.8369C143.766 35.8369 144.322 35.9758 144.878 36.1842C145.433 36.3925 145.919 36.7398 146.336 37.1565C146.822 37.5038 147.17 38.0594 147.378 38.615ZM140.502 40.4208C140.502 40.8375 140.572 41.1847 140.711 41.4626C140.849 41.8098 141.058 42.0876 141.266 42.296C141.474 42.5043 141.822 42.7127 142.1 42.8516C142.447 42.9905 142.794 43.06 143.141 43.06C143.489 43.06 143.836 42.9905 144.183 42.8516C144.53 42.7127 144.808 42.5738 145.017 42.296C145.225 42.0876 145.433 41.8098 145.572 41.4626C145.711 41.1153 145.781 40.768 145.781 40.4208C145.781 40.0041 145.711 39.6568 145.572 39.3095C145.433 38.9623 145.225 38.6845 145.017 38.4761C144.808 38.2677 144.461 38.0594 144.183 37.9205C143.836 37.7816 143.489 37.7121 143.141 37.7121C142.794 37.7121 142.447 37.7816 142.1 37.9205C141.752 38.0594 141.474 38.1983 141.266 38.4761C141.058 38.7539 140.849 38.9623 140.711 39.3095C140.572 39.7262 140.502 40.0735 140.502 40.4208Z" fill="white"/>
<path d="M157.101 43.5461C156.962 43.7545 156.823 43.9628 156.615 44.1712C156.407 44.3795 156.129 44.5185 155.851 44.6574C155.573 44.7963 155.226 44.9352 154.879 45.0046C154.532 45.0741 154.115 45.1435 153.698 45.1435C153.073 45.1435 152.517 45.0046 151.962 44.7963C151.406 44.5879 150.92 44.2406 150.503 43.8239C150.087 43.4072 149.739 42.921 149.462 42.3654C149.184 41.8098 149.114 41.1847 149.114 40.4902C149.114 39.7957 149.253 39.1706 149.462 38.615C149.67 38.0594 150.017 37.5732 150.503 37.1565C150.92 36.7398 151.406 36.462 151.962 36.1842C152.517 35.9064 153.073 35.8369 153.698 35.8369C154.462 35.8369 155.157 35.9758 155.782 36.3231C156.337 36.6009 156.754 37.0176 156.962 37.3649L156.407 38.9623C156.198 38.6845 155.851 38.4066 155.365 38.1983C154.948 37.9899 154.462 37.851 153.906 37.851C153.004 37.851 152.309 38.0594 151.753 38.5456C151.198 39.0317 150.92 39.6568 150.92 40.4208C150.92 41.1847 151.198 41.8793 151.753 42.3654C152.309 42.8516 153.004 43.06 153.906 43.06C154.462 43.06 154.948 42.921 155.365 42.7127C155.782 42.5043 156.129 42.2265 156.407 41.9487L157.101 43.5461Z" fill="white"/>
<path d="M165.921 38.0595H163.074V44.9353H161.129V38.0595H158.282V36.0454H165.852V38.0595H165.921Z" fill="white"/>
<path d="M169.394 35.9761V41.7406L173.7 35.9761H175.576V44.866H173.7V39.1014L169.394 44.866H167.519V35.9761H169.394Z" fill="white"/>
<path d="M184.743 39.5875L187.868 36.0454H190.23L186.41 40.282L190.577 44.8658H188.077L184.743 41.046V44.8658H182.868V41.046L179.534 44.8658H177.034L181.201 40.282L177.45 36.0454H179.812L182.937 39.5875V36.0454H184.812V39.5875H184.743Z" fill="white"/>
<path d="M195.508 43.1294C196.064 43.1294 196.62 42.9905 197.106 42.7821C197.592 42.5738 198.009 42.296 198.217 41.9487L198.773 43.4072C198.634 43.6156 198.495 43.8239 198.286 44.0323C198.078 44.2406 197.8 44.3795 197.523 44.5879C197.245 44.7268 196.897 44.8657 196.55 44.9352C196.203 45.0046 195.856 45.1435 195.439 45.1435C194.744 45.1435 194.189 45.0046 193.564 44.7963C193.008 44.5879 192.522 44.2406 192.105 43.8934C191.689 43.4767 191.341 42.9905 191.133 42.4349C190.925 41.8793 190.786 41.1847 190.786 40.4902C190.786 39.8651 190.855 39.2401 191.063 38.6845C191.272 38.1288 191.55 37.6427 191.966 37.226C192.383 36.8092 192.8 36.462 193.355 36.1842C193.911 35.9064 194.536 35.8369 195.231 35.8369C195.856 35.8369 196.481 35.9758 196.967 36.1842C197.523 36.462 197.939 36.7398 198.286 37.226C198.634 37.7121 198.912 38.1288 199.12 38.6845C199.328 39.2401 199.398 39.8651 199.398 40.4902C199.398 40.768 199.398 40.9764 199.328 41.1847H192.661C192.73 41.8793 193.078 42.3654 193.564 42.7127C194.119 42.9905 194.744 43.1294 195.508 43.1294ZM197.453 39.4484C197.384 38.9623 197.175 38.5456 196.759 38.2677C196.342 37.9899 195.856 37.7816 195.231 37.7816C194.953 37.7816 194.675 37.851 194.397 37.9205C194.119 37.9899 193.911 38.1288 193.703 38.2677C193.494 38.4066 193.286 38.615 193.147 38.8234C193.008 39.0317 192.939 39.2401 192.869 39.5179H197.453V39.4484Z" fill="white"/>
<path d="M203.287 35.9761V39.2403H207.523V35.9761H209.399V44.866H207.523V41.3239H203.287V44.866H201.412V35.9761H203.287Z" fill="white"/>
<path d="M213.844 35.9761V41.7406L218.15 35.9761H220.025V44.866H218.15V39.1014L213.844 44.866H211.969V35.9761H213.844Z" fill="white"/>
<path d="M224.4 35.9761V41.7407L228.706 35.9761H230.581V44.866H228.706V39.1015L224.4 44.866H222.525V35.9761H224.4ZM229.47 32.4341C229.47 32.8508 229.401 33.198 229.262 33.4758C229.123 33.8231 228.915 34.1009 228.637 34.3093C228.359 34.5176 228.081 34.726 227.734 34.8649C227.387 35.0038 226.97 35.0732 226.623 35.0732C226.206 35.0732 225.859 35.0038 225.511 34.8649C225.164 34.726 224.817 34.5871 224.608 34.3093C224.331 34.1009 224.122 33.8231 223.983 33.4758C223.844 33.1286 223.775 32.7813 223.775 32.4341L225.372 32.1562C225.372 32.5035 225.511 32.7119 225.72 32.9897C225.928 33.198 226.275 33.3369 226.623 33.3369C227.039 33.3369 227.317 33.198 227.595 32.9897C227.803 32.7813 227.942 32.5035 227.942 32.1562L229.47 32.4341Z" fill="white"/>
</g>
<defs>
<clipPath id="clip0">
<rect width="246" height="47.2276" fill="white"/>
</clipPath>
</defs>
</svg>
