<svg width="246" height="27" viewBox="0 0 246 27" fill="none" xmlns="http://www.w3.org/2000/svg">
<path d="M15.6961 2.84766V19.6551H11.529V7.2926H4.23647V19.7246H0.0693359V2.84766H15.6961Z" fill="white"/>
<path d="M36.4628 7.6397C36.949 8.75094 37.1574 9.93163 37.1574 11.2512C37.1574 12.5708 36.949 13.7515 36.4628 14.8627C35.9767 15.974 35.3516 16.8769 34.5876 17.6408C33.8237 18.4048 32.9208 19.0299 31.879 19.4466C30.8372 19.8633 29.7954 20.0717 28.6842 20.0717C27.434 20.0717 26.3923 19.8633 25.4894 19.4466C24.5865 19.0299 24.0309 18.4743 23.7531 17.8492V26.5307H19.5859V2.84749H23.6142V4.5838C23.892 3.95873 24.517 3.40311 25.4199 2.9864C26.3228 2.56969 27.3646 2.36133 28.6147 2.36133C29.726 2.36133 30.8372 2.56969 31.879 2.9864C32.9208 3.47256 33.8237 4.09764 34.5876 4.86161C35.3516 5.62559 36.0461 6.59792 36.4628 7.6397ZM32.643 13.057C32.8513 12.5014 32.9902 11.8763 32.9902 11.2512C32.9902 10.6262 32.8513 10.0011 32.643 9.44546C32.4346 8.88984 32.0873 8.40368 31.6706 8.05642C31.2539 7.6397 30.7678 7.36189 30.1427 7.15354C29.5176 6.94518 28.8925 6.80627 28.198 6.80627C27.1562 6.80627 26.2534 7.01463 25.4199 7.43134C24.5865 7.84806 24.1003 8.40368 23.8225 9.02875V13.4737C24.1003 14.0988 24.5865 14.6544 25.4199 15.0711C26.2534 15.4878 27.1562 15.6962 28.198 15.6962C28.8925 15.6962 29.5871 15.5573 30.1427 15.3489C30.7678 15.1405 31.2539 14.7933 31.6706 14.446C32.0873 14.0988 32.4346 13.6126 32.643 13.057Z" fill="white"/>
<path d="M44.2412 2.84766V12.9182L51.881 2.84766H56.0481V19.6551H51.9504V9.58453L44.3107 19.6551H40.1436V2.84766H44.2412Z" fill="white"/>
<path d="M76.6753 11.2504C76.6753 12.5005 76.4669 13.6812 75.9808 14.7924C75.4946 15.9037 74.8695 16.8065 74.0361 17.5705C73.2027 18.3345 72.2998 18.9596 71.1886 19.4457C70.1468 19.8624 68.9661 20.1403 67.7854 20.1403C66.6047 20.1403 65.424 19.9319 64.3822 19.4457C63.3404 19.029 62.3681 18.4039 61.5347 17.5705C60.7013 16.7371 60.0762 15.8342 59.59 14.7924C59.1039 13.6812 58.8955 12.5005 58.8955 11.2504C58.8955 10.0002 59.1039 8.81953 59.59 7.70829C60.0762 6.59706 60.7013 5.69418 61.5347 4.86075C62.3681 4.09678 63.271 3.4717 64.3822 2.98554C65.424 2.56882 66.6047 2.29102 67.7854 2.29102C68.9661 2.29102 70.1468 2.49937 71.1886 2.98554C72.2303 3.40225 73.2027 4.02732 74.0361 4.86075C74.8695 5.62473 75.4946 6.59706 75.9808 7.70829C76.3975 8.81953 76.6753 10.0002 76.6753 11.2504ZM63.4099 9.4446C63.2015 10.0002 63.0626 10.6253 63.0626 11.2504C63.0626 11.8754 63.2015 12.5005 63.4099 13.0561C63.6183 13.6117 63.9655 14.0979 64.3822 14.4452C64.7989 14.8619 65.2851 15.1397 65.9102 15.348C66.4658 15.5564 67.0909 15.6953 67.7854 15.6953C68.4105 15.6953 69.0355 15.5564 69.5912 15.348C70.1468 15.1397 70.6329 14.7924 71.0497 14.4452C71.4664 14.0285 71.8136 13.6117 72.0914 13.0561C72.3692 12.5005 72.4387 11.9449 72.4387 11.2504C72.4387 10.6253 72.2998 10.0002 72.0914 9.4446C71.8136 8.88898 71.5358 8.40282 71.0497 8.05556C70.6329 7.63884 70.1468 7.36103 69.5912 7.15268C69.0355 6.94432 68.4105 6.80541 67.7854 6.80541C67.1603 6.80541 66.5353 6.94432 65.9102 7.15268C65.3546 7.36103 64.7989 7.70829 64.3822 8.05556C64.035 8.40282 63.6877 8.88898 63.4099 9.4446Z" fill="white"/>
<path d="M96.3994 7.6397C96.8855 8.75094 97.0939 9.93163 97.0939 11.2512C97.0939 12.5708 96.8855 13.7515 96.3994 14.8627C95.9132 15.974 95.2881 16.8769 94.5242 17.6408C93.7602 18.4048 92.8573 19.0299 91.8155 19.4466C90.7737 19.8633 89.732 20.0717 88.6207 20.0717C87.3706 20.0717 86.3288 19.8633 85.4259 19.4466C84.523 19.0299 83.9674 18.4743 83.6896 17.8492V26.5307H79.5225V2.84749H83.5507V4.5838C83.8285 3.95873 84.4536 3.40311 85.3565 2.9864C86.2593 2.56969 87.3011 2.36133 88.5513 2.36133C89.6625 2.36133 90.7737 2.56969 91.8155 2.9864C92.8573 3.40311 93.7602 4.02818 94.5242 4.79216C95.2881 5.55613 95.9132 6.59792 96.3994 7.6397ZM92.5795 13.057C92.7879 12.5014 92.9268 11.8763 92.9268 11.2512C92.9268 10.6262 92.7879 10.0011 92.5795 9.44546C92.3711 8.88984 92.0239 8.40368 91.6072 8.05642C91.1904 7.6397 90.7043 7.36189 90.0792 7.15354C89.4541 6.94518 88.8291 6.80627 88.1346 6.80627C87.0928 6.80627 86.1899 7.01463 85.3565 7.43134C84.523 7.84806 84.0369 8.40368 83.7591 9.02875V13.4737C84.0369 14.0988 84.523 14.6544 85.3565 15.0711C86.1899 15.4878 87.0928 15.6962 88.1346 15.6962C88.8291 15.6962 89.5236 15.5573 90.0792 15.3489C90.7043 15.1405 91.1904 14.7933 91.6072 14.446C91.9544 14.0988 92.3017 13.6126 92.5795 13.057Z" fill="white"/>
<path d="M104.108 2.84766V12.9182L111.748 2.84766H115.915V19.6551H111.818V9.58453L104.178 19.6551H100.011V2.84766H104.108Z" fill="white"/>
<path d="M133.14 7.2926H127.931V19.7246H123.764V7.2926H118.555V2.84766H133.07V7.2926H133.14Z" fill="white"/>
<path d="M144.114 15.9748C145.156 15.9748 146.128 15.7665 147.1 15.4192C148.073 15.072 148.767 14.5163 149.253 13.8913L150.504 17.0861C149.948 17.989 149.115 18.6835 148.003 19.2391C146.892 19.7947 145.503 20.142 143.906 20.142C142.655 20.142 141.405 19.9336 140.364 19.5169C139.322 19.1002 138.28 18.5446 137.516 17.7806C136.683 17.0166 136.058 16.1137 135.641 15.0025C135.155 13.8913 134.946 12.7106 134.946 11.3215C134.946 10.1408 135.155 8.96016 135.571 7.91837C135.988 6.87659 136.544 5.90426 137.308 5.07083C138.072 4.2374 138.975 3.61233 140.016 3.12616C141.058 2.64 142.239 2.43164 143.558 2.43164C144.809 2.43164 145.92 2.70945 146.962 3.19562C148.003 3.68178 148.837 4.30685 149.531 5.14028C150.226 5.97371 150.781 6.87659 151.198 7.98782C151.615 9.02961 151.754 10.1408 151.754 11.3215C151.754 11.5299 151.754 11.8077 151.754 12.0855C151.754 12.3633 151.684 12.5717 151.684 12.78H139.183C139.391 13.8913 139.947 14.7247 140.78 15.2109C141.753 15.697 142.864 15.9748 144.114 15.9748ZM147.587 9.37687C147.448 8.47399 147.031 7.77947 146.267 7.36275C145.503 6.87659 144.67 6.66823 143.628 6.66823C142.586 6.66823 141.683 6.87659 140.919 7.36275C140.086 7.84892 139.6 8.54344 139.461 9.37687H147.587Z" fill="white"/>
<path d="M168.214 7.2926H163.005V19.7246H158.838V7.2926H153.629V2.84766H168.144V7.2926H168.214Z" fill="white"/>
<path d="M176.27 6.32097C175.853 6.32097 175.506 6.39042 175.159 6.52933C174.811 6.66823 174.534 6.80714 174.186 7.01549C173.909 7.22385 173.631 7.43221 173.422 7.71001C173.214 7.98782 173.006 8.26563 172.797 8.54344L171.339 5.97371C171.478 5.48754 171.686 5.00138 171.964 4.58466C172.242 4.16795 172.658 3.75123 173.075 3.47342C173.492 3.12616 174.048 2.91781 174.603 2.70945C175.159 2.50109 175.784 2.43164 176.478 2.43164C177.381 2.43164 178.145 2.57055 178.77 2.84835C179.465 3.12616 180.02 3.47342 180.437 3.95959C180.923 4.44576 181.271 5.00138 181.479 5.62645C181.826 6.25152 181.965 6.87659 181.965 7.64056C181.965 8.26563 181.896 8.82125 181.757 9.30742C181.618 9.79358 181.409 10.2797 181.132 10.7659C180.854 11.2521 180.507 11.7382 180.09 12.2244C179.673 12.7106 179.187 13.2662 178.701 13.8913L177.034 15.7665H182.312V19.5864H171.478V16.6694L176.27 11.4604C176.617 11.1132 176.895 10.7659 177.173 10.4881C177.451 10.2103 177.659 9.93249 177.798 9.65468C177.937 9.37687 178.076 9.16851 178.145 8.8907C178.215 8.68235 178.284 8.40454 178.284 8.05728C178.284 7.57111 178.076 7.1544 177.728 6.80713C177.381 6.45987 176.895 6.32097 176.27 6.32097Z" fill="white"/>
<path d="M189.465 3.12507C190.507 2.70836 191.688 2.5 192.868 2.5C194.049 2.5 195.23 2.70836 196.272 3.12507C197.313 3.54178 198.286 4.16685 199.119 4.93083C199.953 5.69481 200.578 6.66714 201.064 7.70892C201.55 8.82016 201.758 10.0008 201.758 11.251C201.758 12.5706 201.55 13.7513 201.064 14.7931C200.578 15.9043 199.953 16.8072 199.119 17.5711C198.286 18.3351 197.383 18.9602 196.272 19.3769C195.16 19.7936 194.049 20.002 192.868 20.002C191.688 20.002 190.507 19.7936 189.465 19.3769C188.354 18.9602 187.451 18.3351 186.618 17.5711C185.784 16.8072 185.159 15.8348 184.673 14.7931C184.187 13.7513 183.979 12.5011 183.979 11.251C183.979 9.9314 184.187 8.75071 184.673 7.70892C185.159 6.59769 185.784 5.69481 186.618 4.93083C187.451 4.0974 188.423 3.54178 189.465 3.12507ZM192.868 16.1821C193.563 16.1821 194.257 16.0432 194.883 15.8348C195.508 15.557 196.063 15.2792 196.549 14.7931C197.036 14.3763 197.383 13.8207 197.661 13.2651C197.938 12.64 198.077 12.015 198.077 11.251C198.077 10.5565 197.938 9.86194 197.661 9.23687C197.383 8.6118 197.036 8.12564 196.549 7.63947C196.063 7.22276 195.508 6.87549 194.883 6.59769C194.257 6.31988 193.563 6.25042 192.868 6.25042C192.104 6.25042 191.479 6.38933 190.785 6.59769C190.16 6.87549 189.604 7.1533 189.118 7.63947C188.632 8.05618 188.285 8.6118 188.007 9.23687C187.729 9.86194 187.59 10.487 187.59 11.251C187.59 12.015 187.729 12.64 188.007 13.2651C188.285 13.8902 188.632 14.3763 189.118 14.7931C189.604 15.2098 190.16 15.557 190.785 15.8348C191.479 16.1126 192.104 16.1821 192.868 16.1821Z" fill="white"/>
<path d="M207.663 16.2519C208.427 16.2519 209.052 16.0436 209.468 15.6963C209.954 15.3491 210.163 14.8629 210.163 14.2378C210.163 13.6822 209.954 13.2655 209.538 12.9182C209.121 12.571 208.565 12.4321 207.871 12.4321C207.385 12.4321 206.968 12.5015 206.621 12.571C206.274 12.7099 205.996 12.7793 205.857 12.9182L205.301 10.2791L208.218 6.66753H203.565V2.84766H213.01V5.62575L210.163 9.16781C210.58 9.23727 210.996 9.44562 211.413 9.65398C211.83 9.86234 212.246 10.2096 212.663 10.6263C213.08 11.043 213.358 11.5292 213.566 12.1543C213.774 12.7793 213.913 13.4739 213.913 14.3767C213.913 15.2102 213.774 15.9047 213.497 16.5992C213.219 17.2937 212.802 17.9188 212.246 18.4744C211.691 19.03 211.066 19.4468 210.302 19.7246C209.538 20.0024 208.704 20.2107 207.732 20.2107C207.037 20.2107 206.412 20.1413 205.857 20.0024C205.301 19.8635 204.815 19.6551 204.398 19.3773C203.982 19.0995 203.634 18.8217 203.357 18.5439C203.079 18.1966 202.87 17.9188 202.731 17.5715L203.565 14.4462C204.051 15.0018 204.607 15.4185 205.232 15.8352C205.718 16.0436 206.621 16.2519 207.663 16.2519Z" fill="white"/>
<path d="M220.928 3.12507C221.97 2.70836 223.151 2.5 224.331 2.5C225.512 2.5 226.693 2.70836 227.734 3.12507C228.776 3.54178 229.749 4.16685 230.582 4.93083C231.415 5.69481 232.04 6.66714 232.527 7.70892C233.013 8.82016 233.221 10.0008 233.221 11.251C233.221 12.5706 233.013 13.7513 232.527 14.7931C232.04 15.9043 231.415 16.8072 230.582 17.5711C229.749 18.3351 228.846 18.9602 227.734 19.3769C226.623 19.7936 225.512 20.002 224.331 20.002C223.151 20.002 221.97 19.7936 220.928 19.3769C219.817 18.9602 218.914 18.3351 218.081 17.5711C217.247 16.8072 216.622 15.8348 216.136 14.7931C215.65 13.7513 215.441 12.5011 215.441 11.251C215.441 9.9314 215.65 8.75071 216.136 7.70892C216.622 6.59769 217.247 5.69481 218.081 4.93083C218.914 4.0974 219.886 3.54178 220.928 3.12507ZM224.331 16.1821C225.026 16.1821 225.72 16.0432 226.345 15.8348C226.97 15.557 227.526 15.2792 228.012 14.7931C228.498 14.3763 228.846 13.8207 229.123 13.2651C229.401 12.64 229.54 12.015 229.54 11.251C229.54 10.5565 229.401 9.86194 229.123 9.23687C228.846 8.6118 228.498 8.12564 228.012 7.63947C227.526 7.22276 226.97 6.87549 226.345 6.59769C225.72 6.31988 225.026 6.25042 224.331 6.25042C223.567 6.25042 222.942 6.38933 222.248 6.59769C221.623 6.87549 221.067 7.1533 220.581 7.63947C220.095 8.05618 219.747 8.6118 219.47 9.23687C219.192 9.86194 219.053 10.487 219.053 11.251C219.053 12.015 219.192 12.64 219.47 13.2651C219.747 13.8902 220.095 14.3763 220.581 14.7931C221.067 15.2098 221.623 15.557 222.248 15.8348C222.942 16.1126 223.637 16.1821 224.331 16.1821Z" fill="white"/>
<path d="M242.18 0H238.777L234.888 6.73687H238.291L242.18 0Z" fill="white"/>
<path d="M238.777 0H242.181L246 6.73687H242.667L238.777 0Z" fill="white"/>
</svg>
