<svg width="247" height="49" viewBox="0 0 247 49" fill="none" xmlns="http://www.w3.org/2000/svg">
<g clip-path="url(#clip0)">
<path d="M15.5758 2.85547V19.6748H11.4283V7.26699H4.14752V19.6748H0V2.85547H15.5758Z" fill="white"/>
<path d="M36.404 7.65606C36.8695 8.74678 37.1057 9.94172 37.1057 11.2478C37.1057 12.5539 36.8695 13.7488 36.404 14.8395C35.9385 15.9303 35.3133 16.8612 34.5282 17.6462C33.7432 18.4313 32.8401 19.0426 31.8188 19.4734C30.7976 19.9111 29.7277 20.1264 28.6161 20.1264C27.3725 20.1264 26.3166 19.9111 25.4343 19.4873C24.552 19.0635 23.9684 18.5355 23.6905 17.9033V26.6221H19.543V2.85549H23.5585V4.6201C23.8433 3.9879 24.4339 3.45991 25.337 3.03612C26.2401 2.61234 27.31 2.39697 28.5536 2.39697C29.686 2.39697 30.7698 2.61234 31.8049 3.03612C32.8401 3.45991 33.7501 4.06432 34.5282 4.84936C35.3133 5.6344 35.9385 6.57229 36.404 7.65606ZM32.5691 13.061C32.8053 12.5053 32.9304 11.9008 32.9304 11.2478C32.9304 10.5948 32.8123 9.99729 32.5691 9.44846C32.326 8.90657 31.9994 8.43416 31.5757 8.04511C31.1519 7.65606 30.6378 7.35038 30.0403 7.12807C29.4428 6.9127 28.7828 6.80155 28.0673 6.80155C27.0252 6.80155 26.0943 7.01691 25.2953 7.4407C24.4894 7.86448 23.9545 8.39247 23.6974 9.02467V13.4987C23.9614 14.1309 24.4894 14.6589 25.2953 15.0827C26.1012 15.5065 27.0252 15.7218 28.0673 15.7218C28.7828 15.7218 29.4428 15.6107 30.0403 15.3953C30.6378 15.18 31.1519 14.8743 31.5757 14.4783C31.9994 14.0892 32.3329 13.6168 32.5691 13.061Z" fill="white"/>
<path d="M44.1289 2.85547V12.9499L51.7362 2.85547H55.8837V19.6748H51.7987V9.58738L44.1915 19.6748H40.0439V2.85547H44.1289Z" fill="white"/>
<path d="M76.5866 11.2825C76.5866 12.5678 76.3434 13.7488 75.871 14.8257C75.3916 15.9025 74.7455 16.8334 73.9258 17.6185C73.106 18.4035 72.1681 19.0149 71.0982 19.4595C70.0283 19.9041 68.9029 20.1264 67.701 20.1264C66.5061 20.1264 65.3737 19.9041 64.3038 19.4595C63.2339 19.0149 62.296 18.3966 61.4762 17.6185C60.6634 16.8334 60.0104 15.9025 59.531 14.8257C59.0516 13.7488 58.8154 12.5678 58.8154 11.2825C58.8154 10.0181 59.0586 8.84405 59.531 7.75332C60.0104 6.6626 60.6565 5.72472 61.4762 4.92578C62.296 4.13379 63.2339 3.50854 64.3038 3.06391C65.3667 2.61929 66.4991 2.39697 67.701 2.39697C68.8959 2.39697 70.0283 2.61929 71.0982 3.06391C72.1681 3.50854 73.106 4.13379 73.9258 4.92578C74.7386 5.71777 75.3916 6.6626 75.871 7.75332C76.3434 8.84405 76.5866 10.0181 76.5866 11.2825ZM63.3589 9.4693C63.1158 10.0251 62.9977 10.6295 62.9977 11.2825C62.9977 11.9356 63.1158 12.5331 63.3589 13.0819C63.5952 13.6238 63.9286 14.0962 64.3524 14.4852C64.7762 14.8743 65.2764 15.18 65.853 15.4023C66.4296 15.6176 67.041 15.7288 67.6941 15.7288C68.3471 15.7288 68.9585 15.6176 69.5212 15.4023C70.0839 15.1869 70.5841 14.8812 71.0079 14.4852C71.4317 14.0962 71.7721 13.6238 72.0222 13.0819C72.2723 12.54 72.3974 11.9356 72.3974 11.2825C72.3974 10.6295 72.2723 10.0251 72.0222 9.4693C71.7721 8.91352 71.4317 8.4411 71.0079 8.05206C70.5841 7.66301 70.0909 7.35733 69.5212 7.13502C68.9515 6.91965 68.3471 6.80849 67.6941 6.80849C67.041 6.80849 66.4227 6.91965 65.853 7.13502C65.2764 7.35038 64.7762 7.65606 64.3524 8.05206C63.9286 8.4411 63.5952 8.91352 63.3589 9.4693Z" fill="white"/>
<path d="M96.3171 7.65606C96.7826 8.74678 97.0188 9.94172 97.0188 11.2478C97.0188 12.5539 96.7826 13.7488 96.3171 14.8395C95.8516 15.9303 95.2264 16.8612 94.4413 17.6462C93.6563 18.4313 92.7531 19.0426 91.7319 19.4734C90.7106 19.9111 89.6408 20.1264 88.5292 20.1264C87.2856 20.1264 86.2296 19.9111 85.3473 19.4873C84.465 19.0635 83.8815 18.5355 83.6036 17.9033V26.6221H79.4561V2.85549H83.4716V4.6201C83.7564 3.9879 84.3469 3.45991 85.2501 3.03612C86.1532 2.61234 87.2231 2.39697 88.4667 2.39697C89.5991 2.39697 90.6829 2.61234 91.718 3.03612C92.7531 3.45991 93.6632 4.06432 94.4413 4.84936C95.2194 5.6344 95.8447 6.57229 96.3171 7.65606ZM92.4752 13.061C92.7115 12.5053 92.8365 11.9008 92.8365 11.2478C92.8365 10.5948 92.7184 9.99729 92.4752 9.44846C92.2321 8.90657 91.9056 8.43416 91.4818 8.04511C91.058 7.65606 90.5439 7.35038 89.9464 7.12807C89.349 6.9127 88.689 6.80155 87.9734 6.80155C86.9313 6.80155 86.0004 7.01691 85.2014 7.4407C84.3956 7.86448 83.8606 8.39247 83.6036 9.02467V13.4987C83.8676 14.1309 84.3956 14.6589 85.2014 15.0827C86.0073 15.5065 86.9313 15.7218 87.9734 15.7218C88.689 15.7218 89.349 15.6107 89.9464 15.3953C90.5439 15.18 91.058 14.8743 91.4818 14.4783C91.9056 14.0823 92.239 13.6168 92.4752 13.061Z" fill="white"/>
<path d="M104.028 2.85547V12.9499L111.636 2.85547H115.783V19.6748H111.698V9.58738L104.091 19.6748H99.9434V2.85547H104.028Z" fill="white"/>
<path d="M133.075 7.26699H127.879V19.6748H123.731V7.26699H118.542V2.85547H133.075V7.26699Z" fill="white"/>
<path d="M144.079 15.951C145.121 15.951 146.129 15.7634 147.081 15.3813C148.039 14.9992 148.755 14.4921 149.234 13.8599L150.506 17.0626C149.985 17.931 149.151 18.6604 148.005 19.251C146.858 19.8415 145.504 20.1333 143.94 20.1333C142.655 20.1333 141.467 19.9248 140.363 19.515C139.265 19.0981 138.313 18.5145 137.507 17.7503C136.701 16.9861 136.069 16.0622 135.611 14.9784C135.152 13.8877 134.923 12.658 134.923 11.2894C134.923 10.0944 135.124 8.96204 135.527 7.89216C135.93 6.82922 136.507 5.88439 137.257 5.06462C138.007 4.25178 138.911 3.59874 139.967 3.11938C141.023 2.64002 142.211 2.40381 143.544 2.40381C144.788 2.40381 145.913 2.64696 146.921 3.14022C147.935 3.62653 148.797 4.27957 149.498 5.09935C150.207 5.91913 150.756 6.85701 151.145 7.92689C151.534 8.99677 151.735 10.1153 151.735 11.2894C151.735 11.5325 151.728 11.7826 151.721 12.0536C151.707 12.3245 151.68 12.5607 151.638 12.7553H139.168C139.362 13.8668 139.904 14.6796 140.8 15.1868C141.703 15.6939 142.794 15.951 144.079 15.951ZM147.511 9.35803C147.379 8.46878 146.942 7.78795 146.205 7.31553C145.462 6.85007 144.58 6.61386 143.558 6.61386C142.537 6.61386 141.62 6.85007 140.814 7.31553C140.008 7.78795 139.522 8.46183 139.348 9.35803H147.511Z" fill="white"/>
<path d="M168.152 7.26699H162.955V19.6748H158.815V7.26699H153.618V2.85547H168.152V7.26699Z" fill="white"/>
<path d="M176.238 6.30105C175.828 6.30105 175.453 6.36358 175.113 6.48863C174.765 6.61368 174.453 6.78041 174.175 6.98188C173.897 7.18336 173.64 7.41956 173.411 7.68356C173.181 7.94756 172.987 8.2324 172.813 8.53113L171.333 5.99537C171.459 5.50906 171.674 5.05054 171.98 4.61981C172.285 4.18908 172.66 3.81393 173.105 3.49435C173.55 3.17478 174.064 2.91773 174.647 2.73015C175.224 2.54257 175.856 2.44531 176.53 2.44531C177.405 2.44531 178.184 2.57731 178.857 2.84131C179.531 3.1053 180.094 3.47351 180.553 3.94592C181.004 4.41834 181.351 4.96717 181.588 5.59243C181.824 6.21768 181.942 6.89157 181.942 7.61409C181.942 8.22545 181.873 8.78818 181.734 9.29533C181.595 9.80248 181.386 10.3027 181.108 10.789C180.83 11.2753 180.49 11.7686 180.087 12.2688C179.677 12.769 179.212 13.3178 178.677 13.9153L176.989 15.8188H182.275V19.6746H171.465V16.6872L176.28 11.449C176.62 11.0738 176.919 10.7473 177.169 10.4625C177.419 10.1776 177.628 9.91364 177.794 9.64964C177.961 9.38564 178.086 9.14249 178.17 8.89933C178.253 8.65618 178.302 8.38524 178.302 8.0865C178.302 7.5863 178.114 7.16251 177.746 6.81515C177.364 6.47473 176.87 6.30105 176.238 6.30105Z" fill="white"/>
<path d="M189.424 3.09141C190.501 2.66068 191.634 2.44531 192.836 2.44531C194.03 2.44531 195.163 2.66068 196.247 3.09141C197.323 3.52214 198.268 4.12655 199.074 4.90465C199.887 5.68274 200.526 6.61368 200.999 7.69745C201.471 8.78123 201.707 9.96921 201.707 11.2614C201.707 12.5675 201.471 13.7555 200.999 14.8323C200.526 15.9091 199.887 16.8401 199.074 17.6182C198.261 18.3963 197.323 19.0007 196.247 19.4314C195.17 19.8621 194.03 20.0775 192.836 20.0775C191.641 20.0775 190.501 19.8621 189.424 19.4314C188.348 19.0007 187.403 18.3963 186.597 17.6182C185.784 16.8401 185.145 15.9091 184.673 14.8323C184.2 13.7555 183.964 12.5675 183.964 11.2614C183.964 9.96921 184.2 8.78123 184.673 7.69745C185.145 6.61368 185.784 5.68274 186.597 4.90465C187.403 4.1335 188.348 3.52909 189.424 3.09141ZM192.836 16.2218C193.558 16.2218 194.239 16.1037 194.878 15.8536C195.517 15.6104 196.066 15.27 196.532 14.8393C196.997 14.4085 197.358 13.8875 197.629 13.2831C197.893 12.6787 198.032 12.0048 198.032 11.2684C198.032 10.5458 197.9 9.8789 197.629 9.26059C197.358 8.64923 196.997 8.12819 196.532 7.69051C196.066 7.25978 195.517 6.91936 194.878 6.6762C194.239 6.43305 193.558 6.308 192.836 6.308C192.099 6.308 191.411 6.43305 190.786 6.6762C190.161 6.91936 189.612 7.25978 189.147 7.69051C188.681 8.12124 188.313 8.64923 188.049 9.26059C187.785 9.87195 187.646 10.5458 187.646 11.2684C187.646 12.0117 187.778 12.6787 188.049 13.2831C188.313 13.8875 188.681 14.4085 189.147 14.8393C189.612 15.27 190.154 15.6104 190.786 15.8536C191.411 16.0967 192.092 16.2218 192.836 16.2218Z" fill="white"/>
<path d="M207.592 16.2359C208.342 16.2359 208.953 16.0553 209.412 15.694C209.877 15.3328 210.107 14.8465 210.107 14.2351C210.107 13.6863 209.898 13.2486 209.481 12.929C209.065 12.6094 208.509 12.4497 207.8 12.4497C207.314 12.4497 206.897 12.5052 206.543 12.6164C206.188 12.7275 205.924 12.8457 205.758 12.9707L205.167 10.3377L208.057 6.71815H203.403V2.85547H212.83V5.60659L209.961 9.12886C210.371 9.22612 210.794 9.38591 211.239 9.60822C211.684 9.83748 212.094 10.1501 212.476 10.5461C212.851 10.949 213.164 11.4493 213.407 12.0606C213.65 12.672 213.768 13.4084 213.768 14.2698C213.768 15.0688 213.622 15.8191 213.33 16.5277C213.038 17.2294 212.629 17.8477 212.087 18.3757C211.545 18.9037 210.899 19.3136 210.135 19.6192C209.37 19.9249 208.523 20.0778 207.585 20.0778C206.876 20.0778 206.244 20.0013 205.681 19.8416C205.119 19.6818 204.625 19.4803 204.202 19.2163C203.778 18.9593 203.423 18.6744 203.146 18.3548C202.861 18.0422 202.659 17.7226 202.534 17.3892L203.382 14.2837C203.833 14.8326 204.389 15.2911 205.049 15.6593C205.716 16.0483 206.564 16.2359 207.592 16.2359Z" fill="white"/>
<path d="M220.916 3.09141C221.993 2.66068 223.125 2.44531 224.327 2.44531C225.522 2.44531 226.655 2.66068 227.738 3.09141C228.815 3.52214 229.76 4.12655 230.566 4.90465C231.379 5.68274 232.018 6.61368 232.49 7.69745C232.963 8.78123 233.199 9.96921 233.199 11.2614C233.199 12.5675 232.963 13.7555 232.49 14.8323C232.018 15.9091 231.379 16.8401 230.566 17.6182C229.753 18.3963 228.815 19.0007 227.738 19.4314C226.662 19.8621 225.529 20.0775 224.327 20.0775C223.132 20.0775 221.993 19.8621 220.916 19.4314C219.839 19.0007 218.895 18.3963 218.082 17.6182C217.269 16.8401 216.63 15.9091 216.157 14.8323C215.685 13.7555 215.449 12.5675 215.449 11.2614C215.449 9.96921 215.685 8.78123 216.157 7.69745C216.63 6.61368 217.269 5.68274 218.082 4.90465C218.895 4.1335 219.839 3.52909 220.916 3.09141ZM224.327 16.2218C225.05 16.2218 225.731 16.1037 226.37 15.8536C227.009 15.6104 227.558 15.27 228.023 14.8393C228.489 14.4085 228.857 13.8875 229.121 13.2831C229.385 12.6787 229.524 12.0048 229.524 11.2684C229.524 10.5458 229.392 9.8789 229.121 9.26059C228.857 8.64923 228.489 8.12819 228.023 7.69051C227.558 7.25978 227.009 6.91936 226.37 6.6762C225.731 6.43305 225.05 6.308 224.327 6.308C223.591 6.308 222.903 6.43305 222.278 6.6762C221.646 6.91936 221.104 7.25978 220.638 7.69051C220.173 8.12124 219.812 8.64923 219.541 9.26059C219.27 9.87195 219.138 10.5458 219.138 11.2684C219.138 12.0117 219.27 12.6787 219.541 13.2831C219.812 13.8875 220.173 14.4085 220.638 14.8393C221.104 15.27 221.646 15.6104 222.278 15.8536C222.903 16.0967 223.584 16.2218 224.327 16.2218Z" fill="white"/>
<path d="M242.126 0H238.757L234.874 6.72496H238.236L242.126 0Z" fill="white"/>
<path d="M238.757 0H242.126L246.01 6.72496H242.647L238.757 0Z" fill="white"/>
<path d="M11.9909 36.5703V41.5654L15.7563 36.5703H17.8127V44.9001H15.7911V39.905L12.0187 44.9001H9.96924V36.5703H11.9909Z" fill="white"/>
<path d="M19.9317 42.7187C20.1053 42.4269 20.2721 42.1003 20.4319 41.7321C20.5917 41.3639 20.7375 40.961 20.8695 40.5094C21.0015 40.0648 21.0988 39.5785 21.1752 39.0644C21.2516 38.5503 21.2864 37.9945 21.2864 37.397V36.5703H27.3027V42.7117H28.4699V47.1093H26.4829V44.8932H21.0641V47.1093H19.0771V42.7117H19.9317V42.7187ZM25.2463 42.7187V38.7587H23.1274C23.0301 39.6966 22.8843 40.4816 22.6897 41.1138C22.4952 41.746 22.2868 42.281 22.0575 42.7187H25.2463Z" fill="white"/>
<path d="M33.868 43.0523C34.3821 43.0523 34.8823 42.955 35.3547 42.7674C35.8271 42.5799 36.1814 42.3297 36.4246 42.0171L37.0568 43.6011C36.7998 44.0318 36.3829 44.3931 35.8202 44.6849C35.2505 44.9767 34.5836 45.1226 33.8055 45.1226C33.1663 45.1226 32.5828 45.0183 32.0339 44.8169C31.492 44.6154 31.0196 44.3236 30.6167 43.9415C30.2137 43.5594 29.9081 43.1078 29.6788 42.566C29.4495 42.031 29.3384 41.4197 29.3384 40.7388C29.3384 40.1483 29.4356 39.5856 29.6371 39.0576C29.8386 38.5296 30.1234 38.0641 30.4916 37.6612C30.8668 37.2582 31.3114 36.9387 31.8325 36.7025C32.3535 36.4662 32.944 36.3481 33.604 36.3481C34.2154 36.3481 34.7781 36.4662 35.2783 36.7094C35.7785 36.9526 36.2023 37.2791 36.5566 37.682C36.904 38.085 37.1819 38.5504 37.3764 39.0784C37.5709 39.6064 37.6682 40.1622 37.6682 40.7458C37.6682 40.8639 37.6682 40.9889 37.6612 41.1279C37.6543 41.2599 37.6404 41.378 37.6195 41.4752H31.4434C31.5407 42.0241 31.8116 42.427 32.2493 42.6771C32.6939 42.9272 33.2289 43.0523 33.868 43.0523ZM35.5631 39.787C35.5006 39.3424 35.2852 39.009 34.917 38.7797C34.5488 38.5504 34.1112 38.4323 33.611 38.4323C33.1108 38.4323 32.6522 38.5504 32.2493 38.7797C31.8533 39.009 31.6101 39.3494 31.5198 39.787H35.5631Z" fill="white"/>
<path d="M47.5543 38.9464C47.7836 39.4883 47.9017 40.0788 47.9017 40.7249C47.9017 41.371 47.7836 41.9685 47.5543 42.5034C47.3251 43.0453 47.0125 43.5038 46.6234 43.8929C46.2344 44.2819 45.7897 44.5807 45.2826 44.796C44.7754 45.0114 44.2474 45.1226 43.6986 45.1226C43.0803 45.1226 42.5593 45.0183 42.1216 44.8099C41.6839 44.6015 41.3991 44.3375 41.2532 44.0249V48.3391H39.1968V36.5705H41.1837V37.4458C41.3226 37.1332 41.6144 36.8692 42.066 36.6608C42.5106 36.4524 43.0456 36.3481 43.6569 36.3481C44.2197 36.3481 44.7546 36.4524 45.2687 36.6608C45.7828 36.8692 46.2274 37.1679 46.6165 37.557C47.0125 37.946 47.3181 38.4115 47.5543 38.9464ZM45.6508 41.6211C45.7689 41.3432 45.8314 41.0445 45.8314 40.7249C45.8314 40.4054 45.7689 40.1066 45.6508 39.8357C45.5327 39.5647 45.366 39.3355 45.1575 39.1409C44.9491 38.9464 44.6921 38.7936 44.4003 38.6894C44.1016 38.5852 43.775 38.5296 43.4207 38.5296C42.9066 38.5296 42.4481 38.6338 42.0452 38.8422C41.6422 39.0506 41.3782 39.3146 41.2532 39.6273V41.8434C41.3852 42.1561 41.6492 42.4201 42.0452 42.6285C42.4412 42.8369 42.8997 42.9411 43.4207 42.9411C43.775 42.9411 44.1016 42.8855 44.4003 42.7813C44.699 42.6771 44.9491 42.5243 45.1575 42.3298C45.3729 42.1352 45.5327 41.899 45.6508 41.6211Z" fill="white"/>
<path d="M49.3255 37.8141C49.4783 37.5779 49.6659 37.3695 49.9021 37.1819C50.1314 37.0013 50.3884 36.8485 50.6733 36.7234C50.9511 36.5984 51.2499 36.508 51.5695 36.4386C51.889 36.376 52.2086 36.3413 52.5282 36.3413C53.077 36.3413 53.5772 36.4177 54.0218 36.5636C54.4665 36.7165 54.8555 36.9318 55.1751 37.2097C55.4947 37.4876 55.7517 37.835 55.9254 38.2518C56.106 38.6686 56.1894 39.1411 56.1894 39.6691V44.8934H54.2025V44.1639C54.001 44.4766 53.6814 44.7128 53.2507 44.8726C52.82 45.0323 52.3753 45.1157 51.9238 45.1157C51.4791 45.1157 51.0762 45.0532 50.708 44.9212C50.3398 44.7892 50.0202 44.6086 49.7493 44.3793C49.4714 44.15 49.263 43.8652 49.1101 43.5248C48.9573 43.1844 48.8809 42.8023 48.8809 42.3854C48.8809 41.9408 48.9712 41.5518 49.1449 41.2113C49.3255 40.8709 49.5617 40.5861 49.8674 40.3568C50.1661 40.1276 50.5135 39.9469 50.9095 39.8288C51.3055 39.7107 51.7084 39.6482 52.1322 39.6482C52.6741 39.6482 53.1118 39.7107 53.4522 39.8358C53.7926 39.9608 54.0218 40.0928 54.1399 40.2318V40.0164C54.1399 39.5301 53.9802 39.1411 53.6606 38.8493C53.341 38.5575 52.8755 38.4116 52.2642 38.4116C51.7362 38.4116 51.2568 38.5158 50.833 38.7173C50.4093 38.9187 50.0688 39.1827 49.8187 39.4954L49.3255 37.8141ZM54.1399 41.9061C54.0566 41.7532 53.8621 41.6212 53.5772 41.5101C53.2854 41.3989 52.952 41.3433 52.5768 41.3433C52.0349 41.3433 51.632 41.4267 51.361 41.6004C51.0901 41.7741 50.9581 41.9964 50.9581 42.2812C50.9581 42.5591 51.097 42.7884 51.368 42.9551C51.6459 43.1219 52.0419 43.2052 52.556 43.2052C52.9311 43.2052 53.2646 43.1357 53.5564 43.0037C53.8482 42.8717 54.0427 42.705 54.1399 42.5105V41.9061Z" fill="white"/>
<path d="M65.624 36.5703H67.6109L68.917 44.9001H66.8815L66.159 40.5025L64.2137 44.9001H62.5672L60.6289 40.5025L59.8856 44.9001H57.7944L59.0866 36.5703H60.9346L63.2758 41.8919L65.624 36.5703Z" fill="white"/>
<path d="M72.6061 36.5703V41.5654L76.3716 36.5703H78.4279V44.9001H76.4063V39.905L72.6409 44.9001H70.5845V36.5703H72.6061Z" fill="white"/>
<path d="M91.4959 43.6358C91.2458 44.0457 90.8429 44.3931 90.2801 44.6849C89.7174 44.9767 89.0644 45.1226 88.321 45.1226C87.7374 45.1226 87.1886 45.0114 86.6606 44.796C86.1396 44.5807 85.6741 44.2819 85.2712 43.8929C84.8682 43.5038 84.5486 43.0384 84.3055 42.5034C84.0693 41.9685 83.9512 41.371 83.9512 40.7249C83.9512 40.0788 84.0693 39.4814 84.3055 38.9464C84.5417 38.4045 84.8613 37.946 85.2712 37.557C85.681 37.1679 86.1396 36.8692 86.6606 36.6608C87.1817 36.4524 87.7374 36.3481 88.321 36.3481C89.0644 36.3481 89.7105 36.494 90.2524 36.7858C90.7942 37.0776 91.1902 37.425 91.4264 37.821L90.8429 39.5369C90.6275 39.2799 90.3218 39.0437 89.9189 38.8422C89.5229 38.6407 89.0644 38.5365 88.5433 38.5365C87.7861 38.5365 87.1886 38.738 86.7301 39.1409C86.2785 39.5439 86.0493 40.0788 86.0493 40.7319C86.0493 41.3919 86.2785 41.9199 86.7301 42.3297C87.1817 42.7396 87.7861 42.9411 88.5433 42.9411C89.0713 42.9411 89.5368 42.8369 89.9328 42.6215C90.3288 42.4062 90.6414 42.17 90.8707 41.9129L91.4959 43.6358Z" fill="white"/>
<path d="M99.4781 38.7518H96.9076V44.9001H94.8582V38.7518H92.2808V36.5703H99.4781V38.7518Z" fill="white"/>
<path d="M100.708 37.8141C100.861 37.5779 101.048 37.3695 101.284 37.1819C101.514 37.0013 101.771 36.8485 102.056 36.7234C102.333 36.5984 102.632 36.508 102.952 36.4386C103.271 36.376 103.591 36.3413 103.911 36.3413C104.459 36.3413 104.96 36.4177 105.404 36.5636C105.849 36.7165 106.238 36.9318 106.557 37.2097C106.877 37.4876 107.134 37.835 107.308 38.2518C107.488 38.6686 107.572 39.1411 107.572 39.6691V44.8934H105.585V44.1639C105.376 44.4766 105.064 44.7128 104.633 44.8726C104.202 45.0323 103.758 45.1157 103.306 45.1157C102.861 45.1157 102.459 45.0532 102.09 44.9212C101.722 44.7892 101.403 44.6086 101.132 44.3793C100.854 44.15 100.645 43.8652 100.492 43.5248C100.34 43.1844 100.263 42.8023 100.263 42.3854C100.263 41.9408 100.353 41.5518 100.527 41.2113C100.708 40.8709 100.944 40.5861 101.25 40.3568C101.548 40.1276 101.896 39.9469 102.292 39.8288C102.688 39.7107 103.091 39.6482 103.515 39.6482C104.056 39.6482 104.494 39.7107 104.834 39.8358C105.175 39.9608 105.404 40.0928 105.522 40.2318V40.0164C105.522 39.5301 105.362 39.1411 105.043 38.8493C104.723 38.5575 104.258 38.4116 103.647 38.4116C103.119 38.4116 102.639 38.5158 102.215 38.7173C101.792 38.9187 101.451 39.1827 101.201 39.4954L100.708 37.8141ZM105.529 41.9061C105.446 41.7532 105.251 41.6212 104.966 41.5101C104.675 41.3989 104.341 41.3433 103.966 41.3433C103.424 41.3433 103.021 41.4267 102.757 41.6004C102.486 41.7741 102.354 41.9964 102.354 42.2812C102.354 42.5591 102.493 42.7884 102.764 42.9551C103.042 43.1219 103.438 43.2052 103.952 43.2052C104.327 43.2052 104.661 43.1357 104.953 43.0037C105.244 42.8717 105.439 42.705 105.536 42.5105V41.9061H105.529Z" fill="white"/>
<path d="M111.656 36.5703V39.5299H115.311V36.5703H117.36V44.9001H115.311V41.7113H111.656V44.9001H109.6V36.5703H111.656Z" fill="white"/>
<path d="M127.691 40.7458C127.691 41.3849 127.573 41.9685 127.337 42.4965C127.101 43.0314 126.781 43.4899 126.378 43.879C125.975 44.268 125.51 44.5737 124.982 44.7891C124.454 45.0114 123.891 45.1226 123.3 45.1226C122.71 45.1226 122.147 45.0114 121.619 44.7891C121.091 44.5668 120.626 44.2611 120.223 43.879C119.82 43.4899 119.5 43.0314 119.257 42.4965C119.021 41.9615 118.903 41.378 118.903 40.7458C118.903 40.1205 119.021 39.5369 119.257 39.002C119.493 38.4601 119.813 37.9946 120.223 37.6056C120.626 37.2096 121.091 36.9039 121.619 36.6816C122.147 36.4593 122.71 36.3481 123.3 36.3481C123.891 36.3481 124.454 36.4593 124.982 36.6816C125.51 36.9039 125.975 37.2096 126.378 37.6056C126.781 38.0016 127.101 38.4671 127.337 39.002C127.573 39.5369 127.691 40.1205 127.691 40.7458ZM121.147 39.8426C121.029 40.1205 120.966 40.4192 120.966 40.7388C120.966 41.0653 121.022 41.3571 121.147 41.6281C121.265 41.899 121.432 42.1283 121.64 42.3228C121.848 42.5173 122.099 42.6702 122.383 42.7744C122.668 42.8786 122.974 42.9342 123.294 42.9342C123.62 42.9342 123.919 42.8786 124.197 42.7744C124.475 42.6632 124.725 42.5173 124.933 42.3228C125.141 42.1283 125.308 41.899 125.433 41.6281C125.558 41.3571 125.621 41.0653 125.621 40.7388C125.621 40.4192 125.558 40.1136 125.433 39.8426C125.308 39.5647 125.141 39.3355 124.933 39.1409C124.725 38.9464 124.475 38.7936 124.197 38.6894C123.919 38.5852 123.613 38.5296 123.294 38.5296C122.974 38.5296 122.668 38.5852 122.383 38.6894C122.099 38.7936 121.848 38.9464 121.64 39.1409C121.432 39.3355 121.265 39.5717 121.147 39.8426Z" fill="white"/>
<path d="M132.429 36.5703C132.853 36.5703 133.242 36.6189 133.61 36.7162C133.979 36.8135 134.291 36.9594 134.562 37.1608C134.833 37.3623 135.041 37.6055 135.201 37.9042C135.361 38.2029 135.437 38.5503 135.437 38.9463C135.437 39.2936 135.389 39.5715 135.285 39.7938C135.18 40.0162 135.028 40.2246 134.826 40.4191C135.139 40.6206 135.396 40.8776 135.597 41.1903C135.799 41.4959 135.896 41.885 135.896 42.3643C135.896 42.7742 135.813 43.1355 135.646 43.4481C135.479 43.7607 135.257 44.0247 134.972 44.2401C134.694 44.4555 134.368 44.6222 133.992 44.7334C133.617 44.8445 133.228 44.9001 132.818 44.9001H129.227V36.5703H132.429ZM131.2 38.4808V39.8911H132.652C132.902 39.8911 133.096 39.8216 133.235 39.6827C133.374 39.5437 133.444 39.384 133.444 39.1964C133.444 39.0019 133.374 38.8351 133.235 38.6962C133.096 38.5572 132.895 38.4878 132.638 38.4878H131.2V38.4808ZM131.2 41.5515V42.9896H133.089C133.325 42.9896 133.513 42.9201 133.659 42.7881C133.798 42.6561 133.867 42.4755 133.867 42.2601C133.867 42.0795 133.798 41.9128 133.659 41.7669C133.52 41.621 133.325 41.5515 133.075 41.5515H131.2Z" fill="white"/>
<path d="M143.44 36.5703V44.9001H141.384V42.4269H140.703L139.022 44.9001H136.646L138.536 42.1212C138.049 41.8711 137.674 41.5307 137.403 41.0999C137.132 40.6692 137 40.1482 137 39.5299C137 39.0644 137.084 38.6545 137.243 38.2863C137.403 37.9181 137.626 37.6124 137.903 37.3554C138.181 37.1053 138.515 36.9107 138.904 36.7718C139.293 36.6398 139.71 36.5703 140.147 36.5703H143.44ZM140.002 38.6406C139.696 38.6406 139.46 38.7309 139.293 38.9046C139.119 39.0852 139.036 39.2936 139.036 39.5437C139.036 39.8008 139.126 40.0092 139.314 40.169C139.494 40.3288 139.731 40.4052 140.008 40.4052H141.398V38.6406H140.002Z" fill="white"/>
<path d="M151.979 38.7518H149.408V44.9001H147.359V38.7518H144.781V36.5703H151.979V38.7518Z" fill="white"/>
<path d="M160.239 43.6358C159.989 44.0457 159.586 44.3931 159.023 44.6849C158.461 44.9767 157.808 45.1226 157.064 45.1226C156.481 45.1226 155.932 45.0114 155.404 44.796C154.883 44.5807 154.417 44.2819 154.014 43.8929C153.611 43.5038 153.292 43.0384 153.049 42.5034C152.812 41.9685 152.694 41.371 152.694 40.7249C152.694 40.0788 152.812 39.4814 153.049 38.9464C153.285 38.4045 153.604 37.946 154.014 37.557C154.424 37.1679 154.883 36.8692 155.404 36.6608C155.925 36.4524 156.481 36.3481 157.064 36.3481C157.808 36.3481 158.454 36.494 158.996 36.7858C159.537 37.0776 159.933 37.425 160.17 37.821L159.586 39.5369C159.371 39.2799 159.065 39.0437 158.662 38.8422C158.266 38.6407 157.808 38.5365 157.286 38.5365C156.529 38.5365 155.932 38.738 155.473 39.1409C155.022 39.5439 154.792 40.0788 154.792 40.7319C154.792 41.3919 155.022 41.9199 155.473 42.3297C155.925 42.7396 156.529 42.9411 157.286 42.9411C157.814 42.9411 158.28 42.8369 158.676 42.6215C159.072 42.4062 159.385 42.17 159.614 41.9129L160.239 43.6358Z" fill="white"/>
<path d="M167.825 36.5703V44.9001H165.769V42.4269H165.088L163.407 44.9001H161.031L162.92 42.1212C162.434 41.8711 162.059 41.5307 161.788 41.0999C161.517 40.6692 161.385 40.1482 161.385 39.5299C161.385 39.0644 161.468 38.6545 161.628 38.2863C161.788 37.9181 162.01 37.6124 162.288 37.3554C162.566 37.1053 162.907 36.9107 163.289 36.7718C163.678 36.6398 164.095 36.5703 164.532 36.5703H167.825ZM164.379 38.6406C164.074 38.6406 163.837 38.7309 163.671 38.9046C163.497 39.0852 163.414 39.2936 163.414 39.5437C163.414 39.8008 163.504 40.0092 163.692 40.169C163.872 40.3288 164.108 40.4052 164.386 40.4052H165.776V38.6406H164.379Z" fill="white"/>
<path d="M5.43987 36.5773L8.88572 44.907L6.41249 44.9001L4.45336 40.0162L2.50117 44.9001H0.0209961L3.47379 36.5703L5.43987 36.5773Z" fill="white"/>
</g>
<defs>
<clipPath id="clip0">
<rect width="246.01" height="48.3392" fill="white"/>
</clipPath>
</defs>
</svg>
