<svg width="254" height="67" fill="none" xmlns="http://www.w3.org/2000/svg"><path d="M4.58 47.5a10 10 0 013.18.48c.98.33 1.8.82 2.54 1.48.73.65 1.22 1.4 1.63 2.3.41.9.57 1.96.57 3.2a6.85 6.85 0 01-4.74 6.89 10 10 0 01-3.18.48H0V47.49h4.58zm5.64 7.37a4.82 4.82 0 00-1.31-3.44c-.41-.41-.98-.82-1.55-1.07a5.48 5.48 0 00-1.97-.33H2.3v9.76H5.3c.66 0 1.31-.09 1.96-.33a5.03 5.03 0 001.56-.98c.4-.41.81-.9 1.06-1.56.24-.66.33-1.31.33-2.05zM19.86 60.28c.65 0 1.3-.17 1.88-.41a2.77 2.77 0 001.3-.98l.66 1.72c-.16.24-.33.49-.57.73-.25.25-.57.41-.9.66-.33.16-.74.33-1.14.41-.41.08-.9.16-1.4.16-.81 0-1.47-.16-2.2-.4a6.07 6.07 0 01-1.72-1.07c-.49-.5-.9-1.07-1.14-1.72a6.75 6.75 0 01-.08-4.43c.24-.65.57-1.23 1.06-1.72.49-.5.98-.9 1.63-1.23a4.83 4.83 0 012.21-.41c.74 0 1.47.16 2.04.41.66.33 1.15.66 1.56 1.23.4.5.73 1.07.98 1.72.24.66.32 1.4.32 2.13 0 .33 0 .58-.08.82h-7.84c.08.82.49 1.4 1.06 1.8.73.33 1.47.58 2.37.58zm2.29-4.43a1.91 1.91 0 00-.82-1.4 3.13 3.13 0 00-1.8-.56c-.32 0-.65.08-.98.16-.33.08-.57.25-.82.4-.24.17-.49.42-.65.66-.16.25-.24.5-.33.82h5.4v-.08zM26.32 56.92c0-.82.16-1.56.4-2.21.25-.58.66-1.15 1.15-1.64a5.68 5.68 0 013.76-1.48c.81 0 1.47.16 2.04.41.57.25.98.57 1.14.98v-1.14h2.13v10.49a4.57 4.57 0 01-1.3 3.36c-.42.4-.99.74-1.64.9-.66.25-1.31.33-2.13.33-.49 0-.98-.08-1.47-.17a6.1 6.1 0 01-1.3-.4c-.41-.17-.74-.42-1.07-.66-.33-.25-.57-.5-.73-.82l.65-2.05a4.7 4.7 0 003.6 1.72c.32 0 .65 0 1.06-.08.33-.08.65-.25.98-.41.33-.16.57-.5.73-.82.17-.33.33-.82.33-1.4v-.9c-.16.41-.57.74-1.14.99-.57.24-1.23.4-2.05.4a5.68 5.68 0 01-3.76-1.47c-.49-.49-.9-1.06-1.14-1.72a9.17 9.17 0 01-.24-2.21zm3.1-2.13c-.57.49-.9 1.23-.9 2.13 0 .9.33 1.64.9 2.13.57.57 1.39.82 2.37.82.65 0 1.3-.16 1.8-.41.57-.33.9-.66 1.06-1.07v-2.87a2.23 2.23 0 00-1.06-1.06 3.42 3.42 0 00-1.8-.41c-.98-.08-1.8.16-2.37.74zM45.93 54.46a1.32 1.32 0 00-.57-.33 2.41 2.41 0 00-.82-.16c-.33 0-.65.08-.9.16-.24.08-.49.25-.65.41-.25.17-.41.41-.5.66-.08.24-.16.49-.24.65v6.48h-2.2v-10.5h2.12v1.4c.16-.5.4-.9.82-1.23.4-.33.9-.41 1.55-.41.4 0 .74.08 1.06.25.33.16.5.32.66.57l-.33 2.05zM52.96 60.28c.65 0 1.3-.17 1.88-.41a2.77 2.77 0 001.3-.98l.66 1.72c-.16.24-.33.49-.57.73-.25.25-.58.41-.9.66-.33.16-.74.33-1.15.41-.4.08-.9.16-1.39.16-.81 0-1.47-.16-2.2-.4a6.07 6.07 0 01-1.72-1.07c-.49-.5-.9-1.07-1.14-1.72a6.75 6.75 0 01-.08-4.43c.24-.65.57-1.23 1.06-1.72.49-.5.98-.9 1.63-1.23a4.83 4.83 0 012.2-.41c.74 0 1.48.16 2.05.41.66.33 1.15.66 1.55 1.23.41.5.74 1.07.99 1.72.24.66.32 1.4.32 2.13 0 .33 0 .58-.08.82h-7.85c.09.82.5 1.4 1.07 1.8.73.33 1.47.58 2.37.58zm2.29-4.43a1.91 1.91 0 00-.82-1.4 3.13 3.13 0 00-1.8-.56c-.33 0-.65.08-.98.16-.33.08-.57.25-.82.4a2.5 2.5 0 00-.65.66c-.16.25-.25.5-.33.82h5.4v-.08zM64.97 60.28c.65 0 1.3-.17 1.88-.41a2.77 2.77 0 001.3-.98l.66 1.72c-.16.24-.33.49-.57.73-.25.25-.57.41-.9.66a6.33 6.33 0 01-2.45.57c-.82 0-1.47-.16-2.2-.4a6.07 6.07 0 01-1.72-1.07c-.5-.5-.9-1.07-1.15-1.72a6.75 6.75 0 01-.08-4.43c.25-.65.57-1.23 1.06-1.72.5-.5.98-.9 1.64-1.23a4.83 4.83 0 012.2-.41c.74 0 1.47.16 2.05.41a4.7 4.7 0 011.55 1.23c.4.5.74 1.07.98 1.72.25.66.33 1.4.33 2.13 0 .33 0 .58-.08.82h-7.85c.08.82.5 1.4 1.06 1.8.66.33 1.4.58 2.3.58zm2.29-4.43a1.91 1.91 0 00-.82-1.4 3.13 3.13 0 00-1.8-.56c-.32 0-.65.08-.98.16-.32.08-.57.25-.81.4a2.5 2.5 0 00-.66.66c-.16.25-.24.5-.32.82h5.39v-.08zM87.36 54.87c.33.65.41 1.4.41 2.21 0 .82-.16 1.48-.4 2.22a4.25 4.25 0 01-1.15 1.72c-.5.49-1.06.9-1.72 1.14-.65.25-1.3.41-2.04.41s-1.39-.16-2.04-.4a4.87 4.87 0 01-1.72-1.15c-.49-.5-.9-1.07-1.14-1.72a6.27 6.27 0 010-4.43c.24-.74.65-1.23 1.14-1.72.5-.5 1.06-.9 1.72-1.15.65-.25 1.3-.41 2.04-.41s1.39.16 2.04.41c.66.25 1.23.66 1.72 1.15.49.49.9 1.06 1.14 1.72zm-8.09 2.21c0 .5.08.9.25 1.23a2.95 2.95 0 001.63 1.64 3.27 3.27 0 002.45 0c.41-.16.74-.33.98-.65.25-.25.5-.58.66-.99a3.4 3.4 0 000-2.54 2.95 2.95 0 00-1.64-1.64 3.27 3.27 0 00-2.45 0c-.4.17-.73.33-.98.66-.24.32-.49.57-.65.98a3.4 3.4 0 00-.25 1.31zM96.6 50.11a2.94 2.94 0 00-.82-.57 2.26 2.26 0 00-1.06-.24c-.41 0-.74.16-1.06.4-.33.25-.5.66-.5 1.23v.9h3.44v2.38h-3.43v8.12h-2.21V54.2h-1.88v-2.37h1.88v-1.32c0-1.14.33-1.96.9-2.62.57-.65 1.47-.9 2.53-.9.57 0 1.15.08 1.55.33.5.24.74.49.99.9l-.33 1.88zM103.22 47.5h2.61l3.2 5.9 3.18-5.9h2.7l-4.66 8.68v6.15h-2.37v-6.15l-4.66-8.69zM124.71 54.87c.33.65.41 1.4.41 2.21 0 .82-.16 1.48-.4 2.22a4.26 4.26 0 01-1.15 1.72c-.5.49-1.06.9-1.72 1.14-.65.25-1.3.41-2.04.41s-1.4-.16-2.05-.4a4.86 4.86 0 01-1.71-1.15c-.5-.5-.9-1.07-1.14-1.72a6.28 6.28 0 010-4.43c.24-.74.65-1.23 1.14-1.72.49-.5 1.06-.9 1.72-1.15.65-.25 1.3-.41 2.04-.41.73 0 1.39.16 2.04.41.66.25 1.23.66 1.72 1.15.4.49.82 1.06 1.14 1.72zm-8.17 2.21c0 .5.08.9.24 1.23a2.96 2.96 0 001.64 1.64 3.27 3.27 0 002.45 0c.4-.16.74-.33.98-.65.25-.25.5-.58.66-.99a3.4 3.4 0 000-2.54 2.94 2.94 0 00-1.64-1.64 3.28 3.28 0 00-2.45 0c-.41.17-.74.33-.98.66-.25.32-.5.57-.66.98-.16.41-.24.82-.24 1.31zM131.82 62.57c-.57 0-1.06-.08-1.63-.24-.57-.17-.98-.5-1.47-.82-.41-.41-.74-.9-.98-1.48a5.5 5.5 0 01-.41-2.13v-6.06h2.2v5.73a3 3 0 00.66 1.97 2.75 2.75 0 003.35.16c.49-.32.81-.73.9-1.3v-6.56h2.2v10.49h-2.12v-1.15c-.17.41-.5.74-.98.98a3.1 3.1 0 01-1.72.41zM145.8 54.46c-.17-.16-.41-.25-.58-.33-.24-.08-.49-.16-.81-.16-.33 0-.66.08-.9.16-.25.08-.5.25-.66.41-.16.17-.32.41-.49.57-.08.25-.16.5-.24.66v6.48h-2.2V51.84h2.12v1.39c.16-.5.4-.9.81-1.23.41-.33.9-.41 1.56-.41.4 0 .73.08 1.06.25.33.16.49.32.65.57l-.32 2.05zM153.97 47.5h8v2.53h-5.71v3.45h5.06v2.54h-5.06v3.85h5.72v2.54h-8.01V47.49zM166.23 62.33h-2.78l4-5.58-3.6-4.91h2.7l2.21 3.11 2.2-3.11h2.79l-3.52 4.91 4 5.58h-2.69l-2.61-3.7-2.7 3.7zM184.13 60.77c-.17.25-.33.5-.58.74-.24.24-.57.4-.9.57-.32.17-.73.33-1.14.41a5.67 5.67 0 01-3.43-.25 4.86 4.86 0 01-1.72-1.14c-.49-.5-.9-1.07-1.22-1.72-.33-.66-.41-1.4-.41-2.22 0-.82.16-1.55.4-2.2.25-.67.66-1.24 1.23-1.73.5-.5 1.06-.82 1.72-1.15.65-.33 1.3-.4 2.04-.4.9 0 1.72.16 2.45.57.66.32 1.15.82 1.4 1.23l-.66 1.88a2.99 2.99 0 00-1.23-.9 3.79 3.79 0 00-1.71-.41c-1.07 0-1.88.24-2.54.82a2.81 2.81 0 00-.98 2.21c0 .9.33 1.72.98 2.3.66.57 1.47.82 2.54.82.65 0 1.22-.17 1.71-.41.5-.25.9-.58 1.23-.9l.81 1.88zM191.32 60.28c.65 0 1.3-.17 1.88-.41a2.77 2.77 0 001.3-.98l.66 1.72c-.16.24-.33.49-.57.73-.25.25-.58.41-.9.66a6.32 6.32 0 01-2.45.57 6.6 6.6 0 01-2.21-.4 6.06 6.06 0 01-1.72-1.07c-.49-.5-.9-1.07-1.14-1.72a6.75 6.75 0 01-.08-4.43c.24-.65.57-1.23 1.06-1.72.49-.5.98-.9 1.63-1.23a4.83 4.83 0 012.21-.41c.74 0 1.47.16 2.04.41.66.33 1.15.66 1.56 1.23.4.57.73 1.07.98 1.72.24.66.32 1.4.32 2.13 0 .33 0 .58-.08.82h-7.84c.08.82.49 1.4 1.06 1.8.65.33 1.39.58 2.29.58zm2.29-4.43a1.92 1.92 0 00-.82-1.4 3.14 3.14 0 00-1.8-.56c-.33 0-.65.08-.98.16-.33.08-.57.25-.82.4-.24.17-.49.42-.65.66-.16.25-.25.5-.33.82h5.4v-.08zM198.43 47.25h2.2v15h-2.2v-15zM203.74 47.25h2.2v15h-2.2v-15zM214.04 60.28c.65 0 1.3-.17 1.88-.41a2.77 2.77 0 001.3-.98l.66 1.72c-.17.24-.33.49-.57.73-.25.25-.58.41-.9.66a4.7 4.7 0 01-1.15.41c-.4.08-.9.16-1.39.16a6.6 6.6 0 01-2.2-.4 6.09 6.09 0 01-1.72-1.07c-.49-.5-.9-1.07-1.14-1.72a6.75 6.75 0 01-.09-4.43c.25-.65.58-1.23 1.07-1.72.49-.5.98-.9 1.63-1.23a4.83 4.83 0 012.2-.41c.74 0 1.48.16 2.05.41.66.33 1.15.66 1.55 1.23.41.57.74 1.07.98 1.72.25.66.33 1.4.33 2.13 0 .33 0 .58-.08.82h-7.85c.09.82.5 1.4 1.07 1.8.73.33 1.47.58 2.37.58zm2.28-4.43a1.92 1.92 0 00-.81-1.4 3.14 3.14 0 00-1.8-.56c-.33 0-.65.08-.98.16-.33.08-.57.25-.82.4-.24.17-.49.42-.65.66-.17.25-.25.5-.33.82h5.4v-.08zM226.05 51.59c.57 0 1.06.08 1.63.25.58.16.98.49 1.48.82.49.32.73.9 1.06 1.47.24.58.4 1.31.4 2.13v5.99h-2.2V56.5c0-.82-.24-1.48-.73-1.97a2.76 2.76 0 00-3.35-.16c-.5.33-.82.73-.9 1.3v6.57h-2.21V51.84h2.12v1.14c.17-.4.5-.73.98-.98.33-.33.98-.41 1.72-.41zM242.23 60.77c-.16.25-.32.5-.57.74-.25.24-.57.4-.9.57-.33.17-.73.33-1.14.41a5.68 5.68 0 01-3.43-.25 4.86 4.86 0 01-1.72-1.14c-.5-.5-.9-1.07-1.23-1.72-.33-.66-.4-1.4-.4-2.22 0-.82.16-1.55.4-2.2.25-.67.66-1.24 1.23-1.73.49-.5 1.06-.82 1.71-1.15.66-.33 1.31-.4 2.05-.4.9 0 1.71.16 2.45.57.65.32 1.14.82 1.39 1.23l-.66 1.88a3 3 0 00-1.22-.9 3.8 3.8 0 00-1.72-.41c-1.06 0-1.88.24-2.53.82a2.81 2.81 0 00-.98 2.21c0 .9.32 1.72.98 2.3.65.57 1.47.82 2.53.82a3.8 3.8 0 001.72-.41c.49-.25.9-.58 1.22-.9l.82 1.88zM249.42 60.28c.66 0 1.31-.17 1.88-.41a2.77 2.77 0 001.31-.98l.65 1.72c-.16.24-.32.49-.57.73-.24.25-.57.41-.9.66-.32.16-.73.33-1.14.41-.4.08-.9.16-1.39.16-.82 0-1.47-.16-2.2-.4a6.08 6.08 0 01-1.72-1.07c-.5-.5-.9-1.07-1.15-1.72a6.75 6.75 0 01-.08-4.43c.25-.65.57-1.23 1.06-1.72.5-.5.99-.9 1.64-1.23a4.83 4.83 0 012.2-.41c.74 0 1.48.16 2.05.41.65.33 1.14.66 1.55 1.23.41.57.74 1.07.98 1.72.25.66.33 1.4.33 2.13 0 .33 0 .58-.08.82h-7.85c.08.82.5 1.4 1.06 1.8.66.33 1.47.58 2.37.58zm2.3-4.43a1.92 1.92 0 00-.82-1.4 3.14 3.14 0 00-1.8-.56c-.33 0-.66.08-.98.16-.33.08-.58.25-.82.4-.25.17-.5.42-.66.66-.16.25-.24.5-.32.82h5.4v-.08z" fill="#F32735"/><path d="M5.89 39H0V9.85h5.69v2.13a4.48 4.48 0 012.16-1.93 9.22 9.22 0 014.09-.8c1.38 0 2.7.27 3.96.8a10.4 10.4 0 015.65 5.7c.59 1.34.88 2.83.88 4.46 0 1.64-.3 3.13-.88 4.47a10.85 10.85 0 01-2.29 3.48c-.96.95-2.08 1.69-3.36 2.22-1.25.52-2.58.79-3.96.79a8.7 8.7 0 01-3.89-.8 4.48 4.48 0 01-2.16-1.93V39zm0-16.38c.3.69.9 1.26 1.84 1.7.93.45 2 .68 3.2.68 1.63 0 2.95-.45 3.97-1.35a4.34 4.34 0 001.56-3.44c0-1.4-.52-2.54-1.56-3.44a5.77 5.77 0 00-3.97-1.34c-1.2 0-2.27.22-3.2.67a3.53 3.53 0 00-1.84 1.7v4.82zM38.69 16.26a4.3 4.3 0 00-1.17-.56 4.12 4.12 0 00-1.56-.27c-1.04 0-1.93.26-2.68.79a3.77 3.77 0 00-1.52 2.3v12.06h-5.9V9.85h5.7v2.73c.32-1 .88-1.8 1.68-2.41a4.7 4.7 0 012.92-.91c.78 0 1.47.17 2.08.51.62.32 1.05.69 1.29 1.1l-.84 5.39zM42.12 9.85H48v20.73h-5.9V9.85zm.2-3.36a3.7 3.7 0 01-1.08-2.7 3.73 3.73 0 013.8-3.8c1.07.01 1.98.38 2.73 1.12a3.64 3.64 0 011.12 2.69c0 1.05-.38 1.95-1.12 2.69a3.8 3.8 0 01-2.73 1.06 3.8 3.8 0 01-2.72-1.06zM58.57 10.09c1.37-.56 2.8-.83 4.33-.83a11.63 11.63 0 017.93 3.12 10.5 10.5 0 013.4 7.83c0 1.58-.3 3.05-.92 4.4a10.95 10.95 0 01-6.08 5.73c-1.37.55-2.8.83-4.33.83-1.52 0-2.96-.28-4.33-.83a10.94 10.94 0 01-6.09-5.74c-.6-1.34-.91-2.8-.91-4.39a10.44 10.44 0 013.4-7.83 11.63 11.63 0 013.6-2.3zm2.25 14.55a6.17 6.17 0 005.84-.95 4.48 4.48 0 001.16-5.42c-.26-.6-.65-1.1-1.16-1.5a5.83 5.83 0 00-3.76-1.34 5.85 5.85 0 00-3.8 1.34 4.4 4.4 0 00-1.57 3.44c0 .71.14 1.37.4 1.98.3.58.68 1.08 1.17 1.5.5.4 1.08.71 1.72.95zM90.48 16.26a4.3 4.3 0 00-1.16-.56 4.12 4.12 0 00-1.57-.27c-1.04 0-1.93.26-2.68.79a3.77 3.77 0 00-1.52 2.3v12.06h-5.89V9.85h5.69v2.73c.32-1 .88-1.8 1.68-2.41a4.7 4.7 0 012.93-.91c.77 0 1.46.17 2.08.51.61.32 1.04.69 1.28 1.1l-.84 5.39zM93.91 9.85h5.89v20.73h-5.89V9.85zm.2-3.36a3.7 3.7 0 01-1.08-2.7 3.73 3.73 0 013.8-3.8c1.07.01 1.98.38 2.73 1.12a3.64 3.64 0 011.12 2.69c0 1.05-.37 1.95-1.12 2.69a3.8 3.8 0 01-2.72 1.06A3.8 3.8 0 0194.1 6.5zM118.62 28.87a6.25 6.25 0 01-2.2 1.67c-.91.42-2 .63-3.25.63-2.38 0-4.14-.66-5.29-1.98a7.55 7.55 0 01-1.72-5.14v-8.11h-3.56v-1.66l8-9.65h1.45v5.22h6.29v6.09h-6.3v6.76c0 .85.22 1.44.65 1.78.45.35.99.52 1.6.52a4.3 4.3 0 003.09-1.47l1.24 5.34zM120.17 9.85h6.33l5 11.63 5.01-11.63H143L130.42 39h-6.4l4.36-10.09-8.2-19.06z" fill="#343434"/><path d="M153.27 13.94c-.53 0-.97.1-1.41.27-.45.18-.8.35-1.24.62-.35.26-.7.53-.97.88l-.8 1.06L147 13.5a5.38 5.38 0 012.2-3.18c.54-.44 1.24-.7 1.95-.97.7-.26 1.5-.35 2.38-.35 1.15 0 2.12.18 2.92.53.88.35 1.59.8 2.12 1.41a5.36 5.36 0 011.32 2.12 5 5 0 01.62 2.56 7.75 7.75 0 01-1.06 3.98c-.35.61-.8 1.23-1.32 1.85-.53.62-1.15 1.32-1.77 2.12l-2.12 2.38h6.71v4.86h-13.77v-3.7l6.09-6.63c.44-.44.8-.88 1.15-1.24.35-.35.62-.7.8-1.06.17-.35.34-.62.43-.97.1-.26.18-.62.18-1.06 0-.62-.27-1.15-.7-1.59-.45-.44-1.07-.62-1.86-.62zM170.05 9.88c1.32-.53 2.82-.8 4.32-.8 1.5 0 3 .27 4.33.8a12 12 0 013.62 2.3 11.1 11.1 0 012.47 3.53c.62 1.41.88 2.91.88 4.5 0 1.68-.26 3.18-.88 4.5a11 11 0 01-6.1 5.83 12.12 12.12 0 01-8.64 0 11 11 0 01-6.1-5.82 10.8 10.8 0 01-.88-4.5c0-1.68.27-3.18.88-4.5a10.18 10.18 0 012.48-3.54 10.5 10.5 0 013.62-2.3zm4.32 16.6a6.6 6.6 0 006.1-3.7 6.34 6.34 0 00-1.41-7.15 8.59 8.59 0 00-2.13-1.33 6.27 6.27 0 00-2.56-.44c-.97 0-1.76.17-2.65.44-.8.35-1.5.7-2.12 1.32a5.6 5.6 0 00-1.4 2.03c-.36.8-.54 1.6-.54 2.56a6.03 6.03 0 001.94 4.5 8.6 8.6 0 002.12 1.33 6.7 6.7 0 002.65.44zM193.18 26.57c.97 0 1.77-.26 2.3-.7.61-.45.88-1.06.88-1.86 0-.7-.27-1.24-.8-1.68a3.19 3.19 0 00-2.12-.62c-.61 0-1.14.1-1.59.18-.44.18-.79.27-.97.44l-.7-3.35 3.7-4.6h-5.91V9.54h12v3.53l-3.61 4.5a6.48 6.48 0 013.18 1.85c.53.54.88 1.16 1.15 1.95a8.62 8.62 0 01-.1 5.65 7.05 7.05 0 01-4.06 3.98 9.36 9.36 0 01-5.65.35 5.9 5.9 0 01-1.85-.8c-.53-.35-.97-.7-1.32-1.05-.36-.45-.62-.8-.8-1.24l1.06-3.97c.62.7 1.32 1.23 2.12 1.76.62.27 1.76.53 3.09.53zM210.04 9.88c1.33-.53 2.83-.8 4.33-.8s3 .27 4.33.8a12 12 0 013.62 2.3 11.1 11.1 0 012.47 3.53c.62 1.41.88 2.91.88 4.5 0 1.68-.26 3.18-.88 4.5a11 11 0 01-6.1 5.83 12.12 12.12 0 01-8.65 0 11 11 0 01-6.09-5.82 10.8 10.8 0 01-.88-4.5c0-1.68.26-3.18.88-4.5a10.18 10.18 0 012.48-3.54 10.5 10.5 0 013.61-2.3zm4.33 16.6a6.6 6.6 0 006.1-3.7c.35-.8.52-1.6.52-2.57a6.34 6.34 0 00-1.94-4.59 8.59 8.59 0 00-2.12-1.32 6.27 6.27 0 00-2.56-.44c-.97 0-1.77.17-2.65.44-.8.35-1.5.7-2.12 1.32a5.6 5.6 0 00-1.4 2.03c-.36.8-.54 1.6-.54 2.56a6.03 6.03 0 001.94 4.5 8.6 8.6 0 002.12 1.33c.88.35 1.77.44 2.65.44z" fill="#F32735"/></svg>
