<svg width="479" height="92" viewBox="0 0 479 92" fill="none" xmlns="http://www.w3.org/2000/svg"><g clip-path="url(#clip0)"><path d="M30.56 5.54v32.73h-8.11V14.2H8.25v24.2H.13V5.55h30.43zM71 14.88a17.17 17.17 0 011.35 7.03 17.17 17.17 0 01-5 12.44 15.68 15.68 0 01-5.28 3.52 16.44 16.44 0 01-6.22 1.21c-2.43 0-4.46-.4-6.22-1.21-1.76-.82-2.84-1.9-3.38-3.12v16.9h-8.11V5.56h7.84v3.38c.54-1.22 1.76-2.3 3.52-3.12a14.58 14.58 0 016.22-1.21c2.16 0 4.32.4 6.35 1.21 2.03.95 3.79 2.17 5.28 3.66a16.61 16.61 0 013.65 5.4zm-7.44 10.54c.4-1.08.68-2.3.68-3.51 0-1.22-.27-2.44-.68-3.52a6.53 6.53 0 00-1.9-2.7 7.26 7.26 0 00-2.97-1.76 11.8 11.8 0 00-9.2.54 6.3 6.3 0 00-3.1 3.11v8.66a6.3 6.3 0 003.1 3.1 11.8 11.8 0 009.2.55 9.13 9.13 0 002.98-1.76 6.53 6.53 0 001.89-2.7zM86.14 5.54v19.61l14.88-19.6h8.11v32.72h-7.97v-19.6l-14.88 19.6h-8.11V5.54h7.97zM149.3 21.9c0 2.44-.4 4.74-1.35 6.9a15.6 15.6 0 01-3.79 5.41 19.74 19.74 0 01-5.54 3.66 18.1 18.1 0 01-6.63 1.35c-2.3 0-4.6-.4-6.63-1.35a16.47 16.47 0 01-5.54-3.66 18.63 18.63 0 01-3.79-5.4 16.96 16.96 0 01-1.35-6.9 16.96 16.96 0 015.14-12.44 19.72 19.72 0 015.54-3.65A18.12 18.12 0 01132 4.46c2.3 0 4.6.4 6.63 1.36 2.02.8 3.92 2.02 5.54 3.65a16.15 16.15 0 013.79 5.54 19.55 19.55 0 011.35 6.9zm-25.83-3.5c-.4 1.07-.68 2.3-.68 3.5 0 1.23.27 2.44.68 3.52a6.54 6.54 0 001.9 2.7 7.27 7.27 0 002.97 1.77c1.08.4 2.3.67 3.65.67 1.22 0 2.43-.27 3.51-.67 1.09-.4 2.03-1.08 2.84-1.76.82-.81 1.5-1.62 2.03-2.7.54-1.09.68-2.17.68-3.52 0-1.22-.27-2.44-.68-3.52a6.82 6.82 0 00-2.03-2.7 7.73 7.73 0 00-2.84-1.76c-1.08-.4-2.3-.68-3.51-.68-1.22 0-2.44.27-3.65.68-1.09.4-2.17 1.08-2.98 1.76-.67.67-1.35 1.62-1.9 2.7zM187.7 14.88a17.18 17.18 0 011.36 7.03 17.18 17.18 0 01-5 12.44 15.67 15.67 0 01-5.28 3.52 16.44 16.44 0 01-6.22 1.21c-2.44 0-4.46-.4-6.22-1.21-1.76-.82-2.84-1.9-3.38-3.12v16.9h-8.12V5.56h7.85v3.38c.54-1.22 1.75-2.3 3.51-3.12a14.59 14.59 0 016.22-1.21c2.17 0 4.33.4 6.36 1.21 2.03.82 3.79 2.03 5.27 3.52a19.74 19.74 0 013.66 5.55zm-7.43 10.54c.4-1.08.67-2.3.67-3.51 0-1.22-.27-2.44-.67-3.52a6.54 6.54 0 00-1.9-2.7 7.26 7.26 0 00-2.97-1.76 11.8 11.8 0 00-9.2.54 6.3 6.3 0 00-3.1 3.11v8.66a6.3 6.3 0 003.1 3.1 11.8 11.8 0 009.2.55 9.13 9.13 0 002.97-1.76c.68-.68 1.36-1.62 1.9-2.7zM202.72 5.54v19.61l14.87-19.6h8.12v32.72h-7.98v-19.6l-14.88 19.6h-8.11V5.54h7.97zM259.24 14.2H249.1v24.2H241V14.2h-10.15V5.54h28.27v8.66h.13zM280.61 31.1c2.03 0 3.92-.4 5.82-1.08a9.06 9.06 0 004.19-2.97l2.43 6.22a11.5 11.5 0 01-4.87 4.19 17.83 17.83 0 01-7.97 1.76c-2.44 0-4.87-.4-6.9-1.22a16.53 16.53 0 01-5.55-3.38 13.71 13.71 0 01-3.65-5.41 17.37 17.37 0 01-1.35-7.17c0-2.3.4-4.6 1.22-6.62.8-2.03 1.9-3.93 3.38-5.55a16.4 16.4 0 015.27-3.78 16.1 16.1 0 016.9-1.36c2.43 0 4.6.54 6.63 1.49 2.02.95 3.65 2.16 5 3.79a18.74 18.74 0 013.25 5.54c.8 2.03 1.08 4.2 1.08 6.5v1.48c0 .54-.14.95-.14 1.35h-24.34a6.65 6.65 0 003.11 4.74c1.9.94 4.06 1.48 6.5 1.48zm6.76-12.84a5.05 5.05 0 00-2.57-3.93 9.12 9.12 0 00-5.13-1.35c-2.03 0-3.8.4-5.28 1.35a5.51 5.51 0 00-2.84 3.93h15.82zM327.54 14.2h-10.15v24.2h-8.1V14.2h-10.15V5.54h28.26v8.66h.14z" fill="#000"/><path d="M343.23 12.3a5.6 5.6 0 00-2.17.41c-.68.27-1.22.54-1.9.95-.53.4-1.07.81-1.48 1.35l-1.22 1.62-2.84-5A8.22 8.22 0 01337 6.76c.81-.67 1.9-1.08 2.98-1.49 1.08-.4 2.3-.54 3.65-.54 1.76 0 3.25.27 4.46.81a8.07 8.07 0 013.25 2.17 8.22 8.22 0 012.03 3.24c.67 1.22.94 2.44.94 3.93 0 1.21-.13 2.3-.4 3.24-.27.95-.68 1.9-1.22 2.84-.54.95-1.22 1.9-2.03 2.84-.8.95-1.76 2.03-2.7 3.25l-3.25 3.65H355v7.44h-21.1v-5.68l9.34-10.15c.67-.67 1.21-1.35 1.75-1.89.54-.54.95-1.08 1.22-1.62s.54-.95.68-1.49c.13-.4.27-.95.27-1.62 0-.95-.4-1.76-1.08-2.44-.68-.67-1.63-.94-2.84-.94zM368.92 6.09a18.02 18.02 0 016.62-1.22c2.3 0 4.6.4 6.63 1.22 2.03.8 3.92 2.02 5.54 3.51a16.98 16.98 0 013.8 5.41 16.96 16.96 0 011.34 6.9c0 2.57-.4 4.87-1.35 6.9a16.84 16.84 0 01-9.33 8.93 18.55 18.55 0 01-13.25-.01 16.85 16.85 0 01-9.33-8.93 16.53 16.53 0 01-1.36-6.9c0-2.56.41-4.86 1.36-6.89a15.6 15.6 0 013.78-5.4 16.09 16.09 0 015.55-3.52zm6.62 25.42c1.36 0 2.7-.27 3.93-.68 1.21-.54 2.3-1.08 3.24-2.03a9.36 9.36 0 002.17-2.97c.54-1.22.8-2.43.8-3.92a9.72 9.72 0 00-2.97-7.03 13.18 13.18 0 00-3.24-2.03 9.6 9.6 0 00-3.93-.68c-1.48 0-2.7.27-4.05.68a10.1 10.1 0 00-3.25 2.03 8.57 8.57 0 00-2.16 3.1 9.25 9.25 0 00-.81 3.93 9.25 9.25 0 002.97 6.9c.95.8 2.03 1.48 3.25 2.02 1.35.54 2.57.68 4.05.68zM404.35 31.65c1.49 0 2.7-.41 3.52-1.09.94-.67 1.35-1.62 1.35-2.84 0-1.08-.4-1.89-1.22-2.57-.8-.67-1.9-.94-3.24-.94-.95 0-1.76.13-2.44.27-.67.27-1.21.4-1.49.67l-1.08-5.13 5.68-7.04h-9.06V5.54h18.4v5.41l-5.55 6.9a9.93 9.93 0 014.87 2.84 7.27 7.27 0 011.76 2.98c.4 1.21.67 2.57.67 4.32 0 1.63-.27 2.98-.81 4.33a10.8 10.8 0 01-6.22 6.09 15.08 15.08 0 01-8.66.54 9.01 9.01 0 01-2.83-1.22 13.28 13.28 0 01-2.03-1.62 7.43 7.43 0 01-1.22-1.9l1.62-6.08c.95 1.08 2.03 1.9 3.25 2.7a13 13 0 004.73.82zM430.18 6.09a18.02 18.02 0 016.63-1.22c2.3 0 4.6.4 6.62 1.22 2.03.8 3.93 2.02 5.55 3.51a16.98 16.98 0 013.78 5.41 16.98 16.98 0 011.36 6.9c0 2.57-.4 4.87-1.36 6.9a16.86 16.86 0 01-9.33 8.93 18.55 18.55 0 01-13.25-.01 16.85 16.85 0 01-9.33-8.93 16.54 16.54 0 01-1.35-6.9c0-2.56.4-4.86 1.35-6.89a15.6 15.6 0 013.79-5.4 16.09 16.09 0 015.54-3.52zm6.63 25.42c1.35 0 2.7-.27 3.92-.68a10.1 10.1 0 003.24-2.03 9.25 9.25 0 002.98-6.9 9.7 9.7 0 00-2.98-7.02 13.15 13.15 0 00-3.24-2.03 9.6 9.6 0 00-3.92-.68c-1.5 0-2.7.27-4.06.68-1.22.54-2.3 1.08-3.25 2.03a8.58 8.58 0 00-2.16 3.1 9.25 9.25 0 00-.81 3.93 9.25 9.25 0 002.97 6.9c.95.8 2.03 1.48 3.25 2.02 1.35.54 2.7.68 4.06.68zM471.56 0h-6.63l-7.57 13.12H464L471.56 0z" fill="#F32735"/><path d="M464.94 0h6.62L479 13.12h-6.5L464.95 0zM21.5 83.3A7.52 7.52 0 0118 86.55a12.73 12.73 0 01-5.82 1.35 11.4 11.4 0 01-4.73-.94 13.15 13.15 0 01-3.92-2.57 12.53 12.53 0 01-2.7-4.06A15.75 15.75 0 010 75.19c0-1.9.27-3.65.95-5.14a11.32 11.32 0 012.7-3.92 13.15 13.15 0 013.92-2.57c1.5-.68 2.98-.95 4.74-.95 1.08 0 2.16.14 3.1.41.95.27 1.9.54 2.58.95.67.4 1.48.94 2.02 1.35.55.54 1.09 1.08 1.36 1.62l-1.22 3.38c-.4-.54-.81-.94-1.35-1.49-.54-.54-1.08-.8-1.76-1.21-.68-.4-1.35-.54-2.16-.81-.82-.14-1.63-.27-2.44-.27-1.22 0-2.43.13-3.51.54a9 9 0 00-2.7 1.62 6.28 6.28 0 00-1.77 2.7 9.58 9.58 0 000 7.03 7.2 7.2 0 001.76 2.71c.81.68 1.62 1.35 2.7 1.76a9.6 9.6 0 003.52.54c1.9 0 3.52-.4 4.73-1.08 1.36-.81 2.3-1.62 3.12-2.7l1.21 3.64zM37.87 74.1h-5.41v13.4H28.8V74.1h-5.55V70.2h14.6v3.92zM49.09 83.98c1.08 0 2.16-.27 3.11-.68.95-.4 1.76-.94 2.16-1.62l1.09 2.84c-.27.4-.55.81-.95 1.22-.4.4-.95.67-1.49 1.08-.54.27-1.22.54-1.9.68-.67.13-1.48.27-2.3.27-1.34 0-2.42-.27-3.64-.68a10.05 10.05 0 01-2.84-1.76 8.06 8.06 0 01-1.9-2.84 11.1 11.1 0 01-.67-3.78c0-1.22.13-2.44.54-3.52.4-1.08.95-2.03 1.76-2.84.8-.81 1.62-1.49 2.7-2.03a8 8 0 013.65-.67c1.22 0 2.44.27 3.38.67a6.37 6.37 0 012.57 2.03A9.73 9.73 0 0156 75.19c.4 1.08.54 2.3.54 3.52 0 .54 0 .94-.14 1.35H43.41a4 4 0 001.76 2.97c1.22.68 2.43.95 3.92.95zm3.79-7.17a3.16 3.16 0 00-1.36-2.3 5.2 5.2 0 00-2.97-.94c-.54 0-1.08.13-1.62.27-.54.13-.95.4-1.36.67-.4.27-.8.68-1.08 1.09-.27.4-.4.8-.54 1.35h8.93v-.14zM76.14 70.05v17.31h-3.65V73.97h-8.12v13.4h-3.65V70.04h15.42zM89.12 83.98c1.08 0 2.16-.27 3.11-.68.95-.4 1.76-.94 2.16-1.62l1.09 2.84c-.28.4-.55.81-.95 1.22-.4.4-.95.67-1.49 1.08-.54.27-1.22.54-1.9.68-.67.13-1.48.27-2.3.27-1.34 0-2.43-.27-3.64-.68a10.05 10.05 0 01-2.84-1.76 8.06 8.06 0 01-1.9-2.84 11.1 11.1 0 01-.67-3.78c0-1.22.13-2.44.54-3.52.4-1.08.95-2.03 1.76-2.84.8-.81 1.62-1.49 2.7-2.03a8 8 0 013.65-.67c1.22 0 2.44.27 3.38.67a6.37 6.37 0 012.57 2.03 9.73 9.73 0 011.63 2.84c.4 1.08.54 2.3.54 3.52 0 .54 0 .94-.14 1.35H83.44a4 4 0 001.76 2.97c1.08.68 2.43.95 3.92.95zm3.79-7.17a3.16 3.16 0 00-1.36-2.3 5.2 5.2 0 00-2.97-.94c-.54 0-1.08.13-1.62.27-.55.13-.95.4-1.36.67-.4.27-.8.68-1.08 1.09-.27.4-.4.8-.54 1.35h8.93v-.14zM104.13 70.05v6.36h8.25v-6.36h3.65v17.31h-3.65v-6.9h-8.25v6.9h-3.65v-17.3h3.65zM121.03 87.36v-17.3h3.66v5h2.97c.95 0 1.76.13 2.57.4a5.1 5.1 0 012.03 1.22 6.1 6.1 0 011.35 1.9c.27.67.54 1.61.54 2.56s-.13 1.76-.54 2.57a6.8 6.8 0 01-1.35 1.9c-.54.53-1.35.94-2.03 1.21-.81.27-1.62.4-2.57.4h-6.63v.14zm7.04-3.78c.8 0 1.35-.28 1.9-.68.4-.4.67-.95.67-1.62 0-.68-.27-1.36-.68-1.63a2.72 2.72 0 00-1.76-.54h-3.38v4.6h3.25v-.13zM160.8 74.1h-5.55v13.4h-3.65V74.1h-5.55V70.2h14.74v3.92zM170.4 70.05c.8 0 1.62.14 2.43.27.68.27 1.35.54 1.9.95.53.4.94.95 1.21 1.49s.4 1.35.4 2.02c0 .68-.13 1.36-.27 1.9-.26.54-.54.94-1.08 1.49.68.4 1.36.94 1.63 1.62.4.67.54 1.49.54 2.43 0 .81-.14 1.49-.54 2.17a3.97 3.97 0 01-1.36 1.62 6.56 6.56 0 01-4.33 1.49h-7.3V70.05h6.77zm.54 7.03c.54 0 .94-.13 1.35-.4.4-.27.54-.68.54-1.08 0-.54-.14-.95-.54-1.22s-.81-.4-1.35-.4h-3.52v3.1h3.52zm.8 6.63c.55 0 .95-.13 1.36-.4.4-.28.54-.68.54-1.22 0-.54-.13-.81-.54-1.22-.4-.27-.81-.4-1.35-.4h-4.33v3.38h4.33v-.14zM197.04 75.19a8 8 0 01.67 3.65c0 1.35-.27 2.44-.67 3.65a7.01 7.01 0 01-1.9 2.84 8.06 8.06 0 01-2.84 1.9c-1.08.4-2.16.67-3.38.67-1.21 0-2.3-.27-3.38-.67a8.06 8.06 0 01-2.84-1.9 8.06 8.06 0 01-1.9-2.84c-.4-1.08-.67-2.3-.67-3.65s.27-2.43.68-3.65a7.01 7.01 0 011.9-2.84 8.06 8.06 0 012.83-1.9 9.42 9.42 0 013.38-.67c1.22 0 2.3.27 3.38.68a8.06 8.06 0 012.84 1.89 7.01 7.01 0 011.9 2.84zm-13.4 3.52c0 .8.14 1.48.42 2.02a4.87 4.87 0 002.7 2.7 5.43 5.43 0 004.06 0 3.45 3.45 0 001.62-1.07c.4-.4.81-.95 1.08-1.63a5.6 5.6 0 000-4.2 4.85 4.85 0 00-2.7-2.7 5.42 5.42 0 00-4.06 0c-.68.28-1.22.55-1.62 1.09-.4.54-.81.95-1.08 1.62-.28.81-.41 1.49-.41 2.17zM205.15 70.05v11.23l8.39-11.23h3.65v17.31h-3.52V76.14l-8.38 11.22h-3.79v-17.3h3.65zM224.62 87.36h-4.6l6.63-9.2-5.95-8.1h4.47l3.65 5.13 3.65-5.14h4.6l-5.82 8.12 6.63 9.2h-4.47l-4.32-6.1-4.47 6.1zM249.91 83.44a17.12 17.12 0 002.17-4.73c.54-1.9.94-4.33.94-7.17v-1.49h12.04v13.39h2.57v8.52h-3.52v-4.6h-12.44v4.6h-3.51v-8.52h1.75zm11.5 0v-9.33h-4.87a22.3 22.3 0 01-1.08 5.68 27.97 27.97 0 01-1.49 3.65h7.44zM286.97 75.19a8 8 0 01.67 3.65c0 1.35-.27 2.44-.67 3.65a7 7 0 01-1.9 2.84 8.05 8.05 0 01-2.84 1.9c-1.08.4-2.3.67-3.51.67-1.22 0-2.3-.27-3.38-.67a8.06 8.06 0 01-2.84-1.9 8.06 8.06 0 01-1.9-2.84c-.4-1.08-.67-2.3-.67-3.65s.27-2.43.67-3.65a7.01 7.01 0 011.9-2.84 8.06 8.06 0 012.84-1.9 9.42 9.42 0 013.38-.67c1.21 0 2.3.27 3.38.68a8.06 8.06 0 012.84 1.89 6.13 6.13 0 012.03 2.84zm-13.4 3.52c0 .8.14 1.48.42 2.02a4.85 4.85 0 002.7 2.7 5.43 5.43 0 004.06 0 3.44 3.44 0 001.62-1.07c.4-.4.81-.95 1.08-1.63a5.6 5.6 0 000-4.2 4.85 4.85 0 00-2.7-2.7 5.42 5.42 0 00-4.06 0c-.68.28-1.22.55-1.62 1.09-.4.54-.81.95-1.08 1.62-.28.81-.41 1.49-.41 2.17zM305.9 84.8c-.27.4-.54.8-.95 1.2-.4.41-.94.68-1.48.95-.55.28-1.22.55-1.9.68a9.42 9.42 0 01-5.68-.4 8.06 8.06 0 01-2.84-1.9 10.84 10.84 0 01-2.03-2.84 8 8 0 01-.67-3.65c0-1.35.27-2.57.67-3.65a6.91 6.91 0 012.03-2.84c.81-.81 1.76-1.35 2.84-1.9a7.22 7.22 0 013.38-.67c1.5 0 2.84.27 4.06.95a5.76 5.76 0 012.3 2.03l-1.08 3.1a4.94 4.94 0 00-2.03-1.48 6.29 6.29 0 00-2.84-.68c-1.76 0-3.11.4-4.2 1.35a4.63 4.63 0 00-1.62 3.66c0 1.48.55 2.84 1.63 3.78 1.08.95 2.43 1.35 4.19 1.35 1.08 0 2.03-.27 2.84-.67s1.49-.95 2.03-1.49l1.35 3.11zM323.07 74.1h-5.54v13.4h-3.79V74.1h-5.54V70.2h14.74v3.92h.13zM329.84 70.05v11.23l8.38-11.23h3.65v17.31h-3.65V76.14l-8.38 11.22h-3.65v-17.3h3.65zM359.72 77.08l6.09-6.9h4.6l-7.44 8.26 8.11 8.92h-4.87l-6.49-7.44v7.44h-3.65v-7.44l-6.49 7.44h-4.87l8.12-8.92-7.3-8.25h4.6l6.08 6.9v-6.9h3.65v6.9h-.14zM380.68 83.98c1.09 0 2.17-.27 3.12-.68.94-.4 1.75-.94 2.16-1.62l1.08 2.84c-.27.4-.54.81-.95 1.22-.4.4-.94.67-1.48 1.08-.55.27-1.22.54-1.9.68-.67.13-1.35.4-2.16.4-1.35 0-2.44-.27-3.65-.67a10.05 10.05 0 01-2.84-1.76 8.05 8.05 0 01-1.9-2.84c-.4-1.08-.67-2.44-.67-3.79 0-1.22.13-2.43.54-3.52.4-1.08.95-2.02 1.76-2.83.8-.82 1.62-1.5 2.7-2.03a8.01 8.01 0 013.65-.68c1.22 0 2.44.27 3.38.68a6.38 6.38 0 012.57 2.03c.68.94 1.22 1.75 1.63 2.83.4 1.09.54 2.3.54 3.52 0 .54 0 .95-.14 1.35h-12.98a4 4 0 001.76 2.98c1.08.54 2.3.81 3.78.81zm3.8-7.17a3.15 3.15 0 00-1.36-2.3 5.2 5.2 0 00-2.98-.94c-.54 0-1.08.13-1.62.27-.54.13-.95.4-1.35.67-.4.27-.81.68-1.08 1.09-.27.4-.4.8-.54 1.35h8.92v-.14zM395.83 70.05v6.36h8.25v-6.36h3.65v17.31h-3.65v-6.9h-8.25v6.9h-3.65v-17.3h3.65zM416.39 70.05v11.23l8.38-11.23h3.65v17.31h-3.65V76.14l-8.38 11.22h-3.65v-17.3h3.65zM436.94 70.05v11.23l8.39-11.23h3.65v17.31h-3.65V76.14l-8.39 11.22h-3.65v-17.3h3.65zm9.87-6.9c0 .82-.13 1.5-.4 2.03a3.7 3.7 0 01-1.22 1.63c-.54.4-1.08.8-1.76 1.08a6.13 6.13 0 01-4.32 0c-.68-.27-1.36-.54-1.76-1.08-.54-.41-.95-.95-1.22-1.63a5.42 5.42 0 01-.4-2.03l3.1-.54c0 .68.28 1.09.68 1.63.4.4 1.08.67 1.76.67.81 0 1.35-.27 1.9-.67.4-.41.67-.95.67-1.63l2.97.54z" fill="#F32735"/></g><defs><clipPath id="clip0"><path fill="#fff" d="M0 0h479v91.96H0z"/></clipPath></defs></svg>