<svg width="247" height="47" viewBox="0 0 247 47" fill="none" xmlns="http://www.w3.org/2000/svg">
<path d="M16.1371 2.85742V19.6223H12.0244V7.2527H4.7408V19.6223H0.59668V2.85742H16.1371Z" fill="white"/>
<path d="M36.9204 7.62951C37.3913 8.72833 37.6111 9.92134 37.6111 11.2085C37.6111 12.4957 37.3913 13.7201 36.9204 14.7875C36.4495 15.8864 35.8216 16.7968 35.0367 17.5817C34.2518 18.3665 33.3414 18.9631 32.3368 19.4026C31.3007 19.8421 30.2647 20.0619 29.1345 20.0619C27.9101 20.0619 26.8427 19.8421 25.9636 19.434C25.0846 19.0258 24.488 18.4921 24.2369 17.8642V26.5606H20.0928V2.8575H24.1113V4.61561C24.3939 3.98771 24.9904 3.454 25.9008 3.04587C26.8113 2.63773 27.8787 2.41797 29.1031 2.41797C30.2333 2.41797 31.3007 2.63773 32.3368 3.04587C33.3728 3.454 34.2832 4.0819 35.0681 4.86677C35.853 5.65164 36.4495 6.56209 36.9204 7.62951ZM33.0902 13.0294C33.3414 12.4643 33.4356 11.8678 33.4356 11.2085C33.4356 10.5492 33.31 9.95273 33.0902 9.41902C32.8391 8.88531 32.5251 8.41438 32.0856 8.00625C31.6775 7.62951 31.1438 7.31556 30.5473 7.0958C29.9508 6.87604 29.2915 6.78185 28.5694 6.78185C27.5333 6.78185 26.5915 7.00162 25.8066 7.40975C24.9904 7.81788 24.4567 8.35159 24.2055 8.97949V13.4376C24.4567 14.0655 24.9904 14.5992 25.8066 15.0073C26.6229 15.4154 27.5333 15.6352 28.5694 15.6352C29.2915 15.6352 29.9508 15.541 30.5473 15.3212C31.1438 15.1015 31.6461 14.7875 32.0856 14.4108C32.5251 14.0655 32.8705 13.5945 33.0902 13.0294Z" fill="white"/>
<path d="M44.6116 2.85742V12.9352L52.2092 2.85742H56.3533V19.6223H52.2719V9.54452L44.6744 19.6223H40.5303V2.85742H44.6116Z" fill="white"/>
<path d="M77.0117 11.2401C77.0117 12.5273 76.7605 13.6889 76.2896 14.7877C75.8187 15.8551 75.1594 16.797 74.3431 17.5818C73.5268 18.3667 72.585 18.9632 71.5176 19.4341C70.4502 19.8736 69.3199 20.0934 68.1269 20.0934C66.9339 20.0934 65.8037 19.8736 64.7363 19.4341C63.6689 18.9946 62.727 18.3667 61.9108 17.5818C61.0945 16.797 60.4352 15.8865 59.9643 14.7877C59.4933 13.7203 59.2422 12.5273 59.2422 11.2401C59.2422 9.98427 59.4933 8.82266 59.9643 7.72384C60.4352 6.62502 61.0945 5.71457 61.9108 4.89831C62.727 4.11344 63.6689 3.48554 64.7363 3.04601C65.8037 2.60648 66.9339 2.38672 68.1269 2.38672C69.3199 2.38672 70.4502 2.60648 71.5176 3.04601C72.585 3.48554 73.5268 4.11344 74.3431 4.89831C75.1594 5.68318 75.7873 6.62502 76.2896 7.72384C76.7605 8.82266 77.0117 9.98427 77.0117 11.2401ZM63.7944 9.45056C63.5433 10.0157 63.4491 10.6122 63.4491 11.2715C63.4491 11.9308 63.5747 12.5273 63.7944 13.061C64.0456 13.5947 64.3595 14.0656 64.7991 14.4737C65.2072 14.8505 65.7095 15.1644 66.306 15.3842C66.8711 15.6039 67.499 15.6981 68.1583 15.6981C68.8176 15.6981 69.4141 15.6039 69.9792 15.3842C70.5443 15.1644 71.0467 14.8505 71.4548 14.4737C71.8629 14.097 72.2083 13.6261 72.4594 13.061C72.7106 12.5273 72.8362 11.9308 72.8362 11.2715C72.8362 10.6122 72.7106 10.0157 72.4594 9.45056C72.2083 8.88545 71.8629 8.41453 71.4548 8.03779C71.0467 7.66105 70.5443 7.3471 69.9792 7.12734C69.4141 6.90758 68.8176 6.81339 68.1583 6.81339C67.499 6.81339 66.9025 6.90758 66.306 7.12734C65.7409 7.3471 65.2386 7.66105 64.7991 8.03779C64.3909 8.41453 64.0456 8.88545 63.7944 9.45056Z" fill="white"/>
<path d="M96.6958 7.62951C97.1667 8.72833 97.3865 9.92134 97.3865 11.2085C97.3865 12.4957 97.1667 13.7201 96.6958 14.7875C96.2249 15.8864 95.597 16.7968 94.8121 17.5817C94.0272 18.3665 93.1168 18.9631 92.1122 19.4026C91.0761 19.8421 90.0401 20.0619 88.9099 20.0619C87.6855 20.0619 86.6181 19.8421 85.739 19.434C84.8599 19.0258 84.2634 18.4921 84.0123 17.8642V26.5606H79.8682V2.8575H83.8867V4.61561C84.1693 3.98771 84.7658 3.454 85.6762 3.04587C86.5867 2.63773 87.6541 2.41797 88.8785 2.41797C90.0087 2.41797 91.0761 2.63773 92.1122 3.04587C93.1482 3.454 94.0586 4.0819 94.8435 4.86677C95.597 5.62024 96.2249 6.56209 96.6958 7.62951ZM92.8656 13.0294C93.1168 12.4643 93.211 11.8678 93.211 11.2085C93.211 10.5492 93.0854 9.95273 92.8656 9.41902C92.6145 8.88531 92.3005 8.41438 91.861 8.00625C91.4529 7.62951 90.9192 7.31556 90.3227 7.0958C89.7261 6.87604 89.0669 6.78185 88.3448 6.78185C87.3087 6.78185 86.3669 7.00162 85.582 7.40975C84.7658 7.81788 84.232 8.35159 83.9809 8.97949V13.4376C84.232 14.0655 84.7658 14.5992 85.582 15.0073C86.3983 15.4154 87.3087 15.6352 88.3448 15.6352C89.0669 15.6352 89.7261 15.541 90.3227 15.3212C90.9192 15.1015 91.4215 14.7875 91.861 14.4108C92.2691 14.0655 92.6145 13.5945 92.8656 13.0294Z" fill="white"/>
<path d="M104.388 2.85742V12.9352L111.986 2.85742H116.13V19.6223H112.048V9.54452L104.451 19.6223H100.307V2.85742H104.388Z" fill="white"/>
<path d="M133.334 7.2527H128.153V19.6223H124.009V7.2527H118.829V2.85742H133.334V7.2527Z" fill="white"/>
<path d="M144.323 15.9177C145.359 15.9177 146.363 15.7294 147.305 15.3526C148.247 14.9759 148.969 14.4736 149.44 13.8457L150.696 17.048C150.162 17.927 149.346 18.6491 148.216 19.2456C147.085 19.8421 145.735 20.1247 144.166 20.1247C142.878 20.1247 141.685 19.9049 140.587 19.4968C139.488 19.0886 138.546 18.4921 137.73 17.7387C136.913 16.9852 136.285 16.0433 135.846 14.9759C135.375 13.8771 135.155 12.6527 135.155 11.3027C135.155 10.1097 135.344 8.97949 135.752 7.91207C136.16 6.84464 136.725 5.9028 137.478 5.08653C138.232 4.27026 139.142 3.64237 140.178 3.14005C141.246 2.66913 142.407 2.41797 143.757 2.41797C144.982 2.41797 146.112 2.66913 147.117 3.14005C148.121 3.61097 148.969 4.27026 149.691 5.08653C150.382 5.9028 150.947 6.84464 151.324 7.91207C151.7 8.97949 151.92 10.1097 151.92 11.2713C151.92 11.5225 151.92 11.7736 151.889 12.0248C151.889 12.3073 151.857 12.5271 151.795 12.7155H139.362C139.551 13.8143 140.084 14.6306 140.995 15.1329C141.968 15.6666 143.035 15.9177 144.323 15.9177ZM147.745 9.32483C147.619 8.44578 147.179 7.75509 146.426 7.28417C145.673 6.81325 144.793 6.59348 143.789 6.59348C142.753 6.59348 141.842 6.81325 141.057 7.28417C140.241 7.75509 139.77 8.41438 139.582 9.32483H147.745Z" fill="white"/>
<path d="M168.339 7.2527H163.159V19.6223H159.015V7.2527H153.835V2.85742H168.339V7.2527Z" fill="white"/>
<path d="M176.407 6.27953C175.999 6.27953 175.622 6.34232 175.277 6.4679C174.932 6.59348 174.618 6.75046 174.335 6.97022C174.053 7.15859 173.802 7.40975 173.582 7.66091C173.362 7.91207 173.142 8.19462 172.985 8.50857L171.51 5.96559C171.635 5.49466 171.855 5.02374 172.169 4.58421C172.483 4.14469 172.86 3.76795 173.299 3.454C173.739 3.14005 174.241 2.88889 174.838 2.70052C175.403 2.51215 176.031 2.41797 176.721 2.41797C177.6 2.41797 178.385 2.54355 179.045 2.8261C179.704 3.07726 180.269 3.454 180.74 3.92492C181.179 4.39584 181.525 4.92956 181.776 5.55745C181.996 6.18535 182.121 6.84464 182.121 7.56672C182.121 8.16323 182.058 8.72833 181.901 9.23065C181.776 9.73297 181.556 10.2353 181.274 10.7062C180.991 11.1771 180.646 11.6794 180.269 12.1818C179.861 12.6841 179.39 13.2178 178.856 13.8143L177.161 15.698H182.404V19.5282H171.604V16.6398L176.439 11.4283C176.784 11.0516 177.067 10.7376 177.318 10.455C177.569 10.1725 177.789 9.88994 177.946 9.63878C178.103 9.38762 178.228 9.13647 178.322 8.88531C178.417 8.63415 178.448 8.38299 178.448 8.06904C178.448 7.56672 178.26 7.15859 177.883 6.81325C177.538 6.4679 177.035 6.27953 176.407 6.27953Z" fill="white"/>
<path d="M189.562 3.07726C190.63 2.63773 191.76 2.41797 192.953 2.41797C194.146 2.41797 195.276 2.63773 196.343 3.07726C197.411 3.51679 198.353 4.11329 199.169 4.89816C199.985 5.68303 200.613 6.59348 201.084 7.6923C201.555 8.75973 201.775 9.95273 201.775 11.2399C201.775 12.5271 201.555 13.7201 201.084 14.8189C200.613 15.8864 199.985 16.8282 199.169 17.5817C198.353 18.3665 197.411 18.9631 196.343 19.4026C195.276 19.8421 194.146 20.0619 192.953 20.0619C191.76 20.0619 190.63 19.8421 189.562 19.4026C188.495 18.9631 187.553 18.3665 186.737 17.5817C185.92 16.7968 185.292 15.8864 184.822 14.8189C184.351 13.7515 184.131 12.5585 184.131 11.2399C184.131 9.95273 184.351 8.75973 184.822 7.6923C185.292 6.62488 185.92 5.68303 186.737 4.89816C187.553 4.11329 188.495 3.51679 189.562 3.07726ZM192.953 16.1689C193.675 16.1689 194.366 16.0433 194.993 15.7922C195.621 15.541 196.186 15.2271 196.626 14.7875C197.097 14.348 197.442 13.8457 197.725 13.2492C197.976 12.6527 198.133 11.962 198.133 11.2399C198.133 10.5178 198.007 9.85855 197.725 9.23065C197.442 8.63415 197.097 8.10044 196.626 7.66091C196.155 7.22138 195.621 6.90743 194.993 6.65627C194.366 6.40511 193.675 6.27953 192.953 6.27953C192.231 6.27953 191.54 6.40511 190.912 6.65627C190.284 6.90743 189.751 7.22138 189.28 7.66091C188.809 8.10044 188.463 8.60275 188.181 9.23065C187.898 9.82715 187.773 10.5178 187.773 11.2399C187.773 11.962 187.898 12.6527 188.181 13.2492C188.432 13.8457 188.809 14.3794 189.28 14.7875C189.751 15.2271 190.284 15.541 190.912 15.7922C191.54 16.0433 192.231 16.1689 192.953 16.1689Z" fill="white"/>
<path d="M207.677 16.2002C208.431 16.2002 209.027 16.0119 209.498 15.6665C209.969 15.3212 210.189 14.8189 210.189 14.2224C210.189 13.6886 209.969 13.2491 209.561 12.9352C209.153 12.6212 208.588 12.4642 207.897 12.4642C207.426 12.4642 206.987 12.527 206.641 12.6212C206.296 12.7154 206.013 12.841 205.856 12.9666L205.26 10.3294L208.148 6.71899H203.502V2.85742H212.889V5.58877L210.063 9.105C210.471 9.19918 210.911 9.35616 211.351 9.57592C211.79 9.79568 212.198 10.1096 212.575 10.5178C212.952 10.9259 213.266 11.4282 213.517 12.0247C213.768 12.6212 213.894 13.3747 213.894 14.2224C213.894 15.0072 213.737 15.7607 213.454 16.4828C213.171 17.1735 212.763 17.8014 212.198 18.3351C211.664 18.8688 211.005 19.2769 210.252 19.5909C209.498 19.9048 208.651 20.0618 207.709 20.0618C207.018 20.0618 206.359 19.999 205.825 19.842C205.26 19.6851 204.758 19.4653 204.349 19.2141C203.941 18.963 203.565 18.6804 203.282 18.3665C203 18.0525 202.811 17.7386 202.686 17.3932L203.533 14.2851C203.973 14.8189 204.538 15.2898 205.197 15.6665C205.794 16.0119 206.641 16.2002 207.677 16.2002Z" fill="white"/>
<path d="M220.957 3.07726C222.024 2.63773 223.154 2.41797 224.347 2.41797C225.54 2.41797 226.671 2.63773 227.738 3.07726C228.805 3.51679 229.747 4.11329 230.564 4.89816C231.38 5.68303 232.008 6.59348 232.479 7.6923C232.95 8.75973 233.169 9.95273 233.169 11.2399C233.169 12.5271 232.95 13.7201 232.479 14.8189C232.008 15.8864 231.38 16.8282 230.564 17.5817C229.747 18.3665 228.805 18.9631 227.738 19.4026C226.671 19.8421 225.54 20.0619 224.347 20.0619C223.154 20.0619 222.024 19.8421 220.957 19.4026C219.889 18.9631 218.947 18.3665 218.131 17.5817C217.315 16.7968 216.687 15.8864 216.216 14.8189C215.745 13.7515 215.525 12.5585 215.525 11.2399C215.525 9.95273 215.745 8.75973 216.216 7.6923C216.687 6.62488 217.315 5.68303 218.131 4.89816C218.947 4.11329 219.889 3.51679 220.957 3.07726ZM224.379 16.1689C225.101 16.1689 225.792 16.0433 226.419 15.7922C227.047 15.541 227.612 15.2271 228.052 14.7875C228.523 14.348 228.868 13.8457 229.151 13.2492C229.402 12.6527 229.559 11.962 229.559 11.2399C229.559 10.5178 229.433 9.85855 229.151 9.23065C228.868 8.63415 228.523 8.10044 228.052 7.66091C227.581 7.22138 227.047 6.90743 226.419 6.65627C225.792 6.40511 225.101 6.27953 224.379 6.27953C223.657 6.27953 222.966 6.40511 222.338 6.65627C221.71 6.90743 221.176 7.22138 220.706 7.66091C220.235 8.10044 219.889 8.60275 219.607 9.23065C219.324 9.82715 219.199 10.5178 219.199 11.2399C219.199 11.962 219.324 12.6527 219.607 13.2492C219.858 13.8457 220.235 14.3794 220.706 14.7875C221.176 15.2271 221.71 15.541 222.338 15.7922C222.935 16.0433 223.625 16.1689 224.379 16.1689Z" fill="white"/>
<path d="M242.117 0H238.758L234.896 6.7185H238.256L242.117 0Z" fill="white"/>
<path d="M238.758 0H242.117L246.01 6.7185H242.651L238.758 0Z" fill="white"/>
<path d="M12.5892 35.3203V40.2493L16.2938 35.3203H18.3031V43.5144H16.3252V38.5854L12.6206 43.5144H10.6113V35.3203H12.5892Z" fill="white"/>
<path d="M20.4061 41.3481C20.5631 41.0656 20.7515 40.7516 20.9084 40.3749C21.0654 40.0295 21.2224 39.6214 21.348 39.1819C21.4735 38.7424 21.5677 38.2714 21.6619 37.7691C21.7247 37.2668 21.7875 36.7017 21.7875 36.1366V35.3203H27.6897V41.3795H28.8199V45.712H26.8734V43.5458H21.5363V45.712H19.5898V41.3795H20.4061V41.3481ZM25.649 41.3481V37.4552H23.5456C23.4514 38.3656 23.2944 39.1505 23.1061 39.7784C22.9177 40.4063 22.6979 40.94 22.4782 41.3481H25.649Z" fill="white"/>
<path d="M34.1259 41.6925C34.6282 41.6925 35.1305 41.5983 35.6014 41.41C36.0724 41.2216 36.4177 40.9704 36.6375 40.6565L37.2654 42.2262C37.0142 42.6658 36.6061 43.0111 36.041 43.2937C35.4759 43.5762 34.8166 43.7332 34.0631 43.7332C33.4352 43.7332 32.8701 43.639 32.3364 43.4192C31.8027 43.2309 31.3318 42.9169 30.955 42.5716C30.5783 42.1948 30.2643 41.7553 30.0446 41.2216C29.8248 40.6879 29.6992 40.0914 29.6992 39.4321C29.6992 38.8356 29.7934 38.3019 29.9818 37.7682C30.1701 37.2345 30.4527 36.7949 30.8294 36.3868C31.2062 35.9787 31.6457 35.6647 32.148 35.445C32.6503 35.2252 33.2468 35.0996 33.8747 35.0996C34.4712 35.0996 35.0363 35.2252 35.5073 35.445C36.0096 35.6961 36.4177 36.0101 36.7631 36.3868C37.1084 36.7635 37.391 37.2345 37.5793 37.7682C37.7677 38.3019 37.8619 38.8356 37.8619 39.4007C37.8619 39.5263 37.8619 39.6519 37.8619 39.7774C37.8619 39.903 37.8305 40.0286 37.8305 40.1228H31.7399C31.8341 40.6565 32.0852 41.0646 32.5248 41.3158C32.9643 41.5669 33.498 41.6925 34.1259 41.6925ZM35.7898 38.4589C35.727 38.0193 35.5073 37.7054 35.1619 37.4542C34.8166 37.2345 34.377 37.1089 33.8747 37.1089C33.3724 37.1089 32.9329 37.2345 32.5248 37.4542C32.148 37.674 31.8969 38.0193 31.8027 38.4589H35.7898Z" fill="white"/>
<path d="M47.5944 37.6429C47.8142 38.1766 47.9398 38.7417 47.9398 39.401C47.9398 40.0289 47.8142 40.6254 47.5944 41.1591C47.3747 41.6928 47.0607 42.1323 46.684 42.5405C46.3073 42.9172 45.8677 43.2312 45.3654 43.4195C44.8631 43.6079 44.3608 43.7335 43.7957 43.7335C43.1992 43.7335 42.6655 43.6393 42.2573 43.4195C41.8178 43.1998 41.5352 42.9486 41.4097 42.6347V46.873H39.4004V35.2883H41.3469V36.1359C41.4724 35.822 41.7864 35.5708 42.2259 35.3511C42.6655 35.1313 43.1992 35.0371 43.7957 35.0371C44.3608 35.0371 44.8631 35.1313 45.3654 35.3511C45.8677 35.5708 46.3073 35.8534 46.684 36.2301C47.0607 36.6696 47.3433 37.1092 47.5944 37.6429ZM45.7108 40.2801C45.8363 39.9975 45.8991 39.7149 45.8991 39.401C45.8991 39.087 45.8363 38.8045 45.7108 38.5219C45.5852 38.2708 45.4282 38.0196 45.2398 37.8313C45.0201 37.6429 44.7689 37.4859 44.4864 37.3917C44.2038 37.2975 43.8585 37.2347 43.5131 37.2347C43.0108 37.2347 42.5399 37.3289 42.1631 37.5487C41.7864 37.7685 41.5038 38.0196 41.3783 38.3336V40.4998C41.5038 40.8138 41.755 41.0649 42.1631 41.2847C42.5399 41.5044 43.0108 41.5986 43.5131 41.5986C43.8585 41.5986 44.1724 41.5358 44.4864 41.4417C44.7689 41.3475 45.0201 41.1905 45.2398 41.0021C45.4282 40.7824 45.5852 40.5626 45.7108 40.2801Z" fill="white"/>
<path d="M49.3214 36.5438C49.4783 36.324 49.6667 36.1042 49.8865 35.9159C50.1062 35.7275 50.3574 35.5705 50.6399 35.4763C50.9225 35.3508 51.2051 35.2566 51.519 35.1938C51.833 35.131 52.1469 35.0996 52.4609 35.0996C52.9946 35.0996 53.4969 35.1624 53.9364 35.3194C54.3759 35.4763 54.7527 35.6647 55.0666 35.9473C55.3806 36.2298 55.6317 36.5752 55.8201 36.9833C56.0085 37.3914 56.0713 37.8624 56.0713 38.3647V43.5134H54.1248V42.7913C53.9364 43.1053 53.6225 43.3251 53.1829 43.482C52.7434 43.639 52.3353 43.7332 51.8643 43.7332C51.4248 43.7332 51.0167 43.6704 50.6713 43.5448C50.326 43.4192 49.9807 43.2309 49.7295 43.0111C49.4469 42.7913 49.2586 42.5088 49.1016 42.1635C48.9446 41.8181 48.8818 41.4414 48.8818 41.0332C48.8818 40.5937 48.976 40.217 49.133 39.8716C49.29 39.5263 49.5411 39.2437 49.8551 39.024C50.1376 38.8042 50.483 38.6158 50.8911 38.5216C51.2678 38.3961 51.676 38.3333 52.0841 38.3333C52.6178 38.3333 53.0574 38.3961 53.3713 38.5216C53.7166 38.6472 53.9364 38.7728 54.062 38.8984V38.6786C54.062 38.2077 53.905 37.831 53.5911 37.5484C53.2771 37.2659 52.8062 37.1089 52.2097 37.1089C51.676 37.1089 51.2365 37.2031 50.7969 37.4228C50.3888 37.6112 50.0434 37.8937 49.7923 38.1763L49.3214 36.5438ZM54.062 40.5623C53.9678 40.4053 53.7794 40.2798 53.4969 40.1856C53.2143 40.06 52.869 40.0286 52.5236 40.0286C51.9899 40.0286 51.5818 40.1228 51.3306 40.2798C51.0795 40.4367 50.9225 40.6565 50.9225 40.939C50.9225 41.2216 51.0481 41.4414 51.3306 41.5983C51.6132 41.7553 51.9899 41.8495 52.4922 41.8495C52.869 41.8495 53.1829 41.7867 53.4655 41.6611C53.748 41.5356 53.9364 41.3786 54.0306 41.1902V40.5623H54.062Z" fill="white"/>
<path d="M65.3638 35.3203H67.3102L68.5974 43.5144H66.5882L65.8661 39.1819L63.951 43.5144H62.3185L60.4034 39.1819L59.6813 43.5144H57.6406L58.9278 35.3203H60.7487L63.0405 40.5632L65.3638 35.3203Z" fill="white"/>
<path d="M72.2396 35.3203V40.2493L75.9442 35.3203H77.9535V43.5144H75.9756V38.5854L72.271 43.5144H70.2617V35.3203H72.2396Z" fill="white"/>
<path d="M90.794 42.2578C90.5428 42.6659 90.1661 43.0113 89.6009 43.2938C89.0358 43.5764 88.4079 43.7333 87.6859 43.7333C87.1208 43.7333 86.5556 43.6392 86.0533 43.4194C85.551 43.1996 85.0801 42.9171 84.672 42.5403C84.2638 42.1636 83.9499 41.6927 83.7301 41.159C83.5103 40.6252 83.3848 40.0601 83.3848 39.4008C83.3848 38.773 83.5103 38.1765 83.7301 37.6427C83.9499 37.109 84.2638 36.6695 84.672 36.2614C85.0801 35.8846 85.5196 35.5707 86.0533 35.3823C86.5556 35.1625 87.1208 35.0684 87.6859 35.0684C88.4079 35.0684 89.0358 35.2253 89.6009 35.5079C90.1347 35.7904 90.5114 36.1358 90.7626 36.5125L90.1975 38.2078C89.9777 37.9567 89.6951 37.7369 89.287 37.5172C88.9103 37.3288 88.4393 37.2032 87.937 37.2032C87.1835 37.2032 86.587 37.3916 86.1475 37.7997C85.708 38.2078 85.4882 38.7102 85.4882 39.3695C85.4882 40.0287 85.708 40.5311 86.1475 40.9392C86.587 41.3473 87.1835 41.5357 87.937 41.5357C88.4707 41.5357 88.9103 41.4415 89.3184 41.2218C89.6951 41.002 90.0091 40.7822 90.2288 40.5311L90.794 42.2578Z" fill="white"/>
<path d="M98.6743 37.4552H96.1314V43.5144H94.1221V37.4552H91.5791V35.3203H98.6429V37.4552H98.6743Z" fill="white"/>
<path d="M99.8673 36.5438C100.024 36.324 100.213 36.1042 100.432 35.9159C100.652 35.7275 100.903 35.5705 101.186 35.4763C101.468 35.3508 101.751 35.2566 102.065 35.1938C102.379 35.131 102.693 35.0996 103.007 35.0996C103.54 35.0996 104.043 35.1624 104.482 35.3194C104.922 35.4763 105.299 35.6647 105.613 35.9473C105.926 36.2298 106.178 36.5752 106.366 36.9833C106.554 37.3914 106.617 37.8624 106.617 38.3647V43.5134H104.671V42.7913C104.482 43.1053 104.168 43.3251 103.729 43.482C103.289 43.639 102.881 43.7332 102.41 43.7332C101.971 43.7332 101.563 43.6704 101.217 43.5448C100.872 43.4192 100.527 43.2309 100.275 43.0111C99.9928 42.7913 99.8045 42.5088 99.6475 42.1635C99.4905 41.8181 99.4277 41.4414 99.4277 41.0332C99.4277 40.5937 99.5219 40.217 99.6789 39.8716C99.8359 39.5263 100.087 39.2437 100.401 39.024C100.684 38.8042 101.029 38.6158 101.437 38.5216C101.814 38.3961 102.222 38.3333 102.63 38.3333C103.164 38.3333 103.603 38.3961 103.917 38.5216C104.263 38.6472 104.482 38.7728 104.608 38.8984V38.6786C104.608 38.2077 104.451 37.831 104.137 37.5484C103.823 37.2659 103.352 37.1089 102.756 37.1089C102.222 37.1089 101.782 37.2031 101.343 37.4228C100.935 37.6112 100.589 37.8937 100.338 38.1763L99.8673 36.5438ZM104.608 40.5623C104.514 40.4053 104.325 40.2798 104.043 40.1856C103.76 40.06 103.415 40.0286 103.07 40.0286C102.536 40.0286 102.128 40.1228 101.877 40.2798C101.625 40.4367 101.468 40.6565 101.468 40.939C101.468 41.2216 101.594 41.4414 101.877 41.5983C102.159 41.7553 102.536 41.8495 103.038 41.8495C103.415 41.8495 103.729 41.7867 104.011 41.6611C104.294 41.5356 104.482 41.3786 104.576 41.1902V40.5623H104.608Z" fill="white"/>
<path d="M110.635 35.3203V38.24H114.246V35.3203H116.255V43.5144H114.246V40.3749H110.635V43.5144H108.626V35.3203H110.635Z" fill="white"/>
<path d="M126.427 39.4008C126.427 40.0287 126.301 40.5939 126.081 41.1276C125.862 41.6613 125.548 42.1008 125.14 42.4775C124.731 42.8543 124.292 43.1682 123.758 43.388C123.224 43.6078 122.691 43.7019 122.094 43.7019C121.498 43.7019 120.964 43.6078 120.43 43.388C119.897 43.1682 119.457 42.8857 119.049 42.4775C118.641 42.0694 118.327 41.6299 118.107 41.1276C117.887 40.6252 117.762 40.0287 117.762 39.4008C117.762 38.773 117.887 38.2078 118.107 37.6741C118.327 37.1404 118.641 36.7009 119.049 36.2928C119.457 35.916 119.897 35.6021 120.43 35.3823C120.964 35.1625 121.498 35.0684 122.094 35.0684C122.691 35.0684 123.224 35.1625 123.758 35.3823C124.292 35.6021 124.731 35.916 125.14 36.2928C125.548 36.6695 125.862 37.1404 126.081 37.6741C126.301 38.2392 126.427 38.8043 126.427 39.4008ZM119.991 38.5218C119.865 38.8043 119.802 39.0869 119.802 39.4008C119.802 39.7148 119.865 39.9974 119.991 40.2799C120.116 40.5311 120.273 40.7822 120.462 40.9706C120.681 41.159 120.901 41.3159 121.184 41.4101C121.466 41.5043 121.749 41.5671 122.094 41.5671C122.408 41.5671 122.722 41.5043 122.973 41.4101C123.256 41.3159 123.476 41.159 123.695 40.9706C123.915 40.7822 124.072 40.5625 124.198 40.2799C124.323 40.0287 124.386 39.7148 124.386 39.4008C124.386 39.0869 124.323 38.773 124.198 38.5218C124.072 38.2392 123.915 38.0195 123.695 37.8311C123.476 37.6427 123.256 37.4858 122.973 37.3916C122.691 37.2974 122.408 37.2346 122.094 37.2346C121.78 37.2346 121.466 37.2974 121.184 37.3916C120.901 37.4858 120.65 37.6427 120.462 37.8311C120.273 38.0195 120.085 38.2706 119.991 38.5218Z" fill="white"/>
<path d="M131.073 35.3203C131.481 35.3203 131.889 35.3831 132.235 35.4773C132.58 35.5715 132.894 35.7284 133.177 35.9168C133.428 36.1052 133.648 36.3563 133.805 36.6389C133.962 36.9214 134.024 37.2668 134.024 37.6749C134.024 38.0203 133.962 38.3028 133.867 38.5226C133.773 38.7423 133.616 38.9307 133.428 39.1505C133.742 39.3389 133.993 39.59 134.181 39.904C134.37 40.2179 134.464 40.5946 134.464 41.0656C134.464 41.4737 134.37 41.819 134.213 42.133C134.056 42.4469 133.836 42.6981 133.553 42.9179C133.271 43.1376 132.957 43.2946 132.58 43.3888C132.203 43.5144 131.827 43.5458 131.419 43.5458H127.902V35.3517H131.073V35.3203ZM129.88 37.1726V38.554H131.324C131.576 38.554 131.764 38.4912 131.889 38.3342C132.015 38.2086 132.109 38.0517 132.109 37.8633C132.109 37.6749 132.046 37.518 131.889 37.361C131.764 37.2354 131.544 37.1412 131.293 37.1412H129.88V37.1726ZM129.88 40.2179V41.6307H131.733C131.952 41.6307 132.141 41.5679 132.298 41.4423C132.423 41.3167 132.517 41.1284 132.517 40.94C132.517 40.7516 132.455 40.5946 132.298 40.4691C132.172 40.3121 131.984 40.2493 131.733 40.2493H129.88V40.2179Z" fill="white"/>
<path d="M141.905 35.3203V43.5144H139.895V41.0656H139.236L137.572 43.5144H135.249L137.101 40.783C136.63 40.5319 136.254 40.2179 136.003 39.7784C135.751 39.3389 135.594 38.8365 135.594 38.24C135.594 37.7691 135.689 37.361 135.846 37.0156C136.003 36.6703 136.222 36.3563 136.505 36.1052C136.787 35.854 137.101 35.6657 137.478 35.5401C137.855 35.4145 138.263 35.3517 138.702 35.3517H141.905V35.3203ZM138.514 37.361C138.232 37.361 137.98 37.4552 137.823 37.6121C137.666 37.8005 137.572 37.9889 137.572 38.24C137.572 38.4912 137.666 38.711 137.855 38.8679C138.043 39.0249 138.263 39.0877 138.545 39.0877H139.927V37.361H138.514Z" fill="white"/>
<path d="M150.319 37.4552H147.776V43.5144H145.767V37.4552H143.224V35.3203H150.287V37.4552H150.319Z" fill="white"/>
<path d="M158.449 42.2578C158.198 42.6659 157.821 43.0113 157.256 43.2938C156.691 43.5764 156.063 43.7333 155.341 43.7333C154.776 43.7333 154.211 43.6392 153.709 43.4194C153.206 43.1996 152.735 42.9171 152.327 42.5403C151.919 42.1636 151.605 41.6927 151.385 41.159C151.166 40.6252 151.04 40.0601 151.04 39.4008C151.04 38.773 151.166 38.1765 151.385 37.6427C151.605 37.109 151.919 36.6695 152.327 36.2614C152.735 35.8846 153.175 35.5707 153.709 35.3823C154.211 35.1625 154.776 35.0684 155.341 35.0684C156.063 35.0684 156.691 35.2253 157.256 35.5079C157.79 35.7904 158.167 36.1358 158.418 36.5125L157.853 38.2078C157.633 37.9567 157.35 37.7369 156.942 37.5172C156.566 37.3288 156.095 37.2032 155.592 37.2032C154.839 37.2032 154.242 37.3916 153.803 37.7997C153.363 38.2078 153.143 38.7102 153.143 39.3695C153.143 40.0287 153.363 40.5311 153.803 40.9392C154.242 41.3473 154.839 41.5357 155.592 41.5357C156.126 41.5357 156.566 41.4415 156.974 41.2218C157.35 41.002 157.664 40.7822 157.884 40.5311L158.449 42.2578Z" fill="white"/>
<path d="M165.89 35.3203V43.5144H163.881V41.0656H163.222L161.558 43.5144H159.234L161.087 40.783C160.616 40.5319 160.239 40.2179 159.988 39.7784C159.737 39.3389 159.58 38.8365 159.58 38.24C159.58 37.7691 159.674 37.361 159.831 37.0156C159.988 36.6703 160.208 36.3563 160.49 36.1052C160.773 35.854 161.087 35.6657 161.463 35.5401C161.84 35.4145 162.248 35.3517 162.688 35.3517H165.89V35.3203ZM162.499 37.361C162.217 37.361 161.966 37.4552 161.809 37.6121C161.652 37.8005 161.558 37.9889 161.558 38.24C161.558 38.4912 161.652 38.711 161.84 38.8679C162.029 39.0249 162.248 39.0877 162.531 39.0877H163.912V37.361H162.499Z" fill="white"/>
<path d="M9.51264 43.5124L6.21618 35.3184H3.32785L0 43.5124H2.88833L4.77202 38.866L6.65571 43.5124H9.51264Z" fill="white"/>
</svg>
