<svg width="208" height="53" viewBox="0 0 208 53" fill="none" xmlns="http://www.w3.org/2000/svg">
<path d="M4.76613 32.399H0V8.64725H4.60401V10.3875C4.90662 9.76448 5.49023 9.23809 6.35484 8.80839C7.21944 8.37869 8.32181 8.16384 9.66194 8.16384C10.7859 8.16384 11.8559 8.37869 12.8718 8.80839C13.9093 9.23809 14.8171 9.85042 15.5953 10.6454C16.3734 11.4188 16.9895 12.3534 17.4434 13.4492C17.9189 14.5449 18.1567 15.7588 18.1567 17.0909C18.1567 18.423 17.9189 19.6369 17.4434 20.7326C16.9895 21.8284 16.3734 22.7737 15.5953 23.5687C14.8171 24.3421 13.9093 24.9437 12.8718 25.3734C11.8559 25.8031 10.7859 26.018 9.66194 26.018C8.42988 26.018 7.38155 25.8031 6.51695 25.3734C5.65234 24.9437 5.06874 24.4173 4.76613 23.7943V32.399ZM4.76613 19.0568C5.00389 19.6154 5.50104 20.0773 6.25757 20.4426C7.01409 20.8078 7.8787 20.9905 8.85138 20.9905C10.1699 20.9905 11.2398 20.6252 12.0612 19.8947C12.9042 19.1642 13.3257 18.2296 13.3257 17.0909C13.3257 15.9522 12.9042 15.0176 12.0612 14.2871C11.2398 13.5566 10.1699 13.1914 8.85138 13.1914C7.8787 13.1914 7.01409 13.374 6.25757 13.7392C5.50104 14.1045 5.00389 14.5664 4.76613 15.125V19.0568Z" fill="white"/>
<path d="M31.317 13.8681C31.0792 13.6963 30.7658 13.5459 30.3767 13.4169C30.0092 13.2666 29.5878 13.1914 29.1122 13.1914C28.2692 13.1914 27.5451 13.4062 26.9399 13.8359C26.3347 14.2441 25.924 14.8672 25.7078 15.7051V25.5346H20.9417V8.64725H25.5457V10.871C25.8051 10.0545 26.259 9.39923 26.9075 8.90507C27.5559 8.41091 28.3449 8.16384 29.2743 8.16384C29.9012 8.16384 30.4632 8.30349 30.9603 8.5828C31.4575 8.84062 31.8033 9.14141 31.9978 9.48517L31.317 13.8681Z" fill="white"/>
<path d="M34.0967 8.64725H38.8628V25.5346H34.0967V8.64725ZM34.2588 5.9079C33.6752 5.30632 33.3834 4.57582 33.3834 3.71642C33.3834 2.85701 33.6752 2.12652 34.2588 1.52493C34.864 0.92335 35.5989 0.622559 36.4635 0.622559C37.3281 0.622559 38.0631 0.92335 38.6683 1.52493C39.2735 2.12652 39.5761 2.85701 39.5761 3.71642C39.5761 4.57582 39.2735 5.30632 38.6683 5.9079C38.0631 6.488 37.3281 6.77805 36.4635 6.77805C35.5989 6.77805 34.864 6.488 34.2588 5.9079Z" fill="white"/>
<path d="M47.4176 8.84062C48.52 8.38943 49.6872 8.16384 50.9192 8.16384C52.1513 8.16384 53.3185 8.38943 54.4209 8.84062C55.5232 9.2918 56.4959 9.91487 57.3389 10.7098C58.1819 11.4833 58.852 12.4179 59.3491 13.5136C59.8463 14.6094 60.0948 15.8018 60.0948 17.0909C60.0948 18.38 59.8463 19.5724 59.3491 20.6682C58.852 21.7639 58.1819 22.7093 57.3389 23.5042C56.4959 24.2777 55.5232 24.89 54.4209 25.3412C53.3185 25.7924 52.1513 26.018 50.9192 26.018C49.6872 26.018 48.52 25.7924 47.4176 25.3412C46.3152 24.89 45.3425 24.2777 44.4995 23.5042C43.6566 22.7093 42.9865 21.7639 42.4893 20.6682C41.9922 19.5724 41.7436 18.38 41.7436 17.0909C41.7436 15.8018 41.9922 14.6094 42.4893 13.5136C42.9865 12.4179 43.6566 11.4833 44.4995 10.7098C45.3425 9.91487 46.3152 9.2918 47.4176 8.84062ZM49.2332 20.7004C49.7736 20.8938 50.3356 20.9905 50.9192 20.9905C51.5028 20.9905 52.054 20.8938 52.5728 20.7004C53.1132 20.507 53.5779 20.2492 53.967 19.9269C54.3776 19.5832 54.6911 19.175 54.9072 18.7023C55.145 18.2081 55.2639 17.671 55.2639 17.0909C55.2639 16.5108 55.145 15.9844 54.9072 15.5117C54.6911 15.0176 54.3776 14.6094 53.967 14.2871C53.5779 13.9433 53.1132 13.6748 52.5728 13.4814C52.054 13.288 51.5028 13.1914 50.9192 13.1914C50.3356 13.1914 49.7736 13.288 49.2332 13.4814C48.7145 13.6748 48.2498 13.9433 47.8391 14.2871C47.45 14.6094 47.1366 15.0176 46.8988 15.5117C46.6827 15.9844 46.5746 16.5108 46.5746 17.0909C46.5746 17.671 46.6827 18.2081 46.8988 18.7023C47.1366 19.175 47.45 19.5832 47.8391 19.9269C48.2498 20.2492 48.7145 20.507 49.2332 20.7004Z" fill="white"/>
<path d="M73.2447 13.8681C73.007 13.6963 72.6936 13.5459 72.3045 13.4169C71.937 13.2666 71.5155 13.1914 71.04 13.1914C70.197 13.1914 69.4729 13.4062 68.8677 13.8359C68.2625 14.2441 67.8518 14.8672 67.6356 15.7051V25.5346H62.8695V8.64725H67.4735V10.871C67.7329 10.0545 68.1868 9.39923 68.8353 8.90507C69.4837 8.41091 70.2727 8.16384 71.2021 8.16384C71.8289 8.16384 72.3909 8.30349 72.8881 8.5828C73.3852 8.84062 73.7311 9.14141 73.9256 9.48517L73.2447 13.8681Z" fill="white"/>
<path d="M76.0245 8.64725H80.7906V25.5346H76.0245V8.64725ZM76.1866 5.9079C75.603 5.30632 75.3112 4.57582 75.3112 3.71642C75.3112 2.85701 75.603 2.12652 76.1866 1.52493C76.7918 0.92335 77.5267 0.622559 78.3913 0.622559C79.2559 0.622559 79.9908 0.92335 80.5961 1.52493C81.2013 2.12652 81.5039 2.85701 81.5039 3.71642C81.5039 4.57582 81.2013 5.30632 80.5961 5.9079C79.9908 6.488 79.2559 6.77805 78.3913 6.77805C77.5267 6.77805 76.7918 6.488 76.1866 5.9079Z" fill="white"/>
<path d="M96.0244 24.1488C95.5921 24.6859 94.9977 25.1371 94.2412 25.5023C93.5063 25.8461 92.6308 26.018 91.6149 26.018C89.6912 26.018 88.2646 25.4808 87.3352 24.4066C86.4057 23.3323 85.941 21.9358 85.941 20.217V13.6103H83.0554V12.2568L89.5399 4.3932H90.7071V8.64725H95.7975V13.6103H90.7071V19.1212C90.7071 19.8088 90.88 20.2922 91.2259 20.5715C91.5933 20.8508 92.0256 20.9905 92.5228 20.9905C93.409 20.9905 94.2412 20.593 95.0193 19.798L96.0244 24.1488Z" fill="white"/>
<path d="M97.2815 8.64725H102.404L106.457 18.1222L110.51 8.64725H115.762L105.582 32.399H100.394L103.928 24.181L97.2815 8.64725Z" fill="white"/>
<path d="M124.076 11.9573C123.651 11.9573 123.297 12.0296 122.944 12.1743C122.59 12.3191 122.307 12.4638 121.953 12.6809C121.67 12.898 121.387 13.1151 121.174 13.4046C120.962 13.694 120.75 13.9835 120.537 14.2729L119.051 11.5954C119.193 11.0889 119.405 10.5823 119.688 10.1481C119.971 9.71392 120.396 9.27973 120.821 8.99027C121.245 8.62844 121.811 8.41134 122.377 8.19425C122.944 7.97715 123.581 7.90479 124.288 7.90479C125.208 7.90479 125.987 8.04952 126.624 8.33898C127.331 8.62844 127.897 8.99027 128.322 9.49683C128.817 10.0034 129.171 10.5823 129.384 11.2336C129.737 11.8849 129.879 12.5362 129.879 13.3322C129.879 13.9835 129.808 14.5624 129.667 15.069C129.525 15.5755 129.313 16.0821 129.03 16.5886C128.747 17.0952 128.393 17.6018 127.968 18.1083C127.544 18.6149 127.048 19.1938 126.553 19.8451L124.854 21.799H130.233V25.7791H119.193V22.7397L124.076 17.3123C124.43 16.9505 124.713 16.5886 124.996 16.2992C125.279 16.0097 125.491 15.7203 125.633 15.4308C125.774 15.1413 125.916 14.9242 125.987 14.6348C126.057 14.4177 126.128 14.1282 126.128 13.7664C126.128 13.2598 125.916 12.8256 125.562 12.4638C125.208 12.102 124.713 11.9573 124.076 11.9573Z" fill="white"/>
<path d="M137.889 8.54315C138.968 8.11757 140.191 7.90479 141.414 7.90479C142.637 7.90479 143.86 8.11757 144.94 8.54315C146.019 8.96873 147.026 9.6071 147.889 10.3873C148.752 11.1676 149.4 12.1606 149.903 13.2245C150.407 14.3594 150.623 15.5652 150.623 16.8419C150.623 18.1896 150.407 19.3954 149.903 20.4593C149.4 21.5942 148.752 22.5163 147.889 23.2965C147.026 24.0768 146.091 24.7151 144.94 25.1407C143.788 25.5663 142.637 25.7791 141.414 25.7791C140.191 25.7791 138.968 25.5663 137.889 25.1407C136.738 24.7151 135.803 24.0768 134.94 23.2965C134.077 22.5163 133.429 21.5233 132.925 20.4593C132.422 19.3954 132.206 18.1187 132.206 16.8419C132.206 15.4943 132.422 14.2885 132.925 13.2245C133.429 12.0896 134.077 11.1676 134.94 10.3873C135.803 9.53617 136.81 8.96873 137.889 8.54315ZM141.414 21.8779C142.134 21.8779 142.853 21.7361 143.501 21.5233C144.148 21.2396 144.724 20.9558 145.227 20.4593C145.731 20.0338 146.091 19.4663 146.378 18.8989C146.666 18.2605 146.81 17.6222 146.81 16.8419C146.81 16.1326 146.666 15.4233 146.378 14.785C146.091 14.1466 145.731 13.6501 145.227 13.1536C144.724 12.728 144.148 12.3734 143.501 12.0896C142.853 11.8059 142.134 11.735 141.414 11.735C140.623 11.735 139.976 11.8768 139.256 12.0896C138.609 12.3734 138.033 12.6571 137.53 13.1536C137.026 13.5792 136.666 14.1466 136.379 14.785C136.091 15.4233 135.947 16.0617 135.947 16.8419C135.947 17.6222 136.091 18.2605 136.379 18.8989C136.666 19.5373 137.026 20.0338 137.53 20.4593C138.033 20.8849 138.609 21.2396 139.256 21.5233C139.976 21.807 140.623 21.8779 141.414 21.8779Z" fill="white"/>
<path d="M156.501 22.3658C157.31 22.3658 157.972 22.1513 158.413 21.7939C158.928 21.4364 159.149 20.9359 159.149 20.2924C159.149 19.7204 158.928 19.2915 158.487 18.934C158.046 18.5765 157.457 18.4335 156.722 18.4335C156.207 18.4335 155.766 18.505 155.398 18.5765C155.031 18.7195 154.736 18.791 154.589 18.934L154.001 16.2171L157.09 12.4992H152.163V8.56689H162.164V11.4268L159.149 15.0731C159.59 15.1446 160.031 15.3591 160.472 15.5736C160.914 15.7881 161.355 16.1456 161.796 16.5746C162.237 17.0036 162.531 17.504 162.752 18.1475C162.973 18.791 163.12 19.506 163.12 20.4354C163.12 21.2934 162.973 22.0083 162.678 22.7233C162.384 23.4383 161.943 24.0818 161.355 24.6537C160.766 25.2257 160.105 25.6547 159.296 25.9407C158.487 26.2267 157.604 26.4412 156.575 26.4412C155.84 26.4412 155.178 26.3697 154.589 26.2267C154.001 26.0837 153.486 25.8692 153.045 25.5832C152.604 25.2972 152.236 25.0112 151.942 24.7252C151.648 24.3678 151.427 24.0818 151.28 23.7243L152.163 20.5069C152.677 21.0789 153.266 21.5079 153.928 21.9369C154.442 22.1513 155.398 22.3658 156.501 22.3658Z" fill="white"/>
<path d="M170.118 8.54315C171.197 8.11757 172.42 7.90479 173.643 7.90479C174.866 7.90479 176.089 8.11757 177.169 8.54315C178.248 8.96873 179.255 9.6071 180.118 10.3873C180.981 11.1676 181.629 12.1606 182.132 13.2245C182.636 14.3594 182.852 15.5652 182.852 16.8419C182.852 18.1896 182.636 19.3954 182.132 20.4593C181.629 21.5942 180.981 22.5163 180.118 23.2965C179.255 24.0768 178.32 24.7151 177.169 25.1407C176.017 25.5663 174.866 25.7791 173.643 25.7791C172.42 25.7791 171.197 25.5663 170.118 25.1407C168.967 24.7151 168.032 24.0768 167.169 23.2965C166.306 22.5163 165.658 21.5233 165.154 20.4593C164.651 19.3954 164.435 18.1187 164.435 16.8419C164.435 15.4943 164.651 14.2885 165.154 13.2245C165.658 12.0896 166.306 11.1676 167.169 10.3873C168.032 9.53617 169.039 8.96873 170.118 8.54315ZM173.643 21.8779C174.363 21.8779 175.082 21.7361 175.73 21.5233C176.377 21.2396 176.953 20.9558 177.456 20.4593C177.96 20.0338 178.32 19.4663 178.607 18.8989C178.895 18.2605 179.039 17.6222 179.039 16.8419C179.039 16.1326 178.895 15.4233 178.607 14.785C178.32 14.1466 177.96 13.6501 177.456 13.1536C176.953 12.728 176.377 12.3734 175.73 12.0896C175.082 11.8059 174.363 11.735 173.643 11.735C172.852 11.735 172.205 11.8768 171.485 12.0896C170.838 12.3734 170.262 12.6571 169.759 13.1536C169.255 13.5792 168.895 14.1466 168.608 14.785C168.32 15.4233 168.176 16.0617 168.176 16.8419C168.176 17.6222 168.32 18.2605 168.608 18.8989C168.895 19.5373 169.255 20.0338 169.759 20.4593C170.262 20.8849 170.838 21.2396 171.485 21.5233C172.205 21.807 172.924 21.8779 173.643 21.8779Z" fill="white"/>
<path d="M191.641 5.2998H188.226L184.3 12.1751H187.715L191.641 5.2998Z" fill="white"/>
<path d="M188.226 5.2998H191.642L195.6 12.1751H192.184L188.226 5.2998Z" fill="white"/>
<path d="M0 38.2886H2.00628V49.8638H0V38.2886Z" fill="white"/>
<path d="M8.29836 48.0512C8.80388 48.0512 9.28833 47.9611 9.75173 47.7809C10.2151 47.5901 10.5627 47.341 10.7944 47.0336L11.4105 48.5918C11.1577 49.0158 10.7522 49.3709 10.1941 49.6571C9.64641 49.9433 8.99345 50.0864 8.23517 50.0864C7.6138 50.0864 7.03456 49.9857 6.49745 49.7843C5.97087 49.5829 5.51274 49.2967 5.12307 48.9257C4.7334 48.5547 4.42798 48.1042 4.20682 47.5742C3.98565 47.0442 3.87507 46.4453 3.87507 45.7775C3.87507 45.1945 3.96985 44.6433 4.15942 44.1239C4.35953 43.6045 4.63861 43.1487 4.99669 42.7565C5.3653 42.3537 5.80236 42.0357 6.30788 41.8025C6.82393 41.5693 7.40317 41.4527 8.0456 41.4527C8.6459 41.4527 9.18828 41.5746 9.67274 41.8184C10.1677 42.0516 10.5837 42.3696 10.9207 42.7724C11.2683 43.1646 11.5368 43.6204 11.7264 44.1398C11.916 44.6592 12.0108 45.2051 12.0108 45.7775C12.0108 45.8941 12.0055 46.0213 11.995 46.1591C11.995 46.2863 11.9844 46.3976 11.9634 46.493H5.92874C6.02352 47.0336 6.28682 47.4311 6.71861 47.6855C7.15041 47.9293 7.67699 48.0512 8.29836 48.0512ZM9.95709 44.8394C9.8939 44.4048 9.68327 44.0762 9.3252 43.8536C8.96712 43.6204 8.54059 43.5038 8.0456 43.5038C7.55061 43.5038 7.10828 43.6204 6.71861 43.8536C6.32894 44.0762 6.09198 44.4048 6.00773 44.8394H9.95709Z" fill="white"/>
<path d="M18.4661 46.9223C18.3819 46.7739 18.1976 46.6467 17.9132 46.5407C17.6289 46.4241 17.3024 46.3658 16.9338 46.3658C16.4072 46.3658 16.0123 46.4506 15.749 46.6202C15.4857 46.7898 15.354 47.0124 15.354 47.288C15.354 47.5636 15.4857 47.7862 15.749 47.9558C16.0228 48.1148 16.4125 48.1943 16.918 48.1943C17.2866 48.1943 17.6131 48.1307 17.8974 48.0035C18.1818 47.8657 18.3713 47.7014 18.4661 47.5106V46.9223ZM13.7585 42.8996C13.9059 42.6664 14.0902 42.4597 14.3114 42.2795C14.5431 42.0993 14.7958 41.9509 15.0697 41.8343C15.3435 41.7071 15.6331 41.6117 15.9385 41.5481C16.2545 41.4845 16.5704 41.4527 16.8864 41.4527C17.4235 41.4527 17.908 41.5269 18.3397 41.6753C18.7821 41.8237 19.1612 42.0357 19.4772 42.3113C19.7931 42.5869 20.0353 42.9314 20.2038 43.3448C20.3829 43.7476 20.4724 44.2087 20.4724 44.7281V49.8638H18.5293V49.1483C18.3292 49.4557 18.0185 49.6889 17.5973 49.8479C17.176 50.0069 16.7442 50.0864 16.3019 50.0864C15.8701 50.0864 15.4751 50.0228 15.1171 49.8956C14.759 49.7684 14.443 49.5935 14.1692 49.3709C13.9059 49.1377 13.7006 48.8568 13.5531 48.5282C13.4057 48.189 13.332 47.8127 13.332 47.3993C13.332 46.9647 13.4162 46.5831 13.5847 46.2545C13.7637 45.9153 14.0007 45.6344 14.2956 45.4118C14.5905 45.1786 14.9275 45.0037 15.3066 44.8871C15.6963 44.7705 16.0965 44.7122 16.5072 44.7122C17.0338 44.7122 17.4604 44.7758 17.7868 44.903C18.1238 45.0196 18.3503 45.1468 18.4661 45.2846V45.062C18.4661 44.585 18.3082 44.2034 17.9922 43.9172C17.6868 43.631 17.2339 43.4879 16.6336 43.4879C16.1176 43.4879 15.6489 43.5886 15.2276 43.79C14.8169 43.9914 14.4904 44.2458 14.2482 44.5532L13.7585 42.8996Z" fill="white"/>
<path d="M22.6115 47.5265C22.3903 46.9965 22.2797 46.4135 22.2797 45.7775C22.2797 45.1415 22.3903 44.5585 22.6115 44.0285C22.8432 43.4985 23.1486 43.0427 23.5277 42.6611C23.9069 42.2795 24.3439 41.9827 24.8389 41.7707C25.3339 41.5587 25.85 41.4527 26.3871 41.4527C26.9874 41.4527 27.4982 41.5587 27.9194 41.7707C28.3512 41.9721 28.6356 42.2265 28.7725 42.5339V38.2886H30.7788V49.8638H28.8357V49.0052C28.6988 49.3126 28.4092 49.5723 27.9668 49.7843C27.535 49.9857 27.019 50.0864 26.4187 50.0864C25.871 50.0864 25.3444 49.9857 24.8389 49.7843C24.3439 49.5723 23.9069 49.2755 23.5277 48.8939C23.1486 48.5123 22.8432 48.0565 22.6115 47.5265ZM24.4756 44.903C24.3597 45.168 24.3018 45.4595 24.3018 45.7775C24.3018 46.0955 24.3597 46.387 24.4756 46.652C24.5914 46.917 24.7494 47.1449 24.9495 47.3357C25.1601 47.5265 25.4076 47.6749 25.692 47.7809C25.9869 47.8869 26.3081 47.9399 26.6556 47.9399C27.1612 47.9399 27.6087 47.8392 27.9984 47.6378C28.3881 47.4258 28.6461 47.1661 28.7725 46.8587V44.6804C28.6461 44.373 28.3881 44.1186 27.9984 43.9172C27.6087 43.7052 27.1612 43.5992 26.6556 43.5992C26.3081 43.5992 25.9869 43.6522 25.692 43.7582C25.4076 43.8642 25.1601 44.0126 24.9495 44.2034C24.7494 44.3942 24.5914 44.6274 24.4756 44.903Z" fill="white"/>
<path d="M37.0701 48.0512C37.5756 48.0512 38.0601 47.9611 38.5235 47.7809C38.9869 47.5901 39.3344 47.341 39.5661 47.0336L40.1822 48.5918C39.9295 49.0158 39.524 49.3709 38.9658 49.6571C38.4182 49.9433 37.7652 50.0864 37.0069 50.0864C36.3856 50.0864 35.8063 49.9857 35.2692 49.7843C34.7426 49.5829 34.2845 49.2967 33.8948 48.9257C33.5052 48.5547 33.1997 48.1042 32.9786 47.5742C32.7574 47.0442 32.6468 46.4453 32.6468 45.7775C32.6468 45.1945 32.7416 44.6433 32.9312 44.1239C33.1313 43.6045 33.4104 43.1487 33.7684 42.7565C34.1371 42.3537 34.5741 42.0357 35.0796 41.8025C35.5957 41.5693 36.1749 41.4527 36.8174 41.4527C37.4177 41.4527 37.96 41.5746 38.4445 41.8184C38.9395 42.0516 39.3555 42.3696 39.6925 42.7724C40.04 43.1646 40.3086 43.6204 40.4982 44.1398C40.6877 44.6592 40.7825 45.2051 40.7825 45.7775C40.7825 45.8941 40.7773 46.0213 40.7667 46.1591C40.7667 46.2863 40.7562 46.3976 40.7351 46.493H34.7005C34.7953 47.0336 35.0586 47.4311 35.4904 47.6855C35.9222 47.9293 36.4487 48.0512 37.0701 48.0512ZM38.7288 44.8394C38.6657 44.4048 38.455 44.0762 38.097 43.8536C37.7389 43.6204 37.3123 43.5038 36.8174 43.5038C36.3224 43.5038 35.88 43.6204 35.4904 43.8536C35.1007 44.0762 34.8637 44.4048 34.7795 44.8394H38.7288Z" fill="white"/>
<path d="M47.4117 43.9331C47.2958 43.8483 47.1431 43.7741 46.9535 43.7105C46.7745 43.6363 46.5691 43.5992 46.3374 43.5992C45.8635 43.5992 45.4844 43.7317 45.2 43.9967C44.9157 44.2511 44.7313 44.5638 44.6471 44.9348V49.8638H42.6408V41.6753H44.5839V42.7565C44.6998 42.3749 44.9104 42.0622 45.2158 41.8184C45.5318 41.5746 45.9214 41.4527 46.3848 41.4527C46.6902 41.4527 46.9588 41.5163 47.1905 41.6435C47.4222 41.7601 47.5907 41.9032 47.696 42.0728L47.4117 43.9331Z" fill="white"/>
<path d="M50.8084 46.3181C50.1449 45.9789 49.6499 45.6079 49.3234 45.2051C49.0074 44.8023 48.8495 44.3412 48.8495 43.8218C48.8495 43.5038 48.9127 43.2017 49.039 42.9155C49.1654 42.6187 49.3445 42.3643 49.5762 42.1523C49.8184 41.9403 50.0975 41.7707 50.4134 41.6435C50.7399 41.5163 51.1032 41.4527 51.5034 41.4527C52.1038 41.4527 52.6198 41.5693 53.0516 41.8025C53.4834 42.0251 53.7941 42.2848 53.9837 42.5816L53.6045 44.3783C53.278 44.0603 52.9252 43.8377 52.5461 43.7105C52.1669 43.5833 51.8352 43.5197 51.5508 43.5197C51.098 43.5197 50.8715 43.6522 50.8715 43.9172C50.8715 44.0444 50.9242 44.1504 51.0295 44.2352C51.1348 44.3094 51.2981 44.4048 51.5192 44.5214L52.2775 44.9189C52.941 45.2581 53.4465 45.6238 53.7941 46.016C54.1416 46.4082 54.3154 46.9117 54.3154 47.5265C54.3154 47.8975 54.2469 48.2367 54.11 48.5441C53.9731 48.8515 53.773 49.1218 53.5097 49.355C53.257 49.5882 52.9515 49.7684 52.5935 49.8956C52.2354 50.0228 51.8352 50.0864 51.3929 50.0864C50.6978 50.0864 50.1133 49.9433 49.6393 49.6571C49.1654 49.3709 48.8284 49.0476 48.6283 48.6872L49.197 46.9064C49.2918 47.0336 49.4076 47.1661 49.5446 47.3039C49.692 47.4417 49.8605 47.5689 50.0501 47.6855C50.2397 47.7915 50.4503 47.8816 50.682 47.9558C50.9137 48.0194 51.1717 48.0512 51.4561 48.0512C51.6983 48.0512 51.9036 48.0088 52.0722 47.924C52.2407 47.8392 52.3249 47.6961 52.3249 47.4947C52.3249 47.3145 52.2565 47.1714 52.1195 47.0654C51.9826 46.9488 51.772 46.8163 51.4876 46.6679L50.8084 46.3181Z" fill="white"/>
<path d="M65.0563 46.9223C64.9721 46.7739 64.7878 46.6467 64.5034 46.5407C64.219 46.4241 63.8926 46.3658 63.524 46.3658C62.9974 46.3658 62.6024 46.4506 62.3392 46.6202C62.0759 46.7898 61.9442 47.0124 61.9442 47.288C61.9442 47.5636 62.0759 47.7862 62.3392 47.9558C62.613 48.1148 63.0026 48.1943 63.5082 48.1943C63.8768 48.1943 64.2033 48.1307 64.4876 48.0035C64.772 47.8657 64.9615 47.7014 65.0563 47.5106V46.9223ZM60.3487 42.8996C60.4961 42.6664 60.6804 42.4597 60.9016 42.2795C61.1333 42.0993 61.386 41.9509 61.6599 41.8343C61.9337 41.7071 62.2233 41.6117 62.5287 41.5481C62.8447 41.4845 63.1606 41.4527 63.4766 41.4527C64.0137 41.4527 64.4981 41.5269 64.9299 41.6753C65.3723 41.8237 65.7514 42.0357 66.0674 42.3113C66.3833 42.5869 66.6255 42.9314 66.794 43.3448C66.9731 43.7476 67.0626 44.2087 67.0626 44.7281V49.8638H65.1195V49.1483C64.9194 49.4557 64.6087 49.6889 64.1875 49.8479C63.7662 50.0069 63.3344 50.0864 62.8921 50.0864C62.4603 50.0864 62.0653 50.0228 61.7072 49.8956C61.3492 49.7684 61.0332 49.5935 60.7594 49.3709C60.4961 49.1377 60.2907 48.8568 60.1433 48.5282C59.9959 48.189 59.9221 47.8127 59.9221 47.3993C59.9221 46.9647 60.0064 46.5831 60.1749 46.2545C60.3539 45.9153 60.5909 45.6344 60.8858 45.4118C61.1807 45.1786 61.5177 45.0037 61.8968 44.8871C62.2865 44.7705 62.6867 44.7122 63.0974 44.7122C63.624 44.7122 64.0505 44.7758 64.377 44.903C64.714 45.0196 64.9405 45.1468 65.0563 45.2846V45.062C65.0563 44.585 64.8983 44.2034 64.5824 43.9172C64.277 43.631 63.8241 43.4879 63.2238 43.4879C62.7078 43.4879 62.2391 43.5886 61.8178 43.79C61.4071 43.9914 61.0806 44.2458 60.8384 44.5532L60.3487 42.8996Z" fill="white"/>
<path d="M74.1779 43.9331C74.062 43.8483 73.9093 43.7741 73.7197 43.7105C73.5407 43.6363 73.3353 43.5992 73.1036 43.5992C72.6297 43.5992 72.2506 43.7317 71.9662 43.9967C71.6819 44.2511 71.4976 44.5638 71.4133 44.9348V49.8638H69.407V41.6753H71.3501V42.7565C71.466 42.3749 71.6766 42.0622 71.982 41.8184C72.298 41.5746 72.6876 41.4527 73.151 41.4527C73.4565 41.4527 73.725 41.5163 73.9567 41.6435C74.1884 41.7601 74.3569 41.9032 74.4622 42.0728L74.1779 43.9331Z" fill="white"/>
<path d="M79.6338 48.0512C80.1393 48.0512 80.6238 47.9611 81.0872 47.7809C81.5506 47.5901 81.8981 47.341 82.1298 47.0336L82.7459 48.5918C82.4931 49.0158 82.0877 49.3709 81.5295 49.6571C80.9818 49.9433 80.3289 50.0864 79.5706 50.0864C78.9492 50.0864 78.37 49.9857 77.8329 49.7843C77.3063 49.5829 76.8482 49.2967 76.4585 48.9257C76.0688 48.5547 75.7634 48.1042 75.5423 47.5742C75.3211 47.0442 75.2105 46.4453 75.2105 45.7775C75.2105 45.1945 75.3053 44.6433 75.4949 44.1239C75.695 43.6045 75.9741 43.1487 76.3321 42.7565C76.7007 42.3537 77.1378 42.0357 77.6433 41.8025C78.1594 41.5693 78.7386 41.4527 79.381 41.4527C79.9813 41.4527 80.5237 41.5746 81.0082 41.8184C81.5032 42.0516 81.9192 42.3696 82.2562 42.7724C82.6037 43.1646 82.8723 43.6204 83.0619 44.1398C83.2514 44.6592 83.3462 45.2051 83.3462 45.7775C83.3462 45.8941 83.3409 46.0213 83.3304 46.1591C83.3304 46.2863 83.3199 46.3976 83.2988 46.493H77.2642C77.359 47.0336 77.6223 47.4311 78.054 47.6855C78.4858 47.9293 79.0124 48.0512 79.6338 48.0512ZM81.2925 44.8394C81.2293 44.4048 81.0187 44.0762 80.6606 43.8536C80.3026 43.6204 79.876 43.5038 79.381 43.5038C78.8861 43.5038 78.4437 43.6204 78.054 43.8536C77.6644 44.0762 77.4274 44.4048 77.3432 44.8394H81.2925Z" fill="white"/>
<path d="M98.7513 41.4527C99.141 41.4527 99.5254 41.5216 99.9045 41.6594C100.294 41.7972 100.642 42.0039 100.947 42.2795C101.253 42.5551 101.5 42.9102 101.69 43.3448C101.89 43.7688 101.99 44.267 101.99 44.8394V49.8638H99.9835V45.2846C99.9835 44.744 99.8308 44.3306 99.5254 44.0444C99.2305 43.7476 98.8619 43.5992 98.4196 43.5992C98.0194 43.5992 97.656 43.7158 97.3296 43.949C97.0031 44.1716 96.803 44.4525 96.7292 44.7917V49.8638H94.723V45.2687C94.723 44.7281 94.5703 44.3147 94.2648 44.0285C93.97 43.7423 93.5961 43.5992 93.1432 43.5992C92.743 43.5992 92.3797 43.7158 92.0532 43.949C91.7373 44.1716 91.5424 44.4525 91.4687 44.7917V49.8638H89.4624V41.6753H91.4055V42.5021C91.5108 42.2053 91.7425 41.9562 92.1006 41.7548C92.4692 41.5534 92.9326 41.4527 93.4908 41.4527C93.9647 41.4527 94.4228 41.5534 94.8652 41.7548C95.318 41.9456 95.7077 42.2424 96.0342 42.6452C96.3606 42.2 96.7503 41.8926 97.2032 41.723C97.6666 41.5428 98.1826 41.4527 98.7513 41.4527Z" fill="white"/>
<path d="M108.839 46.9223C108.754 46.7739 108.57 46.6467 108.286 46.5407C108.001 46.4241 107.675 46.3658 107.306 46.3658C106.78 46.3658 106.385 46.4506 106.122 46.6202C105.858 46.7898 105.727 47.0124 105.727 47.288C105.727 47.5636 105.858 47.7862 106.122 47.9558C106.395 48.1148 106.785 48.1943 107.291 48.1943C107.659 48.1943 107.986 48.1307 108.27 48.0035C108.554 47.8657 108.744 47.7014 108.839 47.5106V46.9223ZM104.131 42.8996C104.279 42.6664 104.463 42.4597 104.684 42.2795C104.916 42.0993 105.168 41.9509 105.442 41.8343C105.716 41.7071 106.006 41.6117 106.311 41.5481C106.627 41.4845 106.943 41.4527 107.259 41.4527C107.796 41.4527 108.281 41.5269 108.712 41.6753C109.155 41.8237 109.534 42.0357 109.85 42.3113C110.166 42.5869 110.408 42.9314 110.576 43.3448C110.756 43.7476 110.845 44.2087 110.845 44.7281V49.8638H108.902V49.1483C108.702 49.4557 108.391 49.6889 107.97 49.8479C107.549 50.0069 107.117 50.0864 106.674 50.0864C106.243 50.0864 105.848 50.0228 105.49 49.8956C105.132 49.7684 104.816 49.5935 104.542 49.3709C104.279 49.1377 104.073 48.8568 103.926 48.5282C103.778 48.189 103.705 47.8127 103.705 47.3993C103.705 46.9647 103.789 46.5831 103.957 46.2545C104.136 45.9153 104.373 45.6344 104.668 45.4118C104.963 45.1786 105.3 45.0037 105.679 44.8871C106.069 44.7705 106.469 44.7122 106.88 44.7122C107.406 44.7122 107.833 44.7758 108.159 44.903C108.496 45.0196 108.723 45.1468 108.839 45.2846V45.062C108.839 44.585 108.681 44.2034 108.365 43.9172C108.059 43.631 107.607 43.4879 107.006 43.4879C106.49 43.4879 106.022 43.5886 105.6 43.79C105.19 43.9914 104.863 44.2458 104.621 44.5532L104.131 42.8996Z" fill="white"/>
<path d="M112.984 47.5265C112.763 46.9965 112.652 46.4135 112.652 45.7775C112.652 45.1415 112.763 44.5585 112.984 44.0285C113.216 43.4985 113.521 43.0427 113.9 42.6611C114.279 42.2795 114.717 41.9827 115.212 41.7707C115.707 41.5587 116.223 41.4527 116.76 41.4527C117.36 41.4527 117.871 41.5587 118.292 41.7707C118.724 41.9721 119.008 42.2265 119.145 42.5339V38.2886H121.151V49.8638H119.208V49.0052C119.071 49.3126 118.782 49.5723 118.339 49.7843C117.908 49.9857 117.392 50.0864 116.791 50.0864C116.244 50.0864 115.717 49.9857 115.212 49.7843C114.717 49.5723 114.279 49.2755 113.9 48.8939C113.521 48.5123 113.216 48.0565 112.984 47.5265ZM114.848 44.903C114.732 45.168 114.674 45.4595 114.674 45.7775C114.674 46.0955 114.732 46.387 114.848 46.652C114.964 46.917 115.122 47.1449 115.322 47.3357C115.533 47.5265 115.78 47.6749 116.065 47.7809C116.359 47.8869 116.681 47.9399 117.028 47.9399C117.534 47.9399 117.981 47.8392 118.371 47.6378C118.761 47.4258 119.019 47.1661 119.145 46.8587V44.6804C119.019 44.373 118.761 44.1186 118.371 43.9172C117.981 43.7052 117.534 43.5992 117.028 43.5992C116.681 43.5992 116.359 43.6522 116.065 43.7582C115.78 43.8642 115.533 44.0126 115.322 44.2034C115.122 44.3942 114.964 44.6274 114.848 44.903Z" fill="white"/>
<path d="M127.443 48.0512C127.948 48.0512 128.433 47.9611 128.896 47.7809C129.359 47.5901 129.707 47.341 129.939 47.0336L130.555 48.5918C130.302 49.0158 129.897 49.3709 129.338 49.6571C128.791 49.9433 128.138 50.0864 127.38 50.0864C126.758 50.0864 126.179 49.9857 125.642 49.7843C125.115 49.5829 124.657 49.2967 124.267 48.9257C123.878 48.5547 123.572 48.1042 123.351 47.5742C123.13 47.0442 123.019 46.4453 123.019 45.7775C123.019 45.1945 123.114 44.6433 123.304 44.1239C123.504 43.6045 123.783 43.1487 124.141 42.7565C124.51 42.3537 124.947 42.0357 125.452 41.8025C125.968 41.5693 126.548 41.4527 127.19 41.4527C127.79 41.4527 128.333 41.5746 128.817 41.8184C129.312 42.0516 129.728 42.3696 130.065 42.7724C130.413 43.1646 130.681 43.6204 130.871 44.1398C131.06 44.6592 131.155 45.2051 131.155 45.7775C131.155 45.8941 131.15 46.0213 131.139 46.1591C131.139 46.2863 131.129 46.3976 131.108 46.493H125.073C125.168 47.0336 125.431 47.4311 125.863 47.6855C126.295 47.9293 126.821 48.0512 127.443 48.0512ZM129.101 44.8394C129.038 44.4048 128.828 44.0762 128.47 43.8536C128.111 43.6204 127.685 43.5038 127.19 43.5038C126.695 43.5038 126.253 43.6204 125.863 43.8536C125.473 44.0762 125.236 44.4048 125.152 44.8394H129.101Z" fill="white"/>
<path d="M133.835 49.9115C133.624 49.8585 133.419 49.7313 133.219 49.5299C133.029 49.3285 132.934 49.0423 132.934 48.6713C132.934 48.4805 132.966 48.3056 133.029 48.1466C133.103 47.977 133.203 47.8339 133.329 47.7173C133.456 47.5901 133.603 47.4947 133.772 47.4311C133.94 47.3569 134.125 47.3198 134.325 47.3198C134.714 47.3198 135.03 47.4576 135.272 47.7332C135.525 48.0088 135.652 48.3374 135.652 48.719C135.652 49.037 135.599 49.3232 135.494 49.5776C135.388 49.832 135.262 50.0864 135.115 50.3408L134.088 52.0898H132.824L133.835 49.9115Z" fill="white"/>
<path d="M149.822 49.8638H147.815V45.4436C147.815 44.85 147.647 44.3942 147.31 44.0762C146.973 43.7582 146.557 43.5992 146.062 43.5992C145.63 43.5992 145.235 43.7158 144.877 43.949C144.53 44.1822 144.319 44.479 144.245 44.8394V49.8638H142.239V41.6753H144.182V42.5021C144.298 42.1947 144.54 41.9456 144.909 41.7548C145.288 41.5534 145.772 41.4527 146.362 41.4527C146.783 41.4527 147.199 41.5269 147.61 41.6753C148.021 41.8131 148.389 42.0304 148.716 42.3272C149.042 42.624 149.306 43.0056 149.506 43.472C149.716 43.9278 149.822 44.4737 149.822 45.1097V49.8638Z" fill="white"/>
<path d="M160.138 45.7775C160.138 46.4029 160.022 46.9806 159.791 47.5106C159.559 48.03 159.243 48.4805 158.843 48.8621C158.453 49.2437 158 49.5458 157.484 49.7684C156.968 49.9804 156.421 50.0864 155.841 50.0864C155.262 50.0864 154.714 49.9804 154.198 49.7684C153.682 49.5458 153.224 49.2437 152.824 48.8621C152.434 48.4805 152.124 48.03 151.892 47.5106C151.66 46.9806 151.544 46.4029 151.544 45.7775C151.544 45.1627 151.66 44.5903 151.892 44.0603C152.124 43.5303 152.434 43.0745 152.824 42.6929C153.224 42.3007 153.682 41.9986 154.198 41.7866C154.714 41.564 155.262 41.4527 155.841 41.4527C156.421 41.4527 156.968 41.564 157.484 41.7866C158 41.9986 158.453 42.3007 158.843 42.6929C159.243 43.0745 159.559 43.5303 159.791 44.0603C160.022 44.5903 160.138 45.1627 160.138 45.7775ZM153.74 44.903C153.624 45.168 153.566 45.4595 153.566 45.7775C153.566 46.0955 153.624 46.387 153.74 46.652C153.856 46.917 154.014 47.1449 154.214 47.3357C154.425 47.5265 154.667 47.6749 154.941 47.7809C155.225 47.8869 155.525 47.9399 155.841 47.9399C156.157 47.9399 156.452 47.8869 156.726 47.7809C157 47.6749 157.237 47.5265 157.437 47.3357C157.647 47.1449 157.811 46.917 157.927 46.652C158.053 46.387 158.116 46.0955 158.116 45.7775C158.116 45.4595 158.053 45.168 157.927 44.903C157.811 44.6274 157.647 44.3942 157.437 44.2034C157.237 44.0126 157 43.8642 156.726 43.7582C156.452 43.6522 156.157 43.5992 155.841 43.5992C155.525 43.5992 155.225 43.6522 154.941 43.7582C154.667 43.8642 154.425 44.0126 154.214 44.2034C154.014 44.3942 153.856 44.6274 153.74 44.903Z" fill="white"/>
<path d="M167.123 49.1324C166.934 49.408 166.665 49.6359 166.318 49.8161C165.97 49.9963 165.565 50.0864 165.101 50.0864C164.195 50.0864 163.521 49.8426 163.079 49.355C162.647 48.8674 162.431 48.1784 162.431 47.288V43.8218H161.041V43.1699L163.837 39.6083H164.453V41.6753H167.028V43.8218H164.438V46.8428C164.438 47.2456 164.538 47.5318 164.738 47.7014C164.938 47.8604 165.175 47.9399 165.449 47.9399C165.723 47.9399 165.954 47.8922 166.144 47.7968C166.333 47.6908 166.518 47.5318 166.697 47.3198L167.123 49.1324Z" fill="white"/>
<path d="M181.492 44.0285C181.723 44.5585 181.839 45.1415 181.839 45.7775C181.839 46.4135 181.723 46.9965 181.492 47.5265C181.271 48.0565 180.97 48.5123 180.591 48.8939C180.212 49.2755 179.77 49.5723 179.264 49.7843C178.769 49.9857 178.248 50.0864 177.7 50.0864C177.1 50.0864 176.579 49.9857 176.136 49.7843C175.705 49.5723 175.42 49.3126 175.283 49.0052V49.8638H173.34V38.2886H175.346V42.5339C175.483 42.2265 175.762 41.9721 176.184 41.7707C176.616 41.5587 177.132 41.4527 177.732 41.4527C178.269 41.4527 178.785 41.5587 179.28 41.7707C179.775 41.9827 180.212 42.2795 180.591 42.6611C180.97 43.0427 181.271 43.4985 181.492 44.0285ZM179.643 46.652C179.759 46.387 179.817 46.0955 179.817 45.7775C179.817 45.4595 179.759 45.168 179.643 44.903C179.528 44.6274 179.364 44.3942 179.154 44.2034C178.954 44.0126 178.706 43.8642 178.411 43.7582C178.127 43.6522 177.811 43.5992 177.463 43.5992C176.958 43.5992 176.51 43.7052 176.121 43.9172C175.731 44.1186 175.473 44.373 175.346 44.6804V46.8587C175.473 47.1661 175.731 47.4258 176.121 47.6378C176.51 47.8392 176.958 47.9399 177.463 47.9399C177.811 47.9399 178.127 47.8869 178.411 47.7809C178.706 47.6749 178.954 47.5265 179.154 47.3357C179.364 47.1449 179.528 46.917 179.643 46.652Z" fill="white"/>
<path d="M191.764 45.7775C191.764 46.4029 191.648 46.9806 191.416 47.5106C191.185 48.03 190.869 48.4805 190.469 48.8621C190.079 49.2437 189.626 49.5458 189.11 49.7684C188.594 49.9804 188.046 50.0864 187.467 50.0864C186.888 50.0864 186.34 49.9804 185.824 49.7684C185.308 49.5458 184.85 49.2437 184.45 48.8621C184.06 48.4805 183.749 48.03 183.518 47.5106C183.286 46.9806 183.17 46.4029 183.17 45.7775C183.17 45.1627 183.286 44.5903 183.518 44.0603C183.749 43.5303 184.06 43.0745 184.45 42.6929C184.85 42.3007 185.308 41.9986 185.824 41.7866C186.34 41.564 186.888 41.4527 187.467 41.4527C188.046 41.4527 188.594 41.564 189.11 41.7866C189.626 41.9986 190.079 42.3007 190.469 42.6929C190.869 43.0745 191.185 43.5303 191.416 44.0603C191.648 44.5903 191.764 45.1627 191.764 45.7775ZM185.366 44.903C185.25 45.168 185.192 45.4595 185.192 45.7775C185.192 46.0955 185.25 46.387 185.366 46.652C185.482 46.917 185.64 47.1449 185.84 47.3357C186.051 47.5265 186.293 47.6749 186.567 47.7809C186.851 47.8869 187.151 47.9399 187.467 47.9399C187.783 47.9399 188.078 47.8869 188.352 47.7809C188.626 47.6749 188.863 47.5265 189.063 47.3357C189.273 47.1449 189.436 46.917 189.552 46.652C189.679 46.387 189.742 46.0955 189.742 45.7775C189.742 45.4595 189.679 45.168 189.552 44.903C189.436 44.6274 189.273 44.3942 189.063 44.2034C188.863 44.0126 188.626 43.8642 188.352 43.7582C188.078 43.6522 187.783 43.5992 187.467 43.5992C187.151 43.5992 186.851 43.6522 186.567 43.7582C186.293 43.8642 186.051 44.0126 185.84 44.2034C185.64 44.3942 185.482 44.6274 185.366 44.903Z" fill="white"/>
<path d="M198.398 43.9331C198.282 43.8483 198.129 43.7741 197.94 43.7105C197.761 43.6363 197.555 43.5992 197.324 43.5992C196.85 43.5992 196.471 43.7317 196.186 43.9967C195.902 44.2511 195.717 44.5638 195.633 44.9348V49.8638H193.627V41.6753H195.57V42.7565C195.686 42.3749 195.897 42.0622 196.202 41.8184C196.518 41.5746 196.908 41.4527 197.371 41.4527C197.676 41.4527 197.945 41.5163 198.177 41.6435C198.408 41.7601 198.577 41.9032 198.682 42.0728L198.398 43.9331Z" fill="white"/>
<path d="M207.782 49.8638H205.775V45.4436C205.775 44.85 205.607 44.3942 205.27 44.0762C204.933 43.7582 204.517 43.5992 204.022 43.5992C203.59 43.5992 203.195 43.7158 202.837 43.949C202.49 44.1822 202.279 44.479 202.205 44.8394V49.8638H200.199V41.6753H202.142V42.5021C202.258 42.1947 202.5 41.9456 202.869 41.7548C203.248 41.5534 203.732 41.4527 204.322 41.4527C204.743 41.4527 205.159 41.5269 205.57 41.6753C205.981 41.8131 206.349 42.0304 206.676 42.3272C207.002 42.624 207.266 43.0056 207.466 43.472C207.676 43.9278 207.782 44.4737 207.782 45.1097V49.8638Z" fill="white"/>
</svg>
