<svg width="207" height="53" viewBox="0 0 207 53" fill="none" xmlns="http://www.w3.org/2000/svg">
<g clip-path="url(#clip0)">
<path d="M0 38.7495H2.08405V50.7057H0V38.7495Z" fill="white"/>
<path d="M8.22802 48.832C8.74525 48.8343 9.25808 48.7369 9.73848 48.5452C10.1657 48.4026 10.5451 48.1445 10.8347 47.7996L11.472 49.412C11.1594 49.8906 10.7174 50.2708 10.1974 50.5082C9.56145 50.8199 8.8595 50.973 8.15154 50.9543C7.54381 50.9507 6.94162 50.8385 6.3734 50.6229C5.83511 50.4188 5.34318 50.1089 4.92667 49.7115C4.51627 49.3176 4.1928 48.8422 3.97706 48.3158C3.53265 47.1703 3.51681 45.903 3.93244 44.7468C4.13075 44.2258 4.42715 43.7476 4.80558 43.3383C5.18728 42.9201 5.65173 42.5859 6.16946 42.3568C6.73566 42.1092 7.34886 41.9874 7.96671 41.9999C8.55481 41.9906 9.13713 42.1171 9.66837 42.3695C10.156 42.606 10.5898 42.94 10.943 43.351C11.3028 43.7708 11.5835 44.2524 11.7715 44.7723C11.9861 45.3166 12.1005 45.8953 12.1093 46.4803C12.1093 46.6014 12.1093 46.7352 12.1093 46.8691C12.1086 46.9869 12.0958 47.1044 12.0711 47.2196H5.76794C5.80102 47.4716 5.89185 47.7126 6.03335 47.9237C6.17485 48.1349 6.3632 48.3105 6.58372 48.4369C7.08713 48.7119 7.65459 48.8483 8.22802 48.832ZM9.95517 45.5116C9.93082 45.3042 9.86109 45.1048 9.75094 44.9274C9.64079 44.7501 9.49292 44.5992 9.31784 44.4855C8.9167 44.2432 8.45428 44.1215 7.98583 44.1349C7.50176 44.1258 7.02411 44.2468 6.60284 44.4855C6.41167 44.5915 6.24629 44.7385 6.11849 44.9159C5.9907 45.0932 5.90364 45.2967 5.86354 45.5116H9.95517Z" fill="white"/>
<path d="M13.5175 43.5103C13.6725 43.2658 13.8687 43.0502 14.0975 42.8729C14.3368 42.6817 14.6004 42.5231 14.8814 42.4013C15.1731 42.2707 15.4789 42.1744 15.7928 42.1145C16.1139 42.0509 16.4405 42.0189 16.7679 42.0189C17.2847 42.0124 17.7991 42.0899 18.2911 42.2484C18.7197 42.3826 19.118 42.599 19.4638 42.8857C19.7988 43.1857 20.0604 43.5585 20.2286 43.9755C20.4137 44.4305 20.5047 44.9183 20.4963 45.4095V50.7184H18.4823V49.9664C18.2456 50.3048 17.9058 50.5574 17.5136 50.6866C16.6947 50.9947 15.7948 51.0127 14.9643 50.7375C14.6079 50.613 14.2758 50.4275 13.9828 50.1894C13.7066 49.9507 13.4886 49.6521 13.3455 49.3163C13.1883 48.9501 13.1102 48.5548 13.116 48.1564C13.1108 47.7429 13.2048 47.3342 13.3901 46.9646C13.5661 46.6242 13.8167 46.328 14.123 46.0978C14.4398 45.8559 14.7984 45.6744 15.181 45.5625C15.5819 45.4418 15.9987 45.3816 16.4174 45.384C16.8707 45.3711 17.3229 45.4336 17.7558 45.5688C18.0192 45.6456 18.2599 45.7856 18.4568 45.9767V45.7409C18.4656 45.5211 18.4269 45.302 18.3433 45.0985C18.2597 44.8951 18.1332 44.712 17.9725 44.5619C17.5713 44.2404 17.0641 44.0812 16.5512 44.1157C16.0496 44.1104 15.5532 44.2171 15.0981 44.428C14.6782 44.6115 14.3087 44.8935 14.021 45.2502L13.5175 43.5103ZM18.4122 47.6656C18.2697 47.473 18.0684 47.3321 17.8386 47.2641C17.5122 47.1446 17.1665 47.0863 16.8189 47.092C16.3927 47.0652 15.9673 47.1556 15.5889 47.3533C15.4654 47.4216 15.3622 47.5211 15.2895 47.642C15.2167 47.7628 15.1771 47.9007 15.1746 48.0417C15.1748 48.1831 15.2142 48.3217 15.2885 48.4421C15.3627 48.5625 15.4689 48.6599 15.5952 48.7236C15.9665 48.9155 16.3826 49.0036 16.7998 48.9785C17.1504 48.9844 17.4981 48.9148 17.8195 48.7746C18.0666 48.6757 18.2746 48.4989 18.4122 48.2711V47.6656Z" fill="white"/>
<path d="M22.3065 48.2903C21.9475 47.4525 21.8461 46.5269 22.0152 45.6314C22.1844 44.7358 22.6163 43.9109 23.2561 43.2618C23.6455 42.8716 24.1064 42.56 24.6136 42.344C25.1237 42.1283 25.6722 42.0178 26.226 42.019C26.7766 42.0015 27.3239 42.1105 27.8257 42.3377C28.2059 42.4876 28.5186 42.7708 28.7052 43.1343V38.7495H30.7893V50.7057H28.7881V49.8198C28.5942 50.1825 28.2781 50.4647 27.8958 50.6165C27.3858 50.8393 26.8334 50.948 26.277 50.9352C25.7176 50.936 25.1634 50.8278 24.6455 50.6165C24.1325 50.4101 23.6665 50.1023 23.2752 49.7115C22.8618 49.3062 22.5326 48.8232 22.3065 48.2903ZM24.2185 45.5689C24.0971 45.8572 24.0364 46.1675 24.04 46.4803C24.035 46.7911 24.0958 47.0996 24.2185 47.3853C24.3346 47.6539 24.5062 47.895 24.722 48.0927C24.9451 48.2966 25.2075 48.4528 25.4931 48.5516C25.8123 48.6643 26.1488 48.7204 26.4873 48.7173C26.9715 48.7252 27.4504 48.6159 27.8831 48.3986C28.235 48.2341 28.5188 47.9525 28.6861 47.602V45.3522C28.5206 45.0004 28.2362 44.7182 27.8831 44.5555C27.5148 44.373 27.1141 44.265 26.704 44.2376C26.2939 44.2103 25.8824 44.2642 25.4931 44.3962C25.2075 44.495 24.9451 44.6512 24.722 44.8551C24.5198 45.0588 24.3615 45.3017 24.2567 45.5689H24.2185Z" fill="white"/>
<path d="M36.9649 48.832C37.4821 48.8343 37.9949 48.7369 38.4753 48.5452C38.9002 48.3952 39.2752 48.1305 39.5588 47.7804L40.1961 49.3929C39.8835 49.8715 39.4415 50.2516 38.9215 50.4891C38.2856 50.8008 37.5836 50.9539 36.8757 50.9352C36.2627 50.94 35.6538 50.8342 35.0784 50.6229C34.5469 50.4166 34.0617 50.1068 33.6508 49.7115C33.2404 49.3176 32.9169 48.8422 32.7012 48.3158C32.2568 47.1703 32.2409 45.903 32.6566 44.7468C32.8549 44.2258 33.1513 43.7476 33.5297 43.3383C33.9114 42.9201 34.3759 42.5859 34.8936 42.3568C35.4598 42.1092 36.073 41.9874 36.6908 41.9999C37.2789 41.9906 37.8613 42.1171 38.3925 42.3695C38.8801 42.606 39.3139 42.94 39.6672 43.351C40.0269 43.7708 40.3076 44.2524 40.4957 44.7723C40.695 45.3194 40.7943 45.898 40.7888 46.4803C40.7888 46.6014 40.7888 46.7352 40.7888 46.8691C40.7849 46.9867 40.7721 47.1039 40.7506 47.2196H34.4921C34.5251 47.4716 34.616 47.7126 34.7575 47.9237C34.899 48.1349 35.0873 48.3105 35.3078 48.4369C35.815 48.7142 36.3872 48.8506 36.9649 48.832ZM38.692 45.5116C38.6677 45.3042 38.598 45.1048 38.4878 44.9274C38.3777 44.7501 38.2298 44.5992 38.0547 44.4855C37.6536 44.2432 37.1911 44.1215 36.7227 44.1349C36.2386 44.1258 35.761 44.2468 35.3397 44.4855C35.1485 44.5915 34.9832 44.7385 34.8554 44.9159C34.7276 45.0932 34.6405 45.2967 34.6004 45.5116H38.692Z" fill="white"/>
<path d="M47.3148 44.5747C47.1701 44.4771 47.0139 44.3978 46.8496 44.3388C46.6448 44.2668 46.4293 44.2302 46.2123 44.2305C45.7794 44.2093 45.355 44.3554 45.0268 44.6384C44.7394 44.8963 44.539 45.237 44.4532 45.6135V50.7121H42.3564V42.2484H44.3768V43.3382C44.4838 42.9571 44.7065 42.6187 45.0141 42.3695C45.3632 42.1101 45.7904 41.9774 46.225 41.9935C46.5142 41.986 46.8009 42.0495 47.0599 42.1783C47.2711 42.2803 47.4514 42.4364 47.5825 42.6308L47.3148 44.5747Z" fill="white"/>
<path d="M50.4507 47.0412C49.8648 46.7664 49.3419 46.3737 48.9147 45.8876C48.5966 45.483 48.4278 44.981 48.4367 44.4664C48.4351 44.1395 48.5024 43.8159 48.6343 43.5168C48.7617 43.2178 48.9557 42.9519 49.2015 42.7392C49.4577 42.5141 49.7509 42.3352 50.0683 42.2103C50.4294 42.0782 50.8118 42.0134 51.1963 42.0191C51.7523 42.0026 52.3038 42.123 52.8024 42.3696C53.19 42.5508 53.5239 42.8297 53.7711 43.179L53.376 45.04C53.0628 44.7254 52.6811 44.4876 52.2607 44.3453C51.9265 44.2267 51.5762 44.1601 51.2218 44.1477C50.7566 44.1477 50.5208 44.2879 50.5208 44.562C50.5189 44.6241 50.5325 44.6858 50.5603 44.7414C50.5881 44.797 50.6293 44.8448 50.6801 44.8806C50.842 44.9954 51.0125 45.0977 51.1899 45.1866L51.9802 45.5945C52.5631 45.8752 53.09 46.2596 53.5353 46.7289C53.9075 47.1618 54.1011 47.72 54.077 48.2903C54.0813 48.6517 54.0097 49.01 53.8667 49.3419C53.7186 49.6639 53.501 49.9491 53.2294 50.1768C52.9491 50.426 52.6219 50.6166 52.267 50.7377C51.8665 50.8717 51.4466 50.9385 51.0242 50.9352C50.387 50.9586 49.7559 50.8041 49.2015 50.4891C48.7679 50.2554 48.4049 49.9099 48.1499 49.4885L48.7362 47.6466C48.8484 47.7942 48.972 47.9327 49.1059 48.0609C49.2657 48.2069 49.441 48.3351 49.6285 48.4433C49.8284 48.563 50.0425 48.6572 50.2658 48.7237C50.527 48.7979 50.7974 48.8344 51.0689 48.8321C51.2889 48.8388 51.5074 48.7929 51.7062 48.6982C51.7902 48.6608 51.8608 48.5987 51.9087 48.5201C51.9565 48.4416 51.9792 48.3503 51.9739 48.2585C51.9829 48.175 51.9734 48.0905 51.9458 48.0111C51.9182 47.9318 51.8734 47.8595 51.8145 47.7996C51.6148 47.6465 51.4015 47.5121 51.1772 47.3981L50.4507 47.0412Z" fill="white"/>
<path d="M59.5835 43.5103C59.7404 43.2673 59.9363 43.0519 60.1635 42.8729C60.4028 42.6817 60.6664 42.5231 60.9474 42.4013C61.2394 42.2716 61.5451 42.1754 61.8588 42.1145C62.18 42.0512 62.5065 42.0191 62.8339 42.0189C63.3507 42.0124 63.8651 42.0899 64.3571 42.2484C64.7857 42.3826 65.184 42.599 65.5298 42.8857C65.8601 43.187 66.1173 43.5598 66.2818 43.9755C66.4669 44.4305 66.558 44.9183 66.5495 45.4095V50.7184H64.5292V49.9664C64.2925 50.3048 63.9527 50.5574 63.5605 50.6866C62.7415 50.9947 61.8417 51.0127 61.0112 50.7375C60.6547 50.613 60.3227 50.4275 60.0297 50.1894C59.7554 49.949 59.5378 49.6508 59.3923 49.3163C59.2352 48.9501 59.157 48.5548 59.1629 48.1564C59.1577 47.7429 59.2517 47.3342 59.437 46.9646C59.613 46.6242 59.8635 46.328 60.1699 46.0978C60.4732 45.8606 60.8163 45.6794 61.1832 45.5625C61.5965 45.4384 62.0264 45.3783 62.4579 45.384C62.9112 45.3711 63.3634 45.4336 63.7963 45.5688C64.0605 45.6439 64.3015 45.7841 64.4973 45.9767V45.7409C64.5074 45.521 64.4693 45.3015 64.3856 45.0978C64.3019 44.8941 64.1748 44.7112 64.013 44.5619C63.6118 44.2404 63.1046 44.0812 62.5917 44.1157C62.0902 44.1104 61.5937 44.2171 61.1386 44.428C60.7302 44.6158 60.3721 44.8975 60.0934 45.2502L59.5835 43.5103ZM64.4782 47.6656C64.3357 47.473 64.1344 47.3321 63.9046 47.2641C63.5782 47.1446 63.2325 47.0863 62.8849 47.092C62.4587 47.0652 62.0333 47.1556 61.6548 47.3533C61.5314 47.4216 61.4282 47.5211 61.3555 47.642C61.2827 47.7628 61.2431 47.9007 61.2406 48.0417C61.2408 48.1831 61.2802 48.3217 61.3545 48.4421C61.4287 48.5625 61.5349 48.6599 61.6612 48.7236C62.0324 48.9155 62.4486 49.0036 62.8658 48.9785C63.2164 48.9844 63.5641 48.9148 63.8855 48.7746C64.1338 48.6777 64.3425 48.5005 64.4782 48.2711V47.6656Z" fill="white"/>
<path d="M73.5604 44.5748C73.4157 44.4772 73.2594 44.3979 73.0951 44.3389C72.8904 44.2669 72.6749 44.2303 72.4578 44.2306C72.0248 44.2081 71.5999 44.3543 71.2724 44.6385C70.985 44.8964 70.7846 45.2371 70.6988 45.6136V50.7122H68.6147V42.2485H70.6351V43.3383C70.7494 42.9367 70.9961 42.5854 71.335 42.3413C71.6739 42.0973 72.0852 41.9747 72.5024 41.9936C72.7938 41.9853 73.0827 42.0488 73.3437 42.1784C73.5548 42.2804 73.7352 42.4365 73.8663 42.6309L73.5604 44.5748Z" fill="white"/>
<path d="M79.0794 48.8319C79.5966 48.8329 80.1091 48.7356 80.5899 48.5451C81.014 48.3936 81.3886 48.1292 81.6734 47.7803L82.3107 49.3928C81.9981 49.8714 81.5561 50.2515 81.036 50.489C80.4004 50.8014 79.6983 50.9546 78.9902 50.9351C78.3774 50.9384 77.7688 50.8326 77.193 50.6228C76.6656 50.4157 76.1847 50.106 75.7781 49.7114C75.3636 49.3196 75.0377 48.8437 74.8221 48.3157C74.3769 47.17 74.3633 45.9016 74.7839 44.7467C74.9798 44.226 75.2741 43.7478 75.6506 43.3382C76.0349 42.9229 76.4987 42.5891 77.0145 42.3567C77.5832 42.1097 78.1983 41.988 78.8181 41.9998C79.4041 41.9915 79.9841 42.118 80.5134 42.3695C81.0006 42.6065 81.4344 42.9405 81.7881 43.3509C82.1478 43.7707 82.4286 44.2523 82.6166 44.7722C82.8137 45.3133 82.913 45.8852 82.9098 46.4611C82.9098 46.5822 82.9098 46.716 82.9098 46.8499C82.9058 46.9675 82.893 47.0847 82.8715 47.2004H76.5939C76.6283 47.4577 76.7223 47.7034 76.8684 47.918C77.0144 48.1327 77.2085 48.3103 77.4351 48.4368C77.9377 48.7142 78.5058 48.8507 79.0794 48.8319ZM80.8002 45.5115C80.7785 45.3034 80.7099 45.1029 80.5995 44.9252C80.4891 44.7474 80.3398 44.5971 80.1629 44.4854C79.764 44.2433 79.3037 44.1215 78.8373 44.1348C78.3532 44.1257 77.8755 44.2467 77.4543 44.4854C77.2631 44.5914 77.0977 44.7384 76.9699 44.9158C76.8421 45.0932 76.7551 45.2966 76.715 45.5115H80.8002Z" fill="white"/>
<path d="M98.1801 42.0187C98.5906 42.0203 98.9979 42.0914 99.3846 42.229C99.7827 42.3673 100.149 42.584 100.462 42.8664C100.8 43.1741 101.065 43.5528 101.239 43.9753C101.452 44.4632 101.557 44.9917 101.545 45.524V50.7182H99.4611V45.9765C99.4731 45.7432 99.4375 45.5098 99.3565 45.2906C99.2754 45.0715 99.1505 44.8712 98.9895 44.7019C98.837 44.5535 98.6564 44.4371 98.4583 44.3594C98.2602 44.2817 98.0486 44.2443 97.8359 44.2494C97.4294 44.2447 97.0321 44.3697 96.7015 44.6063C96.3824 44.805 96.1537 45.1207 96.0641 45.4858V50.7246H93.9801V45.9574C93.9949 45.7238 93.9605 45.4897 93.8793 45.2701C93.798 45.0506 93.6717 44.8505 93.5085 44.6827C93.1915 44.3855 92.7702 44.2252 92.3358 44.2366C91.9315 44.2333 91.5366 44.3583 91.2077 44.5935C90.8887 44.7923 90.6599 45.1079 90.5704 45.473V50.7118H88.48V42.2482H90.5003V43.1022C90.6432 42.7633 90.9034 42.4873 91.2332 42.3246C91.6807 42.1052 92.1756 42.0001 92.6736 42.0187C93.1673 42.0172 93.6558 42.1193 94.1076 42.3183C94.5783 42.5266 94.9917 42.8458 95.3121 43.2488C95.6189 42.8169 96.0438 42.4828 96.5358 42.2864C97.0628 42.097 97.6202 42.0063 98.1801 42.0187Z" fill="white"/>
<path d="M103.387 43.5103C103.542 43.2658 103.738 43.0502 103.967 42.8729C104.205 42.6832 104.466 42.5247 104.744 42.4013C105.037 42.2725 105.342 42.1763 105.656 42.1145C105.979 42.051 106.308 42.019 106.637 42.0189C107.152 42.0125 107.664 42.09 108.154 42.2484C108.583 42.3812 108.982 42.5978 109.327 42.8857C109.662 43.1729 109.924 43.5355 110.091 43.9437C110.282 44.3973 110.375 44.8858 110.365 45.3776V50.6866H108.345V49.9664C108.109 50.3048 107.769 50.5574 107.376 50.6866C106.557 50.9922 105.658 51.0101 104.827 50.7375C104.473 50.6115 104.144 50.4262 103.852 50.1894C103.576 49.9507 103.358 49.6521 103.215 49.3163C103.058 48.9501 102.979 48.5548 102.985 48.1564C102.978 47.7434 103.07 47.3347 103.253 46.9646C103.432 46.6266 103.682 46.331 103.986 46.0978C104.303 45.8572 104.662 45.6759 105.044 45.5625C105.447 45.4422 105.866 45.382 106.287 45.384C106.74 45.3711 107.192 45.4336 107.625 45.5688C107.887 45.6436 108.127 45.7839 108.32 45.9767V45.7409C108.33 45.521 108.292 45.3015 108.208 45.0978C108.124 44.8941 107.997 44.7112 107.835 44.5619C107.437 44.2402 106.931 44.0809 106.42 44.1157C105.917 44.1099 105.418 44.2166 104.961 44.428C104.543 44.6152 104.175 44.8966 103.884 45.2502L103.387 43.5103ZM108.275 47.6656C108.135 47.4702 107.933 47.3285 107.701 47.2641C107.375 47.1435 107.029 47.0851 106.682 47.092C106.256 47.0659 105.83 47.1562 105.452 47.3533C105.329 47.4219 105.227 47.5217 105.155 47.6426C105.083 47.7635 105.045 47.9011 105.044 48.0417C105.044 48.1831 105.083 48.3217 105.158 48.4421C105.232 48.5625 105.338 48.6599 105.464 48.7236C105.835 48.917 106.252 49.0052 106.669 48.9785C107.02 48.9838 107.367 48.9143 107.689 48.7746C107.935 48.6778 108.142 48.5004 108.275 48.2711V47.6656Z" fill="white"/>
<path d="M112.169 48.2903C111.813 47.4525 111.713 46.5281 111.88 45.6333C112.048 44.7385 112.477 43.9134 113.113 43.2618C113.504 42.8714 113.967 42.5598 114.477 42.344C114.987 42.1283 115.535 42.0178 116.089 42.019C116.64 42.0021 117.187 42.1111 117.689 42.3377C118.067 42.4915 118.378 42.7736 118.568 43.1343V38.7495H120.652V50.7057H118.632V49.8198C118.438 50.1825 118.122 50.4647 117.74 50.6165C117.23 50.8393 116.677 50.948 116.121 50.9352C115.559 50.936 115.003 50.8278 114.483 50.6165C113.981 50.404 113.524 50.0968 113.138 49.7115C112.724 49.3066 112.395 48.8235 112.169 48.2903ZM114.081 45.5689C113.96 45.8572 113.899 46.1675 113.903 46.4803C113.898 46.7911 113.959 47.0996 114.081 47.3853C114.198 47.6522 114.367 47.8929 114.579 48.0927C114.804 48.2968 115.069 48.4529 115.356 48.5516C115.673 48.6638 116.008 48.7199 116.344 48.7173C116.828 48.7267 117.308 48.6173 117.74 48.3986C118.095 48.2362 118.381 47.9542 118.549 47.602V45.3522C118.383 44.9986 118.096 44.7161 117.74 44.5555C117.373 44.3729 116.973 44.2647 116.564 44.2374C116.155 44.21 115.744 44.264 115.356 44.3962C115.069 44.4949 114.804 44.651 114.579 44.8551C114.383 45.0612 114.229 45.3037 114.126 45.5689H114.081Z" fill="white"/>
<path d="M126.828 48.8319C127.345 48.8329 127.858 48.7356 128.338 48.5451C128.763 48.3936 129.137 48.1292 129.422 47.7803L130.059 49.3928C129.747 49.8714 129.305 50.2515 128.785 50.489C128.149 50.8014 127.447 50.9546 126.739 50.9351C126.126 50.9384 125.517 50.8326 124.942 50.6228C124.412 50.4165 123.929 50.1067 123.52 49.7114C123.106 49.3196 122.78 48.8437 122.564 48.3157C122.119 47.17 122.105 45.9016 122.526 44.7467C122.722 44.226 123.016 43.7478 123.393 43.3382C123.777 42.9229 124.241 42.5891 124.757 42.3567C125.325 42.1097 125.94 41.988 126.56 41.9998C127.146 41.9915 127.726 42.118 128.256 42.3695C128.743 42.6065 129.177 42.9405 129.53 43.3509C129.89 43.7707 130.171 44.2523 130.359 44.7722C130.556 45.3133 130.655 45.8852 130.652 46.4611C130.652 46.5822 130.652 46.716 130.652 46.8499C130.648 46.9675 130.635 47.0847 130.614 47.2004H124.336C124.371 47.4577 124.465 47.7034 124.611 47.918C124.757 48.1327 124.951 48.3103 125.177 48.4368C125.682 48.7153 126.252 48.8519 126.828 48.8319ZM128.549 45.5115C128.527 45.3034 128.458 45.1029 128.348 44.9252C128.238 44.7474 128.088 44.5971 127.911 44.4854C127.513 44.2433 127.052 44.1215 126.586 44.1348C126.102 44.1257 125.624 44.2467 125.203 44.4854C125.011 44.5904 124.845 44.737 124.717 44.9146C124.589 45.0921 124.502 45.2961 124.464 45.5115H128.549Z" fill="white"/>
<path d="M133.08 50.7502C132.835 50.6834 132.614 50.5486 132.443 50.3614C132.336 50.24 132.255 50.0986 132.203 49.9454C132.152 49.7922 132.131 49.6303 132.143 49.4692C132.141 49.2815 132.175 49.0953 132.245 48.9211C132.316 48.7534 132.42 48.6016 132.551 48.4749C132.83 48.2129 133.2 48.0691 133.583 48.0734C133.77 48.0673 133.956 48.1024 134.128 48.1762C134.3 48.25 134.453 48.3607 134.578 48.5004C134.834 48.7773 134.974 49.1428 134.966 49.5202C134.97 49.8235 134.914 50.1247 134.801 50.406C134.688 50.6787 134.556 50.9428 134.406 51.1963L133.341 53H132.028L133.08 50.7502Z" fill="white"/>
<path d="M148.911 50.7058H146.821V46.1362C146.844 45.887 146.813 45.6357 146.731 45.3993C146.648 45.1629 146.517 44.9469 146.344 44.7658C146.171 44.5846 145.962 44.4426 145.73 44.3491C145.497 44.2557 145.248 44.2131 144.998 44.2242C144.563 44.2208 144.137 44.3473 143.774 44.5875C143.612 44.6905 143.473 44.8248 143.363 44.9823C143.254 45.1399 143.177 45.3176 143.137 45.5052V50.6994H141.053V42.2485H143.073V43.1025C143.22 42.7565 143.491 42.4773 143.831 42.3186C144.302 42.0997 144.817 41.997 145.336 42.019C145.769 42.0213 146.2 42.0945 146.61 42.2357C147.034 42.3846 147.424 42.6165 147.757 42.9177C148.114 43.2478 148.396 43.6496 148.586 44.0967C148.815 44.6318 148.926 45.2101 148.911 45.792V50.7058Z" fill="white"/>
<path d="M159.236 46.48C159.245 47.0934 159.123 47.7018 158.879 48.2645C158.647 48.7919 158.313 49.2683 157.897 49.6666C157.489 50.0633 157.008 50.379 156.482 50.5971C155.941 50.8208 155.36 50.9356 154.774 50.9349C154.188 50.9374 153.607 50.8226 153.066 50.5971C152.537 50.3808 152.055 50.0649 151.645 49.6666C151.229 49.2683 150.895 48.7919 150.664 48.2645C150.428 47.7013 150.307 47.0969 150.307 46.4864C150.307 45.8758 150.428 45.2714 150.664 44.7082C150.895 44.1751 151.228 43.6923 151.645 43.287C152.056 42.8889 152.538 42.5712 153.066 42.3501C153.608 42.1267 154.189 42.014 154.774 42.0187C155.36 42.016 155.94 42.1286 156.482 42.3501C157.008 42.5728 157.487 42.8904 157.897 43.287C158.314 43.6923 158.647 44.1751 158.879 44.7082C159.121 45.2672 159.242 45.8709 159.236 46.48ZM152.588 45.5686C152.465 45.8565 152.402 46.1667 152.403 46.48C152.401 46.7913 152.464 47.0997 152.588 47.385C152.704 47.652 152.874 47.8926 153.085 48.0924C153.306 48.2935 153.563 48.4494 153.844 48.5513C154.141 48.6625 154.457 48.7186 154.774 48.717C155.088 48.7187 155.399 48.6625 155.692 48.5513C155.968 48.4478 156.221 48.2919 156.438 48.0924C156.653 47.8932 156.827 47.6526 156.948 47.385C157.077 47.1012 157.143 46.7921 157.139 46.48C157.141 46.166 157.076 45.8551 156.948 45.5686C156.827 45.299 156.654 45.0563 156.438 44.8548C156.221 44.6553 155.968 44.4995 155.692 44.3959C155.399 44.2847 155.088 44.2286 154.774 44.2302C154.457 44.2286 154.141 44.2847 153.844 44.3959C153.563 44.4978 153.306 44.6537 153.085 44.8548C152.873 45.0569 152.704 45.2997 152.588 45.5686Z" fill="white"/>
<path d="M166.266 49.9472C166.052 50.2498 165.764 50.4932 165.431 50.6547C165.034 50.8492 164.597 50.9454 164.156 50.9351C163.773 50.9664 163.387 50.9148 163.025 50.784C162.663 50.6531 162.334 50.446 162.059 50.1767C161.572 49.576 161.328 48.8137 161.377 48.0416V44.4662H159.969V43.7907L162.875 40.1133H163.512V42.2483H166.189V44.4662H163.474V47.5827C163.463 47.7396 163.485 47.8971 163.54 48.0444C163.595 48.1918 163.681 48.3256 163.793 48.4368C164.001 48.6077 164.263 48.6981 164.532 48.6917C164.784 48.7008 165.034 48.646 165.259 48.5324C165.48 48.4112 165.676 48.2465 165.832 48.048L166.266 49.9472Z" fill="white"/>
<path d="M180.433 44.6766C180.901 45.8358 180.901 47.1311 180.433 48.2903C180.215 48.8214 179.895 49.3043 179.49 49.7115C179.098 50.1041 178.632 50.4159 178.12 50.6293C177.6 50.8406 177.044 50.9488 176.482 50.9479C175.926 50.9608 175.373 50.852 174.863 50.6293C174.481 50.4775 174.165 50.1953 173.971 49.8326V50.7185H171.951V38.7495H174.035V43.1343C174.225 42.7736 174.536 42.4915 174.914 42.3377C175.416 42.1111 175.963 42.0021 176.514 42.019C177.068 42.0178 177.616 42.1283 178.126 42.344C178.636 42.5599 179.099 42.8714 179.49 43.2618C179.892 43.6686 180.213 44.1489 180.433 44.6766ZM178.521 47.3853C178.646 47.1 178.709 46.7916 178.706 46.4803C178.708 46.167 178.645 45.8568 178.521 45.5689C178.405 45.3 178.236 45.0572 178.024 44.8551C177.799 44.651 177.534 44.4949 177.247 44.3962C176.93 44.284 176.595 44.2279 176.259 44.2305C175.772 44.2209 175.29 44.3326 174.857 44.5555C174.504 44.7182 174.219 45.0004 174.054 45.3522V47.602C174.221 47.9525 174.505 48.2341 174.857 48.3986C175.292 48.6166 175.773 48.726 176.259 48.7173C176.595 48.7199 176.93 48.6638 177.247 48.5516C177.534 48.4529 177.799 48.2968 178.024 48.0927C178.229 47.8911 178.392 47.6506 178.502 47.3853H178.521Z" fill="white"/>
<path d="M190.707 46.4801C190.714 47.094 190.59 47.7024 190.344 48.2646C190.112 48.7904 189.781 49.2665 189.369 49.6668C188.957 50.0622 188.475 50.3777 187.947 50.5973C187.406 50.8217 186.826 50.9372 186.239 50.9372C185.653 50.9372 185.073 50.8217 184.531 50.5973C184.003 50.3793 183.521 50.0636 183.11 49.6668C182.694 49.2699 182.362 48.793 182.135 48.2646C181.773 47.4341 181.672 46.513 181.846 45.6238C182.021 44.7347 182.461 43.9196 183.11 43.2871C183.523 42.8904 184.004 42.5729 184.531 42.3503C185.627 41.9086 186.852 41.9086 187.947 42.3503C188.474 42.5744 188.955 42.8918 189.369 43.2871C189.781 43.6944 190.112 44.1768 190.344 44.7084C190.588 45.2669 190.712 45.8706 190.707 46.4801ZM184.053 45.5688C183.932 45.8571 183.871 46.1673 183.875 46.4801C183.87 46.791 183.931 47.0994 184.053 47.3851C184.17 47.6538 184.341 47.8948 184.557 48.0926C184.775 48.2936 185.03 48.4495 185.309 48.5514C185.607 48.6621 185.922 48.7182 186.239 48.7171C186.553 48.7188 186.864 48.6626 187.157 48.5514C187.434 48.4494 187.687 48.2934 187.903 48.0926C188.119 47.8934 188.292 47.6528 188.413 47.3851C188.543 47.1013 188.608 46.7922 188.604 46.4801C188.606 46.1661 188.541 45.8553 188.413 45.5688C188.29 45.2976 188.114 45.0539 187.895 44.8524C187.676 44.6509 187.418 44.4957 187.138 44.3961C186.845 44.2849 186.534 44.2287 186.22 44.2304C185.903 44.2293 185.588 44.2854 185.29 44.3961C185.011 44.498 184.756 44.6539 184.538 44.8549C184.329 45.0569 184.164 45.2999 184.053 45.5688Z" fill="white"/>
<path d="M197.207 44.5747C197.063 44.4771 196.906 44.3978 196.742 44.3388C196.537 44.2668 196.322 44.2302 196.105 44.2305C195.672 44.2093 195.248 44.3554 194.919 44.6384C194.632 44.8963 194.432 45.237 194.346 45.6135V50.7121H192.262V42.2484H194.282V43.3382C194.389 42.9571 194.612 42.6187 194.919 42.3695C195.268 42.1101 195.696 41.9774 196.13 41.9935C196.419 41.986 196.706 42.0495 196.965 42.1783C197.177 42.2821 197.359 42.4377 197.494 42.6308L197.207 44.5747Z" fill="white"/>
<path d="M206.57 50.7059H204.486V46.1363C204.507 45.8875 204.475 45.6372 204.392 45.4017C204.309 45.1663 204.177 44.9511 204.004 44.7704C203.832 44.5897 203.623 44.4476 203.392 44.3535C203.161 44.2594 202.912 44.2153 202.663 44.2243C202.228 44.219 201.801 44.3457 201.439 44.5876C201.268 44.6863 201.119 44.8194 201.002 44.9784C200.884 45.1374 200.801 45.319 200.757 45.5117V50.7059H198.673V42.2486H200.694V43.1026C200.842 42.7552 201.115 42.4756 201.458 42.3187C201.928 42.0994 202.444 41.9966 202.963 42.0192C203.396 42.0212 203.827 42.0944 204.237 42.2359C204.662 42.3861 205.054 42.6178 205.391 42.9178C205.745 43.2497 206.027 43.6511 206.219 44.0968C206.443 44.6334 206.552 45.211 206.538 45.7921L206.57 50.7059Z" fill="white"/>
<path d="M17.1122 12.9186C17.6029 14.0733 17.8523 15.316 17.8451 16.5705C17.8595 17.8211 17.6188 19.0616 17.1377 20.216C16.6872 21.2785 16.0382 22.2454 15.2257 23.0649C14.4338 23.852 13.4995 24.4814 12.4725 24.9195C11.4454 25.3492 10.3418 25.566 9.22847 25.5568C8.11708 25.5911 7.01236 25.3732 5.99723 24.9195C5.22757 24.6186 4.59189 24.0508 4.20635 23.3198V32.1659H0V8.04948H4.07251V9.84036C4.46108 9.10319 5.10435 8.5324 5.88252 8.2343C6.90931 7.7819 8.02407 7.56417 9.14562 7.59698C10.2752 7.5899 11.3951 7.80651 12.4406 8.2343C13.4764 8.65436 14.4171 9.27859 15.2066 10.0698C16.0191 10.8893 16.668 11.8562 17.1186 12.9186H17.1122ZM13.2245 18.3996C13.4675 17.8208 13.589 17.1982 13.5814 16.5705C13.5885 15.9443 13.4648 15.3234 13.2181 14.7478C12.9836 14.2083 12.6384 13.7241 12.2048 13.3265C11.7546 12.9145 11.2256 12.598 10.6497 12.396C10.0076 12.1676 9.32997 12.0553 8.64851 12.0646C7.67154 12.0436 6.70432 12.2625 5.83153 12.702C5.11876 13.0309 4.54374 13.5992 4.20635 14.308V18.8521C4.54374 19.561 5.11876 20.1292 5.83153 20.4582C6.70432 20.8977 7.67154 21.1165 8.64851 21.0955C9.32997 21.1048 10.0076 20.9926 10.6497 20.7641C11.2241 20.562 11.7527 20.2479 12.2048 19.84C12.6417 19.4354 12.9872 18.9422 13.2181 18.3933" fill="white"/>
<path d="M31.025 12.7463C30.7321 12.5478 30.4151 12.3872 30.0818 12.2683C29.6608 12.1176 29.216 12.0442 28.7689 12.0517C27.9002 12.0076 27.0475 12.2971 26.3853 12.8611C25.8005 13.3813 25.3946 14.0726 25.2253 14.8368V25.1105H21.0317V8.04925H25.1042V10.299C25.3379 9.52449 25.8082 8.84255 26.449 8.34879C27.149 7.82261 28.0084 7.55264 28.8836 7.584C29.4693 7.57167 30.0492 7.70296 30.5725 7.96639C30.9999 8.17071 31.3651 8.48531 31.6305 8.87777L31.025 12.7463Z" fill="white"/>
<path d="M34.1095 4.80553C33.8448 4.54715 33.6354 4.23763 33.4941 3.89579C33.3527 3.55396 33.2824 3.18695 33.2874 2.81708C33.2824 2.44721 33.3527 2.08019 33.4941 1.73836C33.6354 1.39652 33.8448 1.087 34.1095 0.82862C34.3697 0.565784 34.6794 0.357135 35.0207 0.214738C35.362 0.0723417 35.7281 -0.000976563 36.098 -0.000976562C36.4678 -0.000976562 36.8339 0.0723417 37.1752 0.214738C37.5166 0.357135 37.8262 0.565784 38.0864 0.82862C38.3532 1.08577 38.5643 1.39492 38.7068 1.73694C38.8494 2.07896 38.9202 2.44659 38.9149 2.81708C38.9202 3.18756 38.8494 3.55519 38.7068 3.89721C38.5643 4.23923 38.3532 4.54838 38.0864 4.80553C37.8262 5.06837 37.5166 5.27702 37.1752 5.41941C36.8339 5.56181 36.4678 5.63513 36.098 5.63513C35.7281 5.63513 35.362 5.56181 35.0207 5.41941C34.6794 5.27702 34.3697 5.06837 34.1095 4.80553ZM34.0139 8.04952H38.2394V25.1107H34.033L34.0139 8.04952Z" fill="white"/>
<path d="M59.3349 16.5705C59.3608 17.8133 59.1218 19.0473 58.6338 20.1905C58.17 21.2561 57.5009 22.2198 56.6645 23.0266C55.8319 23.8207 54.8595 24.4538 53.7965 24.894C51.59 25.803 49.1136 25.803 46.907 24.894C45.846 24.4536 44.8758 23.8205 44.0454 23.0266C43.2069 22.2189 42.5337 21.2556 42.0634 20.1905C41.5577 19.0512 41.3013 17.817 41.3113 16.5705C41.3123 15.3478 41.5685 14.1387 42.0634 13.0206C42.9954 10.8798 44.7198 9.18286 46.8752 8.28527C49.0817 7.37626 51.5581 7.37626 53.7647 8.28527C54.8331 8.73519 55.8064 9.38402 56.6326 10.1972C57.475 11.001 58.1544 11.9596 58.6338 13.0206C59.111 14.1425 59.3498 15.3514 59.3349 16.5705ZM45.951 14.735C45.6884 15.3114 45.5516 15.9371 45.5495 16.5705C45.5414 17.1975 45.6674 17.819 45.9192 18.3933C46.1512 18.9344 46.4943 19.4207 46.9262 19.8209C47.3646 20.2306 47.8773 20.5529 48.4366 20.7705C49.0357 20.9947 49.6708 21.107 50.3104 21.1019C50.9438 21.1076 51.5727 20.9952 52.165 20.7705C52.7203 20.5604 53.2307 20.2468 53.6691 19.8464C54.1047 19.4438 54.4557 18.9585 54.7015 18.4187C54.9635 17.8381 55.0961 17.2075 55.0903 16.5705C55.0963 15.939 54.9681 15.3133 54.7143 14.735C54.4735 14.1886 54.1219 13.6982 53.6818 13.2946C53.2454 12.89 52.7346 12.574 52.1777 12.3642C51.5918 12.1512 50.9719 12.0475 50.3486 12.0582C49.709 12.0531 49.0739 12.1654 48.4749 12.3896C47.9115 12.5979 47.3941 12.9139 46.9516 13.3201C46.5153 13.7214 46.1717 14.2129 45.9447 14.7605" fill="white"/>
<path d="M72.5338 12.7463C72.2416 12.5465 71.9245 12.3858 71.5906 12.2683C71.1698 12.117 70.7249 12.0436 70.2777 12.0517C69.4092 12.0088 68.557 12.2982 67.8941 12.8611C67.3114 13.3829 66.9059 14.0736 66.7342 14.8368V25.1105H62.5278V8.04925H66.6003V10.299C66.8363 9.52561 67.3061 8.84431 67.9451 8.34879C68.6451 7.82261 69.5045 7.55264 70.3797 7.584C70.9655 7.57088 71.5456 7.70222 72.0686 7.96639C72.496 8.17071 72.8612 8.48531 73.1266 8.87777L72.5338 12.7463Z" fill="white"/>
<path d="M75.6252 4.80549C75.3584 4.54834 75.1473 4.23919 75.0047 3.89717C74.8622 3.55514 74.7914 3.18752 74.7967 2.81703C74.7914 2.44654 74.8622 2.07892 75.0047 1.7369C75.1473 1.39487 75.3584 1.08573 75.6252 0.828576C75.8848 0.565933 76.194 0.357415 76.5347 0.215103C76.8755 0.0727905 77.2412 -0.000488281 77.6105 -0.000488281C77.9798 -0.000488281 78.3454 0.0727905 78.6862 0.215103C79.0269 0.357415 79.3361 0.565933 79.5957 0.828576C79.8633 1.08541 80.0755 1.39435 80.2191 1.73635C80.3627 2.07835 80.4347 2.44614 80.4306 2.81703C80.4347 3.18793 80.3627 3.55572 80.2191 3.89771C80.0755 4.23971 79.8633 4.54865 79.5957 4.80549C79.3361 5.06813 79.0269 5.27665 78.6862 5.41896C78.3454 5.56127 77.9798 5.63455 77.6105 5.63455C77.2412 5.63455 76.8755 5.56127 76.5347 5.41896C76.194 5.27665 75.8848 5.06813 75.6252 4.80549ZM75.5232 8.04948H79.7296V25.1107H75.5232V8.04948Z" fill="white"/>
<path d="M94.9613 23.5811C94.5245 24.1897 93.9415 24.6785 93.2661 25.0024C92.4746 25.3946 91.5999 25.5892 90.7168 25.5696C88.8175 25.5696 87.4112 25.0618 86.4977 24.0464C85.5116 22.8419 85.0135 21.3113 85.1019 19.7572V12.5235H82.2148V11.166L88.0782 3.74756H89.3529V8.04951H94.751V12.5108H89.321V18.8012C89.2867 19.1255 89.3261 19.4533 89.4365 19.7602C89.5469 20.067 89.7253 20.3449 89.9583 20.573C90.3771 20.919 90.9066 21.1023 91.4497 21.0892C91.9524 21.1061 92.4515 20.9989 92.9028 20.7769C93.3495 20.5281 93.7434 20.1948 94.0627 19.7954L94.9613 23.5811Z" fill="white"/>
<path d="M96.7144 8.04932H101.252L105.726 18.648L110.2 8.04932H114.872L104.668 32.1657H100.06L103.54 24.0526L96.7144 8.04932Z" fill="white"/>
<path d="M121.914 11.542C121.523 11.538 121.135 11.6027 120.767 11.7332C120.43 11.8564 120.111 12.0235 119.817 12.2303C119.53 12.438 119.269 12.6799 119.04 12.9505C118.81 13.2167 118.607 13.5049 118.434 13.8109L116.93 11.2297C117.055 10.731 117.271 10.2599 117.568 9.84032C117.882 9.39535 118.27 9.00736 118.715 8.69313C119.191 8.35392 119.718 8.09156 120.276 7.91559C120.894 7.71937 121.54 7.62257 122.188 7.6288C122.993 7.61556 123.793 7.75393 124.546 8.03669C125.185 8.27226 125.765 8.64475 126.245 9.12806C126.725 9.61137 127.094 10.1938 127.325 10.8345C127.57 11.4907 127.693 12.1862 127.688 12.8867C127.692 13.4611 127.619 14.0333 127.472 14.5884C127.318 15.1167 127.104 15.6256 126.834 16.1052C126.531 16.6329 126.183 17.1339 125.795 17.6029C125.381 18.1128 124.903 18.6737 124.361 19.2727L122.647 21.1847H128.013V25.1106H117.051V22.0833L121.94 16.7617C122.29 16.3857 122.577 16.0479 122.845 15.7611C123.079 15.5046 123.292 15.2296 123.482 14.9389C123.637 14.6988 123.765 14.4423 123.864 14.1741C123.957 13.9102 124.003 13.6318 123.998 13.352C123.999 13.1122 123.949 12.8749 123.852 12.6554C123.756 12.4359 123.614 12.239 123.437 12.0773C123.019 11.712 122.475 11.5244 121.92 11.5547" fill="white"/>
<path d="M135.291 8.28535C137.512 7.40163 139.986 7.40163 142.206 8.28535C143.863 8.94735 145.282 10.0905 146.283 11.5674C147.283 13.0442 147.817 14.7869 147.817 16.5706C147.817 18.3542 147.283 20.0969 146.283 21.5738C145.282 23.0506 143.863 24.1938 142.206 24.8558C139.984 25.7312 137.513 25.7312 135.291 24.8558C134.223 24.4342 133.247 23.8086 132.417 23.0139C131.587 22.211 130.924 21.2514 130.467 20.1906C129.978 19.047 129.733 17.8142 129.747 16.5706C129.735 15.3292 129.98 14.0988 130.467 12.9569C130.921 11.8906 131.584 10.9262 132.417 10.1208C133.247 9.32849 134.223 8.70509 135.291 8.28535ZM138.746 21.6055C139.453 21.611 140.155 21.4857 140.817 21.2358C141.437 21.0057 142.006 20.6572 142.493 20.2097C142.968 19.7633 143.347 19.2257 143.608 18.6291C144.144 17.3222 144.144 15.8572 143.608 14.5503C143.35 13.948 142.971 13.4055 142.493 12.9569C142.016 12.5106 141.458 12.1601 140.849 11.9245C139.51 11.4314 138.039 11.4314 136.7 11.9245C136.085 12.1594 135.52 12.5098 135.036 12.9569C134.559 13.4055 134.179 13.948 133.921 14.5503C133.652 15.1965 133.513 15.8896 133.513 16.5897C133.513 17.2898 133.652 17.9829 133.921 18.6291C134.183 19.2257 134.562 19.7633 135.036 20.2097C135.52 20.6549 136.085 21.0032 136.7 21.2358C137.363 21.4878 138.068 21.6131 138.778 21.6055" fill="white"/>
<path d="M153.723 21.618C154.383 21.6524 155.036 21.4589 155.571 21.0699C155.8 20.899 155.983 20.6752 156.107 20.4177C156.23 20.1601 156.289 19.8766 156.278 19.5913C156.286 19.3364 156.232 19.0833 156.121 18.8537C156.01 18.624 155.846 18.4245 155.641 18.272C155.146 17.9201 154.546 17.747 153.939 17.7813C153.509 17.7737 153.079 17.8295 152.665 17.947C152.381 18.0248 152.11 18.1452 151.862 18.3039L151.269 15.6335L154.201 11.9625H149.478V8.04932H159.038V10.8344L156.145 14.4162C156.587 14.5288 157.015 14.6935 157.419 14.9069C157.899 15.1457 158.33 15.4696 158.694 15.8629C159.105 16.309 159.425 16.8307 159.637 17.3989C159.901 18.1165 160.027 18.8778 160.007 19.6423C160.012 20.4264 159.862 21.2039 159.567 21.9303C159.276 22.6362 158.842 23.2742 158.292 23.804C157.722 24.3551 157.048 24.7883 156.31 25.0787C155.486 25.3998 154.607 25.5578 153.723 25.5439C153.078 25.5511 152.435 25.4717 151.811 25.3081C151.282 25.1679 150.775 24.9533 150.307 24.6708C149.91 24.4351 149.549 24.1431 149.236 23.804C148.964 23.5196 148.748 23.1867 148.599 22.8225L149.459 19.6805C149.934 20.2306 150.507 20.6885 151.148 21.0316C151.936 21.432 152.814 21.625 153.697 21.5925" fill="white"/>
<path d="M167.241 8.28535C169.461 7.40163 171.935 7.40163 174.156 8.28535C175.224 8.70699 176.201 9.33258 177.03 10.1272C177.863 10.9326 178.526 11.897 178.98 12.9633C179.475 14.1013 179.729 15.3296 179.726 16.5706C179.743 17.8158 179.499 19.0509 179.012 20.197C178.555 21.2577 177.892 22.2173 177.062 23.0203C176.222 23.8162 175.235 24.4397 174.156 24.8558C171.934 25.7312 169.463 25.7312 167.241 24.8558C166.172 24.4342 165.196 23.8086 164.366 23.0139C163.536 22.211 162.873 21.2514 162.416 20.1906C161.93 19.0465 161.687 17.8137 161.702 16.5706C161.688 15.3297 161.931 14.0993 162.416 12.9569C162.87 11.8906 163.533 10.9262 164.366 10.1208C165.196 9.32849 166.173 8.70509 167.241 8.28535ZM170.701 21.5991C171.407 21.6052 172.107 21.4798 172.766 21.2294C173.386 20.9993 173.956 20.6508 174.443 20.2033C174.917 19.7569 175.296 19.2193 175.558 18.6228C175.827 17.9765 175.966 17.2834 175.966 16.5833C175.966 15.8833 175.827 15.1901 175.558 14.5439C175.3 13.9416 174.92 13.3991 174.443 12.9506C173.956 12.5008 173.387 12.1501 172.766 11.9181C171.427 11.425 169.956 11.425 168.617 11.9181C168.011 12.1578 167.455 12.5103 166.979 12.9569C166.502 13.4055 166.122 13.948 165.864 14.5503C165.595 15.1965 165.456 15.8896 165.456 16.5897C165.456 17.2898 165.595 17.9829 165.864 18.6291C166.126 19.2257 166.505 19.7633 166.979 20.2097C167.463 20.6549 168.028 21.0032 168.643 21.2358C169.308 21.4884 170.015 21.6138 170.727 21.6055" fill="white"/>
<path d="M188.757 5.14941H185.341L181.402 11.9752H184.812L188.757 5.14941Z" fill="white"/>
<path d="M185.341 5.14941H188.757L192.702 11.9752H189.286L185.341 5.14941Z" fill="white"/>
</g>
<defs>
<clipPath id="clip0">
<rect width="206.57" height="53" fill="white"/>
</clipPath>
</defs>
</svg>
