<svg width="312" height="80" viewBox="0 0 312 80" fill="none" xmlns="http://www.w3.org/2000/svg">
<g clip-path="url(#clip0)">
<path d="M0 58.4897H3.14574V76.5369H0V58.4897Z" fill="#EA0029"/>
<path d="M12.4196 73.7085C13.2003 73.7119 13.9744 73.5649 14.6995 73.2756C15.3443 73.0602 15.917 72.6707 16.3542 72.1501L17.3162 74.5839C16.8443 75.3064 16.1771 75.8802 15.3921 76.2386C14.4323 76.7091 13.3727 76.9402 12.3041 76.912C11.3868 76.9065 10.4778 76.7371 9.62014 76.4117C8.80763 76.1037 8.0651 75.6359 7.4364 75.0361C6.81692 74.4414 6.32867 73.7238 6.00302 72.9293C5.33222 71.2003 5.30831 69.2873 5.93568 67.5421C6.23501 66.7556 6.68241 66.0339 7.25362 65.416C7.82978 64.7849 8.53083 64.2804 9.3123 63.9346C10.1669 63.5608 11.0925 63.377 12.0251 63.3958C12.9128 63.3818 13.7918 63.5728 14.5937 63.9538C15.3297 64.3107 15.9845 64.8149 16.5177 65.4353C17.0607 66.069 17.4844 66.7958 17.7683 67.5805C18.0922 68.4022 18.2649 69.2756 18.2782 70.1587C18.2782 70.3415 18.2782 70.5435 18.2782 70.7455C18.277 70.9234 18.2577 71.1007 18.2204 71.2746H8.70624C8.75617 71.655 8.89327 72.0188 9.10686 72.3375C9.32044 72.6562 9.60474 72.9213 9.9376 73.1121C10.6975 73.5272 11.554 73.7331 12.4196 73.7085ZM15.0266 68.6965C14.9898 68.3835 14.8846 68.0825 14.7183 67.8148C14.5521 67.5471 14.3289 67.3193 14.0646 67.1477C13.4591 66.7819 12.7611 66.5983 12.054 66.6185C11.3233 66.6047 10.6023 66.7875 9.96646 67.1477C9.67792 67.3078 9.42828 67.5296 9.23538 67.7973C9.04248 68.0651 8.91107 68.3721 8.85054 68.6965H15.0266Z" fill="#EA0029"/>
<path d="M20.4039 65.676C20.6378 65.307 20.934 64.9815 21.2793 64.714C21.6405 64.4254 22.0384 64.186 22.4626 64.0021C22.9028 63.8049 23.3644 63.6596 23.8382 63.5692C24.323 63.4731 24.8159 63.4248 25.3101 63.4249C26.0902 63.4151 26.8667 63.5321 27.6093 63.7712C28.2562 63.9738 28.8575 64.3005 29.3794 64.7332C29.885 65.186 30.2799 65.7488 30.5338 66.3782C30.8131 67.0651 30.9506 67.8014 30.9378 68.5427V76.5562H27.8979V75.421C27.5406 75.9318 27.0276 76.3131 26.4356 76.5081C25.1995 76.9732 23.8413 77.0004 22.5876 76.5851C22.0497 76.3971 21.5484 76.1171 21.1061 75.7577C20.6893 75.3974 20.3602 74.9466 20.1441 74.4398C19.907 73.887 19.789 73.2904 19.7978 72.689C19.79 72.0649 19.9318 71.448 20.2115 70.89C20.4772 70.3763 20.8554 69.9291 21.3178 69.5817C21.7959 69.2165 22.3373 68.9426 22.9147 68.7736C23.5199 68.5914 24.149 68.5006 24.781 68.5042C25.4652 68.4848 26.1479 68.5791 26.8012 68.7832C27.1989 68.8991 27.5621 69.1105 27.8594 69.3989V69.043C27.8727 68.7112 27.8142 68.3805 27.6881 68.0733C27.5619 67.7662 27.3709 67.4899 27.1283 67.2633C26.5228 66.778 25.7572 66.5377 24.983 66.5899C24.2259 66.5819 23.4766 66.7429 22.7897 67.0612C22.1558 67.3381 21.5981 67.7638 21.1639 68.3022L20.4039 65.676ZM27.7921 71.9482C27.577 71.6575 27.273 71.4447 26.9263 71.3422C26.4335 71.1618 25.9117 71.0737 25.3871 71.0824C24.7438 71.0419 24.1017 71.1783 23.5304 71.4768C23.3441 71.5799 23.1882 71.7301 23.0785 71.9125C22.9687 72.0949 22.9089 72.303 22.9051 72.5158C22.9054 72.7293 22.9649 72.9385 23.077 73.1203C23.1891 73.302 23.3493 73.4491 23.54 73.5451C24.1003 73.8348 24.7285 73.9678 25.3582 73.9299C25.8874 73.9388 26.4123 73.8338 26.8974 73.6221C27.2703 73.4728 27.5844 73.206 27.7921 72.8621V71.9482Z" fill="#EA0029"/>
<path d="M33.6703 72.8909C33.1284 71.6264 32.9754 70.2292 33.2307 68.8774C33.4859 67.5257 34.138 66.2805 35.1036 65.3007C35.6914 64.7117 36.3871 64.2414 37.1527 63.9154C37.9227 63.5898 38.7505 63.423 39.5866 63.4248C40.4176 63.3983 41.2437 63.5629 42.0012 63.9058C42.5751 64.1321 43.047 64.5595 43.3288 65.1083V58.4897H46.4745V76.5369H43.4538V75.1997C43.1611 75.7471 42.684 76.1731 42.107 76.4022C41.3372 76.7384 40.5033 76.9026 39.6635 76.8832C38.8192 76.8845 37.9826 76.7211 37.2008 76.4022C36.4265 76.0906 35.723 75.626 35.1325 75.0362C34.5084 74.4244 34.0115 73.6954 33.6703 72.8909ZM36.5563 68.7832C36.3731 69.2184 36.2814 69.6866 36.2869 70.1588C36.2794 70.6281 36.3712 71.0936 36.5563 71.5249C36.7316 71.9303 36.9905 72.2942 37.3162 72.5927C37.653 72.9005 38.0491 73.1362 38.4803 73.2853C38.9621 73.4555 39.47 73.5401 39.981 73.5354C40.7118 73.5474 41.4346 73.3823 42.0878 73.0544C42.6189 72.8062 43.0474 72.3811 43.2999 71.8519V68.4561C43.0501 67.925 42.6208 67.4991 42.0878 67.2536C41.5319 66.978 40.9271 66.815 40.308 66.7737C39.6889 66.7324 39.0678 66.8138 38.4803 67.0131C38.0491 67.1622 37.653 67.3979 37.3162 67.7057C37.0111 68.0132 36.7721 68.3799 36.614 68.7832H36.5563Z" fill="#EA0029"/>
<path d="M55.7962 73.7085C56.577 73.7119 57.351 73.5649 58.0762 73.2756C58.7174 73.0491 59.2834 72.6496 59.7116 72.1212L60.6736 74.5551C60.2017 75.2775 59.5346 75.8513 58.7496 76.2097C57.7897 76.6803 56.7302 76.9113 55.6616 76.8831C54.7363 76.8903 53.8173 76.7307 52.9487 76.4117C52.1465 76.1003 51.414 75.6327 50.7938 75.0361C50.1743 74.4414 49.6861 73.7238 49.3604 72.9293C48.6896 71.2003 48.6657 69.2873 49.2931 67.5421C49.5924 66.7556 50.0398 66.0339 50.611 65.416C51.1872 64.7849 51.8883 64.2804 52.6697 63.9346C53.5244 63.5608 54.45 63.377 55.3826 63.3958C56.2703 63.3818 57.1492 63.5728 57.9511 63.9538C58.6871 64.3107 59.342 64.8149 59.8751 65.4353C60.4182 66.069 60.8419 66.7958 61.1257 67.5806C61.4266 68.4065 61.5765 69.2797 61.5682 70.1587C61.5682 70.3415 61.5682 70.5435 61.5682 70.7455C61.5623 70.9231 61.543 71.1 61.5105 71.2746H52.0637C52.1136 71.655 52.2507 72.0188 52.4643 72.3375C52.6779 72.6562 52.9622 72.9213 53.295 73.1121C54.0606 73.5306 54.9242 73.7365 55.7962 73.7085ZM58.4033 68.6965C58.3665 68.3835 58.2613 68.0825 58.095 67.8148C57.9287 67.5471 57.7055 67.3193 57.4413 67.1477C56.8357 66.7819 56.1378 66.5983 55.4307 66.6186C54.7 66.6047 53.979 66.7875 53.3431 67.1477C53.0546 67.3078 52.8049 67.5296 52.612 67.7973C52.4191 68.0651 52.2877 68.3721 52.2272 68.6965H58.4033Z" fill="#EA0029"/>
<path d="M71.4189 67.2823C71.2005 67.135 70.9646 67.0155 70.7167 66.9264C70.4076 66.8177 70.0823 66.7624 69.7547 66.7629C69.1013 66.7309 68.4607 66.9514 67.9654 67.3785C67.5315 67.7678 67.229 68.2821 67.0996 68.8504V76.5464H63.9346V63.771H66.9841V65.4161C67.1457 64.8408 67.4818 64.3299 67.9461 63.9538C68.4731 63.5622 69.1178 63.362 69.7739 63.3862C70.2105 63.375 70.6431 63.4707 71.0341 63.6652C71.3529 63.8191 71.6251 64.0548 71.823 64.3482L71.4189 67.2823Z" fill="#EA0029"/>
<path d="M76.152 71.0052C75.2677 70.5904 74.4784 69.9977 73.8336 69.2639C73.3535 68.6532 73.0986 67.8955 73.1121 67.1187C73.1097 66.6252 73.2113 66.1368 73.4103 65.6853C73.6027 65.234 73.8955 64.8326 74.2665 64.5117C74.6532 64.1719 75.0958 63.9018 75.5748 63.7132C76.12 63.5138 76.6971 63.416 77.2776 63.4246C78.1168 63.3998 78.9492 63.5815 79.7018 63.9537C80.2869 64.2272 80.7909 64.6482 81.1641 65.1754L80.5676 67.9845C80.0949 67.5097 79.5187 67.1508 78.8841 66.9359C78.3797 66.7569 77.8509 66.6563 77.316 66.6377C76.6138 66.6377 76.2578 66.8493 76.2578 67.263C76.255 67.3568 76.2755 67.4498 76.3175 67.5338C76.3595 67.6177 76.4216 67.6899 76.4983 67.744C76.7427 67.9173 77 68.0716 77.2679 68.2057L78.4608 68.8214C79.3406 69.2452 80.136 69.8254 80.8081 70.5338C81.3698 71.1872 81.6621 72.0298 81.6258 72.8907C81.6323 73.4362 81.5241 73.9769 81.3083 74.478C81.0848 74.964 80.7563 75.3944 80.3463 75.7382C79.9233 76.1143 79.4295 76.4021 78.8937 76.5848C78.2892 76.7871 77.6553 76.8879 77.0178 76.883C76.056 76.9182 75.1033 76.6851 74.2665 76.2096C73.6121 75.8568 73.064 75.3353 72.6792 74.6992L73.5642 71.9191C73.7336 72.1418 73.9201 72.3509 74.1222 72.5444C74.3635 72.7648 74.628 72.9583 74.911 73.1216C75.2128 73.3023 75.536 73.4445 75.873 73.5448C76.2672 73.6568 76.6754 73.7119 77.0852 73.7084C77.4173 73.7186 77.7471 73.6493 78.0472 73.5064C78.174 73.4499 78.2806 73.3561 78.3528 73.2375C78.425 73.1189 78.4593 72.9812 78.4512 72.8426C78.4649 72.7165 78.4504 72.589 78.4089 72.4692C78.3673 72.3494 78.2996 72.2404 78.2107 72.1499C77.9093 71.9189 77.5873 71.716 77.2487 71.5439L76.152 71.0052Z" fill="#EA0029"/>
<path d="M89.9376 65.676C90.1743 65.3092 90.4701 64.9841 90.8131 64.714C91.1742 64.4254 91.5721 64.186 91.9963 64.0021C92.437 63.8062 92.8985 63.661 93.372 63.5692C93.8568 63.4735 94.3497 63.4252 94.8438 63.4249C95.6239 63.4151 96.4004 63.5321 97.143 63.7712C97.79 63.9738 98.3912 64.3005 98.9131 64.7332C99.4117 65.188 99.8 65.7507 100.048 66.3782C100.328 67.0651 100.465 67.8014 100.452 68.5427V76.5562H97.4028V75.421C97.0455 75.9318 96.5325 76.3131 95.9405 76.5081C94.7044 76.9732 93.3462 77.0004 92.0925 76.5851C91.5545 76.3971 91.0533 76.1171 90.611 75.7577C90.1971 75.3947 89.8686 74.9447 89.649 74.4398C89.4119 73.887 89.2939 73.2904 89.3027 72.689C89.2949 72.0649 89.4367 71.448 89.7164 70.89C89.9821 70.3763 90.3603 69.9291 90.8227 69.5817C91.2805 69.2237 91.7985 68.9501 92.3523 68.7736C92.9761 68.5864 93.6249 68.4956 94.2763 68.5042C94.9605 68.4848 95.6431 68.5791 96.2965 68.7832C96.6952 68.8965 97.0591 69.1082 97.3547 69.3989V69.043C97.3699 68.711 97.3123 68.3796 97.186 68.0722C97.0597 67.7648 96.8678 67.4887 96.6235 67.2633C96.018 66.778 95.2525 66.5377 94.4783 66.5899C93.7212 66.5819 92.9719 66.7429 92.2849 67.0612C91.6685 67.3447 91.1279 67.7699 90.7072 68.3022L89.9376 65.676ZM97.3258 71.9482C97.1107 71.6575 96.8068 71.4447 96.46 71.3422C95.9672 71.1618 95.4455 71.0737 94.9208 71.0824C94.2775 71.0419 93.6354 71.1783 93.0641 71.4768C92.8779 71.5799 92.722 71.7301 92.6122 71.9125C92.5025 72.0949 92.4426 72.303 92.4388 72.5158C92.4391 72.7293 92.4986 72.9385 92.6107 73.1203C92.7228 73.302 92.8831 73.4491 93.0738 73.5451C93.6341 73.8348 94.2623 73.9678 94.8919 73.9299C95.4211 73.9388 95.946 73.8338 96.4311 73.6221C96.8059 73.4759 97.1209 73.2083 97.3258 72.8621V71.9482Z" fill="#EA0029"/>
<path d="M111.034 67.2823C110.816 67.1349 110.58 67.0154 110.332 66.9263C110.023 66.8176 109.697 66.7623 109.37 66.7628C108.716 66.7288 108.075 66.9495 107.58 67.3785C107.147 67.7678 106.844 68.282 106.715 68.8503V76.5463H103.569V63.771H106.618V65.416C106.791 64.8097 107.163 64.2794 107.675 63.911C108.186 63.5427 108.807 63.3577 109.437 63.3862C109.877 63.3737 110.313 63.4695 110.707 63.6651C111.026 63.819 111.298 64.0547 111.496 64.3482L111.034 67.2823Z" fill="#EA0029"/>
<path d="M119.365 73.7084C120.146 73.7099 120.919 73.563 121.645 73.2755C122.285 73.0467 122.85 72.6476 123.28 72.1211L124.242 74.5549C123.77 75.2774 123.103 75.8512 122.318 76.2096C121.359 76.6812 120.299 76.9123 119.23 76.883C118.305 76.8879 117.387 76.7283 116.517 76.4116C115.721 76.099 114.996 75.6314 114.382 75.0359C113.756 74.4445 113.264 73.7262 112.939 72.9291C112.267 71.1998 112.246 69.2852 112.881 67.5419C113.177 66.756 113.621 66.0342 114.189 65.4159C114.769 64.789 115.469 64.2852 116.248 63.9344C117.106 63.5616 118.035 63.3779 118.971 63.3957C119.855 63.3832 120.731 63.5741 121.529 63.9537C122.265 64.3115 122.92 64.8156 123.453 65.4351C123.997 66.0688 124.42 66.7956 124.704 67.5804C125.002 68.3972 125.151 69.2604 125.147 70.1297C125.147 70.3125 125.147 70.5145 125.147 70.7165C125.141 70.8941 125.121 71.071 125.089 71.2456H115.613C115.665 71.634 115.807 72.0049 116.027 72.3289C116.248 72.6529 116.541 72.921 116.883 73.1119C117.642 73.5306 118.499 73.7367 119.365 73.7084ZM121.962 68.6963C121.93 68.3822 121.826 68.0796 121.659 67.8113C121.493 67.5431 121.267 67.3161 121 67.1475C120.398 66.7821 119.703 66.5983 118.999 66.6184C118.269 66.6046 117.548 66.7873 116.912 67.1475C116.623 67.3076 116.374 67.5295 116.181 67.7972C115.988 68.0649 115.856 68.3719 115.796 68.6963H121.962Z" fill="#EA0029"/>
<path d="M148.196 63.4246C148.816 63.4269 149.431 63.5342 150.015 63.742C150.615 63.9507 151.168 64.2778 151.64 64.704C152.15 65.1686 152.551 65.7402 152.814 66.3779C153.136 67.1144 153.293 67.9121 153.276 68.7156V76.5559H150.13V69.3986C150.148 69.0464 150.094 68.6941 149.972 68.3633C149.85 68.0326 149.661 67.7302 149.418 67.4746C149.188 67.2507 148.915 67.0749 148.616 66.9577C148.317 66.8404 147.998 66.7839 147.677 66.7916C147.063 66.7846 146.463 66.9733 145.964 67.3303C145.483 67.6303 145.138 68.1068 145.002 68.6579V76.5655H141.857V69.3697C141.879 69.0171 141.827 68.6637 141.705 68.3324C141.582 68.001 141.391 67.699 141.145 67.4457C140.666 66.997 140.03 66.7551 139.375 66.7723C138.765 66.7674 138.168 66.956 137.672 67.3111C137.19 67.6111 136.845 68.0875 136.71 68.6386V76.5463H133.555V63.7709H136.604V65.06C136.82 64.5485 137.213 64.1318 137.711 63.8863C138.386 63.5551 139.133 63.3964 139.885 63.4246C140.63 63.4223 141.367 63.5763 142.049 63.8767C142.76 64.1912 143.384 64.6731 143.867 65.2812C144.33 64.6294 144.972 64.1251 145.714 63.8286C146.51 63.5428 147.351 63.4058 148.196 63.4246Z" fill="#EA0029"/>
<path d="M156.056 65.676C156.29 65.307 156.586 64.9815 156.931 64.714C157.291 64.4275 157.685 64.1883 158.105 64.0021C158.546 63.8076 159.008 63.6624 159.481 63.5692C159.969 63.4733 160.465 63.425 160.962 63.4249C161.739 63.4151 162.512 63.5321 163.252 63.7712C163.899 63.9717 164.501 64.2986 165.022 64.7332C165.527 65.1668 165.923 65.7141 166.176 66.3301C166.463 67.0149 166.604 67.7522 166.59 68.4946V76.5081H163.54V75.421C163.183 75.9318 162.67 76.3131 162.078 76.5081C160.841 76.9694 159.484 76.9965 158.23 76.5851C157.696 76.3948 157.198 76.1151 156.758 75.7577C156.341 75.3974 156.012 74.9466 155.796 74.4398C155.559 73.887 155.441 73.2904 155.45 72.6889C155.439 72.0656 155.577 71.4487 155.854 70.89C156.125 70.3798 156.502 69.9337 156.96 69.5817C157.44 69.2185 157.981 68.9448 158.557 68.7736C159.166 68.592 159.798 68.5013 160.433 68.5042C161.117 68.4848 161.8 68.5791 162.453 68.7832C162.849 68.896 163.21 69.1079 163.502 69.3989V69.043C163.517 68.711 163.459 68.3796 163.333 68.0722C163.207 67.7648 163.015 67.4887 162.771 67.2633C162.169 66.7778 161.406 66.5373 160.635 66.5899C159.875 66.5811 159.122 66.7421 158.432 67.0612C157.802 67.3438 157.245 67.7686 156.806 68.3022L156.056 65.676ZM163.434 71.9482C163.224 71.6532 162.918 71.4393 162.569 71.3422C162.076 71.16 161.554 71.0719 161.029 71.0824C160.386 71.0429 159.744 71.1793 159.173 71.4768C158.988 71.5803 158.833 71.7309 158.725 71.9134C158.617 72.0959 158.559 72.3037 158.557 72.5158C158.557 72.7293 158.617 72.9385 158.729 73.1203C158.841 73.302 159.001 73.449 159.192 73.5451C159.752 73.8371 160.38 73.9702 161.01 73.9299C161.539 73.9379 162.064 73.8329 162.549 73.6221C162.922 73.476 163.234 73.2082 163.434 72.8621V71.9482Z" fill="#EA0029"/>
<path d="M169.312 72.8909C168.774 71.6264 168.622 70.231 168.876 68.8804C169.129 67.5298 169.776 66.2843 170.736 65.3007C171.327 64.7115 172.026 64.2412 172.795 63.9154C173.565 63.5898 174.392 63.423 175.228 63.4248C176.059 63.3994 176.885 63.5639 177.643 63.9058C178.213 64.138 178.683 64.5638 178.971 65.1083V58.4897H182.116V76.5369H179.067V75.1997C178.774 75.7471 178.297 76.1731 177.72 76.4022C176.95 76.7384 176.116 76.9026 175.277 76.8832C174.429 76.8845 173.589 76.7212 172.804 76.4022C172.046 76.0815 171.357 75.6177 170.774 75.0362C170.15 74.4249 169.653 73.6957 169.312 72.8909ZM172.198 68.7832C172.015 69.2184 171.923 69.6866 171.929 70.1588C171.921 70.6281 172.013 71.0936 172.198 71.5249C172.374 71.9278 172.629 72.2911 172.949 72.5927C173.289 72.9007 173.688 73.1364 174.122 73.2853C174.601 73.4547 175.105 73.5394 175.613 73.5354C176.344 73.5497 177.068 73.3845 177.72 73.0544C178.256 72.8093 178.688 72.3837 178.942 71.8519V68.4561C178.691 67.9224 178.258 67.4959 177.72 67.2536C177.166 66.9778 176.563 66.8146 175.945 66.7733C175.328 66.732 174.708 66.8135 174.122 67.0131C173.688 67.162 173.289 67.3977 172.949 67.7057C172.653 68.0169 172.421 68.3829 172.266 68.7832H172.198Z" fill="#EA0029"/>
<path d="M191.438 73.7084C192.219 73.7099 192.992 73.563 193.718 73.2755C194.358 73.0467 194.924 72.6476 195.353 72.1211L196.315 74.5549C195.844 75.2774 195.176 75.8512 194.391 76.2096C193.432 76.6812 192.372 76.9123 191.303 76.883C190.378 76.8879 189.46 76.7283 188.591 76.4116C187.791 76.1001 187.062 75.6325 186.445 75.0359C185.82 74.4445 185.328 73.7262 185.002 72.9291C184.33 71.1998 184.31 69.2852 184.945 67.5419C185.24 66.756 185.685 66.0342 186.253 65.4159C186.833 64.789 187.533 64.2852 188.312 63.9344C189.17 63.5616 190.098 63.3779 191.034 63.3957C191.919 63.3832 192.794 63.5741 193.593 63.9537C194.328 64.3115 194.983 64.8156 195.517 65.4351C196.06 66.0688 196.484 66.7956 196.768 67.5804C197.065 68.3972 197.215 69.2604 197.21 70.1297C197.21 70.3125 197.21 70.5145 197.21 70.7165C197.204 70.8941 197.185 71.071 197.152 71.2456H187.677C187.729 71.634 187.871 72.0049 188.091 72.3289C188.311 72.6529 188.604 72.921 188.946 73.1119C189.708 73.5323 190.569 73.7385 191.438 73.7084ZM194.035 68.6963C194.003 68.3822 193.899 68.0796 193.733 67.8113C193.566 67.5431 193.341 67.3161 193.073 67.1475C192.471 66.7821 191.777 66.5983 191.073 66.6184C190.342 66.6046 189.621 66.7873 188.985 67.1475C188.695 67.306 188.444 67.5274 188.251 67.7954C188.058 68.0634 187.928 68.3712 187.869 68.6963H194.035Z" fill="#EA0029"/>
<path d="M200.875 76.6039C200.506 76.503 200.172 76.2996 199.913 76.0171C199.752 75.8339 199.63 75.6204 199.552 75.3892C199.474 75.1579 199.443 74.9136 199.461 74.6703C199.457 74.3871 199.51 74.1059 199.615 73.843C199.722 73.5898 199.879 73.3608 200.077 73.1696C200.499 72.7741 201.057 72.557 201.635 72.5635C201.917 72.5543 202.198 72.6073 202.458 72.7187C202.717 72.83 202.949 72.9971 203.136 73.2081C203.523 73.6259 203.734 74.1776 203.723 74.7473C203.729 75.2052 203.644 75.6597 203.473 76.0844C203.303 76.496 203.104 76.8947 202.876 77.2773L201.27 79.9998H199.288L200.875 76.6039Z" fill="#EA0029"/>
<path d="M224.772 76.5369H221.616V69.6394C221.651 69.2632 221.605 68.8839 221.481 68.5271C221.357 68.1703 221.157 67.8443 220.897 67.5708C220.636 67.2974 220.32 67.083 219.969 66.942C219.619 66.801 219.242 66.7366 218.865 66.7534C218.208 66.7483 217.565 66.9392 217.018 67.3017C216.774 67.4573 216.563 67.6599 216.398 67.8977C216.233 68.1355 216.116 68.4038 216.056 68.687V76.5273H212.91V63.7712H215.96V65.0602C216.182 64.538 216.59 64.1166 217.104 63.877C217.814 63.5466 218.593 63.3915 219.375 63.4248C220.03 63.4282 220.68 63.5387 221.299 63.7519C221.939 63.9767 222.527 64.3266 223.03 64.7812C223.568 65.2796 223.994 65.8861 224.281 66.561C224.627 67.3686 224.794 68.2415 224.772 69.1199V76.5369Z" fill="#EA0029"/>
<path d="M240.356 70.1585C240.37 71.0845 240.186 72.0028 239.817 72.8521C239.468 73.6482 238.964 74.3674 238.336 74.9685C237.719 75.5673 236.994 76.0439 236.2 76.3731C235.383 76.7107 234.507 76.8839 233.622 76.8829C232.737 76.8868 231.861 76.7134 231.044 76.3731C230.245 76.0466 229.517 75.5698 228.899 74.9685C228.27 74.3674 227.767 73.6482 227.417 72.8521C227.062 72.002 226.878 71.0897 226.878 70.1682C226.878 69.2466 227.062 68.3343 227.417 67.4842C227.767 66.6794 228.27 65.9507 228.899 65.3389C229.519 64.738 230.247 64.2584 231.044 63.9248C231.861 63.5875 232.738 63.4174 233.622 63.4245C234.506 63.4205 235.382 63.5904 236.2 63.9248C236.993 64.2609 237.717 64.7403 238.336 65.3389C238.965 65.9507 239.468 66.6794 239.817 67.4842C240.183 68.3279 240.366 69.2392 240.356 70.1585ZM230.322 68.7829C230.136 69.2174 230.041 69.6857 230.043 70.1585C230.039 70.6284 230.134 71.0939 230.322 71.5246C230.498 71.9276 230.753 72.2908 231.073 72.5924C231.405 72.8959 231.794 73.1312 232.218 73.285C232.667 73.4529 233.143 73.5376 233.622 73.5352C234.095 73.5377 234.565 73.4529 235.007 73.285C235.424 73.1288 235.806 72.8936 236.133 72.5924C236.459 72.2918 236.72 71.9286 236.902 71.5246C237.099 71.0962 237.197 70.6296 237.191 70.1585C237.195 69.6846 237.096 69.2154 236.902 68.7829C236.72 68.3759 236.459 68.0096 236.133 67.7054C235.806 67.4042 235.424 67.1691 235.007 67.0128C234.565 66.845 234.095 66.7602 233.622 66.7627C233.143 66.7602 232.667 66.845 232.218 67.0128C231.794 67.1666 231.405 67.4019 231.073 67.7054C230.753 68.0105 230.498 68.377 230.322 68.7829Z" fill="#EA0029"/>
<path d="M250.967 75.392C250.644 75.8488 250.21 76.2161 249.707 76.4598C249.109 76.7535 248.449 76.8986 247.783 76.8831C247.204 76.9304 246.622 76.8526 246.076 76.6551C245.53 76.4575 245.032 76.1449 244.618 75.7383C243.882 74.8316 243.514 73.681 243.588 72.5156V67.1188H241.462V66.0991L245.849 60.5483H246.811V63.771H250.852V67.1188H246.753V71.823C246.736 72.0598 246.771 72.2975 246.854 72.5199C246.937 72.7423 247.066 72.9443 247.234 73.1121C247.548 73.37 247.944 73.5066 248.35 73.4969C248.73 73.5106 249.108 73.4279 249.447 73.2564C249.782 73.0736 250.077 72.8249 250.313 72.5252L250.967 75.392Z" fill="#EA0029"/>
<path d="M272.352 67.4364C273.058 69.1861 273.058 71.1412 272.352 72.8909C272.023 73.6925 271.539 74.4215 270.928 75.0362C270.336 75.6287 269.633 76.0993 268.86 76.4214C268.075 76.7404 267.235 76.9038 266.388 76.9024C265.548 76.9218 264.714 76.7577 263.944 76.4214C263.367 76.1924 262.89 75.7663 262.597 75.2189V76.5561H259.548V58.4897H262.694V65.1083C262.981 64.5638 263.451 64.138 264.021 63.9058C264.779 63.5639 265.605 63.3994 266.436 63.4248C267.272 63.423 268.1 63.5898 268.87 63.9154C269.638 64.2412 270.337 64.7115 270.928 65.3007C271.535 65.9147 272.019 66.6398 272.352 67.4364ZM269.466 71.5249C269.654 71.0942 269.749 70.6287 269.745 70.1588C269.747 69.686 269.653 69.2177 269.466 68.7832C269.291 68.3772 269.036 68.0108 268.716 67.7057C268.375 67.3977 267.976 67.162 267.542 67.0131C267.063 66.8437 266.559 66.759 266.051 66.763C265.316 66.7485 264.588 66.9171 263.935 67.2536C263.402 67.4991 262.972 67.925 262.722 68.4561V71.8519C262.975 72.3811 263.403 72.8062 263.935 73.0544C264.591 73.3835 265.317 73.5485 266.051 73.5354C266.559 73.5394 267.063 73.4547 267.542 73.2853C267.976 73.1364 268.375 72.9007 268.716 72.5927C269.025 72.2884 269.27 71.9254 269.437 71.5249H269.466Z" fill="#EA0029"/>
<path d="M287.86 70.1585C287.871 71.0852 287.684 72.0035 287.311 72.8521C286.961 73.6458 286.462 74.3644 285.839 74.9685C285.217 75.5654 284.49 76.0417 283.694 76.373C282.877 76.7118 282.001 76.8861 281.116 76.8861C280.231 76.8861 279.355 76.7118 278.538 76.373C277.741 76.0441 277.013 75.5676 276.393 74.9685C275.764 74.3695 275.264 73.6496 274.921 72.8521C274.374 71.5985 274.222 70.2081 274.485 68.866C274.748 67.5239 275.413 66.2936 276.393 65.3389C277.015 64.7401 277.742 64.2608 278.538 63.9248C280.192 63.2582 282.04 63.2582 283.694 63.9248C284.489 64.2631 285.215 64.7421 285.839 65.3389C286.462 65.9537 286.962 66.6818 287.311 67.4842C287.68 68.3272 287.867 69.2385 287.86 70.1585ZM277.816 68.7829C277.633 69.2181 277.541 69.6864 277.547 70.1585C277.539 70.6278 277.631 71.0933 277.816 71.5246C277.992 71.9301 278.251 72.2939 278.576 72.5924C278.905 72.8958 279.291 73.1312 279.711 73.285C280.161 73.4521 280.637 73.5368 281.116 73.5351C281.589 73.5377 282.059 73.4529 282.501 73.285C282.919 73.131 283.301 72.8956 283.627 72.5924C283.952 72.2917 284.214 71.9286 284.396 71.5246C284.592 71.0962 284.691 70.6296 284.685 70.1585C284.689 69.6846 284.59 69.2154 284.396 68.7829C284.211 68.3735 283.945 68.0058 283.615 67.7016C283.284 67.3975 282.896 67.1632 282.472 67.0128C282.03 66.8449 281.56 66.7601 281.087 66.7627C280.608 66.761 280.132 66.8458 279.683 67.0128C279.262 67.1666 278.876 67.402 278.547 67.7054C278.232 68.0102 277.983 68.3771 277.816 68.7829Z" fill="#EA0029"/>
<path d="M297.672 67.2823C297.454 67.135 297.218 67.0155 296.97 66.9264C296.661 66.8177 296.336 66.7624 296.008 66.7629C295.355 66.7309 294.714 66.9514 294.219 67.3785C293.785 67.7678 293.482 68.2821 293.353 68.8504V76.5464H290.207V63.771H293.257V65.4161C293.418 64.8408 293.754 64.3299 294.219 63.9538C294.746 63.5622 295.39 63.362 296.046 63.3862C296.483 63.375 296.916 63.4707 297.307 63.6652C297.626 63.8218 297.901 64.0568 298.105 64.3482L297.672 67.2823Z" fill="#EA0029"/>
<path d="M311.804 76.5366H308.658V69.6391C308.69 69.2636 308.641 68.8856 308.516 68.5303C308.391 68.1749 308.192 67.8501 307.932 67.5773C307.672 67.3046 307.357 67.0901 307.008 66.948C306.659 66.8059 306.283 66.7395 305.907 66.753C305.25 66.745 304.606 66.9362 304.06 67.3014C303.801 67.4504 303.577 67.6512 303.399 67.8913C303.222 68.1313 303.097 68.4054 303.031 68.6963V76.5366H299.885V63.7708H302.934V65.0599C303.158 64.5355 303.57 64.1136 304.089 63.8767C304.798 63.5456 305.577 63.3905 306.359 63.4245C307.014 63.4275 307.664 63.538 308.283 63.7516C308.925 63.9784 309.516 64.3281 310.024 64.7809C310.559 65.2819 310.985 65.8878 311.275 66.5607C311.613 67.3705 311.777 68.2423 311.756 69.1196L311.804 76.5366Z" fill="#EA0029"/>
<path d="M25.8297 19.5C26.5704 21.2428 26.9468 23.1186 26.936 25.0122C26.9577 26.9 26.5944 28.7723 25.8682 30.5149C25.1882 32.1186 24.2087 33.578 22.9822 34.815C21.7869 36.0032 20.3766 36.9532 18.8264 37.6145C17.2761 38.2631 15.6102 38.5904 13.9298 38.5765C12.2522 38.6283 10.5847 38.2994 9.05243 37.6145C7.89068 37.1602 6.93115 36.3032 6.34921 35.1998V48.5524H0V12.1503H6.14719V14.8535C6.7337 13.7408 7.70468 12.8792 8.87927 12.4293C10.4291 11.7464 12.1118 11.4178 13.8047 11.4673C15.5098 11.4566 17.2001 11.7835 18.7783 12.4293C20.3417 13.0633 21.7616 14.0056 22.9533 15.1998C24.1798 16.4368 25.1593 17.8963 25.8393 19.5H25.8297ZM19.9615 27.7732C20.3283 26.8995 20.5117 25.9597 20.5002 25.0122C20.5109 24.067 20.3242 23.1299 19.9519 22.2609C19.5979 21.4466 19.0768 20.7157 18.4223 20.1157C17.7428 19.4938 16.9443 19.016 16.075 18.7111C15.1059 18.3663 14.083 18.1969 13.0544 18.2109C11.5797 18.1792 10.1197 18.5095 8.80231 19.1729C7.72643 19.6695 6.85847 20.5272 6.34921 21.5971V28.4562C6.85847 29.5261 7.72643 30.3839 8.80231 30.8804C10.1197 31.5438 11.5797 31.8741 13.0544 31.8424C14.083 31.8565 15.1059 31.6871 16.075 31.3422C16.942 31.0371 17.7399 30.563 18.4223 29.9473C19.0819 29.3366 19.6034 28.5921 19.9519 27.7636" fill="#001B71"/>
<path d="M46.8303 19.2402C46.3881 18.9405 45.9097 18.6981 45.4065 18.5187C44.7711 18.2912 44.0997 18.1803 43.4248 18.1917C42.1136 18.1251 40.8265 18.5622 39.8269 19.4134C38.9443 20.1987 38.3316 21.2422 38.0761 22.3956V37.9031H31.7461V12.1503H37.8933V15.5462C38.246 14.3771 38.9558 13.3477 39.9231 12.6024C40.9797 11.8082 42.2769 11.4007 43.5979 11.448C44.4821 11.4294 45.3573 11.6276 46.1472 12.0252C46.7924 12.3336 47.3436 12.8085 47.7442 13.4009L46.8303 19.2402Z" fill="#001B71"/>
<path d="M51.4865 7.25364C51.0869 6.86363 50.7709 6.39643 50.5575 5.88045C50.3442 5.36447 50.238 4.81049 50.2455 4.2522C50.238 3.6939 50.3442 3.13992 50.5575 2.62394C50.7709 2.10796 51.0869 1.64076 51.4865 1.25076C51.8792 0.854023 52.3466 0.539081 52.8618 0.324142C53.377 0.109204 53.9297 -0.00146484 54.4879 -0.00146484C55.0461 -0.00146484 55.5988 0.109204 56.114 0.324142C56.6292 0.539081 57.0966 0.854023 57.4893 1.25076C57.892 1.63891 58.2107 2.10555 58.4259 2.62181C58.641 3.13807 58.7479 3.69297 58.74 4.2522C58.7479 4.81143 58.641 5.36633 58.4259 5.88259C58.2107 6.39885 57.892 6.86549 57.4893 7.25364C57.0966 7.65037 56.6292 7.96532 56.114 8.18025C55.5988 8.39519 55.0461 8.50586 54.4879 8.50586C53.9297 8.50586 53.377 8.39519 52.8618 8.18025C52.3466 7.96532 51.8792 7.65037 51.4865 7.25364ZM51.3422 12.1502H57.7202V37.903H51.371L51.3422 12.1502Z" fill="#001B71"/>
<path d="M89.5623 25.0121C89.6013 26.888 89.2406 28.7507 88.5041 30.4763C87.804 32.0847 86.7939 33.5393 85.5315 34.7572C84.2747 35.9558 82.807 36.9114 81.2025 37.5759C77.8718 38.9479 74.1339 38.9479 70.8032 37.5759C69.2017 36.9112 67.7372 35.9555 66.4839 34.7572C65.2181 33.538 64.2019 32.084 63.492 30.4763C62.7288 28.7565 62.3418 26.8936 62.3569 25.0121C62.3584 23.1665 62.745 21.3415 63.492 19.6538C64.8988 16.4224 67.5017 13.861 70.7551 12.5061C74.0858 11.134 77.8237 11.134 81.1544 12.5061C82.7671 13.1852 84.2362 14.1646 85.4834 15.3921C86.7548 16.6053 87.7805 18.0523 88.5041 19.6538C89.2244 21.3472 89.5847 23.172 89.5623 25.0121ZM69.3602 22.2416C68.9638 23.1116 68.7572 24.0561 68.7542 25.0121C68.7419 25.9585 68.9321 26.8966 69.3121 27.7634C69.6624 28.5802 70.1802 29.3143 70.8321 29.9183C71.494 30.5368 72.2678 31.0233 73.112 31.3517C74.0162 31.6901 74.9749 31.8597 75.9403 31.852C76.8964 31.8606 77.8458 31.6909 78.7397 31.3517C79.578 31.0346 80.3484 30.5613 81.0101 29.9568C81.6676 29.3493 82.1974 28.6167 82.5685 27.8019C82.9639 26.9255 83.1641 25.9736 83.1553 25.0121C83.1644 24.0588 82.9709 23.1145 82.5878 22.2416C82.2243 21.4168 81.6936 20.6765 81.0293 20.0674C80.3706 19.4567 79.5996 18.9797 78.759 18.6629C77.8746 18.3415 76.9389 18.185 75.998 18.2012C75.0326 18.1934 74.074 18.363 73.1698 18.7014C72.3194 19.0157 71.5384 19.4928 70.8706 20.1059C70.212 20.7116 69.6933 21.4535 69.3506 22.28" fill="#001B71"/>
<path d="M109.485 19.2402C109.044 18.9386 108.566 18.696 108.061 18.5187C107.426 18.2903 106.755 18.1795 106.08 18.1917C104.769 18.1271 103.482 18.5639 102.482 19.4134C101.602 20.2012 100.99 21.2436 100.731 22.3956V37.9031H94.3818V12.1503H100.529V15.5462C100.885 14.3788 101.594 13.3504 102.559 12.6024C103.615 11.8082 104.913 11.4007 106.234 11.448C107.118 11.4282 107.993 11.6265 108.783 12.0252C109.428 12.3336 109.979 12.8085 110.38 13.4009L109.485 19.2402Z" fill="#001B71"/>
<path d="M114.151 7.25333C113.748 6.86518 113.43 6.39854 113.214 5.88228C112.999 5.36602 112.892 4.81111 112.9 4.25188C112.892 3.69266 112.999 3.13775 113.214 2.62149C113.43 2.10523 113.748 1.63859 114.151 1.25044C114.543 0.853999 115.009 0.539255 115.524 0.324444C116.038 0.109633 116.59 -0.000976562 117.148 -0.000976562C117.705 -0.000976563 118.257 0.109633 118.771 0.324444C119.286 0.539255 119.752 0.853999 120.144 1.25044C120.548 1.63811 120.868 2.10445 121.085 2.62067C121.302 3.13689 121.411 3.69204 121.404 4.25188C121.411 4.81173 121.302 5.36688 121.085 5.8831C120.868 6.39932 120.548 6.86565 120.144 7.25333C119.752 7.64977 119.286 7.96451 118.771 8.17932C118.257 8.39414 117.705 8.50474 117.148 8.50474C116.59 8.50474 116.038 8.39414 115.524 8.17932C115.009 7.96451 114.543 7.64977 114.151 7.25333ZM113.997 12.1499H120.346V37.9027H113.997V12.1499Z" fill="#001B71"/>
<path d="M143.338 35.5942C142.679 36.5128 141.799 37.2506 140.779 37.7395C139.585 38.3315 138.264 38.6252 136.931 38.5956C134.064 38.5956 131.942 37.8293 130.563 36.2965C129.074 34.4784 128.323 32.168 128.456 29.8222V18.9035H124.098V16.8544L132.949 5.65674H134.873V12.1502H143.021V18.8842H134.824V28.3792C134.773 28.8687 134.832 29.3635 134.999 29.8267C135.165 30.2898 135.435 30.7093 135.786 31.0536C136.419 31.5758 137.218 31.8525 138.038 31.8328C138.796 31.8583 139.55 31.6964 140.231 31.3614C140.905 30.9859 141.5 30.4827 141.982 29.8799L143.338 35.5942Z" fill="#001B71"/>
<path d="M145.983 12.1499H152.833L159.586 28.148L166.339 12.1499H173.391L157.989 48.552H151.034L156.286 36.3057L145.983 12.1499Z" fill="#001B71"/>
<path d="M184.021 17.4217C183.431 17.4156 182.845 17.5133 182.289 17.7103C181.781 17.8962 181.299 18.1485 180.856 18.4606C180.422 18.7742 180.028 19.1392 179.682 19.5477C179.336 19.9496 179.03 20.3846 178.768 20.8464L176.498 16.9503C176.686 16.1976 177.012 15.4865 177.46 14.8531C177.934 14.1815 178.52 13.5958 179.192 13.1215C179.911 12.6095 180.706 12.2135 181.549 11.9479C182.482 11.6517 183.456 11.5056 184.435 11.515C185.649 11.495 186.857 11.7039 187.994 12.1307C188.959 12.4862 189.834 13.0485 190.559 13.778C191.283 14.5075 191.839 15.3867 192.188 16.3538C192.559 17.3442 192.745 18.3941 192.737 19.4515C192.742 20.3184 192.632 21.1821 192.41 22.02C192.177 22.8174 191.854 23.5856 191.448 24.3096C190.99 25.106 190.465 25.8623 189.88 26.5703C189.254 27.3399 188.533 28.1865 187.715 29.0907L185.127 31.9767H193.227V37.9027H176.681V33.3332L184.059 25.3005C184.588 24.7329 185.021 24.223 185.425 23.7901C185.779 23.4029 186.101 22.9879 186.387 22.5491C186.622 22.1867 186.815 21.7996 186.965 21.3947C187.105 20.9963 187.173 20.5761 187.167 20.1538C187.167 19.7918 187.092 19.4336 186.947 19.1023C186.801 18.771 186.587 18.4738 186.32 18.2297C185.689 17.6783 184.867 17.3952 184.031 17.4409" fill="#EA0029"/>
<path d="M204.213 12.5058C207.565 11.1719 211.3 11.1719 214.651 12.5058C217.151 13.5051 219.294 15.2306 220.804 17.4598C222.314 19.689 223.12 22.3195 223.12 25.0118C223.12 27.7041 222.314 30.3346 220.804 32.5638C219.294 34.793 217.151 36.5186 214.651 37.5178C211.297 38.8391 207.567 38.8391 204.213 37.5178C202.601 36.8814 201.127 35.9371 199.875 34.7376C198.622 33.5256 197.621 32.0771 196.931 30.476C196.194 28.7498 195.823 26.8889 195.844 25.0118C195.826 23.1381 196.196 21.2808 196.931 19.5573C197.616 17.9477 198.617 16.492 199.875 15.2764C201.128 14.0804 202.601 13.1394 204.213 12.5058ZM209.428 32.6116C210.495 32.62 211.555 32.4308 212.554 32.0537C213.49 31.7064 214.349 31.1803 215.084 30.5048C215.8 29.831 216.373 29.0196 216.768 28.1191C217.576 26.1464 217.576 23.935 216.768 21.9623C216.378 21.0532 215.805 20.2344 215.084 19.5573C214.364 18.8836 213.522 18.3545 212.602 17.9988C210.581 17.2546 208.361 17.2546 206.34 17.9988C205.411 18.3534 204.559 18.8824 203.829 19.5573C203.108 20.2344 202.535 21.0532 202.145 21.9623C201.739 22.9377 201.53 23.984 201.53 25.0407C201.53 26.0974 201.739 27.1436 202.145 28.1191C202.54 29.0196 203.113 29.831 203.829 30.5048C204.559 31.1769 205.411 31.7026 206.34 32.0537C207.341 32.434 208.405 32.6232 209.476 32.6116" fill="#EA0029"/>
<path d="M232.035 32.6309C233.032 32.6829 234.017 32.3909 234.825 31.8036C235.17 31.5456 235.447 31.2078 235.633 30.8191C235.819 30.4304 235.908 30.0024 235.892 29.5717C235.904 29.1869 235.822 28.805 235.655 28.4584C235.487 28.1118 235.239 27.8106 234.93 27.5804C234.183 27.0492 233.277 26.788 232.362 26.8397C231.712 26.8282 231.063 26.9125 230.438 27.0898C230.009 27.2073 229.6 27.3889 229.226 27.6285L228.331 23.5977L232.756 18.0566H225.628V12.1499H240.058V16.3538L235.69 21.7603C236.359 21.9302 237.005 22.1789 237.614 22.501C238.338 22.8614 238.99 23.3504 239.538 23.944C240.159 24.6174 240.642 25.4048 240.962 26.2625C241.361 27.3457 241.55 28.4948 241.52 29.6487C241.528 30.8323 241.302 32.0058 240.856 33.1023C240.417 34.1678 239.762 35.1309 238.932 35.9306C238.071 36.7625 237.055 37.4163 235.94 37.8546C234.696 38.3393 233.37 38.5778 232.035 38.5568C231.061 38.5676 230.091 38.4479 229.149 38.2009C228.35 37.9893 227.586 37.6654 226.878 37.2389C226.279 36.8831 225.735 36.4424 225.262 35.9306C224.852 35.5013 224.525 34.9988 224.3 34.4491L225.599 29.7064C226.317 30.5367 227.181 31.228 228.148 31.7459C229.338 32.3502 230.663 32.6415 231.996 32.5924" fill="#EA0029"/>
<path d="M252.439 12.5058C255.79 11.1719 259.525 11.1719 262.876 12.5058C264.489 13.1423 265.963 14.0865 267.215 15.286C268.473 16.5017 269.474 17.9574 270.159 19.5669C270.906 21.2847 271.289 23.1386 271.284 25.0118C271.309 26.8915 270.942 28.7557 270.207 30.4856C269.517 32.0868 268.516 33.5352 267.263 34.7473C265.996 35.9485 264.505 36.8898 262.876 37.5178C259.522 38.8391 255.792 38.8391 252.439 37.5178C250.826 36.8814 249.352 35.9371 248.1 34.7376C246.847 33.5256 245.846 32.0771 245.156 30.476C244.422 28.7491 244.055 26.8882 244.079 25.0118C244.057 23.1387 244.424 21.2816 245.156 19.5573C245.841 17.9477 246.842 16.492 248.1 15.2764C249.353 14.0804 250.826 13.1394 252.439 12.5058ZM257.662 32.602C258.727 32.6112 259.784 32.422 260.779 32.044C261.715 31.6967 262.574 31.1707 263.309 30.4952C264.025 29.8214 264.598 29.01 264.993 28.1095C265.399 27.134 265.608 26.0878 265.608 25.0311C265.608 23.9743 265.399 22.9281 264.993 21.9527C264.603 21.0435 264.03 20.2247 263.309 19.5477C262.575 18.8687 261.716 18.3394 260.779 17.9892C258.758 17.245 256.538 17.245 254.516 17.9892C253.601 18.351 252.762 18.8831 252.044 19.5573C251.323 20.2344 250.75 21.0532 250.361 21.9623C249.954 22.9377 249.745 23.984 249.745 25.0407C249.745 26.0974 249.954 27.1436 250.361 28.1191C250.755 29.0196 251.328 29.831 252.044 30.5048C252.774 31.1769 253.627 31.7026 254.555 32.0537C255.559 32.4349 256.626 32.6242 257.701 32.6116" fill="#EA0029"/>
<path d="M284.916 7.77295H279.76L273.814 18.076H278.961L284.916 7.77295Z" fill="#EA0029"/>
<path d="M279.759 7.77295H284.916L290.87 18.076H285.714L279.759 7.77295Z" fill="#EA0029"/>
</g>
<defs>
<clipPath id="clip0">
<rect width="311.804" height="80" fill="white"/>
</clipPath>
</defs>
</svg>
