<svg viewBox="0 0 229 61" fill="none" xmlns="http://www.w3.org/2000/svg"><path d="M88.35 14.77h-2.5V2.54h2.5l3.6 5.02 3.46-5.02h2.5v12.23h-2.5V6.3l-2.82 4.08h-1.41l-2.83-3.92v8.3zM102.93 14.77h-2.2V2.54h2.52v8l5.95-8h2.2v12.23h-2.51v-8l-5.96 8zM116.89 14.77h-2.51V2.54h2.5V7.1h5.5V2.54h2.5v12.23h-2.5V9.44h-5.5v5.33zM127.23 8.65c0-1.88.63-3.29 1.88-4.54a6.03 6.03 0 014.55-1.88c1.88 0 3.3.62 4.55 1.88a6.28 6.28 0 011.88 4.54c0 1.73-.63 3.3-1.88 4.55a6.03 6.03 0 01-4.55 1.88c-1.88 0-3.3-.63-4.55-1.88a6.28 6.28 0 01-1.88-4.55zm3.6 2.83c.8.78 1.57 1.1 2.67 1.1 1.1 0 2.04-.32 2.67-1.1a3.78 3.78 0 001.1-2.83c0-1.1-.32-2.19-1.1-2.82a3.44 3.44 0 00-2.67-1.1c-1.1 0-2.04.32-2.66 1.1a3.78 3.78 0 00-1.1 2.82c0 1.1.31 2.04 1.1 2.83zM147.46 14.77h-5.34V2.54h8.94v2.2h-6.43v2.03h2.83c1.4 0 2.5.32 3.44 1.1a4.01 4.01 0 011.26 2.98c0 1.25-.47 2.2-1.26 2.98-.78.63-1.88.94-3.44.94zm-2.67-5.96v3.76h2.5c.8 0 1.26-.15 1.73-.47.47-.31.63-.78.63-1.4 0-.63-.16-1.1-.63-1.42a2.82 2.82 0 00-1.72-.47h-2.51zM156.86 14.77h-2.5V2.54h5.32c1.25 0 2.35.31 3.14 1.1.78.63 1.1 1.57 1.1 2.66 0 1.1-.32 2.04-1.1 2.67a5.05 5.05 0 01-3.14 1.1h-2.82v4.7zm0-10.03V7.7h2.66c.63 0 1.1-.15 1.41-.47.32-.31.47-.62.47-1.1 0-.46-.15-.93-.47-1.1-.3-.15-.78-.46-1.4-.46l-2.67.16zM168.46 14.77h-2.5V2.54h2.5V7.1h5.49V2.54h2.5v12.23h-2.5V9.44h-5.49v5.33zM181 14.77h-2.66l5.33-12.39h2.35l5.33 12.39h-2.67l-1.25-2.82h-5.18L181 14.77zm3.76-9.25l-1.88 4.23h3.6l-1.72-4.23zM194.95 15.08c-.78 0-1.4-.15-1.88-.31v-2.2c.47.16.94.32 1.41.32s.94-.16 1.26-.32c.3-.15.62-.62.94-1.4l-4.7-8.63h2.81l3.14 6.11 2.67-6.1h2.66l-4.55 9.55c-.78 1.88-2.19 2.98-3.76 2.98zM207.65 14.77h-2.5V2.54h2.5V7.4l4.55-4.86h3.13l-5.17 5.64 6.11 6.59h-3.29l-5.33-5.64v5.64zM219.88 14.77h-2.04V2.54h2.5v8l5.97-8h2.2v12.23h-2.52v-8l-6.11 8zM88.35 34.52h-2.5V22.29h5.33c1.25 0 2.35.32 3.13 1.1.78.63 1.1 1.57 1.1 2.66 0 1.1-.32 2.04-1.1 2.67a5.05 5.05 0 01-3.13 1.1h-2.83v4.7zm0-10.03v2.98h2.67c.63 0 1.1-.16 1.41-.47.31-.32.47-.63.47-1.1 0-.47-.16-.94-.47-1.1a3.13 3.13 0 00-1.41-.31h-2.67zM97.13 28.4c0-1.87.63-3.28 1.88-4.54a6.03 6.03 0 014.55-1.88c1.88 0 3.3.63 4.55 1.88a6.28 6.28 0 011.88 4.55c0 1.72-.63 3.29-1.88 4.54a6.03 6.03 0 01-4.55 1.88c-1.88 0-3.3-.62-4.55-1.88a6.28 6.28 0 01-1.88-4.54zm3.6 2.83c.8.78 1.58 1.1 2.67 1.1 1.1 0 2.04-.32 2.67-1.1a3.78 3.78 0 001.1-2.82c0-1.1-.32-2.2-1.1-2.82a3.44 3.44 0 00-2.67-1.1c-1.1 0-2.03.31-2.66 1.1a3.78 3.78 0 00-1.1 2.82c0 1.1.47 2.04 1.1 2.82z" fill="#343434"/><path d="M87.18 59.35H86V48.2h8.75v11.16h-1.18V49.26h-6.39v10.1zM99.08 59.35H97.9V48.2h4.68c1.1 0 1.98.28 2.62.85.64.56.95 1.3.95 2.24 0 .96-.31 1.73-.95 2.3a3.8 3.8 0 01-2.62.85h-3.5v4.92zm0-10.09v4.1h3.42c.79 0 1.4-.18 1.84-.53.43-.36.65-.87.65-1.51 0-.66-.22-1.17-.65-1.52a2.75 2.75 0 00-1.84-.54h-3.42zM109.49 59.35h-1V48.2h1.17v9.19l6.94-9.19h1.04v11.16h-1.17v-9.21l-6.98 9.21zM121.9 49.66a5.37 5.37 0 014.02-1.66c1.6 0 2.93.55 4 1.66a5.67 5.67 0 011.61 4.11 5.7 5.7 0 01-1.6 4.13 5.35 5.35 0 01-4.01 1.64 5.36 5.36 0 01-4.02-1.64 5.69 5.69 0 01-1.6-4.13c0-1.65.54-3.02 1.6-4.11zm.88 7.44c.84.9 1.89 1.34 3.14 1.34 1.25 0 2.3-.44 3.14-1.34a4.68 4.68 0 001.28-3.33c0-1.32-.43-2.43-1.28-3.33a4.14 4.14 0 00-3.14-1.34c-1.25 0-2.3.45-3.14 1.34a4.68 4.68 0 00-1.28 3.33c0 1.32.43 2.43 1.28 3.33zM135.42 59.35h-1.18V48.2h4.69c1.1 0 1.97.28 2.61.85.64.56.96 1.3.96 2.24 0 .96-.32 1.73-.96 2.3-.64.56-1.5.85-2.61.85h-3.51v4.92zm0-10.09v4.1h3.43c.78 0 1.4-.18 1.83-.53.44-.36.65-.87.65-1.51 0-.66-.22-1.17-.65-1.52a2.75 2.75 0 00-1.83-.54h-3.43zM145.83 59.35h-.99V48.2H146v9.19l6.94-9.19h1.04v11.16h-1.17v-9.21l-6.98 9.21zM161.13 59.35h-1.18V49.26h-3.84v-1.07h8.9v1.07h-3.88v10.1zM175.05 59.35h-7.9V48.2h7.66v1.07h-6.48v3.57h5.31v1.07h-5.3v4.38h6.7v1.07zM181.37 59.35h-1.18V49.26h-3.84v-1.07h8.91v1.07h-3.89v10.1zM197.53 59.35h-7.6v-.87l3.76-3.6a13.4 13.4 0 001.74-1.89c.34-.5.51-1.06.51-1.67a2 2 0 00-.7-1.6 2.66 2.66 0 00-1.84-.62 4.4 4.4 0 00-3.22 1.5v-1.32a4.82 4.82 0 013.34-1.28c1.03 0 1.88.3 2.56.88a2.9 2.9 0 011.04 2.3c0 .74-.19 1.42-.56 2.03-.37.61-1 1.34-1.91 2.19l-3 2.88h5.88v1.07zM199.47 53.77c0-1.64.42-3 1.26-4.1a3.98 3.98 0 013.31-1.67c1.35 0 2.45.55 3.3 1.66a6.56 6.56 0 011.26 4.11c0 1.65-.42 3.02-1.26 4.12a3.98 3.98 0 01-3.3 1.65 4 4 0 01-3.31-1.65 6.56 6.56 0 01-1.26-4.12zm7.97 0c0-1.33-.32-2.44-.96-3.33a2.89 2.89 0 00-4.88 0c-.63.9-.95 2-.95 3.33s.31 2.45.94 3.35a2.91 2.91 0 004.9 0c.63-.9.95-2 .95-3.35zM213.6 59.54a6 6 0 01-3.26-.8v-1.24c.9.63 1.97.94 3.19.94.84 0 1.57-.23 2.2-.7a2.3 2.3 0 00.94-1.93c0-.76-.28-1.37-.83-1.83a3.25 3.25 0 00-2.2-.7c-.44 0-.86.05-1.24.16v-.82l3.44-3.36h-5.04v-1.07h6.64v.88l-3.34 3.27c.98.02 1.85.35 2.6.99a3.08 3.08 0 011.15 2.48c0 1.1-.4 2-1.23 2.7a4.54 4.54 0 01-3.03 1.03zM219.86 53.77c0-1.64.42-3 1.26-4.1a3.98 3.98 0 013.32-1.67c1.35 0 2.45.55 3.3 1.66a6.56 6.56 0 011.26 4.11c0 1.65-.42 3.02-1.26 4.12a3.98 3.98 0 01-3.3 1.65 4 4 0 01-3.32-1.65 6.56 6.56 0 01-1.26-4.12zm7.98 0c0-1.33-.32-2.44-.96-3.33a2.89 2.89 0 00-4.88 0c-.64.9-.96 2-.96 3.33s.32 2.45.95 3.35a2.91 2.91 0 004.89 0c.64-.9.96-2 .96-3.35z" fill="#344887"/><path d="M118.45 34.83a6.94 6.94 0 01-4.7-1.72 6.28 6.28 0 01-1.88-4.55 5.8 5.8 0 011.88-4.54c1.25-1.26 2.82-1.73 4.7-1.73 1.26 0 2.35.32 3.3.79v2.5a5.8 5.8 0 00-3.3-.94c-1.1 0-2.2.32-2.98 1.1a3.78 3.78 0 00-1.1 2.82c0 1.1.48 2.2 1.26 2.82a3.9 3.9 0 002.98 1.1c1.41 0 2.5-.31 3.45-1.1v2.51c-1.1.63-2.2.94-3.6.94zM130.21 34.83a6.94 6.94 0 01-4.7-1.72 6.28 6.28 0 01-1.88-4.55 5.8 5.8 0 011.88-4.54c1.25-1.26 2.82-1.73 4.7-1.73 1.25 0 2.35.32 3.3.79v2.5a5.8 5.8 0 00-3.3-.94c-1.1 0-2.2.32-2.98 1.1a3.78 3.78 0 00-1.1 2.82c0 1.1.47 2.2 1.26 2.82a3.9 3.9 0 002.98 1.1c1.4 0 2.5-.31 3.45-1.1v2.51c-1.1.63-2.2.94-3.61.94zM138.2 34.52h-2.19V22.29h2.5v8l5.97-8h2.19v12.23h-2.5v-8l-5.97 8zM151.69 34.52h-2.2V22.29H152v8l5.96-8h2.2v12.23h-2.51v-8l-5.96 8z" fill="#343434"/><path d="M42.42 29.16c0-.16.16-.32.32-.32h.31a5 5 0 003.92-4.23c0-1.1-.31-2.2-.94-2.82-.16-.16-.16-.47.16-.47.15 0 .15-.16.15-.16C52.46 17.1 57.16 9.1 57.63 8.31h.16c1.72 1.4 2.03 4.07.47 6.43-1.1 1.56-3.6 3.44-6.43 5.01v.94a16.45 16.45 0 009.25-5.95h.16a4.51 4.51 0 01-1.42 6.11c-1.72 1.1-4.7 1.72-8.15 2.2 0 .3-.15.62-.15.93 5.48.79 9.56-1.4 10.34-1.72h.16c.47 2.5-.78 4.7-3.3 5.17-2.5.47-7.83-.94-7.83-.94-.16.32-.16.63-.31.79 3.6 2.5 8.62 2.2 9.4 2.03 0 0 .16 0 .16.16.15 3.14-2.35 3.92-4.55 3.6-1.88-.3-4.54-1.87-6.27-3.6-.16.32-.47.47-.63.63 1.73 3.6 5.96 5.17 7.37 5.33 0 0 .16.16 0 .16-.94 2.03-2.98 2.82-5.33 1.25-1.4-.78-2.98-2.98-3.92-5.33-.31.16-.47.31-.78.47.47 4.39 3.92 7.37 4.55 7.84v.31c-1.1 1.73-3.77 1.73-5.18-.63-.78-1.4-1.4-4.07-1.57-6.9-.3 0-.62 0-.94.16a.34.34 0 01-.3-.31v-3.3h-.17zM19.7 29.16a.34.34 0 00-.32-.32h-.31c-1.89-.47-3.77-2.19-3.92-4.23 0-1.1.31-2.2.94-2.82.15-.16.15-.47-.16-.47-.16 0-.16-.16-.16-.16C9.66 17.1 4.96 9.1 4.5 8.31h-.16c-1.72 1.25-2.04 4.07-.47 6.43 1.1 1.56 3.6 3.44 6.43 5.01v.94a16.45 16.45 0 01-9.25-5.95H.88a4.51 4.51 0 001.41 6.11c1.73 1.1 4.7 1.72 8.15 2.2 0 .3.16.62.16.93-5.49.79-9.56-1.4-10.35-1.72H.1c-.47 2.5.78 4.7 3.29 5.17 2.5.47 7.84-.94 7.84-.94.15.32.15.63.31.79-3.6 2.5-8.62 2.2-9.4 2.03 0 0-.16 0-.16.16-.16 3.14 2.35 3.92 4.54 3.6 1.89-.3 4.55-1.87 6.28-3.6.15.32.47.47.62.63-1.72 3.6-5.95 5.17-7.37 5.33 0 0-.15.16 0 .16.94 2.03 2.98 2.82 5.33 1.25 1.42-.78 2.98-2.98 3.92-5.33.32.16.47.31.79.47-.47 4.39-3.92 7.37-4.55 7.84v.31c1.1 1.73 3.76 1.73 5.17-.63.79-1.4 1.42-4.07 1.57-6.9.32 0 .63 0 .94.16.16 0 .32-.15.32-.31l.15-3.3zM19.38 10.03h4.07c3.45 0 5.18-2.2 5.65-4.07h3.6c.47 1.88 2.04 4.07 5.65 4.07h4.23s.78-.94.94-1.4c.63-1.73-.16-2.67-1.41-2.67l-1.57 1.4-1.57-1.4c-1.25 0-2.03.78-1.4 2.66.15.16.3.63.46.79-1.4-.16-3.45-1.26-3.76-3.45 0 0 1.1-1.73 1.41-2.51C36.47 1.1 35.21 0 33.33 0l-2.35 2.82L28.48 0c-1.89 0-3.14 1.1-2.2 3.6.31.79 1.4 2.51 1.4 2.51-.46 2.2-2.34 3.14-3.75 3.45.15-.31.47-.62.47-.78.62-1.73-.16-2.67-1.42-2.67l-1.56 1.41-1.57-1.4c-1.25 0-2.04.78-1.41 2.66.16.31.94 1.25.94 1.25zM26.12 21.79h3.92c.16 0 .31-.16.31-.31-.78-3.14-2.35-5.65-4.07-7.06 1.25-.63 2.66-2.35 2.66-3.29-4.23 1.57-12.38-.78-13.17 2.66-.15.79.16 1.89.63 2.2 0-.31.47-1.1 1.57-1.25 3.76-.63 7.21 3.13 7.84 6.74.15.15.15.31.31.31zM46.19 13.8c-.79-3.61-9.1-1.26-13.17-2.67-.16 1.1 1.25 2.66 2.66 3.3-1.56 1.4-3.13 3.91-4.07 7.05 0 .15.15.31.31.31h3.92c.16 0 .31-.16.31-.16.63-3.6 4.08-7.2 7.84-6.74 1.1.16 1.57.94 1.57 1.26a5.2 5.2 0 00.63-2.36zM35.84 26.65c-2.2-.63-4.86-.63-4.86-.63s-2.67 0-4.86.63c-2.35.78-4.7-.47-5.49-.94-.15-.16-.31 0-.31.16.16 1.1 1.1 3.6 4.86 4.54 3.6.79 5.17 4.86 5.64 6.59 0 .15.32.15.47 0 .47-1.73 2.2-5.65 5.65-6.59 3.76-.94 4.7-3.45 4.86-4.54 0-.16-.16-.32-.32-.16a6.75 6.75 0 01-5.64.94z" fill="#344887"/><path d="M34.59 33.86c.15.16.47.31.78.31a1.4 1.4 0 001.41-1.4c0-.16 0-.32-.16-.48a5.1 5.1 0 00-2.03 1.57z" fill="#344887"/><path d="M38.2 31.67c.15.3.3.62.3 1.1a3.14 3.14 0 01-3.13 3.13c-.63 0-1.25-.16-1.72-.63-.32.63-.63 1.26-.79 1.73.79.47 1.57.78 2.51.78 2.66 0 4.86-2.2 4.86-4.86 0-.63-.16-1.25-.47-1.88-.31.31-.94.47-1.57.63zM28.31 35.43c-.47.31-1.1.47-1.72.47a3.14 3.14 0 01-3.14-3.14c0-.31.16-.78.32-1.1a5.8 5.8 0 01-1.73-.78 4.17 4.17 0 00-.47 1.88c0 2.67 2.2 4.86 4.86 4.86.94 0 1.73-.31 2.51-.78 0-.31-.31-.78-.63-1.41z" fill="#344887"/><path d="M25.34 32.3c0 .15-.16.3-.16.46 0 .79.63 1.41 1.41 1.41.31 0 .63-.15.78-.31a4.2 4.2 0 00-2.03-1.57z" fill="#344887"/><path fill-rule="evenodd" clip-rule="evenodd" d="M54.65 4.55c.16 0 .16 0 0 0-1.72-.94-1.25-2.04-2.2-2.98-1.1-.94-2.66-.94-2.97-1.1-1.88-.16-2.35.16-2.51.31a4.4 4.4 0 00-1.25 2.2c-.32 1.25-.16 1.72.15 1.88h.16c.16.16.94-.16.94-.16.47.16 1.25.47 1.1 2.2-.16 2.2-3.3 2.66-4.24 2.82l-.15.31c1.4 0 5.48-.47 5.95-2.5.63-2.04-.3-2.83-.3-2.83-.32-.31-1.42-.31-2.05-.15 0 0-.47-.47 0-1.57.63-1.88.94-1.88 2.35-1.73.16 0 .32 0 .47.16.95.63.79 1.88 1.1 2.82.63 2.82 2.2 2.82 3.3 3.14.15 0 .15-.16.15-.16-.78-.63-1.72-1.57-1.57-2.5 0 0 .16-.16.16 0 0-.16.63.15 1.41-.16zM7.15 4.55c-.16 0-.16 0 0 0 1.57-.94 1.1-1.88 2.2-2.82C10.45.78 12 .78 12.32.63c1.89-.16 2.36.15 2.51.31.32.31.94.94 1.26 2.2.31 1.25.15 1.72-.16 1.88h-.16c-.15 0-.94-.32-.94-.32-.47.16-1.25.47-1.1 2.2.32 2.35 3.45 2.82 4.24 2.82l.16.31c-1.42 0-5.5-.47-5.96-2.5-.63-2.04.31-2.83.31-2.83.32-.31 1.41-.31 2.04-.15 0 0 .47-.47 0-1.57-.47-2.04-.78-1.88-2.2-1.88-.15 0-.3 0-.47.15-.94.63-.78 1.89-.94 2.67-.62 2.82-2.2 2.82-3.29 3.13-.15 0-.15-.15-.15-.15.78-.63 1.72-1.57 1.56-2.51 0 0-.15-.16-.15 0-.16.16-.94.47-1.73.16z" fill="#344887"/><path d="M48.85 46.56l-1.88 1.57-1.88-1.41c-.79.3-1.26 1.1-1.41 1.88-1.1.15-4.08-.47-3.77-.94 3.3-4.55.79-7.37-2.19-7.22a9.93 9.93 0 01-2.66 2.2c-2.51 1.25-3.61 2.2-4.08 2.5-.31-.3-1.57-1.25-4.08-2.5a6.46 6.46 0 01-2.66-2.2c-2.98 0-5.33 2.67-2.04 7.22.31.47-2.82 1.1-4.23.94-.32-.47-.94-.63-1.57-.63-.31 0-.47 0-.78.16l-5.8-5.5v-.15c.31-.62-.16-1.25-.47-1.25.3-.47.3-2.35-1.73-2.82 0 .31.16 1.25.16 1.25s-1.57-.78-2.35-.16c-.63.79.31 2.36.31 2.36H4.49c.62 2.03 2.5 1.88 2.97 1.4 0 .32.63.79 1.26.48l.31-.16 5.65 5.33c-.32.31-.32.78-.32 1.41.16.78.79 1.41 1.57 1.57.63.16 1.1 0 1.57-.32L18.9 53c.17.15.32.15.48.15.31 0 .63-.31.63-.62 0-.16-.16-.32-.16-.32l-1.57-1.4a11.18 11.18 0 015.33-1.42c.31 0 .47-.31.31-.63-.78-2.03.95-3.6 2.83-2.35.47.32.78.63 1.25 1.57-1.72.78-5.02 4.08-5.17 4.86.62 2.04 2.35 2.82 2.35 2.82-.47-.94-.31-2.98 2.5-4.39-1.72 1.73-2.34 3.3-1.87 4.7a3.01 3.01 0 002.82 1.89c-.79-2.2-.47-4.24 1.1-5.8-.63 1.72-1.57 7.05 1.1 7.99 2.5-.94 1.72-6.27 1.09-8 1.41 1.57 1.72 3.61 1.1 5.8.94 0 2.35-.62 2.82-1.88.47-1.4-.16-2.97-1.88-4.7 2.82 1.41 2.98 3.45 2.5 4.4 0 0 1.89-.64 2.36-2.83-.16-.78-3.3-3.92-5.02-4.7.47-.94.78-1.26 1.26-1.57 1.88-1.26 3.76.31 2.82 2.35-.16.31 0 .63.31.63 2.2 0 4.7.78 5.8 1.88a3.95 3.95 0 003.3 1.57 3.33 3.33 0 002.97-2.83 3.45 3.45 0 00-1.41-3.6z" fill="#344887"/><path d="M48.22 45.46l-1.25-1.41-1.25 1.41 1.25 1.1 1.25-1.1z" fill="#344887"/></svg>
