<svg width="380" height="96" viewBox="0 0 380 96" fill="none" xmlns="http://www.w3.org/2000/svg">
<path d="M24.0592 4.4104V30.3905H17.6527V11.2247H6.40648V30.3905H0V4.4104H24.0592Z" fill="#001B71"/>
<path d="M56.2311 11.8256C56.9501 13.5104 57.3149 15.3562 57.3149 17.3736C57.3149 19.3911 56.9501 21.2368 56.2311 22.9216C55.5121 24.6064 54.5463 26.0444 53.3337 27.257C52.1211 28.4696 50.726 29.4139 49.1486 30.0793C47.5711 30.7553 45.9185 31.088 44.2015 31.088C42.2806 31.088 40.6495 30.7553 39.2866 30.1007C37.9238 29.4461 37.0224 28.6306 36.5931 27.654V41.1216H30.1866V4.4104H36.3892V7.13611C36.8292 6.15958 37.7414 5.34401 39.1364 4.68941C40.5315 4.03481 42.184 3.70215 44.1049 3.70215C45.8541 3.70215 47.5282 4.03481 49.1271 4.68941C50.726 5.34401 52.1318 6.27762 53.3337 7.49024C54.5463 8.70285 55.5121 10.1516 56.2311 11.8256ZM50.3075 20.1744C50.6724 19.3159 50.8655 18.3823 50.8655 17.3736C50.8655 16.3649 50.6831 15.442 50.3075 14.5942C49.9319 13.7572 49.4276 13.0275 48.773 12.4266C48.1184 11.8256 47.3243 11.3534 46.4014 11.01C45.4785 10.6774 44.4591 10.5057 43.3537 10.5057C41.7441 10.5057 40.3061 10.8383 39.072 11.4929C37.8272 12.1475 37.0009 12.9631 36.6039 13.9396V20.8505C37.0116 21.827 37.8272 22.6426 39.072 23.2972C40.3168 23.9518 41.7441 24.2845 43.3537 24.2845C44.4591 24.2845 45.4785 24.1128 46.4014 23.7801C47.3243 23.4474 48.1184 22.9753 48.773 22.3636C49.4276 21.7626 49.9427 21.0329 50.3075 20.1744Z" fill="#001B71"/>
<path d="M68.1641 4.4104V20.0027L79.9147 4.4104H86.3212V30.3905H80.0113V14.8089L68.2607 30.3905H61.8542V4.4104H68.1641Z" fill="#001B71"/>
<path d="M118.3 17.4273C118.3 19.4125 117.924 21.2368 117.195 22.9001C116.454 24.5635 115.456 26.0014 114.19 27.2141C112.924 28.4267 111.475 29.371 109.822 30.0578C108.17 30.7446 106.431 31.088 104.575 31.088C102.729 31.088 100.98 30.7446 99.3273 30.0578C97.6748 29.371 96.2261 28.4159 94.9598 27.2141C93.7042 26.0014 92.6955 24.5635 91.9551 22.9001C91.2146 21.2368 90.8498 19.4125 90.8498 17.4273C90.8498 15.4742 91.2254 13.6606 91.9551 11.9758C92.6955 10.2911 93.6935 8.84236 94.9598 7.60828C96.2261 6.38493 97.6748 5.41913 99.3273 4.73234C100.969 4.04554 102.718 3.70215 104.575 3.70215C106.421 3.70215 108.17 4.04554 109.822 4.73234C111.475 5.41913 112.924 6.38493 114.19 7.60828C115.446 8.83163 116.454 10.2911 117.195 11.9758C117.924 13.6606 118.3 15.4742 118.3 17.4273ZM97.8679 14.6264C97.4923 15.4849 97.3099 16.4185 97.3099 17.4273C97.3099 18.436 97.4923 19.3589 97.8679 20.2066C98.2328 21.0437 98.7479 21.7734 99.4025 22.3743C100.057 22.9753 100.83 23.4474 101.72 23.7908C102.611 24.1235 103.555 24.2952 104.564 24.2952C105.573 24.2952 106.517 24.1235 107.386 23.7908C108.256 23.4582 109.028 22.986 109.683 22.3743C110.337 21.7734 110.863 21.0437 111.25 20.2066C111.636 19.3696 111.829 18.436 111.829 17.4273C111.829 16.4185 111.636 15.4849 111.25 14.6264C110.863 13.7679 110.337 13.0382 109.683 12.4373C109.028 11.8363 108.266 11.3642 107.386 11.0208C106.506 10.6881 105.573 10.5164 104.564 10.5164C103.555 10.5164 102.6 10.6881 101.72 11.0208C100.83 11.3534 100.057 11.8256 99.4025 12.4373C98.7479 13.0382 98.2328 13.7679 97.8679 14.6264Z" fill="#001B71"/>
<path d="M148.776 11.8256C149.495 13.5104 149.86 15.3562 149.86 17.3736C149.86 19.3911 149.495 21.2368 148.776 22.9216C148.057 24.6064 147.092 26.0444 145.879 27.257C144.666 28.4696 143.271 29.4139 141.694 30.0793C140.116 30.7553 138.464 31.088 136.747 31.088C134.826 31.088 133.195 30.7553 131.832 30.1007C130.469 29.4461 129.568 28.6306 129.138 27.654V41.1216H122.732V4.4104H128.935V7.13611C129.375 6.15958 130.287 5.34401 131.682 4.68941C133.077 4.03481 134.729 3.70215 136.65 3.70215C138.399 3.70215 140.073 4.03481 141.672 4.68941C143.271 5.34401 144.677 6.27762 145.879 7.49024C147.081 8.70285 148.047 10.1516 148.776 11.8256ZM142.842 20.1744C143.207 19.3159 143.4 18.3823 143.4 17.3736C143.4 16.3649 143.218 15.442 142.842 14.5942C142.466 13.7572 141.962 13.0275 141.308 12.4266C140.653 11.8256 139.859 11.3534 138.936 11.01C138.013 10.6774 136.994 10.5057 135.888 10.5057C134.279 10.5057 132.841 10.8383 131.607 11.4929C130.362 12.1475 129.535 12.9631 129.138 13.9396V20.8505C129.546 21.827 130.362 22.6426 131.607 23.2972C132.851 23.9518 134.279 24.2845 135.888 24.2845C136.994 24.2845 138.013 24.1128 138.936 23.7801C139.859 23.4474 140.653 22.9753 141.308 22.3636C141.962 21.7519 142.477 21.0329 142.842 20.1744Z" fill="#001B71"/>
<path d="M160.688 4.4104V20.0027L172.439 4.4104H178.845V30.3905H172.535V14.8089L160.785 30.3905H154.378V4.4104H160.688Z" fill="#001B71"/>
<path d="M205.555 11.2247H197.528V30.3905H191.121V11.2247H183.105V4.4104H205.555V11.2247Z" fill="#001B71"/>
<path d="M222.553 24.6388C224.163 24.6388 225.719 24.3491 227.189 23.7589C228.67 23.1687 229.775 22.3853 230.515 21.4088L232.479 26.3558C231.674 27.6972 230.387 28.824 228.616 29.7361C226.845 30.6483 224.753 31.099 222.338 31.099C220.353 31.099 218.518 30.777 216.812 30.1439C215.116 29.5 213.646 28.5986 212.401 27.4182C211.156 26.2378 210.18 24.8105 209.472 23.1365C208.763 21.4517 208.409 19.5523 208.409 17.4382C208.409 15.5925 208.72 13.8433 209.343 12.1907C209.965 10.5489 210.856 9.08943 212.015 7.82316C213.174 6.56761 214.569 5.55889 216.2 4.81844C217.831 4.07799 219.666 3.71313 221.727 3.71313C223.647 3.71313 225.386 4.08872 226.942 4.85063C228.509 5.60181 229.839 6.61054 230.923 7.87681C232.018 9.14309 232.865 10.5918 233.466 12.2444C234.067 13.897 234.379 15.6247 234.379 17.4382C234.379 17.8138 234.368 18.2002 234.357 18.6187C234.336 19.0372 234.293 19.402 234.228 19.7025H214.966C215.266 21.4195 216.103 22.675 217.488 23.4584C218.883 24.2418 220.568 24.6388 222.553 24.6388ZM227.854 14.455C227.65 13.0814 226.974 12.0298 225.837 11.3C224.688 10.5811 223.326 10.2162 221.748 10.2162C220.171 10.2162 218.754 10.5811 217.509 11.3C216.264 12.0298 215.513 13.0707 215.245 14.455H227.854Z" fill="#001B71"/>
<path d="M259.736 11.2247H251.709V30.3905H245.314V11.2247H237.287V4.4104H259.736V11.2247Z" fill="#001B71"/>
<path d="M272.227 9.73312C271.594 9.73312 271.015 9.8297 270.489 10.0229C269.952 10.216 269.469 10.4736 269.04 10.7848C268.611 11.096 268.214 11.4608 267.86 11.8686C267.506 12.2764 267.205 12.7164 266.937 13.1778L264.651 9.26095C264.844 8.50977 265.177 7.80152 265.649 7.13619C266.121 6.47086 266.701 5.89138 267.388 5.39774C268.074 4.90411 268.868 4.50706 269.77 4.21732C270.661 3.92758 271.637 3.77734 272.678 3.77734C274.03 3.77734 275.232 3.98124 276.273 4.38902C277.314 4.7968 278.183 5.36555 278.891 6.09527C279.589 6.82498 280.125 7.67274 280.49 8.63855C280.855 9.60435 281.038 10.6453 281.038 11.7613C281.038 12.7056 280.93 13.5749 280.716 14.3582C280.501 15.1416 280.179 15.9143 279.75 16.6654C279.321 17.4166 278.795 18.1785 278.172 18.9512C277.539 19.7238 276.82 20.5716 275.994 21.4944L273.386 24.4348H281.553V30.3905H264.855V25.7762L272.292 17.6849C272.818 17.1054 273.279 16.601 273.665 16.1611C274.052 15.7211 274.374 15.3133 274.631 14.9055C274.889 14.4977 275.082 14.1222 275.211 13.7466C275.339 13.371 275.414 12.9525 275.414 12.491C275.414 11.7184 275.125 11.0638 274.556 10.5272C273.966 10.0014 273.204 9.73312 272.227 9.73312Z" fill="#EA0029"/>
<path d="M292.595 4.77534C294.258 4.11001 296.007 3.77734 297.864 3.77734C299.71 3.77734 301.459 4.11001 303.133 4.77534C304.796 5.44067 306.256 6.37428 307.5 7.57616C308.756 8.77805 309.743 10.216 310.473 11.8901C311.203 13.5641 311.568 15.3992 311.568 17.3951C311.568 19.4126 311.203 21.2476 310.473 22.9109C309.743 24.5743 308.756 26.0122 307.5 27.2141C306.245 28.416 304.796 29.3496 303.133 30.015C301.47 30.6803 299.71 31.0129 297.864 31.0129C296.018 31.0129 294.258 30.6803 292.595 30.015C290.932 29.3496 289.472 28.416 288.227 27.2141C286.972 26.0122 285.985 24.5743 285.255 22.9109C284.525 21.2476 284.16 19.4126 284.16 17.3951C284.16 15.3992 284.525 13.5641 285.255 11.8901C285.985 10.216 286.972 8.77805 288.227 7.57616C289.472 6.38501 290.932 5.4514 292.595 4.77534ZM297.864 25.0572C298.98 25.0572 300.032 24.8747 301.019 24.4884C302.006 24.1128 302.854 23.587 303.573 22.9217C304.292 22.2563 304.85 21.4515 305.268 20.5179C305.676 19.5843 305.891 18.5434 305.891 17.4059C305.891 16.2898 305.687 15.2597 305.268 14.3046C304.85 13.3602 304.292 12.5554 303.573 11.8793C302.854 11.214 302.006 10.6882 301.019 10.3126C300.032 9.93701 298.98 9.74385 297.864 9.74385C296.726 9.74385 295.664 9.93701 294.698 10.3126C293.732 10.6882 292.885 11.214 292.166 11.8793C291.447 12.5447 290.878 13.3602 290.47 14.3046C290.062 15.2489 289.848 16.2898 289.848 17.4059C289.848 18.5541 290.052 19.5843 290.47 20.5179C290.878 21.4515 291.447 22.2563 292.166 22.9217C292.885 23.587 293.722 24.1128 294.698 24.4884C295.664 24.864 296.716 25.0572 297.864 25.0572Z" fill="#EA0029"/>
<path d="M320.657 25.0786C321.816 25.0786 322.76 24.7995 323.468 24.2415C324.187 23.6835 324.542 22.9323 324.542 21.988C324.542 21.1402 324.22 20.4642 323.576 19.9705C322.932 19.4769 322.073 19.2301 320.979 19.2301C320.228 19.2301 319.584 19.3159 319.036 19.4876C318.489 19.6593 318.081 19.8418 317.824 20.0349L316.912 15.9678L321.376 10.3769H314.186V4.4104H328.748V8.65993L324.316 14.1006C324.949 14.2508 325.604 14.4977 326.291 14.8411C326.978 15.1952 327.611 15.6781 328.201 16.2898C328.78 16.9122 329.263 17.6848 329.639 18.6291C330.014 19.5735 330.197 20.711 330.197 22.0416C330.197 23.2757 329.972 24.4347 329.521 25.5293C329.07 26.6131 328.437 27.5682 327.6 28.3837C326.763 29.1993 325.765 29.8324 324.584 30.3046C323.404 30.7768 322.095 31.0129 320.646 31.0129C319.552 31.0129 318.575 30.8948 317.706 30.648C316.837 30.4012 316.075 30.09 315.42 29.6822C314.765 29.2852 314.218 28.8452 313.789 28.3515C313.349 27.8686 313.038 27.375 312.845 26.8599L314.154 22.0631C314.851 22.9109 315.71 23.6191 316.729 24.1879C317.759 24.7888 319.069 25.0786 320.657 25.0786Z" fill="#EA0029"/>
<path d="M341.239 4.77534C342.903 4.11001 344.652 3.77734 346.508 3.77734C348.354 3.77734 350.103 4.11001 351.777 4.77534C353.44 5.44067 354.9 6.37428 356.145 7.57616C357.4 8.77805 358.388 10.216 359.117 11.8901C359.847 13.5641 360.212 15.3992 360.212 17.3951C360.212 19.4126 359.847 21.2476 359.117 22.9109C358.388 24.5743 357.4 26.0122 356.145 27.2141C354.889 28.416 353.44 29.3496 351.777 30.015C350.114 30.6803 348.365 31.0129 346.508 31.0129C344.662 31.0129 342.903 30.6803 341.239 30.015C339.576 29.3496 338.116 28.416 336.861 27.2141C335.605 26.0122 334.618 24.5743 333.888 22.9109C333.159 21.2476 332.794 19.4126 332.794 17.3951C332.794 15.3992 333.159 13.5641 333.888 11.8901C334.618 10.216 335.605 8.77805 336.861 7.57616C338.116 6.38501 339.576 5.4514 341.239 4.77534ZM346.508 25.0572C347.624 25.0572 348.676 24.8747 349.663 24.4884C350.65 24.1128 351.498 23.587 352.217 22.9217C352.936 22.2563 353.505 21.4515 353.913 20.5179C354.32 19.5843 354.535 18.5434 354.535 17.4059C354.535 16.2898 354.331 15.2597 353.913 14.3046C353.505 13.3602 352.936 12.5554 352.217 11.8793C351.498 11.214 350.65 10.6882 349.663 10.3126C348.676 9.93701 347.624 9.74385 346.508 9.74385C345.371 9.74385 344.308 9.93701 343.343 10.3126C342.366 10.6882 341.529 11.214 340.81 11.8793C340.091 12.5447 339.533 13.3602 339.114 14.3046C338.696 15.2489 338.492 16.2898 338.492 17.4059C338.492 18.5541 338.696 19.5843 339.114 20.5179C339.533 21.4515 340.091 22.2563 340.81 22.9217C341.529 23.587 342.366 24.1128 343.343 24.4884C344.308 24.864 345.36 25.0572 346.508 25.0572Z" fill="#EA0029"/>
<path d="M374.001 0H368.797L362.798 10.3877H367.992L374.001 0Z" fill="#EA0029"/>
<path d="M368.797 0H374.001L380 10.3877H374.806L368.797 0Z" fill="#EA0029"/>
<path d="M208.715 83.3774C211.716 85.3045 214.829 86.6015 218.091 87.565C221.426 88.5286 224.835 89.1956 228.319 89.2327C233.099 89.2697 237.695 88.4544 241.956 86.1568C242.142 86.0456 242.364 85.9345 242.697 85.7121C242.364 85.4898 242.105 85.3045 241.845 85.1562C239.436 83.8221 236.879 82.9698 234.211 82.3398C231.802 81.7839 229.356 81.5986 226.91 81.5986C223.983 81.5615 221.055 81.5986 218.128 81.9321C217.979 81.9321 217.794 81.9321 217.46 81.9321C223.39 77.3739 226.985 71.4816 228.726 64.4775C229.393 61.8092 229.542 59.0298 229.097 56.1393C224.835 58.4369 221.685 61.6981 219.165 65.7004C218.795 65.2557 218.832 64.848 218.832 64.4404C218.869 62.5504 219.462 60.8457 220.462 59.2522C221.352 57.844 222.463 56.6951 223.835 55.7316C226.28 54.0269 229.023 52.9151 231.913 52.211C232.321 52.0999 232.655 52.1369 232.84 52.6187C234.248 55.991 234.767 59.4375 233.766 63.0322C233.433 64.181 232.914 65.2557 232.247 66.2192C232.099 66.4786 231.913 66.701 231.728 67.0345C233.322 66.701 234.841 66.2563 236.36 66.071C237.88 65.8857 239.436 65.8857 240.956 66.0339C242.512 66.1822 244.069 66.5157 245.588 66.8863C247.07 67.2198 248.479 67.7757 249.85 68.4427C249.85 68.5169 249.813 68.5539 249.813 68.628C248.886 68.5169 247.96 68.4057 247.033 68.2945C243.92 67.8869 240.807 67.7386 237.732 68.1833C232.951 68.8504 228.986 70.9998 226.132 75.0021C225.502 75.8915 225.058 76.8921 224.539 77.8557C224.428 78.1151 224.39 78.4115 224.279 78.7451C224.576 78.7451 224.724 78.7821 224.909 78.7821C226.948 78.5598 228.949 78.1892 230.913 77.5963C233.433 76.818 235.582 75.4468 237.361 73.5198C237.509 73.3345 237.657 73.1492 237.806 72.9639C237.843 72.9268 237.843 72.8527 237.88 72.7045C237.657 72.6674 237.435 72.5933 237.25 72.6304C235.434 72.7416 233.655 73.001 231.988 73.8163C230.839 74.4092 229.727 75.0763 228.578 75.7433C228.17 75.9657 227.8 76.2251 227.281 76.3733C227.355 76.188 227.392 76.0027 227.503 75.8545C229.69 72.2227 232.951 70.1104 237.139 69.6657C238.992 69.4804 240.845 69.6286 242.735 69.6286C242.92 69.6286 243.142 69.6657 243.327 69.7027C243.439 70.5551 242.994 71.8521 241.956 73.2974C241.215 74.3351 240.363 75.2615 239.51 76.2621C239.622 76.2992 239.733 76.3363 239.881 76.3363C242.512 76.151 245.069 76.5215 247.589 77.3368C248.775 77.7445 249.146 77.7445 248.367 79.3009C247.589 80.8203 246.292 81.7468 244.662 82.488C244.81 81.3021 245.625 80.4498 245.514 79.3009C241.067 78.0409 236.62 78.1892 232.136 79.2268C232.432 79.3009 232.729 79.3751 233.025 79.4121C235.36 79.7086 237.62 80.1904 239.881 80.8204C243.068 81.7468 245.736 83.5256 248.034 85.8603C248.108 85.9345 248.182 86.0456 248.256 86.1198C248.59 86.4533 248.627 86.7868 248.256 87.1203C247.589 87.7133 246.959 88.3433 246.255 88.8621C244.032 90.4927 241.549 91.4191 238.88 91.975C235.137 92.7162 231.395 92.6421 227.652 92.1974C223.39 91.6786 219.388 90.3815 215.608 88.3803C213.421 87.2315 211.383 85.8603 209.493 84.2668C209.308 84.0815 209.085 83.8962 208.9 83.7109C208.826 83.6368 208.826 83.5998 208.715 83.3774Z" fill="#F32735"/>
<path d="M201.081 56.6211C202.637 56.7323 207.677 59.9934 209.863 62.3281C212.309 64.8852 213.903 67.9611 215.089 71.3334C215.83 69.2211 215.645 67.1458 215.126 65.0705C214.607 62.9952 213.606 61.1423 212.495 59.3264C212.643 59.4005 212.828 59.4746 212.976 59.5487C214.496 60.6234 215.793 61.8834 216.868 63.4028C218.795 66.1081 219.202 69.1099 218.387 72.2969C217.979 73.8163 217.164 75.1134 215.978 76.1881C215.756 76.3734 215.533 76.5587 215.2 76.8181C215.015 76.4104 214.866 76.114 214.755 75.8175C213.903 73.8163 213.125 71.741 212.198 69.7769C210.79 66.7381 208.641 64.2552 205.898 62.3281C205.713 62.1799 205.491 62.0687 205.305 61.9575C205.231 61.9205 205.12 61.9205 205.009 61.9205C204.972 62.1058 204.898 62.2911 204.861 62.4764C204.416 66.2193 205.305 69.6287 207.343 72.7787C208.529 74.6316 210.049 76.151 211.605 77.6334C212.532 78.5228 213.495 79.3381 214.422 80.1904C214.644 80.3757 214.829 80.5981 214.978 80.8945C214.459 80.5981 213.94 80.2645 213.421 79.9681C210.049 78.1151 206.676 76.2252 203.304 74.4093C201.933 73.6681 200.488 73.1493 198.968 72.8157C198.783 72.7787 198.561 72.7046 198.375 72.6675C198.301 72.6675 198.19 72.7046 198.079 72.7046C198.005 73.0752 198.264 73.2975 198.449 73.5569C199.598 75.2616 200.969 76.781 202.489 78.1522C203.563 79.1157 204.712 80.0051 205.824 80.9316C206.046 81.1169 206.269 81.3022 206.565 81.5245C201.636 81.1169 194.336 75.0763 193.521 70.7775C195.448 70.5181 197.338 70.6293 199.228 70.9258C201.155 71.2593 202.896 72.0746 204.675 72.964C204.527 72.7416 204.416 72.4822 204.268 72.2599C202.563 69.6287 201.377 66.7381 200.932 63.6252C200.599 61.4387 200.488 59.2152 200.969 56.9917C201.006 56.9176 201.043 56.7693 201.081 56.6211Z" fill="#F32735"/>
<path d="M207.677 89.8255C206.528 89.1214 205.602 88.4914 204.638 87.9725C201.97 86.5272 199.116 85.5637 196.152 84.8596C193.743 84.2667 191.297 83.822 188.888 83.229C186.739 82.7102 184.626 82.0431 182.477 81.4502C182.218 81.3761 181.921 81.302 181.551 81.1908C181.588 81.6355 181.884 81.8208 182.069 82.0431C185.182 85.4525 189.036 87.6019 193.372 88.9731C196.485 89.9366 199.635 90.5666 202.896 90.4184C203.082 90.4184 203.304 90.4184 203.526 90.5666C203.119 90.6408 202.674 90.7149 202.266 90.789C198.672 91.3078 195.077 91.419 191.445 91.0484C183.848 90.2331 178.401 86.2308 174.695 79.7455C173.879 78.3002 173.249 76.7808 172.545 75.2614C172.471 75.0761 172.434 74.8908 172.397 74.6685C173.435 75.2985 174.361 75.9655 175.362 76.4843C177.326 77.522 179.438 78.2632 181.588 78.8561C185.256 79.8567 188.962 80.4867 192.742 81.0055C195.299 81.339 197.708 82.0431 200.043 83.1178C202.785 84.3778 205.083 86.2308 206.899 88.6396C207.158 88.9361 207.343 89.3067 207.677 89.8255Z" fill="#F32735"/>
<path d="M185.738 91.7527C187.035 92.0121 188.332 92.3457 189.629 92.568C192.186 92.9757 194.744 92.9757 197.338 92.6051C199.153 92.3457 200.932 91.9751 202.748 91.6416C202.859 91.6045 202.971 91.6416 203.156 91.6045C203.082 91.7157 203.082 91.8268 203.008 91.8639C201.562 92.7163 200.154 93.5686 198.709 94.3468C197.041 95.2362 195.262 95.2362 193.409 94.9768C190.556 94.5692 188.036 93.3833 185.738 91.7527Z" fill="#F32735"/>
<path d="M0.0740967 72.8528C0.0740967 70.8516 0.0740967 68.8875 0.0740967 66.9604C1.22292 66.701 1.22292 66.701 1.66762 65.5893C2.8535 62.6987 4.07644 59.8081 5.26232 56.8805C5.37349 56.6211 5.52173 56.3617 5.6329 56.0652C6.52231 56.0652 7.37466 56.0652 8.26407 56.0652C9.74642 59.6228 11.2288 63.1805 12.6741 66.701C13.0076 66.7752 13.3041 66.8493 13.6005 66.8863C13.6005 68.8504 13.6005 70.7775 13.6005 72.8157C12.7111 72.8157 11.8958 72.8157 10.9323 72.8157C10.9323 71.8522 10.9323 70.9257 10.9323 69.8881C8.1529 69.8881 5.44761 69.8881 2.66821 69.8881C2.66821 70.9257 2.66821 71.8522 2.66821 72.8157C1.81586 72.8528 1.00056 72.8528 0.0740967 72.8528ZM9.41289 66.7752C8.5976 64.6999 7.81937 62.8099 7.04113 60.9199C6.96702 60.9199 6.8929 60.9199 6.81878 60.9199C6.07761 62.8469 5.22526 64.7369 4.52114 66.7752C6.22584 66.7752 7.74525 66.7752 9.41289 66.7752Z" fill="#F32735"/>
<path d="M83.2338 69.925C82.4185 69.925 81.7144 69.925 81.0103 69.925C80.8621 69.925 80.7138 69.8879 80.4915 69.8509C80.4915 67.1085 80.4915 64.4032 80.4915 61.735C80.4174 61.698 80.3432 61.6609 80.2691 61.6609C80.0838 61.8833 79.8985 62.1056 79.7132 62.365C78.0827 64.6627 76.4521 66.9603 74.8586 69.2579C74.488 69.7768 74.1174 69.9991 73.4874 69.9621C72.8574 69.925 72.2644 69.9621 71.6344 69.9621C71.4492 69.2579 71.375 57.6215 71.5603 56.1762C72.005 56.1762 72.4497 56.1392 72.9315 56.1392C73.3762 56.1392 73.8209 56.1392 74.3768 56.1392C74.4509 57.1027 74.4139 57.9921 74.4139 58.9186C74.4139 59.845 74.4139 60.7715 74.4139 61.6609C74.4139 62.5503 74.4139 63.4768 74.4139 64.3662C74.488 64.4033 74.5621 64.4032 74.6362 64.4403C75.3403 63.588 75.9703 62.6244 76.6374 61.698C77.3044 60.7715 77.9344 59.845 78.6015 58.9556C79.2685 58.0292 79.9356 57.0656 80.5656 56.1762C81.5291 56.1762 82.4185 56.1762 83.345 56.1762C83.2338 60.7344 83.2338 65.2556 83.2338 69.925Z" fill="#F32735"/>
<path d="M98.6503 69.8511C97.7238 69.8511 96.8344 69.8511 95.8338 69.8511C95.7226 67.1458 95.8338 64.4034 95.7597 61.6982C95.6856 61.6982 95.6485 61.6611 95.5744 61.6611C95.3891 61.9205 95.1668 62.1429 95.0185 62.4023C93.3879 64.6999 91.7574 66.9976 90.1638 69.2952C89.8303 69.7399 89.4968 69.9993 88.9409 69.9623C88.3109 69.9252 87.6438 69.9623 87.0138 69.9623C86.8286 69.2581 86.7544 57.8811 86.9397 56.1394C87.3474 56.1394 87.7921 56.1023 88.1997 56.1023C88.6444 56.1023 89.0891 56.1023 89.645 56.1023C89.7932 57.0288 89.6821 57.9552 89.7191 58.8446C89.7191 59.8082 89.7191 60.7346 89.7191 61.6982C89.7191 62.5876 89.7191 63.514 89.7191 64.4776C90.1638 64.3664 90.275 64.0329 90.4232 63.8105C92.0909 61.4758 93.7585 59.1411 95.3891 56.7693C95.7597 56.2505 96.1303 56.0282 96.7603 56.0652C97.3532 56.1023 97.9832 56.0652 98.6503 56.0652C98.6503 60.6976 98.6503 65.2558 98.6503 69.8511Z" fill="#F32735"/>
<path d="M130.743 63.0692C130.743 67.1827 127.593 70.2586 123.443 70.2586C119.329 70.2586 116.216 67.1086 116.216 62.9951C116.216 59.4375 118.81 55.7686 123.517 55.8057C128.408 55.8428 130.891 59.7339 130.743 63.0692ZM123.443 67.1457C125.407 67.1457 127 66.108 127.593 64.4033C128.297 62.3651 127.371 60.2157 125.444 59.3263C123.294 58.3627 120.737 59.0669 119.7 60.9569C118.217 63.6621 119.885 67.1457 123.443 67.1457Z" fill="#F32735"/>
<path d="M157.981 63.0321C157.87 59.6598 160.39 55.8057 165.245 55.8057C169.914 55.8057 172.545 59.4004 172.508 63.0321C172.471 67.1456 169.358 70.2215 165.208 70.2586C161.205 70.2956 157.833 67.1086 157.981 63.0321ZM165.208 67.1456C167.135 67.1456 168.728 66.108 169.321 64.4774C170.099 62.2539 169.025 59.9562 166.801 59.178C164.429 58.3627 161.909 59.4374 161.168 61.6609C160.131 64.6998 162.354 67.1827 165.208 67.1456Z" fill="#F32735"/>
<path d="M56.2551 56.1391C57.1075 56.1391 57.9969 56.1391 58.9975 56.1391C59.1087 57.8068 58.9604 59.4744 59.1087 61.1791C61.0728 61.1791 62.9998 61.1791 65.001 61.1791C65.1492 59.5115 64.9639 57.8438 65.1122 56.1021C66.0757 56.1021 66.9281 56.1021 67.8175 56.1021C68.0028 56.732 68.0769 68.3685 67.8916 69.8508C67.0022 69.962 66.1128 69.8879 65.0751 69.8879C65.0751 68.035 65.0751 66.2561 65.0751 64.4032C63.0369 64.4032 61.1469 64.4032 59.1087 64.4032C59.1087 66.2191 59.1087 67.9979 59.1087 69.8508C58.1081 69.8508 57.2557 69.8508 56.3663 69.8508C56.3293 69.8508 56.3293 69.8138 56.2922 69.8138C56.2551 69.7767 56.2551 69.7767 56.2551 69.7397C56.2181 69.5173 56.181 69.332 56.181 69.1097C56.181 64.885 56.181 60.6603 56.181 56.3985C56.181 56.3244 56.2181 56.2503 56.2551 56.1391Z" fill="#F32735"/>
<path d="M32.6487 56.1392C35.6134 56.1392 38.5781 56.1392 41.5799 56.1392C41.5799 60.7344 41.5799 65.2556 41.5799 69.8509C40.6534 69.8509 39.764 69.8509 38.7634 69.8509C38.7634 66.2932 38.7634 62.8097 38.7634 59.2521C37.5775 59.2521 36.5028 59.2521 35.317 59.2521C35.317 59.6597 35.2799 60.0674 35.2799 60.475C35.2428 62.4021 35.0946 64.3291 34.5758 66.1821C34.3164 67.1456 33.9458 68.035 33.3158 68.8132C32.5376 69.7768 31.537 70.2215 30.2399 69.9621C29.8693 69.8879 29.684 69.7397 29.6099 69.3321C29.4987 68.7021 29.3505 68.0721 29.2023 67.3679C29.3876 67.2938 29.5358 67.2197 29.7211 67.1827C30.8329 66.9603 31.4258 66.2191 31.7964 65.2185C32.2781 63.8474 32.4264 62.4391 32.4634 61.0309C32.5376 59.6227 32.5376 58.1774 32.5746 56.7692C32.5746 56.5468 32.6117 56.3615 32.6487 56.1392Z" fill="#F32735"/>
<path d="M105.543 69.9622C105.543 65.2558 105.543 60.7346 105.543 56.1764C105.729 56.1393 105.914 56.1023 106.062 56.1023C107.174 56.1023 108.323 56.0652 109.434 56.1393C110.176 56.1764 110.917 56.3246 111.584 56.6211C113.696 57.5105 114.363 60.2158 112.992 62.0687C112.881 62.217 112.77 62.3281 112.621 62.5134C112.696 62.6246 112.77 62.6987 112.844 62.7728C114.289 63.8105 114.586 65.2928 114.252 66.8864C113.918 68.554 112.733 69.4805 111.139 69.814C109.36 70.1846 107.507 69.9252 105.543 69.9622ZM108.397 64.3664C108.397 65.367 108.323 66.2193 108.471 67.1458C109.175 67.1458 109.768 67.1828 110.324 67.1458C111.065 67.0717 111.584 66.4787 111.584 65.7746C111.584 65.0705 111.065 64.4776 110.324 64.4034C109.731 64.3293 109.138 64.3664 108.397 64.3664ZM108.434 61.624C109.657 61.8093 110.287 61.624 110.62 61.0682C110.917 60.5493 110.88 59.8452 110.509 59.4005C109.953 58.7705 109.212 58.8446 108.471 59.0299C108.434 59.9193 108.434 60.7346 108.434 61.624Z" fill="#F32735"/>
<path d="M28.7575 69.8881C27.6828 69.8881 26.7934 69.8881 25.7928 69.8881C25.5334 69.2581 25.237 68.591 25.0146 67.924C24.8664 67.4422 24.607 67.2199 24.0511 67.2199C22.6429 67.2569 21.1976 67.2569 19.7893 67.2199C19.2705 67.2199 18.974 67.3681 18.7887 67.8869C18.5664 68.554 18.2699 69.184 17.9735 69.8881C17.0099 69.8881 16.0464 69.8881 15.1199 69.8881C15.1941 69.221 19.8635 57.3252 20.5676 56.1022C20.7529 56.1022 20.9382 56.0652 21.1605 56.0652C21.8276 56.0652 22.5317 56.0652 23.2729 56.0652C25.0887 60.6605 26.8675 65.1816 28.7575 69.8881ZM23.5323 64.2922C22.9764 62.884 22.5317 61.624 21.9758 60.4011C21.9017 60.4011 21.8646 60.4011 21.7905 60.4011C21.2717 61.624 20.7899 62.884 20.234 64.181C20.5305 64.2181 20.7158 64.2552 20.864 64.2552C21.7164 64.2922 22.5317 64.2922 23.5323 64.2922Z" fill="#F32735"/>
<path d="M178.141 60.7716C178.326 60.5863 178.549 60.364 178.734 60.1787C179.772 58.9928 180.809 57.8069 181.81 56.6211C182.144 56.2134 182.514 56.0652 183.033 56.0652C183.922 56.1022 184.849 56.0652 185.738 56.0652C185.775 56.1393 185.812 56.1764 185.812 56.2505C183.996 58.3628 182.144 60.4752 180.254 62.6616C182.329 65.0334 184.404 67.3681 186.554 69.814C186.257 69.8881 186.072 69.9251 185.886 69.9251C185.071 69.9251 184.219 69.9251 183.404 69.9251C182.959 69.9251 182.625 69.7769 182.329 69.4063C181.143 68.0351 179.957 66.664 178.771 65.3299C178.586 65.1075 178.364 64.9222 178.104 64.6257C177.771 65.2187 177.956 65.7746 177.919 66.2934C177.882 66.8863 177.919 67.4793 177.919 68.0722C177.919 68.6281 177.919 69.184 177.919 69.814C176.955 69.814 176.066 69.814 175.214 69.814C175.028 69.184 174.991 57.0658 175.177 56.0652C176.029 56.0652 176.918 56.0652 177.919 56.0652C177.919 57.6217 177.956 59.1411 177.956 60.6605C177.993 60.7346 178.067 60.7716 178.141 60.7716Z" fill="#F32735"/>
<path d="M143.973 65.441C144.27 66.2192 144.492 66.8863 144.714 67.5534C144.862 67.961 144.64 68.2204 144.418 68.4798C143.528 69.4063 142.417 69.9251 141.157 70.1475C137.747 70.7775 134.375 69.1469 133.004 65.9969C130.965 61.3275 134.041 56.4728 138.674 55.8799C139.711 55.7316 140.749 55.8428 141.75 56.1022C142.565 56.3246 143.306 56.6952 143.936 57.251C144.751 57.9552 144.788 58.0663 144.418 59.0669C144.232 59.5487 144.047 60.0675 143.862 60.6234C143.64 60.4381 143.454 60.2899 143.269 60.1416C141.75 58.9557 140.082 58.6222 138.229 59.1781C136.228 59.771 135.153 61.4016 135.301 63.4769C135.45 65.3669 136.932 66.8863 138.97 67.1087C140.712 67.331 142.268 66.9604 143.565 65.7004C143.677 65.6263 143.751 65.5522 143.973 65.441Z" fill="#F32735"/>
<path d="M45.2487 69.9252C45.2487 65.2558 45.2487 60.7346 45.2487 56.1393C46.1381 56.0652 47.0275 56.1023 48.0281 56.1023C48.1022 57.807 48.0281 59.4746 48.0651 61.2534C48.6581 61.2534 49.2139 61.2164 49.7328 61.2534C51.6598 61.3646 53.1422 62.5134 53.661 64.3293C54.4763 67.2199 52.5492 69.8511 49.5475 69.9252C48.1392 69.9252 46.731 69.9252 45.2487 69.9252ZM48.0651 66.9234C48.6951 66.9234 49.251 66.9605 49.8069 66.9234C50.4739 66.8493 50.9186 66.3305 50.9557 65.6634C50.9928 65.0334 50.6592 64.5146 49.9922 64.3293C49.3622 64.1811 48.7322 64.144 48.0651 64.3664C48.0651 65.1817 48.0651 65.9599 48.0651 66.9234Z" fill="#F32735"/>
<path d="M156.721 59.1409C155.424 59.1409 154.164 59.1409 152.83 59.1409C152.719 60.1044 152.793 60.9938 152.793 61.8462C152.793 62.7356 152.793 63.625 152.793 64.5144C152.793 65.4038 152.793 66.2932 152.793 67.1827C152.793 68.0721 152.793 68.9615 152.793 69.8879C151.83 69.8879 150.94 69.8879 149.977 69.8879C149.977 66.3303 149.977 62.8097 149.977 59.178C148.605 59.178 147.345 59.178 146.048 59.178C146.048 58.1033 146.048 57.1397 146.048 56.1392C149.606 56.1392 153.09 56.1392 156.758 56.1392C156.758 56.658 156.758 57.1397 156.758 57.6586C156.721 58.1033 156.721 58.585 156.721 59.1409Z" fill="#F32735"/>
<path d="M91.3868 51.9888C91.6832 52.6188 91.9797 53.2117 92.7579 53.2117C93.4991 53.2117 93.8326 52.6929 94.055 51.9888C94.7591 52.0999 95.4262 52.1741 96.0932 52.2852C96.0191 54.1382 94.5738 55.3611 92.6097 55.3241C90.7568 55.287 89.3485 54.027 89.3856 52.2852C90.0156 52.2111 90.6827 52.0999 91.3868 51.9888Z" fill="#F32735"/>
</svg>
