<svg width="313" height="61" fill="none" xmlns="http://www.w3.org/2000/svg"><g clip-path="url(#clip0)"><path d="M19.95 3.62v21.37h-5.3V9.27H5.4v15.8H.09V3.63h19.86zM46.36 9.71c.61 1.42.88 2.92.88 4.6a11.2 11.2 0 01-3.27 8.12c-.97.97-2.12 1.76-3.44 2.3-1.33.52-2.65.79-4.06.79a9.52 9.52 0 01-4.07-.8 4.19 4.19 0 01-2.2-2.03v11.04h-5.3V3.62h5.12v2.2c.35-.79 1.15-1.5 2.3-2.02a9.52 9.52 0 014.06-.8c1.41 0 2.82.27 4.15.8 1.32.61 2.47 1.4 3.44 2.38.97.97 1.86 2.2 2.39 3.53zM41.5 16.6c.26-.7.44-1.5.44-2.3 0-.8-.18-1.59-.44-2.3-.27-.7-.7-1.32-1.24-1.76a4.74 4.74 0 00-1.94-1.15 7.66 7.66 0 00-6 .36 4.1 4.1 0 00-2.03 2.03v5.65c.35.8.97 1.5 2.03 2.03a7.7 7.7 0 006 .35c.8-.26 1.41-.7 1.94-1.14.53-.45.97-1.06 1.24-1.77zM56.25 3.62v12.8l9.7-12.8h5.3v21.37h-5.2v-12.8l-9.72 12.8h-5.3V3.62h5.22zM97.48 14.3c0 1.6-.26 3.1-.88 4.5a10.19 10.19 0 01-2.48 3.54c-1.05.97-2.2 1.77-3.62 2.38-1.32.53-2.82.89-4.32.89-1.5 0-3-.27-4.33-.89a10.76 10.76 0 01-3.62-2.38 12.16 12.16 0 01-2.47-3.53 11.08 11.08 0 01-.88-4.5 11.08 11.08 0 013.35-8.13c1.06-.97 2.2-1.77 3.62-2.38 1.33-.53 2.83-.89 4.33-.89s3 .27 4.32.89c1.33.53 2.57 1.32 3.62 2.38 1.06.97 1.86 2.2 2.48 3.62.53 1.41.88 2.91.88 4.5zM80.62 12c-.27.71-.45 1.5-.45 2.3 0 .8.18 1.6.45 2.3.26.7.7 1.32 1.23 1.77.53.53 1.15.88 1.94 1.14.71.27 1.5.44 2.39.44.8 0 1.59-.17 2.3-.44.7-.26 1.32-.7 1.85-1.14.53-.53.97-1.06 1.32-1.77.36-.7.44-1.41.44-2.3 0-.8-.17-1.59-.44-2.3-.35-.7-.7-1.32-1.32-1.76a5.04 5.04 0 00-1.86-1.15c-.7-.26-1.5-.44-2.3-.44-.79 0-1.58.18-2.38.44-.7.27-1.4.71-1.94 1.15a6.93 6.93 0 00-1.23 1.77zM122.56 9.71c.61 1.42.88 2.92.88 4.6a11.21 11.21 0 01-3.27 8.12c-.97.97-2.12 1.76-3.44 2.3-1.33.52-2.65.79-4.06.79a9.52 9.52 0 01-4.06-.8 4.2 4.2 0 01-2.21-2.03v11.04h-5.3V3.62h5.12v2.2c.36-.79 1.15-1.5 2.3-2.02a9.52 9.52 0 014.06-.8c1.41 0 2.83.27 4.15.8 1.32.53 2.47 1.32 3.44 2.3.97.96 1.77 2.29 2.39 3.61zm-4.86 6.89c.27-.7.44-1.5.44-2.3 0-.8-.17-1.59-.44-2.3-.26-.7-.7-1.32-1.24-1.76a4.73 4.73 0 00-1.94-1.15 7.67 7.67 0 00-6 .36 4.1 4.1 0 00-2.03 2.03v5.65c.35.8.97 1.5 2.03 2.03a7.7 7.7 0 006 .35c.8-.26 1.42-.7 1.94-1.14.45-.45.89-1.06 1.24-1.77zM132.36 3.62v12.8l9.71-12.8h5.3v21.37h-5.21v-12.8l-9.71 12.8h-5.3V3.62h5.2zM169.27 9.27h-6.63v15.8h-5.3V9.28h-6.62V3.62h18.46v5.65h.09zM183.22 20.3c1.32 0 2.56-.26 3.8-.7a5.91 5.91 0 002.73-1.94l1.59 4.06a7.5 7.5 0 01-3.18 2.74c-1.41.7-3.18 1.15-5.2 1.15-1.6 0-3.19-.27-4.51-.8a10.78 10.78 0 01-3.62-2.2 8.95 8.95 0 01-2.39-3.54 11.35 11.35 0 01-.88-4.68 11.76 11.76 0 013-7.94 10.71 10.71 0 013.45-2.48c1.32-.61 2.82-.88 4.5-.88a10.03 10.03 0 017.6 3.44c.88 1.06 1.58 2.21 2.11 3.62.53 1.33.71 2.74.71 4.24v.97c0 .36-.09.62-.09.89h-15.9a4.34 4.34 0 002.04 3.09c1.24.62 2.65.97 4.24.97zm4.41-8.38a3.3 3.3 0 00-1.68-2.56 5.95 5.95 0 00-3.35-.88c-1.33 0-2.47.26-3.44.88a3.6 3.6 0 00-1.86 2.56h10.33zM213.86 9.27h-6.63v15.8h-5.3V9.28h-6.62V3.62h18.46v5.65h.09z" fill="#343434"/><path d="M224.1 8.04c-.53 0-.97.08-1.41.26-.44.18-.8.35-1.24.62-.35.26-.7.53-.97.88l-.8 1.06-1.85-3.27a5.37 5.37 0 012.2-3.18c.54-.44 1.24-.7 1.95-.97.7-.26 1.5-.35 2.38-.35 1.15 0 2.12.18 2.92.53.88.35 1.59.8 2.12 1.41a5.37 5.37 0 011.32 2.12 5 5 0 01.62 2.56 7.75 7.75 0 01-1.06 3.98c-.35.61-.8 1.23-1.32 1.85-.53.62-1.15 1.32-1.77 2.12l-2.12 2.38h6.71v4.86h-13.77v-3.7l6.09-6.63c.44-.44.8-.88 1.15-1.24.35-.35.62-.7.8-1.06.17-.35.34-.61.43-.97.1-.26.18-.62.18-1.06 0-.62-.26-1.15-.7-1.59-.45-.44-1.07-.62-1.86-.62zM240.88 3.97c1.32-.53 2.82-.8 4.32-.8 1.5 0 3 .27 4.33.8 1.32.53 2.56 1.33 3.62 2.3 1.06.97 1.85 2.2 2.47 3.53.62 1.41.88 2.91.88 4.5 0 1.68-.26 3.18-.88 4.5a11 11 0 01-6.1 5.83 12.11 12.11 0 01-8.65 0 11 11 0 01-6.09-5.82 10.8 10.8 0 01-.88-4.5c0-1.68.26-3.18.88-4.5a10.18 10.18 0 012.47-3.54 10.5 10.5 0 013.63-2.3zm4.32 16.6a6.6 6.6 0 006.1-3.7c.35-.8.52-1.6.52-2.57a6.34 6.34 0 00-1.94-4.59 8.59 8.59 0 00-2.12-1.32 6.27 6.27 0 00-2.56-.44c-.97 0-1.76.17-2.65.44-.8.35-1.5.7-2.12 1.32a5.6 5.6 0 00-1.4 2.03c-.36.8-.54 1.6-.54 2.56a6.03 6.03 0 001.94 4.5c.62.54 1.33.98 2.12 1.33.89.36 1.68.44 2.65.44zM264 20.66c.98 0 1.77-.26 2.3-.7.62-.45.89-1.06.89-1.86 0-.7-.27-1.24-.8-1.68-.53-.44-1.23-.61-2.12-.61-.61 0-1.14.08-1.58.17-.45.18-.8.27-.98.44l-.7-3.35 3.7-4.6h-5.91V3.63h12v3.53l-3.61 4.5a6.48 6.48 0 013.18 1.85c.53.54.88 1.16 1.15 1.95a8.62 8.62 0 01-.1 5.65 7.06 7.06 0 01-4.06 3.98 9.36 9.36 0 01-5.65.35 5.89 5.89 0 01-1.85-.8 8.7 8.7 0 01-1.32-1.05c-.36-.45-.62-.8-.8-1.24l1.06-3.97c.62.7 1.32 1.23 2.12 1.76.62.27 1.76.53 3.09.53zM280.87 3.97c1.33-.53 2.83-.8 4.33-.8s3 .27 4.33.8c1.32.53 2.56 1.33 3.62 2.3 1.06.97 1.85 2.2 2.47 3.53.62 1.41.88 2.91.88 4.5 0 1.68-.26 3.18-.88 4.5a11 11 0 01-6.1 5.83 12.11 12.11 0 01-8.65 0 11 11 0 01-6.09-5.82 10.8 10.8 0 01-.88-4.5c0-1.68.26-3.18.88-4.5a10.18 10.18 0 012.47-3.54 10.5 10.5 0 013.62-2.3zm4.33 16.6a6.6 6.6 0 006.1-3.7c.35-.8.52-1.6.52-2.57a6.34 6.34 0 00-1.94-4.59 8.59 8.59 0 00-2.12-1.32 6.27 6.27 0 00-2.56-.44c-.97 0-1.76.17-2.65.44-.8.35-1.5.7-2.12 1.32a5.6 5.6 0 00-1.41 2.03c-.35.8-.53 1.6-.53 2.56a6.03 6.03 0 001.94 4.5c.62.54 1.33.98 2.12 1.33.88.36 1.77.44 2.65.44zM14.04 54.4a4.91 4.91 0 01-2.3 2.11A8.3 8.3 0 012.3 55.1a8.18 8.18 0 01-1.77-2.65A10.28 10.28 0 010 49.09c0-1.23.18-2.38.62-3.35a7.4 7.4 0 011.76-2.56c.71-.7 1.6-1.24 2.56-1.68a7.17 7.17 0 013.1-.62c.7 0 1.4.1 2.03.27a7.4 7.4 0 011.67.62c.45.26.97.61 1.33.88.35.35.7.7.88 1.06l-.8 2.2a8.8 8.8 0 00-.88-.97c-.35-.35-.7-.53-1.14-.8-.45-.26-.89-.34-1.42-.52a9.73 9.73 0 00-1.59-.18c-.8 0-1.59.1-2.3.36-.7.26-1.23.61-1.76 1.06a4.1 4.1 0 00-1.15 1.76 6.25 6.25 0 000 4.6c.27.7.62 1.23 1.15 1.76a6.1 6.1 0 001.77 1.15c.7.26 1.41.35 2.3.35a6.4 6.4 0 003.08-.7A6.67 6.67 0 0013.24 52l.8 2.38zM24.72 48.39H21.2v8.74h-2.38v-8.74h-3.62v-2.56h9.53v2.56zM32.05 54.83c.7 0 1.41-.17 2.03-.44a3 3 0 001.42-1.06l.7 1.86c-.18.26-.35.53-.62.8-.26.26-.61.43-.97.7-.35.17-.8.35-1.23.44-.45.09-.98.18-1.5.18-.89 0-1.6-.18-2.39-.45-.7-.26-1.32-.7-1.85-1.14a5.26 5.26 0 01-1.24-1.86 7.25 7.25 0 01-.09-4.77c.27-.7.62-1.32 1.15-1.85a6.62 6.62 0 011.77-1.32c.7-.36 1.5-.45 2.38-.45.8 0 1.59.18 2.2.45.71.35 1.24.7 1.69 1.32.44.53.79 1.15 1.05 1.85.27.71.36 1.5.36 2.3 0 .35 0 .62-.09.88h-8.48c.1.89.53 1.5 1.15 1.95a5 5 0 002.56.61zm2.47-4.68a2.06 2.06 0 00-.88-1.5 3.4 3.4 0 00-1.94-.62c-.35 0-.7.1-1.06.18-.35.09-.62.27-.88.44-.27.18-.53.44-.71.7-.18.27-.27.54-.35.9h5.82v-.1zM49.71 45.74v11.3h-2.38V48.3h-5.3v8.74h-2.38v-11.3H49.7zM58.19 54.83c.7 0 1.41-.17 2.03-.44a3 3 0 001.41-1.06l.7 1.86c-.17.26-.34.53-.61.8-.26.26-.62.43-.97.7-.35.17-.8.35-1.24.44-.44.09-.97.18-1.5.18-.88 0-1.59-.18-2.38-.45-.7-.26-1.33-.7-1.86-1.14a5.26 5.26 0 01-1.23-1.86 7.25 7.25 0 01-.1-4.77c.27-.7.63-1.32 1.16-1.85a6.61 6.61 0 011.76-1.32c.7-.36 1.5-.45 2.39-.45.8 0 1.59.18 2.2.45.71.35 1.24.7 1.68 1.32.44.53.8 1.15 1.06 1.85.27.71.35 1.5.35 2.3 0 .35 0 .62-.08.88h-8.48c.09.89.53 1.5 1.15 1.95.7.44 1.59.61 2.56.61zm2.47-4.68a2.06 2.06 0 00-.88-1.5 3.4 3.4 0 00-1.95-.62c-.35 0-.7.1-1.05.18-.36.09-.62.27-.89.44-.26.18-.53.44-.7.7-.18.27-.27.54-.36.9h5.83v-.1zM67.99 45.74v4.15h5.38v-4.15h2.39v11.3h-2.39v-4.5H68v4.5H65.6v-11.3H68zM79.03 57.04v-11.3h2.38V49h1.94c.62 0 1.15.08 1.68.26s.97.44 1.33.8a3.98 3.98 0 011.23 2.9c0 .63-.09 1.16-.35 1.69-.27.53-.53.88-.88 1.23-.36.36-.89.62-1.33.8-.53.17-1.06.26-1.68.26h-4.32v.09zm4.59-2.47c.53 0 .88-.18 1.23-.44.27-.27.45-.62.45-1.06 0-.44-.18-.89-.45-1.06-.35-.27-.7-.36-1.14-.36H81.5v3h2.12v-.08zM104.99 48.39h-3.62v8.74h-2.39v-8.74h-3.62v-2.56H105v2.56zM111.25 45.74c.53 0 1.06.09 1.6.17.44.18.88.36 1.23.62.35.27.62.62.8.97.17.36.26.89.26 1.33 0 .44-.09.88-.18 1.23-.17.36-.35.62-.7.98.44.26.88.61 1.06 1.06.26.44.35.97.35 1.59 0 .52-.09.97-.35 1.4-.18.45-.53.8-.89 1.07a4.27 4.27 0 01-2.83.97h-4.76v-11.4h4.41zm.36 4.59c.35 0 .62-.09.88-.27a.8.8 0 00.35-.7c0-.35-.08-.62-.35-.8a1.5 1.5 0 00-.88-.26h-2.3v2.03h2.3zm.53 4.33c.35 0 .62-.1.88-.27.27-.18.35-.44.35-.8 0-.35-.08-.52-.35-.79a1.5 1.5 0 00-.88-.26h-2.83v2.2h2.83v-.08zM128.65 49.1c.35.7.44 1.5.44 2.38 0 .88-.18 1.59-.44 2.38-.27.8-.7 1.33-1.24 1.86-.53.53-1.14.97-1.85 1.23-.7.27-1.41.44-2.2.44-.8 0-1.5-.17-2.22-.44-.7-.26-1.32-.7-1.85-1.23a5.26 5.26 0 01-1.24-1.86 6.74 6.74 0 010-4.77c.27-.8.71-1.32 1.24-1.85a5.26 5.26 0 011.85-1.24c.71-.26 1.42-.44 2.21-.44.8 0 1.5.18 2.2.44.72.27 1.33.7 1.86 1.24.53.44.97 1.15 1.24 1.85zm-8.74 2.29c0 .53.09.97.26 1.32a3.18 3.18 0 001.77 1.77 3.54 3.54 0 002.65 0c.44-.18.8-.35 1.06-.7a3.55 3.55 0 00.7-3.8 3.18 3.18 0 00-1.76-1.77 3.55 3.55 0 00-2.65 0c-.44.18-.8.35-1.06.7-.27.36-.53.62-.7 1.07-.18.53-.27.97-.27 1.4zM133.95 45.74v7.33l5.47-7.33h2.39v11.3h-2.3v-7.33l-5.47 7.33h-2.48v-11.3h2.39zM146.66 57.04h-3l4.33-6-3.89-5.3h2.91l2.39 3.35 2.38-3.35h3l-3.8 5.3 4.34 6h-2.92l-2.82-3.97-2.92 3.97zM163.17 54.48c.53-.8 1.06-1.85 1.42-3.1.35-1.23.62-2.82.62-4.67v-.97h7.85v8.74h1.68v5.56h-2.3v-3h-8.12v3h-2.3v-5.56h1.15zm7.51 0v-6.1h-3.18a14.52 14.52 0 01-.7 3.72c-.36 1.06-.71 1.85-.98 2.38h4.86zM187.37 49.1c.35.7.44 1.5.44 2.38 0 .88-.18 1.59-.44 2.38-.27.8-.7 1.33-1.24 1.86-.53.53-1.15.97-1.85 1.23a6.15 6.15 0 01-4.5 0c-.71-.26-1.33-.7-1.86-1.23a5.26 5.26 0 01-1.24-1.86 6.74 6.74 0 010-4.77c.27-.8.71-1.32 1.24-1.85a5.26 5.26 0 011.85-1.24c.71-.26 1.42-.44 2.21-.44.8 0 1.5.18 2.2.44.72.27 1.33.7 1.86 1.24a4 4 0 011.33 1.85zm-8.74 2.29c0 .53.09.97.26 1.32a3.2 3.2 0 001.77 1.77 3.55 3.55 0 002.65 0c.44-.18.8-.35 1.06-.7a3.53 3.53 0 00.97-2.38c0-.54-.1-.98-.27-1.42a3.2 3.2 0 00-1.76-1.77 3.54 3.54 0 00-2.65 0c-.44.18-.8.35-1.06.7-.27.36-.53.62-.7 1.07a4.4 4.4 0 00-.27 1.4zM199.73 55.36c-.18.27-.35.53-.62.8-.26.26-.62.44-.97.62-.35.17-.8.35-1.24.44a6.15 6.15 0 01-3.7-.26c-.71-.27-1.33-.71-1.86-1.24a7.06 7.06 0 01-1.32-1.86 6.74 6.74 0 010-4.77c.26-.7.7-1.32 1.32-1.85A6.81 6.81 0 01193.2 46c.71-.35 1.42-.44 2.21-.44.97 0 1.86.18 2.65.62.7.35 1.24.88 1.5 1.32l-.7 2.03c-.27-.35-.71-.7-1.33-.97a4.1 4.1 0 00-1.85-.44c-1.15 0-2.03.27-2.74.89a3.02 3.02 0 00-1.06 2.38c0 .97.35 1.85 1.06 2.47.7.62 1.59.88 2.74.88.7 0 1.32-.17 1.85-.44.53-.26.97-.62 1.33-.97l.88 2.03zM210.94 48.39h-3.62v8.74h-2.47v-8.74h-3.62v-2.56h9.63v2.56h.08zM215.36 45.74v7.33l5.47-7.33h2.39v11.3h-2.39v-7.33l-5.47 7.33h-2.39v-11.3h2.39zM234.87 50.33l3.97-4.5h3L237 51.2l5.3 5.83h-3.18l-4.24-4.86v4.86h-2.38v-4.86l-4.24 4.86h-3.18l5.3-5.83-4.77-5.38h3l3.98 4.5v-4.5h2.38v4.5h-.09zM248.56 54.83c.7 0 1.41-.17 2.03-.44a3 3 0 001.41-1.06l.7 1.86c-.17.26-.34.53-.61.8-.27.26-.62.43-.97.7-.36.17-.8.35-1.24.44-.44.09-.88.26-1.41.26-.88 0-1.59-.17-2.38-.44-.71-.26-1.33-.7-1.86-1.15a5.27 5.27 0 01-1.23-1.85 7.25 7.25 0 01-.1-4.77c.27-.7.63-1.32 1.16-1.85a6.6 6.6 0 011.76-1.33c.7-.35 1.5-.44 2.39-.44.79 0 1.58.18 2.2.44.7.36 1.24.7 1.68 1.33.44.62.8 1.15 1.06 1.85.26.7.35 1.5.35 2.3 0 .35 0 .62-.09.88h-8.47c.09.88.53 1.5 1.15 1.94.7.36 1.5.53 2.47.53zm2.47-4.68a2.06 2.06 0 00-.88-1.5 3.39 3.39 0 00-1.94-.62c-.36 0-.71.1-1.06.18-.36.09-.62.27-.89.44-.26.18-.53.44-.7.7-.18.27-.27.54-.36.9h5.83v-.1zM258.45 45.74v4.15h5.38v-4.15h2.39v11.3h-2.39v-4.5h-5.38v4.5h-2.39v-11.3h2.39zM271.87 45.74v7.33l5.47-7.33h2.39v11.3h-2.39v-7.33l-5.47 7.33h-2.39v-11.3h2.39zM285.29 45.74v7.33l5.47-7.33h2.39v11.3h-2.39v-7.33l-5.47 7.33h-2.39v-11.3h2.39zm6.44-4.5c0 .52-.08.97-.26 1.32-.18.44-.44.8-.8 1.06a5 5 0 01-1.14.7 4 4 0 01-2.83 0c-.44-.17-.88-.35-1.15-.7a2.4 2.4 0 01-.79-1.06 3.54 3.54 0 01-.26-1.33l2.02-.35c0 .44.18.7.45 1.06.26.27.7.44 1.14.44.53 0 .89-.17 1.24-.44.27-.26.44-.62.44-1.06l1.94.35z" fill="#344887"/></g><defs><clipPath id="clip0"><path fill="#fff" d="M0 0h312.75v60.04H0z"/></clipPath></defs></svg>