<svg width="316" height="80" viewBox="0 0 316 80" fill="none" xmlns="http://www.w3.org/2000/svg">
<path d="M7.24085 48.9045H0V13.0527H6.99456V15.6795C7.4543 14.7391 8.34093 13.9445 9.65446 13.2959C10.968 12.6473 12.6427 12.323 14.6787 12.323C16.3863 12.323 18.0118 12.6473 19.5552 13.2959C21.1314 13.9445 22.5107 14.8688 23.6928 16.0687C24.875 17.2362 25.8109 18.6469 26.5005 20.3009C27.223 21.9548 27.5842 23.7871 27.5842 25.7978C27.5842 27.8085 27.223 29.6408 26.5005 31.2948C25.8109 32.9487 24.875 34.3757 23.6928 35.5756C22.5107 36.7431 21.1314 37.6511 19.5552 38.2997C18.0118 38.9483 16.3863 39.2726 14.6787 39.2726C12.8069 39.2726 11.2143 38.9483 9.90075 38.2997C8.58722 37.6511 7.70058 36.8566 7.24085 35.9161V48.9045ZM7.24085 28.7652C7.60207 29.6084 8.35735 30.3056 9.50669 30.857C10.656 31.4083 11.9696 31.6839 13.4473 31.6839C15.4504 31.6839 17.0759 31.1326 18.3238 30.03C19.6045 28.9273 20.2448 27.5166 20.2448 25.7978C20.2448 24.079 19.6045 22.6683 18.3238 21.5657C17.0759 20.463 15.4504 19.9117 13.4473 19.9117C11.9696 19.9117 10.656 20.1874 9.50669 20.7387C8.35735 21.29 7.60207 21.9873 7.24085 22.8304V28.7652Z" fill="#001B71"/>
<path d="M47.5777 20.9333C47.2165 20.6738 46.7403 20.4468 46.1492 20.2522C45.591 20.0252 44.9506 19.9117 44.2282 19.9117C42.9475 19.9117 41.8474 20.236 40.9279 20.8846C40.0085 21.5008 39.3845 22.4413 39.0562 23.7061V38.543H31.8153V13.0527H38.8099V16.4092C39.2039 15.1769 39.8935 14.1877 40.8787 13.4418C41.8638 12.6959 43.0624 12.323 44.4745 12.323C45.4268 12.323 46.2806 12.5338 47.0359 12.9554C47.7911 13.3446 48.3166 13.7986 48.6121 14.3175L47.5777 20.9333Z" fill="#001B71"/>
<path d="M51.8008 13.0527H59.0416V38.543H51.8008V13.0527ZM52.047 8.91781C51.1604 8.00976 50.7171 6.90713 50.7171 5.60991C50.7171 4.3127 51.1604 3.21007 52.047 2.30202C52.9665 1.39397 54.083 0.939941 55.3965 0.939941C56.7101 0.939941 57.8266 1.39397 58.746 2.30202C59.6655 3.21007 60.1253 4.3127 60.1253 5.60991C60.1253 6.90713 59.6655 8.00976 58.746 8.91781C57.8266 9.79343 56.7101 10.2312 55.3965 10.2312C54.083 10.2312 52.9665 9.79343 52.047 8.91781Z" fill="#001B71"/>
<path d="M72.0383 13.3446C73.713 12.6635 75.4863 12.323 77.3581 12.323C79.2298 12.323 81.0031 12.6635 82.6779 13.3446C84.3526 14.0256 85.8303 14.9661 87.111 16.166C88.3917 17.3335 89.4097 18.7442 90.165 20.3982C90.9203 22.0521 91.2979 23.852 91.2979 25.7978C91.2979 27.7436 90.9203 29.5435 90.165 31.1975C89.4097 32.8514 88.3917 34.2784 87.111 35.4783C85.8303 36.6458 84.3526 37.57 82.6779 38.2511C81.0031 38.9321 79.2298 39.2726 77.3581 39.2726C75.4863 39.2726 73.713 38.9321 72.0383 38.2511C70.3635 37.57 68.8858 36.6458 67.6051 35.4783C66.3244 34.2784 65.3064 32.8514 64.5511 31.1975C63.7958 29.5435 63.4182 27.7436 63.4182 25.7978C63.4182 23.852 63.7958 22.0521 64.5511 20.3982C65.3064 18.7442 66.3244 17.3335 67.6051 16.166C68.8858 14.9661 70.3635 14.0256 72.0383 13.3446ZM74.7967 31.2461C75.6176 31.538 76.4714 31.6839 77.3581 31.6839C78.2447 31.6839 79.0821 31.538 79.8702 31.2461C80.6911 30.9542 81.3972 30.5651 81.9883 30.0786C82.6122 29.5597 83.0883 28.9436 83.4167 28.2301C83.7779 27.4842 83.9586 26.6734 83.9586 25.7978C83.9586 24.9222 83.7779 24.1277 83.4167 23.4142C83.0883 22.6683 82.6122 22.0521 81.9883 21.5657C81.3972 21.0468 80.6911 20.6414 79.8702 20.3495C79.0821 20.0576 78.2447 19.9117 77.3581 19.9117C76.4714 19.9117 75.6176 20.0576 74.7967 20.3495C74.0085 20.6414 73.3025 21.0468 72.6786 21.5657C72.0875 22.0521 71.6114 22.6683 71.2501 23.4142C70.9217 24.1277 70.7576 24.9222 70.7576 25.7978C70.7576 26.6734 70.9217 27.4842 71.2501 28.2301C71.6114 28.9436 72.0875 29.5597 72.6786 30.0786C73.3025 30.5651 74.0085 30.9542 74.7967 31.2461Z" fill="#001B71"/>
<path d="M111.276 20.9333C110.914 20.6738 110.438 20.4468 109.847 20.2522C109.289 20.0252 108.649 19.9117 107.926 19.9117C106.645 19.9117 105.545 20.236 104.626 20.8846C103.706 21.5008 103.083 22.4413 102.754 23.7061V38.543H95.5133V13.0527H102.508V16.4092C102.902 15.1769 103.591 14.1877 104.577 13.4418C105.562 12.6959 106.76 12.323 108.172 12.323C109.125 12.323 109.979 12.5338 110.734 12.9554C111.489 13.3446 112.015 13.7986 112.31 14.3175L111.276 20.9333Z" fill="#001B71"/>
<path d="M115.499 13.0527H122.74V38.543H115.499V13.0527ZM115.745 8.91781C114.858 8.00976 114.415 6.90713 114.415 5.60991C114.415 4.3127 114.858 3.21007 115.745 2.30202C116.664 1.39397 117.781 0.939941 119.095 0.939941C120.408 0.939941 121.525 1.39397 122.444 2.30202C123.363 3.21007 123.823 4.3127 123.823 5.60991C123.823 6.90713 123.363 8.00976 122.444 8.91781C121.525 9.79343 120.408 10.2312 119.095 10.2312C117.781 10.2312 116.664 9.79343 115.745 8.91781Z" fill="#001B71"/>
<path d="M145.883 36.4512C145.226 37.262 144.323 37.943 143.174 38.4943C142.058 39.0132 140.728 39.2726 139.184 39.2726C136.262 39.2726 134.094 38.4619 132.682 36.8404C131.27 35.2188 130.564 33.1109 130.564 30.5164V20.5441H126.18V18.501L136.032 6.63147H137.805V13.0527H145.538V20.5441H137.805V28.8625C137.805 29.9003 138.068 30.6299 138.593 31.0515C139.151 31.4731 139.808 31.6839 140.563 31.6839C141.91 31.6839 143.174 31.084 144.356 29.884L145.883 36.4512Z" fill="#001B71"/>
<path d="M147.793 13.0527H155.576L161.733 27.3545L167.89 13.0527H175.87L160.403 48.9045H152.522L157.891 36.4998L147.793 13.0527Z" fill="#001B71"/>
<path d="M188.5 18.0491C187.855 18.0491 187.317 18.1583 186.78 18.3768C186.242 18.5952 185.812 18.8137 185.274 19.1414C184.844 19.4691 184.414 19.7968 184.092 20.2337C183.769 20.6706 183.447 21.1075 183.124 21.5445L180.866 17.5029C181.081 16.7383 181.404 15.9737 181.834 15.3183C182.264 14.6629 182.909 14.0075 183.554 13.5706C184.199 13.0244 185.059 12.6967 185.919 12.3691C186.78 12.0414 187.747 11.9321 188.822 11.9321C190.22 11.9321 191.403 12.1506 192.37 12.5875C193.446 13.0244 194.306 13.5706 194.951 14.3352C195.703 15.0998 196.241 15.9737 196.563 16.9568C197.101 17.9398 197.316 18.9229 197.316 20.1244C197.316 21.1075 197.209 21.9814 196.994 22.746C196.779 23.5106 196.456 24.2752 196.026 25.0398C195.596 25.8045 195.058 26.5691 194.413 27.3337C193.768 28.0983 193.015 28.9722 192.263 29.9552L189.682 32.9045H197.854V38.9122H181.081V34.3245L188.5 26.1322C189.037 25.586 189.467 25.0398 189.898 24.6029C190.328 24.166 190.65 23.7291 190.865 23.2921C191.08 22.8552 191.295 22.5275 191.403 22.0906C191.51 21.7629 191.618 21.326 191.618 20.7798C191.618 20.0152 191.295 19.3598 190.758 18.8137C190.22 18.2675 189.467 18.0491 188.5 18.0491Z" fill="#EA0029"/>
<path d="M209.486 12.8957C211.125 12.2533 212.983 11.9321 214.841 11.9321C216.699 11.9321 218.557 12.2533 220.197 12.8957C221.836 13.5381 223.366 14.5017 224.678 15.6794C225.989 16.8571 226.973 18.3559 227.738 19.9619C228.503 21.6749 228.831 23.495 228.831 25.4222C228.831 27.4564 228.503 29.2764 227.738 30.8824C226.973 32.5954 225.989 33.9872 224.678 35.1649C223.366 36.3426 221.945 37.3062 220.197 37.9486C218.448 38.591 216.699 38.9122 214.841 38.9122C212.983 38.9122 211.125 38.591 209.486 37.9486C207.737 37.3062 206.316 36.3426 205.005 35.1649C203.693 33.9872 202.71 32.4884 201.945 30.8824C201.179 29.2764 200.852 27.3493 200.852 25.4222C200.852 23.3879 201.179 21.5679 201.945 19.9619C202.71 18.2489 203.693 16.8571 205.005 15.6794C206.316 14.3946 207.846 13.5381 209.486 12.8957ZM214.841 33.0237C215.934 33.0237 217.027 32.8095 218.011 32.4884C218.994 32.0601 219.869 31.6318 220.634 30.8824C221.399 30.24 221.945 29.3835 222.383 28.527C222.82 27.5634 223.038 26.5999 223.038 25.4222C223.038 24.3515 222.82 23.2809 222.383 22.3173C221.945 21.3537 221.399 20.6043 220.634 19.8548C219.869 19.2125 218.994 18.6771 218.011 18.2489C217.027 17.8206 215.934 17.7136 214.841 17.7136C213.639 17.7136 212.655 17.9277 211.562 18.2489C210.579 18.6771 209.704 19.1054 208.939 19.8548C208.174 20.4972 207.628 21.3537 207.191 22.3173C206.753 23.2809 206.535 24.2445 206.535 25.4222C206.535 26.5999 206.753 27.5634 207.191 28.527C207.628 29.4906 208.174 30.24 208.939 30.8824C209.704 31.5248 210.579 32.0601 211.562 32.4884C212.655 32.9166 213.639 33.0237 214.841 33.0237Z" fill="#EA0029"/>
<path d="M237.762 33.7597C238.991 33.7597 239.996 33.436 240.666 32.8964C241.448 32.3568 241.783 31.6013 241.783 30.6301C241.783 29.7667 241.448 29.1192 240.778 28.5796C240.108 28.04 239.214 27.8241 238.097 27.8241C237.315 27.8241 236.644 27.9321 236.086 28.04C235.527 28.2558 235.08 28.3637 234.857 28.5796L233.963 24.4786L238.655 18.8668H231.17V12.9312H246.364V17.248L241.783 22.7519C242.454 22.8598 243.124 23.1836 243.794 23.5073C244.465 23.8311 245.135 24.3707 245.805 25.0182C246.476 25.6657 246.923 26.4212 247.258 27.3925C247.593 28.3637 247.816 29.4429 247.816 30.8459C247.816 32.1409 247.593 33.2201 247.146 34.2993C246.699 35.3785 246.029 36.3498 245.135 37.2132C244.241 38.0766 243.236 38.7241 242.007 39.1558C240.778 39.5874 239.437 39.9112 237.873 39.9112C236.756 39.9112 235.751 39.8033 234.857 39.5874C233.963 39.3716 233.181 39.0478 232.511 38.6162C231.841 38.1845 231.282 37.7528 230.835 37.3211C230.388 36.7815 230.053 36.3498 229.83 35.8102L231.17 30.9538C231.952 31.8172 232.846 32.4647 233.851 33.1122C234.633 33.436 236.086 33.7597 237.762 33.7597Z" fill="#EA0029"/>
<path d="M258.449 12.8957C260.089 12.2533 261.947 11.9321 263.805 11.9321C265.663 11.9321 267.521 12.2533 269.16 12.8957C270.799 13.5381 272.33 14.5017 273.641 15.6794C274.953 16.8571 275.936 18.3559 276.701 19.9619C277.466 21.6749 277.794 23.495 277.794 25.4222C277.794 27.4564 277.466 29.2764 276.701 30.8824C275.936 32.5954 274.953 33.9872 273.641 35.1649C272.33 36.3426 270.909 37.3062 269.16 37.9486C267.411 38.591 265.663 38.9122 263.805 38.9122C261.947 38.9122 260.089 38.591 258.449 37.9486C256.7 37.3062 255.28 36.3426 253.968 35.1649C252.657 33.9872 251.673 32.4884 250.908 30.8824C250.143 29.2764 249.815 27.3493 249.815 25.4222C249.815 23.3879 250.143 21.5679 250.908 19.9619C251.673 18.2489 252.657 16.8571 253.968 15.6794C255.28 14.3946 256.81 13.5381 258.449 12.8957ZM263.805 33.0237C264.898 33.0237 265.99 32.8095 266.974 32.4884C267.958 32.0601 268.832 31.6318 269.597 30.8824C270.362 30.24 270.909 29.3835 271.346 28.527C271.783 27.5634 272.002 26.5999 272.002 25.4222C272.002 24.3515 271.783 23.2809 271.346 22.3173C270.909 21.3537 270.362 20.6043 269.597 19.8548C268.832 19.2125 267.958 18.6771 266.974 18.2489C265.99 17.8206 264.898 17.7136 263.805 17.7136C262.602 17.7136 261.619 17.9277 260.526 18.2489C259.542 18.6771 258.668 19.1054 257.903 19.8548C257.138 20.4972 256.591 21.3537 256.154 22.3173C255.717 23.2809 255.498 24.2445 255.498 25.4222C255.498 26.5999 255.717 27.5634 256.154 28.527C256.591 29.4906 257.138 30.24 257.903 30.8824C258.668 31.5248 259.542 32.0601 260.526 32.4884C261.619 32.9166 262.712 33.0237 263.805 33.0237Z" fill="#EA0029"/>
<path d="M291.147 8H285.958L279.994 18.3777H285.183L291.147 8Z" fill="#EA0029"/>
<path d="M285.958 8H291.147L297.161 18.3777H291.972L285.958 8Z" fill="#EA0029"/>
<path d="M0 57.7939H3.048V75.2659H0V57.7939Z" fill="#EA0029"/>
<path d="M12.6071 72.5299C13.3751 72.5299 14.1111 72.3939 14.8151 72.1219C15.5191 71.8339 16.0471 71.4579 16.3991 70.9939L17.3351 73.3459C16.9511 73.9859 16.3351 74.5219 15.4871 74.9539C14.6551 75.3859 13.6631 75.6019 12.5111 75.6019C11.5671 75.6019 10.6871 75.4499 9.87113 75.1459C9.07113 74.8419 8.37512 74.4099 7.78312 73.8499C7.19112 73.2899 6.72712 72.6099 6.39112 71.8099C6.05512 71.0099 5.88713 70.1059 5.88713 69.0979C5.88713 68.2179 6.03113 67.3859 6.31913 66.6019C6.62313 65.8179 7.04712 65.1299 7.59113 64.5379C8.15112 63.9299 8.81512 63.4499 9.58313 63.0979C10.3671 62.7459 11.2471 62.5699 12.2231 62.5699C13.1351 62.5699 13.9591 62.7539 14.6951 63.1219C15.4471 63.4739 16.0791 63.9539 16.5911 64.5619C17.1191 65.1539 17.5271 65.8419 17.8151 66.6259C18.1031 67.4099 18.2471 68.2339 18.2471 69.0979C18.2471 69.2739 18.2391 69.4659 18.2231 69.6739C18.2231 69.8659 18.2071 70.0339 18.1751 70.1779H9.00712C9.15112 70.9939 9.55113 71.5939 10.2071 71.9779C10.8631 72.3459 11.6631 72.5299 12.6071 72.5299ZM15.1271 67.6819C15.0311 67.0259 14.7111 66.5299 14.1671 66.1939C13.6231 65.8419 12.9751 65.6659 12.2231 65.6659C11.4711 65.6659 10.7991 65.8419 10.2071 66.1939C9.61513 66.5299 9.25513 67.0259 9.12712 67.6819H15.1271Z" fill="#EA0029"/>
<path d="M28.0543 70.8259C27.9263 70.6019 27.6463 70.4099 27.2143 70.2499C26.7823 70.0739 26.2863 69.9859 25.7263 69.9859C24.9263 69.9859 24.3263 70.1139 23.9263 70.3699C23.5263 70.6259 23.3263 70.9619 23.3263 71.3779C23.3263 71.7939 23.5263 72.1299 23.9263 72.3859C24.3423 72.6259 24.9343 72.7459 25.7023 72.7459C26.2623 72.7459 26.7583 72.6499 27.1903 72.4579C27.6223 72.2499 27.9103 72.0019 28.0543 71.7139V70.8259ZM20.9023 64.7539C21.1263 64.4019 21.4063 64.0899 21.7423 63.8179C22.0943 63.5459 22.4783 63.3219 22.8943 63.1459C23.3103 62.9539 23.7503 62.8099 24.2143 62.7139C24.6943 62.6179 25.1743 62.5699 25.6543 62.5699C26.4703 62.5699 27.2063 62.6819 27.8623 62.9059C28.5343 63.1299 29.1103 63.4499 29.5903 63.8659C30.0703 64.2819 30.4383 64.8019 30.6943 65.4259C30.9663 66.0339 31.1023 66.7299 31.1023 67.5139V75.2659H28.1503V74.1859C27.8463 74.6499 27.3743 75.0019 26.7343 75.2419C26.0943 75.4819 25.4383 75.6019 24.7663 75.6019C24.1103 75.6019 23.5103 75.5059 22.9663 75.3139C22.4223 75.1219 21.9423 74.8579 21.5263 74.5219C21.1263 74.1699 20.8143 73.7459 20.5903 73.2499C20.3663 72.7379 20.2543 72.1699 20.2543 71.5459C20.2543 70.8899 20.3823 70.3139 20.6383 69.8179C20.9103 69.3059 21.2703 68.8819 21.7183 68.5459C22.1663 68.1939 22.6783 67.9299 23.2543 67.7539C23.8463 67.5779 24.4543 67.4899 25.0783 67.4899C25.8783 67.4899 26.5263 67.5859 27.0223 67.7779C27.5343 67.9539 27.8783 68.1459 28.0543 68.3539V68.0179C28.0543 67.2979 27.8143 66.7219 27.3343 66.2899C26.8703 65.8579 26.1823 65.6419 25.2703 65.6419C24.4863 65.6419 23.7743 65.7939 23.1343 66.0979C22.5103 66.4019 22.0143 66.7859 21.6463 67.2499L20.9023 64.7539Z" fill="#EA0029"/>
<path d="M34.3521 71.7379C34.0161 70.9379 33.8481 70.0579 33.8481 69.0979C33.8481 68.1379 34.0161 67.2579 34.3521 66.4579C34.7041 65.6579 35.1681 64.9699 35.7441 64.3939C36.3201 63.8179 36.9841 63.3699 37.7361 63.0499C38.4881 62.7299 39.2721 62.5699 40.0881 62.5699C41.0001 62.5699 41.7761 62.7299 42.4161 63.0499C43.0721 63.3539 43.5041 63.7379 43.7121 64.2019V57.7939H46.7601V75.2659H43.8081V73.9699C43.6001 74.4339 43.1601 74.8259 42.4881 75.1459C41.8321 75.4499 41.0481 75.6019 40.1361 75.6019C39.3041 75.6019 38.5041 75.4499 37.7361 75.1459C36.9841 74.8259 36.3201 74.3779 35.7441 73.8019C35.1681 73.2259 34.7041 72.5379 34.3521 71.7379ZM37.1841 67.7779C37.0081 68.1779 36.9201 68.6179 36.9201 69.0979C36.9201 69.5779 37.0081 70.0179 37.1841 70.4179C37.3601 70.8179 37.6001 71.1619 37.9041 71.4499C38.2241 71.7379 38.6001 71.9619 39.0321 72.1219C39.4801 72.2819 39.9681 72.3619 40.4961 72.3619C41.2641 72.3619 41.9441 72.2099 42.5361 71.9059C43.1281 71.5859 43.5201 71.1939 43.7121 70.7299V67.4419C43.5201 66.9779 43.1281 66.5939 42.5361 66.2899C41.9441 65.9699 41.2641 65.8099 40.4961 65.8099C39.9681 65.8099 39.4801 65.8899 39.0321 66.0499C38.6001 66.2099 38.2241 66.4339 37.9041 66.7219C37.6001 67.0099 37.3601 67.3619 37.1841 67.7779Z" fill="#EA0029"/>
<path d="M56.3181 72.5299C57.0861 72.5299 57.8221 72.3939 58.5261 72.1219C59.2301 71.8339 59.7581 71.4579 60.1101 70.9939L61.0461 73.3459C60.6621 73.9859 60.0461 74.5219 59.1981 74.9539C58.3661 75.3859 57.3741 75.6019 56.2221 75.6019C55.2781 75.6019 54.3981 75.4499 53.5821 75.1459C52.7821 74.8419 52.0861 74.4099 51.4941 73.8499C50.9021 73.2899 50.4381 72.6099 50.1021 71.8099C49.7661 71.0099 49.5981 70.1059 49.5981 69.0979C49.5981 68.2179 49.7421 67.3859 50.0301 66.6019C50.3341 65.8179 50.7581 65.1299 51.3021 64.5379C51.8621 63.9299 52.5261 63.4499 53.2941 63.0979C54.0781 62.7459 54.9581 62.5699 55.9341 62.5699C56.8461 62.5699 57.6701 62.7539 58.4061 63.1219C59.1581 63.4739 59.7901 63.9539 60.3021 64.5619C60.8301 65.1539 61.2381 65.8419 61.5261 66.6259C61.8141 67.4099 61.9581 68.2339 61.9581 69.0979C61.9581 69.2739 61.9501 69.4659 61.9341 69.6739C61.9341 69.8659 61.9181 70.0339 61.8861 70.1779H52.7181C52.8621 70.9939 53.2621 71.5939 53.9181 71.9779C54.5741 72.3459 55.3741 72.5299 56.3181 72.5299ZM58.8381 67.6819C58.7421 67.0259 58.4221 66.5299 57.8781 66.1939C57.3341 65.8419 56.6861 65.6659 55.9341 65.6659C55.1821 65.6659 54.5101 65.8419 53.9181 66.1939C53.3261 66.5299 52.9661 67.0259 52.8381 67.6819H58.8381Z" fill="#EA0029"/>
<path d="M72.0293 66.3139C71.8532 66.1859 71.6213 66.0739 71.3333 65.9779C71.0612 65.8659 70.7492 65.8099 70.3972 65.8099C69.6772 65.8099 69.1012 66.0099 68.6693 66.4099C68.2373 66.7939 67.9572 67.2659 67.8292 67.8259V75.2659H64.7812V62.9059H67.7333V64.5379C67.9093 63.9619 68.2293 63.4899 68.6933 63.1219C69.1733 62.7539 69.7653 62.5699 70.4693 62.5699C70.9333 62.5699 71.3413 62.6659 71.6933 62.8579C72.0452 63.0339 72.3012 63.2499 72.4613 63.5059L72.0293 66.3139Z" fill="#EA0029"/>
<path d="M77.1896 69.9139C76.1816 69.4019 75.4296 68.8419 74.9336 68.2339C74.4536 67.6259 74.2136 66.9299 74.2136 66.1459C74.2136 65.6659 74.3096 65.2099 74.5016 64.7779C74.6936 64.3299 74.9656 63.9459 75.3176 63.6259C75.6856 63.3059 76.1096 63.0499 76.5896 62.8579C77.0856 62.6659 77.6376 62.5699 78.2456 62.5699C79.1576 62.5699 79.9416 62.7459 80.5976 63.0979C81.2536 63.4339 81.7256 63.8259 82.0136 64.2739L81.4376 66.9859C80.9416 66.5059 80.4056 66.1699 79.8296 65.9779C79.2536 65.7859 78.7496 65.6899 78.3176 65.6899C77.6296 65.6899 77.2856 65.8899 77.2856 66.2899C77.2856 66.4819 77.3656 66.6419 77.5256 66.7699C77.6856 66.8819 77.9336 67.0259 78.2696 67.2019L79.4216 67.8019C80.4296 68.3139 81.1976 68.8659 81.7256 69.4579C82.2536 70.0499 82.5176 70.8099 82.5176 71.7379C82.5176 72.2979 82.4136 72.8099 82.2056 73.2739C81.9976 73.7379 81.6936 74.1459 81.2936 74.4979C80.9096 74.8499 80.4456 75.1219 79.9016 75.3139C79.3576 75.5059 78.7496 75.6019 78.0776 75.6019C77.0216 75.6019 76.1336 75.3859 75.4136 74.9539C74.6936 74.5219 74.1816 74.0339 73.8776 73.4899L74.7416 70.8019C74.8856 70.9939 75.0616 71.1939 75.2696 71.4019C75.4936 71.6099 75.7496 71.8019 76.0376 71.9779C76.3256 72.1379 76.6456 72.2739 76.9976 72.3859C77.3496 72.4819 77.7416 72.5299 78.1736 72.5299C78.5416 72.5299 78.8536 72.4659 79.1096 72.3379C79.3656 72.2099 79.4936 71.9939 79.4936 71.6899C79.4936 71.4179 79.3896 71.2019 79.1816 71.0419C78.9736 70.8659 78.6536 70.6659 78.2216 70.4419L77.1896 69.9139Z" fill="#EA0029"/>
<path d="M98.8356 70.8259C98.7076 70.6019 98.4276 70.4099 97.9956 70.2499C97.5636 70.0739 97.0676 69.9859 96.5076 69.9859C95.7076 69.9859 95.1076 70.1139 94.7076 70.3699C94.3076 70.6259 94.1076 70.9619 94.1076 71.3779C94.1076 71.7939 94.3076 72.1299 94.7076 72.3859C95.1236 72.6259 95.7156 72.7459 96.4836 72.7459C97.0436 72.7459 97.5396 72.6499 97.9716 72.4579C98.4036 72.2499 98.6916 72.0019 98.8356 71.7139V70.8259ZM91.6836 64.7539C91.9076 64.4019 92.1876 64.0899 92.5236 63.8179C92.8756 63.5459 93.2596 63.3219 93.6756 63.1459C94.0916 62.9539 94.5316 62.8099 94.9956 62.7139C95.4756 62.6179 95.9556 62.5699 96.4356 62.5699C97.2516 62.5699 97.9876 62.6819 98.6436 62.9059C99.3156 63.1299 99.8916 63.4499 100.372 63.8659C100.852 64.2819 101.22 64.8019 101.476 65.4259C101.748 66.0339 101.884 66.7299 101.884 67.5139V75.2659H98.9316V74.1859C98.6276 74.6499 98.1556 75.0019 97.5156 75.2419C96.8756 75.4819 96.2196 75.6019 95.5476 75.6019C94.8916 75.6019 94.2916 75.5059 93.7476 75.3139C93.2036 75.1219 92.7236 74.8579 92.3076 74.5219C91.9076 74.1699 91.5956 73.7459 91.3716 73.2499C91.1476 72.7379 91.0356 72.1699 91.0356 71.5459C91.0356 70.8899 91.1636 70.3139 91.4196 69.8179C91.6916 69.3059 92.0516 68.8819 92.4996 68.5459C92.9476 68.1939 93.4596 67.9299 94.0356 67.7539C94.6276 67.5779 95.2356 67.4899 95.8596 67.4899C96.6596 67.4899 97.3076 67.5859 97.8036 67.7779C98.3156 67.9539 98.6596 68.1459 98.8356 68.3539V68.0179C98.8356 67.2979 98.5956 66.7219 98.1156 66.2899C97.6516 65.8579 96.9636 65.6419 96.0516 65.6419C95.2676 65.6419 94.5556 65.7939 93.9156 66.0979C93.2916 66.4019 92.7956 66.7859 92.4276 67.2499L91.6836 64.7539Z" fill="#EA0029"/>
<path d="M112.693 66.3139C112.517 66.1859 112.285 66.0739 111.997 65.9779C111.725 65.8659 111.413 65.8099 111.061 65.8099C110.341 65.8099 109.765 66.0099 109.333 66.4099C108.901 66.7939 108.621 67.2659 108.493 67.8259V75.2659H105.445V62.9059H108.397V64.5379C108.573 63.9619 108.893 63.4899 109.357 63.1219C109.837 62.7539 110.429 62.5699 111.133 62.5699C111.597 62.5699 112.005 62.6659 112.357 62.8579C112.709 63.0339 112.965 63.2499 113.125 63.5059L112.693 66.3139Z" fill="#EA0029"/>
<path d="M120.982 72.5299C121.75 72.5299 122.486 72.3939 123.19 72.1219C123.894 71.8339 124.422 71.4579 124.774 70.9939L125.71 73.3459C125.326 73.9859 124.71 74.5219 123.862 74.9539C123.03 75.3859 122.038 75.6019 120.886 75.6019C119.942 75.6019 119.062 75.4499 118.246 75.1459C117.446 74.8419 116.75 74.4099 116.158 73.8499C115.566 73.2899 115.102 72.6099 114.766 71.8099C114.43 71.0099 114.262 70.1059 114.262 69.0979C114.262 68.2179 114.406 67.3859 114.694 66.6019C114.998 65.8179 115.422 65.1299 115.966 64.5379C116.526 63.9299 117.19 63.4499 117.958 63.0979C118.742 62.7459 119.622 62.5699 120.598 62.5699C121.51 62.5699 122.334 62.7539 123.07 63.1219C123.822 63.4739 124.454 63.9539 124.966 64.5619C125.494 65.1539 125.902 65.8419 126.19 66.6259C126.478 67.4099 126.622 68.2339 126.622 69.0979C126.622 69.2739 126.614 69.4659 126.598 69.6739C126.598 69.8659 126.582 70.0339 126.55 70.1779H117.382C117.526 70.9939 117.926 71.5939 118.582 71.9779C119.238 72.3459 120.038 72.5299 120.982 72.5299ZM123.502 67.6819C123.406 67.0259 123.086 66.5299 122.542 66.1939C121.998 65.8419 121.35 65.6659 120.598 65.6659C119.846 65.6659 119.174 65.8419 118.582 66.1939C117.99 66.5299 117.63 67.0259 117.502 67.6819H123.502Z" fill="#EA0029"/>
<path d="M150.026 62.5699C150.618 62.5699 151.202 62.6739 151.778 62.8819C152.37 63.0899 152.898 63.4019 153.362 63.8179C153.826 64.2339 154.202 64.7699 154.49 65.4259C154.794 66.0659 154.946 66.8179 154.946 67.6819V75.2659H151.898V68.3539C151.898 67.5379 151.666 66.9139 151.202 66.4819C150.754 66.0339 150.194 65.8099 149.522 65.8099C148.914 65.8099 148.362 65.9859 147.866 66.3379C147.37 66.6739 147.066 67.0979 146.954 67.6099V75.2659H143.906V68.3299C143.906 67.5139 143.674 66.8899 143.21 66.4579C142.762 66.0259 142.194 65.8099 141.506 65.8099C140.898 65.8099 140.346 65.9859 139.85 66.3379C139.37 66.6739 139.074 67.0979 138.962 67.6099V75.2659H135.914V62.9059H138.866V64.1539C139.026 63.7059 139.378 63.3299 139.922 63.0259C140.482 62.7219 141.186 62.5699 142.034 62.5699C142.754 62.5699 143.45 62.7219 144.122 63.0259C144.81 63.3139 145.402 63.7619 145.898 64.3699C146.394 63.6979 146.986 63.2339 147.674 62.9779C148.378 62.7059 149.162 62.5699 150.026 62.5699Z" fill="#EA0029"/>
<path d="M165.351 70.8259C165.223 70.6019 164.943 70.4099 164.511 70.2499C164.079 70.0739 163.583 69.9859 163.023 69.9859C162.223 69.9859 161.623 70.1139 161.223 70.3699C160.823 70.6259 160.623 70.9619 160.623 71.3779C160.623 71.7939 160.823 72.1299 161.223 72.3859C161.639 72.6259 162.231 72.7459 162.999 72.7459C163.559 72.7459 164.055 72.6499 164.487 72.4579C164.919 72.2499 165.207 72.0019 165.351 71.7139V70.8259ZM158.199 64.7539C158.423 64.4019 158.703 64.0899 159.039 63.8179C159.391 63.5459 159.775 63.3219 160.191 63.1459C160.607 62.9539 161.047 62.8099 161.511 62.7139C161.991 62.6179 162.471 62.5699 162.951 62.5699C163.767 62.5699 164.503 62.6819 165.159 62.9059C165.831 63.1299 166.407 63.4499 166.887 63.8659C167.367 64.2819 167.735 64.8019 167.991 65.4259C168.263 66.0339 168.399 66.7299 168.399 67.5139V75.2659H165.447V74.1859C165.143 74.6499 164.671 75.0019 164.031 75.2419C163.391 75.4819 162.735 75.6019 162.063 75.6019C161.407 75.6019 160.807 75.5059 160.263 75.3139C159.719 75.1219 159.239 74.8579 158.823 74.5219C158.423 74.1699 158.111 73.7459 157.887 73.2499C157.663 72.7379 157.551 72.1699 157.551 71.5459C157.551 70.8899 157.679 70.3139 157.935 69.8179C158.207 69.3059 158.567 68.8819 159.015 68.5459C159.463 68.1939 159.975 67.9299 160.551 67.7539C161.143 67.5779 161.751 67.4899 162.375 67.4899C163.175 67.4899 163.823 67.5859 164.319 67.7779C164.831 67.9539 165.175 68.1459 165.351 68.3539V68.0179C165.351 67.2979 165.111 66.7219 164.631 66.2899C164.167 65.8579 163.479 65.6419 162.567 65.6419C161.783 65.6419 161.071 65.7939 160.431 66.0979C159.807 66.4019 159.311 66.7859 158.943 67.2499L158.199 64.7539Z" fill="#EA0029"/>
<path d="M171.649 71.7379C171.313 70.9379 171.145 70.0579 171.145 69.0979C171.145 68.1379 171.313 67.2579 171.649 66.4579C172.001 65.6579 172.465 64.9699 173.041 64.3939C173.617 63.8179 174.281 63.3699 175.033 63.0499C175.785 62.7299 176.569 62.5699 177.385 62.5699C178.297 62.5699 179.073 62.7299 179.713 63.0499C180.369 63.3539 180.801 63.7379 181.009 64.2019V57.7939H184.057V75.2659H181.105V73.9699C180.897 74.4339 180.457 74.8259 179.785 75.1459C179.129 75.4499 178.345 75.6019 177.433 75.6019C176.601 75.6019 175.801 75.4499 175.033 75.1459C174.281 74.8259 173.617 74.3779 173.041 73.8019C172.465 73.2259 172.001 72.5379 171.649 71.7379ZM174.481 67.7779C174.305 68.1779 174.217 68.6179 174.217 69.0979C174.217 69.5779 174.305 70.0179 174.481 70.4179C174.657 70.8179 174.897 71.1619 175.201 71.4499C175.521 71.7379 175.897 71.9619 176.329 72.1219C176.777 72.2819 177.265 72.3619 177.793 72.3619C178.561 72.3619 179.241 72.2099 179.833 71.9059C180.425 71.5859 180.817 71.1939 181.009 70.7299V67.4419C180.817 66.9779 180.425 66.5939 179.833 66.2899C179.241 65.9699 178.561 65.8099 177.793 65.8099C177.265 65.8099 176.777 65.8899 176.329 66.0499C175.897 66.2099 175.521 66.4339 175.201 66.7219C174.897 67.0099 174.657 67.3619 174.481 67.7779Z" fill="#EA0029"/>
<path d="M193.615 72.5299C194.383 72.5299 195.119 72.3939 195.823 72.1219C196.527 71.8339 197.055 71.4579 197.407 70.9939L198.343 73.3459C197.959 73.9859 197.343 74.5219 196.495 74.9539C195.663 75.3859 194.671 75.6019 193.519 75.6019C192.575 75.6019 191.695 75.4499 190.879 75.1459C190.079 74.8419 189.383 74.4099 188.791 73.8499C188.199 73.2899 187.735 72.6099 187.399 71.8099C187.063 71.0099 186.895 70.1059 186.895 69.0979C186.895 68.2179 187.039 67.3859 187.327 66.6019C187.631 65.8179 188.055 65.1299 188.599 64.5379C189.159 63.9299 189.823 63.4499 190.591 63.0979C191.375 62.7459 192.255 62.5699 193.231 62.5699C194.143 62.5699 194.967 62.7539 195.703 63.1219C196.455 63.4739 197.087 63.9539 197.599 64.5619C198.127 65.1539 198.535 65.8419 198.823 66.6259C199.111 67.4099 199.255 68.2339 199.255 69.0979C199.255 69.2739 199.247 69.4659 199.231 69.6739C199.231 69.8659 199.215 70.0339 199.183 70.1779H190.015C190.159 70.9939 190.559 71.5939 191.215 71.9779C191.871 72.3459 192.671 72.5299 193.615 72.5299ZM196.135 67.6819C196.039 67.0259 195.719 66.5299 195.175 66.1939C194.631 65.8419 193.983 65.6659 193.231 65.6659C192.479 65.6659 191.807 65.8419 191.215 66.1939C190.623 66.5299 190.263 67.0259 190.135 67.6819H196.135Z" fill="#EA0029"/>
<path d="M203.326 75.3379C203.006 75.2579 202.694 75.0659 202.39 74.7619C202.102 74.4579 201.958 74.0259 201.958 73.4659C201.958 73.1779 202.006 72.9139 202.102 72.6739C202.214 72.4179 202.366 72.2019 202.558 72.0259C202.75 71.8339 202.974 71.6899 203.23 71.5939C203.486 71.4819 203.766 71.4259 204.07 71.4259C204.662 71.4259 205.142 71.6339 205.51 72.0499C205.894 72.4659 206.086 72.9619 206.086 73.5379C206.086 74.0179 206.006 74.4499 205.846 74.8339C205.686 75.2179 205.494 75.6019 205.27 75.9859L203.71 78.6259H201.79L203.326 75.3379Z" fill="#EA0029"/>
<path d="M227.614 75.2659H224.566V68.5939C224.566 67.6979 224.31 67.0099 223.798 66.5299C223.286 66.0499 222.654 65.8099 221.902 65.8099C221.246 65.8099 220.646 65.9859 220.102 66.3379C219.574 66.6899 219.254 67.1379 219.142 67.6819V75.2659H216.094V62.9059H219.046V64.1539C219.222 63.6899 219.59 63.3139 220.15 63.0259C220.726 62.7219 221.462 62.5699 222.358 62.5699C222.998 62.5699 223.63 62.6819 224.254 62.9059C224.878 63.1139 225.438 63.4419 225.934 63.8899C226.43 64.3379 226.83 64.9139 227.134 65.6179C227.454 66.3059 227.614 67.1299 227.614 68.0899V75.2659Z" fill="#EA0029"/>
<path d="M243.287 69.0979C243.287 70.0419 243.111 70.9139 242.759 71.7139C242.407 72.4979 241.927 73.1779 241.319 73.7539C240.727 74.3299 240.039 74.7859 239.255 75.1219C238.471 75.4419 237.639 75.6019 236.759 75.6019C235.879 75.6019 235.047 75.4419 234.263 75.1219C233.479 74.7859 232.783 74.3299 232.175 73.7539C231.583 73.1779 231.111 72.4979 230.759 71.7139C230.407 70.9139 230.231 70.0419 230.231 69.0979C230.231 68.1699 230.407 67.3059 230.759 66.5059C231.111 65.7059 231.583 65.0179 232.175 64.4419C232.783 63.8499 233.479 63.3939 234.263 63.0739C235.047 62.7379 235.879 62.5699 236.759 62.5699C237.639 62.5699 238.471 62.7379 239.255 63.0739C240.039 63.3939 240.727 63.8499 241.319 64.4419C241.927 65.0179 242.407 65.7059 242.759 66.5059C243.111 67.3059 243.287 68.1699 243.287 69.0979ZM233.567 67.7779C233.391 68.1779 233.303 68.6179 233.303 69.0979C233.303 69.5779 233.391 70.0179 233.567 70.4179C233.743 70.8179 233.983 71.1619 234.287 71.4499C234.607 71.7379 234.975 71.9619 235.391 72.1219C235.823 72.2819 236.279 72.3619 236.759 72.3619C237.239 72.3619 237.687 72.2819 238.103 72.1219C238.519 71.9619 238.879 71.7379 239.183 71.4499C239.503 71.1619 239.751 70.8179 239.927 70.4179C240.119 70.0179 240.215 69.5779 240.215 69.0979C240.215 68.6179 240.119 68.1779 239.927 67.7779C239.751 67.3619 239.503 67.0099 239.183 66.7219C238.879 66.4339 238.519 66.2099 238.103 66.0499C237.687 65.8899 237.239 65.8099 236.759 65.8099C236.279 65.8099 235.823 65.8899 235.391 66.0499C234.975 66.2099 234.607 66.4339 234.287 66.7219C233.983 67.0099 233.743 67.3619 233.567 67.7779Z" fill="#EA0029"/>
<path d="M253.899 74.1619C253.611 74.5779 253.203 74.9219 252.675 75.1939C252.147 75.4659 251.531 75.6019 250.827 75.6019C249.451 75.6019 248.427 75.2339 247.755 74.4979C247.099 73.7619 246.771 72.7219 246.771 71.3779V66.1459H244.659V65.1619L248.907 59.7859H249.843V62.9059H253.755V66.1459H249.819V70.7059C249.819 71.3139 249.971 71.7459 250.275 72.0019C250.579 72.2419 250.939 72.3619 251.355 72.3619C251.771 72.3619 252.123 72.2899 252.411 72.1459C252.699 71.9859 252.979 71.7459 253.251 71.4259L253.899 74.1619Z" fill="#EA0029"/>
<path d="M275.728 66.4579C276.08 67.2579 276.256 68.1379 276.256 69.0979C276.256 70.0579 276.08 70.9379 275.728 71.7379C275.392 72.5379 274.936 73.2259 274.36 73.8019C273.784 74.3779 273.112 74.8259 272.344 75.1459C271.592 75.4499 270.8 75.6019 269.968 75.6019C269.056 75.6019 268.264 75.4499 267.592 75.1459C266.936 74.8259 266.504 74.4339 266.296 73.9699V75.2659H263.344V57.7939H266.392V64.2019C266.6 63.7379 267.024 63.3539 267.664 63.0499C268.32 62.7299 269.104 62.5699 270.016 62.5699C270.832 62.5699 271.616 62.7299 272.368 63.0499C273.12 63.3699 273.784 63.8179 274.36 64.3939C274.936 64.9699 275.392 65.6579 275.728 66.4579ZM272.92 70.4179C273.096 70.0179 273.184 69.5779 273.184 69.0979C273.184 68.6179 273.096 68.1779 272.92 67.7779C272.744 67.3619 272.496 67.0099 272.176 66.7219C271.872 66.4339 271.496 66.2099 271.048 66.0499C270.616 65.8899 270.136 65.8099 269.608 65.8099C268.84 65.8099 268.16 65.9699 267.568 66.2899C266.976 66.5939 266.584 66.9779 266.392 67.4419V70.7299C266.584 71.1939 266.976 71.5859 267.568 71.9059C268.16 72.2099 268.84 72.3619 269.608 72.3619C270.136 72.3619 270.616 72.2819 271.048 72.1219C271.496 71.9619 271.872 71.7379 272.176 71.4499C272.496 71.1619 272.744 70.8179 272.92 70.4179Z" fill="#EA0029"/>
<path d="M291.334 69.0979C291.334 70.0419 291.158 70.9139 290.806 71.7139C290.454 72.4979 289.974 73.1779 289.366 73.7539C288.774 74.3299 288.086 74.7859 287.302 75.1219C286.518 75.4419 285.686 75.6019 284.806 75.6019C283.926 75.6019 283.094 75.4419 282.31 75.1219C281.526 74.7859 280.83 74.3299 280.222 73.7539C279.63 73.1779 279.158 72.4979 278.806 71.7139C278.454 70.9139 278.278 70.0419 278.278 69.0979C278.278 68.1699 278.454 67.3059 278.806 66.5059C279.158 65.7059 279.63 65.0179 280.222 64.4419C280.83 63.8499 281.526 63.3939 282.31 63.0739C283.094 62.7379 283.926 62.5699 284.806 62.5699C285.686 62.5699 286.518 62.7379 287.302 63.0739C288.086 63.3939 288.774 63.8499 289.366 64.4419C289.974 65.0179 290.454 65.7059 290.806 66.5059C291.158 67.3059 291.334 68.1699 291.334 69.0979ZM281.614 67.7779C281.438 68.1779 281.35 68.6179 281.35 69.0979C281.35 69.5779 281.438 70.0179 281.614 70.4179C281.79 70.8179 282.03 71.1619 282.334 71.4499C282.654 71.7379 283.022 71.9619 283.438 72.1219C283.87 72.2819 284.326 72.3619 284.806 72.3619C285.286 72.3619 285.734 72.2819 286.15 72.1219C286.566 71.9619 286.926 71.7379 287.23 71.4499C287.55 71.1619 287.798 70.8179 287.974 70.4179C288.166 70.0179 288.262 69.5779 288.262 69.0979C288.262 68.6179 288.166 68.1779 287.974 67.7779C287.798 67.3619 287.55 67.0099 287.23 66.7219C286.926 66.4339 286.566 66.2099 286.15 66.0499C285.734 65.8899 285.286 65.8099 284.806 65.8099C284.326 65.8099 283.87 65.8899 283.438 66.0499C283.022 66.2099 282.654 66.4339 282.334 66.7219C282.03 67.0099 281.79 67.3619 281.614 67.7779Z" fill="#EA0029"/>
<path d="M301.412 66.3139C301.236 66.1859 301.004 66.0739 300.716 65.9779C300.444 65.8659 300.132 65.8099 299.78 65.8099C299.06 65.8099 298.484 66.0099 298.052 66.4099C297.62 66.7939 297.34 67.2659 297.212 67.8259V75.2659H294.164V62.9059H297.116V64.5379C297.292 63.9619 297.612 63.4899 298.076 63.1219C298.556 62.7539 299.148 62.5699 299.852 62.5699C300.316 62.5699 300.724 62.6659 301.076 62.8579C301.428 63.0339 301.684 63.2499 301.844 63.5059L301.412 66.3139Z" fill="#EA0029"/>
<path d="M315.668 75.2659H312.62V68.5939C312.62 67.6979 312.364 67.0099 311.852 66.5299C311.34 66.0499 310.708 65.8099 309.956 65.8099C309.3 65.8099 308.7 65.9859 308.156 66.3379C307.628 66.6899 307.308 67.1379 307.196 67.6819V75.2659H304.148V62.9059H307.1V64.1539C307.276 63.6899 307.644 63.3139 308.204 63.0259C308.78 62.7219 309.516 62.5699 310.412 62.5699C311.052 62.5699 311.684 62.6819 312.308 62.9059C312.932 63.1139 313.492 63.4419 313.988 63.8899C314.484 64.3379 314.884 64.9139 315.188 65.6179C315.508 66.3059 315.668 67.1299 315.668 68.0899V75.2659Z" fill="#EA0029"/>
</svg>
