<svg width="380" height="73" viewBox="0 0 380 73" fill="none" xmlns="http://www.w3.org/2000/svg">
<g clip-path="url(#clip0)">
<path d="M24.9265 4.41406V30.3099H18.5737V11.2032H7.3231V30.3099H0.921875V4.41406H24.9265Z" fill="#344887"/>
<path d="M57.029 11.7844C57.7564 13.4817 58.0959 15.3245 58.0959 17.3127C58.0959 19.301 57.7564 21.1923 57.029 22.8411C56.3016 24.5384 55.3317 25.9447 54.1193 27.157C52.907 28.3694 51.5007 29.2908 49.9488 29.9697C48.3485 30.6486 46.7482 30.9881 45.0024 30.9881C43.1112 30.9881 41.4624 30.6486 40.1045 30.0182C38.7467 29.3878 37.8253 28.5634 37.4374 27.5935V41.0264H31.0361V4.41329H37.2434V7.12896C37.6798 6.15908 38.6012 5.33468 40.0075 4.70426C41.4139 4.07383 43.0627 3.73438 44.9539 3.73438C46.6997 3.73438 48.3485 4.07383 49.9488 4.70426C51.5491 5.33468 52.9555 6.30456 54.1678 7.51692C55.3802 8.72927 56.3016 10.1356 57.029 11.7844ZM51.1127 20.1254C51.5007 19.2525 51.6461 18.3311 51.6461 17.3127C51.6461 16.2944 51.4522 15.373 51.1127 14.5486C50.7247 13.7242 50.2398 12.9968 49.5609 12.3663C48.9305 11.7844 48.1061 11.2995 47.1847 10.96C46.2633 10.6205 45.2449 10.4751 44.1295 10.4751C42.5292 10.4751 41.0744 10.8145 39.8621 11.4449C38.6012 12.0754 37.7768 12.8998 37.3889 13.8696V20.7558C37.7768 21.7257 38.6012 22.5501 39.8621 23.1805C41.1229 23.8109 42.5292 24.1504 44.1295 24.1504C45.2449 24.1504 46.2633 24.0049 47.1847 23.6655C48.1061 23.326 48.882 22.8411 49.5609 22.2591C50.2398 21.7257 50.7732 20.9983 51.1127 20.1254Z" fill="#344887"/>
<path d="M68.9097 4.41406V19.9807L80.6453 4.41406H87.0465V30.3099H80.7423V14.7433L69.0067 30.3099H62.6055V4.41406H68.9097Z" fill="#344887"/>
<path d="M118.956 17.3609C118.956 19.3492 118.569 21.1434 117.841 22.8407C117.114 24.4895 116.095 25.9444 114.834 27.1567C113.574 28.3691 112.119 29.2905 110.47 30.0179C108.821 30.6968 107.075 31.0362 105.233 31.0362C103.39 31.0362 101.644 30.6968 99.9953 30.0179C98.3465 29.3389 96.8916 28.3691 95.6308 27.1567C94.3699 25.9444 93.3516 24.538 92.6242 22.8407C91.8967 21.1919 91.5088 19.3492 91.5088 17.3609C91.5088 15.4211 91.8967 13.6268 92.6242 11.9295C93.3516 10.2323 94.3699 8.82592 95.6308 7.56508C96.8916 6.35272 98.3465 5.38284 99.9953 4.70392C101.644 4.02501 103.39 3.68555 105.233 3.68555C107.075 3.68555 108.821 4.02501 110.47 4.70392C112.119 5.38284 113.574 6.35272 114.834 7.56508C116.095 8.77743 117.065 10.2323 117.841 11.9295C118.569 13.6268 118.956 15.4211 118.956 17.3609ZM98.5404 14.5967C98.1525 15.4696 98.007 16.391 98.007 17.4094C98.007 18.4278 98.201 19.3492 98.5404 20.1736C98.9284 20.998 99.4133 21.7254 100.092 22.3558C100.723 22.9377 101.499 23.4227 102.42 23.7621C103.293 24.1016 104.263 24.2471 105.281 24.2471C106.3 24.2471 107.221 24.1016 108.094 23.7621C108.967 23.4227 109.743 22.9377 110.373 22.3558C111.003 21.7739 111.537 21.0464 111.925 20.1736C112.313 19.3492 112.507 18.4278 112.507 17.4094C112.507 16.391 112.313 15.4696 111.925 14.5967C111.537 13.7238 111.003 12.9964 110.373 12.4145C109.743 11.8326 108.967 11.3476 108.094 11.0082C107.221 10.6687 106.3 10.5232 105.281 10.5232C104.263 10.5232 103.341 10.6687 102.42 11.0082C101.547 11.3476 100.771 11.8326 100.092 12.4145C99.4618 12.9964 98.9284 13.7238 98.5404 14.5967Z" fill="#344887"/>
<path d="M149.362 11.7844C150.089 13.4817 150.429 15.3245 150.429 17.3127C150.429 19.301 150.089 21.1923 149.362 22.8411C148.635 24.5384 147.665 25.9447 146.452 27.157C145.24 28.3694 143.834 29.2908 142.282 29.9697C140.682 30.6486 139.081 30.9881 137.335 30.9881C135.444 30.9881 133.795 30.6486 132.438 30.0182C131.08 29.3878 130.158 28.5634 129.77 27.5935V41.0264H123.369V4.41329H129.576V7.12896C130.013 6.15908 130.934 5.33468 132.341 4.70426C133.747 4.07383 135.396 3.73438 137.287 3.73438C139.033 3.73438 140.682 4.07383 142.282 4.70426C143.882 5.33468 145.288 6.30456 146.501 7.51692C147.665 8.68078 148.635 10.1356 149.362 11.7844ZM143.446 20.1254C143.834 19.2525 143.979 18.3311 143.979 17.3127C143.979 16.2944 143.785 15.373 143.446 14.5486C143.058 13.7242 142.573 12.9968 141.894 12.3663C141.263 11.7844 140.439 11.2995 139.518 10.96C138.596 10.6205 137.578 10.4751 136.463 10.4751C134.862 10.4751 133.407 10.8145 132.195 11.4449C130.934 12.0754 130.11 12.8998 129.722 13.8696V20.7558C130.11 21.7257 130.934 22.5501 132.195 23.1805C133.456 23.8109 134.862 24.1504 136.463 24.1504C137.578 24.1504 138.596 24.0049 139.518 23.6655C140.439 23.326 141.215 22.8411 141.894 22.2591C142.524 21.7257 143.058 20.9983 143.446 20.1254Z" fill="#344887"/>
<path d="M161.243 4.41406V19.9807L172.978 4.41406H179.38V30.3099H173.075V14.7433L161.34 30.3099H154.938V4.41406H161.243Z" fill="#344887"/>
<path d="M205.955 11.2032H197.954V30.3099H191.552V11.2032H183.551V4.41406H205.955V11.2032Z" fill="#344887"/>
<path d="M222.928 24.5868C224.528 24.5868 226.08 24.2959 227.535 23.714C228.99 23.132 230.105 22.3561 230.832 21.3862L232.772 26.3326C231.948 27.6905 230.687 28.8058 228.941 29.7272C227.195 30.6486 225.11 31.0851 222.685 31.0851C220.697 31.0851 218.854 30.7456 217.157 30.1152C215.46 29.4848 214.005 28.5634 212.744 27.3995C211.483 26.2356 210.513 24.7808 209.834 23.132C209.107 21.4347 208.768 19.5435 208.768 17.4582C208.768 15.6154 209.059 13.8696 209.689 12.2208C210.319 10.572 211.192 9.11722 212.356 7.85638C213.52 6.59553 214.926 5.62565 216.527 4.84974C218.175 4.12233 219.97 3.73438 222.055 3.73438C223.946 3.73438 225.692 4.12233 227.244 4.84974C228.796 5.57715 230.105 6.59553 231.22 7.85638C232.287 9.11722 233.16 10.572 233.742 12.2208C234.324 13.8696 234.663 15.6154 234.663 17.4097C234.663 17.7977 234.663 18.1856 234.615 18.5736C234.615 19.01 234.566 19.3495 234.469 19.6404H215.266C215.557 21.3377 216.381 22.5986 217.787 23.3745C219.291 24.1989 220.94 24.5868 222.928 24.5868ZM228.214 14.4031C228.02 13.0452 227.341 11.9784 226.177 11.251C225.013 10.5236 223.655 10.1841 222.103 10.1841C220.503 10.1841 219.097 10.5236 217.884 11.251C216.624 11.9784 215.896 12.9968 215.605 14.4031H228.214Z" fill="#344887"/>
<path d="M260.025 11.2032H252.024V30.3099H245.623V11.2032H237.621V4.41406H260.025V11.2032Z" fill="#344887"/>
<path d="M272.489 9.69915C271.859 9.69915 271.277 9.79614 270.743 9.99012C270.21 10.1841 269.725 10.4266 269.288 10.766C268.852 11.057 268.464 11.4449 268.124 11.8329C267.785 12.2208 267.446 12.6573 267.203 13.1422L264.924 9.21421C265.118 8.4868 265.457 7.75939 265.942 7.08047C266.427 6.40155 267.009 5.81962 267.688 5.33468C268.367 4.84974 269.143 4.46179 270.064 4.17082C270.937 3.87986 271.907 3.73438 272.974 3.73438C274.332 3.73438 275.544 3.92835 276.562 4.3648C277.581 4.75275 278.454 5.33468 279.181 6.06209C279.86 6.78951 280.393 7.61391 280.781 8.58379C281.121 9.55367 281.315 10.572 281.315 11.6874C281.315 12.6088 281.218 13.4817 280.975 14.2576C280.781 15.0335 280.442 15.8094 280.006 16.5368C279.569 17.2642 279.036 18.0401 278.454 18.8161C277.823 19.592 277.096 20.4164 276.271 21.3377L273.653 24.2474H281.751V30.1637H265.069V25.7022L272.537 17.6522C273.071 17.0703 273.507 16.5853 273.895 16.1489C274.283 15.7124 274.623 15.276 274.865 14.888C275.108 14.5001 275.302 14.1121 275.447 13.7242C275.593 13.3362 275.641 12.9483 275.641 12.4633C275.641 11.6874 275.35 11.057 274.768 10.5236C274.235 9.99012 273.459 9.69915 272.489 9.69915Z" fill="#F32735"/>
<path d="M292.807 4.75275C294.456 4.07383 296.202 3.73438 298.045 3.73438C299.888 3.73438 301.633 4.07383 303.282 4.75275C304.931 5.43167 306.386 6.35306 307.647 7.56541C308.908 8.77776 309.877 10.1841 310.605 11.8814C311.332 13.5302 311.672 15.373 311.672 17.3612C311.672 19.3495 311.332 21.1923 310.605 22.8896C309.877 24.5384 308.908 25.9932 307.647 27.157C306.386 28.3694 304.931 29.2908 303.282 29.9697C301.633 30.6486 299.888 30.9881 298.045 30.9881C296.202 30.9881 294.456 30.6486 292.807 29.9697C291.159 29.2908 289.704 28.3694 288.443 27.157C287.182 25.9447 286.212 24.5384 285.485 22.8896C284.757 21.2408 284.418 19.398 284.418 17.3612C284.418 15.373 284.757 13.5302 285.485 11.8814C286.212 10.2326 287.182 8.77776 288.443 7.56541C289.704 6.35306 291.159 5.43167 292.807 4.75275ZM298.045 24.9748C299.16 24.9748 300.227 24.7808 301.197 24.3929C302.167 24.0049 303.04 23.52 303.719 22.8411C304.446 22.1621 304.979 21.3862 305.416 20.4648C305.804 19.5435 306.046 18.4766 306.046 17.3612C306.046 16.2459 305.852 15.2275 305.416 14.2576C304.979 13.3362 304.446 12.5118 303.719 11.8329C302.991 11.154 302.167 10.669 301.197 10.2811C300.227 9.89313 299.16 9.69915 298.045 9.69915C296.929 9.69915 295.863 9.89313 294.893 10.2811C293.923 10.669 293.098 11.154 292.371 11.8329C291.644 12.5118 291.11 13.2877 290.674 14.2576C290.237 15.179 290.043 16.2459 290.043 17.3612C290.043 18.4766 290.237 19.5435 290.674 20.4648C291.062 21.3862 291.644 22.2106 292.371 22.8411C293.098 23.52 293.923 24.0049 294.893 24.3929C295.863 24.7808 296.929 24.9748 298.045 24.9748Z" fill="#F32735"/>
<path d="M320.789 25.0241C321.953 25.0241 322.874 24.7331 323.601 24.1997C324.329 23.6662 324.668 22.8903 324.668 21.9689C324.668 21.1445 324.329 20.4656 323.698 19.9807C323.068 19.4957 322.195 19.2533 321.128 19.2533C320.401 19.2533 319.722 19.3503 319.188 19.4957C318.655 19.6412 318.219 19.8352 317.976 20.0292L317.055 15.9557L321.516 10.3788H314.339V4.41406H328.839V8.63305L324.474 14.0644C325.105 14.2099 325.784 14.4523 326.463 14.7918C327.141 15.1313 327.772 15.6162 328.354 16.2466C328.936 16.8771 329.421 17.653 329.809 18.5743C330.197 19.4957 330.391 20.6596 330.391 21.9689C330.391 23.1813 330.148 24.3452 329.712 25.4605C329.275 26.5274 328.645 27.4973 327.772 28.3217C326.947 29.1461 325.929 29.7765 324.765 30.2614C323.601 30.7464 322.292 30.9888 320.837 30.9888C319.77 30.9888 318.752 30.8919 317.928 30.6494C317.055 30.4069 316.279 30.0675 315.648 29.6795C315.018 29.2916 314.436 28.8551 314 28.3702C313.563 27.8852 313.272 27.4003 313.078 26.8668L314.387 22.0659C315.066 22.8903 315.939 23.6177 316.958 24.1997C317.879 24.7331 319.188 25.0241 320.789 25.0241Z" fill="#F32735"/>
<path d="M341.302 4.75275C342.95 4.07383 344.696 3.73438 346.539 3.73438C348.382 3.73438 350.128 4.07383 351.776 4.75275C353.425 5.43167 354.88 6.35306 356.141 7.56541C357.402 8.77776 358.372 10.1841 359.099 11.8814C359.826 13.5302 360.166 15.373 360.166 17.3612C360.166 19.3495 359.826 21.1923 359.099 22.8896C358.372 24.5384 357.402 25.9932 356.141 27.157C354.88 28.3694 353.425 29.2908 351.776 29.9697C350.128 30.6486 348.382 30.9881 346.539 30.9881C344.696 30.9881 342.95 30.6486 341.302 29.9697C339.653 29.2908 338.198 28.3694 336.937 27.157C335.676 25.9447 334.706 24.5384 333.979 22.8896C333.252 21.2408 332.912 19.398 332.912 17.3612C332.912 15.373 333.252 13.5302 333.979 11.8814C334.706 10.2326 335.676 8.77776 336.937 7.56541C338.198 6.35306 339.653 5.43167 341.302 4.75275ZM346.587 24.9748C347.703 24.9748 348.77 24.7808 349.74 24.3929C350.709 24.0049 351.582 23.52 352.261 22.8411C352.989 22.1621 353.522 21.3862 353.959 20.4648C354.347 19.5435 354.589 18.4766 354.589 17.3612C354.589 16.2459 354.395 15.2275 353.959 14.2576C353.522 13.3362 352.989 12.5118 352.261 11.8329C351.534 11.154 350.709 10.669 349.74 10.2811C348.77 9.89313 347.703 9.69915 346.587 9.69915C345.472 9.69915 344.405 9.89313 343.435 10.2811C342.465 10.669 341.641 11.154 340.914 11.8329C340.186 12.5118 339.653 13.2877 339.216 14.2576C338.78 15.179 338.586 16.2459 338.586 17.3612C338.586 18.4766 338.78 19.5435 339.216 20.4648C339.604 21.3862 340.186 22.2106 340.914 22.8411C341.641 23.52 342.465 24.0049 343.435 24.3929C344.357 24.7808 345.424 24.9748 346.587 24.9748Z" fill="#F32735"/>
<path d="M373.987 0H368.798L362.833 10.3777H368.022L373.987 0Z" fill="#F32735"/>
<path d="M368.798 0H373.987L380 10.3777H374.811L368.798 0Z" fill="#F32735"/>
<path d="M19.4467 54.5547V62.1683L25.169 54.5547H28.2727V67.2117H25.2175V59.5981L19.4952 67.2117H16.3916V54.5547H19.4467Z" fill="#F32735"/>
<path d="M31.5216 63.8656C31.7641 63.4291 32.055 62.9442 32.2975 62.3622C32.54 61.8288 32.7824 61.1984 32.9764 60.5195C33.1704 59.8405 33.3159 59.1131 33.4614 58.3372C33.5583 57.5613 33.6553 56.6884 33.6553 55.8155V54.5547H42.7722V63.9141H44.518V70.6063H41.5114V67.2602H33.2674V70.6063H30.2607V63.9141H31.5216V63.8656ZM39.6201 63.8656V57.8523H36.371C36.2255 59.2586 35.983 60.471 35.6921 61.4409C35.4011 62.4107 35.0617 63.2351 34.7222 63.8656H39.6201Z" fill="#F32735"/>
<path d="M52.7136 64.4006C53.4896 64.4006 54.2655 64.2551 54.9929 63.9641C55.7203 63.6731 56.2537 63.2852 56.5932 62.8003L57.5631 65.225C57.1751 65.9039 56.5447 66.4373 55.6718 66.8738C54.7989 67.3102 53.7805 67.5527 52.6167 67.5527C51.6468 67.5527 50.7739 67.4072 49.9495 67.0677C49.1251 66.7768 48.3977 66.2918 47.8157 65.7584C47.2338 65.1765 46.7489 64.4976 46.4094 63.6732C46.07 62.8488 45.876 61.9274 45.876 60.909C45.876 59.9876 46.0215 59.1632 46.3124 58.3388C46.6034 57.5144 47.0398 56.8355 47.6218 56.2051C48.2037 55.5746 48.8826 55.0897 49.6585 54.7502C50.4344 54.4108 51.3558 54.2168 52.3257 54.2168C53.2471 54.2168 54.12 54.4108 54.8474 54.7502C55.6233 55.1382 56.2537 55.6231 56.7872 56.2051C57.3206 56.787 57.757 57.5144 58.048 58.3388C58.339 59.1632 58.4844 59.9876 58.4844 60.8605C58.4844 61.0545 58.4844 61.2484 58.4844 61.4424C58.4844 61.6364 58.436 61.8304 58.436 61.9759H49.0281C49.1736 62.8003 49.5615 63.4307 50.2404 63.8186C50.9194 64.2066 51.7438 64.4006 52.7136 64.4006ZM55.2838 59.4057C55.1868 58.7267 54.8474 58.2418 54.314 57.8539C53.7805 57.5144 53.1016 57.3204 52.3257 57.3204C51.5498 57.3204 50.8709 57.5144 50.2404 57.8539C49.6585 58.1933 49.2706 58.7267 49.1251 59.4057H55.2838Z" fill="#F32735"/>
<path d="M73.5173 58.1442C73.8568 58.9686 74.0508 59.8415 74.0508 60.8598C74.0508 61.8297 73.8568 62.7511 73.5173 63.5755C73.1779 64.3999 72.6929 65.0788 72.111 65.7092C71.5291 66.2912 70.8501 66.7761 70.0742 67.0671C69.2983 67.358 68.5224 67.552 67.6495 67.552C66.7281 67.552 65.9037 67.4065 65.2733 67.0671C64.5944 66.7276 64.158 66.3397 63.964 65.8547V72.4014H60.8604V54.5071H63.867V55.8164C64.061 55.3315 64.5459 54.9435 65.2248 54.6041C65.9037 54.2646 66.7281 54.1191 67.6495 54.1191C68.5224 54.1191 69.2983 54.2646 70.0742 54.6041C70.8501 54.9435 71.5291 55.38 72.111 55.9619C72.6929 56.6408 73.1294 57.3198 73.5173 58.1442ZM70.6077 62.2177C70.8017 61.7812 70.8986 61.3448 70.8986 60.8598C70.8986 60.3749 70.8017 59.9384 70.6077 59.502C70.4137 59.114 70.1712 58.7261 69.8803 58.4351C69.5408 58.1442 69.1528 57.9017 68.7164 57.7562C68.28 57.6107 67.7465 57.5137 67.2131 57.5137C66.4372 57.5137 65.7098 57.6592 65.1278 57.9987C64.5459 58.3381 64.1095 58.7261 63.9155 59.211V62.5571C64.1095 63.0421 64.4974 63.43 65.1278 63.7695C65.7098 64.1089 66.4372 64.2544 67.2131 64.2544C67.7465 64.2544 68.2315 64.1574 68.7164 64.0119C69.1528 63.8665 69.5408 63.624 69.8803 63.333C70.1712 62.9936 70.4137 62.6541 70.6077 62.2177Z" fill="#F32735"/>
<path d="M76.1848 56.4475C76.4273 56.1081 76.7182 55.7686 77.0577 55.4776C77.3971 55.1867 77.7851 54.9442 78.2215 54.7987C78.658 54.6047 79.0944 54.4593 79.5794 54.3623C80.0643 54.2653 80.5493 54.2168 81.0342 54.2168C81.8586 54.2168 82.6345 54.3138 83.3134 54.5563C83.9923 54.7987 84.5743 55.0897 85.0592 55.5261C85.5441 55.9626 85.9321 56.496 86.2231 57.1264C86.514 57.7569 86.611 58.4843 86.611 59.2602V67.2132H83.6044V66.0979C83.3134 66.5828 82.8285 66.9223 82.1496 67.1647C81.4706 67.4072 80.8402 67.5527 80.1128 67.5527C79.4339 67.5527 78.8035 67.4557 78.27 67.2617C77.7366 67.0677 77.2032 66.7768 76.8152 66.4373C76.3788 66.0979 76.0878 65.6614 75.8453 65.128C75.6028 64.5945 75.5059 64.0126 75.5059 63.3822C75.5059 62.7033 75.6513 62.1213 75.8938 61.5879C76.1363 61.0545 76.5242 60.618 77.0092 60.2786C77.4456 59.9391 77.9791 59.6481 78.6095 59.5027C79.1914 59.3087 79.8218 59.2117 80.4523 59.2117C81.2767 59.2117 81.9556 59.3087 82.4405 59.5027C82.974 59.6966 83.3134 59.8906 83.5074 60.0846V59.7451C83.5074 59.0177 83.2649 58.4358 82.78 57.9993C82.295 57.5629 81.5676 57.3204 80.6462 57.3204C79.8218 57.3204 79.1429 57.4659 78.464 57.8054C77.8336 58.0963 77.3001 58.5328 76.9122 58.9692L76.1848 56.4475ZM83.5074 62.6548C83.3619 62.4123 83.0709 62.2183 82.6345 62.0728C82.1981 61.8789 81.6646 61.8304 81.1312 61.8304C80.3068 61.8304 79.6764 61.9759 79.2884 62.2183C78.9005 62.4608 78.658 62.8003 78.658 63.2367C78.658 63.6731 78.852 64.0126 79.2884 64.2551C79.7249 64.4976 80.3068 64.643 81.0827 64.643C81.6646 64.643 82.1496 64.546 82.586 64.3521C83.0225 64.1581 83.3134 63.9156 83.4589 63.6247V62.6548H83.5074Z" fill="#F32735"/>
<path d="M100.966 54.5547H103.972L105.961 67.2117H102.857L101.742 60.5195L98.7835 67.2117H96.2618L93.3036 60.5195L92.1883 67.2117H89.0361L91.0244 54.5547H93.8371L97.3771 62.6532L100.966 54.5547Z" fill="#F32735"/>
<path d="M111.585 54.5547V62.1683L117.308 54.5547H120.411V67.2117H117.356V59.5981L111.634 67.2117H108.53V54.5547H111.585Z" fill="#F32735"/>
<path d="M140.245 65.2731C139.857 65.9036 139.276 66.437 138.403 66.8734C137.53 67.3099 136.56 67.5524 135.444 67.5524C134.572 67.5524 133.699 67.4069 132.923 67.0674C132.147 66.728 131.419 66.2915 130.789 65.7096C130.159 65.1276 129.674 64.4002 129.334 63.5758C128.995 62.7514 128.801 61.8785 128.801 60.8602C128.801 59.8903 128.995 58.9689 129.334 58.1445C129.674 57.3201 130.159 56.6412 130.789 56.0107C131.419 55.4288 132.098 54.9439 132.923 54.6529C133.699 54.3135 134.572 54.168 135.444 54.168C136.56 54.168 137.53 54.4104 138.403 54.8469C139.227 55.2833 139.809 55.8168 140.197 56.3987L139.324 59.0174C138.985 58.6294 138.548 58.29 137.918 57.9505C137.336 57.6595 136.608 57.4656 135.832 57.4656C134.669 57.4656 133.747 57.7565 133.068 58.387C132.389 59.0174 132.05 59.7933 132.05 60.8117C132.05 61.83 132.389 62.6059 133.068 63.2364C133.747 63.8668 134.669 64.1578 135.832 64.1578C136.657 64.1578 137.336 64.0123 137.966 63.6728C138.548 63.3334 139.033 62.9939 139.373 62.606L140.245 65.2731Z" fill="#F32735"/>
<path d="M152.418 57.8523H148.49V67.2117H145.386V57.8523H141.458V54.5547H152.369V57.8523H152.418Z" fill="#F32735"/>
<path d="M154.261 56.4475C154.503 56.1081 154.794 55.7686 155.134 55.4776C155.473 55.1867 155.861 54.9442 156.298 54.7987C156.734 54.6047 157.171 54.4593 157.656 54.3623C158.14 54.2653 158.625 54.2168 159.11 54.2168C159.935 54.2168 160.711 54.3138 161.39 54.5563C162.068 54.7987 162.65 55.0897 163.135 55.5261C163.62 55.9626 164.008 56.496 164.299 57.1264C164.59 57.7569 164.687 58.4843 164.687 59.2602V67.2132H161.681V66.0979C161.39 66.5828 160.905 66.9223 160.226 67.1647C159.547 67.4072 158.916 67.5527 158.189 67.5527C157.51 67.5527 156.88 67.4557 156.346 67.2617C155.813 67.0677 155.279 66.7768 154.891 66.4373C154.455 66.0979 154.164 65.6614 153.921 65.128C153.679 64.5945 153.582 64.0126 153.582 63.3822C153.582 62.7033 153.728 62.1213 153.97 61.5879C154.212 61.0545 154.6 60.618 155.085 60.2786C155.522 59.9391 156.055 59.6481 156.686 59.5027C157.268 59.3087 157.898 59.2117 158.528 59.2117C159.353 59.2117 160.032 59.3087 160.517 59.5027C161.05 59.6966 161.39 59.8906 161.584 60.0846V59.7451C161.584 59.0177 161.341 58.4358 160.856 57.9993C160.371 57.5629 159.644 57.3204 158.722 57.3204C157.898 57.3204 157.219 57.4659 156.54 57.8054C155.91 58.0963 155.376 58.5328 154.988 58.9692L154.261 56.4475ZM161.584 62.6548C161.438 62.4123 161.147 62.2183 160.711 62.0728C160.274 61.8789 159.741 61.8304 159.207 61.8304C158.383 61.8304 157.753 61.9759 157.365 62.2183C156.977 62.4608 156.734 62.8003 156.734 63.2367C156.734 63.6731 156.928 64.0126 157.365 64.2551C157.801 64.4976 158.383 64.643 159.159 64.643C159.741 64.643 160.226 64.546 160.662 64.3521C161.099 64.1581 161.39 63.9156 161.535 63.6247V62.6548H161.584Z" fill="#F32735"/>
<path d="M170.894 54.5547V59.0646H176.47V54.5547H179.574V67.2117H176.47V62.3622H170.894V67.2117H167.79V54.5547H170.894Z" fill="#F32735"/>
<path d="M195.287 60.8602C195.287 61.83 195.093 62.7029 194.753 63.5273C194.414 64.3517 193.929 65.0307 193.298 65.6126C192.668 66.1945 191.989 66.6795 191.165 67.0189C190.34 67.3584 189.516 67.5039 188.595 67.5039C187.673 67.5039 186.849 67.3584 186.024 67.0189C185.2 66.6795 184.521 66.243 183.891 65.6126C183.26 64.9822 182.775 64.3033 182.436 63.5273C182.096 62.7514 181.902 61.83 181.902 60.8602C181.902 59.8903 182.096 59.0174 182.436 58.193C182.775 57.3686 183.26 56.6897 183.891 56.0592C184.521 55.4773 185.2 54.9924 186.024 54.6529C186.849 54.3135 187.673 54.168 188.595 54.168C189.516 54.168 190.34 54.3135 191.165 54.6529C191.989 54.9924 192.668 55.4773 193.298 56.0592C193.929 56.6412 194.414 57.3686 194.753 58.193C195.093 59.0659 195.287 59.9388 195.287 60.8602ZM185.345 59.5023C185.151 59.9388 185.054 60.3752 185.054 60.8602C185.054 61.3451 185.151 61.7816 185.345 62.218C185.539 62.606 185.782 62.9939 186.073 63.2849C186.412 63.5758 186.752 63.8183 187.188 63.9638C187.625 64.1093 188.061 64.2063 188.595 64.2063C189.079 64.2063 189.564 64.1093 189.952 63.9638C190.389 63.8183 190.728 63.5758 191.068 63.2849C191.407 62.9939 191.65 62.6545 191.844 62.218C192.038 61.83 192.135 61.3451 192.135 60.8602C192.135 60.3752 192.038 59.8903 191.844 59.5023C191.65 59.0659 191.407 58.7264 191.068 58.4355C190.728 58.1445 190.389 57.902 189.952 57.7565C189.516 57.6111 189.079 57.5141 188.595 57.5141C188.11 57.5141 187.625 57.6111 187.188 57.7565C186.752 57.902 186.364 58.1445 186.073 58.4355C185.782 58.7264 185.491 59.1144 185.345 59.5023Z" fill="#F32735"/>
<path d="M202.463 54.5547C203.094 54.5547 203.724 54.6517 204.258 54.7972C204.791 54.9426 205.276 55.1851 205.712 55.4761C206.1 55.767 206.44 56.155 206.682 56.5914C206.925 57.0279 207.022 57.5613 207.022 58.1917C207.022 58.7252 206.925 59.1616 206.779 59.5011C206.634 59.8405 206.391 60.1315 206.1 60.471C206.585 60.7619 206.973 61.1499 207.264 61.6348C207.555 62.1198 207.701 62.7017 207.701 63.4291C207.701 64.0595 207.555 64.593 207.313 65.0779C207.07 65.5629 206.731 65.9508 206.294 66.2903C205.858 66.6297 205.373 66.8722 204.791 67.0177C204.209 67.2117 203.627 67.2602 202.997 67.2602H197.565V54.6032H202.463V54.5547ZM200.621 57.4158V59.5496H202.851C203.239 59.5496 203.53 59.4526 203.724 59.2101C203.918 59.0161 204.064 58.7737 204.064 58.4827C204.064 58.1917 203.967 57.9493 203.724 57.7068C203.53 57.5128 203.191 57.3673 202.803 57.3673H200.621V57.4158ZM200.621 62.1198V64.302H203.482C203.821 64.302 204.112 64.205 204.355 64.011C204.549 63.8171 204.694 63.5261 204.694 63.2351C204.694 62.9442 204.597 62.7017 204.355 62.5077C204.161 62.2653 203.87 62.1683 203.482 62.1683H200.621V62.1198Z" fill="#F32735"/>
<path d="M219.194 54.5547V67.2117H216.09V63.4291H215.072L212.502 67.2117H208.913L211.774 62.9927C211.047 62.6047 210.465 62.1198 210.077 61.4409C209.689 60.7619 209.447 59.986 209.447 59.0646C209.447 58.3372 209.592 57.7068 209.834 57.1734C210.077 56.6399 210.416 56.155 210.853 55.767C211.289 55.3791 211.774 55.0881 212.356 54.8941C212.938 54.7002 213.569 54.6032 214.247 54.6032H219.194V54.5547ZM213.956 57.7068C213.52 57.7068 213.132 57.8523 212.89 58.0948C212.647 58.3857 212.502 58.6767 212.502 59.0646C212.502 59.4526 212.647 59.7921 212.938 60.0345C213.229 60.277 213.569 60.374 214.005 60.374H216.139V57.7068H213.956Z" fill="#F32735"/>
<path d="M232.19 57.8523H228.262V67.2117H225.158V57.8523H221.23V54.5547H232.142V57.8523H232.19Z" fill="#F32735"/>
<path d="M244.75 65.2731C244.362 65.9036 243.78 66.437 242.907 66.8734C242.035 67.3099 241.065 67.5524 239.949 67.5524C239.076 67.5524 238.204 67.4069 237.428 67.0674C236.652 66.728 235.924 66.2915 235.294 65.7096C234.664 65.1276 234.179 64.4002 233.839 63.5758C233.5 62.7514 233.306 61.8785 233.306 60.8602C233.306 59.8903 233.5 58.9689 233.839 58.1445C234.179 57.3201 234.664 56.6412 235.294 56.0107C235.924 55.4288 236.603 54.9439 237.428 54.6529C238.204 54.3135 239.076 54.168 239.949 54.168C241.065 54.168 242.035 54.4104 242.907 54.8469C243.732 55.2833 244.314 55.8168 244.702 56.3987L243.829 59.0174C243.489 58.6294 243.053 58.29 242.423 57.9505C241.841 57.6595 241.113 57.4656 240.337 57.4656C239.173 57.4656 238.252 57.7565 237.573 58.387C236.894 59.0174 236.555 59.7933 236.555 60.8117C236.555 61.83 236.894 62.6059 237.573 63.2364C238.252 63.8668 239.173 64.1578 240.337 64.1578C241.162 64.1578 241.841 64.0123 242.471 63.6728C243.053 63.3334 243.538 62.9939 243.877 62.606L244.75 65.2731Z" fill="#F32735"/>
<path d="M256.244 54.5547V67.2117H253.14V63.4291H252.122L249.551 67.2117H245.963L248.824 62.9927C248.097 62.6047 247.515 62.1198 247.127 61.4409C246.739 60.7619 246.496 59.986 246.496 59.0646C246.496 58.3372 246.642 57.7068 246.884 57.1734C247.127 56.6399 247.466 56.155 247.903 55.767C248.339 55.3791 248.824 55.0881 249.406 54.8941C249.988 54.7002 250.618 54.6032 251.297 54.6032H256.244V54.5547ZM251.006 57.7068C250.57 57.7068 250.182 57.8523 249.939 58.0948C249.697 58.3857 249.551 58.6767 249.551 59.0646C249.551 59.4526 249.697 59.7921 249.988 60.0345C250.279 60.277 250.618 60.374 251.055 60.374H253.188V57.7068H251.006Z" fill="#F32735"/>
<path d="M14.6937 67.2136L9.60184 54.5566H5.14038L0 67.2136H4.46146L7.37111 60.0365L10.2808 67.2136H14.6937Z" fill="#F32735"/>
</g>
<defs>
<clipPath id="clip0">
<rect width="380" height="72.4017" fill="white"/>
</clipPath>
</defs>
</svg>
