<svg width="248" height="48" fill="none" xmlns="http://www.w3.org/2000/svg"><g clip-path="url(#clip0)" fill="#fff"><path d="M15.82 2.9v17.08h-4.2V7.4H4.27v12.64H.07V2.89h15.75zM36.76 7.76c.49 1.13.7 2.33.7 3.67a9.02 9.02 0 01-2.6 6.5 8.45 8.45 0 01-9.17 1.84 3.33 3.33 0 01-1.74-1.63v8.82h-4.2V2.9h4.06v1.77c.28-.64.9-1.2 1.82-1.63a8.8 8.8 0 016.51 0 9.5 9.5 0 012.73 1.91 8.67 8.67 0 011.89 2.82zm-3.85 5.51c.2-.56.35-1.2.35-1.84 0-.63-.14-1.27-.35-1.83a3.41 3.41 0 00-.98-1.41c-.42-.43-.91-.7-1.54-.92a6.03 6.03 0 00-4.76.28c-.84.43-1.33 1-1.61 1.63v4.51c.28.64.77 1.2 1.6 1.63a6.06 6.06 0 004.77.28 4.72 4.72 0 001.54-.92c.42-.35.77-.85.98-1.41zM44.6 2.9v10.23l7.7-10.24h4.2v17.09h-4.13V9.74l-7.7 10.24h-4.2V2.89h4.13zM77.3 11.44c0 1.27-.21 2.47-.7 3.6a8.15 8.15 0 01-1.96 2.82c-.84.78-1.75 1.41-2.87 1.9-1.05.43-2.24.71-3.43.71a8.08 8.08 0 01-3.43-.7 8.52 8.52 0 01-2.87-1.91 9.72 9.72 0 01-1.96-2.82 8.92 8.92 0 01-.7-3.6 8.92 8.92 0 015.53-8.4 9.31 9.31 0 013.43-.71c1.19 0 2.38.21 3.43.7a8.53 8.53 0 012.87 1.91 8.44 8.44 0 011.96 2.9c.42 1.12.7 2.32.7 3.6zM63.93 9.6c-.21.56-.35 1.2-.35 1.84 0 .63.14 1.27.35 1.83.2.57.56 1.06.98 1.41.42.43.9.7 1.54.92a5.22 5.22 0 003.71 0 5.2 5.2 0 001.47-.92c.42-.42.77-.84 1.05-1.41.28-.56.35-1.13.35-1.83 0-.64-.14-1.28-.35-1.84a3.55 3.55 0 00-1.05-1.41 4 4 0 00-1.47-.92 5.22 5.22 0 00-1.82-.35c-.63 0-1.26.14-1.9.35-.55.21-1.11.56-1.53.92-.35.35-.7.84-.98 1.41zM97.18 7.76c.5 1.13.7 2.33.7 3.67a9.02 9.02 0 01-2.59 6.5 8.45 8.45 0 01-9.17 1.84 3.33 3.33 0 01-1.75-1.63v8.82h-4.2V2.9h4.06v1.77c.28-.64.91-1.2 1.82-1.63a8.8 8.8 0 016.51 0 8.12 8.12 0 012.73 1.84c.77.78 1.4 1.84 1.9 2.9zm-3.85 5.51c.21-.56.35-1.2.35-1.84 0-.63-.14-1.27-.35-1.83a3.41 3.41 0 00-.98-1.41c-.42-.43-.9-.7-1.54-.92a6.03 6.03 0 00-4.76.28c-.84.43-1.33 1-1.6 1.63v4.51c.27.64.76 1.2 1.6 1.63a6.06 6.06 0 004.76.28 4.72 4.72 0 001.54-.92c.35-.35.7-.85.98-1.41zM104.95 2.9v10.23l7.7-10.24h4.2v17.09h-4.12V9.74l-7.7 10.24h-4.2V2.89h4.13zM134.22 7.41h-5.25v12.64h-4.2V7.4h-5.25V2.9h14.63v4.52h.07zM145.28 16.24c1.06 0 2.04-.22 3.02-.57a4.69 4.69 0 002.17-1.55l1.26 3.24a5.97 5.97 0 01-2.52 2.2 9.16 9.16 0 01-4.14.91 9.75 9.75 0 01-3.57-.63 8.54 8.54 0 01-2.87-1.77 7.15 7.15 0 01-1.89-2.82 9.14 9.14 0 01-.7-3.74 9.48 9.48 0 012.38-6.36 8.28 8.28 0 016.3-2.68 7.9 7.9 0 016.03 2.75c.7.85 1.26 1.77 1.68 2.9.42 1.06.56 2.19.56 3.39v.77c0 .28-.07.5-.07.7h-12.6a3.47 3.47 0 001.6 2.48c.99.5 2.1.78 3.37.78zm3.5-6.71a2.64 2.64 0 00-1.32-2.05 4.7 4.7 0 00-2.67-.7c-1.04 0-1.95.2-2.73.7-.84.5-1.33 1.2-1.47 2.05h8.2zM169.58 7.41h-5.25v12.64h-4.2V7.4h-5.25V2.9h14.63v4.52h.07zM177.7 6.42c-.42 0-.77.07-1.12.22a3.68 3.68 0 00-1.75 1.2l-.63.84-1.47-2.6a4.28 4.28 0 011.75-2.54c.42-.36.98-.58 1.54-.79.56-.2 1.2-.28 1.9-.28.9 0 1.67.14 2.3.42.7.29 1.27.64 1.69 1.13.49.5.84 1.06 1.05 1.7.34.63.48 1.27.48 2.04a6.23 6.23 0 01-.84 3.18c-.28.5-.63.99-1.04 1.48-.43.5-.92 1.06-1.4 1.7l-1.69 1.9h5.32v3.89h-10.92v-2.97l4.83-5.3c.35-.35.63-.7.91-.98s.5-.57.63-.85c.14-.28.28-.5.35-.77.07-.22.14-.5.14-.85 0-.5-.2-.92-.56-1.27-.35-.36-.84-.5-1.47-.5zM191 3.18a9.26 9.26 0 013.44-.64c1.19 0 2.38.21 3.43.64a8.87 8.87 0 014.83 4.66c.49 1.12.7 2.32.7 3.6 0 1.34-.21 2.54-.7 3.6a8.72 8.72 0 01-4.83 4.66 9.54 9.54 0 01-6.86 0 8.72 8.72 0 01-5.53-8.26c0-1.35.2-2.55.7-3.6A8.15 8.15 0 01188.13 5a8.32 8.32 0 012.88-1.83zm3.44 13.27a5.23 5.23 0 004.83-2.96 5.1 5.1 0 00-1.12-5.72 6.81 6.81 0 00-1.68-1.06 4.93 4.93 0 00-2.03-.36 5.23 5.23 0 00-3.78 1.41c-.5.43-.84 1-1.12 1.63a4.86 4.86 0 00-.42 2.05 4.86 4.86 0 001.54 3.6 5.27 5.27 0 003.78 1.41zM209.35 16.52c.77 0 1.4-.21 1.82-.57.5-.35.7-.84.7-1.48 0-.56-.2-.99-.63-1.34-.42-.35-.98-.5-1.68-.5-.49 0-.9.08-1.26.15-.35.14-.63.2-.77.35l-.56-2.68 2.94-3.67h-4.69V2.89h9.52v2.83l-2.87 3.6a5.14 5.14 0 012.52 1.48c.42.42.7.92.91 1.55a6.95 6.95 0 01-.07 4.52 5.66 5.66 0 01-3.22 3.18 7.37 7.37 0 01-4.48.28 4.65 4.65 0 01-1.47-.64 6.9 6.9 0 01-1.05-.84 3.9 3.9 0 01-.63-1l.84-3.17c.49.57 1.05 1 1.68 1.41.5.22 1.4.43 2.45.43zM222.72 3.18a9.26 9.26 0 013.44-.64c1.19 0 2.38.21 3.43.64a8.88 8.88 0 014.83 4.66c.49 1.12.7 2.32.7 3.6 0 1.34-.21 2.54-.7 3.6a8.71 8.71 0 01-4.83 4.66 9.53 9.53 0 01-6.87 0 8.71 8.71 0 01-5.53-8.26c0-1.35.21-2.55.7-3.6A8.15 8.15 0 01219.85 5a8.31 8.31 0 012.88-1.83zm3.44 13.27a5.23 5.23 0 004.83-2.96 5.1 5.1 0 00-1.12-5.72 6.8 6.8 0 00-1.68-1.06 4.93 4.93 0 00-2.03-.36 5.23 5.23 0 00-3.78 1.41c-.5.43-.85 1-1.13 1.63a4.86 4.86 0 00-.42 2.05 4.86 4.86 0 001.54 3.6 6.8 6.8 0 001.69 1.05c.7.29 1.4.36 2.1.36zM11.13 43.48a3.9 3.9 0 01-1.82 1.7 6.54 6.54 0 01-7.49-1.13 6.55 6.55 0 01-1.4-2.12 8.28 8.28 0 01.07-5.37c.35-.77.77-1.48 1.4-2.04a6.8 6.8 0 012.03-1.34c.77-.36 1.54-.5 2.45-.5.56 0 1.12.07 1.61.21.5.15.98.29 1.33.5.35.21.77.5 1.05.7.28.29.56.57.7.85l-.63 1.77a7 7 0 00-.7-.78c-.28-.28-.56-.42-.9-.64-.36-.2-.7-.28-1.13-.42a7.65 7.65 0 00-1.26-.14c-.63 0-1.26.07-1.82.28-.56.21-.98.5-1.4.85-.42.35-.7.85-.9 1.41a5.03 5.03 0 000 3.67c.2.57.48.99.9 1.41.42.36.84.7 1.4.92.56.21 1.12.28 1.82.28.98 0 1.82-.2 2.45-.56a5.3 5.3 0 001.61-1.41l.63 1.9zM19.6 38.68h-2.8v7h-1.89v-7h-2.87v-2.04h7.56v2.04zM25.42 43.84c.56 0 1.12-.15 1.6-.36.5-.2.92-.5 1.13-.84l.56 1.48c-.14.21-.28.42-.5.63-.2.22-.48.36-.76.57-.28.14-.63.28-.98.35-.35.07-.77.14-1.2.14-.7 0-1.25-.14-1.88-.35a5.2 5.2 0 01-1.47-.92 4.2 4.2 0 01-.99-1.48 5.84 5.84 0 01-.07-3.81c.22-.57.5-1.06.92-1.48.42-.43.84-.78 1.4-1.06a4.12 4.12 0 011.89-.36c.63 0 1.26.14 1.75.36.56.28.98.56 1.33 1.06a5.09 5.09 0 011.12 3.31c0 .29 0 .5-.07.7h-6.72c.07.71.42 1.2.9 1.56.64.35 1.27.5 2.04.5zm1.96-3.75c-.07-.49-.28-.91-.7-1.2-.42-.28-.91-.49-1.54-.49-.28 0-.56.07-.84.14-.28.07-.5.21-.7.35-.21.15-.42.36-.56.57-.14.21-.21.42-.28.7h4.62v-.07zM39.42 36.56v9.04h-1.9v-6.99h-4.2v6.99h-1.88v-9.04h7.98zM46.14 43.84c.56 0 1.12-.15 1.61-.36.5-.2.91-.5 1.12-.84l.56 1.48c-.14.21-.28.42-.49.63-.2.22-.49.36-.77.57-.28.14-.63.28-.98.35-.35.07-.77.14-1.19.14-.7 0-1.26-.14-1.89-.35a5.2 5.2 0 01-1.47-.92 4.2 4.2 0 01-.98-1.48 5.84 5.84 0 01-.07-3.81c.21-.57.49-1.06.91-1.48.42-.43.84-.78 1.4-1.06a4.12 4.12 0 011.9-.36c.62 0 1.25.14 1.74.36.56.28.98.56 1.33 1.06A5.09 5.09 0 0150 41.08c0 .29 0 .5-.07.7H43.2c.07.71.42 1.2.91 1.56.56.35 1.26.5 2.03.5zm1.96-3.75c-.07-.49-.28-.91-.7-1.2-.42-.28-.9-.49-1.54-.49-.28 0-.56.07-.84.14-.28.07-.49.21-.7.35-.21.15-.42.36-.56.57-.14.21-.21.42-.28.7h4.62v-.07zM53.91 36.56v3.32h4.27v-3.32h1.9v9.04h-1.9V42h-4.27v3.6h-1.89v-9.04h1.9zM62.66 45.6v-9.04h1.9v2.62h1.54c.49 0 .9.07 1.33.2.42.15.77.36 1.05.64a3.18 3.18 0 01.98 2.33c0 .5-.07.92-.28 1.34-.21.43-.42.71-.7 1-.28.27-.7.49-1.05.63-.42.14-.84.2-1.33.2h-3.43v.08zm3.65-1.98c.42 0 .7-.14.98-.35.2-.21.35-.5.35-.85s-.14-.7-.35-.84a1.4 1.4 0 00-.91-.29h-1.75v2.4h1.68v-.07zM83.25 38.68h-2.87v7h-1.9v-7h-2.86v-2.04h7.63v2.04zM88.22 36.56c.42 0 .84.07 1.26.15.35.14.7.28.98.49.28.21.5.5.63.78.14.28.21.7.21 1.05 0 .36-.07.71-.14 1-.14.28-.28.49-.56.77.35.21.7.5.84.85.21.35.28.77.28 1.27 0 .42-.07.77-.28 1.13-.14.35-.42.63-.7.84a3.37 3.37 0 01-2.24.78h-3.78v-9.1h3.5zm.28 3.67c.28 0 .5-.07.7-.2a.64.64 0 00.28-.57c0-.28-.07-.5-.28-.64a1.18 1.18 0 00-.7-.2h-1.82v1.62h1.82zm.42 3.46c.28 0 .5-.07.7-.2.21-.15.28-.36.28-.64 0-.29-.07-.43-.28-.64a1.18 1.18 0 00-.7-.21h-2.24v1.76h2.24v-.07zM102.02 39.25c.28.56.34 1.2.34 1.9s-.14 1.27-.34 1.9a3.66 3.66 0 01-.98 1.5c-.43.42-.92.77-1.48.98-.56.21-1.12.35-1.75.35-.63 0-1.19-.14-1.75-.35a4.17 4.17 0 01-1.47-.99 4.2 4.2 0 01-.98-1.48 5.43 5.43 0 010-3.81c.21-.64.56-1.06.98-1.48.42-.43.91-.78 1.47-1a4.84 4.84 0 011.75-.35c.63 0 1.2.14 1.75.36.56.2 1.05.56 1.47.98.42.36.78.92.98 1.49zm-6.94 1.83c0 .43.07.78.21 1.06a2.54 2.54 0 001.4 1.41 2.79 2.79 0 002.1 0c.35-.14.63-.28.84-.56.21-.21.42-.5.56-.85a2.95 2.95 0 000-2.19 2.54 2.54 0 00-1.4-1.4 2.79 2.79 0 00-2.1 0c-.35.13-.63.27-.84.56-.2.28-.42.49-.56.84-.14.43-.2.78-.2 1.13zM106.22 36.56v5.86l4.34-5.86h1.89v9.04h-1.82v-5.86l-4.34 5.86h-1.97v-9.04h1.9zM116.3 45.6h-2.38l3.43-4.8-3.08-4.24h2.3l1.9 2.69 1.89-2.69h2.38l-3.01 4.24 3.43 4.8h-2.31l-2.24-3.18-2.31 3.18zM129.4 43.55c.41-.63.83-1.48 1.11-2.47.28-.99.5-2.26.5-3.74v-.78h6.22v7h1.33V48h-1.82v-2.4h-6.44V48h-1.82v-4.45h.91zm5.94 0v-4.87h-2.52a11.73 11.73 0 01-.56 2.97c-.28.84-.56 1.48-.77 1.9h3.85zM148.58 39.25c.28.56.35 1.2.35 1.9s-.14 1.27-.35 1.9a3.66 3.66 0 01-.98 1.5c-.42.42-.91.77-1.47.98a4.84 4.84 0 01-3.57 0 4.16 4.16 0 01-1.48-.99 4.2 4.2 0 01-.98-1.48 5.43 5.43 0 010-3.81c.21-.64.56-1.06.98-1.48.42-.43.91-.78 1.47-1a4.84 4.84 0 011.75-.35c.63 0 1.2.14 1.75.36.57.2 1.06.56 1.48.98.49.36.84.92 1.05 1.49zm-6.94 1.83c0 .43.07.78.21 1.06a2.53 2.53 0 001.4 1.41 2.79 2.79 0 002.1 0c.36-.14.64-.28.84-.56.22-.21.43-.5.57-.85a2.95 2.95 0 000-2.19 2.53 2.53 0 00-1.4-1.4 2.79 2.79 0 00-2.1 0c-.35.13-.63.27-.84.56-.22.28-.43.49-.57.84-.14.43-.2.78-.2 1.13zM158.38 44.26c-.14.21-.28.42-.5.63-.2.22-.48.36-.76.5s-.63.28-.98.35a4.84 4.84 0 01-2.94-.21 4.17 4.17 0 01-1.47-.99 5.63 5.63 0 01-1.05-1.48 5.43 5.43 0 010-3.81 3.6 3.6 0 011.05-1.48c.42-.43.9-.71 1.47-1a3.7 3.7 0 011.75-.35c.77 0 1.47.14 2.1.5.56.28.98.7 1.19 1.06l-.56 1.62a2.56 2.56 0 00-1.05-.78 3.24 3.24 0 00-1.47-.35 3.1 3.1 0 00-2.17.7c-.56.5-.84 1.14-.84 1.91 0 .78.28 1.48.84 1.98.56.5 1.26.7 2.17.7.56 0 1.05-.14 1.47-.35.42-.21.77-.5 1.05-.77l.7 1.62zM167.27 38.68h-2.87v7h-1.96v-7h-2.87v-2.04h7.63v2.04h.07zM170.77 36.56v5.86l4.34-5.86h1.9v9.04h-1.9v-5.86l-4.34 5.86h-1.89v-9.04h1.9zM186.25 40.24l3.15-3.6h2.38l-3.85 4.3 4.2 4.66h-2.53l-3.35-3.88v3.88h-1.9v-3.88L181 45.6h-2.52l4.2-4.66-3.78-4.3h2.38l3.15 3.6v-3.6h1.9v3.6h-.07zM197.1 43.84c.56 0 1.12-.15 1.6-.36.5-.2.92-.5 1.13-.84l.56 1.48c-.14.21-.28.42-.5.63-.2.22-.48.36-.76.57-.28.14-.63.28-.98.35-.35.07-.7.21-1.12.21-.7 0-1.26-.14-1.9-.35a5.19 5.19 0 01-1.46-.92 4.2 4.2 0 01-.98-1.48 5.84 5.84 0 01-.07-3.81c.2-.57.49-1.06.9-1.48.43-.43.85-.78 1.4-1.06a4.12 4.12 0 011.9-.36c.63 0 1.26.14 1.75.36.56.28.98.56 1.33 1.06.35.49.63.91.84 1.48.2.56.28 1.2.28 1.83 0 .29 0 .5-.07.7h-6.72c.07.71.42 1.2.9 1.56.57.28 1.2.43 1.97.43zm1.96-3.75c-.07-.49-.28-.91-.7-1.2-.42-.28-.91-.49-1.54-.49-.28 0-.56.07-.84.14-.28.07-.5.21-.7.35-.21.15-.42.36-.56.57-.14.21-.21.42-.28.7h4.62v-.07zM204.94 36.56v3.32h4.27v-3.32h1.9v9.04h-1.9V42h-4.27v3.6h-1.9v-9.04h1.9zM215.58 36.56v5.86l4.34-5.86h1.9v9.04h-1.9v-5.86l-4.34 5.86h-1.89v-9.04h1.9zM226.22 36.56v5.86l4.34-5.86h1.9v9.04h-1.9v-5.86l-4.34 5.86h-1.89v-9.04h1.9zm5.12-3.6c0 .43-.07.78-.21 1.06-.14.36-.35.64-.63.85-.28.21-.56.42-.91.57a3.15 3.15 0 01-2.25 0c-.34-.15-.7-.29-.9-.57-.29-.21-.5-.5-.64-.85s-.2-.7-.2-1.05l1.6-.29c0 .36.15.57.36.85.2.21.56.35.9.35.42 0 .7-.14.98-.35.22-.21.35-.5.35-.85l1.55.29z"/></g><defs><clipPath id="clip0"><path fill="#fff" d="M0 0h248v48H0z"/></clipPath></defs></svg>