<svg width="380" height="73" viewBox="0 0 380 73" fill="none" xmlns="http://www.w3.org/2000/svg">
<g clip-path="url(#clip0)">
<path d="M24.2463 4.39844V30.3612H17.8093V11.2646H6.54446V30.4685H0.107422V4.39844H24.2463Z" fill="#344887"/>
<path d="M56.3249 11.802C57.0759 13.5186 57.3977 15.3424 57.3977 17.3808C57.3977 19.4192 57.0759 21.243 56.3249 22.9596C55.5739 24.6761 54.6084 26.0708 53.4282 27.2509C52.2481 28.431 50.8534 29.3966 49.2442 30.0403C47.6349 30.684 46.0256 31.0059 44.3091 31.0059C42.378 31.0059 40.7687 30.684 39.374 30.0403C37.9793 29.3966 37.1211 28.5383 36.6919 27.5728V40.9833H30.2549V4.39943H36.4774V7.08153C36.9065 6.11597 37.872 5.2577 39.2667 4.61399C40.6614 3.97029 42.2707 3.64844 44.2018 3.64844C45.9183 3.64844 47.6349 3.97029 49.2442 4.61399C50.8534 5.36498 52.2481 6.33054 53.4282 7.51066C54.6084 8.69079 55.6812 10.1928 56.3249 11.802ZM50.4243 20.1702C50.7461 19.3119 50.9607 18.3463 50.9607 17.3808C50.9607 16.4152 50.7461 15.4497 50.4243 14.5914C50.1024 13.7331 49.566 12.9821 48.9223 12.4457C48.2786 11.802 47.5276 11.3729 46.5621 11.051C45.5965 10.7292 44.6309 10.5146 43.5581 10.5146C41.9488 10.5146 40.5541 10.8365 39.2667 11.4802C37.9793 12.1239 37.2283 12.9821 36.7992 13.9477V20.8139C37.2283 21.7794 37.9793 22.6377 39.2667 23.2814C40.5541 23.9251 41.9488 24.247 43.5581 24.247C44.6309 24.247 45.7038 24.0324 46.5621 23.7106C47.5276 23.3887 48.2786 22.8523 48.9223 22.3159C49.566 21.7794 50.1024 21.0284 50.4243 20.1702Z" fill="#344887"/>
<path d="M68.3405 4.39844V19.9546L80.1417 4.39844H86.5788V30.3612H80.249V14.805L68.4478 30.3612H62.0107V4.39844H68.3405Z" fill="#344887"/>
<path d="M118.442 17.3787C118.442 19.3098 118.12 21.1336 117.369 22.8502C116.618 24.5667 115.653 25.9614 114.365 27.1415C113.078 28.3217 111.683 29.2872 109.967 30.0382C108.358 30.6819 106.534 31.1111 104.71 31.1111C102.886 31.1111 101.062 30.7892 99.453 30.0382C97.8437 29.3945 96.3417 28.429 95.0543 27.1415C93.7669 25.8541 92.8014 24.4594 92.0504 22.8502C91.2994 21.1336 90.9775 19.3098 90.9775 17.3787C90.9775 15.4476 91.2994 13.6238 92.0504 11.9072C92.8014 10.1907 93.7669 8.79598 95.0543 7.50857C96.3417 6.32845 97.7364 5.36289 99.453 4.6119C101.062 3.9682 102.886 3.53906 104.71 3.53906C106.534 3.53906 108.358 3.86091 109.967 4.6119C111.576 5.25561 113.078 6.22116 114.365 7.50857C115.653 8.6887 116.618 10.1907 117.369 11.9072C118.013 13.6238 118.442 15.4476 118.442 17.3787ZM97.951 14.5893C97.6291 15.4476 97.4146 16.4131 97.4146 17.3787C97.4146 18.3443 97.6291 19.3098 97.951 20.1681C98.2729 21.0264 98.8093 21.7773 99.453 22.3138C100.097 22.9575 100.848 23.3866 101.813 23.7085C102.671 24.0303 103.637 24.2449 104.71 24.2449C105.675 24.2449 106.641 24.0303 107.499 23.7085C108.358 23.3866 109.109 22.8502 109.752 22.3138C110.396 21.6701 110.932 21.0264 111.361 20.1681C111.791 19.3098 111.898 18.4515 111.898 17.3787C111.898 16.4131 111.683 15.4476 111.361 14.5893C110.932 13.731 110.503 12.9801 109.752 12.4436C109.109 11.7999 108.358 11.3708 107.499 11.0489C106.641 10.7271 105.675 10.5125 104.71 10.5125C103.744 10.5125 102.779 10.7271 101.813 11.0489C100.955 11.3708 100.097 11.9072 99.453 12.4436C98.9165 12.9801 98.3801 13.731 97.951 14.5893Z" fill="#344887"/>
<path d="M148.91 11.802C149.661 13.5186 149.983 15.3424 149.983 17.3808C149.983 19.4192 149.661 21.243 148.91 22.9596C148.159 24.6761 147.193 26.0708 146.013 27.2509C144.833 28.431 143.438 29.3966 141.829 30.0403C140.22 30.684 138.611 31.0059 136.894 31.0059C134.963 31.0059 133.354 30.684 131.959 30.0403C130.564 29.3966 129.706 28.5383 129.277 27.5728V40.9833H122.84V4.39943H129.062V7.08153C129.491 6.11597 130.457 5.2577 131.852 4.61399C133.246 3.97029 134.856 3.64844 136.787 3.64844C138.503 3.64844 140.22 3.97029 141.829 4.61399C143.438 5.2577 144.833 6.22325 146.013 7.40338C147.193 8.5835 148.159 10.1928 148.91 11.802ZM143.009 20.1702C143.331 19.3119 143.546 18.3463 143.546 17.3808C143.546 16.4152 143.331 15.4497 143.009 14.5914C142.687 13.7331 142.151 12.9821 141.507 12.4457C140.864 11.802 140.113 11.3729 139.147 11.051C138.181 10.7292 137.216 10.5146 136.143 10.5146C134.534 10.5146 133.139 10.8365 131.852 11.4802C130.564 12.1239 129.813 12.9821 129.384 13.9477V20.8139C129.813 21.7794 130.564 22.6377 131.852 23.2814C133.139 23.9251 134.534 24.247 136.143 24.247C137.216 24.247 138.289 24.0324 139.147 23.7106C140.113 23.3887 140.864 22.8523 141.507 22.3159C142.044 21.7794 142.58 21.0284 143.009 20.1702Z" fill="#344887"/>
<path d="M160.819 4.39844V19.9546L172.62 4.39844H179.057V30.3612H172.728V14.805L160.926 30.3612H154.489V4.39844H160.819Z" fill="#344887"/>
<path d="M205.663 11.2646H197.617V30.4685H191.18V11.2646H183.134V4.39844H205.556V11.2646H205.663Z" fill="#344887"/>
<path d="M222.615 24.6762C224.224 24.6762 225.726 24.3544 227.228 23.818C228.73 23.2816 229.803 22.4233 230.554 21.4577L232.485 26.3928C231.626 27.7875 230.339 28.8603 228.622 29.7186C226.906 30.5769 224.76 31.1133 222.293 31.1133C220.362 31.1133 218.431 30.7914 216.821 30.1477C215.212 29.504 213.603 28.6458 212.423 27.4656C211.135 26.2855 210.17 24.8908 209.526 23.1743C208.775 21.4577 208.453 19.6339 208.453 17.4882C208.453 15.6644 208.775 13.8406 209.419 12.2313C210.062 10.622 210.921 9.12006 212.101 7.83265C213.281 6.54524 214.676 5.57969 216.285 4.8287C217.894 4.07771 219.718 3.75586 221.756 3.75586C223.687 3.75586 225.404 4.185 227.013 4.93598C228.622 5.68697 229.91 6.65253 230.983 7.93994C232.056 9.22734 232.914 10.622 233.558 12.3386C234.201 13.9478 234.416 15.6644 234.416 17.4882C234.416 17.8101 234.416 18.2392 234.416 18.6683C234.416 19.0975 234.309 19.4193 234.309 19.7412H214.997C215.319 21.4577 216.178 22.7451 217.465 23.4961C218.967 24.2471 220.683 24.6762 222.615 24.6762ZM227.979 14.4843C227.764 13.0896 227.121 12.0167 225.94 11.373C224.76 10.622 223.473 10.3002 221.864 10.3002C220.254 10.3002 218.86 10.622 217.68 11.373C216.392 12.124 215.641 13.1969 215.427 14.4843H227.979Z" fill="#344887"/>
<path d="M259.842 11.2646H251.796V30.4685H245.359V11.2646H237.312V4.39844H259.735V11.2646H259.842Z" fill="#344887"/>
<path d="M272.287 9.76376C271.643 9.76376 271.107 9.87105 270.571 10.0856C270.034 10.3002 269.605 10.5148 269.069 10.8366C268.639 11.1585 268.21 11.4803 267.888 11.9094C267.567 12.3386 267.245 12.7677 266.923 13.1969L264.67 9.22734C264.884 8.47636 265.206 7.72537 265.635 7.08166C266.065 6.43796 266.708 5.79426 267.352 5.36512C267.996 4.8287 268.854 4.50685 269.712 4.185C270.571 3.86314 271.536 3.75586 272.609 3.75586C274.004 3.75586 275.184 3.97043 276.149 4.39956C277.222 4.8287 278.08 5.36512 278.724 6.11611C279.475 6.8671 280.011 7.72537 280.333 8.69092C280.87 9.65648 281.084 10.622 281.084 11.8022C281.084 12.7677 280.977 13.626 280.763 14.377C280.548 15.128 280.226 15.879 279.797 16.6299C279.368 17.3809 278.831 18.1319 278.188 18.8829C277.544 19.6339 276.793 20.4922 276.042 21.4577L273.467 24.3544H281.621V30.255H264.884V25.7491L272.287 17.7028C272.823 17.1664 273.253 16.6299 273.682 16.2008C274.111 15.7717 274.433 15.3425 274.647 14.9134C274.862 14.4843 275.076 14.1624 275.184 13.7333C275.291 13.4114 275.398 12.9823 275.398 12.4459C275.398 11.6949 275.076 11.0512 274.54 10.5148C274.004 9.97833 273.253 9.76376 272.287 9.76376Z" fill="#F32735"/>
<path d="M292.671 4.82688C294.28 4.18318 296.104 3.86133 297.928 3.86133C299.751 3.86133 301.575 4.18318 303.185 4.82688C304.794 5.47059 306.296 6.43614 307.583 7.61627C308.871 8.79639 309.836 10.2984 310.587 11.9076C311.338 13.6242 311.66 15.448 311.66 17.3791C311.66 19.4175 311.338 21.2413 310.587 22.8506C309.836 24.5671 308.871 25.9618 307.583 27.142C306.296 28.3221 304.901 29.2876 303.185 29.9313C301.468 30.575 299.751 30.8969 297.928 30.8969C296.104 30.8969 294.28 30.575 292.671 29.9313C290.954 29.2876 289.56 28.3221 288.272 27.142C286.985 25.9618 286.019 24.4599 285.268 22.8506C284.517 21.2413 284.195 19.3102 284.195 17.3791C284.195 15.3407 284.517 13.5169 285.268 11.9076C286.019 10.1911 286.985 8.79639 288.272 7.61627C289.56 6.32886 291.061 5.47059 292.671 4.82688ZM297.928 24.9963C299 24.9963 300.073 24.7817 301.039 24.4599C302.004 24.0307 302.863 23.6016 303.614 22.8506C304.365 22.2069 304.901 21.3486 305.33 20.4904C305.759 19.5248 305.974 18.5592 305.974 17.3791C305.974 16.3063 305.759 15.2334 305.33 14.2679C304.901 13.3023 304.365 12.5513 303.614 11.8003C302.863 11.1566 302.004 10.6202 301.039 10.1911C300.073 9.76195 299 9.65467 297.928 9.65467C296.748 9.65467 295.782 9.86923 294.709 10.1911C293.744 10.6202 292.885 11.0494 292.134 11.8003C291.383 12.444 290.847 13.3023 290.418 14.2679C289.989 15.2334 289.774 16.199 289.774 17.3791C289.774 18.5592 289.989 19.5248 290.418 20.4904C290.847 21.4559 291.383 22.2069 292.134 22.8506C292.885 23.4943 293.744 24.0307 294.709 24.4599C295.782 24.889 296.748 24.9963 297.928 24.9963Z" fill="#F32735"/>
<path d="M320.779 25.1043C321.959 25.1043 322.925 24.7824 323.569 24.246C324.32 23.7096 324.641 22.9586 324.641 21.993C324.641 21.1347 324.32 20.491 323.676 19.9546C323.032 19.4182 322.174 19.2036 321.101 19.2036C320.35 19.2036 319.706 19.3109 319.17 19.4182C318.634 19.6328 318.204 19.7401 317.99 19.9546L317.132 15.8778L321.638 10.2991H314.45V4.39844H329.04V8.6898L324.641 14.1613C325.285 14.2686 325.929 14.5904 326.573 14.9123C327.216 15.2341 327.86 15.7705 328.504 16.4142C329.147 17.058 329.577 17.8089 329.898 18.7745C330.22 19.7401 330.435 20.8129 330.435 22.2076C330.435 23.495 330.22 24.5678 329.791 25.6407C329.362 26.7135 328.718 27.6791 327.86 28.5373C327.002 29.3956 326.036 30.0393 324.856 30.4685C323.676 30.8976 322.389 31.2194 320.887 31.2194C319.814 31.2194 318.848 31.1122 317.99 30.8976C317.132 30.683 316.381 30.3612 315.737 29.932C315.093 29.5029 314.557 29.0738 314.128 28.6446C313.699 28.1082 313.377 27.6791 313.162 27.1426L314.45 22.3149C315.201 23.1731 316.059 23.8168 317.024 24.4605C317.775 24.7824 319.17 25.1043 320.779 25.1043Z" fill="#F32735"/>
<path d="M341.27 4.82688C342.88 4.18318 344.703 3.86133 346.527 3.86133C348.351 3.86133 350.175 4.18318 351.784 4.82688C353.393 5.47059 354.895 6.43614 356.183 7.61627C357.47 8.79639 358.436 10.2984 359.187 11.9076C359.938 13.6242 360.26 15.448 360.26 17.3791C360.26 19.4175 359.938 21.2413 359.187 22.8506C358.436 24.5671 357.47 25.9618 356.183 27.142C354.895 28.3221 353.501 29.2876 351.784 29.9313C350.068 30.575 348.351 30.8969 346.527 30.8969C344.703 30.8969 342.88 30.575 341.27 29.9313C339.554 29.2876 338.159 28.3221 336.872 27.142C335.584 25.9618 334.619 24.4599 333.868 22.8506C333.117 21.2413 332.795 19.3102 332.795 17.3791C332.795 15.3407 333.117 13.5169 333.868 11.9076C334.619 10.1911 335.584 8.79639 336.872 7.61627C338.159 6.32886 339.661 5.47059 341.27 4.82688ZM346.527 24.9963C347.6 24.9963 348.673 24.7817 349.638 24.4599C350.604 24.0307 351.462 23.6016 352.213 22.8506C352.964 22.2069 353.501 21.3486 353.93 20.4904C354.359 19.5248 354.574 18.5592 354.574 17.3791C354.574 16.3063 354.359 15.2334 353.93 14.2679C353.501 13.3023 352.964 12.5513 352.213 11.8003C351.462 11.1566 350.604 10.6202 349.638 10.1911C348.673 9.76195 347.6 9.65467 346.527 9.65467C345.347 9.65467 344.382 9.86923 343.309 10.1911C342.343 10.6202 341.485 11.0494 340.734 11.8003C339.983 12.444 339.447 13.3023 339.017 14.2679C338.588 15.2334 338.374 16.199 338.374 17.3791C338.374 18.5592 338.588 19.5248 339.017 20.4904C339.447 21.4559 339.983 22.2069 340.734 22.8506C341.485 23.4943 342.343 24.0307 343.309 24.4599C344.382 24.889 345.454 24.9963 346.527 24.9963Z" fill="#F32735"/>
<path d="M374.099 0H368.842L362.834 10.4065H368.091L374.099 0Z" fill="#F32735"/>
<path d="M368.842 0H374.099L379.999 10.4065H374.85L368.842 0Z" fill="#F32735"/>
<path d="M16.2019 50.6562V69.511H13.2607V53.86H7.69357C7.62355 56.5735 7.45723 58.9194 7.19463 60.8977C6.93203 62.876 6.55563 64.5129 6.06544 65.8084C5.57525 67.1039 4.96252 68.0667 4.22723 68.697C3.50945 69.3097 2.65162 69.6161 1.65373 69.6161C1.46116 69.6161 1.26859 69.5986 1.07601 69.5636C0.883437 69.5286 0.725876 69.4848 0.603328 69.4323L0.078125 66.7012C0.603328 66.6662 1.08476 66.5699 1.52243 66.4123C1.9601 66.2373 2.34525 65.9484 2.67788 65.5458C3.02802 65.1256 3.33439 64.5566 3.59699 63.8389C3.85959 63.1036 4.07842 62.1494 4.25349 60.9765C4.42856 59.786 4.55986 58.3505 4.64739 56.6698C4.75243 54.9892 4.81371 52.9847 4.83121 50.6562H16.2019Z" fill="#F32735"/>
<path d="M23.4261 56.1971V64.8105L29.9386 56.1971H32.801V69.511H29.9386V60.8977L23.4261 69.511H20.5637V56.1971H23.4261Z" fill="#F32735"/>
<path d="M36.9244 66.4649C37.5547 65.5195 38.1236 64.294 38.6313 62.7884C39.139 61.2654 39.3929 59.4359 39.3929 57.3001V56.1971H48.6627V66.4649H50.6847V73.0562H47.9274V69.511H38.3425V73.0562H35.5851V66.4649H36.9244ZM45.8004 66.4649V59.2433H42.0189C41.8788 60.9065 41.6075 62.3595 41.2048 63.6025C40.8197 64.8455 40.4258 65.7996 40.0231 66.4649H45.8004Z" fill="#F32735"/>
<path d="M59.946 66.9113C60.7863 66.9113 61.5828 66.745 62.3356 66.4123C63.1059 66.0622 63.6749 65.6508 64.0426 65.1781L64.8829 67.4102C64.7078 67.7254 64.4627 68.0317 64.1476 68.3293C63.8325 68.627 63.4561 68.8896 63.0184 69.1171C62.5807 69.3447 62.0905 69.5198 61.5478 69.6423C61.0226 69.7824 60.4537 69.8524 59.8409 69.8524C58.843 69.8524 57.9152 69.6949 57.0573 69.3797C56.1995 69.0471 55.4555 68.5832 54.8252 67.988C54.195 67.3752 53.7048 66.6399 53.3547 65.7821C53.0045 64.9068 52.8295 63.9351 52.8295 62.8672C52.8295 61.9219 52.9783 61.029 53.2759 60.1887C53.591 59.3484 54.0374 58.6043 54.6152 57.9566C55.1929 57.3088 55.8931 56.8011 56.716 56.4335C57.5388 56.0483 58.4666 55.8558 59.4995 55.8558C60.4624 55.8558 61.3378 56.0483 62.1256 56.4335C62.9134 56.8011 63.5786 57.3088 64.1213 57.9566C64.6815 58.5868 65.1105 59.3309 65.4081 60.1887C65.7057 61.029 65.8545 61.9131 65.8545 62.841C65.8545 63.2261 65.8282 63.5763 65.7757 63.8914H55.7443C55.8844 64.9243 56.3308 65.6858 57.0836 66.176C57.8364 66.6662 58.7905 66.9113 59.946 66.9113ZM62.8608 61.3179C62.7733 60.5651 62.4057 59.9611 61.7579 59.5059C61.1277 59.0507 60.3749 58.8232 59.4995 58.8232C59.0444 58.8232 58.6155 58.8844 58.2128 59.007C57.8101 59.1295 57.4425 59.3046 57.1099 59.5322C56.7947 59.7423 56.5234 60.0049 56.2958 60.32C56.0857 60.6176 55.9457 60.9502 55.8756 61.3179H62.8608Z" fill="#F32735"/>
<path d="M82.1604 60.0311C82.5281 60.889 82.7119 61.8343 82.7119 62.8672C82.7119 63.9001 82.5281 64.8455 82.1604 65.7033C81.7928 66.5612 81.2938 67.2964 80.6636 67.9092C80.0334 68.5219 79.3068 69.0034 78.484 69.3535C77.6787 69.6861 76.8296 69.8524 75.9368 69.8524C74.9389 69.8524 74.081 69.6861 73.3633 69.3535C72.6455 69.0209 72.1816 68.6007 71.9715 68.093V75.1045H69.1091V56.1971H71.8664V57.6152C72.094 57.1075 72.5667 56.6873 73.2845 56.3547C74.0198 56.0221 74.8864 55.8558 75.8842 55.8558C76.7946 55.8558 77.6612 56.0308 78.484 56.381C79.3068 56.7136 80.0334 57.195 80.6636 57.8253C81.2938 58.438 81.7928 59.1733 82.1604 60.0311ZM79.8233 62.841C79.8233 61.6505 79.4381 60.6964 78.6678 59.9786C77.915 59.2608 76.9171 58.9019 75.6742 58.9019C75.2365 58.9019 74.8163 58.9545 74.4137 59.0595C74.011 59.1645 73.6434 59.3046 73.3107 59.4797C72.9956 59.6547 72.7155 59.8648 72.4704 60.1099C72.2428 60.355 72.0765 60.6176 71.9715 60.8977V64.8367C72.0765 65.1168 72.2428 65.3794 72.4704 65.6245C72.7155 65.8696 72.9956 66.0797 73.3107 66.2548C73.6434 66.4299 74.011 66.5699 74.4137 66.675C74.8163 66.7625 75.2365 66.8063 75.6742 66.8063C76.9171 66.8063 77.915 66.4474 78.6678 65.7296C79.4381 65.0118 79.8233 64.0489 79.8233 62.841Z" fill="#F32735"/>
<path d="M93.7307 64.758C93.5556 64.4428 93.188 64.1977 92.6278 64.0227C92.0851 63.8476 91.4811 63.7601 90.8158 63.7601C89.888 63.7601 89.1702 63.9089 88.6625 64.2065C88.1723 64.4866 87.9272 64.8805 87.9272 65.3882C87.9272 65.8784 88.1723 66.2723 88.6625 66.5699C89.1702 66.8675 89.888 67.0163 90.8158 67.0163C91.4636 67.0163 92.0588 66.8938 92.6015 66.6487C93.1617 66.4036 93.5381 66.0972 93.7307 65.7296V64.758ZM85.7213 58.2192C86.2115 57.4839 86.9118 56.9062 87.8222 56.486C88.75 56.0658 89.7392 55.8558 90.7896 55.8558C92.5402 55.8558 93.9408 56.3109 94.9912 57.2213C96.0591 58.1141 96.5931 59.4009 96.5931 61.0815V69.511H93.8357V68.3556C93.6782 68.5832 93.4593 68.7933 93.1792 68.9858C92.8991 69.1609 92.584 69.3185 92.2339 69.4585C91.9012 69.5811 91.5511 69.6774 91.1835 69.7474C90.8158 69.8174 90.4482 69.8524 90.0805 69.8524C89.3452 69.8524 88.6625 69.7474 88.0322 69.5373C87.4195 69.3447 86.8855 69.0646 86.4304 68.697C85.9927 68.3118 85.6513 67.8567 85.4062 67.3315C85.1611 66.7887 85.0386 66.176 85.0386 65.4932C85.0386 64.793 85.1786 64.1802 85.4587 63.655C85.7389 63.1123 86.1152 62.6571 86.5879 62.2895C87.0781 61.9219 87.6383 61.6505 88.2686 61.4754C88.9163 61.2829 89.5991 61.1866 90.3169 61.1866C91.0522 61.1866 91.7262 61.2741 92.3389 61.4492C92.9691 61.6242 93.4331 61.8606 93.7307 62.1582V61.6067C93.7307 61.1165 93.6344 60.6964 93.4418 60.3463C93.2668 59.9961 93.0304 59.716 92.7328 59.5059C92.4352 59.2783 92.0851 59.1208 91.6824 59.0332C91.2797 58.9282 90.8596 58.8757 90.4219 58.8757C89.5991 58.8757 88.8288 59.0332 88.111 59.3484C87.4107 59.646 86.8593 60.0661 86.4566 60.6089L85.7213 58.2192Z" fill="#F32735"/>
<path d="M112.549 56.1971H115.412L117.486 69.511H114.65L113.337 61.6067L109.949 69.511H107.507L104.146 61.5805L102.807 69.511H99.8918L101.966 56.1971H104.671L108.61 65.3357L112.549 56.1971Z" fill="#F32735"/>
<path d="M123.825 56.1971V64.8105L130.338 56.1971H133.2V69.511H130.338V60.8977L123.825 69.511H120.963V56.1971H123.825Z" fill="#F32735"/>
<path d="M155.483 67.5153C155.308 67.8304 155.063 68.128 154.748 68.4081C154.433 68.6882 154.056 68.9333 153.619 69.1434C153.198 69.3535 152.717 69.5198 152.174 69.6423C151.649 69.7824 151.08 69.8524 150.467 69.8524C149.54 69.8524 148.655 69.6861 147.815 69.3535C146.992 69.0034 146.257 68.5219 145.609 67.9092C144.979 67.2964 144.471 66.5612 144.086 65.7033C143.719 64.8455 143.535 63.8914 143.535 62.841C143.535 61.7906 143.719 60.8364 144.086 59.9786C144.471 59.1208 144.979 58.3855 145.609 57.7728C146.257 57.16 146.992 56.6873 147.815 56.3547C148.655 56.0221 149.54 55.8558 150.467 55.8558C151.658 55.8558 152.691 56.0834 153.566 56.5385C154.441 56.9937 155.045 57.5277 155.378 58.1404L154.59 60.5038C154.24 60.0836 153.732 59.716 153.067 59.4009C152.402 59.0683 151.675 58.9019 150.888 58.9019C149.54 58.9019 148.454 59.2608 147.631 59.9786C146.826 60.6964 146.423 61.6505 146.423 62.841C146.423 64.0314 146.826 64.9943 147.631 65.7296C148.454 66.4474 149.54 66.8063 150.888 66.8063C151.728 66.8063 152.472 66.6399 153.12 66.3073C153.767 65.9572 154.275 65.572 154.643 65.1519L155.483 67.5153Z" fill="#F32735"/>
<path d="M168.9 59.2433H164.646V69.511H161.783V59.2433H157.503V56.1971H168.9V59.2433Z" fill="#F32735"/>
<path d="M179.589 64.758C179.414 64.4428 179.046 64.1977 178.486 64.0227C177.943 63.8476 177.339 63.7601 176.674 63.7601C175.746 63.7601 175.029 63.9089 174.521 64.2065C174.031 64.4866 173.786 64.8805 173.786 65.3882C173.786 65.8784 174.031 66.2723 174.521 66.5699C175.029 66.8675 175.746 67.0163 176.674 67.0163C177.322 67.0163 177.917 66.8938 178.46 66.6487C179.02 66.4036 179.397 66.0972 179.589 65.7296V64.758ZM171.58 58.2192C172.07 57.4839 172.77 56.9062 173.681 56.486C174.608 56.0658 175.598 55.8558 176.648 55.8558C178.399 55.8558 179.799 56.3109 180.85 57.2213C181.918 58.1141 182.451 59.4009 182.451 61.0815V69.511H179.694V68.3556C179.537 68.5832 179.318 68.7933 179.038 68.9858C178.758 69.1609 178.442 69.3185 178.092 69.4585C177.76 69.5811 177.41 69.6774 177.042 69.7474C176.674 69.8174 176.307 69.8524 175.939 69.8524C175.204 69.8524 174.521 69.7474 173.891 69.5373C173.278 69.3447 172.744 69.0646 172.289 68.697C171.851 68.3118 171.51 67.8567 171.265 67.3315C171.02 66.7887 170.897 66.176 170.897 65.4932C170.897 64.793 171.037 64.1802 171.317 63.655C171.597 63.1123 171.974 62.6571 172.446 62.2895C172.937 61.9219 173.497 61.6505 174.127 61.4754C174.775 61.2829 175.458 61.1866 176.175 61.1866C176.911 61.1866 177.585 61.2741 178.197 61.4492C178.828 61.6242 179.292 61.8606 179.589 62.1582V61.6067C179.589 61.1165 179.493 60.6964 179.3 60.3463C179.125 59.9961 178.889 59.716 178.591 59.5059C178.294 59.2783 177.943 59.1208 177.541 59.0332C177.138 58.9282 176.718 58.8757 176.28 58.8757C175.458 58.8757 174.687 59.0332 173.969 59.3484C173.269 59.646 172.718 60.0661 172.315 60.6089L171.58 58.2192Z" fill="#F32735"/>
<path d="M189.322 56.1971V61.1341H195.729V56.1971H198.591V69.511H195.729V64.1802H189.322V69.511H186.459V56.1971H189.322Z" fill="#F32735"/>
<path d="M215.06 60.0836C215.427 60.9415 215.611 61.8693 215.611 62.8672C215.611 63.8651 215.427 64.793 215.06 65.6508C214.692 66.5086 214.193 67.2527 213.563 67.8829C212.933 68.4957 212.197 68.9771 211.357 69.3272C210.534 69.6774 209.659 69.8524 208.731 69.8524C207.803 69.8524 206.919 69.6774 206.079 69.3272C205.256 68.9771 204.529 68.4957 203.899 67.8829C203.269 67.2527 202.77 66.5086 202.402 65.6508C202.035 64.793 201.851 63.8651 201.851 62.8672C201.851 61.8693 202.035 60.9415 202.402 60.0836C202.77 59.2258 203.269 58.4818 203.899 57.8515C204.529 57.2213 205.256 56.7311 206.079 56.381C206.919 56.0308 207.803 55.8558 208.731 55.8558C209.659 55.8558 210.534 56.0308 211.357 56.381C212.197 56.7311 212.933 57.2213 213.563 57.8515C214.193 58.4818 214.692 59.2258 215.06 60.0836ZM204.713 62.8672C204.713 63.4625 204.818 64.0052 205.028 64.4954C205.238 64.968 205.518 65.3795 205.869 65.7296C206.236 66.0622 206.665 66.3248 207.155 66.5174C207.646 66.71 208.171 66.8063 208.731 66.8063C209.291 66.8063 209.816 66.71 210.307 66.5174C210.797 66.3248 211.217 66.0622 211.567 65.7296C211.935 65.3795 212.215 64.968 212.407 64.4954C212.617 64.0052 212.722 63.4712 212.722 62.8935C212.722 62.2983 212.617 61.7555 212.407 61.2654C212.215 60.7752 211.935 60.355 211.567 60.0049C211.217 59.6547 210.797 59.3834 210.307 59.1908C209.816 58.9982 209.291 58.9019 208.731 58.9019C208.171 58.9019 207.646 58.9982 207.155 59.1908C206.665 59.3834 206.236 59.6547 205.869 60.0049C205.518 60.355 205.238 60.7752 205.028 61.2654C204.818 61.7555 204.713 62.2895 204.713 62.8672Z" fill="#F32735"/>
<path d="M223.969 56.1971C224.634 56.1971 225.247 56.2759 225.807 56.4335C226.367 56.591 226.848 56.8274 227.251 57.1425C227.671 57.4576 227.995 57.8515 228.223 58.3242C228.468 58.7794 228.59 59.3046 228.59 59.8998C228.59 60.46 228.503 60.9415 228.328 61.3441C228.17 61.7293 227.899 62.0969 227.514 62.4471C228.074 62.7447 228.503 63.1473 228.8 63.655C229.116 64.1627 229.273 64.8017 229.273 65.572C229.273 66.1848 229.142 66.7362 228.879 67.2264C228.634 67.6991 228.293 68.1105 227.855 68.4606C227.435 68.7933 226.936 69.0559 226.358 69.2484C225.781 69.4235 225.168 69.511 224.52 69.511H218.874V56.1971H223.969ZM224.993 66.7012C225.395 66.7012 225.728 66.5874 225.991 66.3598C226.271 66.1147 226.411 65.7909 226.411 65.3882C226.411 65.0206 226.271 64.7229 225.991 64.4954C225.728 64.2503 225.387 64.1277 224.966 64.1277H221.658V66.7012H224.993ZM224.362 61.528C224.783 61.528 225.115 61.4142 225.36 61.1866C225.623 60.9415 225.754 60.6439 225.754 60.2937C225.754 59.8911 225.623 59.576 225.36 59.3484C225.098 59.1208 224.765 59.007 224.362 59.007H221.658V61.528H224.362Z" fill="#F32735"/>
<path d="M241.97 56.1971V69.511H239.107V65.467H237.4L234.643 69.511H231.36L234.433 65.0206C233.628 64.6354 232.989 64.0927 232.516 63.3924C232.061 62.6747 231.833 61.8256 231.833 60.8452C231.833 60.1449 231.956 59.5059 232.201 58.9282C232.463 58.3505 232.813 57.8603 233.251 57.4576C233.706 57.055 234.24 56.7486 234.853 56.5385C235.466 56.3109 236.122 56.1971 236.823 56.1971H241.97ZM236.481 59.1645C235.921 59.1645 235.475 59.3309 235.142 59.6635C234.827 59.9786 234.669 60.39 234.669 60.8977C234.669 61.4229 234.836 61.8343 235.168 62.1319C235.518 62.4121 235.956 62.5521 236.481 62.5521H239.107V59.1645H236.481Z" fill="#F32735"/>
<path d="M256.271 59.2433H252.017V69.511H249.155V59.2433H244.875V56.1971H256.271V59.2433Z" fill="#F32735"/>
<path d="M270.038 67.5153C269.863 67.8304 269.618 68.128 269.303 68.4081C268.988 68.6882 268.611 68.9333 268.173 69.1434C267.753 69.3535 267.272 69.5198 266.729 69.6423C266.204 69.7824 265.635 69.8524 265.022 69.8524C264.094 69.8524 263.21 69.6861 262.37 69.3535C261.547 69.0034 260.812 68.5219 260.164 67.9092C259.534 67.2964 259.026 66.5612 258.641 65.7033C258.273 64.8455 258.09 63.8914 258.09 62.841C258.09 61.7906 258.273 60.8364 258.641 59.9786C259.026 59.1208 259.534 58.3855 260.164 57.7728C260.812 57.16 261.547 56.6873 262.37 56.3547C263.21 56.0221 264.094 55.8558 265.022 55.8558C266.213 55.8558 267.246 56.0834 268.121 56.5385C268.996 56.9937 269.6 57.5277 269.933 58.1404L269.145 60.5038C268.795 60.0836 268.287 59.716 267.622 59.4009C266.957 59.0683 266.23 58.9019 265.442 58.9019C264.094 58.9019 263.009 59.2608 262.186 59.9786C261.381 60.6964 260.978 61.6505 260.978 62.841C260.978 64.0314 261.381 64.9943 262.186 65.7296C263.009 66.4474 264.094 66.8063 265.442 66.8063C266.283 66.8063 267.027 66.6399 267.675 66.3073C268.322 65.9572 268.83 65.572 269.198 65.1519L270.038 67.5153Z" fill="#F32735"/>
<path d="M282.693 56.1971V69.511H279.831V65.467H278.124L275.367 69.511H272.084L275.157 65.0206C274.351 64.6354 273.712 64.0927 273.24 63.3924C272.784 62.6747 272.557 61.8256 272.557 60.8452C272.557 60.1449 272.679 59.5059 272.924 58.9282C273.187 58.3505 273.537 57.8603 273.975 57.4576C274.43 57.055 274.964 56.7486 275.577 56.5385C276.19 56.3109 276.846 56.1971 277.546 56.1971H282.693ZM277.205 59.1645C276.645 59.1645 276.198 59.3309 275.866 59.6635C275.551 59.9786 275.393 60.39 275.393 60.8977C275.393 61.4229 275.559 61.8343 275.892 62.1319C276.242 62.4121 276.68 62.5521 277.205 62.5521H279.831V59.1645H277.205Z" fill="#F32735"/>
</g>
<defs>
<clipPath id="clip0">
<rect width="380" height="72.9531" fill="white"/>
</clipPath>
</defs>
</svg>
