<svg width="161" height="45" viewBox="0 0 161 45" fill="none" xmlns="http://www.w3.org/2000/svg">
<path d="M49.0239 30.1777V29.435H53.2375V30.1777H51.5315V34.5825H50.7226V30.1777H49.0239Z" fill="#001B71"/>
<path d="M55.147 34.5825H54.3381V29.435H55.147V31.4645H57.8311V29.435H58.64V34.5825H57.8311V32.2072H55.147V34.5825Z" fill="#001B71"/>
<path d="M63.8962 34.5825H60.1386V29.435H63.8006V30.1777H60.9475V31.4645H63.2712V32.2072H60.9475V33.8397H63.8962V34.5825Z" fill="#001B71"/>
<path d="M68.0098 34.5825H67.2009V29.435H69.5466C70.0761 29.435 70.4904 29.5698 70.7894 29.8394C71.0934 30.1139 71.2453 30.4669 71.2453 30.8983C71.2453 31.2562 71.1448 31.5626 70.9438 31.8175C70.7477 32.0675 70.4757 32.2342 70.1276 32.3176L71.7454 34.5825H70.7673L69.2157 32.4058H68.0098V34.5825ZM68.0098 30.1777V31.6925H69.4952C69.7893 31.6925 70.0173 31.6263 70.1791 31.494C70.3457 31.3616 70.4291 31.1728 70.4291 30.9277C70.4291 30.6924 70.3457 30.5086 70.1791 30.3762C70.0173 30.2438 69.7893 30.1777 69.4952 30.1777H68.0098Z" fill="#001B71"/>
<path d="M72.7484 32.4058V29.435H73.5573V32.4352C73.5573 32.9107 73.6774 33.2784 73.9176 33.5382C74.1578 33.7932 74.4863 33.9206 74.903 33.9206C75.3197 33.9206 75.6481 33.7932 75.8884 33.5382C76.1335 33.2784 76.256 32.9107 76.256 32.4352V29.435H77.0649V32.4058C77.0649 33.1264 76.8639 33.6853 76.4619 34.0824C76.055 34.4795 75.5354 34.678 74.903 34.678C74.2706 34.678 73.7509 34.482 73.344 34.0898C72.9469 33.6927 72.7484 33.1313 72.7484 32.4058Z" fill="#001B71"/>
<path d="M80.118 34.678C79.3337 34.678 78.689 34.4942 78.184 34.1265V33.2515C78.385 33.4279 78.662 33.5848 79.015 33.7221C79.368 33.8544 79.7209 33.9206 80.0739 33.9206C80.422 33.9206 80.7063 33.852 80.9269 33.7147C81.1524 33.5775 81.2652 33.3912 81.2652 33.1559C81.2652 32.9696 81.1892 32.8102 81.0372 32.6779C80.9784 32.624 80.8902 32.5725 80.7725 32.5235C80.6303 32.4548 80.395 32.3739 80.0666 32.2808L79.9636 32.2514C79.6842 32.1729 79.4611 32.1018 79.2944 32.0381C79.1621 31.9891 78.9905 31.9033 78.7797 31.7807C78.4267 31.5601 78.2502 31.2145 78.2502 30.7439C78.2502 30.3174 78.4169 29.9767 78.7503 29.7217C79.0885 29.4668 79.5445 29.3394 80.118 29.3394C80.7406 29.3394 81.2897 29.4815 81.7652 29.7659V30.5748C81.2407 30.2561 80.6965 30.0968 80.1327 30.0968C79.7896 30.0968 79.5273 30.1581 79.3459 30.2806C79.1694 30.3983 79.0812 30.5551 79.0812 30.7512C79.0812 30.9179 79.1817 31.0723 79.3827 31.2145C79.4121 31.2341 79.4538 31.2562 79.5077 31.2807C79.5616 31.3003 79.6229 31.3224 79.6915 31.3469C79.7602 31.3714 79.8092 31.3886 79.8386 31.3984L80.4269 31.5675C80.7848 31.6753 81.0985 31.8028 81.3681 31.9499C81.8241 32.195 82.0667 32.5921 82.0961 33.1412C82.0961 33.6167 81.9074 33.9917 81.5299 34.2662C81.1524 34.5408 80.6818 34.678 80.118 34.678Z" fill="#001B71"/>
<path d="M84.9705 34.678C84.1861 34.678 83.5415 34.4942 83.0365 34.1265V33.2515C83.2375 33.4279 83.5145 33.5848 83.8675 33.7221C84.2205 33.8544 84.5734 33.9206 84.9264 33.9206C85.2745 33.9206 85.5588 33.852 85.7794 33.7147C86.0049 33.5775 86.1177 33.3912 86.1177 33.1559C86.1177 32.9696 86.0417 32.8102 85.8897 32.6779C85.8309 32.624 85.7427 32.5725 85.625 32.5235C85.4828 32.4548 85.2475 32.3739 84.9191 32.2808L84.8161 32.2514C84.5367 32.1729 84.3136 32.1018 84.1469 32.0381C84.0146 31.9891 83.843 31.9033 83.6322 31.7807C83.2792 31.5601 83.1027 31.2145 83.1027 30.7439C83.1027 30.3174 83.2694 29.9767 83.6028 29.7217C83.941 29.4668 84.397 29.3394 84.9705 29.3394C85.5931 29.3394 86.1422 29.4815 86.6177 29.7659V30.5748C86.0932 30.2561 85.549 30.0968 84.9852 30.0968C84.6421 30.0968 84.3798 30.1581 84.1984 30.2806C84.0219 30.3983 83.9337 30.5551 83.9337 30.7512C83.9337 30.9179 84.0342 31.0723 84.2352 31.2145C84.2646 31.2341 84.3063 31.2562 84.3602 31.2807C84.4141 31.3003 84.4754 31.3224 84.544 31.3469C84.6127 31.3714 84.6617 31.3886 84.6911 31.3984L85.2794 31.5675C85.6373 31.6753 85.951 31.8028 86.2206 31.9499C86.6766 32.195 86.9192 32.5921 86.9486 33.1412C86.9486 33.6167 86.7599 33.9917 86.3824 34.2662C86.0049 34.5408 85.5343 34.678 84.9705 34.678Z" fill="#001B71"/>
<path d="M89.0435 34.5825H88.2347V29.435H89.0435V34.5825Z" fill="#001B71"/>
<path d="M90.9696 34.5825H90.1092L92.3594 29.4055H93.1389L95.3891 34.5825H94.5214L93.9625 33.3029H91.5211L90.9696 34.5825ZM92.7418 30.4277L91.8006 32.5896H93.6831L92.7418 30.4277Z" fill="#001B71"/>
<path d="M97.2034 34.5825H96.4092V29.435H97.1151L100.02 33.1632V29.435H100.814V34.5825H100.13L97.2034 30.8395V34.5825Z" fill="#001B71"/>
<path d="M105.257 34.5825H104.448V29.435H108.103V30.1777H105.257V31.5234H107.515V32.2661H105.257V34.5825Z" fill="#001B71"/>
<path d="M113.022 34.5825H109.265V29.435H112.927V30.1777H110.074V31.4645H112.397V32.2072H110.074V33.8397H113.022V34.5825Z" fill="#001B71"/>
<path d="M116.013 34.5825H114.196V29.435H116.013C116.836 29.435 117.51 29.6752 118.035 30.1556C118.559 30.636 118.822 31.2537 118.822 32.0087C118.822 32.7686 118.559 33.3887 118.035 33.8692C117.515 34.3447 116.841 34.5825 116.013 34.5825ZM115.005 30.1777V33.8397H115.939C116.586 33.8397 117.089 33.6755 117.446 33.3471C117.809 33.0137 117.991 32.5676 117.991 32.0087C117.991 31.4498 117.809 31.0037 117.446 30.6704C117.089 30.3419 116.586 30.1777 115.939 30.1777H115.005Z" fill="#001B71"/>
<path d="M123.898 34.5825H120.14V29.435H123.802V30.1777H120.949V31.4645H123.273V32.2072H120.949V33.8397H123.898V34.5825Z" fill="#001B71"/>
<path d="M125.881 34.5825H125.072V29.435H127.418C127.947 29.435 128.361 29.5698 128.66 29.8394C128.964 30.1139 129.116 30.4669 129.116 30.8983C129.116 31.2562 129.016 31.5626 128.815 31.8175C128.619 32.0675 128.347 32.2342 127.998 32.3176L129.616 34.5825H128.638L127.087 32.4058H125.881V34.5825ZM125.881 30.1777V31.6925H127.366C127.66 31.6925 127.888 31.6263 128.05 31.494C128.217 31.3616 128.3 31.1728 128.3 30.9277C128.3 30.6924 128.217 30.5086 128.05 30.3762C127.888 30.2438 127.66 30.1777 127.366 30.1777H125.881Z" fill="#001B71"/>
<path d="M131.068 34.5825H130.207L132.458 29.4055H133.237L135.487 34.5825H134.62L134.061 33.3029H131.619L131.068 34.5825ZM132.84 30.4277L131.899 32.5896H133.781L132.84 30.4277Z" fill="#001B71"/>
<path d="M135.378 30.1777V29.435H139.591V30.1777H137.885V34.5825H137.076V30.1777H135.378Z" fill="#001B71"/>
<path d="M141.538 34.5825H140.729V29.435H141.538V34.5825Z" fill="#001B71"/>
<path d="M144.243 33.3765C144.591 33.7392 145.018 33.9206 145.523 33.9206C146.028 33.9206 146.454 33.7392 146.802 33.3765C147.15 33.0039 147.324 32.548 147.324 32.0087C147.324 31.4645 147.15 31.0111 146.802 30.6483C146.454 30.2806 146.028 30.0968 145.523 30.0968C145.018 30.0968 144.591 30.2806 144.243 30.6483C143.9 31.0062 143.728 31.4596 143.728 32.0087C143.728 32.5578 143.9 33.0137 144.243 33.3765ZM147.405 33.9133C146.905 34.4231 146.278 34.678 145.523 34.678C144.768 34.678 144.14 34.4231 143.64 33.9133C143.145 33.3936 142.898 32.7588 142.898 32.0087C142.898 31.2537 143.145 30.6213 143.64 30.1115C144.14 29.5967 144.768 29.3394 145.523 29.3394C146.278 29.3394 146.905 29.5967 147.405 30.1115C147.905 30.6213 148.155 31.2537 148.155 32.0087C148.155 32.7637 147.905 33.3985 147.405 33.9133Z" fill="#001B71"/>
<path d="M150.265 34.5825H149.471V29.435H150.177L153.081 33.1632V29.435H153.875V34.5825H153.192L150.265 30.8395V34.5825Z" fill="#001B71"/>
<path d="M49.8843 25.7314H49.0239L51.2741 20.5545H52.0536L54.3038 25.7314H53.4361L52.8772 24.4519H50.4358L49.8843 25.7314ZM51.6565 21.5766L50.7152 23.7386H52.5978L51.6565 21.5766Z" fill="#001B71"/>
<path d="M56.1181 25.7314H55.3239V20.5839H56.0298L58.9345 24.3121V20.5839H59.7287V25.7314H59.0448L56.1181 21.9884V25.7314Z" fill="#001B71"/>
<path d="M63.0483 25.7314H61.232V20.5839H63.0483C63.8719 20.5839 64.546 20.8241 65.0706 21.3045C65.5951 21.785 65.8574 22.4027 65.8574 23.1576C65.8574 23.9175 65.5951 24.5376 65.0706 25.0181C64.5509 25.4936 63.8768 25.7314 63.0483 25.7314ZM62.0409 21.3266V24.9887H62.9748C63.6219 24.9887 64.1244 24.8244 64.4823 24.496C64.8451 24.1626 65.0264 23.7165 65.0264 23.1576C65.0264 22.5988 64.8451 22.1526 64.4823 21.8193C64.1244 21.4908 63.6219 21.3266 62.9748 21.3266H62.0409Z" fill="#001B71"/>
<path d="M70.1157 25.7314H69.3069V20.5839H70.1157V22.6135H72.7998V20.5839H73.6087V25.7314H72.7998V23.3562H70.1157V25.7314Z" fill="#001B71"/>
<path d="M75.9529 25.7314H75.144V20.5839H75.9529V25.7314Z" fill="#001B71"/>
<path d="M79.9895 25.827C79.2296 25.827 78.5923 25.577 78.0775 25.0769C77.5677 24.5671 77.3128 23.9273 77.3128 23.1576C77.3128 22.3831 77.5701 21.7457 78.0849 21.2457C78.5947 20.7408 79.2394 20.4883 80.0189 20.4883C80.6464 20.4883 81.1758 20.6354 81.6073 20.9295V21.731C81.1366 21.4075 80.6243 21.2457 80.0704 21.2457C79.5066 21.2457 79.0458 21.4246 78.6879 21.7825C78.3251 22.1453 78.1437 22.6061 78.1437 23.165C78.1437 23.7337 78.3202 24.1945 78.6732 24.5475C79.036 24.8955 79.4747 25.0696 79.9895 25.0696C80.514 25.0696 80.9283 24.9249 81.2322 24.6357V22.7605H82.0411V24.9666C81.8254 25.2215 81.5337 25.4299 81.166 25.5917C80.8033 25.7485 80.4111 25.827 79.9895 25.827Z" fill="#001B71"/>
<path d="M84.2208 25.7314H83.4119V20.5839H84.2208V22.6135H86.9049V20.5839H87.7138V25.7314H86.9049V23.3562H84.2208V25.7314Z" fill="#001B71"/>
<path d="M92.97 25.7314H89.2123V20.5839H92.8744V21.3266H90.0212V22.6135H92.345V23.3562H90.0212V24.9887H92.97V25.7314Z" fill="#001B71"/>
<path d="M94.9527 25.7314H94.1438V20.5839H96.4896C97.0191 20.5839 97.4333 20.7187 97.7324 20.9883C98.0363 21.2629 98.1883 21.6158 98.1883 22.0472C98.1883 22.4051 98.0878 22.7115 97.8868 22.9664C97.6907 23.2165 97.4186 23.3831 97.0705 23.4665L98.6883 25.7314H97.7103L96.1587 23.5547H94.9527V25.7314ZM94.9527 21.3266V22.8414H96.4381C96.7323 22.8414 96.9602 22.7752 97.122 22.6429C97.2887 22.5105 97.372 22.3218 97.372 22.0767C97.372 21.8413 97.2887 21.6575 97.122 21.5251C96.9602 21.3928 96.7323 21.3266 96.4381 21.3266H94.9527Z" fill="#001B71"/>
<path d="M105.646 25.7314H101.888V20.5839H105.55V21.3266H102.697V22.6135H105.021V23.3562H102.697V24.9887H105.646V25.7314Z" fill="#001B71"/>
<path d="M108.636 25.7314H106.82V20.5839H108.636C109.46 20.5839 110.134 20.8241 110.658 21.3045C111.183 21.785 111.445 22.4027 111.445 23.1576C111.445 23.9175 111.183 24.5376 110.658 25.0181C110.139 25.4936 109.465 25.7314 108.636 25.7314ZM107.629 21.3266V24.9887H108.563C109.21 24.9887 109.712 24.8244 110.07 24.496C110.433 24.1626 110.614 23.7165 110.614 23.1576C110.614 22.5988 110.433 22.1526 110.07 21.8193C109.712 21.4908 109.21 21.3266 108.563 21.3266H107.629Z" fill="#001B71"/>
<path d="M112.698 23.5547V20.5839H113.507V23.5841C113.507 24.0597 113.627 24.4273 113.867 24.6872C114.107 24.9421 114.436 25.0696 114.852 25.0696C115.269 25.0696 115.597 24.9421 115.838 24.6872C116.083 24.4273 116.205 24.0597 116.205 23.5841V20.5839H117.014V23.5547C117.014 24.2754 116.813 24.8342 116.411 25.2313C116.004 25.6284 115.485 25.827 114.852 25.827C114.22 25.827 113.7 25.6309 113.293 25.2387C112.896 24.8416 112.698 24.2803 112.698 23.5547Z" fill="#001B71"/>
<path d="M120.972 25.827C120.202 25.827 119.555 25.577 119.03 25.0769C118.516 24.572 118.258 23.9322 118.258 23.1576C118.258 22.3831 118.516 21.7457 119.03 21.2457C119.54 20.7408 120.187 20.4883 120.972 20.4883C121.496 20.4883 121.962 20.6035 122.369 20.8339V21.6501C121.952 21.3805 121.489 21.2457 120.979 21.2457C120.44 21.2457 119.989 21.4271 119.626 21.7899C119.268 22.1477 119.089 22.6037 119.089 23.1576C119.089 23.7116 119.271 24.17 119.633 24.5327C119.996 24.8906 120.455 25.0696 121.009 25.0696C121.597 25.0696 122.087 24.9127 122.479 24.5989V25.4152C122.048 25.6897 121.545 25.827 120.972 25.827Z" fill="#001B71"/>
<path d="M124.072 25.7314H123.212L125.462 20.5545H126.241L128.492 25.7314H127.624L127.065 24.4519H124.624L124.072 25.7314ZM125.844 21.5766L124.903 23.7386H126.786L125.844 21.5766Z" fill="#001B71"/>
<path d="M128.382 21.3266V20.5839H132.596V21.3266H130.89V25.7314H130.081V21.3266H128.382Z" fill="#001B71"/>
<path d="M134.542 25.7314H133.733V20.5839H134.542V25.7314Z" fill="#001B71"/>
<path d="M137.247 24.5254C137.596 24.8882 138.022 25.0696 138.527 25.0696C139.032 25.0696 139.458 24.8882 139.807 24.5254C140.155 24.1528 140.329 23.6969 140.329 23.1576C140.329 22.6135 140.155 22.16 139.807 21.7972C139.458 21.4295 139.032 21.2457 138.527 21.2457C138.022 21.2457 137.596 21.4295 137.247 21.7972C136.904 22.1551 136.733 22.6086 136.733 23.1576C136.733 23.7067 136.904 24.1626 137.247 24.5254ZM140.41 25.0622C139.909 25.5721 139.282 25.827 138.527 25.827C137.772 25.827 137.145 25.5721 136.644 25.0622C136.149 24.5426 135.902 23.9077 135.902 23.1576C135.902 22.4027 136.149 21.7703 136.644 21.2604C137.145 20.7457 137.772 20.4883 138.527 20.4883C139.282 20.4883 139.909 20.7457 140.41 21.2604C140.91 21.7703 141.16 22.4027 141.16 23.1576C141.16 23.9126 140.91 24.5475 140.41 25.0622Z" fill="#001B71"/>
<path d="M143.269 25.7314H142.475V20.5839H143.181L146.085 24.3121V20.5839H146.88V25.7314H146.196L143.269 21.9884V25.7314Z" fill="#001B71"/>
<path d="M151.676 24.5254C152.024 24.8882 152.45 25.0696 152.955 25.0696C153.46 25.0696 153.887 24.8882 154.235 24.5254C154.583 24.1528 154.757 23.6969 154.757 23.1576C154.757 22.6135 154.583 22.16 154.235 21.7972C153.887 21.4295 153.46 21.2457 152.955 21.2457C152.45 21.2457 152.024 21.4295 151.676 21.7972C151.333 22.1551 151.161 22.6086 151.161 23.1576C151.161 23.7067 151.333 24.1626 151.676 24.5254ZM154.838 25.0622C154.338 25.5721 153.71 25.827 152.955 25.827C152.2 25.827 151.573 25.5721 151.073 25.0622C150.578 24.5426 150.33 23.9077 150.33 23.1576C150.33 22.4027 150.578 21.7703 151.073 21.2604C151.573 20.7457 152.2 20.4883 152.955 20.4883C153.71 20.4883 154.338 20.7457 154.838 21.2604C155.338 21.7703 155.588 22.4027 155.588 23.1576C155.588 23.9126 155.338 24.5475 154.838 25.0622Z" fill="#001B71"/>
<path d="M157.712 25.7314H156.903V20.5839H160.558V21.3266H157.712V22.6723H159.97V23.415H157.712V25.7314Z" fill="#001B71"/>
<path d="M49.8328 16.8798H49.0239V11.7323H49.8475L51.5168 14.0487L53.1713 11.7323H53.9802V16.8798H53.1713V12.9677L51.7374 14.9091H51.2668L49.8328 12.9677V16.8798Z" fill="#001B71"/>
<path d="M56.3235 16.8798H55.5146V11.7323H56.3235V16.8798Z" fill="#001B71"/>
<path d="M58.6614 16.8798H57.8672V11.7323H58.5731L61.4778 15.4606V11.7323H62.272V16.8798H61.5881L58.6614 13.1368V16.8798Z" fill="#001B71"/>
<path d="M64.621 16.8798H63.8121V11.7323H64.621V16.8798Z" fill="#001B71"/>
<path d="M67.7898 16.9754C67.0054 16.9754 66.3607 16.7916 65.8558 16.4239V15.5488C66.0568 15.7253 66.3338 15.8822 66.6867 16.0194C67.0397 16.1518 67.3927 16.218 67.7457 16.218C68.0937 16.218 68.3781 16.1494 68.5987 16.0121C68.8242 15.8748 68.9369 15.6885 68.9369 15.4532C68.9369 15.2669 68.8609 15.1076 68.709 14.9752C68.6501 14.9213 68.5619 14.8698 68.4442 14.8208C68.3021 14.7522 68.0668 14.6713 67.7383 14.5781L67.6354 14.5487C67.3559 14.4703 67.1329 14.3992 66.9662 14.3355C66.8338 14.2865 66.6622 14.2007 66.4514 14.0781C66.0985 13.8575 65.922 13.5119 65.922 13.0413C65.922 12.6147 66.0887 12.274 66.422 12.0191C66.7603 11.7642 67.2162 11.6367 67.7898 11.6367C68.4124 11.6367 68.9614 11.7789 69.437 12.0632V12.8721C68.9124 12.5535 68.3683 12.3941 67.8045 12.3941C67.4613 12.3941 67.199 12.4554 67.0177 12.578C66.8412 12.6956 66.7529 12.8525 66.7529 13.0486C66.7529 13.2153 66.8534 13.3697 67.0544 13.5119C67.0838 13.5315 67.1255 13.5535 67.1794 13.5781C67.2334 13.5977 67.2946 13.6197 67.3633 13.6442C67.4319 13.6688 67.4809 13.6859 67.5103 13.6957L68.0986 13.8649C68.4565 13.9727 68.7703 14.1002 69.0399 14.2472C69.4958 14.4924 69.7385 14.8894 69.7679 15.4385C69.7679 15.914 69.5791 16.2891 69.2017 16.5636C68.8242 16.8381 68.3535 16.9754 67.7898 16.9754Z" fill="#001B71"/>
<path d="M70.4764 12.475V11.7323H74.69V12.475H72.984V16.8798H72.1751V12.475H70.4764Z" fill="#001B71"/>
<path d="M76.5995 16.8798H75.7906V11.7323H78.1364C78.6659 11.7323 79.0801 11.8671 79.3792 12.1368C79.6831 12.4113 79.8351 12.7643 79.8351 13.1957C79.8351 13.5535 79.7346 13.8599 79.5336 14.1149C79.3375 14.3649 79.0654 14.5316 78.7174 14.6149L80.3351 16.8798H79.3571L77.8055 14.7032H76.5995V16.8798ZM76.5995 12.475V13.9899H78.0849C78.3791 13.9899 78.607 13.9237 78.7688 13.7913C78.9355 13.659 79.0189 13.4702 79.0189 13.2251C79.0189 12.9898 78.9355 12.8059 78.7688 12.6736C78.607 12.5412 78.3791 12.475 78.0849 12.475H76.5995Z" fill="#001B71"/>
<path d="M83.4541 16.8798H82.6453V14.5487L80.6524 11.7323H81.5937L83.0644 13.8134L84.5351 11.7323H85.447L83.4541 14.5267V16.8798Z" fill="#001B71"/>
<path d="M89.7147 15.6738C90.0627 16.0366 90.4893 16.218 90.9942 16.218C91.4991 16.218 91.9256 16.0366 92.2737 15.6738C92.6218 15.3012 92.7958 14.8453 92.7958 14.3061C92.7958 13.7619 92.6218 13.3084 92.2737 12.9457C91.9256 12.578 91.4991 12.3941 90.9942 12.3941C90.4893 12.3941 90.0627 12.578 89.7147 12.9457C89.3715 13.3035 89.1999 13.757 89.1999 14.3061C89.1999 14.8551 89.3715 15.3111 89.7147 15.6738ZM92.8767 16.2106C92.3767 16.7205 91.7492 16.9754 90.9942 16.9754C90.2392 16.9754 89.6117 16.7205 89.1117 16.2106C88.6165 15.691 88.369 15.0561 88.369 14.3061C88.369 13.5511 88.6165 12.9187 89.1117 12.4088C89.6117 11.8941 90.2392 11.6367 90.9942 11.6367C91.7492 11.6367 92.3767 11.8941 92.8767 12.4088C93.3768 12.9187 93.6268 13.5511 93.6268 14.3061C93.6268 15.061 93.3768 15.6959 92.8767 16.2106Z" fill="#001B71"/>
<path d="M95.751 16.8798H94.9421V11.7323H98.5968V12.475H95.751V13.8207H98.0085V14.5634H95.751V16.8798Z" fill="#001B71"/>
<path d="M103.515 16.9754C102.73 16.9754 102.086 16.7916 101.581 16.4239V15.5488C101.782 15.7253 102.059 15.8822 102.412 16.0194C102.765 16.1518 103.118 16.218 103.471 16.218C103.819 16.218 104.103 16.1494 104.324 16.0121C104.549 15.8748 104.662 15.6885 104.662 15.4532C104.662 15.2669 104.586 15.1076 104.434 14.9752C104.375 14.9213 104.287 14.8698 104.169 14.8208C104.027 14.7522 103.792 14.6713 103.463 14.5781L103.36 14.5487C103.081 14.4703 102.858 14.3992 102.691 14.3355C102.559 14.2865 102.387 14.2007 102.176 14.0781C101.823 13.8575 101.647 13.5119 101.647 13.0413C101.647 12.6147 101.813 12.274 102.147 12.0191C102.485 11.7642 102.941 11.6367 103.515 11.6367C104.137 11.6367 104.686 11.7789 105.162 12.0632V12.8721C104.637 12.5535 104.093 12.3941 103.529 12.3941C103.186 12.3941 102.924 12.4554 102.743 12.578C102.566 12.6956 102.478 12.8525 102.478 13.0486C102.478 13.2153 102.578 13.3697 102.779 13.5119C102.809 13.5315 102.85 13.5535 102.904 13.5781C102.958 13.5977 103.019 13.6197 103.088 13.6442C103.157 13.6688 103.206 13.6859 103.235 13.6957L103.823 13.8649C104.181 13.9727 104.495 14.1002 104.765 14.2472C105.221 14.4924 105.463 14.8894 105.493 15.4385C105.493 15.914 105.304 16.2891 104.927 16.5636C104.549 16.8381 104.078 16.9754 103.515 16.9754Z" fill="#001B71"/>
<path d="M109.2 16.9754C108.43 16.9754 107.783 16.7254 107.258 16.2253C106.744 15.7204 106.486 15.0806 106.486 14.3061C106.486 13.5315 106.744 12.8942 107.258 12.3941C107.768 11.8892 108.415 11.6367 109.2 11.6367C109.724 11.6367 110.19 11.7519 110.597 11.9823V12.7986C110.18 12.529 109.717 12.3941 109.207 12.3941C108.668 12.3941 108.217 12.5755 107.854 12.9383C107.496 13.2962 107.317 13.7521 107.317 14.3061C107.317 14.86 107.499 15.3184 107.861 15.6812C108.224 16.0391 108.683 16.218 109.237 16.218C109.825 16.218 110.315 16.0611 110.707 15.7474V16.5636C110.276 16.8381 109.773 16.9754 109.2 16.9754Z" fill="#001B71"/>
<path d="M112.763 16.8798H111.954V11.7323H112.763V16.8798Z" fill="#001B71"/>
<path d="M118.065 16.8798H114.307V11.7323H117.969V12.475H115.116V13.7619H117.44V14.5046H115.116V16.1371H118.065V16.8798Z" fill="#001B71"/>
<path d="M120.033 16.8798H119.238V11.7323H119.944L122.849 15.4606V11.7323H123.643V16.8798H122.959L120.033 13.1368V16.8798Z" fill="#001B71"/>
<path d="M127.676 16.9754C126.907 16.9754 126.259 16.7254 125.735 16.2253C125.22 15.7204 124.963 15.0806 124.963 14.3061C124.963 13.5315 125.22 12.8942 125.735 12.3941C126.245 11.8892 126.892 11.6367 127.676 11.6367C128.201 11.6367 128.666 11.7519 129.073 11.9823V12.7986C128.657 12.529 128.193 12.3941 127.684 12.3941C127.144 12.3941 126.693 12.5755 126.331 12.9383C125.973 13.2962 125.794 13.7521 125.794 14.3061C125.794 14.86 125.975 15.3184 126.338 15.6812C126.701 16.0391 127.159 16.218 127.713 16.218C128.301 16.218 128.792 16.0611 129.184 15.7474V16.5636C128.752 16.8381 128.25 16.9754 127.676 16.9754Z" fill="#001B71"/>
<path d="M134.152 16.8798H130.394V11.7323H134.056V12.475H131.203V13.7619H133.527V14.5046H131.203V16.1371H134.152V16.8798Z" fill="#001B71"/>
<path d="M31.5841 33.5786C31.4437 33.5786 31.3501 33.6722 31.3501 33.8126C31.3501 33.9531 31.4437 34.0467 31.5841 34.0467C31.7245 34.0467 31.8182 33.9531 31.8182 33.8126C31.8182 33.719 31.7245 33.5786 31.5841 33.5786Z" fill="#001B71"/>
<path d="M32.3799 35.8727C32.3799 36.0131 32.4735 36.1067 32.6139 36.1067C32.7543 36.1067 32.8479 36.0131 32.8479 35.8727C32.8479 35.7323 32.7543 35.6387 32.6139 35.6387C32.4735 35.6387 32.3799 35.7323 32.3799 35.8727Z" fill="#001B71"/>
<path d="M31.5841 35.6387C31.4437 35.6387 31.3501 35.7323 31.3501 35.8727C31.3501 36.0131 31.4437 36.1067 31.5841 36.1067C31.7245 36.1067 31.8182 36.0131 31.8182 35.8727C31.8182 35.7323 31.7245 35.6387 31.5841 35.6387Z" fill="#001B71"/>
<path d="M33.4106 35.8727C33.4106 36.0131 33.5043 36.1067 33.6447 36.1067C33.7851 36.1067 33.8787 36.0131 33.8787 35.8727C33.8787 35.7323 33.7851 35.6387 33.6447 35.6387C33.5043 35.6387 33.4106 35.7323 33.4106 35.8727Z" fill="#001B71"/>
<path d="M31.2566 31.2852L31.3034 31.8936L30.7886 31.8468V32.5021L31.3034 32.4085L31.2566 33.017H31.9119L31.8651 32.4085L32.38 32.5021V31.8468L31.8651 31.8936L31.9119 31.2852H31.2566Z" fill="#001B71"/>
<path d="M32.0059 33.3916V35.4979H34.0185C33.8781 34.4213 33.0356 33.5788 32.0059 33.3916Z" fill="#001B71"/>
<path d="M31.5841 34.6084C31.4437 34.6084 31.3501 34.702 31.3501 34.8424C31.3501 34.9828 31.4437 35.0765 31.5841 35.0765C31.7245 35.0765 31.8182 34.9828 31.8182 34.8424C31.8182 34.702 31.7245 34.6084 31.5841 34.6084Z" fill="#001B71"/>
<path d="M32.4262 37.2769C32.3794 37.2769 32.1922 37.7917 32.3794 38.1662C32.473 38.3534 32.6603 38.447 32.8475 38.4002C33.0347 38.3534 33.0815 38.1662 33.0815 38.0726C33.0347 37.6513 32.7071 37.2769 32.4262 37.2769Z" fill="#001B71"/>
<path d="M30.7432 37.2769C30.4624 37.2769 30.1348 37.6513 30.1348 38.0726C30.1348 38.213 30.1816 38.3534 30.3688 38.4002C30.556 38.447 30.7432 38.3534 30.8369 38.1662C30.9305 37.7917 30.7901 37.2769 30.7432 37.2769Z" fill="#001B71"/>
<path d="M31.5843 36.9956C31.397 36.9956 30.8354 38.0721 31.2566 38.587C31.3502 38.6806 31.4438 38.7274 31.5843 38.7274C31.7247 38.7274 31.8651 38.6806 31.9119 38.587C32.2864 38.0721 31.7715 36.9956 31.5843 36.9956Z" fill="#001B71"/>
<path d="M29.1035 35.8723C29.1035 35.6383 29.1503 35.451 29.1503 35.451H31.1629V35.2638V33.766V33.3448C30.18 33.532 29.3843 34.2809 29.1503 35.2638C29.1035 35.3574 28.9162 35.4042 28.7758 35.3574C28.0269 35.2638 26.5291 34.983 26.5291 34.6553C26.5291 34.1873 26.8568 34.0001 27.1376 34.0001C27.5589 34.0001 28.0269 34.2341 28.4014 33.6724C27.044 33.7192 28.0737 31.7534 26.9504 31.3789C26.9972 31.8938 26.9504 32.7831 26.7632 33.2512C26.7632 33.2512 26.3419 32.8299 25.9206 32.6427C25.9674 33.0171 25.8738 33.766 25.7334 34.1405C25.7334 34.1405 25.2654 33.6724 24.7505 33.532C25.2186 34.1873 25.2185 35.1702 25.0781 35.7319C25.0313 35.9191 25.1717 36.1063 25.4994 36.1063C26.0611 36.0595 27.9333 36.1531 28.729 36.4808C28.963 36.5744 29.1971 36.7148 29.2907 36.902C29.3843 37.1361 29.5715 37.5105 29.8524 37.6977C29.9928 37.2765 30.4608 36.8084 30.7885 36.8552C30.8821 36.8552 30.9757 37.0425 31.0225 37.1829C31.0693 37.0425 31.3034 36.6212 31.5374 36.6212C31.7714 36.6212 32.0054 36.9488 32.0991 37.2297C32.1459 37.0425 32.2395 36.8552 32.3331 36.8552C32.6607 36.8552 33.082 37.1361 33.2224 37.6509C33.3628 37.5105 33.9245 36.7616 33.9713 36.2468H29.1035C29.1035 36.2936 29.1035 36.1063 29.1035 35.8723Z" fill="#001B71"/>
<path d="M30.3193 35.8727C30.3193 36.0131 30.4129 36.1067 30.5534 36.1067C30.6938 36.1067 30.7874 36.0131 30.7874 35.8727C30.7874 35.7323 30.6938 35.6387 30.5534 35.6387C30.4129 35.6387 30.3193 35.7323 30.3193 35.8727Z" fill="#001B71"/>
<path d="M29.3374 35.8727C29.3374 36.0131 29.431 36.1067 29.5714 36.1067C29.7119 36.1067 29.8055 36.0131 29.8055 35.8727C29.8055 35.7323 29.7119 35.6387 29.5714 35.6387C29.431 35.6387 29.3374 35.7323 29.3374 35.8727Z" fill="#001B71"/>
<path d="M9.95737 36.9028C9.86375 36.9964 9.67653 37.5113 9.77014 37.839C9.81695 37.9794 9.86375 38.0262 10.0042 38.0262C10.1446 38.0262 10.1914 37.9326 10.2382 37.7922C10.285 37.4645 10.051 36.9496 9.95737 36.9028Z" fill="#001B71"/>
<path d="M11.6895 38.353C11.5959 38.4935 11.4555 38.5403 11.4087 38.5871C11.4555 38.6339 11.5959 38.7275 11.7363 38.7275C11.8299 38.7275 11.9236 38.6807 11.9704 38.6339C12.1108 38.353 11.9704 38.119 11.9236 38.0254C11.8768 38.119 11.8299 38.2594 11.6895 38.353Z" fill="#001B71"/>
<path d="M11.0355 37.698C11.2227 37.5108 11.2695 37.3704 11.2227 37.2767C11.1759 37.1363 10.7546 36.7151 10.2866 36.2002C10.2866 36.2938 10.2397 36.3874 10.2397 36.481C10.5674 36.9491 10.7078 37.4172 10.6142 37.8384C10.661 37.8852 10.661 37.8852 10.7078 37.8852C10.8014 37.9788 10.9418 37.8384 11.0355 37.698Z" fill="#001B71"/>
<path d="M11.6897 37.7448C11.6897 37.6512 11.6897 37.6044 11.6429 37.5576H11.5961C11.5493 37.5576 11.5025 37.6512 11.4557 37.698C11.4089 37.7448 11.3621 37.8385 11.2685 37.9321C11.1749 38.0257 11.1281 38.0725 11.0345 38.1661C10.9408 38.2129 10.894 38.3065 10.894 38.3533C10.894 38.3533 10.894 38.3533 10.894 38.4001C10.9408 38.4469 10.9408 38.4469 10.9877 38.4469C11.0345 38.4469 11.1749 38.4001 11.4089 38.1661C11.6429 37.9321 11.6897 37.8385 11.6897 37.7448Z" fill="#001B71"/>
<path d="M8.59996 35.2644C8.59996 35.2644 8.55315 35.3112 8.50635 35.4049C8.59996 35.4049 8.74038 35.4049 8.83399 35.4517C8.83399 35.3581 8.83399 35.2176 8.83399 35.124C8.74038 35.124 8.64677 35.2176 8.59996 35.2644Z" fill="#001B71"/>
<path d="M9.86539 35.4038C9.86539 35.4038 10.8483 36.2463 11.176 36.574C11.2696 36.6676 11.3632 36.6676 11.4568 36.6208C11.5036 36.574 11.5972 36.574 11.6908 36.5272C12.6738 36.1995 14.2652 36.1527 14.8268 36.1527C15.2013 36.1527 15.2949 35.9655 15.2481 35.7783C15.1545 35.2166 15.1077 34.2337 15.5757 33.5784C15.0609 33.7656 14.5928 34.1869 14.5928 34.1869C14.4056 33.8592 14.3588 33.0635 14.4056 32.6891C13.9375 32.8295 13.5631 33.2975 13.5631 33.2975C13.3758 32.8295 13.329 31.9402 13.3758 31.4253C12.2525 31.7997 13.2822 33.8124 11.9249 33.7188C12.2993 34.2805 12.7674 34.0464 13.1886 34.0464C13.4695 34.0464 13.8439 34.2337 13.7971 34.7017C13.7503 35.0294 11.9249 35.4038 11.176 35.4038C10.6611 35.4038 10.2866 35.2634 10.0526 34.889C9.91219 34.7017 9.81858 34.6549 9.67816 34.6549C9.49094 34.7017 9.30371 34.8421 9.30371 35.3102C9.30371 35.591 9.44413 36.2463 9.77177 36.2463C9.959 36.2931 9.959 35.7315 9.86539 35.4038Z" fill="#001B71"/>
<path d="M7.99186 35.1227C8.03866 35.1227 8.08547 35.1227 8.13227 35.1227C7.99185 35.3099 7.99186 35.4504 8.03866 35.4972C8.13227 35.5908 8.17908 35.4036 8.41311 35.1695C8.64714 34.9355 8.78756 34.8419 8.74075 34.7483C8.69395 34.7015 8.55353 34.7015 8.3663 34.8419C8.3663 34.7951 8.41311 34.7483 8.3663 34.7015C8.27269 34.4674 7.94505 34.1866 7.71102 34.1866C7.66421 34.1866 7.66421 34.1866 7.61741 34.1866C7.71102 34.0462 7.66421 33.9526 7.61741 33.859C7.5706 33.8121 7.52379 33.859 7.43018 33.9526C7.43018 33.9058 7.43018 33.8121 7.38337 33.7185C7.10254 33.2505 5.51113 31.7527 5.13668 31.6123C4.90265 31.5186 4.85584 31.6591 4.85584 31.6591C4.85584 31.6591 4.71542 31.7527 4.80903 31.9399C4.94945 32.3143 6.49406 33.859 6.91531 34.1398C7.00893 34.1866 7.10254 34.2334 7.14934 34.1866C7.05573 34.2802 7.00893 34.2802 7.10254 34.3738C7.14934 34.4206 7.24296 34.4674 7.38337 34.3738C7.38337 34.4206 7.38337 34.4206 7.38337 34.4674C7.47699 34.6547 7.75782 35.0291 7.99186 35.1227Z" fill="#001B71"/>
<path d="M9.11512 36.2469C9.11512 36.1065 8.83429 35.8257 8.45984 35.8257C7.94497 35.8257 7.71094 36.1533 7.71094 36.3406C7.71094 36.6682 8.03858 36.715 8.13219 36.715C8.45984 36.715 9.06832 36.3406 9.11512 36.2469Z" fill="#001B71"/>
<path d="M8.6482 37.0432C8.50779 37.2304 8.46098 37.4176 8.50779 37.5581C8.55459 37.7453 8.74182 37.8389 8.92904 37.8389C9.11627 37.8389 9.30349 37.7453 9.3971 37.6049C9.58433 37.2772 9.58433 36.5751 9.53752 36.5283C9.3503 36.5283 8.88224 36.7155 8.6482 37.0432Z" fill="#001B71"/>
<path d="M4.06014 29.7397C3.91972 29.5993 3.59207 29.8333 3.40485 29.6929C3.49846 29.2248 3.82611 29.6929 4.10694 29.412C4.24736 29.2716 4.15375 29.0844 4.10694 29.0376C3.96652 29.178 3.7793 29.1312 3.73249 29.0376C4.06014 28.1951 3.40485 27.3058 2.74956 27.3994C2.88998 27.5866 2.93679 28.1951 2.84318 28.3355C3.07721 28.5227 2.93679 28.944 2.65595 28.8036C2.46873 28.71 2.14108 28.2419 2.51553 27.9611C2.51553 27.8206 2.2815 27.8206 2.09428 28.1015C2.23469 27.5866 1.25177 27.727 1.06454 27.8674C0.970928 28.1015 0.830509 29.0844 1.34538 28.8972C1.06454 29.1312 1.11135 29.3652 1.20496 29.3652C1.5326 28.9908 1.95386 29.2716 2.04747 29.4589C2.18789 29.7397 1.76663 29.9269 1.57941 29.6929C1.43899 29.7397 0.830509 29.7397 0.690091 29.5993C0.596478 30.2546 1.5326 30.9566 2.32831 30.5822C2.42192 30.5822 2.46873 30.8162 2.32831 30.9566C2.37511 31.0503 2.60914 31.0971 2.70276 30.9566C3.0304 30.629 2.56234 30.3014 2.98359 30.2078C3.07721 30.395 2.88998 30.7226 3.0304 30.863C3.26443 31.0971 3.54527 30.629 3.87291 30.629C3.87291 30.2546 4.29417 29.9737 4.06014 29.7397ZM1.62621 28.6631C1.62621 28.6631 1.4858 28.5695 1.67302 28.3355C1.86025 28.1483 1.95386 28.2887 1.95386 28.2887C1.95386 28.2887 2.14108 28.6631 2.18789 28.8504C2.00066 28.8504 1.62621 28.6631 1.62621 28.6631ZM3.12401 29.8333C3.0304 29.8333 2.79637 30.0673 2.70276 29.9269L2.18789 29.412L2.46873 29.1312L2.74956 28.8504L3.26443 29.3652C3.31124 29.5057 3.12401 29.7397 3.12401 29.8333Z" fill="#001B71"/>
<path d="M4.20041 30.6763C4.1536 30.6763 4.1068 30.6763 4.05999 30.7231C4.01318 30.7699 4.01318 30.8635 4.01318 30.9571C4.01318 31.0507 4.1068 31.1443 4.20041 31.2379C4.24721 31.3784 4.38763 31.4252 4.48125 31.4252C4.52805 31.4252 4.57486 31.4252 4.62166 31.3784C4.71528 31.2847 4.66847 31.0039 4.52805 30.8635C4.43444 30.7699 4.29402 30.6763 4.20041 30.6763Z" fill="#001B71"/>
<path d="M2.70174 29.1318L2.56132 29.2723L2.4209 29.4127C2.4209 29.4127 2.70174 29.7871 2.93577 29.6467C3.07619 29.4127 2.70174 29.1318 2.70174 29.1318Z" fill="#001B71"/>
<path d="M30.0394 27.7274C30.0394 27.821 29.665 28.0083 29.3842 27.4934C29.1033 27.4466 28.8225 27.353 28.6353 27.2594C28.9629 27.9146 29.2437 28.4763 29.7118 28.7572C30.4139 29.1784 31.4904 29.0848 31.8181 28.6167C31.2096 28.2891 30.5075 27.4466 30.1331 26.6509C30.0394 26.8381 29.899 27.1657 29.8054 27.3998C29.8522 27.4934 29.9458 27.6338 30.0394 27.7274Z" fill="#001B71"/>
<path d="M36.5457 17.4752C37.2946 17.1475 38.3712 16.3986 38.886 15.9306C38.9328 16.0242 39.1201 16.4454 38.5584 16.9135C38.1371 17.2411 37.2946 17.6624 36.6861 17.8964C36.4053 18.3177 35.8436 18.7857 35.0947 19.3006C36.5925 19.0666 38.3712 18.4581 39.2605 17.6156C40.8987 15.9774 40.0562 14.0115 39.8222 13.5435C38.7456 14.9008 36.6861 16.305 34.7671 17.0539C35.4224 17.1475 36.0777 17.288 36.5457 17.4752Z" fill="#001B71"/>
<path d="M35.3288 14.4787C36.3117 13.683 37.3414 12.0916 37.5287 11.5299C37.7627 11.6703 37.8563 12.1384 37.5755 12.6533C37.0606 13.5426 36.1245 14.3383 35.3288 14.9936C35.282 15.5553 35.0479 16.2573 34.7671 16.7722C35.9372 15.9765 37.2946 14.8064 37.9031 14.0106C38.6988 12.9809 39.0265 11.9512 38.886 10.9214C38.9328 9.75128 38.0903 8.58113 37.7627 8.30029C37.5287 9.56406 36.2649 11.7171 35.1415 12.9341C35.2351 13.3554 35.3288 13.9638 35.3288 14.4787Z" fill="#001B71"/>
<path d="M34.5807 21.8755C34.8147 22.1563 35.0487 22.484 35.2359 22.7648C36.1253 22.952 37.2018 22.9052 37.2018 22.9052C37.2018 22.9052 37.155 23.3733 36.5465 23.4201C36.2657 23.4201 35.4232 23.2797 35.0955 23.1861C34.9551 23.2329 34.2998 23.4201 33.6445 23.5137C34.5807 23.8413 35.938 24.169 36.7805 24.169C36.8742 24.169 36.921 24.169 37.0146 24.169C38.372 24.0286 39.074 22.7648 39.1209 22.0627C38.6996 22.1563 37.9975 22.2031 37.2954 22.2031C36.6401 22.2031 35.47 22.1563 34.5807 21.8755Z" fill="#001B71"/>
<path d="M40.2438 18.3184C39.0268 18.9736 36.8737 19.6289 35.1419 19.6289C35.5631 19.9098 35.9844 20.1906 36.2652 20.4714C36.9673 20.4246 37.9503 20.1906 38.5119 20.0034C38.5119 20.097 38.5119 20.5651 37.8566 20.7523C37.3886 20.8927 36.7333 20.8927 36.2184 20.8927C35.7972 21.1735 35.1887 21.4076 34.6738 21.5948C35.1419 21.6416 35.7504 21.6884 36.2652 21.6884C37.1546 21.6884 37.9971 21.5948 38.5119 21.4076C38.98 21.2671 40.5246 20.6119 40.2438 18.3184Z" fill="#001B71"/>
<path d="M33.6902 24.7784C34.2051 25.0124 34.7668 25.1997 35.2349 25.2465C35.2349 25.2465 35.1412 25.7145 34.4391 25.6209C34.0179 25.5741 33.5498 25.2465 33.4562 25.1997C33.1286 25.2465 32.4733 25.2465 32.2393 25.1997C33.035 25.7613 34.2519 26.4166 35.2817 26.5102C35.3285 26.5102 35.3753 26.5102 35.4221 26.5102C36.4986 26.5102 37.3411 25.4337 37.5752 24.9188C36.4986 24.9188 34.6264 24.4508 33.503 23.8423C33.5498 24.0295 33.6434 24.404 33.6902 24.7784Z" fill="#001B71"/>
<path d="M31.8192 26.2287C32.1 26.5564 32.5681 26.7436 32.5681 26.7436C32.5681 26.7436 32.4276 26.9776 32.1468 26.9776C32.0532 26.9776 31.9596 26.9308 31.866 26.884C31.6787 26.7904 31.3979 26.4628 31.3979 26.4628C31.0234 26.416 30.6958 26.3692 30.3682 26.2755C30.9298 26.9776 31.866 27.867 32.8957 28.101C33.0361 28.1478 33.1765 28.1478 33.3638 28.1478C34.2531 28.1478 35.002 27.4925 35.1892 27.0713C34.1595 26.9308 32.6617 26.1351 31.9128 25.3862C31.9128 25.6671 31.866 25.9947 31.8192 26.2287Z" fill="#001B71"/>
<path d="M25.1243 37.6979C25.6393 37.6979 25.9669 37.5106 26.201 36.9957C25.4988 37.3234 24.7498 37.1361 23.3455 36.7148C23.3455 36.7148 22.8306 36.9489 22.5029 36.9957C23.3455 37.2298 24.5626 37.6511 24.7498 38.1192C24.8435 38.4937 24.6094 38.5873 24.6094 38.5873C24.1413 38.0256 23.5796 37.6979 22.3625 37.3234C22.3625 37.5574 22.3157 37.6979 22.3157 37.6979C22.3157 37.6979 22.0816 37.7447 21.5199 37.6511C21.988 38.0256 23.1115 39.0086 23.2519 40.0384C23.3455 40.7406 22.8306 40.7874 22.8306 40.7874C22.7838 39.7107 22.3157 39.0554 21.2858 37.9787C21.2858 37.9787 21.0986 38.2128 20.9113 38.3532C20.9113 38.3532 20.5369 38.3064 20.256 38.0724C20.3964 39.4767 20.4432 42.8471 20.3496 43.362C20.3028 43.7365 20.0687 43.9237 20.0687 43.9237C20.0687 43.9237 19.8347 43.7833 19.7879 43.362C19.6943 42.8003 19.7879 39.4299 19.8815 38.0724C19.5538 38.2596 19.2261 38.3532 19.2261 38.3532C18.9921 38.2128 18.8517 37.9787 18.8517 37.9787C17.8686 39.0554 17.4005 39.7576 17.3069 40.7874C17.3069 40.7874 16.8388 40.7406 16.8856 40.0384C17.026 39.0086 18.1495 38.0256 18.6176 37.6511C18.1027 37.7447 17.8218 37.6979 17.8218 37.6979C17.8218 37.6979 17.775 37.5574 17.775 37.3234C16.5579 37.6979 16.043 38.0256 15.5281 38.5873C15.5281 38.5873 15.294 38.5405 15.3876 38.1192C15.5749 37.6511 16.792 37.2766 17.6346 36.9957C17.3537 36.9489 16.792 36.7148 16.792 36.7148C15.4345 37.1361 14.6387 37.3234 13.9365 36.9957C14.1237 37.5106 14.4982 37.6979 15.0132 37.6979C14.3578 37.9319 13.7493 38.5873 13.562 39.2426C14.0301 40.9746 15.5281 41.4896 15.5281 41.4896C15.1536 40.647 15.294 39.0086 17.5409 37.8851C16.1834 39.2426 15.6217 40.5065 15.9962 41.6768C16.3239 42.7535 17.4473 43.1748 18.2431 43.2216C17.6814 41.4428 17.9154 39.8044 19.1325 38.5405C18.6176 39.9448 17.8686 44.2982 19.9751 45.0004C22.0816 44.2982 21.3326 39.9448 20.8177 38.5405C22.0348 39.8512 22.2689 41.4428 21.7071 43.2216C22.5497 43.2216 23.6264 42.7535 23.9541 41.6768C24.3285 40.5065 23.8136 39.2426 22.4093 37.8851C24.6562 39.0086 24.7967 40.6938 24.4222 41.4896C24.4222 41.4896 25.9201 40.9746 26.3882 39.2426C26.3882 38.5873 25.7329 37.9787 25.1243 37.6979Z" fill="#001B71"/>
<path d="M10.6126 28.7572C11.0807 28.4763 11.3615 27.9146 11.6892 27.2594C11.5019 27.353 11.2211 27.4466 10.9403 27.4934C10.6594 28.0083 10.285 27.821 10.285 27.7274C10.3786 27.6338 10.4722 27.4934 10.519 27.3998C10.4254 27.1657 10.285 26.8381 10.1914 26.6509C9.81692 27.4934 9.06802 28.2891 8.50635 28.6167C8.83399 29.0848 9.91053 29.1784 10.6126 28.7572Z" fill="#001B71"/>
<path d="M5.18346 19.3002C4.38775 18.7853 3.87288 18.3173 3.59205 17.896C2.93676 17.662 2.09425 17.2407 1.7198 16.9131C1.15812 16.445 1.34535 16.0238 1.39216 15.9302C1.86022 16.445 2.93676 17.1471 3.73246 17.4748C4.20053 17.2875 4.85581 17.1471 5.5111 17.0535C3.59205 16.3514 1.53257 14.9004 0.456032 13.5898C0.222001 14.0111 -0.667316 16.0238 1.01771 17.662C1.86022 18.4577 3.68566 19.0662 5.18346 19.3002Z" fill="#001B71"/>
<path d="M5.51047 16.7248C5.22963 16.21 4.9956 15.5547 4.9488 14.9462C4.15309 14.3377 3.26377 13.542 2.7021 12.6059C2.42126 12.091 2.51487 11.623 2.74891 11.4826C2.93613 12.0442 3.96587 13.6356 4.9488 14.4313C4.9488 13.9165 5.04241 13.308 5.18283 12.8867C4.05948 11.6698 2.74891 9.5167 2.56168 8.25293C2.23404 8.53377 1.39153 9.70392 1.43833 10.8741C1.29791 11.9038 1.62556 12.9335 2.42126 13.9633C2.98294 14.759 4.34032 15.9759 5.51047 16.7248Z" fill="#001B71"/>
<path d="M5.0427 22.7648C5.18312 22.484 5.46395 22.1563 5.69798 21.8755C4.80867 22.1095 3.63851 22.1563 3.03003 22.1563C2.28113 22.1563 1.57904 22.1095 1.20459 22.0159C1.2514 22.7648 1.95349 24.0286 3.31087 24.1222C3.40448 24.1222 3.45129 24.1222 3.5449 24.1222C4.38741 24.1222 5.74479 23.7945 6.68091 23.4669C6.02563 23.3733 5.37034 23.2329 5.22992 23.1393C4.85547 23.3265 4.01296 23.4669 3.73212 23.4201C3.12364 23.3733 3.07684 22.9052 3.07684 22.9052C3.07684 22.9052 4.15338 22.952 5.0427 22.7648Z" fill="#001B71"/>
<path d="M1.76569 21.4544C2.28056 21.6417 3.07627 21.7353 4.01239 21.7353C4.57406 21.7353 5.13574 21.6885 5.6038 21.6417C5.08893 21.4544 4.48045 21.2204 4.0592 20.9396C3.54433 20.9396 2.84223 20.8928 2.42098 20.7992C1.76569 20.6119 1.76569 20.1439 1.76569 20.0503C2.32737 20.2843 3.3103 20.5183 4.01239 20.5183C4.29323 20.2843 4.66768 19.9566 5.13574 19.6758C3.45072 19.6758 1.25082 19.0205 0.0338636 18.3652C-0.246973 20.6119 1.29763 21.2672 1.76569 21.4544Z" fill="#001B71"/>
<path d="M4.90162 26.4628C4.94843 26.4628 4.99523 26.4628 5.04204 26.4628C6.07177 26.3692 7.28873 25.7139 8.08444 25.1522C7.85041 25.199 7.14832 25.199 6.86748 25.1522C6.77387 25.2458 6.259 25.5267 5.88455 25.5735C5.13565 25.6671 5.08884 25.199 5.08884 25.199C5.55691 25.1522 6.11858 24.965 6.63345 24.731C6.68025 24.3565 6.77387 23.9821 6.86748 23.748C5.69732 24.4033 3.82508 24.8714 2.74854 24.8714C2.98257 25.3863 3.82508 26.4628 4.90162 26.4628Z" fill="#001B71"/>
<path d="M6.9148 28.1478C7.05522 28.1478 7.24244 28.1478 7.38286 28.101C8.36579 27.867 9.34872 26.9776 9.91039 26.2755C9.58275 26.3692 9.25511 26.4628 8.88066 26.4628C8.88066 26.4628 8.64663 26.7436 8.4126 26.884C8.31898 26.9308 8.22537 26.9776 8.13176 26.9776C7.85092 26.9776 7.7105 26.7436 7.7105 26.7436C7.7105 26.7436 8.17856 26.5096 8.4594 26.2287C8.4126 25.9947 8.36579 25.6671 8.36579 25.3862C7.57008 26.1819 6.11909 26.9308 5.08936 27.0713C5.27658 27.4925 5.97867 28.1478 6.9148 28.1478Z" fill="#001B71"/>
<path d="M19.7412 2.54329C19.7412 2.77732 19.9284 2.91774 20.1157 2.91774C20.3029 2.91774 20.4901 2.73052 20.4901 2.54329C20.4901 2.30926 20.3029 2.16884 20.1157 2.16884C19.9284 2.12204 19.7412 2.30926 19.7412 2.54329Z" fill="#001B71"/>
<path d="M19.8821 1.70023H20.3969L20.3501 1.04494L20.9118 1.13855V0.623686L20.3501 0.670492L20.3969 0.0620117H19.8821L19.9289 0.670492L19.3672 0.623686V1.13855L19.9289 1.04494L19.8821 1.70023Z" fill="#001B71"/>
<path d="M18.0553 7.87898C18.1021 7.87898 18.1957 7.92579 18.2425 7.92579H21.987C22.0807 7.92579 22.1275 7.92579 22.1743 7.87898C22.3147 7.83218 22.3615 7.73856 22.4083 7.59814H17.8213C17.8681 7.78537 17.9617 7.83218 18.0553 7.87898Z" fill="#001B71"/>
<path d="M22.1741 7.3183C22.2209 7.3183 22.2209 7.27149 22.2209 7.27149V6.99065C22.2209 6.94385 22.1741 6.94385 22.1741 6.94385H18.102C18.0552 6.94385 18.0552 6.99065 18.0552 6.99065V7.27149C18.0552 7.3183 18.102 7.3183 18.102 7.3183H22.1741Z" fill="#001B71"/>
<path d="M22.5963 6.61531C22.6899 6.47489 23.2048 5.49196 23.2048 4.46222C23.2048 3.5261 22.0346 3.01123 21.3793 3.01123C21.2857 4.3218 20.7709 6.38128 20.1156 6.38128C19.5071 6.38128 18.9454 4.3218 18.8518 3.01123C18.1497 3.01123 17.0264 3.5261 17.0264 4.46222C17.0264 5.49196 17.5412 6.52169 17.6348 6.61531H22.5963Z" fill="#001B71"/>
<path d="M20.1159 5.72536C20.4436 5.72536 20.818 4.74243 20.9585 3.7595C20.9585 3.57227 20.6308 3.29144 20.1159 3.24463C19.6011 3.24463 19.2734 3.52547 19.2734 3.7595C19.4139 4.64881 19.8351 5.72536 20.1159 5.72536Z" fill="#001B71"/>
<path d="M26.0605 21.0802C26.0605 20.9398 25.9669 20.8462 25.8264 20.8462H14.4513C14.3109 20.8462 14.2173 20.9398 14.2173 21.0802V28.8977V28.9445V28.9913C14.2173 28.9913 14.2173 29.4126 14.4045 29.8807C14.6386 30.4424 15.6216 31.3787 16.8387 32.034C18.5707 32.9234 19.6006 33.6256 20.1155 34.0469C20.6304 33.6256 21.6602 32.9234 23.3922 32.034C24.6561 31.3787 25.5924 30.4424 25.8264 29.8807C26.0605 29.3658 26.0137 28.9913 26.0137 28.9913L26.0605 21.0802ZM22.222 23.9357C22.3624 24.5443 22.5028 25.1528 22.5496 25.7145C23.0178 26.089 23.4391 26.4635 23.8135 26.838C24.5157 26.0422 24.8902 25.2932 24.8902 24.6847C24.5625 24.6847 24.2817 24.4038 24.2817 24.0762C24.2817 23.9357 24.3285 23.8421 24.3753 23.7485C24.0476 23.608 23.6731 23.5612 23.3454 23.5612C23.0646 23.5612 22.7837 23.608 22.456 23.6549H22.4092L22.3156 23.7017L22.3624 23.6549C22.4092 23.5612 22.4092 23.5144 22.456 23.4208C23.3922 23.2336 24.1412 23.3272 24.6093 23.608C24.703 23.5612 24.7966 23.5144 24.8902 23.5144C25.2179 23.5144 25.4987 23.7953 25.4987 24.123C25.4987 24.357 25.3583 24.5443 25.1711 24.6379C25.1711 25.2932 24.7966 26.1358 24.0008 27.0721C24.0476 27.1189 24.0944 27.1657 24.1412 27.2125C24.188 27.2593 24.188 27.2593 24.2348 27.3061V27.3529C24.188 27.3997 24.1412 27.4465 24.0944 27.4934H24.0476C24.0476 27.4934 24.0476 27.4934 24.0008 27.4934C23.954 27.4465 23.954 27.4465 23.954 27.3997C23.9072 27.3529 23.9072 27.3061 23.8604 27.2593C23.7667 27.3529 23.6731 27.4465 23.5795 27.5402L23.4859 27.6806C23.3454 27.7742 23.205 27.821 23.1114 27.7742H23.0646L23.1114 27.7274C23.3454 27.5402 23.5327 27.3061 23.7199 27.1657C23.4391 26.838 23.0646 26.5103 22.6901 26.1826C22.7369 26.5103 22.7369 26.838 22.7369 27.1657C22.7369 27.4465 22.7369 27.7742 22.6901 28.1019C22.6433 28.1487 22.5496 28.1955 22.5028 28.2423L22.456 28.2891V28.2423C22.5028 27.8678 22.5028 27.4934 22.5028 27.1657C22.5028 27.0721 22.5028 26.9316 22.5028 26.838V26.7444C22.5028 26.5103 22.456 25.855 22.4092 25.4337C22.3624 25.0592 22.2688 24.6847 22.1752 24.3102V24.2634C22.222 24.2166 22.2688 24.1698 22.3156 24.123L22.222 23.9357ZM18.3835 23.0931C18.8516 21.9697 19.5069 21.3611 20.1623 21.3611C20.8176 21.3611 21.473 21.9697 21.9411 23.0931V23.1399H21.8943C21.8475 23.1399 21.8007 23.1867 21.707 23.2336H21.6602V23.1867C21.2389 22.2037 20.6772 21.642 20.1155 21.642C19.5537 21.642 18.992 22.2037 18.5707 23.1867V23.2336H18.5239C18.4771 23.1399 18.3835 23.1399 18.3835 23.0931ZM18.1962 23.374C18.3367 23.4676 18.758 23.7017 19.2261 23.5612C19.6474 23.4208 20.1155 23.4208 20.1155 23.4208C20.1155 23.4208 20.6304 23.4208 21.0049 23.5612C21.473 23.7017 21.8943 23.4676 22.0347 23.374C22.0815 23.374 22.0815 23.374 22.0815 23.4208C22.0347 23.608 21.8943 24.0762 21.1921 24.2634C20.5368 24.4038 20.2091 25.1528 20.1155 25.4805C20.1155 25.5273 20.0687 25.5273 20.0219 25.4805C19.9282 25.1528 19.6006 24.4038 18.9452 24.2634C18.243 24.123 18.1026 23.608 18.0558 23.4208C18.1494 23.374 18.1962 23.374 18.1962 23.374ZM19.3197 25.2464C19.4133 25.2464 19.5537 25.1996 19.6474 25.1528C19.6942 25.2464 19.741 25.3869 19.7878 25.4805C19.6474 25.5741 19.5069 25.6209 19.3197 25.6209C18.8048 25.6209 18.4303 25.1996 18.4303 24.7315C18.4303 24.5911 18.4771 24.4975 18.5239 24.4038C18.6175 24.4506 18.7111 24.4974 18.8516 24.5443C18.8048 24.5911 18.8048 24.6847 18.8048 24.7315C18.758 25.0124 19.0388 25.2464 19.3197 25.2464ZM19.0856 24.6847C19.0856 24.6379 19.0856 24.6379 19.0856 24.5911C19.2261 24.6379 19.3665 24.7783 19.4601 24.8719C19.4133 24.9187 19.3665 24.9187 19.3197 24.9187C19.1793 24.9187 19.0856 24.8251 19.0856 24.6847ZM19.3197 25.9018C19.5069 25.9018 19.741 25.855 19.9282 25.7145C19.975 25.7613 20.0687 25.9486 20.1155 25.9486C20.2091 25.9486 20.2559 25.7613 20.3027 25.7145C20.49 25.8082 20.724 25.9018 20.9113 25.9018C21.2389 25.9018 21.5198 25.7613 21.7539 25.5741C21.7539 25.5741 21.7539 25.5741 21.7539 25.6209C21.8475 25.9954 21.8943 26.4635 21.8475 26.6508C21.8475 26.838 21.7539 27.0252 21.707 27.2125C21.6134 27.4465 21.5666 27.6338 21.5666 27.6338C21.5666 27.6338 21.5666 27.6806 21.5198 27.7742C21.473 27.9615 21.3326 28.2891 21.1453 28.6168C20.7708 28.3828 20.3963 28.2891 19.9282 28.2891C19.5069 28.2891 19.1324 28.3828 18.8048 28.57C18.6643 28.2423 18.5239 27.9615 18.4771 27.821C18.4303 27.7274 18.4303 27.6806 18.4303 27.6806C18.4303 27.6806 18.3367 27.4934 18.243 27.2125C18.1962 27.0721 18.1494 26.8848 18.1494 26.6976C18.1494 26.5571 18.1026 26.089 18.243 25.6677C18.243 25.6209 18.2898 25.5741 18.2898 25.5273C18.6175 25.7145 18.992 25.9018 19.3197 25.9018ZM20.9581 25.2464C21.2857 25.2464 21.5198 25.0124 21.5198 24.6847C21.5198 24.5911 21.5198 24.5443 21.473 24.4975C21.5666 24.4506 21.707 24.4038 21.8007 24.357C21.8475 24.4506 21.8943 24.5911 21.8943 24.6847C21.8943 25.1996 21.473 25.5741 21.0049 25.5741C20.8176 25.5741 20.6772 25.5273 20.5368 25.4337C20.5836 25.34 20.6304 25.2464 20.6772 25.106C20.724 25.1996 20.8644 25.2464 20.9581 25.2464ZM20.8176 24.8719C20.9113 24.7315 21.0517 24.6379 21.1921 24.5911C21.1921 24.6379 21.1921 24.6379 21.1921 24.6847C21.1921 24.8251 21.0985 24.9187 20.9581 24.9187C20.9113 24.9187 20.8644 24.9187 20.8176 24.8719ZM15.3876 23.5612C15.528 23.5612 15.6216 23.608 15.7152 23.6549C16.0429 23.4676 16.4174 23.374 16.9323 23.374C17.2132 23.374 17.4941 23.4208 17.8217 23.4676H17.8685C17.8685 23.5144 17.9154 23.608 17.9622 23.7017L18.009 23.7485L17.9154 23.7017C17.8685 23.7017 17.8685 23.7017 17.8217 23.7017C17.5409 23.6549 17.26 23.608 16.9791 23.608C16.6515 23.608 16.2302 23.6549 15.9493 23.8421C15.9961 23.9357 16.0429 24.0293 16.0429 24.1698C16.0429 24.4975 15.762 24.7783 15.4344 24.7783C15.4344 25.34 15.8089 26.089 16.511 26.9316C16.8855 26.5571 17.3068 26.1358 17.7749 25.8082C17.8217 25.2464 17.9622 24.6379 18.1026 24.0762V24.0293L18.1494 24.0762C18.1962 24.123 18.243 24.1698 18.2898 24.2166C18.2898 24.2166 18.2898 24.2166 18.3367 24.2634V24.3102C18.243 24.6847 18.1494 25.0124 18.1026 25.3869V25.4337C18.0558 25.7145 18.009 26.089 18.009 26.4635C18.009 26.7444 17.9622 26.9784 17.9622 27.1657C17.9622 27.4465 17.9622 27.7274 18.009 28.1019V28.1487H17.9622C17.8685 28.1019 17.8217 28.1019 17.7749 28.1019H17.7281V28.0551C17.7281 27.821 17.6813 27.4934 17.6813 27.1657C17.6813 26.838 17.6813 26.5103 17.7281 26.1826C17.3536 26.5103 16.9791 26.838 16.6983 27.1657C16.9323 27.4465 17.26 27.7274 17.6345 28.0551L17.6813 28.1019H17.6345C17.5409 28.1487 17.4004 28.1487 17.3068 28.1019C17.0259 27.821 16.7919 27.6338 16.5578 27.3997C16.511 27.4465 16.4642 27.4934 16.4642 27.5402L16.4174 27.587C16.3706 27.587 16.3238 27.6338 16.2302 27.6806L16.1833 27.6338C16.1833 27.6338 16.1365 27.6338 16.1365 27.587H16.0897V27.5402C16.1833 27.3997 16.277 27.3061 16.3706 27.2125C15.5748 26.3231 15.2003 25.4805 15.2003 24.8251C15.0131 24.7315 14.8726 24.5443 14.8726 24.3102C14.779 23.8421 15.0599 23.5612 15.3876 23.5612ZM22.0347 30.8169C21.707 31.7532 21.2389 32.4085 20.724 32.6894C20.6772 32.9702 20.4432 33.2043 20.1623 33.2043C19.8814 33.2043 19.6474 32.9702 19.6006 32.6894C19.0856 32.4085 18.6175 31.8 18.2898 30.8637V30.8169L18.5707 30.7233V30.7701C18.8516 31.5659 19.2261 32.1276 19.6474 32.4085C19.741 32.1745 19.9282 31.9872 20.2091 31.9872C20.49 31.9872 20.6772 32.1745 20.7708 32.3617C21.1921 32.0808 21.5666 31.5191 21.8475 30.7701V30.7233H21.8943C21.8943 30.7701 21.9411 30.7701 22.0347 30.8169ZM19.6474 30.7701C19.6474 30.5829 19.6942 30.068 19.7878 29.8807C19.8814 29.8339 20.0219 29.7871 20.1623 29.7871C20.3027 29.7871 20.4432 29.8339 20.5836 29.9275C20.6304 30.1148 20.724 30.5829 20.724 30.7701C20.724 30.9574 20.2559 31.0978 20.2091 31.1446C20.0687 31.0978 19.6474 31.0042 19.6474 30.7701ZM25.6392 28.8977C25.5924 28.9445 25.5456 28.9913 25.4987 28.9913C25.4519 28.9913 25.4051 29.0381 25.3115 29.0381H25.2647C25.1711 29.0381 25.0774 29.0381 25.0306 28.9913C24.9838 28.9913 24.9838 28.9445 24.937 28.9445C24.7966 28.9445 24.4689 29.0381 24.3753 29.0849C24.4221 29.0849 24.8434 29.1317 25.1243 29.3658C25.2647 29.4594 25.5456 29.5062 25.6392 29.5062C25.6392 29.553 25.1711 29.8807 24.2817 29.6935L24.0476 29.6467C23.6263 29.553 23.2518 29.5062 22.8305 29.5062C22.8773 29.5062 22.9241 29.553 22.9241 29.553C23.0178 29.5999 23.1582 29.6467 23.2518 29.6935C23.2518 29.6935 23.2986 29.6935 23.2986 29.7403H23.3454C23.3922 29.7403 23.4391 29.7403 23.4391 29.7871C23.4859 29.7871 23.5327 29.8339 23.5795 29.8339C23.6263 29.8807 23.7199 29.9275 23.7199 29.9743C23.7199 30.0212 23.7667 30.0211 23.7667 30.068C23.7667 30.1616 23.7667 30.2084 23.7199 30.302C23.5795 30.4893 23.3922 30.4893 23.205 30.302L23.1582 30.2552C23.1114 30.2084 23.0646 30.1616 23.0178 30.068V30.0211C23.0178 30.0211 23.0178 30.0211 22.9709 30.0211C22.8773 29.9743 22.8305 29.8807 22.7369 29.8807C22.5965 29.8339 22.4092 29.7871 22.2688 29.7403C22.222 29.7403 22.1752 29.7403 22.1283 29.7403C22.2688 29.8339 22.4092 29.9275 22.456 30.0211C22.456 30.0211 22.456 30.0211 22.456 30.068C22.5496 30.2084 22.5496 30.3488 22.5965 30.4893C22.7369 30.7701 22.7837 30.8169 22.9241 30.9106C22.7837 30.9574 22.0815 30.9574 21.7539 30.4424C21.7539 30.4424 21.707 30.3956 21.707 30.3488C21.6134 30.1616 21.5666 29.9743 21.5198 29.8339C21.473 29.6935 21.5666 29.553 21.473 29.5062C21.3794 29.4594 21.3326 29.5062 21.3326 29.5062C21.2857 29.553 21.2857 29.553 21.2857 29.553V29.5999C21.2857 29.6467 21.2389 29.6467 21.2389 29.6467V29.6935C21.2389 29.6935 21.2389 29.7403 21.1921 29.7403C21.1921 29.7403 21.1921 29.7403 21.1453 29.7403C21.0985 29.7403 21.0985 29.7403 21.0517 29.7403C21.0517 29.7403 21.0517 29.7403 21.0049 29.7403C21.0049 29.7403 20.9581 29.7403 20.9581 29.7871C20.9113 29.7871 20.8644 29.8339 20.8176 29.8339C20.7708 29.8339 20.724 29.7871 20.724 29.7403C20.724 29.6935 20.724 29.6935 20.724 29.6467C20.6772 29.6467 20.6772 29.6467 20.6304 29.6467C20.5836 29.6467 20.5836 29.6467 20.5368 29.5999C20.5368 29.553 20.5368 29.5062 20.5368 29.5062C20.5368 29.4594 20.5368 29.4594 20.5368 29.4594C20.49 29.5062 20.49 29.5062 20.4432 29.5062C20.3963 29.5062 20.3963 29.5062 20.3495 29.5062C20.3027 29.5062 20.3027 29.4594 20.3027 29.4126V29.3658C20.3027 29.3658 20.3027 29.3658 20.3027 29.319C20.3027 29.319 20.3027 29.319 20.2559 29.319H20.2091C20.1623 29.319 20.0687 29.2722 20.0219 29.2722C20.0219 29.2722 20.0219 29.2722 19.975 29.2722C19.9282 29.2722 19.8346 29.319 19.7878 29.319H19.741H19.6942C19.6942 29.319 19.6942 29.319 19.6942 29.2722C19.6942 29.2722 19.6942 29.2722 19.6942 29.2254L19.741 29.1786C19.741 29.1786 19.741 29.1786 19.741 29.1317C19.6942 29.1317 19.6942 29.1317 19.6474 29.1317V29.1786C19.6474 29.1786 19.6474 29.1786 19.6006 29.1786V29.2254V29.2722C19.6006 29.319 19.6006 29.3658 19.5537 29.3658C19.5069 29.4126 19.5069 29.4126 19.4601 29.3658C19.4601 29.3658 19.4133 29.3658 19.4133 29.319C19.4133 29.319 19.3665 29.319 19.3665 29.2722C19.3665 29.2722 19.3665 29.319 19.4133 29.319C19.4133 29.3658 19.4133 29.3658 19.4133 29.4126C19.3665 29.4594 19.3665 29.4594 19.3197 29.4594H19.2729H19.2261C19.2261 29.5062 19.2729 29.5062 19.2261 29.553C19.2261 29.5999 19.1793 29.5999 19.1324 29.5999C19.0856 29.5999 19.0856 29.5999 19.0388 29.5999C19.0388 29.5999 19.0388 29.5999 18.992 29.5999H18.9452L18.8984 29.553C18.8984 29.553 18.8516 29.553 18.8048 29.553C18.8048 29.553 18.758 29.553 18.758 29.5062L18.7111 29.4594V29.4126C18.6175 29.319 18.4771 29.6467 18.4771 29.6467C18.0558 30.5361 17.0259 30.7233 17.0259 30.6765C17.0259 30.6765 17.26 30.5829 17.3536 30.2552C17.4004 30.068 17.4004 30.0211 17.4941 29.8339C17.4941 29.7871 17.5409 29.7871 17.5409 29.7403C17.5877 29.6467 17.7281 29.5999 17.8217 29.5062C17.7749 29.5062 17.7281 29.5062 17.6813 29.5062C17.5409 29.553 17.4004 29.553 17.2132 29.6467C17.1196 29.6935 17.0728 29.7403 16.9791 29.7871C16.9791 29.7871 16.9791 29.7871 16.9323 29.7871V29.8339C16.9323 29.8807 16.8855 29.9275 16.8387 30.0211L16.7919 30.068C16.6046 30.2552 16.4642 30.2552 16.277 30.068L16.2302 30.0211C16.1833 29.9743 16.1833 29.8807 16.2302 29.8339C16.2302 29.7871 16.277 29.7403 16.3238 29.6935C16.3706 29.6467 16.4174 29.6467 16.4642 29.5999C16.511 29.553 16.5578 29.553 16.6046 29.553C16.6515 29.553 16.6515 29.553 16.6983 29.5062C16.6983 29.5062 16.7451 29.5062 16.7919 29.5062C16.7919 29.5062 16.7919 29.4594 16.8387 29.4594C16.8855 29.4594 16.9323 29.4126 16.9791 29.4126C17.0259 29.4126 17.0728 29.3658 17.1196 29.3658C17.1196 29.3658 17.1664 29.3658 17.2132 29.319C16.8387 29.319 16.4642 29.3658 16.0429 29.4594C15.9961 29.4594 15.9025 29.5062 15.8089 29.5062C15.3407 29.5999 14.4513 29.3658 14.4513 29.319C14.4513 29.2722 14.6854 29.2722 14.9195 29.1317C15.1067 29.0381 15.2003 28.9445 15.3407 28.8977C15.5748 29.0849 15.8557 29.0849 15.9025 29.0849C15.8089 29.0381 15.3876 28.9913 15.2471 28.9445C15.2471 28.9445 15.2003 28.9913 15.1535 28.9913C15.0599 29.0381 14.9663 29.0381 14.8726 29.0381C14.8258 29.0381 14.7322 29.0381 14.6854 28.9913C14.6386 28.9913 14.5918 28.9445 14.545 28.8977C14.4982 28.8509 14.4982 28.8041 14.4982 28.6636C14.545 28.4764 14.7322 28.3828 14.9663 28.4296C15.1067 28.4764 15.2003 28.5232 15.2471 28.57L15.2939 28.6168C15.4344 28.6168 15.6216 28.7104 15.8089 28.7573C15.9961 28.8509 16.1365 28.8977 16.2302 28.8977C16.1833 28.8977 16.1365 28.8509 16.0897 28.8509C16.0429 28.8509 15.9961 28.8041 15.9961 28.8041C15.9493 28.7573 15.9025 28.7573 15.8557 28.7104C15.5748 28.57 15.2939 28.4296 15.1067 28.2423C14.9663 28.0551 14.9195 27.9615 14.8726 27.7742C14.8258 27.3529 14.6386 27.1657 14.6386 27.1189C14.6854 27.0721 15.3407 27.3997 15.5748 27.6338C15.7152 27.821 15.762 27.9615 15.8089 28.1019V28.1487C15.8557 28.2891 15.9961 28.4296 16.2302 28.57C16.277 28.57 16.277 28.6168 16.3238 28.6168C16.277 28.5232 16.2302 28.4764 16.1833 28.3828V28.336L16.1365 28.2891C16.1365 28.2891 16.0897 28.2423 16.0897 28.1955C16.0429 28.1487 16.0429 28.1019 15.9961 28.0551C15.9493 27.9147 15.9493 27.7742 15.9961 27.7274C16.0429 27.6806 16.0897 27.6338 16.1833 27.587C16.3706 27.5402 16.511 27.6338 16.5578 27.9147C16.5578 27.9615 16.5578 28.0083 16.5578 28.0551C16.5578 28.1019 16.5578 28.1487 16.5578 28.1955V28.2423C16.5578 28.2423 16.5578 28.2423 16.5578 28.2891C16.6515 28.57 16.8855 28.8041 17.1664 28.9913C16.8387 28.7104 16.6515 28.0551 16.6983 28.0551C16.7451 28.0083 17.0259 28.1955 17.3068 28.336C17.4472 28.3828 17.5877 28.4764 17.7281 28.57C17.8217 28.6168 17.9154 28.7104 17.9622 28.7573C18.0558 28.8041 18.1026 28.8977 18.1494 28.9445C18.1962 28.9913 18.243 29.0381 18.2898 29.0849C18.3367 29.1317 18.3367 29.1317 18.3835 29.1786C18.4771 29.2254 18.6175 29.1786 18.6175 29.1786C18.6643 29.1786 18.7111 29.1786 18.758 29.1317C18.758 29.1317 18.758 29.1317 18.8048 29.0849C18.8516 29.0381 18.8984 29.0381 18.9452 29.0381V28.9913C18.9452 28.8977 18.992 28.8509 19.0856 28.8041C19.0856 28.8041 19.1324 28.8041 19.1324 28.7573H19.1793H19.2261H19.2729C19.2729 28.7104 19.3197 28.7104 19.3665 28.6636C19.4601 28.6168 19.6006 28.6168 19.6942 28.7104C19.741 28.7573 19.741 28.8041 19.7878 28.8509V28.8977C19.7878 28.9445 19.7878 28.9445 19.7878 28.9913C19.7878 29.0381 19.7878 29.0381 19.7878 29.0849C19.8346 29.0849 19.9282 29.0849 19.975 29.0849C20.0219 29.0849 20.0219 29.0849 20.0687 29.0849C20.1155 29.0849 20.1623 29.0849 20.2091 29.1317C20.2559 29.1317 20.3027 29.0849 20.3495 29.0849C20.3963 29.0849 20.3963 29.0849 20.4432 29.0849H20.49C20.49 29.0381 20.49 28.9913 20.49 28.9445C20.49 28.8977 20.49 28.8509 20.5368 28.8041C20.5368 28.8041 20.5368 28.7573 20.5836 28.7573L20.6304 28.7104C20.724 28.6636 20.8176 28.6636 20.9113 28.7104C20.9581 28.7104 20.9581 28.7573 21.0049 28.8041C21.0517 28.8041 21.0517 28.8041 21.0985 28.8041H21.1453H21.1921C21.2857 28.8509 21.3326 28.8977 21.3326 28.9913C21.3326 28.9913 21.3326 28.9913 21.3794 28.9913H21.4262C21.4262 28.9913 21.6602 28.9913 21.707 29.0381H21.9411C21.9879 28.9913 21.9879 28.9913 22.0347 28.9445C22.0815 28.8977 22.1752 28.8041 22.222 28.7573C22.3156 28.7104 22.3624 28.6168 22.456 28.57C22.5965 28.4764 22.7837 28.4296 22.9241 28.3828C23.3922 28.1955 23.4391 27.9147 23.4859 27.9147C23.5327 27.9615 23.3922 28.7104 23.0646 28.9913C23.2986 28.8041 23.5327 28.57 23.6731 28.2891C23.6731 28.2891 23.6731 28.2891 23.6731 28.2423V28.1955C23.6731 28.1487 23.6731 28.1019 23.6731 28.0551C23.6731 28.0083 23.6731 27.9615 23.6731 27.9147C23.7667 27.6806 23.8604 27.5402 24.0476 27.587C24.1412 27.6338 24.188 27.6806 24.2348 27.7274C24.2817 27.821 24.2817 27.9147 24.2348 28.0551C24.2348 28.1019 24.188 28.1487 24.1412 28.1955C24.0944 28.2423 24.0944 28.2423 24.0476 28.2891L24.0008 28.336V28.3828C23.954 28.4764 23.9072 28.5232 23.8135 28.6168C23.8604 28.57 23.8604 28.57 23.9072 28.5232C24.1412 28.336 24.2817 28.1955 24.3285 28.0551C24.3753 27.9147 24.4221 27.7742 24.5625 27.587C24.7966 27.3529 24.8434 27.2593 25.0774 27.1189C25.1243 27.0721 25.4519 27.0252 25.4987 27.0252C25.5456 27.0721 25.2647 27.1657 25.1711 27.6338C25.1243 27.7742 25.0774 28.0083 24.937 28.1955C24.7498 28.4296 24.5625 28.4764 24.3285 28.6168L24.2817 28.6636C24.2348 28.7104 24.188 28.7104 24.0944 28.7573C24.0008 28.8041 23.954 28.8509 23.9072 28.8509C24.0476 28.8041 24.188 28.7573 24.3753 28.7104C24.5157 28.6168 24.703 28.57 24.8902 28.57C24.8902 28.57 24.8902 28.5232 24.937 28.5232C24.9838 28.4764 25.0774 28.4296 25.2179 28.3828C25.4519 28.2891 25.6392 28.3828 25.686 28.6168C25.7328 28.7573 25.686 28.8509 25.6392 28.8977Z" fill="#001B71"/>
<path d="M33.8319 19.4884C34.534 19.1608 35.7043 18.365 36.1724 17.8033C35.5171 17.5692 34.2064 17.4288 33.4574 17.4288C35.0021 16.3521 35.049 14.1052 34.6277 12.4668C34.2532 13.7775 33.3169 14.8542 32.7084 15.5095C32.7552 16.1649 32.568 17.2883 32.1935 17.9437C32.7084 18.1309 33.3169 18.4118 33.7382 18.7395C33.4574 19.114 32.8488 19.6289 32.4743 19.9566C32.802 20.2842 33.3169 20.8928 33.5978 21.2673C33.2233 21.5481 32.4743 21.829 32.053 21.9694C32.2403 22.3907 32.5212 23.0929 32.6148 23.6078C32.1467 23.7014 31.5381 23.7483 30.8828 23.7483C30.9296 24.2164 30.836 24.9653 30.7423 25.4334C30.1338 25.3866 29.4316 25.1526 29.104 24.9653C28.9167 25.6207 28.4954 26.276 28.4954 26.3229C27.9337 25.6675 27.3719 25.4334 26.857 25.4334V25.0121C27.3719 25.0121 27.9337 25.1994 28.355 25.6207C28.5422 25.293 28.7295 24.6845 28.8231 24.31C29.1976 24.4972 29.8061 24.7313 30.321 24.8249C30.3678 24.3568 30.4147 23.7483 30.3678 23.2801C30.8828 23.327 31.4445 23.327 32.053 23.2333C31.9594 22.812 31.5849 22.1099 31.3509 21.7354C31.8658 21.5949 32.5212 21.3141 32.8488 21.1268C32.568 20.7523 32.0999 20.2374 31.7722 19.9097C32.1467 19.6289 32.7552 19.1608 32.9893 18.8799C32.568 18.599 32.0062 18.3182 31.5381 18.1309C32.1935 17.2415 32.3339 15.4159 32.1935 14.5733C31.6317 16.4925 29.9465 17.8969 28.9167 18.5522C28.8699 18.599 28.8231 18.6459 28.7763 18.6459C28.7295 18.6927 28.5422 18.9267 28.6358 19.2076C28.6358 19.3012 28.6827 19.348 28.6827 19.4416C28.7763 19.8161 28.7763 20.3779 28.2145 20.8928C27.7464 21.3141 27.1847 21.3609 26.857 21.3141V20.2842C26.857 20.1438 26.7634 20.0502 26.623 20.0502H25.9208L25.5931 19.7225C25.5931 19.7225 25.9208 19.7225 26.2953 19.7225C26.6698 19.6757 27.0911 19.4884 27.0911 19.4884C27.0911 19.4884 26.6698 19.4885 26.4825 19.4416C26.2485 19.4885 25.7336 19.2544 25.3123 18.7863C25.1718 18.599 25.0314 18.4118 24.9378 18.2246C24.5633 17.8969 24.142 17.4756 23.8611 16.867C23.6739 16.4457 23.5803 15.8372 23.5334 15.4627C23.393 15.5563 23.2526 15.7436 23.0653 15.9776C22.7377 16.3989 22.5972 17.0075 22.5972 17.0075L22.4568 17.4756L22.2227 17.0543C22.2227 17.0543 21.8951 16.4925 21.8482 15.7904C21.8482 15.4627 21.8482 15.1818 21.8951 14.9478C21.8014 14.9946 21.661 15.0882 21.5206 15.1818C20.9588 15.6031 20.6312 16.0244 20.6312 16.0244C20.3503 16.3989 20.163 16.7266 20.1162 16.867C20.0694 16.6798 19.8822 16.3989 19.6013 16.0244C19.6013 16.0244 19.3204 15.5563 18.7119 15.1818C18.5715 15.0882 18.431 14.9946 18.3374 14.9478C18.3842 15.1818 18.3842 15.5095 18.3842 15.7904C18.3374 16.4925 18.0097 17.0075 18.0097 17.0543L17.7757 17.4288L17.6353 16.9607C17.6353 16.9607 17.448 16.3521 17.1671 15.9308C16.9799 15.6968 16.8395 15.5095 16.699 15.4159C16.6522 15.7904 16.5586 16.4457 16.3714 16.8202C16.0905 17.4288 15.716 17.8969 15.2947 18.1777C15.2011 18.365 15.0606 18.5522 14.9202 18.7395C14.4989 19.2076 13.984 19.4416 13.7499 19.4884C13.5627 19.5353 13.1414 19.5353 13.1414 19.5353C13.1414 19.5353 13.5627 19.7225 13.9372 19.7693C14.3117 19.8161 14.6393 19.7693 14.6393 19.7693L14.3117 20.097H13.6095C13.4691 20.097 13.3755 20.1906 13.3755 20.331V21.3609C13.0478 21.4077 12.4392 21.3609 12.0179 20.9396C11.503 20.4247 11.4562 19.8629 11.5498 19.4884C11.5966 19.4416 11.5966 19.348 11.5966 19.2544C11.6903 18.9735 11.503 18.7395 11.4562 18.6927C11.4094 18.6459 11.3626 18.599 11.3158 18.599C10.2859 17.9437 8.64754 16.5394 8.039 14.6201C7.89856 15.4627 8.08581 17.2415 8.69435 18.1777C8.22624 18.365 7.6177 18.6459 7.24321 18.9267C7.47726 19.2076 8.08581 19.7225 8.46029 19.9566C8.13262 20.2374 7.6177 20.7992 7.38364 21.1736C7.71132 21.3609 8.36667 21.6418 8.88159 21.7822C8.64754 22.1567 8.27305 22.8588 8.17943 23.2801C8.74116 23.3738 9.3497 23.3738 9.86462 23.327C9.81781 23.7951 9.86462 24.4504 9.91144 24.8717C10.4264 24.7781 11.0349 24.5909 11.4094 24.3568C11.503 24.6845 11.6903 25.3398 11.8775 25.6675C12.2988 25.2462 12.8605 25.059 13.3755 25.059V25.4803C12.8605 25.4803 12.2988 25.7143 11.7371 26.3697C11.7371 26.3229 11.3158 25.6675 11.1285 25.0121C10.8008 25.1526 10.0987 25.4334 9.49014 25.4803C9.39651 25.0121 9.3497 24.2632 9.3497 23.7951C8.69435 23.7951 8.08581 23.7483 7.6177 23.6546C7.71132 23.1397 7.99218 22.4375 8.17943 22.0162C7.75813 21.8758 7.00915 21.5481 6.63466 21.3141C6.86872 20.9396 7.43045 20.331 7.75813 20.0034C7.38364 19.7225 6.7751 19.1608 6.49423 18.7863C6.91553 18.4586 7.52407 18.1777 8.039 17.9905C7.66451 17.2883 7.47726 16.1649 7.52407 15.5563C6.86872 14.901 5.9325 13.8243 5.60482 12.5136C5.13671 14.152 5.23033 16.4457 6.7751 17.4756C6.02612 17.4756 4.71541 17.6628 4.06006 17.8501C4.52817 18.4118 5.69844 19.1608 6.40061 19.5353C5.83888 19.7225 4.85585 20.2842 4.43455 20.6587C4.94947 20.9864 6.11974 21.3609 6.68148 21.5013C6.3538 21.7822 5.69844 22.5312 5.46439 22.9057C5.9325 23.0461 6.86872 23.1865 7.47726 23.1865C7.29002 23.6078 7.05596 24.31 7.00915 24.7313C7.29002 24.7781 8.27305 24.7313 8.78797 24.5909C8.74116 25.0121 8.74116 25.7143 8.83478 26.042C9.30289 25.9952 10.0051 25.7611 10.3327 25.6675C10.4264 26.042 10.754 26.791 10.8945 26.9782C11.1285 26.9314 11.3626 26.8846 11.5966 26.791C12.252 26.5569 12.9542 26.8378 13.235 27.4463C13.7031 28.523 13.5159 29.7869 12.6265 29.5528C11.5966 29.7401 12.2988 31.0508 11.6903 31.4721C12.486 32.0338 12.7201 30.7231 13.7499 30.9571C13.6563 31.4253 13.6563 32.3147 13.7499 32.6892C14.0776 32.4551 14.5457 32.2679 14.8266 32.221C14.733 32.5019 14.6862 33.1573 14.7798 33.5786C14.967 33.4381 16.3245 33.0636 16.3245 33.0636C16.3245 33.0636 15.8096 34.0935 16.1373 35.1233C16.3245 35.2638 17.5416 34.6552 17.5416 34.3275C17.5884 34.7488 17.0735 35.6851 16.2777 35.8723C17.1203 36.7149 17.8693 36.6681 17.9629 36.6681C18.1034 36.6681 18.197 36.6681 18.2906 36.5745C18.2438 36.8085 18.197 37.1362 18.2438 37.3234C18.2906 37.3234 18.3374 37.3234 18.3842 37.3234C18.6183 37.3234 18.8055 37.2766 18.946 37.2298C18.9928 37.4639 19.0864 37.6979 19.2268 37.8852C19.2736 37.932 19.2736 37.932 19.3204 37.9788C19.5077 37.9788 19.9758 37.7447 20.0694 37.6043C20.163 37.7447 20.6312 37.9788 20.8184 37.9788C20.8652 37.932 20.912 37.932 20.912 37.8852C21.0993 37.6979 21.1929 37.4171 21.1929 37.2298C21.3801 37.3234 21.5674 37.3234 21.7546 37.3234C21.8014 37.3234 21.8482 37.3234 21.8951 37.3234C21.9419 37.1362 21.9419 36.8085 21.8482 36.5745C21.9419 36.6213 22.0823 36.6681 22.1759 36.6681C22.2695 36.6681 23.0185 36.7149 23.8611 35.8723C23.0653 35.6851 22.5504 34.7488 22.5972 34.3275C22.5972 34.702 23.8143 35.2638 24.0016 35.1233C24.3292 34.0935 23.8143 33.0636 23.8143 33.0636C23.8143 33.0636 25.125 33.3913 25.3591 33.5786C25.4527 33.1573 25.4059 32.5019 25.3123 32.221C25.5931 32.221 26.0612 32.4551 26.3889 32.6892C26.4825 32.3147 26.4825 31.4721 26.3889 30.9571C27.3719 30.7231 27.606 32.0338 28.4486 31.4721C27.8869 31.0508 28.589 29.7401 27.5124 29.5528C26.623 29.8337 26.4357 28.523 26.9038 27.4463C27.1847 26.8378 27.9337 26.5569 28.5422 26.791C28.7763 26.8846 29.0103 26.9314 29.2444 26.9782C29.338 26.791 29.7125 26.042 29.8061 25.6675C30.1338 25.8079 30.836 25.9952 31.3041 26.042C31.3509 25.7143 31.3977 25.0121 31.3509 24.5909C31.819 24.6845 32.8488 24.7313 33.1297 24.7313C33.0829 24.2632 32.8488 23.561 32.6616 23.1865C33.2701 23.1397 34.2064 23.0461 34.6745 22.9057C34.4404 22.4844 33.7851 21.7354 33.4574 21.5013C34.0191 21.3609 35.1894 20.9864 35.7043 20.6587C35.3766 20.2374 34.3936 19.6757 33.8319 19.4884ZM26.2485 30.0209C26.2017 30.1145 26.1549 30.1614 26.108 30.255C26.108 30.3018 26.0612 30.3018 26.0612 30.3486C26.0144 30.3954 25.9676 30.4422 25.9208 30.5358C25.874 30.5827 25.874 30.5827 25.8272 30.6295C25.7804 30.7231 25.6867 30.7699 25.6399 30.8635C25.5931 30.9103 25.5463 30.9571 25.4995 31.004C25.4527 31.0508 25.4059 31.0976 25.3591 31.1444C25.3123 31.1912 25.2654 31.238 25.1718 31.3316C25.125 31.3784 25.125 31.3784 25.0782 31.4253C24.9378 31.5657 24.7505 31.7061 24.5633 31.7997C24.3292 31.987 24.0952 32.1274 23.8143 32.2679C23.7207 32.3147 23.6271 32.3615 23.5334 32.4083C21.4269 33.4849 20.3971 34.3275 20.0694 34.5616H20.0226C19.6949 34.2807 18.6651 33.4849 16.5586 32.4083C16.465 32.3615 16.3714 32.3147 16.2777 32.2679C15.9969 32.1274 15.7628 31.987 15.5288 31.7997C15.3415 31.6593 15.2011 31.5189 15.0138 31.4253C14.967 31.3784 14.9202 31.3784 14.9202 31.3316C14.8734 31.2848 14.7798 31.238 14.733 31.1444C14.6862 31.0976 14.6393 31.0508 14.5925 31.004C14.5457 30.9571 14.4989 30.9103 14.4521 30.8635C14.3585 30.7699 14.3117 30.7231 14.2649 30.6295C14.218 30.5827 14.218 30.5827 14.1712 30.5358C14.1244 30.489 14.0776 30.4422 14.0308 30.3486C14.0308 30.3018 13.984 30.3018 13.984 30.255C13.9372 30.1614 13.8904 30.1145 13.8436 30.0209C13.5627 29.4124 13.6095 28.8975 13.6095 28.8975V20.7055C13.6095 20.5651 13.7031 20.4715 13.8436 20.4715H14.5457H20.1162H25.4995H26.2017C26.3421 20.4715 26.4357 20.5651 26.4357 20.7055V28.8975C26.4825 28.8975 26.5293 29.4124 26.2485 30.0209Z" fill="#001B71"/>
<path d="M25.9669 7.55177C26.1541 7.55177 26.2477 7.41135 26.2477 7.22413C26.2477 7.0369 26.1073 6.89648 25.9669 6.89648C25.7796 6.89648 25.686 7.0369 25.686 7.22413C25.686 7.41135 25.8265 7.55177 25.9669 7.55177Z" fill="#001B71"/>
<path d="M25.9667 9.28337C26.154 9.28337 26.3412 8.48767 26.3412 8.11322C26.3412 7.87919 26.154 7.73877 25.9667 7.73877C25.7795 7.73877 25.5923 7.87919 25.5923 8.11322C25.5923 8.48767 25.7795 9.28337 25.9667 9.28337Z" fill="#001B71"/>
<path d="M25.7796 6.42874H26.2008L26.1072 5.91387L26.6221 5.96068V5.53942L26.1072 5.63303L26.2008 5.11816H25.7796L25.8264 5.63303L25.3115 5.53942V5.96068L25.8264 5.91387L25.7796 6.42874Z" fill="#001B71"/>
<path d="M24.141 10.22C24.2814 10.2668 24.4218 10.2668 24.5622 10.3136H24.609H24.6559C24.7027 10.3136 24.7027 10.3136 24.7027 10.3136H24.7963C24.8431 10.3136 24.8899 10.3136 24.9367 10.3136C24.9835 10.3136 24.9835 10.3136 25.0303 10.3136C25.0771 10.3136 25.1239 10.3136 25.1707 10.3136C25.5452 10.3136 25.9196 10.22 26.2941 10.1264C26.6685 10.0328 27.043 9.93916 27.4642 9.93916H27.511H27.5578H27.6046H27.6514H27.6983H27.7451C27.8387 9.5179 27.9791 9.04984 27.9791 8.769C27.9791 8.20733 27.6514 7.59885 26.5749 7.41162C26.5749 8.11371 26.2473 9.75193 25.8728 9.75193H25.826C25.4516 9.75193 25.1239 8.11371 25.1239 7.41162C24.0474 7.59885 23.7197 8.20733 23.7197 8.769C23.7197 9.09664 23.8601 9.70512 24.0006 10.1264C24.141 10.1732 24.141 10.1732 24.141 10.22Z" fill="#001B71"/>
<path d="M29.7587 7.27074C29.7587 7.27074 29.4779 6.52184 29.946 6.28781C30.4608 6.10059 29.7587 6.1942 30.1332 5.16446C30.5544 3.9475 31.4906 4.22834 31.4906 4.22834C30.8353 3.71347 30.3204 3.76028 29.946 4.04111C29.7119 4.22834 29.3843 4.60279 29.1502 5.35169C28.963 6.28781 29.2907 7.17713 29.7587 7.27074Z" fill="#001B71"/>
<path d="M32.1936 5.44534C32.2404 6.98994 34.8148 7.64523 34.8148 7.64523C34.8148 7.64523 33.317 6.56869 33.5978 5.77298C33.5978 5.77298 34.5807 6.19424 35.7041 6.00701C33.317 5.49215 34.1127 4.74325 33.5042 4.13477C32.8957 3.47948 31.9596 3.43267 31.7255 3.38587C31.1171 3.33906 31.0703 3.33906 30.3682 3.52629C32.0064 3.57309 32.1936 4.4156 32.1936 5.44534Z" fill="#001B71"/>
<path d="M31.8653 8.34851C32.1929 7.13155 31.5845 6.56988 31.5845 6.56988C31.3972 6.33585 30.4143 6.38265 30.0399 6.61669C30.0399 6.61669 30.976 6.61669 30.8356 7.97406C30.6952 9.33144 28.8229 9.61228 28.308 9.65909L28.2612 9.84631C29.1505 9.84631 31.4909 9.56548 31.8653 8.34851Z" fill="#001B71"/>
<path d="M22.0811 8.30029H21.145C21.6131 9.61087 22.9705 10.0321 23.8598 10.1725L23.813 10.0321C22.8768 9.65767 22.4088 9.28322 22.0811 8.30029Z" fill="#001B71"/>
<path d="M14.3124 7.55177C14.4996 7.55177 14.5932 7.41135 14.5932 7.22413C14.5932 7.0369 14.4528 6.89648 14.3124 6.89648C14.1251 6.89648 14.0315 7.0369 14.0315 7.22413C13.9847 7.41135 14.1251 7.55177 14.3124 7.55177Z" fill="#001B71"/>
<path d="M14.3115 9.28337C14.4987 9.28337 14.6859 8.48767 14.6859 8.11322C14.6859 7.87919 14.4987 7.73877 14.3115 7.73877C14.1242 7.73877 13.937 7.87919 13.937 8.11322C13.937 8.48767 14.0774 9.28337 14.3115 9.28337Z" fill="#001B71"/>
<path d="M14.0765 6.42874H14.4978L14.451 5.91387L14.9658 5.96068V5.53942L14.451 5.63303L14.4978 5.11816H14.0765L14.1701 5.63303L13.6553 5.53942V5.96068L14.1701 5.91387L14.0765 6.42874Z" fill="#001B71"/>
<path d="M12.4399 9.93825H12.4868H12.5336H12.6272C12.674 9.93825 12.674 9.93825 12.674 9.93825H12.7208C13.142 9.98505 13.5633 10.0319 13.8909 10.1255C14.2186 10.2191 14.6398 10.3127 15.0143 10.3127C15.0611 10.3127 15.1079 10.3127 15.1547 10.3127C15.2015 10.3127 15.2015 10.3127 15.2483 10.3127C15.2951 10.3127 15.3419 10.3127 15.3887 10.3127H15.4823H15.5292H15.576H15.6228C15.7632 10.3127 15.9036 10.2659 16.044 10.2191C16.044 10.1723 16.044 10.1723 16.0908 10.1723C16.2312 9.75102 16.3717 9.14254 16.3717 8.8149C16.3717 8.25322 16.0908 7.64474 14.9675 7.45752C14.9675 8.11281 14.6398 9.79783 14.2654 9.79783H14.2186C13.8441 9.79783 13.5165 8.15961 13.5165 7.45752C12.4399 7.64474 12.1123 8.25322 12.1123 8.8149C12.1123 9.09574 12.2059 9.5638 12.3463 9.98505C12.3931 9.93825 12.3931 9.93825 12.4399 9.93825Z" fill="#001B71"/>
<path d="M8.74023 4.22753C8.74023 4.22753 9.67636 3.94669 10.0976 5.16366C10.4721 6.19339 9.76997 6.09978 10.2848 6.287C10.7997 6.47423 10.4721 7.26993 10.4721 7.26993C10.9869 7.17632 11.3146 6.287 11.0337 5.30407C10.7997 4.55518 10.4721 4.18073 10.238 3.9935C9.86358 3.75947 9.39552 3.71266 8.74023 4.22753Z" fill="#001B71"/>
<path d="M6.63404 5.77139C6.91488 6.5671 5.41708 7.64364 5.41708 7.64364C5.41708 7.64364 8.03823 6.98835 8.03823 5.44375C8.08503 4.41401 8.22545 3.5715 9.81686 3.5247C9.11477 3.38428 9.06796 3.38428 8.45948 3.38428C8.22545 3.38428 7.28933 3.47789 6.68085 4.13318C6.11917 4.74166 6.86807 5.49056 4.48096 6.00542C5.65111 6.19265 6.63404 5.77139 6.63404 5.77139Z" fill="#001B71"/>
<path d="M9.44107 7.97186C9.30065 6.61448 10.2368 6.61448 10.2368 6.61448C9.90913 6.38045 8.9262 6.38045 8.69217 6.56767C8.69217 6.56767 8.08369 7.08254 8.41133 8.34631C8.73898 9.56327 11.1261 9.84411 12.0154 9.84411L11.9686 9.65688C11.4537 9.61008 9.58149 9.32924 9.44107 7.97186Z" fill="#001B71"/>
<path d="M19.1327 8.30029H18.1966C17.869 9.28322 17.4009 9.65767 16.4648 10.0321L16.418 10.1725C17.3541 10.0321 18.6647 9.61087 19.1327 8.30029Z" fill="#001B71"/>
<path d="M21.3325 14.0582C21.0516 14.4795 20.8176 14.9475 20.6304 15.4156C20.7708 15.2284 21.0048 15.0412 21.2389 14.8539C21.6601 14.5731 22.0346 14.3859 22.0346 14.3859L22.409 14.2455L22.3154 14.6199C22.3154 14.6199 22.175 15.2284 22.2218 15.7432C22.2218 15.9773 22.3154 16.2113 22.3622 16.3517C22.4558 16.1177 22.5962 15.8837 22.7366 15.6496C23.2047 15.0412 23.5792 14.8071 23.5792 14.8071L23.86 14.6667V14.9944C23.86 14.9944 23.9536 16.0709 24.1876 16.6326C24.6089 17.5687 25.4046 18.0836 25.8727 18.3176C25.8259 18.2708 25.7322 18.1772 25.6386 18.0836C25.4046 17.8495 25.1706 17.4283 25.0302 16.539C24.9365 15.7901 25.2174 15.0412 25.311 14.8071C25.3578 14.9944 25.4514 15.1816 25.545 15.2284C25.545 15.2284 25.545 15.0412 25.5918 14.8539C25.6854 14.3391 26.2471 13.5434 26.996 13.0753C27.1364 12.9817 27.2768 12.8881 27.3705 12.8413C27.5109 12.7945 27.6045 12.7008 27.6981 12.6072C27.5577 12.6072 27.3705 12.654 27.23 12.654H27.1832C27.0896 12.654 26.9492 12.654 26.762 12.654C26.3875 12.654 25.9663 12.6072 25.6386 12.3264C25.311 12.0456 25.1706 11.7647 25.1238 11.5775C24.9833 11.5775 24.7961 11.5775 24.5621 11.5775C24.2813 11.5775 24.0472 11.4839 23.9068 11.4839C23.5324 11.7179 23.1579 11.8115 22.6898 11.8583C22.643 11.8583 22.5494 11.8583 22.5026 11.8583C22.643 11.9988 22.8303 12.0924 22.9707 12.186C22.9707 12.186 22.9707 12.186 23.0175 12.186L22.9239 12.2328C22.9707 12.186 22.3154 12.5604 21.3325 14.0582Z" fill="#001B71"/>
<path d="M27.4646 11.4375C27.2774 11.4375 27.1369 11.4375 26.9497 11.4375C26.9497 11.5311 26.9497 11.6247 26.9497 11.7183C26.9965 11.8588 27.0433 11.9524 27.1369 12.046C27.2774 11.9524 27.4178 11.7183 27.4646 11.4375Z" fill="#001B71"/>
<path d="M27.8396 10.3606C27.7928 10.3606 27.7928 10.3606 27.8396 10.3606C27.7928 10.3606 27.7928 10.3606 27.746 10.3606C27.6992 10.3606 27.6992 10.3606 27.6524 10.3606C27.2779 10.3606 26.9035 10.4542 26.529 10.5479C26.1546 10.6415 25.7333 10.7351 25.3589 10.7351C25.2653 10.7351 25.2184 10.7351 25.1248 10.7351C25.078 10.7351 25.0312 10.7351 24.9844 10.7351C24.9376 10.7351 24.9376 10.7351 24.8908 10.7351C24.844 10.7351 24.844 10.7351 24.7972 10.7351C24.7972 10.7351 24.7972 10.7351 24.7504 10.7351C24.7504 10.7351 24.7504 10.7351 24.7036 10.7351C23.8611 10.6415 23.2994 10.3606 23.0186 10.2202C23.0654 10.3138 23.159 10.4074 23.2994 10.5479C23.3462 10.5947 23.393 10.6415 23.4398 10.6883C23.5334 10.7819 23.6738 10.8755 23.8143 10.9691C24.0015 11.0627 24.7972 11.3904 25.8269 11.25C26.9971 11.0627 27.2311 11.1095 27.5119 11.1095H27.6056C28.0268 11.1563 28.6353 11.3904 28.8693 11.5308C28.9629 11.2968 29.1034 11.0627 29.1502 10.8287C29.1034 10.7819 29.0097 10.6883 28.8225 10.5947C28.7757 10.5479 28.7289 10.5479 28.6353 10.5011C28.5417 10.4542 28.4013 10.4074 28.214 10.4074C28.0268 10.3606 27.9332 10.3606 27.8396 10.3606Z" fill="#001B71"/>
<path d="M31.1166 14.1984C31.0698 14.1984 30.6486 14.4324 29.7593 13.8708C28.8699 13.3091 28.2147 13.0751 27.8402 12.9814C27.7466 13.0283 27.6998 13.0751 27.6062 13.1219C27.5126 13.1687 27.3721 13.2623 27.2317 13.3559C27.1849 13.4027 27.1381 13.4027 27.0913 13.4495C27.0913 13.4495 27.1381 13.4495 27.1849 13.4495C28.0274 13.5431 28.6827 14.0112 28.7295 14.1984H28.7763C28.8699 13.9176 28.7295 13.6835 28.7295 13.6835C28.7295 13.6835 29.104 13.9176 29.8529 14.3388C30.6486 14.8537 30.9762 14.3856 31.1166 14.1984Z" fill="#001B71"/>
<path d="M26.6688 11.9052C26.622 11.8584 26.5752 11.7648 26.5284 11.718C26.4816 11.6244 26.4816 11.5776 26.4816 11.5308C26.2944 11.5308 26.0603 11.5776 25.7795 11.6244C25.7327 11.6244 25.6391 11.6244 25.5923 11.6244C25.7327 11.9052 25.9667 12.186 26.4348 12.2797C26.4816 12.2797 26.4816 12.2797 26.5284 12.2797C26.5752 12.2797 26.5752 12.2797 26.622 12.2797C26.8092 12.3265 27.0433 12.3265 27.1837 12.3265C27.5113 12.3265 27.8858 12.2797 28.2602 12.186C28.3539 12.0924 28.4007 11.952 28.4943 11.8584C28.4943 11.8584 28.4475 11.8116 28.4007 11.8116C28.307 11.7648 28.073 11.6244 27.9326 11.5776C27.8858 11.718 27.7922 11.8584 27.6986 11.952C27.5581 12.0456 27.3709 12.0924 27.1837 12.0924C26.9965 12.0924 26.8092 12.0456 26.7156 11.952C26.6688 11.952 26.6688 11.9052 26.6688 11.9052Z" fill="#001B71"/>
<path d="M29.1508 11.2026C28.8699 11.9515 28.4019 12.5132 28.0742 12.794C30.1805 12.2324 30.5549 13.3089 30.5549 13.3557C30.5549 13.4025 30.5549 13.4025 30.6018 13.3557C30.6486 13.3089 31.3507 12.56 30.8358 11.8579C30.4145 11.2962 29.4784 11.2026 29.1508 11.2026ZM29.1508 11.7643C29.2444 11.6707 29.2912 11.4835 29.2912 11.4835C29.4316 11.4835 29.7124 11.5303 29.7124 11.7175C29.5252 11.6707 29.2912 11.6707 29.1508 11.7643Z" fill="#001B71"/>
<path d="M13.3288 11.7183C13.3288 11.6247 13.3288 11.5311 13.3288 11.4375C13.1416 11.4375 12.9544 11.4375 12.814 11.4375C12.8608 11.7183 13.0012 11.9524 13.1416 12.046C13.2352 11.9524 13.282 11.8588 13.3288 11.7183Z" fill="#001B71"/>
<path d="M15.7149 10.6877C15.6681 10.6877 15.6681 10.6877 15.7149 10.6877C15.6681 10.6877 15.6681 10.6877 15.7149 10.6877C15.6681 10.6877 15.6681 10.6877 15.6212 10.6877C15.5744 10.6877 15.5744 10.6877 15.5276 10.6877C15.4808 10.6877 15.4808 10.6877 15.434 10.6877C15.3872 10.6877 15.3404 10.6877 15.2936 10.6877C15.2 10.6877 15.1532 10.6877 15.0596 10.6877C14.6383 10.6877 14.2639 10.5941 13.8894 10.5005C13.4682 10.4537 13.0937 10.3601 12.7193 10.3601C12.6725 10.3601 12.6725 10.3601 12.6257 10.3601C12.6257 10.3601 12.6257 10.3601 12.5788 10.3601C12.4852 10.3601 12.3916 10.3601 12.3448 10.3601C12.1576 10.3601 12.0172 10.4069 11.9236 10.4537C11.8768 10.5005 11.7831 10.5005 11.7363 10.5473C11.5959 10.6409 11.5023 10.6877 11.4087 10.7813C11.4555 11.0154 11.5959 11.2962 11.6895 11.4834C11.9236 11.343 12.532 11.0622 12.9533 11.0622H13.0469C13.3277 11.0622 13.5618 11.0154 14.7319 11.2026C15.7617 11.343 16.5106 11.0154 16.7446 10.9218C16.885 10.8281 17.0254 10.7345 17.119 10.6409C17.1659 10.5941 17.2127 10.5473 17.2595 10.5005C17.3531 10.3601 17.4467 10.2665 17.5403 10.1729C17.119 10.3133 16.5574 10.5941 15.7149 10.6877Z" fill="#001B71"/>
<path d="M9.16162 14.1985C9.30204 14.339 9.62968 14.8538 10.3786 14.4326C11.1275 14.0113 11.5019 13.7773 11.5019 13.7773C11.5019 13.7773 11.3615 14.0113 11.4551 14.2922C11.4551 14.2922 11.4551 14.2922 11.5019 14.2922C11.5955 14.1049 12.2508 13.5901 13.0465 13.5433C13.0933 13.5433 13.0933 13.5433 13.1401 13.5433C13.0933 13.4965 13.0465 13.4965 12.9997 13.4496C12.8593 13.356 12.7189 13.2624 12.6253 13.2156C12.5317 13.1688 12.4849 13.122 12.3912 13.0752C12.0168 13.122 11.3615 13.4028 10.4722 13.9645C9.62968 14.4326 9.20843 14.1985 9.16162 14.1985Z" fill="#001B71"/>
<path d="M12.3444 11.5776C12.2508 11.6244 11.9699 11.7648 11.8763 11.8116C11.8295 11.8116 11.8295 11.8584 11.7827 11.8584C11.8763 11.9988 11.9231 12.0924 12.0167 12.186C12.3912 12.2797 12.7656 12.3265 13.0933 12.3265C13.2805 12.3265 13.4677 12.3265 13.655 12.2797C13.7018 12.2797 13.7018 12.2797 13.7486 12.2797C13.7954 12.2797 13.7954 12.2797 13.8422 12.2797C14.3102 12.186 14.5911 11.8584 14.6847 11.6244C14.6379 11.6244 14.5443 11.6244 14.4975 11.6244C14.2166 11.5776 13.9826 11.5308 13.7954 11.5308C13.7954 11.5776 13.7486 11.6712 13.7486 11.718C13.7018 11.8116 13.655 11.8584 13.6082 11.9052L13.5613 11.952C13.4209 12.0456 13.2805 12.0924 13.0933 12.0924C12.9061 12.0924 12.7188 12.0456 12.5784 11.952C12.438 11.8584 12.3912 11.718 12.3444 11.5776Z" fill="#001B71"/>
<path d="M9.39628 11.8579C8.88141 12.56 9.5835 13.3089 9.63031 13.3557C9.67711 13.4025 9.67711 13.3557 9.67711 13.3557C9.67711 13.3089 10.0516 12.2324 12.1578 12.794C11.8302 12.5132 11.3621 11.9515 11.0813 11.2026C10.8005 11.2026 9.81753 11.2962 9.39628 11.8579ZM11.1281 11.7643C10.9877 11.6707 10.7537 11.6707 10.5664 11.7175C10.5664 11.5303 10.8473 11.4835 10.9877 11.4835C10.9877 11.4835 11.0345 11.6707 11.1281 11.7643Z" fill="#001B71"/>
<path d="M17.7272 11.8583C17.6804 11.8583 17.5868 11.8583 17.54 11.8583C17.0719 11.8583 16.6975 11.7179 16.323 11.4839C16.1826 11.5307 15.9018 11.5775 15.6678 11.5775C15.4337 11.5775 15.1997 11.5775 15.1061 11.5775C15.0593 11.7647 14.9189 12.0924 14.5912 12.3264C14.2636 12.6072 13.8423 12.654 13.4679 12.654C13.2806 12.654 13.1402 12.654 13.0466 12.654H12.9998C12.9062 12.654 12.719 12.6072 12.5317 12.6072C12.6722 12.7008 12.7658 12.7477 12.8594 12.8413C12.953 12.8881 13.0934 12.9817 13.2338 13.0753C13.9827 13.5902 14.5444 14.3391 14.638 14.8539C14.6848 15.0412 14.6848 15.2284 14.6848 15.2284C14.7784 15.1816 14.872 14.9944 14.9189 14.8071C15.0125 15.0412 15.3401 15.7901 15.1997 16.539C15.0593 17.4283 14.8252 17.8495 14.5912 18.0836C14.4976 18.1772 14.404 18.2708 14.3572 18.3176C14.8252 18.0836 15.6209 17.5687 16.0422 16.6326C16.2762 16.1177 16.3698 15.0412 16.3698 15.0412V14.7135L16.6507 14.8539C16.6507 14.8539 17.0719 15.088 17.4932 15.6964C17.6336 15.9305 17.774 16.1645 17.8676 16.3985C17.9144 16.2113 17.9613 16.0241 18.0081 15.7901C18.0549 15.2284 17.9144 14.6667 17.9144 14.6667L17.8208 14.2923L18.1953 14.4327C18.1953 14.4327 18.5697 14.5731 18.991 14.9007C19.2718 15.088 19.4591 15.2752 19.5995 15.4624C19.4122 14.9944 19.225 14.5263 18.8974 14.105C17.9145 12.6072 17.306 12.2796 17.306 12.2796L17.2124 12.2328C17.2124 12.2328 17.2124 12.2328 17.2592 12.2328C17.3996 12.0924 17.5868 11.9519 17.7272 11.8583Z" fill="#001B71"/>
</svg>
