<svg viewBox="0 0 160 42" fill="none" xmlns="http://www.w3.org/2000/svg"><path d="M61.8 17.33h-1.75V8.77h1.76l2.52 3.51 2.41-3.5h1.76v8.55h-1.76V11.4l-1.97 2.86h-.99l-1.97-2.75v5.82zM72 17.33h-1.53V8.77h1.75v5.6l4.17-5.6h1.54v8.56h-1.76v-5.6L72 17.33zM81.77 17.33H80V8.77h1.76v3.18h3.83V8.77h1.76v8.56H85.6V13.6h-3.83v3.73zM89 13.05c0-1.32.44-2.3 1.32-3.18a4.22 4.22 0 013.18-1.32c1.31 0 2.3.44 3.18 1.32A4.4 4.4 0 0198 13.05c0 1.2-.44 2.3-1.32 3.18a4.22 4.22 0 01-3.18 1.32c-1.32 0-2.3-.44-3.18-1.32A4.4 4.4 0 0189 13.05zm2.53 1.97c.54.55 1.1.77 1.86.77.77 0 1.42-.22 1.86-.77.55-.55.77-1.2.77-1.97s-.22-1.54-.77-1.97a2.4 2.4 0 00-1.86-.77c-.77 0-1.43.22-1.86.77-.55.54-.77 1.2-.77 1.97s.22 1.42.77 1.97zM103.15 17.33h-3.73V8.77h6.25v1.54h-4.5v1.42h1.98c.99 0 1.75.22 2.41.77.55.55.88 1.2.88 2.09a2.8 2.8 0 01-.88 2.08c-.55.44-1.31.66-2.41.66zm-1.87-4.17v2.63h1.76c.55 0 .88-.1 1.2-.33.34-.22.45-.55.45-.98 0-.44-.11-.77-.44-1a1.97 1.97 0 00-1.21-.32h-1.76zM109.73 17.33h-1.76V8.77h3.73c.88 0 1.65.22 2.2.77.54.44.76 1.1.76 1.86 0 .77-.22 1.43-.77 1.87-.54.44-1.31.77-2.19.77h-1.97v3.29zm0-7.02v2.08h1.86c.44 0 .77-.1.99-.33a1 1 0 00.33-.76c0-.33-.11-.66-.33-.77-.22-.11-.55-.33-.99-.33l-1.86.1zM117.84 17.33h-1.75V8.77h1.75v3.18h3.84V8.77h1.76v8.56h-1.76V13.6h-3.84v3.73zM126.62 17.33h-1.87l3.73-8.67h1.65l3.72 8.67H132l-.88-1.98h-3.62l-.87 1.98zm2.63-6.47l-1.32 2.96h2.52l-1.2-2.96zM136.38 17.55c-.55 0-1-.11-1.32-.22v-1.54c.33.11.66.22.99.22.33 0 .66-.1.87-.22.22-.1.44-.44.66-.99l-3.29-6.03h1.98l2.19 4.28 1.86-4.28h1.87l-3.18 6.7c-.55 1.3-1.54 2.08-2.63 2.08zM145.26 17.33h-1.76V8.77h1.76v3.4l3.18-3.4h2.2L147 12.72l4.28 4.6h-2.3l-3.73-3.94v3.95zM153.81 17.33h-1.42V8.77h1.75v5.6l4.17-5.6h1.53v8.56h-1.75v-5.6l-4.28 5.6zM61.8 31.14h-1.75V22.6h3.73c.88 0 1.65.22 2.2.77.54.44.76 1.1.76 1.86 0 .77-.22 1.43-.77 1.87-.54.43-1.31.76-2.19.76h-1.97v3.3zm0-7.01v2.08h1.87c.44 0 .77-.11.99-.33a1 1 0 00.33-.77c0-.33-.11-.66-.33-.77a2.19 2.19 0 00-.99-.21h-1.86zM67.95 26.87c0-1.32.44-2.3 1.31-3.18a4.22 4.22 0 013.18-1.32c1.32 0 2.3.44 3.18 1.32a4.4 4.4 0 011.32 3.18c0 1.2-.44 2.3-1.32 3.18a4.22 4.22 0 01-3.18 1.31c-1.31 0-2.3-.44-3.18-1.31a4.4 4.4 0 01-1.31-3.18zm2.52 1.97c.55.55 1.1.77 1.86.77.77 0 1.43-.22 1.87-.77.55-.55.77-1.2.77-1.97s-.22-1.54-.77-1.98a2.4 2.4 0 00-1.87-.76c-.76 0-1.42.21-1.86.76-.55.55-.77 1.21-.77 1.98 0 .76.33 1.42.77 1.97zM82.86 31.36a4.85 4.85 0 01-3.29-1.2 4.4 4.4 0 01-1.31-3.18c0-1.32.43-2.42 1.31-3.18a4.38 4.38 0 013.3-1.21c.87 0 1.64.22 2.3.55v1.75a4.05 4.05 0 00-2.3-.66 2.9 2.9 0 00-2.1.77c-.54.55-.76 1.2-.76 1.98 0 .76.33 1.53.88 1.97.55.55 1.2.77 2.08.77.99 0 1.76-.22 2.41-.77v1.75a4.8 4.8 0 01-2.52.66zM91.09 31.36a4.85 4.85 0 01-3.3-1.2 4.4 4.4 0 01-1.3-3.18c0-1.32.43-2.42 1.3-3.18a4.38 4.38 0 013.3-1.21c.87 0 1.64.22 2.3.55v1.75a4.05 4.05 0 00-2.3-.66A2.9 2.9 0 0089 25c-.55.55-.77 1.2-.77 1.98 0 .76.33 1.53.88 1.97.55.55 1.2.77 2.09.77.98 0 1.75-.22 2.4-.77v1.75a4.8 4.8 0 01-2.51.66zM96.68 31.14h-1.54V22.6h1.76v5.6l4.16-5.6h1.54v8.55h-1.75v-5.59l-4.17 5.6zM106.11 31.14h-1.53V22.6h1.75v5.6l4.17-5.6h1.53v8.55h-1.75v-5.59l-4.17 5.6z" fill="#414042"/><path d="M29.68 20.4c0-.11.1-.22.22-.22h.22a3.5 3.5 0 002.74-2.96c0-.77-.22-1.54-.66-1.98-.11-.1-.11-.33.1-.33.12 0 .12-.1.12-.1 4.27-2.86 7.56-8.45 7.9-9h.1c1.21.99 1.43 2.85.33 4.5-.77 1.1-2.52 2.41-4.5 3.5v.67a11.5 11.5 0 006.48-4.17h.1c.88 1.42.44 3.4-.98 4.27-1.2.77-3.3 1.21-5.7 1.54 0 .22-.11.44-.11.66 3.84.55 6.69-.99 7.23-1.2h.11c.33 1.75-.54 3.28-2.3 3.61-1.75.33-5.48-.66-5.48-.66-.11.22-.11.44-.22.55 2.52 1.76 6.03 1.54 6.58 1.43 0 0 .1 0 .1.1.12 2.2-1.64 2.75-3.17 2.53-1.32-.22-3.18-1.32-4.39-2.52-.1.22-.33.33-.44.43 1.2 2.53 4.17 3.62 5.16 3.73 0 0 .1.11 0 .11-.66 1.43-2.09 1.98-3.73.88-.99-.55-2.08-2.08-2.74-3.73-.22.11-.33.22-.55.33.33 3.07 2.74 5.15 3.18 5.48v.22c-.77 1.2-2.63 1.2-3.62-.44-.55-.98-.99-2.85-1.1-4.82-.22 0-.43 0-.65.1a.24.24 0 01-.22-.21v-2.3h-.11zM13.78 20.4a.24.24 0 00-.22-.22h-.22c-1.32-.33-2.63-1.54-2.74-2.96 0-.77.21-1.54.65-1.98.11-.1.11-.33-.1-.33-.12 0-.12-.1-.12-.1-4.27-2.86-7.56-8.45-7.9-9h-.1c-1.2.88-1.43 2.85-.33 4.5.77 1.1 2.52 2.41 4.5 3.5v.67A11.5 11.5 0 01.73 10.3H.62a3.16 3.16 0 00.98 4.27c1.21.77 3.3 1.21 5.7 1.54 0 .22.12.44.12.66-3.84.55-6.7-.99-7.24-1.2H.07c-.33 1.75.55 3.28 2.3 3.61 1.76.33 5.48-.66 5.48-.66.11.22.11.44.22.55-2.52 1.76-6.03 1.54-6.58 1.43 0 0-.1 0-.1.1-.12 2.2 1.64 2.75 3.17 2.53 1.32-.22 3.18-1.32 4.4-2.52.1.22.32.33.43.43-1.2 2.53-4.17 3.62-5.15 3.73 0 0-.11.11 0 .11.65 1.43 2.08 1.98 3.72.88 1-.55 2.09-2.08 2.75-3.73.21.11.32.22.54.33-.33 3.07-2.74 5.15-3.18 5.48v.22c.77 1.2 2.64 1.2 3.62-.44.55-.98.99-2.85 1.1-4.82.22 0 .44 0 .66.1.1 0 .22-.1.22-.21l.1-2.3zM13.56 7.02h2.85c2.41 0 3.62-1.54 3.95-2.85h2.52c.33 1.31 1.42 2.85 3.95 2.85h2.96s.54-.66.65-.99c.44-1.2-.1-1.86-.98-1.86l-1.1.98-1.1-.98c-.87 0-1.42.55-.98 1.86.1.11.22.44.33.55-1-.11-2.42-.88-2.64-2.41 0 0 .77-1.2 1-1.76C25.5.77 24.62 0 23.31 0l-1.65 1.97L19.92 0c-1.32 0-2.2.77-1.54 2.52.22.55.99 1.76.99 1.76-.33 1.53-1.65 2.19-2.63 2.4.1-.21.33-.43.33-.54.43-1.2-.11-1.86-1-1.86l-1.09.98-1.1-.98c-.87 0-1.42.55-.98 1.86.1.22.66.88.66.88zM18.27 15.24h2.74c.11 0 .22-.1.22-.22a9.37 9.37 0 00-2.85-4.93c.88-.44 1.87-1.65 1.87-2.3-2.96 1.1-8.67-.55-9.22 1.86-.1.55.11 1.32.44 1.54 0-.22.33-.77 1.1-.88 2.63-.44 5.04 2.2 5.48 4.71.11.11.11.22.22.22zM32.3 9.65c-.54-2.52-6.35-.88-9.2-1.86-.11.76.87 1.86 1.86 2.3-1.1.99-2.2 2.74-2.85 4.93 0 .11.11.22.22.22h2.74c.11 0 .22-.1.22-.1.44-2.53 2.85-5.05 5.48-4.72.77.1 1.1.66 1.1.87.22-.32.44-1.1.44-1.64zM25.07 18.64c-1.54-.44-3.4-.44-3.4-.44s-1.86 0-3.4.44c-1.64.55-3.29-.33-3.84-.66-.1-.1-.22 0-.22.11.11.77.77 2.53 3.4 3.18 2.53.55 3.62 3.4 3.95 4.61 0 .1.22.1.33 0 .33-1.2 1.54-3.95 3.95-4.6 2.63-.66 3.29-2.42 3.4-3.19 0-.1-.11-.22-.22-.1-.66.43-2.2 1.2-3.95.65z" fill="#F32735"/><path d="M24.2 23.69c.1.1.32.22.54.22.55 0 .99-.44.99-1 0-.1 0-.21-.11-.32-.55.22-1.1.66-1.43 1.1z" fill="#F32735"/><path d="M26.72 22.15c.1.22.22.44.22.77 0 1.2-1 2.2-2.2 2.2-.44 0-.88-.12-1.2-.45-.22.44-.44.88-.55 1.2.55.34 1.1.56 1.75.56 1.87 0 3.4-1.54 3.4-3.4 0-.44-.1-.88-.33-1.32-.22.22-.66.33-1.1.44zM19.8 24.78c-.32.22-.76.33-1.2.33a2.2 2.2 0 01-2.2-2.2c0-.21.12-.54.23-.76a4.05 4.05 0 01-1.21-.55c-.22.44-.33.88-.33 1.32 0 1.86 1.54 3.4 3.4 3.4.66 0 1.2-.22 1.75-.55 0-.22-.21-.55-.43-.99z" fill="#F32735"/><path d="M17.72 22.59c0 .11-.1.22-.1.33 0 .55.43.99.98.99.22 0 .44-.11.55-.22a2.94 2.94 0 00-1.43-1.1z" fill="#F32735"/><path fill-rule="evenodd" clip-rule="evenodd" d="M38.23 3.18c.11 0 .11 0 0 0-1.2-.66-.88-1.43-1.54-2.08-.76-.66-1.86-.66-2.08-.77-1.31-.11-1.64.1-1.75.22-.22.22-.66.66-.88 1.53-.22.88-.11 1.21.1 1.32h.12c.1.1.66-.11.66-.11.33.1.87.33.76 1.53-.1 1.54-2.3 1.87-2.96 1.98l-.1.22c.98 0 3.83-.33 4.16-1.76.44-1.42-.22-1.97-.22-1.97-.22-.22-.99-.22-1.42-.11 0 0-.33-.33 0-1.1.43-1.31.65-1.31 1.64-1.2.11 0 .22 0 .33.1.66.45.55 1.32.77 1.98.44 1.97 1.53 1.97 2.3 2.2.11 0 .11-.12.11-.12-.55-.43-1.2-1.1-1.1-1.75 0 0 .11-.11.11 0 0-.11.44.1.99-.11zM5 3.18c-.1 0-.1 0 0 0 1.1-.66.77-1.32 1.54-1.97C7.3.55 8.4.55 8.62.44c1.32-.11 1.65.1 1.76.22.22.22.65.66.87 1.53.22.88.11 1.21-.1 1.32h-.12c-.1 0-.65-.22-.65-.22-.33.11-.88.33-.77 1.54.22 1.64 2.41 1.97 2.96 1.97l.1.22c-.98 0-3.83-.33-4.16-1.76-.44-1.42.22-1.97.22-1.97.22-.22.99-.22 1.43-.1 0 0 .33-.34 0-1.1C9.83.65 9.6.76 8.62.76c-.1 0-.22 0-.33.1-.65.45-.55 1.32-.65 1.87-.44 1.98-1.54 1.98-2.3 2.2-.12 0-.12-.11-.12-.11.55-.44 1.2-1.1 1.1-1.76 0 0-.11-.1-.11 0-.11.11-.66.33-1.2.11z" fill="#F32735"/><path d="M34.17 32.57l-1.31 1.1-1.32-1c-.55.23-.88.78-.99 1.32-.76.11-2.85-.32-2.63-.65 2.3-3.18.55-5.16-1.53-5.05-.33.44-1.1 1.1-1.87 1.54-1.75.87-2.52 1.53-2.85 1.75-.22-.22-1.1-.88-2.85-1.75a4.52 4.52 0 01-1.86-1.54c-2.09 0-3.73 1.87-1.43 5.05.22.33-1.97.76-2.96.65-.22-.32-.66-.43-1.1-.43-.22 0-.33 0-.55.1l-4.05-3.83v-.11c.22-.44-.11-.88-.33-.88.22-.33.22-1.64-1.2-1.97 0 .22.1.87.1.87s-1.1-.54-1.64-.1c-.44.54.22 1.64.22 1.64h-.88c.44 1.42 1.75 1.32 2.08.99 0 .22.44.54.88.33l.22-.11 3.95 3.72c-.22.22-.22.55-.22 1 .1.54.55.98 1.1 1.09.43.1.76 0 1.1-.22l.98.99c.1.1.22.1.33.1.22 0 .44-.21.44-.43 0-.11-.11-.22-.11-.22l-1.1-.99a7.82 7.82 0 013.73-.99c.22 0 .33-.22.22-.44-.55-1.42.65-2.52 1.97-1.64.33.22.55.44.88 1.1-1.2.54-3.51 2.85-3.62 3.4a3.35 3.35 0 001.64 1.97c-.33-.66-.22-2.08 1.76-3.07-1.2 1.2-1.65 2.3-1.32 3.29a2.1 2.1 0 001.98 1.31c-.55-1.53-.33-2.96.76-4.05-.43 1.2-1.1 4.93.77 5.59 1.76-.66 1.2-4.39.77-5.6.99 1.1 1.2 2.53.77 4.06.65 0 1.64-.43 1.97-1.31.33-.99-.1-2.08-1.32-3.3 1.98 1 2.09 2.42 1.76 3.08 0 0 1.32-.44 1.64-1.97-.1-.55-2.3-2.75-3.5-3.3.32-.65.54-.87.87-1.1 1.32-.87 2.63.23 1.98 1.65-.11.22 0 .44.22.44 1.53 0 3.29.55 4.05 1.32.44.66 1.32 1.1 2.3 1.1a2.33 2.33 0 002.09-1.98 2.41 2.41 0 00-.99-2.52z" fill="#F32735"/><path d="M33.73 31.8l-.87-.99-.88 1 .88.76.87-.77z" fill="#F32735"/></svg>
