<svg width="189" height="49" viewBox="0 0 189 49" fill="none" xmlns="http://www.w3.org/2000/svg"><path d="M58.9 16h-1v-6h1l2.01 2.73L62.93 10h.99v6h-.99v-4.58l-1.75 2.3h-.6l-1.74-2.3.05 4.59zm7.47 0h-.87v-6h.98v4.42L69.92 10h.88v6h-.99v-4.42l-3.44 4.43zm6.94 0h-.98v-6h.98v2.4h3.28V10h.98v6h-.98v-2.78H73.3v2.79zm6.67 0h-.82v-6h.98v4.42L83.58 10h.88v6h-.99v-4.42l-3.5 4.43zm9.01.12c-.93 0-1.75-.28-2.35-.88a2.9 2.9 0 01-.93-2.24 3 3 0 01.93-2.24A3.3 3.3 0 0189 9.9c.66 0 1.2.16 1.7.38v.93c-.5-.33-1.04-.5-1.7-.5s-1.2.23-1.64.66a2.1 2.1 0 00-.65 1.59c0 .65.21 1.2.65 1.58.44.44.98.66 1.7.66.7 0 1.3-.17 1.8-.55v.93c-.6.38-1.2.55-1.86.55zm2.62-5.25V10h5.14v.87h-2.08v5.19h-.98v-5.19H91.6zm10.76 5.14H97.8V10h4.47v.87h-3.5v1.53h2.85v.87h-2.84v1.86h3.6v.88zm2.02 0h-.92V10h2.73c.65 0 1.2.16 1.53.49.38.33.6.76.6 1.25 0 .5-.22.93-.6 1.32-.39.32-.88.49-1.53.49h-1.75V16h-.06zm0-5.14v1.8h1.64c.38 0 .66-.1.88-.22a.78.78 0 00.32-.65c0-.27-.1-.5-.32-.66-.22-.16-.5-.21-.88-.21l-1.64-.06zm8.03 5.25c-.92 0-1.74-.28-2.34-.88a2.9 2.9 0 01-.93-2.24 3 3 0 01.92-2.24 3.3 3.3 0 012.35-.87c.66 0 1.2.16 1.7.38v.93c-.5-.33-1.04-.5-1.7-.5-.65 0-1.2.23-1.63.66a2.1 2.1 0 00-.66 1.59c0 .65.22 1.2.66 1.58.43.44.98.66 1.69.66s1.31-.17 1.8-.55v.93a3.1 3.1 0 01-1.86.55zm2.63-5.25V10h5.13v.87h-2.07v5.19h-.99v-5.19h-2.07zm9.23 5.14h-3.06V10h2.84c.6 0 .99.16 1.37.38.32.27.49.65.49 1.1 0 .26-.11.54-.22.76-.16.21-.33.38-.6.43.38.06.7.28.93.55.22.27.38.66.38 1.1 0 .48-.22.92-.6 1.25-.33.27-.82.44-1.53.44zm-2.08-5.14v1.53h1.7c.32 0 .6-.05.76-.22a.78.78 0 00.28-.6c0-.27-.11-.44-.28-.6-.16-.16-.43-.22-.76-.22h-1.7v.11zm0 2.35v1.91h1.92c.38 0 .7-.1.87-.27.22-.17.33-.38.33-.71 0-.27-.11-.5-.33-.71-.22-.17-.5-.22-.87-.22h-1.92zm10.65 2.02c-.6.6-1.36.88-2.29.88s-1.7-.28-2.3-.88c-.6-.6-.87-1.36-.87-2.24 0-.87.28-1.64.88-2.18.6-.6 1.36-.93 2.3-.93s1.68.33 2.28.93c.6.6.93 1.36.93 2.18 0 .82-.32 1.64-.93 2.24zm-3.82-.65c.44.43.93.65 1.53.65s1.15-.22 1.53-.65c.44-.44.66-.99.66-1.59 0-.65-.22-1.2-.66-1.58a2.07 2.07 0 00-1.53-.66c-.6 0-1.15.22-1.53.66a2.1 2.1 0 00-.65 1.58c0 .66.21 1.15.65 1.59zm9.4 1.42h-.99V10h.99v2.4h3.27V10h.99v6h-.99v-2.78h-3.27v2.79zm6.28 0h-1.04l2.73-6.07h.93l2.73 6.07h-1.04l-.7-1.48h-2.96l-.65 1.48zm2.18-4.87l-1.14 2.52h2.3l-1.16-2.52zm5.08 4.98c-.38 0-.7-.06-.87-.17v-.87c.22.1.44.16.71.16.27 0 .44-.05.66-.22.16-.1.32-.38.54-.82l-2.46-4.26h1.15l1.86 3.28 1.53-3.28h1.04l-2.3 4.76c-.49.98-1.1 1.42-1.86 1.42zm6.07-.11h-.98V10h.98v2.45L160.6 10h1.25l-2.9 2.73 3.4 3.28h-1.32l-2.95-2.9v2.9h-.05zm6.06 0h-.82V10h.99v4.42L167.7 10h.87v6h-.98v-4.42l-3.5 4.43zM58.78 26.44h-.82v-6h.99v4.42l3.44-4.43h.87v6.01h-.98v-4.42l-3.5 4.42zm11.42 0h-3.06v-6h2.84c.6 0 .98.15 1.37.37.32.28.49.66.49 1.1 0 .27-.11.54-.22.76a.85.85 0 01-.6.44c.38.05.7.27.93.54.22.28.38.66.38 1.1 0 .49-.22.93-.6 1.25-.38.28-.88.44-1.53.44zm-2.08-5.19v1.53h1.7c.32 0 .6-.05.76-.22.17-.16.27-.33.27-.6s-.1-.44-.27-.6c-.16-.16-.44-.22-.76-.22h-1.7v.11zm0 2.4v1.92h1.91c.39 0 .72-.11.88-.28.22-.16.33-.38.33-.7 0-.28-.11-.5-.33-.72-.22-.16-.5-.22-.88-.22h-1.9zm7.81 2.79h-2.4v-6h.98v2.07h1.42c.71 0 1.31.16 1.75.54.44.39.66.82.66 1.42s-.22 1.04-.66 1.42c-.5.39-1.04.55-1.75.55zm-1.42-3.06v2.19h1.37c.44 0 .76-.11 1.04-.28.27-.16.38-.43.38-.82s-.11-.65-.38-.82c-.28-.16-.6-.27-1.04-.27H74.5zm5.57 3.06h-.98v-6h.98v6zm4.54.1c-.93 0-1.75-.26-2.35-.87a2.9 2.9 0 01-.93-2.24 3 3 0 01.93-2.24 3.3 3.3 0 012.35-.87c.65 0 1.2.16 1.7.38v.93c-.5-.33-1.05-.49-1.7-.49s-1.2.22-1.64.66a2.1 2.1 0 00-.65 1.58c0 .66.21 1.2.65 1.58.44.44.98.66 1.7.66.7 0 1.3-.16 1.8-.55V26a3.1 3.1 0 01-1.86.55zm10.7-.1h-7.64v-6h.98v5.18h2.35v-5.19H92v5.2h2.34v-5.2h.99v6.01zm6.07 0H96.8v-6h4.48v.87h-3.5v1.47h2.84v.87h-2.84v1.92h3.6v.87zm2.08 0h-.99v-6h4.43v.87h-3.44v5.13zm9.5-.77c-.6.6-1.36.88-2.3.88s-1.69-.27-2.29-.88-.87-1.36-.87-2.24c0-.87.27-1.63.87-2.18.6-.6 1.37-.93 2.3-.93s1.7.33 2.3.93c.6.6.92 1.37.92 2.18 0 .82-.33 1.64-.93 2.24zm-3.88-.65c.44.44.93.65 1.53.65s1.15-.21 1.53-.65c.44-.44.66-.98.66-1.59 0-.65-.22-1.2-.66-1.58a2.07 2.07 0 00-1.53-.66c-.6 0-1.14.22-1.53.66a2.1 2.1 0 00-.65 1.58c.05.66.22 1.15.65 1.59zm13.72.65c-.6.6-1.37.88-2.3.88s-1.7-.27-2.3-.88-.87-1.36-.87-2.24c0-.87.28-1.63.88-2.18.6-.6 1.36-.93 2.3-.93s1.69.33 2.29.93c.6.6.92 1.37.92 2.18 0 .82-.32 1.64-.92 2.24zm-3.88-.65c.43.44.93.65 1.53.65s1.14-.21 1.53-.65c.43-.44.65-.98.65-1.59 0-.65-.22-1.2-.65-1.58a2.07 2.07 0 00-1.53-.66c-.6 0-1.15.22-1.53.66a2.1 2.1 0 00-.66 1.58c.06.66.28 1.15.66 1.59zm8.68 1.42H125v-6h4.42v.87h-3.44v1.25h1.7c.7 0 1.25.17 1.69.55.38.33.66.82.66 1.42s-.22 1.04-.66 1.42c-.44.33-1.04.49-1.75.49zm-1.7-3v2.13h1.6c.43 0 .76-.11 1.03-.28.22-.22.38-.43.38-.76s-.1-.6-.38-.82c-.27-.22-.6-.27-1.04-.27h-1.58zm6.12 3h-.98v-6h2.68c.65 0 1.2.15 1.53.48.38.33.6.77.6 1.26 0 .5-.22.93-.6 1.31-.39.33-.88.5-1.53.5h-1.75v2.45h.05zm0-5.19v1.8h1.64c.39 0 .66-.1.88-.22.21-.1.32-.38.32-.65s-.1-.5-.32-.66c-.22-.16-.5-.21-.88-.21l-1.64-.06zm4.76 5.2h-1.04l2.73-6.07h.93l2.73 6.06h-.98l-.71-1.47h-2.95l-.71 1.47zm2.18-4.93l-1.14 2.52h2.29l-1.15-2.52zm6.18 5.03c-.88 0-1.59-.16-2.19-.5v-.92c.27.16.6.33.98.38.39.11.71.17 1.1.17.49 0 .93-.11 1.25-.28.33-.22.44-.44.44-.76 0-.28-.16-.5-.44-.71a2.22 2.22 0 00-1.14-.28h-.71v-.87h.87c.38 0 .71-.1.87-.22.22-.16.33-.33.33-.6 0-.27-.1-.44-.38-.6-.22-.16-.6-.22-.98-.22-.66 0-1.31.17-1.92.44v-.88a4 4 0 011.97-.43c.71 0 1.26.16 1.64.43.44.28.66.71.66 1.2 0 .33-.11.6-.33.83-.22.21-.44.38-.66.43.33.11.6.28.88.55.27.27.38.6.38.98 0 .55-.22.99-.71 1.37-.55.33-1.15.49-1.91.49zm9-.88c-.6.6-1.36.88-2.29.88-.92 0-1.69-.27-2.29-.88s-.87-1.36-.87-2.24c0-.87.27-1.63.87-2.18.6-.6 1.37-.93 2.3-.93.92 0 1.69.33 2.29.93.6.6.93 1.37.93 2.18 0 .82-.33 1.64-.93 2.24zm-3.87-.65c.44.44.93.65 1.53.65s1.15-.21 1.53-.65c.44-.44.66-.98.66-1.59 0-.65-.22-1.2-.66-1.58-.44-.38-.93-.66-1.53-.66s-1.15.22-1.53.66a2.1 2.1 0 00-.66 1.58c.06.66.28 1.15.66 1.59zm9.12 1.42h-3.06v-6h2.84c.6 0 .99.15 1.37.37.33.28.5.66.5 1.1 0 .27-.12.54-.23.76-.16.22-.32.38-.6.44.39.05.71.27.93.54.22.28.38.66.38 1.1 0 .49-.21.93-.6 1.25-.38.28-.92.44-1.53.44zm-2.13-5.19v1.53h1.7c.32 0 .6-.05.76-.22.16-.16.27-.33.27-.6s-.1-.44-.27-.6c-.16-.16-.44-.22-.76-.22h-1.7v.11zm0 2.4v1.92h1.91c.39 0 .71-.11.88-.28.22-.16.33-.38.33-.7 0-.28-.11-.5-.33-.72-.22-.16-.5-.22-.88-.22h-1.9zm5.85 2.8h-1.04l2.73-6.07h.93l2.73 6.06h-1.04l-.7-1.47h-2.96l-.65 1.47zm2.18-4.93l-1.15 2.52h2.3l-1.15-2.52zm5.2 4.92h-.99v-6h.98v2.34h3.28v-2.4h.98v6h-.98V23.6h-3.28v2.84zm6.6 0h-.82v-6h.99v4.42l3.44-4.43h.87v6.01h-.98v-4.42l-3.5 4.42zm6.67 0h-1.2l2.02-2.62c-.44-.11-.77-.28-1.04-.6a1.44 1.44 0 01-.39-1.04c0-.5.17-.93.55-1.26.38-.33.88-.44 1.53-.44h2.84v6.01h-.98v-2.62h-1.48l-1.85 2.57zm1.53-3.39h1.85v-1.8h-1.85c-.33 0-.66.1-.82.22-.22.16-.28.38-.28.65 0 .28.11.5.28.66.22.16.49.27.82.27zM58.89 36.87h-.98v-6h2.73c.65 0 1.2.16 1.53.49.38.32.6.76.6 1.25 0 .5-.22.93-.6 1.31-.38.33-.88.5-1.53.5h-1.75v2.45zm0-5.19v1.8h1.64c.38 0 .65-.1.87-.21a.78.78 0 00.33-.66c0-.27-.1-.49-.33-.65-.22-.17-.49-.22-.87-.22l-1.64-.06zm10.22 4.37c-.6.6-1.37.88-2.3.88-.93 0-1.69-.28-2.3-.88-.6-.6-.87-1.36-.87-2.24 0-.87.28-1.63.88-2.18.6-.6 1.36-.93 2.3-.93.92 0 1.69.33 2.29.93a3.1 3.1 0 010 4.42zm-3.83-.65c.44.44.93.65 1.53.65s1.15-.21 1.53-.65c.44-.44.66-.99.66-1.59 0-.6-.22-1.2-.66-1.58a2.07 2.07 0 00-1.53-.66c-.6 0-1.14.22-1.53.66a2.1 2.1 0 00-.65 1.58c0 .66.22 1.2.65 1.59zm9.12 1.58c-.93 0-1.74-.27-2.35-.87a2.9 2.9 0 01-.92-2.24 3 3 0 01.92-2.24 3.3 3.3 0 012.35-.87c.66 0 1.2.16 1.7.38v.93c-.5-.33-1.04-.5-1.7-.5s-1.2.22-1.64.66a2.1 2.1 0 00-.65 1.58c0 .66.22 1.2.65 1.59.44.44.99.65 1.7.65.7 0 1.3-.16 1.8-.54v.93a3.1 3.1 0 01-1.86.54zm5.96 0c-.93 0-1.75-.27-2.35-.87a2.9 2.9 0 01-.93-2.24 3 3 0 01.93-2.24 3.3 3.3 0 012.35-.87c.65 0 1.2.16 1.7.38v.93c-.5-.33-1.05-.5-1.7-.5s-1.2.22-1.64.66a2.1 2.1 0 00-.66 1.58c0 .66.22 1.2.66 1.59.44.44.98.65 1.7.65.7 0 1.3-.16 1.8-.54v.93c-.6.38-1.2.54-1.86.54zm3.82-.1h-.82v-6.02h.99v4.43l3.44-4.43h.87v6.01h-.98v-4.42l-3.5 4.42zm6.83 0h-.82v-6.02h.98v4.43l3.45-4.43h.87v6.01h-.98v-4.42L91 36.87zm1.8-6.45c-.43 0-.87-.17-1.14-.39a1.4 1.4 0 01-.44-1.03h.82c0 .21.05.38.22.49a.7.7 0 00.54.22c.22 0 .44-.06.55-.22a.67.67 0 00.22-.5h.82c0 .44-.17.77-.44 1.04-.27.28-.66.39-1.15.39zm7.21 6.55c-.93 0-1.75-.27-2.35-.87a2.9 2.9 0 01-.92-2.24 3 3 0 01.92-2.24 3.3 3.3 0 012.35-.87c.66 0 1.2.16 1.7.38v.93c-.5-.33-1.04-.5-1.7-.5-.65 0-1.2.22-1.64.66a2.1 2.1 0 00-.65 1.58c0 .66.22 1.2.65 1.59.44.44.99.65 1.7.65.7 0 1.3-.16 1.8-.54v.93a3.1 3.1 0 01-1.86.54zm4.05-.1h-.99v-6.02h.99v2.46l2.56-2.46h1.26l-2.9 2.74 3.4 3.27h-1.37l-2.95-2.9v2.9zm9.83-.83c-.6.6-1.37.88-2.3.88-.92 0-1.69-.28-2.29-.88-.6-.6-.87-1.36-.87-2.24 0-.87.27-1.63.87-2.18.6-.6 1.37-.93 2.3-.93.92 0 1.69.33 2.29.93.6.6.93 1.36.93 2.18a3.33 3.33 0 01-.93 2.24zm-3.88-.65c.44.44.93.65 1.53.65s1.15-.21 1.53-.65c.44-.44.66-.99.66-1.59 0-.6-.22-1.2-.66-1.58-.44-.44-.93-.66-1.53-.66s-1.15.22-1.53.66a2.1 2.1 0 00-.65 1.58c.05.66.21 1.2.65 1.59zm6.88 1.47h-.87v-6h.98v4.42l3.44-4.43h.88v6.01h-.98v-4.42l-3.45 4.42zm1.75-6.44c-.44 0-.87-.17-1.15-.39a1.4 1.4 0 01-.43-1.03h.82c0 .21.05.38.21.49a.7.7 0 00.55.22c.22 0 .44-.06.55-.22a.67.67 0 00.22-.5h.82c0 .44-.17.77-.44 1.04-.33.28-.66.39-1.15.39zm10.38 6.6h-.98v-.65c-.98-.05-1.75-.27-2.3-.76-.49-.5-.76-1.1-.76-1.8 0-.33.05-.66.22-.93.1-.33.33-.6.54-.82.22-.28.6-.44.99-.6.38-.17.87-.22 1.36-.28v-.6h.99v.6c.49 0 .93.11 1.36.22.39.17.71.33.99.6s.43.5.54.82c.11.33.22.66.22.93s-.05.66-.22.93c-.16.27-.32.6-.54.82-.28.27-.6.44-.99.6s-.87.22-1.36.22l-.06.7zm-.98-1.47v-3.55c-.66 0-1.2.17-1.53.5-.33.32-.5.76-.5 1.25 0 .5.17.93.5 1.26.33.32.87.49 1.53.54zm.98-3.55v3.55c.71 0 1.2-.16 1.53-.49.33-.33.5-.76.5-1.26 0-.49-.17-.92-.5-1.25-.33-.38-.87-.55-1.53-.55zm8.8 4.86h-4.6v-6h4.49v.87h-3.5v1.53h2.84v.87h-2.84v1.91h3.6v.82zm1.74 1.26h-.92V36h.6c.32-.5.6-1.04.7-1.7.17-.65.23-1.52.23-2.62v-.82h4.15v5.2h.87v2.12h-.93v-1.3h-4.75l.05 1.25zm.71-2.19h3.06v-4.31h-2.24a11 11 0 01-.21 2.51 3.35 3.35 0 01-.6 1.8zm10.55.93h-4.6v-6h4.49v.87h-3.5v1.53h2.84v.87h-2.84v1.91h3.6v.82zm2.07 0h-.98v-6h2.73c.66 0 1.2.16 1.53.49.38.32.6.76.6 1.25 0 .5-.22.93-.6 1.31-.38.33-.87.5-1.53.5h-1.75v2.45zm0-5.19v1.8h1.64c.38 0 .66-.1.88-.21a.78.78 0 00.32-.66c0-.27-.1-.49-.33-.65-.21-.17-.49-.22-.87-.22l-1.64-.06zm4.76 5.2h-1.04l2.73-6.07h.93l2.73 6.06h-1.04l-.7-1.47h-2.96l-.65 1.47zm2.18-4.92l-1.14 2.5h2.29l-1.15-2.5zM170 38.13h-.93v-1.31h-5.02V30.8h.98V36h3.06v-5.2h.98V36h.88v2.13h.05zm1.86-1.26h-.82v-6h.98v4.42l3.44-4.43h.88v6.01h-.98v-4.42l-3.5 4.42zm6.83 0h-.82v-6h.98v4.42l3.44-4.43h.88v6.01h-.99v-4.42l-3.5 4.42zm-141.05-1.2c-.16 0-.27.11-.27.27s.1.28.27.28.27-.11.27-.27c0-.11-.1-.28-.27-.28zm.93 2.68c0 .16.1.27.27.27s.28-.1.28-.27-.11-.27-.28-.27c-.16 0-.27.1-.27.27zm-.93-.27c-.16 0-.27.1-.27.27s.1.27.27.27.27-.1.27-.27-.1-.27-.27-.27zm2.13.27c0 .16.11.27.27.27s.28-.1.28-.27-.11-.27-.28-.27-.27.1-.27.27zm-2.51-5.36l.05.71-.6-.05v.76l.6-.1-.05.7h.76l-.05-.7.6.1v-.76l-.6.05.05-.7h-.76zm.87 2.46v2.46h2.35a2.9 2.9 0 00-2.35-2.46zm-.49 1.42c-.16 0-.27.11-.27.28s.1.27.27.27.27-.11.27-.27-.1-.28-.27-.28zm.98 3.12c-.05 0-.27.6-.05 1.03.1.22.33.33.55.28.21-.06.27-.28.27-.38-.06-.5-.44-.93-.77-.93zm-1.96 0c-.33 0-.71.43-.71.93 0 .16.05.32.27.38.22.05.44-.06.55-.28.1-.43-.06-1.03-.11-1.03zm.98-.33c-.22 0-.87 1.26-.38 1.86.1.1.22.16.38.16s.33-.05.38-.16c.44-.6-.16-1.86-.38-1.86z" fill="#6B6B74"/><path d="M34.75 38.35c0-.28.05-.5.05-.5h2.35V35.4a3 3 0 00-2.35 2.24c-.05.1-.27.16-.44.1-.87-.1-2.62-.43-2.62-.81 0-.55.38-.77.71-.77.5 0 1.04.28 1.48-.38-1.59.05-.39-2.24-1.7-2.68.06.6 0 1.64-.21 2.19 0 0-.5-.5-.99-.71.06.44-.05 1.3-.22 1.75 0 0-.54-.55-1.14-.71.54.76.54 1.9.38 2.56-.06.22.1.44.49.44.66-.05 2.84.06 3.77.44.27.1.55.27.65.49.11.27.33.71.66.93.16-.5.71-1.04 1.1-.99.1 0 .21.22.27.39.05-.17.32-.66.6-.66s.54.38.65.71c.06-.22.17-.44.28-.44.38 0 .87.33 1.03.93a3.8 3.8 0 00.88-1.64h-5.68v-.43z" fill="#6B6B74"/><path d="M36.16 38.35c0 .16.11.27.28.27s.27-.1.27-.27-.1-.27-.27-.27-.27.1-.27.27zm-1.14 0c0 .16.1.27.27.27s.27-.1.27-.27-.1-.27-.27-.27-.27.1-.27.27zm-22.62 1.2c-.1.11-.33.71-.22 1.1.06.16.11.21.28.21s.22-.1.27-.27c.05-.38-.22-.98-.33-1.04zm2.02 1.7c-.1.16-.27.21-.33.27.06.05.22.16.39.16.1 0 .22-.05.27-.1.16-.34 0-.61-.05-.72-.06.11-.11.27-.28.38zm-.76-.77c.22-.22.27-.38.22-.5-.06-.16-.55-.65-1.1-1.25 0 .11-.05.22-.05.33.38.55.55 1.1.44 1.58.05.06.05.06.1.06.12.1.28-.06.39-.22zm.76.05c0-.1 0-.16-.05-.22h-.05c-.06 0-.11.11-.17.17-.05.05-.1.16-.22.27l-.27.27c-.1.06-.16.17-.16.22v.06c.05.05.05.05.1.05.06 0 .22-.05.5-.33s.32-.38.32-.49zm-3.6-2.9s-.06.06-.11.17c.1 0 .27 0 .38.06v-.39c-.1 0-.22.11-.27.17z" fill="#6B6B74"/><path d="M12.3 37.8s1.14.99 1.52 1.37c.11.1.22.1.33.05.06-.05.17-.05.28-.1 1.14-.39 3-.44 3.66-.44.43 0 .54-.22.49-.44-.11-.66-.17-1.8.38-2.57-.6.22-1.15.71-1.15.71a3.78 3.78 0 01-.22-1.75c-.54.17-.98.71-.98.71a5.85 5.85 0 01-.22-2.18c-1.3.44-.1 2.78-1.7 2.68.45.65 1 .38 1.48.38.33 0 .77.22.71.76-.05.38-2.18.82-3.06.82-.6 0-1.03-.16-1.3-.6-.17-.22-.28-.27-.44-.27-.22.05-.44.22-.44.76 0 .33.16 1.1.55 1.1.21.05.21-.6.1-.99zm-2.2-.33h.17c-.16.22-.16.39-.1.44.1.11.16-.1.43-.38.27-.27.44-.38.38-.5-.05-.05-.22-.05-.43.12 0-.06.05-.11 0-.17-.11-.27-.5-.6-.77-.6h-.1c.1-.16.05-.27 0-.38-.06-.06-.12 0-.23.1 0-.05 0-.16-.05-.26-.33-.55-2.19-2.3-2.62-2.46-.28-.11-.33.05-.33.05s-.17.11-.06.33c.17.44 1.97 2.24 2.46 2.57.11.05.22.1.28.05-.11.11-.17.11-.06.22.06.05.16.1.33 0v.1c.1.23.44.66.7.77zm1.32 1.32c0-.17-.33-.5-.77-.5-.6 0-.87.39-.87.6 0 .39.38.44.5.44.37 0 1.08-.44 1.14-.54zm-.55.92c-.16.22-.21.44-.16.6.05.22.27.33.5.33.21 0 .43-.1.54-.27.22-.38.22-1.2.16-1.26-.22 0-.76.22-1.04.6zM5.52 31.2c-.16-.16-.54.11-.76-.05.1-.55.49 0 .82-.33.16-.16.05-.38 0-.44-.17.17-.39.11-.44 0 .38-.98-.38-2.02-1.15-1.9.17.21.22.92.11 1.08.27.22.11.71-.22.55-.22-.1-.6-.66-.16-.98 0-.17-.27-.17-.5.16.17-.6-.98-.44-1.2-.27-.1.27-.27 1.42.33 1.2-.32.27-.27.55-.16.55.38-.44.87-.11.98.1.17.33-.32.55-.54.28-.17.05-.88.05-1.04-.11-.11.76.98 1.58 1.91 1.15.11 0 .16.27 0 .43.06.11.33.17.44 0 .38-.38-.17-.76.33-.87.1.22-.11.6.05.76.27.28.6-.27.98-.27 0-.44.5-.76.22-1.04zm-2.84-1.25s-.16-.11.06-.39c.21-.21.32-.05.32-.05s.22.44.28.66c-.22 0-.66-.22-.66-.22zm1.75 1.36c-.11 0-.38.28-.5.11l-.6-.6.33-.33.33-.32.6.6c.06.16-.16.43-.16.54zm1.25.98c-.05 0-.1 0-.16.06-.05.05-.05.16-.05.27 0 .11.1.22.21.33.06.16.22.22.33.22.06 0 .11 0 .17-.06.1-.1.05-.43-.11-.6-.11-.1-.28-.22-.39-.22z" fill="#6B6B74"/><path d="M3.93 30.48l-.16.17-.16.16s.32.44.6.27c.16-.27-.28-.6-.28-.6zm31.9-1.64c0 .11-.43.33-.76-.27a3.3 3.3 0 01-.87-.27c.38.76.7 1.42 1.25 1.75.82.49 2.08.38 2.46-.17a5.5 5.5 0 01-1.96-2.3c-.11.23-.28.6-.39.88.06.11.17.27.28.38zm7.6-11.96c.88-.38 2.13-1.26 2.73-1.8.06.1.28.6-.38 1.14-.5.39-1.47.88-2.18 1.15-.33.5-.99 1.04-1.86 1.64 1.75-.27 3.82-.98 4.86-1.97 1.91-1.9.93-4.2.66-4.75a15.22 15.22 0 01-5.9 4.1c.76.1 1.52.27 2.07.49zm-1.42-3.5a10.5 10.5 0 002.57-3.44c.27.17.38.71.05 1.31A11.3 11.3 0 0142.01 14a5.76 5.76 0 01-.65 2.07c1.36-.93 2.95-2.3 3.66-3.22a4.76 4.76 0 001.14-3.6 4.58 4.58 0 00-1.3-3.07c-.28 1.48-1.76 4-3.07 5.41.11.5.22 1.2.22 1.8zm-.87 8.63c.27.33.54.71.76 1.04 1.04.22 2.3.17 2.3.17s-.06.54-.77.6a9.9 9.9 0 01-1.7-.28c-.16.06-.92.28-1.69.39 1.1.38 2.68.76 3.66.76h.28a2.86 2.86 0 002.46-2.46c-.5.11-1.32.17-2.14.17-.76 0-2.13-.06-3.16-.39zm6.6-4.15a14.29 14.29 0 01-5.95 1.53c.5.33.98.66 1.31.99.82-.06 1.97-.33 2.62-.55 0 .1 0 .65-.76.87-.55.17-1.31.17-1.91.17-.5.32-1.2.6-1.8.82a20 20 0 001.85.1c1.04 0 2.02-.1 2.62-.32.55-.17 2.35-.93 2.03-3.6zM40.1 25.4c.6.27 1.26.5 1.8.55 0 0-.1.54-.93.43-.49-.05-1.04-.43-1.14-.49-.39.06-1.15.06-1.42 0a8.28 8.28 0 003.55 1.53h.16c1.26 0 2.24-1.25 2.51-1.86-1.25 0-3.44-.54-4.75-1.25.05.22.16.65.22 1.1zm-2.19 1.7c.33.38.88.6.88.6s-.17.27-.5.27a.78.78 0 01-.32-.11c-.22-.11-.55-.5-.55-.5-.43-.05-.82-.1-1.2-.21.66.82 1.75 1.86 2.95 2.13a2.55 2.55 0 002.68-1.2 8.03 8.03 0 01-3.83-1.97c0 .33-.05.71-.1.98zm-7.8 13.38c.6 0 .98-.22 1.25-.82-.82.38-1.7.16-3.33-.33 0 0-.6.27-.99.33.99.27 2.4.76 2.63 1.31.1.44-.17.55-.17.55-.55-.66-1.2-1.04-2.62-1.48 0 .27-.06.44-.06.44s-.27.05-.92-.06c.54.44 1.85 1.59 2.02 2.79.1.82-.5.87-.5.87-.05-1.25-.6-2.02-1.8-3.27 0 0-.22.27-.43.43 0 0-.44-.05-.77-.32.16 1.63.22 5.57.11 6.17-.05.44-.33.65-.33.65s-.27-.16-.33-.65c-.1-.66 0-4.6.11-6.17a3.9 3.9 0 01-.76.32c-.27-.16-.44-.43-.44-.43-1.15 1.25-1.7 2.07-1.8 3.27 0 0-.55-.05-.5-.87.17-1.2 1.48-2.35 2.03-2.79-.6.11-.93.06-.93.06s-.05-.17-.05-.44c-1.42.44-2.03.82-2.63 1.48 0 0-.27-.06-.16-.55.22-.55 1.64-.98 2.62-1.31a6.53 6.53 0 01-.98-.33c-1.59.5-2.51.71-3.33.33.21.6.65.82 1.25.82a2.91 2.91 0 00-1.7 1.8 3.91 3.91 0 002.3 2.62c-.43-.98-.27-2.9 2.35-4.2-1.58 1.58-2.24 3.06-1.8 4.42.38 1.26 1.7 1.75 2.62 1.8-.65-2.07-.38-3.98 1.04-5.46-.6 1.64-1.48 6.72.98 7.54 2.46-.82 1.59-5.9.99-7.54 1.42 1.53 1.69 3.39 1.03 5.46.99 0 2.24-.54 2.63-1.8.43-1.36-.17-2.84-1.8-4.42 2.62 1.3 2.78 3.27 2.34 4.2 0 0 1.75-.6 2.3-2.62 0-.76-.77-1.47-1.48-1.8zM13.16 30.05c.54-.33.87-.99 1.25-1.75-.21.1-.54.22-.87.27-.33.6-.76.38-.76.27.1-.1.21-.27.27-.38-.11-.27-.27-.65-.38-.87a5.54 5.54 0 01-1.97 2.3c.38.54 1.64.65 2.46.16zM6.83 19a6.38 6.38 0 01-1.86-1.64 8.15 8.15 0 01-2.18-1.15c-.66-.54-.44-1.03-.38-1.14.54.6 1.8 1.42 2.73 1.8a9.67 9.67 0 012.07-.5 15.12 15.12 0 01-5.9-4.04c-.27.5-1.3 2.85.66 4.76.98.93 3.11 1.64 4.86 1.9zm.38-3c-.32-.6-.6-1.37-.65-2.08a10.43 10.43 0 01-2.62-2.73c-.33-.6-.22-1.15.05-1.31a10.5 10.5 0 002.57 3.44c0-.6.1-1.31.27-1.8C5.52 10.1 4 7.59 3.77 6.12a4.58 4.58 0 00-1.3 3.06c-.17 1.2.2 2.4 1.14 3.6.65.93 2.24 2.35 3.6 3.22zm-.54 7.04c.16-.33.49-.7.76-1.04-1.04.28-2.4.33-3.11.33-.88 0-1.7-.05-2.13-.16.05.87.87 2.35 2.46 2.46h.27c.98 0 2.57-.39 3.66-.77a7.14 7.14 0 01-1.7-.38c-.43.22-1.41.38-1.74.33-.71-.06-.77-.6-.77-.6s1.26.05 2.3-.17zm-3.83-1.53c.6.22 1.53.33 2.63.33.65 0 1.3-.06 1.85-.11-.6-.22-1.3-.5-1.8-.82-.6 0-1.42-.05-1.91-.16-.77-.22-.77-.77-.77-.88a8 8 0 002.63.55c.32-.27.76-.66 1.3-.98-1.96 0-4.53-.77-5.95-1.53-.33 2.62 1.48 3.38 2.02 3.6zm3.66 5.85h.17c1.2-.11 2.62-.88 3.55-1.53-.28.05-1.1.05-1.42 0-.11.1-.71.44-1.15.5-.87.1-.93-.45-.93-.45.55-.05 1.2-.27 1.8-.54.06-.44.17-.88.28-1.15a11.78 11.78 0 01-4.81 1.31c.27.6 1.26 1.86 2.51 1.86zm2.35 1.96c.17 0 .38 0 .55-.05 1.14-.27 2.3-1.31 2.95-2.13-.39.1-.77.22-1.2.22 0 0-.28.32-.55.49-.11.05-.22.1-.33.1-.33 0-.49-.27-.49-.27s.55-.27.87-.6c-.05-.27-.1-.65-.1-.98a7.8 7.8 0 01-3.83 1.97c.22.49 1.04 1.25 2.13 1.25zm13-23.65c.06 0 .17.06.22.06h4.37c.11 0 .16 0 .22-.06.16-.05.22-.16.27-.33h-5.35c.05.22.16.28.27.33zm4.8-.65c.06 0 .06-.06.06-.06v-.33c0-.05-.05-.05-.05-.05H21.9c-.06 0-.06.05-.06.05v.33c0 .06.06.06.06.06h4.75zm.5-.82c.11-.17.71-1.31.71-2.52C27.86.6 26.5 0 25.73 0c-.1 1.53-.71 3.93-1.47 3.93-.71 0-1.37-2.4-1.48-3.93-.82 0-2.13.6-2.13 1.7 0 1.2.6 2.4.71 2.5h5.8z" fill="#6B6B74"/><path d="M24.26 3.17c.38 0 .82-1.15.98-2.3 0-.21-.38-.54-.98-.6-.6 0-.99.33-.99.6.17 1.04.66 2.3.99 2.3zm6.93 17.92c0-.17-.1-.28-.27-.28H17.65c-.17 0-.28.11-.28.28v9.23s0 .49.22 1.04c.27.65 1.42 1.74 2.84 2.5a22.7 22.7 0 013.82 2.36c.6-.5 1.8-1.31 3.83-2.35 1.47-.77 2.57-1.86 2.84-2.51.27-.6.22-1.04.22-1.04l.05-9.23zm-4.48 3.33c.17.7.33 1.42.39 2.07.54.44 1.03.88 1.47 1.31.82-.92 1.26-1.8 1.26-2.5a.72.72 0 01-.71-.72c0-.16.05-.27.1-.38a3.11 3.11 0 00-1.2-.22c-.32 0-.65.06-1.03.11h-.06l-.1.05.05-.05c.05-.1.05-.16.1-.27 1.1-.22 1.97-.11 2.52.22.1-.06.22-.11.33-.11.38 0 .7.32.7.7 0 .28-.16.5-.38.6 0 .77-.43 1.76-1.36 2.85l.16.16.11.11v.06l-.16.16h-.11c-.06-.06-.06-.06-.06-.11-.05-.05-.05-.1-.1-.16l-.33.32-.11.17c-.17.1-.33.16-.44.1h-.05l.05-.05c.27-.22.5-.49.71-.65a12.2 12.2 0 00-1.2-1.15c.05.38.05.76.05 1.15 0 .32 0 .7-.05 1.09-.06.05-.16.1-.22.16l-.05.06v-.06c.05-.43.05-.87.05-1.25v-.5a11.2 11.2 0 00-.38-2.84v-.05l.16-.16-.1-.22zm-4.48-.99c.55-1.3 1.31-2.02 2.08-2.02.76 0 1.53.71 2.08 2.02v.06h-.06c-.05 0-.1.05-.22.1h-.05v-.05c-.5-1.14-1.15-1.8-1.8-1.8-.66 0-1.32.66-1.8 1.8v.06h-.06c-.06-.11-.17-.11-.17-.17zm-.21.33c.16.11.65.38 1.2.22.49-.16 1.03-.16 1.03-.16s.6 0 1.04.16c.55.16 1.04-.1 1.2-.22.06 0 .06 0 .06.06-.06.22-.22.76-1.04.98-.76.16-1.15 1.04-1.26 1.42 0 .06-.05.06-.1 0-.11-.38-.5-1.26-1.26-1.42a1.24 1.24 0 01-1.04-.98c.11-.06.17-.06.17-.06zm1.3 2.19c.12 0 .28-.06.39-.11.05.1.1.27.16.38a.92.92 0 01-.54.16c-.6 0-1.04-.49-1.04-1.03 0-.17.05-.28.1-.39l.39.17c-.05.05-.05.16-.05.22-.06.32.27.6.6.6zm-.27-.66v-.1c.17.05.33.21.44.32-.05.05-.1.05-.16.05-.17 0-.28-.1-.28-.27zm.28 1.42c.21 0 .49-.05.7-.22.06.06.17.28.22.28.11 0 .17-.22.22-.28.22.11.5.22.71.22.39 0 .71-.16.99-.38v.05c.1.44.16.99.1 1.2 0 .22-.1.44-.16.66-.1.27-.16.5-.16.5s0 .05-.06.16c-.05.22-.21.6-.43.98a2.52 2.52 0 00-1.42-.38c-.5 0-.93.1-1.31.33-.17-.39-.33-.71-.39-.88-.05-.1-.05-.16-.05-.16s-.11-.22-.22-.55c-.05-.16-.1-.38-.1-.6 0-.16-.06-.7.1-1.2 0-.06.05-.11.05-.16.39.21.82.43 1.2.43zm1.9-.76c.4 0 .66-.28.66-.66 0-.1 0-.16-.05-.22.1-.05.27-.1.38-.16.06.1.11.27.11.38 0 .6-.5 1.04-1.04 1.04a.92.92 0 01-.54-.16l.16-.39c.06.11.22.17.33.17zm-.16-.44c.11-.16.28-.27.44-.33v.11c0 .17-.1.27-.27.27-.06 0-.11 0-.17-.05zm-6.33-1.53c.16 0 .27.06.38.11.38-.22.82-.33 1.42-.33.33 0 .66.06 1.04.11h.05c0 .06.06.17.11.27l.06.06-.11-.06h-.11c-.33-.05-.66-.1-.98-.1-.39 0-.88.05-1.2.27a.72.72 0 01-.6 1.1c0 .65.43 1.52 1.25 2.5.44-.43.93-.92 1.47-1.3.06-.66.22-1.37.39-2.03v-.05l.05.05.16.17.06.05v.05c-.11.44-.22.82-.27 1.26v.06c-.06.32-.11.76-.11 1.2 0 .33-.06.6-.06.82 0 .32 0 .65.06 1.09v.05h-.06c-.1-.05-.16-.05-.22-.05h-.05v-.05c0-.28-.06-.66-.06-1.04 0-.39 0-.77.06-1.15-.44.38-.87.76-1.2 1.15.27.32.65.65 1.09 1.04l.05.05h-.05a.47.47 0 01-.38 0c-.33-.33-.6-.55-.88-.82-.05.05-.1.11-.1.16l-.06.06c-.06 0-.11.05-.22.1l-.05-.05s-.06 0-.06-.05h-.05v-.06c.1-.16.22-.27.32-.38-.92-1.04-1.36-2.02-1.36-2.78a.67.67 0 01-.38-.6c-.11-.55.22-.88.6-.88zm7.75 8.47c-.38 1.09-.92 1.86-1.52 2.18-.06.33-.33.6-.66.6s-.6-.27-.66-.6c-.6-.32-1.14-1.03-1.53-2.13v-.05l.33-.11v.05c.33.93.77 1.59 1.26 1.92.1-.28.33-.5.65-.5s.55.22.66.44c.5-.33.93-.98 1.26-1.86v-.05h.05c0 .05.06.05.16.1zm-2.78-.06c0-.22.05-.82.16-1.03.11-.06.28-.11.44-.11.16 0 .33.05.5.16.05.22.16.76.16.98 0 .22-.55.39-.6.44-.17-.05-.66-.16-.66-.44zm7-2.18c-.06.05-.12.1-.17.1-.06 0-.11.06-.22.06h-.06c-.1 0-.21 0-.27-.05-.05 0-.05-.06-.1-.06-.17 0-.55.11-.66.17.05 0 .54.05.87.32.16.11.5.17.6.17 0 .05-.55.44-1.58.22l-.28-.06a6.3 6.3 0 00-1.42-.16c.06 0 .11.05.11.05.11.06.28.11.38.17 0 0 .06 0 .06.05h.05c.06 0 .11 0 .11.06.06 0 .11.05.17.05.05.06.16.11.16.16 0 .06.06.06.06.11 0 .11 0 .17-.06.28-.16.22-.38.22-.6 0l-.05-.06c-.06-.05-.11-.1-.17-.22v-.05h-.05c-.11-.06-.17-.16-.28-.16l-.54-.17h-.17c.17.11.33.22.39.33v.05c.1.17.1.33.16.5.16.32.22.38.38.49-.16.05-.98.05-1.36-.55 0 0-.06-.05-.06-.1-.1-.23-.16-.45-.22-.6-.05-.17.06-.34-.05-.4-.11-.05-.16 0-.16 0l-.06.06v.06c0 .05-.05.05-.05.05v.06s0 .05-.06.05h-.22s-.05 0-.05.06c-.06 0-.11.05-.17.05a.12.12 0 01-.1-.1v-.12h-.11c-.06 0-.06 0-.11-.05V30.86c-.06.06-.06.06-.11.06h-.11c-.06 0-.06-.06-.06-.11v-.11h-.1c-.06 0-.17-.05-.22-.05h-.06c-.05 0-.16.05-.22.05h-.1v-.11l.05-.05v-.06h-.11v.06h-.06v.1c0 .06 0 .11-.05.11-.06.06-.06.06-.11 0 0 0-.05 0-.05-.05 0 0-.06 0-.06-.05 0 0 0 .05.06.05v.1c-.06.06-.06.06-.11.06h-.11c0 .06.05.06 0 .11 0 .06-.06.06-.11.06h-.22l-.06-.06h-.1s-.06 0-.06-.05l-.05-.06v-.05c-.11-.11-.28.27-.28.27-.49 1.04-1.69 1.26-1.69 1.2 0 0 .27-.1.38-.49.06-.22.06-.27.17-.49 0-.05.05-.05.05-.1.06-.12.22-.17.33-.28h-.17c-.16.05-.32.05-.54.16l-.28.17h-.05v.05c0 .06-.05.11-.1.22l-.06.05c-.22.22-.39.22-.6 0l-.06-.05a.17.17 0 010-.22c0-.05.06-.1.11-.16s.1-.06.16-.11c.06-.06.11-.06.17-.06.05 0 .05 0 .1-.05h.12s0-.06.05-.06c.06 0 .11-.05.16-.05.06 0 .11-.06.17-.06 0 0 .05 0 .1-.05-.43 0-.87.05-1.36.16-.05 0-.16.06-.27.06-.55.1-1.58-.17-1.58-.22 0-.05.27-.05.54-.22.22-.1.33-.22.5-.27.27.22.6.22.65.22-.11-.06-.6-.11-.77-.17 0 0-.05.06-.1.06-.11.05-.22.05-.33.05-.06 0-.17 0-.22-.05-.06 0-.11-.06-.17-.11-.05-.06-.05-.11-.05-.27.05-.22.27-.33.55-.28.16.06.27.11.32.17l.06.05c.16 0 .38.11.6.16.22.11.38.17.5.17-.06 0-.12-.06-.17-.06-.06 0-.11-.05-.11-.05-.06-.06-.11-.06-.17-.11a3.41 3.41 0 01-.87-.55 1.29 1.29 0 01-.27-.54c-.06-.5-.28-.71-.28-.77.06-.05.82.33 1.1.6.16.22.21.39.27.55v.05c.05.17.22.33.5.5.05 0 .05.05.1.05l-.16-.27v-.06l-.06-.05s-.05-.06-.05-.11c-.06-.06-.06-.11-.11-.16-.06-.17-.06-.33 0-.39.05-.05.1-.1.22-.16.21-.06.38.05.43.38v.44c.11.33.39.6.71.82-.38-.33-.6-1.1-.54-1.1.05-.05.38.17.7.33.17.06.34.17.5.28.1.05.22.16.27.21.11.06.17.17.22.22l.16.17.11.1c.11.06.28 0 .28 0 .05 0 .1 0 .16-.05l.06-.05c.05-.06.1-.06.16-.06v-.05c0-.11.05-.17.16-.22 0 0 .06 0 .06-.06h.16c0-.05.06-.05.11-.1.11-.06.27-.06.38.05.06.05.06.1.11.16v.28h.33c.05 0 .11 0 .16.05.06 0 .11-.05.17-.05h.16v-.17c0-.05 0-.1.06-.16 0 0 0-.06.05-.06l.06-.05c.1-.05.21-.05.32 0 .06 0 .06.05.11.1h.22c.11.06.17.12.17.23h.1s.28 0 .33.05h.28l.1-.1.22-.23c.11-.05.17-.16.28-.21.16-.11.38-.17.54-.22.55-.22.6-.55.66-.55.05.06-.11.93-.5 1.26.28-.22.55-.5.72-.82V29.06c.1-.27.22-.44.43-.38.11.05.17.1.22.16.06.11.06.22 0 .38 0 .06-.05.11-.1.17l-.12.1-.05.06v.06c-.06.1-.11.16-.22.27l.11-.1c.27-.23.44-.4.5-.56.05-.16.1-.32.26-.54.28-.27.33-.38.6-.55.06-.05.44-.1.5-.1.05.05-.28.16-.39.7-.05.17-.1.44-.27.66-.22.27-.44.33-.7.49l-.06.06c-.06.05-.11.05-.22.1-.11.06-.17.11-.22.11l.55-.16c.16-.1.38-.16.6-.16 0 0 0-.06.05-.06.06-.05.17-.1.33-.16.27-.11.5 0 .55.27.05.16 0 .27-.06.33z" fill="#6B6B74"/><path d="M40.26 19.23A9.97 9.97 0 0043 17.26a12 12 0 00-3.16-.44c1.8-1.25 1.85-3.87 1.36-5.79a9.24 9.24 0 01-2.24 3.55c.06.77-.16 2.08-.6 2.84.6.22 1.31.55 1.8.93-.32.44-1.04 1.04-1.47 1.42.38.39.98 1.1 1.3 1.53-.43.33-1.3.66-1.8.82.22.5.55 1.31.66 1.91-.54.11-1.25.17-2.02.17.06.54-.05 1.42-.16 1.97a5.31 5.31 0 01-1.92-.55c-.21.76-.7 1.53-.7 1.58-.66-.76-1.32-1.03-1.92-1.03v-.5c.6 0 1.26.22 1.75.71.22-.38.44-1.09.55-1.53.43.22 1.14.5 1.75.6.05-.54.1-1.25.05-1.8.6.06 1.26.06 1.97-.05-.11-.5-.55-1.31-.82-1.75.6-.16 1.36-.5 1.74-.71-.32-.44-.87-1.04-1.25-1.42a10.9 10.9 0 001.42-1.2 9.93 9.93 0 00-1.7-.88c.77-1.03.93-3.16.77-4.15-.66 2.24-2.62 3.88-3.82 4.65-.06.05-.11.1-.17.1-.05.06-.27.33-.16.66 0 .1.05.16.05.27.11.44.11 1.1-.54 1.7-.55.49-1.2.54-1.59.49v-1.2c0-.17-.1-.28-.27-.28h-.82l-.38-.38h.82c.43-.05.93-.27.93-.27s-.5 0-.71-.06c-.28.06-.88-.22-1.37-.76-.16-.22-.33-.44-.44-.66a4.74 4.74 0 01-1.25-1.58c-.22-.5-.33-1.2-.39-1.64-.16.1-.32.33-.54.6-.38.5-.55 1.2-.55 1.2l-.16.55-.28-.5s-.38-.65-.43-1.47c0-.38 0-.7.05-.98a5.96 5.96 0 00-1.47 1.26 4.6 4.6 0 00-.6.98 3.57 3.57 0 00-.6-.98s-.33-.55-1.04-.99c-.17-.1-.33-.22-.44-.27.06.27.06.65.06.98-.06.82-.44 1.42-.44 1.48l-.27.43-.17-.54s-.22-.71-.55-1.2c-.21-.28-.38-.5-.54-.6-.06.43-.17 1.2-.38 1.63a3.77 3.77 0 01-1.26 1.59 2.89 2.89 0 01-1.8 1.53c-.22.05-.71.05-.71.05s.49.22.93.28c.43.05.82 0 .82 0l-.39.38h-.82c-.16 0-.27.1-.27.27v1.2c-.38.06-1.1 0-1.58-.49-.6-.6-.66-1.26-.55-1.7.05-.05.05-.16.05-.27.11-.32-.1-.6-.16-.65-.05-.06-.1-.11-.16-.11-1.2-.77-3.12-2.4-3.83-4.64-.16.98.06 3.06.77 4.15-.55.22-1.26.54-1.7.87.28.33.99.93 1.42 1.2A7.8 7.8 0 009.4 21.2c.38.22 1.15.55 1.75.71a7.27 7.27 0 00-.82 1.75c.65.11 1.36.11 1.96.06-.05.54 0 1.3.06 1.8a5.5 5.5 0 001.75-.6c.1.38.32 1.15.54 1.53.5-.5 1.15-.71 1.75-.71v.49c-.6 0-1.26.27-1.91 1.04 0-.06-.5-.82-.71-1.59-.38.17-1.2.5-1.91.55-.11-.55-.17-1.42-.17-1.97-.76 0-1.47-.05-2.02-.16.11-.6.44-1.42.66-1.91-.5-.17-1.37-.55-1.8-.82.27-.44.92-1.15 1.3-1.53a9.08 9.08 0 01-1.47-1.42c.5-.38 1.2-.71 1.8-.93a6.2 6.2 0 01-.6-2.84 8.12 8.12 0 01-2.24-3.55C6.78 13 6.9 15.68 8.7 16.88c-.88 0-2.4.22-3.17.44.55.65 1.91 1.53 2.73 1.96-.65.22-1.8.88-2.3 1.31.6.39 1.97.82 2.63.99a10.2 10.2 0 00-1.42 1.64c.54.16 1.64.32 2.35.32-.22.5-.5 1.31-.55 1.8.33.06 1.48 0 2.08-.16-.06.5-.06 1.31.05 1.7.55-.06 1.37-.33 1.75-.44.1.44.5 1.3.65 1.53.28-.06.55-.11.82-.22.77-.27 1.59.05 1.92.76.54 1.26.32 2.74-.71 2.46-1.2.22-.39 1.75-1.1 2.24.93.66 1.2-.87 2.4-.6-.1.55-.1 1.59 0 2.02.39-.27.94-.49 1.26-.54-.1.32-.16 1.09-.05 1.58.22-.16 1.8-.6 1.8-.6s-.6 1.2-.22 2.4c.22.17 1.64-.54 1.64-.93.06.5-.54 1.59-1.47 1.8.98.99 1.85.94 1.96.94.17 0 .28 0 .39-.11-.06.27-.11.65-.06.87h.17c.27 0 .49-.05.65-.1.06.26.16.54.33.76l.1.1c.23 0 .77-.27.88-.43.11.16.66.44.88.44.05-.06.1-.06.1-.11.22-.22.33-.55.33-.77.22.11.44.11.66.11h.16c.06-.22.06-.6-.05-.87.1.05.27.1.38.1.1 0 .98.06 1.97-.92-.93-.22-1.53-1.31-1.48-1.8 0 .43 1.42 1.09 1.64.92.38-1.2-.22-2.4-.22-2.4s1.53.38 1.8.6c.11-.5.06-1.26-.05-1.58.33 0 .87.27 1.26.54.1-.43.1-1.42 0-2.02 1.14-.27 1.42 1.26 2.4.6-.66-.49.16-2.02-1.1-2.24-1.03.33-1.25-1.2-.7-2.46a1.54 1.54 0 011.9-.76c.28.1.56.16.83.22.1-.22.54-1.1.65-1.53.39.16 1.2.38 1.75.44.06-.39.11-1.2.06-1.7.54.11 1.74.17 2.07.17a6.3 6.3 0 00-.54-1.8c.7-.06 1.8-.17 2.35-.33a6.98 6.98 0 00-1.42-1.64c.65-.17 2.02-.6 2.62-.99a5.95 5.95 0 00-2.19-1.36zm-8.85 12.29l-.16.27c0 .06-.06.06-.06.11-.05.06-.1.11-.16.22l-.1.1c-.06.12-.17.17-.23.28l-.16.17-.17.16-.21.22-.11.1c-.17.17-.39.34-.6.44-.28.22-.55.39-.88.55l-.33.16c-2.45 1.26-3.66 2.24-4.04 2.52h-.05a21.55 21.55 0 00-4.05-2.52l-.32-.16c-.33-.16-.6-.33-.88-.55-.22-.16-.38-.32-.6-.43-.05-.06-.1-.06-.1-.11-.06-.06-.17-.11-.23-.22a126.63 126.63 0 00-.16-.16l-.16-.17a.96.96 0 01-.22-.27l-.11-.11c-.06-.05-.11-.11-.17-.22 0-.05-.05-.05-.05-.1-.05-.12-.1-.17-.16-.28-.33-.71-.28-1.31-.28-1.31v-9.56c0-.17.11-.28.28-.28h14.42c.16 0 .27.11.27.28v9.56c.06 0 .11.6-.22 1.3zM31.08 5.3c.22 0 .33-.16.33-.38s-.16-.39-.33-.39c-.21 0-.32.17-.32.39s.16.38.32.38zm0 2.02c.22 0 .44-.93.44-1.36 0-.28-.22-.44-.44-.44s-.43.16-.43.44c0 .43.22 1.36.43 1.36zM30.87 4h.49l-.11-.6.6.05v-.49l-.6.1.1-.6h-.48l.05.6-.6-.1v.5l.6-.06-.05.6z" fill="#6B6B74"/><path d="M28.95 8.41c.17.06.33.06.5.11h.7c.44 0 .88-.1 1.32-.22.43-.1.87-.22 1.36-.22h.33c.11-.49.27-1.03.27-1.36 0-.66-.38-1.37-1.63-1.59 0 .82-.39 2.74-.82 2.74h-.06c-.44 0-.82-1.92-.82-2.74-1.25.22-1.64.93-1.64 1.59 0 .38.17 1.1.33 1.58.16.06.16.06.16.11zm6.56-3.44s-.33-.87.22-1.15c.6-.21-.22-.1.22-1.3.49-1.43 1.58-1.1 1.58-1.1-.76-.6-1.36-.55-1.8-.22-.27.22-.66.66-.93 1.53-.22 1.1.16 2.13.71 2.24z" fill="#6B6B74"/><path d="M38.35 2.84c.06 1.8 3.06 2.57 3.06 2.57s-1.75-1.26-1.42-2.19c0 0 1.15.5 2.46.28-2.79-.6-1.86-1.48-2.57-2.19-.7-.76-1.8-.82-2.08-.87a3.28 3.28 0 00-1.58.16c1.91.06 2.13 1.04 2.13 2.24zm-.38 3.39c.38-1.42-.33-2.08-.33-2.08-.22-.27-1.36-.22-1.8.06 0 0 1.1 0 .93 1.58-.17 1.58-2.35 1.91-2.95 1.97l-.06.22c1.04 0 3.77-.33 4.2-1.75zm-11.42-.06h-1.1C26 7.7 27.6 8.2 28.63 8.36l-.05-.16c-1.1-.44-1.64-.88-2.02-2.03zm-9.07-.87c.22 0 .33-.16.33-.38s-.16-.39-.33-.39c-.22 0-.32.17-.32.39-.06.22.1.38.32.38zm0 2.02c.22 0 .44-.93.44-1.36 0-.28-.22-.44-.44-.44s-.44.16-.44.44c0 .43.17 1.36.44 1.36zM17.21 4h.49l-.05-.6.6.05v-.49l-.6.1.05-.6h-.5l.12.6-.6-.1v.5l.6-.06-.11.6z" fill="#6B6B74"/><path d="M15.3 8.09h.33c.49.05.98.1 1.36.21.39.11.88.22 1.31.22h.71c.17 0 .33-.05.5-.1 0-.06 0-.06.05-.06.16-.5.33-1.2.33-1.59 0-.65-.33-1.36-1.64-1.58 0 .77-.38 2.73-.82 2.73h-.05c-.44 0-.82-1.91-.82-2.73-1.26.22-1.64.93-1.64 1.58 0 .33.1.88.27 1.37.05-.05.05-.05.1-.05zm-4.32-6.67s1.1-.33 1.59 1.1c.43 1.2-.39 1.08.21 1.3.6.22.22 1.15.22 1.15.6-.1.99-1.15.66-2.3a3.04 3.04 0 00-.93-1.52c-.44-.28-.98-.33-1.75.27z" fill="#6B6B74"/><path d="M8.52 3.22c.33.93-1.42 2.19-1.42 2.19s3.06-.77 3.06-2.57c.06-1.2.22-2.18 2.08-2.24-.82-.16-.88-.16-1.59-.16-.27 0-1.36.1-2.07.87C7.92 2.02 8.8 2.9 6 3.5a5.02 5.02 0 002.51-.28zM11.8 5.8c-.16-1.58.93-1.58.93-1.58-.38-.28-1.53-.28-1.8-.06 0 0-.71.6-.33 2.08.38 1.42 3.17 1.75 4.2 1.75l-.05-.22c-.6-.06-2.78-.38-2.95-1.97zm11.3.38h-1.08c-.39 1.15-.93 1.59-2.02 2.02l-.06.17c1.1-.16 2.62-.66 3.17-2.19zm2.58 6.72a8.7 8.7 0 00-.82 1.59c.16-.22.43-.44.7-.66.5-.33.94-.55.94-.55l.43-.16-.1.44s-.17.7-.12 1.3c0 .28.11.55.17.72.1-.28.27-.55.44-.82.54-.71.98-.98.98-.98l.33-.17v.38s.1 1.26.38 1.92a4.2 4.2 0 001.97 1.96l-.28-.27c-.27-.27-.54-.77-.7-1.8-.12-.88.21-1.75.32-2.02.05.21.16.43.27.49 0 0 0-.22.06-.44.1-.6.76-1.53 1.64-2.08l.43-.27c.17-.05.28-.16.39-.27-.17 0-.39.05-.55.05h-.55c-.43 0-.93-.05-1.3-.38a1.77 1.77 0 01-.6-.87h-.66c-.33 0-.6-.11-.77-.11a3.1 3.1 0 01-1.42.43h-.22c.17.17.38.28.55.39h.05l-.1.05c.05-.05-.72.38-1.86 2.13zm7.15-3.06h-.6v.33c.06.16.11.27.22.38.16-.1.33-.38.38-.7z" fill="#6B6B74"/><path d="M33.27 8.58c-.05 0-.05 0 0 0h-.22c-.44 0-.87.1-1.3.21-.45.11-.94.22-1.38.22h-.76a5.54 5.54 0 01-1.97-.6c.06.11.17.22.33.38l.17.17c.1.1.27.22.43.33.22.1 1.15.49 2.35.32 1.37-.22 1.64-.16 1.97-.16h.1c.5.05 1.2.33 1.48.5.11-.28.27-.56.33-.83-.05-.05-.16-.16-.38-.27-.06-.06-.11-.06-.22-.11-.11-.06-.27-.11-.5-.11-.21-.05-.32-.05-.43-.05zm3.83 4.48c-.06 0-.55.27-1.59-.39a7.94 7.94 0 00-2.24-1.03l-.27.16c-.11.05-.27.16-.44.27-.05.06-.1.06-.16.11h.1c1 .11 1.76.66 1.81.88h.05c.11-.33-.05-.6-.05-.6s.44.27 1.31.76c.93.6 1.31.05 1.48-.16zm-5.2-2.68c-.05-.05-.1-.16-.16-.22-.06-.1-.06-.16-.06-.22-.21 0-.49.06-.82.11h-.21c.16.33.43.66.98.77h.22c.22.05.49.05.65.05.39 0 .82-.05 1.26-.16.1-.11.16-.28.27-.38 0 0-.05-.06-.1-.06-.12-.05-.39-.22-.55-.27-.06.16-.17.33-.28.43-.16.11-.38.17-.6.17-.21 0-.43-.06-.54-.17-.06 0-.06-.05-.06-.05zm2.9-.82a4.75 4.75 0 01-1.26 1.86c2.46-.66 2.9.6 2.9.65 0 .06 0 .06.05 0 .06-.05.88-.93.28-1.75-.5-.65-1.59-.76-1.97-.76zm0 .65c.11-.1.16-.32.16-.32.17 0 .5.05.5.27-.22-.06-.5-.06-.66.05zm-18.46-.05v-.33h-.6c.05.33.21.6.38.71.1-.1.16-.22.22-.38zm2.78-1.2c-.05 0-.05 0 0 0-.05 0-.05 0 0 0h-.76c-.5 0-.93-.11-1.37-.22-.5-.05-.93-.16-1.37-.16H15.2c-.22 0-.39.05-.5.1-.05.06-.16.06-.21.11-.17.11-.28.17-.39.28.06.27.22.6.33.82.28-.17.99-.5 1.48-.5h.1c.33 0 .6-.05 1.97.17 1.2.16 2.08-.22 2.35-.33.17-.1.33-.22.44-.33l.16-.16c.11-.16.22-.27.33-.38-.5.16-1.15.49-2.13.6zm-7.65 4.1c.17.16.55.76 1.42.27.88-.5 1.31-.77 1.31-.77s-.16.28-.05.6h.05c.11-.21.88-.81 1.8-.87h.12c-.06-.05-.11-.05-.17-.1-.16-.12-.33-.23-.43-.28-.11-.06-.17-.11-.28-.16A6.6 6.6 0 0013 12.78c-.98.55-1.47.28-1.53.28z" fill="#6B6B74"/><path d="M15.19 10l-.55.27c-.05 0-.05.06-.1.06.1.16.16.27.27.38.43.1.87.16 1.25.16.22 0 .44 0 .66-.05h.22c.54-.11.87-.5.98-.77h-.22c-.33-.05-.6-.1-.82-.1 0 .05-.05.16-.05.21-.06.11-.11.17-.17.22l-.05.05a1.1 1.1 0 01-1.15 0c-.16-.1-.22-.27-.27-.43zm-3.44.32c-.6.82.22 1.7.27 1.75.06.06.06 0 .06 0 0-.05.43-1.31 2.9-.65a4.74 4.74 0 01-1.27-1.86c-.32 0-1.47.1-1.96.76zm2.02-.1c-.16-.12-.44-.12-.66-.06 0-.22.33-.27.5-.27 0 0 .05.21.16.32z" fill="#6B6B74"/><path d="M21.47 10.32h-.22c-.54 0-.98-.16-1.42-.43-.16.05-.5.1-.76.1h-.66c-.05.22-.22.6-.6.88-.38.33-.87.38-1.31.38h-.55c-.1 0-.33-.05-.54-.05.16.1.27.16.38.27l.44.27c.87.6 1.53 1.48 1.63 2.08.06.22.06.44.06.44.1-.06.22-.28.27-.5.11.28.5 1.15.33 2.03-.16 1.03-.44 1.53-.71 1.8l-.27.27a4.2 4.2 0 001.96-1.96c.28-.6.39-1.86.39-1.86v-.38l.32.16s.5.27.99.98c.16.28.32.55.43.82l.17-.7c.05-.66-.11-1.32-.11-1.32l-.11-.44.44.17s.43.16.92.54c.33.22.55.44.71.66a6.24 6.24 0 00-.81-1.58c-1.15-1.75-1.86-2.13-1.86-2.13l-.11-.06h.05c.17-.16.39-.33.55-.44z" fill="#6B6B74"/></svg>