<svg width="236" height="66" viewBox="0 0 236 66" fill="none" xmlns="http://www.w3.org/2000/svg"><path d="M72 44.23v-1.09h6.19v1.1h-2.5v6.46h-1.2v-6.47H72zM81 50.7h-1.2v-7.56H81v2.98h3.93v-2.98h1.2v7.56h-1.2v-3.49H81v3.49zM93.84 50.7h-5.52v-7.56h5.38v1.1h-4.19v1.88h3.41v1.1h-3.4v2.39h4.32v1.09zM99.88 50.7H98.7v-7.56h3.44c.78 0 1.39.2 1.83.6a2 2 0 01.67 1.55 2.08 2.08 0 01-1.64 2.08l2.37 3.33h-1.44l-2.28-3.2h-1.77v3.2zm0-6.47v2.23h2.19c.43 0 .76-.1 1-.3a1 1 0 00.37-.83.98.98 0 00-.37-.8c-.24-.2-.57-.3-1-.3h-2.19zM106.84 47.5v-4.36h1.2v4.4c0 .7.17 1.25.52 1.63.35.37.84.56 1.45.56s1.1-.19 1.44-.56c.36-.38.55-.92.55-1.62v-4.41h1.18v4.36a3.3 3.3 0 01-.88 2.47c-.6.58-1.36.87-2.3.87-.92 0-1.68-.29-2.28-.86a3.35 3.35 0 01-.88-2.48zM117.67 50.84a4.7 4.7 0 01-2.84-.8v-1.3a4.4 4.4 0 002.78.98c.5 0 .92-.1 1.25-.3.33-.2.5-.47.5-.81a.9.9 0 00-.34-.7 1.34 1.34 0 00-.4-.23c-.2-.1-.55-.22-1.03-.36l-.15-.04a11.7 11.7 0 01-.98-.32c-.2-.07-.45-.2-.76-.37-.52-.33-.78-.84-.78-1.53 0-.62.25-1.12.74-1.5.5-.37 1.17-.56 2-.56.92 0 1.73.2 2.43.63v1.18a4.55 4.55 0 00-2.4-.7c-.5 0-.89.1-1.16.27a.8.8 0 00-.39.7c0 .24.15.47.45.67.04.03.1.07.18.1a40.37 40.37 0 00.49.17l.86.25c.53.16.99.35 1.38.56.67.36 1.03.95 1.07 1.75 0 .7-.27 1.25-.83 1.66-.55.4-1.24.6-2.07.6zM124.8 50.84a4.7 4.7 0 01-2.85-.8v-1.3a4.4 4.4 0 002.78.98c.51 0 .93-.1 1.25-.3.33-.2.5-.47.5-.81a.9.9 0 00-.34-.7 1.36 1.36 0 00-.39-.23c-.2-.1-.55-.22-1.03-.36l-.15-.04c-.41-.12-.74-.22-.99-.32-.19-.07-.44-.2-.75-.37-.52-.33-.78-.84-.78-1.53 0-.62.25-1.12.73-1.5.5-.37 1.17-.56 2.01-.56.92 0 1.72.2 2.42.63v1.18a4.56 4.56 0 00-2.4-.7c-.5 0-.88.1-1.15.27a.8.8 0 00-.39.7c0 .24.15.47.44.67.05.03.1.07.19.1l.27.1.21.07.87.25c.52.16.98.35 1.38.56.67.36 1.03.95 1.07 1.75 0 .7-.28 1.25-.83 1.66-.56.4-1.25.6-2.08.6zM130.78 50.7h-1.2v-7.56h1.2v7.56zM133.6 50.7h-1.26l3.3-7.6h1.15l3.3 7.6h-1.27l-.82-1.88h-3.59l-.8 1.88zm2.6-6.1l-1.38 3.17h2.77l-1.38-3.17zM142.76 50.7h-1.17v-7.56h1.04l4.27 5.48v-5.48h1.16v7.56h-1l-4.3-5.5v5.5zM154.59 50.7h-1.19v-7.56h5.37v1.1h-4.18v1.97h3.31v1.09h-3.31v3.4zM166 50.7h-5.53v-7.56h5.38v1.1h-4.19v1.88h3.41v1.1h-3.4v2.39h4.32v1.09zM170.38 50.7h-2.66v-7.56h2.66c1.21 0 2.2.35 2.97 1.06.78.7 1.16 1.61 1.16 2.72 0 1.12-.38 2.03-1.16 2.73a4.23 4.23 0 01-2.97 1.05zm-1.47-6.47v5.38h1.37c.95 0 1.69-.24 2.21-.72.53-.5.8-1.15.8-1.97 0-.82-.27-1.48-.8-1.97a3.15 3.15 0 00-2.21-.72h-1.38zM181.97 50.7h-5.52v-7.56h5.38v1.1h-4.2v1.88h3.42v1.1h-3.42v2.39h4.34v1.09zM184.88 50.7h-1.2v-7.56h3.45c.78 0 1.4.2 1.83.6a2 2 0 01.67 1.55c0 .53-.15.98-.44 1.35-.3.37-.7.61-1.2.73l2.37 3.33h-1.43l-2.28-3.2h-1.77v3.2zm0-6.47v2.23h2.18c.43 0 .77-.1 1-.3a1 1 0 00.37-.83.98.98 0 00-.37-.8c-.23-.2-.57-.3-1-.3h-2.18zM192.5 50.7h-1.27l3.3-7.6h1.15l3.3 7.6h-1.27l-.82-1.88h-3.58l-.81 1.88zm2.6-6.1l-1.38 3.17h2.76l-1.38-3.17zM198.83 44.23v-1.09H205v1.1h-2.5v6.46h-1.19v-6.47h-2.5zM207.87 50.7h-1.19v-7.56h1.2v7.56zM211.85 48.93c.5.53 1.13.8 1.88.8a2.5 2.5 0 001.88-.8c.5-.55.76-1.22.76-2.01 0-.8-.25-1.46-.77-2a2.49 2.49 0 00-1.88-.8c-.74 0-1.36.26-1.87.8-.5.53-.76 1.2-.76 2s.25 1.48.76 2zm4.64.79a3.71 3.71 0 01-2.77 1.12c-1.1 0-2.03-.37-2.76-1.12a3.9 3.9 0 01-1.09-2.8c0-1.1.36-2.04 1.1-2.79a3.7 3.7 0 012.75-1.13 3.82 3.82 0 013.87 3.92c0 1.1-.37 2.04-1.1 2.8zM220.69 50.7h-1.17v-7.56h1.04l4.27 5.48v-5.48h1.16v7.56h-1l-4.3-5.5v5.5zM73.26 37.7H72l3.3-7.6h1.15l3.3 7.6h-1.27l-.82-1.88h-3.59l-.8 1.88zm2.6-6.1l-1.38 3.17h2.77l-1.38-3.17zM82.42 37.7h-1.17v-7.56h1.04l4.27 5.48v-5.48h1.16v7.56h-1l-4.3-5.5v5.5zM92.6 37.7h-2.67v-7.56h2.67c1.2 0 2.2.35 2.97 1.06.77.7 1.15 1.61 1.15 2.72 0 1.12-.38 2.03-1.15 2.73a4.23 4.23 0 01-2.97 1.05zm-1.48-6.47v5.38h1.37c.95 0 1.69-.24 2.21-.72.54-.5.8-1.15.8-1.97 0-.82-.26-1.48-.8-1.97a3.15 3.15 0 00-2.21-.72h-1.37zM102.98 37.7h-1.2v-7.56h1.2v2.98h3.94v-2.98h1.19v7.56h-1.2v-3.49h-3.93v3.49zM111.55 37.7h-1.19v-7.56h1.19v7.56zM117.48 37.84a3.87 3.87 0 01-2.81-1.1 3.83 3.83 0 01-1.12-2.82c0-1.14.38-2.07 1.13-2.8a3.87 3.87 0 012.84-1.12c.92 0 1.7.22 2.33.65v1.18a3.9 3.9 0 00-2.25-.72 2.75 2.75 0 00-2.83 2.82c0 .84.26 1.51.78 2.03.53.51 1.17.77 1.93.77.77 0 1.38-.21 1.82-.64v-2.75h1.2v3.24a3.5 3.5 0 01-1.3.92 4.3 4.3 0 01-1.72.34zM123.7 37.7h-1.2v-7.56h1.2v2.98h3.94v-2.98h1.18v7.56h-1.18v-3.49h-3.95v3.49zM136.54 37.7h-5.52v-7.56h5.38v1.1h-4.19v1.88h3.41v1.1h-3.4v2.39h4.32v1.09zM139.45 37.7h-1.18v-7.56h3.44c.78 0 1.39.2 1.83.6a2 2 0 01.67 1.55c0 .53-.15.98-.45 1.35-.28.37-.68.61-1.2.73l2.38 3.33h-1.44l-2.27-3.2h-1.78v3.2zm0-6.47v2.23h2.19c.43 0 .76-.1 1-.3a1 1 0 00.37-.83.98.98 0 00-.37-.8c-.24-.2-.57-.3-1-.3h-2.19zM155.16 37.7h-5.52v-7.56h5.38v1.1h-4.2v1.88h3.42v1.1h-3.41v2.39h4.33v1.09zM159.55 37.7h-2.67v-7.56h2.67c1.21 0 2.2.35 2.97 1.06.77.7 1.16 1.61 1.16 2.72 0 1.12-.39 2.03-1.16 2.73a4.23 4.23 0 01-2.97 1.05zm-1.48-6.47v5.38h1.37c.95 0 1.7-.24 2.22-.72.53-.5.8-1.15.8-1.97 0-.82-.27-1.48-.8-1.97a3.16 3.16 0 00-2.22-.72h-1.37zM165.52 34.5v-4.36h1.18v4.4c0 .7.18 1.25.53 1.63.36.37.84.56 1.45.56s1.1-.19 1.45-.56c.36-.38.54-.92.54-1.62v-4.41h1.19v4.36a3.3 3.3 0 01-.89 2.47c-.6.58-1.36.87-2.29.87-.93 0-1.7-.29-2.29-.86a3.35 3.35 0 01-.87-2.48zM177.67 37.84a3.97 3.97 0 01-2.85-1.1 3.78 3.78 0 01-1.14-2.82c0-1.14.38-2.07 1.14-2.8a3.88 3.88 0 012.85-1.12c.77 0 1.45.17 2.05.5v1.2c-.61-.39-1.3-.59-2.04-.59a2.7 2.7 0 00-2.78 2.81c0 .81.27 1.49.8 2.02.54.53 1.2.79 2.02.79.87 0 1.59-.23 2.16-.7v1.2c-.63.4-1.37.61-2.21.61zM182.22 37.7h-1.26l3.3-7.6h1.15l3.3 7.6h-1.27l-.82-1.88h-3.59l-.8 1.88zm2.6-6.1l-1.38 3.17h2.77l-1.39-3.17zM188.55 31.23v-1.09h6.19v1.1h-2.5v6.46h-1.2v-6.47h-2.49zM197.6 37.7h-1.19v-7.56h1.19v7.56zM201.57 35.93c.51.53 1.14.8 1.88.8a2.5 2.5 0 001.88-.8c.51-.55.77-1.22.77-2.01 0-.8-.26-1.46-.77-2a2.49 2.49 0 00-1.88-.8c-.74 0-1.37.26-1.88.8-.5.53-.75 1.2-.75 2s.25 1.48.75 2zm4.65.79a3.71 3.71 0 01-2.77 1.12c-1.1 0-2.03-.37-2.76-1.12a3.9 3.9 0 01-1.1-2.8c0-1.1.37-2.04 1.1-2.79a3.7 3.7 0 012.76-1.13 3.82 3.82 0 013.87 3.92c0 1.1-.37 2.04-1.1 2.8zM210.41 37.7h-1.16v-7.56h1.04l4.26 5.48v-5.48h1.17v7.56h-1l-4.3-5.5v5.5zM222.76 35.93c.51.53 1.14.8 1.88.8a2.5 2.5 0 001.88-.8c.51-.55.77-1.22.77-2.01 0-.8-.26-1.46-.77-2a2.49 2.49 0 00-1.88-.8c-.74 0-1.37.26-1.88.8-.5.53-.75 1.2-.75 2s.25 1.48.75 2zm4.65.79a3.71 3.71 0 01-2.77 1.12c-1.1 0-2.03-.37-2.76-1.12a3.9 3.9 0 01-1.1-2.8c0-1.1.37-2.04 1.1-2.79a3.7 3.7 0 012.76-1.13 3.82 3.82 0 013.87 3.92c0 1.1-.37 2.04-1.1 2.8zM231.63 37.7h-1.2v-7.56h5.38v1.1h-4.18v1.97h3.31v1.09h-3.31v3.4zM73.19 24.7H72v-7.56h1.21l2.45 3.4 2.43-3.4h1.19v7.56h-1.19v-5.75L76 21.81h-.7l-2.1-2.86v5.75zM82.72 24.7h-1.19v-7.56h1.2v7.56zM86.15 24.7H85v-7.56h1.03l4.27 5.48v-5.48h1.17v7.56h-1l-4.3-5.5v5.5zM94.9 24.7h-1.18v-7.56h1.19v7.56zM99.56 24.84a4.7 4.7 0 01-2.84-.8v-1.3a4.4 4.4 0 002.78.98c.5 0 .92-.1 1.25-.3.33-.2.5-.47.5-.81a.9.9 0 00-.34-.7 1.34 1.34 0 00-.39-.23c-.2-.1-.55-.22-1.03-.36l-.16-.04c-.4-.12-.73-.22-.98-.32a5.2 5.2 0 01-.75-.37c-.52-.33-.78-.84-.78-1.53 0-.62.24-1.12.73-1.5.5-.37 1.17-.56 2.01-.56.91 0 1.72.2 2.42.63v1.18a4.55 4.55 0 00-2.4-.7c-.5 0-.89.1-1.15.27a.8.8 0 00-.4.7c0 .24.16.47.45.67.04.03.1.07.18.1a50.47 50.47 0 00.49.17l.86.25c.53.16 1 .35 1.39.56.67.36 1.02.95 1.07 1.75 0 .7-.28 1.25-.83 1.66-.56.4-1.25.6-2.08.6zM103.5 18.23v-1.09h6.2v1.1h-2.51v6.46H106v-6.47h-2.5zM112.5 24.7h-1.19v-7.56h3.45c.77 0 1.38.2 1.82.6a2 2 0 01.67 1.55c0 .53-.15.98-.44 1.35-.29.37-.69.61-1.2.73l2.38 3.33h-1.44l-2.28-3.2h-1.77v3.2zm0-6.47v2.23h2.18c.43 0 .77-.1 1-.3a1 1 0 00.37-.83.98.98 0 00-.36-.8c-.24-.2-.58-.3-1-.3h-2.19zM122.57 24.7h-1.2v-3.42l-2.92-4.14h1.38L122 20.2l2.16-3.06h1.34l-2.92 4.1v3.46zM131.76 22.93c.51.53 1.14.8 1.88.8a2.5 2.5 0 001.88-.8c.51-.55.77-1.22.77-2.01 0-.8-.26-1.46-.77-2a2.49 2.49 0 00-1.88-.8c-.74 0-1.37.26-1.88.8-.5.53-.75 1.2-.75 2s.25 1.48.75 2zm4.65.79a3.71 3.71 0 01-2.77 1.12c-1.1 0-2.03-.37-2.76-1.12a3.9 3.9 0 01-1.1-2.8c0-1.1.37-2.04 1.1-2.79a3.7 3.7 0 012.76-1.13 3.82 3.82 0 013.87 3.92c0 1.1-.37 2.04-1.1 2.8zM140.63 24.7h-1.2v-7.56h5.38v1.1h-4.18v1.97h3.31v1.09h-3.31v3.4zM152.03 24.84a4.7 4.7 0 01-2.84-.8v-1.3a4.4 4.4 0 002.78.98c.5 0 .92-.1 1.25-.3.33-.2.5-.47.5-.81a.9.9 0 00-.34-.7 1.34 1.34 0 00-.39-.23c-.2-.1-.55-.22-1.04-.36l-.15-.04c-.4-.12-.74-.22-.98-.32-.2-.07-.45-.2-.76-.37-.52-.33-.77-.84-.77-1.53 0-.62.24-1.12.73-1.5.5-.37 1.17-.56 2-.56.92 0 1.73.2 2.43.63v1.18a4.55 4.55 0 00-2.4-.7c-.5 0-.89.1-1.16.27a.8.8 0 00-.38.7c0 .24.14.47.44.67.04.03.1.07.18.1a40.37 40.37 0 00.49.17l.86.25c.53.16.99.35 1.39.56.66.36 1.02.95 1.06 1.75 0 .7-.27 1.25-.83 1.66-.55.4-1.24.6-2.07.6zM160.38 24.84a3.97 3.97 0 01-2.85-1.1 3.78 3.78 0 01-1.14-2.82 3.88 3.88 0 013.98-3.92c.78 0 1.46.17 2.06.5v1.2c-.61-.39-1.3-.59-2.04-.59a2.7 2.7 0 00-2.78 2.81c0 .81.27 1.49.8 2.02.54.53 1.2.79 2.02.79.87 0 1.59-.23 2.16-.7v1.2c-.63.4-1.37.61-2.21.61zM165.61 24.7h-1.19v-7.56h1.2v7.56zM173.4 24.7h-5.52v-7.56h5.38v1.1h-4.2v1.88h3.42v1.1h-3.41v2.39h4.33v1.09zM176.29 24.7h-1.17v-7.56h1.04l4.27 5.48v-5.48h1.16v7.56h-1l-4.3-5.5v5.5zM187.51 24.84a3.98 3.98 0 01-2.85-1.1 3.78 3.78 0 01-1.13-2.82c0-1.14.38-2.07 1.13-2.8a3.89 3.89 0 012.85-1.12c.78 0 1.46.17 2.06.5v1.2c-.61-.39-1.3-.59-2.04-.59a2.7 2.7 0 00-2.78 2.81c0 .81.27 1.49.8 2.02s1.2.79 2.02.79c.86 0 1.58-.23 2.16-.7v1.2c-.63.4-1.37.61-2.22.61zM197.03 24.7h-5.52v-7.56h5.38v1.1h-4.2v1.88h3.42v1.1h-3.42v2.39h4.34v1.09z" fill="#343434"/><path d="M46.39 49.22c-.2 0-.35.14-.35.35 0 .2.14.34.35.34.2 0 .34-.14.34-.34 0-.14-.14-.35-.34-.35zM47.56 52.6c0 .2.13.34.34.34.2 0 .34-.14.34-.35 0-.2-.13-.34-.34-.34-.2 0-.34.14-.34.34zM46.39 52.25c-.2 0-.35.14-.35.34 0 .21.14.35.35.35.2 0 .34-.14.34-.35 0-.2-.14-.34-.34-.34zM49.07 52.6c0 .2.14.34.34.34s.35-.14.35-.35c0-.2-.14-.34-.35-.34-.2 0-.34.14-.34.34zM45.9 45.86l.08.89-.76-.07v.96l.76-.13-.07.89h.96l-.07-.9.76.14v-.96l-.76.07.07-.9h-.96zM47 48.95v3.1h2.96a3.65 3.65 0 00-2.95-3.1zM46.39 50.74c-.2 0-.35.13-.35.34 0 .2.14.34.35.34.2 0 .34-.13.34-.34 0-.2-.14-.34-.34-.34zM47.62 54.66c-.07 0-.34.75-.07 1.3.14.28.42.41.7.35.27-.07.34-.35.34-.48-.07-.62-.55-1.17-.97-1.17zM45.15 54.66c-.41 0-.9.55-.9 1.17 0 .2.08.4.35.48.28.06.55-.07.69-.35.14-.55-.07-1.3-.14-1.3zM46.39 54.24c-.28 0-1.1 1.59-.48 2.34.13.14.27.2.48.2.2 0 .4-.06.48-.2.55-.75-.2-2.34-.48-2.34z" fill="#344887"/><path d="M42.74 52.6c0-.35.07-.62.07-.62h2.96V48.88a3.77 3.77 0 00-2.96 2.82c-.07.14-.34.2-.55.14-1.1-.14-3.3-.55-3.3-1.03 0-.7.48-.97.9-.97.62 0 1.3.35 1.85-.48-2 .07-.48-2.82-2.13-3.37.07.76 0 2.07-.27 2.75 0 0-.62-.61-1.24-.89.07.55-.07 1.65-.28 2.2 0 0-.68-.69-1.44-.9.69.97.69 2.41.48 3.24-.07.27.14.55.62.55.83-.07 3.58.07 4.74.55.35.14.7.34.83.62.14.34.41.89.82 1.17.21-.62.9-1.31 1.38-1.24.14 0 .27.27.34.48.07-.2.42-.83.76-.83s.69.49.82.9c.07-.28.21-.55.35-.55.48 0 1.1.41 1.3 1.17.21-.21 1.04-1.31 1.1-2.07h-7.15v-.55z" fill="#344887"/><path d="M44.53 52.6c0 .2.14.34.34.34s.35-.14.35-.35c0-.2-.14-.34-.35-.34-.2 0-.34.14-.34.34zM43.09 52.6c0 .2.13.34.34.34.2 0 .34-.14.34-.35 0-.2-.13-.34-.34-.34-.2 0-.34.14-.34.34zM14.62 54.1c-.13.14-.4.9-.27 1.38.07.2.14.28.34.28s.28-.14.35-.35c.07-.48-.28-1.23-.42-1.3zM17.17 56.24c-.14.2-.35.27-.41.34.06.07.27.2.48.2.13 0 .27-.06.34-.13.2-.41 0-.76-.07-.9-.07.14-.14.35-.34.49zM16.2 55.28c.28-.28.35-.49.28-.62-.07-.2-.69-.83-1.37-1.58 0 .13-.07.27-.07.4.48.7.69 1.38.55 2 .07.07.07.07.14.07.13.14.34-.07.48-.27zM17.17 55.34c0-.13 0-.2-.07-.27h-.07c-.07 0-.14.14-.2.2-.07.07-.14.21-.28.35l-.34.34c-.14.07-.21.2-.21.28v.07c.07.07.07.07.14.07s.27-.07.62-.42c.34-.34.4-.48.4-.62zM12.63 51.7s-.07.07-.14.2c.14 0 .35 0 .48.08v-.49c-.13 0-.27.14-.34.21z" fill="#344887"/><path d="M14.49 51.9s1.44 1.24 1.92 1.73c.14.13.28.13.42.06.06-.06.2-.06.34-.13a17.6 17.6 0 014.6-.55c.56 0 .7-.28.62-.55-.13-.83-.2-2.27.49-3.23-.76.27-1.45.89-1.45.89-.27-.48-.34-1.65-.27-2.2-.69.2-1.24.9-1.24.9-.28-.7-.34-2-.28-2.76-1.65.55-.13 3.5-2.13 3.37.55.83 1.24.48 1.86.48.41 0 .96.28.9.97-.08.48-2.76 1.03-3.86 1.03-.75 0-1.3-.21-1.65-.76-.2-.27-.34-.34-.55-.34-.27.06-.55.27-.55.96 0 .41.21 1.37.7 1.37.27.07.27-.75.13-1.23zM11.74 51.5h.2c-.2.27-.2.47-.13.54.13.14.2-.13.55-.48.34-.34.55-.48.48-.62-.07-.07-.28-.07-.55.14 0-.07.07-.14 0-.2-.14-.35-.62-.76-.96-.76h-.14c.14-.2.07-.35 0-.48-.07-.07-.14 0-.28.13 0-.06 0-.2-.07-.34-.4-.69-2.75-2.89-3.3-3.1-.34-.13-.4.08-.4.08s-.21.13-.08.4c.2.56 2.48 2.83 3.1 3.24.13.07.27.14.34.07-.14.14-.2.14-.07.27.07.07.2.14.41 0v.14c.14.28.55.83.9.96zM13.39 53.14c0-.2-.41-.61-.96-.61-.76 0-1.1.48-1.1.75 0 .48.48.55.61.55.49 0 1.38-.55 1.45-.69zM12.7 54.31c-.2.28-.27.55-.2.76.06.27.34.41.61.41.28 0 .55-.14.7-.34.27-.48.27-1.51.2-1.58-.28 0-.97.27-1.3.75zM5.96 43.59c-.2-.2-.68.14-.96-.07.14-.69.62 0 1.03-.41.2-.21.07-.48 0-.55-.2.2-.48.13-.55 0C5.96 41.32 5 40 4.04 40.15c.2.28.27 1.17.14 1.38.34.27.13.89-.28.68-.27-.13-.76-.82-.2-1.23 0-.21-.35-.21-.62.2.2-.75-1.24-.55-1.52-.34-.13.34-.34 1.79.42 1.51-.42.34-.35.69-.21.69.48-.55 1.1-.14 1.24.14.2.4-.42.68-.69.34-.2.07-1.1.07-1.3-.14-.14.96 1.23 2 2.4 1.45.14 0 .2.34 0 .55.07.13.41.2.55 0 .48-.49-.2-.97.41-1.1.14.27-.14.75.07.96.34.34.76-.35 1.24-.35 0-.55.62-.96.27-1.3zM2.4 42s-.2-.14.07-.48c.27-.28.41-.07.41-.07s.27.55.34.82c-.27 0-.82-.27-.82-.27zm2.2 1.72c-.14 0-.48.34-.62.13l-.76-.75.42-.42.4-.4.76.75c.07.2-.2.55-.2.69zM6.17 44.96c-.07 0-.14 0-.2.07-.08.07-.08.2-.08.35 0 .13.14.27.28.4.07.21.27.28.41.28.07 0 .14 0 .2-.07.15-.13.08-.55-.13-.75-.14-.14-.34-.28-.48-.28z" fill="#344887"/><path d="M3.97 42.7l-.2.2-.21.2s.4.56.75.35c.2-.34-.34-.76-.34-.76zM44.12 40.63c0 .14-.55.41-.96-.34-.42-.07-.83-.2-1.1-.35.48.97.89 1.8 1.58 2.2 1.03.62 2.61.48 3.1-.2a6.91 6.91 0 01-2.48-2.89c-.14.27-.35.76-.49 1.1.07.14.21.34.35.48zM53.67 25.57a15.7 15.7 0 003.44-2.26c.07.13.35.75-.48 1.44-.62.48-1.86 1.1-2.75 1.44a9.08 9.08 0 01-2.34 2.07c2.2-.35 4.82-1.24 6.12-2.48 2.4-2.4 1.17-5.3.83-5.98-1.58 2-4.6 4.06-7.43 5.16.96.13 1.93.34 2.61.61zM51.89 21.17a13.2 13.2 0 003.23-4.33c.34.21.48.9.07 1.65-.76 1.31-2.13 2.48-3.3 3.44a7.24 7.24 0 01-.83 2.61 23 23 0 004.6-4.05c1.18-1.52 1.66-3.03 1.45-4.54a5.76 5.76 0 00-1.65-3.85c-.34 1.86-2.2 5.02-3.85 6.8.14.62.28 1.52.28 2.27zM50.79 32.04c.34.41.69.9.96 1.3 1.3.28 2.89.21 2.89.21s-.07.69-.96.76c-.42 0-1.65-.21-2.14-.35-.2.07-1.16.35-2.13.48 1.38.48 3.37.97 4.6.97h.35a3.6 3.6 0 003.1-3.1c-.62.14-1.65.2-2.68.2-.97 0-2.69-.06-4-.47zM59.1 26.81a17.98 17.98 0 01-7.49 1.93c.62.41 1.24.82 1.65 1.24 1.03-.07 2.48-.42 3.3-.7 0 .14 0 .83-.96 1.1-.69.21-1.65.21-2.4.21-.63.42-1.52.76-2.28 1.04.7.06 1.59.13 2.34.13 1.3 0 2.55-.14 3.3-.41.69-.2 2.96-1.17 2.55-4.54zM49.48 36.3c.76.34 1.58.62 2.27.69 0 0-.14.68-1.17.55-.62-.07-1.3-.55-1.44-.62-.48.07-1.45.07-1.8 0 1.18.82 2.97 1.79 4.48 1.92h.2c1.59 0 2.82-1.58 3.17-2.33-1.58 0-4.33-.7-5.98-1.59.06.28.2.83.27 1.38zM46.73 38.43c.41.48 1.1.76 1.1.76s-.2.34-.62.34c-.13 0-.27-.07-.4-.14-.28-.13-.7-.62-.7-.62a9.86 9.86 0 01-1.5-.27c.82 1.03 2.2 2.34 3.7 2.68.2.07.42.07.7.07 1.3 0 2.4-.96 2.67-1.58a10.11 10.11 0 01-4.81-2.48c0 .42-.07.9-.14 1.24zM36.9 55.27c.76 0 1.24-.27 1.58-1.03-1.03.48-2.13.21-4.2-.4 0 0-.75.33-1.23.4 1.24.35 3.03.97 3.3 1.65.14.55-.2.7-.2.7-.7-.83-1.52-1.32-3.3-1.87 0 .35-.07.55-.07.55s-.35.07-1.17-.06c.68.55 2.33 1.99 2.54 3.5.14 1.03-.62 1.1-.62 1.1-.07-1.58-.75-2.54-2.27-4.12 0 0-.27.34-.55.55 0 0-.55-.07-.96-.42.2 2.07.28 7.02.14 7.77-.07.55-.41.83-.41.83s-.35-.2-.42-.83c-.13-.82 0-5.77.14-7.77-.48.28-.96.42-.96.42-.35-.2-.55-.55-.55-.55-1.45 1.58-2.13 2.61-2.27 4.12 0 0-.69-.07-.62-1.1.2-1.51 1.86-2.95 2.54-3.5-.75.13-1.16.06-1.16.06s-.07-.2-.07-.55c-1.8.55-2.55 1.04-3.3 1.86 0 0-.35-.07-.21-.69.28-.68 2.06-1.23 3.3-1.65-.41-.07-1.24-.4-1.24-.4-2 .61-3.16.88-4.2.4.28.76.83 1.03 1.59 1.03a3.67 3.67 0 00-2.13 2.27c.69 2.55 2.89 3.3 2.89 3.3-.55-1.23-.35-3.64 2.95-5.29-2 2-2.82 3.85-2.27 5.57.49 1.58 2.14 2.2 3.3 2.27-.82-2.62-.48-5.02 1.31-6.88-.76 2.06-1.86 8.46 1.24 9.49 3.1-1.03 2-7.43 1.24-9.49 1.78 1.93 2.13 4.26 1.3 6.88 1.24 0 2.82-.69 3.3-2.27.55-1.72-.2-3.58-2.27-5.57 3.3 1.65 3.5 4.12 2.96 5.3 0 0 2.2-.76 2.89-3.3 0-.97-.97-1.86-1.86-2.28zM15.59 42.14c.68-.4 1.1-1.23 1.58-2.2-.28.14-.69.28-1.1.35-.41.75-.96.48-.96.34.13-.14.27-.34.34-.48-.14-.34-.34-.83-.48-1.1a6.97 6.97 0 01-2.48 2.89c.48.68 2.07.82 3.1.2zM7.61 28.26a8.03 8.03 0 01-2.33-2.07c-.97-.34-2.2-.96-2.75-1.44-.83-.69-.55-1.3-.49-1.44a11.5 11.5 0 003.44 2.27c.69-.28 1.65-.49 2.61-.62a19.03 19.03 0 01-7.42-5.1c-.34.63-1.65 3.58.82 5.99 1.24 1.17 3.92 2.06 6.12 2.4zM8.1 24.48a6.84 6.84 0 01-.83-2.62 13.13 13.13 0 01-3.3-3.43c-.41-.76-.28-1.45.07-1.66.27.83 1.79 3.17 3.23 4.34 0-.76.14-1.65.34-2.27-1.65-1.79-3.57-4.95-3.85-6.8a5.76 5.76 0 00-1.65 3.84c-.2 1.51.28 3.03 1.45 4.54a19.1 19.1 0 004.53 4.05zM7.4 33.34c.21-.4.63-.89.97-1.3-1.3.34-3.03.41-3.92.41-1.1 0-2.13-.07-2.68-.2.07 1.1 1.1 2.95 3.1 3.09h.34c1.23 0 3.23-.48 4.6-.97a8.98 8.98 0 01-2.13-.48c-.55.28-1.79.48-2.2.42-.9-.07-.96-.76-.96-.76s1.58.07 2.89-.2zM2.6 31.42c.75.27 1.92.41 3.3.41.82 0 1.64-.07 2.33-.14a11.4 11.4 0 01-2.27-1.03c-.75 0-1.79-.07-2.4-.2-.97-.28-.97-.97-.97-1.1.83.34 2.27.68 3.3.68.42-.34.97-.82 1.65-1.23-2.47 0-5.7-.97-7.49-1.93-.41 3.3 1.86 4.26 2.54 4.54zM7.2 38.77h.2c1.52-.13 3.3-1.1 4.47-1.92-.34.07-1.37.07-1.78 0-.14.14-.9.55-1.45.62-1.1.14-1.17-.55-1.17-.55a7.73 7.73 0 002.27-.69c.07-.55.2-1.1.35-1.44a14.83 14.83 0 01-6.05 1.65c.34.75 1.58 2.33 3.16 2.33zM10.16 41.25c.2 0 .48 0 .68-.07 1.45-.34 2.9-1.65 3.72-2.68-.49.14-.97.27-1.52.27 0 0-.34.42-.68.62-.14.07-.28.14-.42.14-.4 0-.62-.34-.62-.34s.7-.35 1.1-.76a6.82 6.82 0 01-.13-1.24 9.82 9.82 0 01-4.82 2.48 3.1 3.1 0 002.69 1.58zM29 3.64c0 .35.27.55.54.55a.6.6 0 00.55-.55.54.54 0 00-.55-.55c-.27-.07-.55.21-.55.55zM29.2 2.4h.76l-.07-.96.82.14V.83l-.82.06.07-.89h-.76l.07.9-.83-.07v.75l.83-.14-.07.97zM26.52 11.48c.07 0 .2.07.27.07h5.5c.14 0 .2 0 .28-.07.2-.07.27-.2.34-.41h-6.74c.07.27.21.34.35.41zM32.57 10.66c.07 0 .07-.07.07-.07v-.41c0-.07-.07-.07-.07-.07h-5.98c-.07 0-.07.07-.07.07v.4c0 .08.07.08.07.08h5.98zM33.19 9.62c.13-.2.9-1.65.9-3.16 0-1.37-1.73-2.13-2.69-2.13-.14 1.93-.9 4.95-1.86 4.95-.89 0-1.72-3.02-1.85-4.95-1.03 0-2.68.76-2.68 2.13 0 1.51.75 3.03.89 3.16h7.29z" fill="#344887"/><path d="M29.54 8.32c.49 0 1.04-1.45 1.24-2.89 0-.27-.48-.69-1.24-.76-.75 0-1.23.42-1.23.76.2 1.3.82 2.89 1.23 2.89zM38.27 30.87c0-.2-.13-.34-.34-.34h-16.7c-.21 0-.35.13-.35.34V42.49s0 .62.28 1.3c.34.83 1.78 2.2 3.57 3.17a28.58 28.58 0 014.81 2.95c.76-.62 2.27-1.65 4.82-2.95 1.85-.97 3.23-2.34 3.57-3.17.34-.75.28-1.3.28-1.3l.06-11.62zm-5.63 4.2c.2.89.41 1.78.48 2.6.69.56 1.3 1.1 1.85 1.66 1.04-1.17 1.59-2.27 1.59-3.17a.91.91 0 01-.9-.9c0-.2.07-.33.14-.47a3.92 3.92 0 00-1.51-.28c-.42 0-.83.07-1.3.14h-.08l-.14.07.07-.07c.07-.14.07-.2.14-.34 1.38-.28 2.48-.14 3.16.27.14-.07.28-.14.42-.14.48 0 .89.42.89.9 0 .34-.2.62-.48.75 0 .97-.55 2.2-1.72 3.58l.2.2.14.14v.07l-.2.2h-.07-.07c-.07-.06-.07-.06-.07-.13-.07-.07-.07-.14-.14-.2l-.4.4-.15.21c-.2.14-.4.2-.55.14h-.07l.07-.07c.35-.27.62-.62.9-.82-.42-.48-.97-.97-1.52-1.45.07.48.07.97.07 1.45 0 .4 0 .89-.07 1.37-.06.07-.2.14-.27.2l-.07.08v-.07c.07-.55.07-1.1.07-1.58v-.62a14.07 14.07 0 00-.48-3.57v-.08l.2-.2-.13-.28zM27 33.82c.69-1.65 1.65-2.55 2.61-2.55s1.93.9 2.61 2.55v.06h-.06c-.07 0-.14.07-.28.14h-.07v-.07c-.62-1.44-1.44-2.27-2.27-2.27-.82 0-1.65.83-2.27 2.27v.07h-.06c-.07-.14-.21-.14-.21-.2zm-.28.4c.21.15.83.49 1.52.28.62-.2 1.3-.2 1.3-.2s.76 0 1.31.2c.69.2 1.3-.13 1.51-.27.07 0 .07 0 .07.07-.07.27-.27.96-1.3 1.23-.97.21-1.45 1.31-1.59 1.8 0 .06-.07.06-.13 0-.14-.49-.62-1.59-1.59-1.8a1.56 1.56 0 01-1.3-1.23c.14-.07.2-.07.2-.07zM28.37 37c.14 0 .35-.07.49-.14.06.14.13.34.2.48-.2.14-.41.2-.69.2a1.3 1.3 0 01-1.3-1.3 1 1 0 01.14-.48c.13.07.27.14.48.2-.07.08-.07.21-.07.28-.07.41.34.76.75.76zm-.34-.83v-.13c.2.06.41.27.55.4-.07.08-.14.08-.2.08-.21 0-.35-.14-.35-.35zm.34 1.79c.28 0 .62-.07.9-.27.07.06.2.34.27.34.14 0 .21-.28.28-.34.27.13.62.27.9.27.47 0 .89-.2 1.23-.48v.07c.14.55.2 1.24.14 1.51 0 .28-.14.55-.2.83-.15.34-.22.61-.22.61s0 .07-.06.21c-.07.28-.28.76-.55 1.24a3.18 3.18 0 00-1.8-.48c-.61 0-1.16.13-1.64.4-.2-.47-.41-.88-.48-1.1-.07-.13-.07-.2-.07-.2s-.14-.27-.28-.68c-.07-.21-.13-.49-.13-.76 0-.2-.07-.9.13-1.51 0-.07.07-.14.07-.21.48.28 1.03.55 1.51.55zm2.41-.96a.8.8 0 00.83-.83c0-.13 0-.2-.07-.27.13-.07.34-.14.48-.2.07.13.14.34.14.47 0 .76-.62 1.3-1.31 1.3-.28 0-.48-.06-.69-.2.07-.13.14-.27.2-.48.08.14.28.2.42.2zm-.2-.55c.13-.2.34-.35.54-.41v.13c0 .2-.13.35-.34.35-.07 0-.14 0-.2-.07zM22.6 34.5a1 1 0 01.48.14 3.44 3.44 0 011.79-.41c.41 0 .82.07 1.3.14h.07c0 .06.07.2.14.34l.07.07-.14-.07h-.14c-.4-.07-.82-.14-1.23-.14-.48 0-1.1.07-1.52.35a1 1 0 01.14.48c0 .48-.41.89-.9.89 0 .83.56 1.93 1.59 3.16.55-.55 1.17-1.17 1.86-1.65.06-.82.27-1.72.48-2.54v-.07l.07.07.2.2.07.07v.07c-.14.55-.27 1.03-.34 1.58v.07c-.07.42-.14.97-.14 1.52 0 .4-.07.75-.07 1.03 0 .4 0 .82.07 1.37v.07h-.07c-.14-.07-.2-.07-.27-.07h-.07v-.07c0-.34-.07-.82-.07-1.3 0-.48 0-.97.07-1.45-.55.48-1.1.97-1.52 1.45.35.4.83.82 1.38 1.3l.07.07h-.07a.59.59 0 01-.48 0c-.41-.41-.76-.69-1.1-1.03-.07.07-.14.14-.14.2l-.07.08c-.07 0-.14.06-.27.13l-.07-.07s-.07 0-.07-.06h-.07v-.07c.14-.21.28-.35.41-.48-1.17-1.31-1.72-2.55-1.72-3.51a.85.85 0 01-.48-.76c-.13-.68.28-1.1.76-1.1zm9.76 10.66c-.48 1.37-1.17 2.34-1.92 2.75-.07.41-.42.76-.83.76s-.75-.35-.82-.76c-.76-.41-1.45-1.3-1.93-2.68v-.07l.41-.14v.07c.42 1.17.97 2 1.59 2.4.13-.34.4-.61.82-.61.41 0 .69.27.83.55a4.81 4.81 0 001.58-2.34v-.07h.07c0 .07.06.07.2.14zm-3.5-.07c0-.27.06-1.03.2-1.3.14-.07.35-.14.55-.14.2 0 .41.07.62.2.07.28.2.97.2 1.24 0 .28-.68.48-.75.55-.2-.07-.82-.2-.82-.55zm8.8-2.75c-.07.07-.14.14-.21.14-.07 0-.14.07-.28.07h-.06c-.14 0-.28 0-.35-.07-.07 0-.07-.07-.14-.07-.2 0-.68.14-.82.2.07 0 .69.07 1.1.42.2.14.62.2.76.2 0 .07-.7.55-2 .28l-.34-.07a7.93 7.93 0 00-1.79-.2c.07 0 .14.06.14.06.14.07.34.14.48.2 0 0 .07 0 .07.08h.07c.07 0 .13 0 .13.07.07 0 .14.07.21.07.07.06.2.13.2.2s.08.07.08.14c0 .14 0 .2-.07.34-.2.28-.48.28-.76 0l-.07-.07c-.07-.06-.14-.13-.2-.27V44h-.07c-.14-.07-.2-.2-.35-.2l-.68-.21h-.21c.2.14.41.27.48.41v.07c.14.2.14.41.2.62.21.41.28.48.49.62-.2.07-1.24.07-1.72-.7 0 0-.07-.06-.07-.13-.14-.27-.2-.55-.27-.75-.07-.21.06-.42-.07-.49-.14-.06-.2 0-.2 0l-.08.07v.07c0 .07-.07.07-.07.07v.07s0 .07-.07.07h-.2-.07s-.07 0-.07.07c-.07 0-.14.07-.2.07a.15.15 0 01-.14-.14v-.14h-.14c-.07 0-.07 0-.14-.07v-.14-.06c-.07.06-.07.06-.14.06h-.13c-.07 0-.07-.06-.07-.13v-.07-.07h-.14c-.07 0-.2-.07-.27-.07h-.07c-.07 0-.2.07-.28.07h-.14v-.07-.07l.07-.07v-.07h-.13v.07h-.07v.14c0 .07 0 .14-.07.14-.07.07-.07.07-.14 0 0 0-.07 0-.07-.07 0 0-.07 0-.07-.07 0 0 0 .07.07.07v.14c-.07.07-.07.07-.14.07h-.13c0 .06.07.06 0 .13 0 .07-.07.07-.14.07h-.14-.14l-.06-.07h-.14s-.07 0-.07-.07l-.07-.06v-.07c-.14-.14-.34.34-.34.34-.62 1.3-2.13 1.58-2.13 1.51 0 0 .34-.13.48-.62.07-.27.07-.34.2-.61 0-.07.07-.07.07-.14.07-.14.28-.2.41-.35h-.2c-.2.07-.41.07-.69.21-.14.07-.2.14-.34.2h-.07v.08c0 .06-.07.13-.14.27l-.07.07c-.27.27-.48.27-.75 0l-.07-.07a.2.2 0 010-.27c0-.07.07-.14.13-.21.07-.07.14-.07.21-.14.07-.07.14-.07.2-.07.08 0 .08 0 .14-.07h.14s0-.06.07-.06.14-.07.2-.07c.08 0 .14-.07.21-.07 0 0 .07 0 .14-.07-.55 0-1.1.07-1.72.2-.07 0-.2.07-.34.07-.69.14-2-.2-2-.27s.35-.07.7-.28c.27-.13.4-.27.61-.34.34.28.76.28.83.28-.14-.07-.76-.14-.97-.21 0 0-.07.07-.13.07-.14.07-.28.07-.42.07-.07 0-.2 0-.27-.07-.07 0-.14-.07-.2-.14-.08-.07-.08-.14-.08-.34.07-.28.35-.42.7-.35.2.07.33.14.4.2l.07.08c.2 0 .48.14.76.2.27.14.48.21.62.21-.07 0-.14-.07-.2-.07-.08 0-.15-.07-.15-.07-.07-.07-.13-.07-.2-.13-.42-.21-.83-.42-1.1-.7-.2-.27-.28-.4-.35-.68-.07-.62-.34-.9-.34-.96.07-.07 1.03.41 1.37.75.21.28.28.49.35.7v.06c.07.2.27.41.62.62.07 0 .07.07.13.07-.06-.14-.13-.2-.2-.35v-.06l-.07-.07s-.07-.07-.07-.14c-.07-.07-.07-.14-.14-.2-.07-.21-.07-.42 0-.49a.95.95 0 01.28-.2c.27-.07.48.06.55.48v.55c.14.4.48.75.9 1.03-.49-.41-.76-1.38-.7-1.38.07-.07.49.2.9.42.2.06.41.2.62.34.13.07.27.2.34.27.14.07.2.21.28.28l.2.2.14.14c.14.07.34 0 .34 0 .07 0 .14 0 .21-.07l.07-.06c.07-.07.14-.07.2-.07v-.07c0-.14.07-.2.21-.28 0 0 .07 0 .07-.07H28.31c0-.06.06-.06.13-.13a.42.42 0 01.48.07c.07.06.07.13.14.2V42.63H29.47c.07 0 .14 0 .21.06.07 0 .14-.06.2-.06H30.1v-.21c0-.07 0-.14.07-.2 0 0 0-.08.07-.08l.07-.06a.44.44 0 01.41 0c.07 0 .07.06.14.13h.27c.14.07.21.14.21.28h.14s.34 0 .41.07h.34l.14-.14.28-.28c.13-.06.2-.2.34-.27.2-.14.48-.2.69-.28.69-.27.75-.68.82-.68.07.07-.13 1.17-.62 1.58.35-.28.7-.62.9-1.03v-.14-.2-.21c.14-.35.27-.55.55-.48.14.06.2.13.27.2.07.14.07.28 0 .48 0 .07-.07.14-.13.2l-.14.15-.07.07v.06c-.07.14-.14.21-.28.35l.14-.14c.35-.27.55-.48.62-.69.07-.2.14-.41.34-.68.35-.35.42-.49.76-.7a2 2 0 01.62-.13c.07.07-.34.2-.48.9-.07.2-.14.54-.35.82-.27.34-.55.41-.89.62l-.07.07c-.07.07-.14.07-.27.13-.14.07-.2.14-.28.14.2-.07.41-.14.69-.2.2-.14.48-.21.76-.21 0 0 0-.07.06-.07.07-.07.21-.14.42-.2.34-.14.62 0 .68.34.07.2 0 .34-.06.41z" fill="#344887"/><path d="M49.69 28.53a12.55 12.55 0 003.44-2.47 15.1 15.1 0 00-4-.55c2.28-1.59 2.35-4.89 1.73-7.3-.55 1.93-1.93 3.52-2.82 4.48.07.96-.2 2.61-.76 3.57.76.28 1.65.69 2.27 1.17-.41.55-1.3 1.3-1.86 1.79a22.1 22.1 0 011.65 1.92c-.55.42-1.65.83-2.26 1.03.27.62.68 1.66.82 2.41-.69.14-1.58.2-2.54.2.07.7-.07 1.8-.2 2.48a6.69 6.69 0 01-2.42-.68c-.27.96-.89 1.92-.89 1.99-.82-.96-1.65-1.3-2.4-1.3v-.63c.75 0 1.58.28 2.2.9.27-.48.54-1.38.68-1.93.55.28 1.45.62 2.2.76.07-.69.14-1.58.07-2.27.76.07 1.58.07 2.48-.07a9.15 9.15 0 00-1.04-2.2c.76-.2 1.72-.62 2.2-.9a19.6 19.6 0 00-1.58-1.78c.55-.41 1.45-1.1 1.8-1.51a12.5 12.5 0 00-2.14-1.1c.96-1.3 1.17-3.99.96-5.23-.82 2.82-3.3 4.88-4.81 5.85-.07.07-.14.13-.2.13-.08.07-.35.42-.21.83 0 .14.07.2.07.34.13.55.13 1.38-.7 2.13a2.5 2.5 0 01-1.99.62V29.7c0-.2-.13-.34-.34-.34h-1.03l-.48-.48h1.03c.55-.07 1.17-.35 1.17-.35s-.62 0-.9-.07c-.34.07-1.1-.27-1.71-.96-.21-.27-.42-.55-.55-.82a5.97 5.97 0 01-1.59-2 8.1 8.1 0 01-.48-2.06c-.2.14-.41.41-.68.75-.49.62-.7 1.52-.7 1.52l-.2.68-.34-.61s-.48-.83-.55-1.86c0-.48 0-.9.07-1.24a6.35 6.35 0 00-1.86 1.58 5.8 5.8 0 00-.76 1.24 4.5 4.5 0 00-.75-1.24s-.41-.68-1.3-1.23c-.21-.14-.42-.28-.56-.35.07.35.07.83.07 1.24-.07 1.03-.55 1.79-.55 1.86l-.34.55-.21-.7s-.27-.88-.69-1.5c-.27-.35-.48-.62-.68-.76-.07.55-.21 1.51-.49 2.06-.4.9-.96 1.58-1.58 2a3.64 3.64 0 01-2.27 1.93c-.27.06-.89.06-.89.06s.62.27 1.17.34c.55.07 1.03 0 1.03 0l-.48.48h-1.03c-.2 0-.35.14-.35.35v1.51c-.48.07-1.37 0-1.99-.62a2.23 2.23 0 01-.69-2.13c.07-.07.07-.2.07-.34.14-.42-.14-.76-.2-.83-.07-.07-.14-.13-.21-.13-1.51-.97-3.92-3.03-4.81-5.85-.21 1.24.07 3.85.96 5.23-.69.27-1.58.68-2.13 1.1a9.87 9.87 0 001.79 1.5 9.82 9.82 0 00-1.59 1.8c.49.27 1.45.68 2.2.89-.34.55-.89 1.58-1.03 2.2.83.14 1.72.14 2.48.07-.07.69 0 1.65.07 2.27a6.92 6.92 0 002.2-.76c.13.48.4 1.45.68 1.93.62-.62 1.45-.9 2.2-.9v.62c-.75 0-1.58.34-2.4 1.3 0-.06-.62-1.02-.9-1.99-.48.21-1.5.62-2.4.7-.14-.7-.2-1.8-.2-2.48-.97 0-1.86-.07-2.55-.21.14-.76.55-1.79.82-2.4a13.5 13.5 0 01-2.27-1.04 14.4 14.4 0 011.65-1.92 11.42 11.42 0 01-1.85-1.79c.62-.48 1.51-.9 2.27-1.17a7.8 7.8 0 01-.76-3.57c-.96-.97-2.34-2.55-2.82-4.47-.69 2.4-.55 5.77 1.72 7.29-1.1 0-3.02.27-3.99.55.69.82 2.4 1.92 3.44 2.47-.82.27-2.27 1.1-2.89 1.65.76.48 2.48 1.03 3.3 1.24-.48.41-1.44 1.51-1.78 2.06.68.2 2.06.41 2.95.41a9.53 9.53 0 00-.69 2.27c.42.07 1.86 0 2.62-.2-.07.61-.07 1.64.07 2.13.68-.07 1.71-.42 2.2-.55.13.55.61 1.65.82 1.92.34-.07.69-.14 1.03-.27.96-.35 2 .07 2.4.96.7 1.58.42 3.44-.89 3.1-1.5.27-.48 2.2-1.37 2.81 1.17.83 1.51-1.1 3.02-.75-.13.68-.13 1.99 0 2.54a4.43 4.43 0 011.59-.69c-.14.41-.21 1.38-.07 2 .27-.21 2.27-.76 2.27-.76s-.76 1.51-.28 3.02c.28.21 2.06-.68 2.06-1.16.07.61-.68 1.99-1.85 2.26 1.23 1.24 2.33 1.17 2.47 1.17.2 0 .35 0 .48-.13-.07.34-.13.82-.07 1.1H27c.34 0 .62-.07.83-.14.06.34.2.69.4.96l.15.14c.27 0 .96-.35 1.1-.55.13.2.82.55 1.1.55.06-.07.13-.07.13-.14.28-.27.42-.69.42-.96.27.14.55.14.82.14h.2c.08-.28.08-.76-.06-1.1.14.06.34.13.48.13.14 0 1.24.07 2.47-1.17-1.16-.27-1.92-1.65-1.85-2.26 0 .55 1.79 1.37 2.06 1.16.48-1.5-.27-3.02-.27-3.02s1.92.48 2.26.76c.14-.62.07-1.59-.06-2 .4 0 1.1.35 1.58.69.13-.55.13-1.79 0-2.54 1.44-.35 1.78 1.58 3.02.75-.82-.62.2-2.54-1.37-2.82-1.3.41-1.58-1.51-.9-3.1.42-.88 1.52-1.3 2.4-.95.35.13.7.2 1.04.27.14-.27.69-1.37.83-1.92.48.2 1.5.48 2.2.55.06-.48.13-1.52.06-2.13.7.13 2.2.2 2.62.2a7.93 7.93 0 00-.7-2.27c.9-.07 2.28-.2 2.97-.41a8.8 8.8 0 00-1.8-2.06c.83-.2 2.55-.76 3.3-1.24a7.49 7.49 0 00-2.74-1.72zM38.55 44c-.07.14-.14.2-.2.34 0 .07-.07.07-.07.14-.07.07-.14.14-.21.28l-.14.13c-.07.14-.2.21-.27.35l-.2.2-.22.21-.27.28-.14.13c-.2.2-.48.42-.75.55-.35.28-.7.48-1.1.69l-.42.2c-3.1 1.59-4.6 2.83-5.08 3.17h-.07c-.48-.41-2-1.58-5.1-3.16l-.4-.21c-.42-.2-.76-.41-1.1-.69-.28-.2-.48-.41-.76-.55-.07-.07-.14-.07-.14-.13-.07-.07-.2-.14-.27-.28l-.2-.2-.21-.21a1.2 1.2 0 01-.28-.35l-.14-.13a.95.95 0 01-.2-.28c0-.07-.07-.07-.07-.14-.07-.13-.14-.2-.2-.34-.42-.9-.35-1.65-.35-1.65V30.32c0-.2.14-.34.34-.34h18.15c.2 0 .35.13.35.34v12.03c.06 0 .13.76-.28 1.65zM38.14 11c.27 0 .41-.2.41-.48 0-.28-.2-.48-.41-.48-.28 0-.42.2-.42.48 0 .27.21.48.42.48zM38.14 13.54c.27 0 .55-1.16.55-1.71a.54.54 0 00-.55-.55c-.28 0-.55.2-.55.55 0 .55.27 1.71.55 1.71zM37.86 9.35h.62l-.14-.76.76.07v-.62l-.76.14.14-.75h-.62l.07.75-.76-.14v.62l.76-.07-.07.76z" fill="#344887"/><path d="M35.46 14.92c.2.07.4.07.61.14H36.96c.56 0 1.1-.14 1.66-.28.55-.14 1.1-.27 1.72-.27H40.75c.14-.62.34-1.31.34-1.72 0-.83-.48-1.72-2.06-2 0 1.04-.48 3.44-1.03 3.44h-.07c-.55 0-1.03-2.4-1.03-3.44-1.58.28-2.06 1.17-2.06 2 0 .48.2 1.37.4 2 .22.06.22.06.22.13zM43.7 10.59s-.4-1.1.28-1.45c.76-.27-.27-.13.28-1.65.61-1.78 1.99-1.37 1.99-1.37-.96-.76-1.72-.69-2.27-.28-.34.28-.82.83-1.17 1.93-.27 1.37.2 2.68.9 2.82z" fill="#344887"/><path d="M47.28 7.9c.07 2.28 3.85 3.24 3.85 3.24s-2.2-1.58-1.79-2.75c0 0 1.45.62 3.1.34-3.5-.75-2.34-1.85-3.23-2.75-.9-.96-2.27-1.03-2.62-1.1-.89-.07-.96-.07-1.99.2 2.4.08 2.68 1.31 2.68 2.83zM46.8 12.17c.48-1.79-.41-2.61-.41-2.61-.28-.35-1.72-.28-2.27.07 0 0 1.37 0 1.17 1.99-.2 2-2.96 2.4-3.71 2.47l-.07.28c1.3 0 4.74-.41 5.29-2.2zM32.43 12.1h-1.38c.7 1.92 2.69 2.54 4 2.75l-.08-.2c-1.37-.56-2.06-1.1-2.54-2.55zM21.02 11c.27 0 .41-.2.41-.48 0-.28-.2-.48-.41-.48-.28 0-.41.2-.41.48-.07.27.13.48.41.48zM21.02 13.54c.27 0 .55-1.16.55-1.71a.54.54 0 00-.55-.55c-.28 0-.55.2-.55.55 0 .55.2 1.71.55 1.71zM20.67 9.35h.62l-.07-.76.76.07v-.62l-.76.14.07-.75h-.62l.14.75-.75-.14v.62l.75-.07-.14.76z" fill="#344887"/><path d="M18.27 14.5H18.68c.62.07 1.24.14 1.72.28s1.1.28 1.65.28H22.94c.21 0 .42-.07.62-.14 0-.07 0-.07.07-.07.2-.62.41-1.51.41-2 0-.82-.4-1.71-2.06-1.99 0 .96-.48 3.44-1.03 3.44h-.07c-.55 0-1.03-2.4-1.03-3.44-1.58.28-2.06 1.17-2.06 2 0 .4.14 1.1.34 1.71.07-.06.07-.06.14-.06zM12.84 6.12s1.37-.41 2 1.37c.54 1.52-.5 1.38.27 1.65.75.28.27 1.45.27 1.45.76-.14 1.24-1.45.83-2.89a3.82 3.82 0 00-1.17-1.93c-.55-.34-1.24-.4-2.2.35z" fill="#344887"/><path d="M9.74 8.39c.42 1.17-1.78 2.75-1.78 2.75s3.85-.97 3.85-3.23c.07-1.52.27-2.75 2.6-2.82-1.02-.2-1.1-.2-1.98-.2a3.9 3.9 0 00-2.62 1.1c-.82.88.28 1.98-3.23 2.74 1.72.28 3.16-.34 3.16-.34zM13.87 11.62c-.2-2 1.17-2 1.17-2-.48-.34-1.93-.34-2.27-.06 0 0-.9.75-.41 2.6.48 1.8 3.98 2.2 5.29 2.2l-.07-.27c-.76-.07-3.5-.48-3.71-2.47zM28.1 12.1h-1.37c-.49 1.44-1.17 2-2.55 2.54l-.07.21c1.38-.2 3.3-.83 3.99-2.75zM31.33 20.56c-.41.62-.76 1.3-1.03 1.99.2-.27.55-.55.9-.82.61-.42 1.16-.7 1.16-.7l.55-.2-.14.55s-.2.9-.13 1.65c0 .35.13.69.2.9.14-.35.35-.7.55-1.04.69-.89 1.24-1.23 1.24-1.23l.41-.21v.48s.14 1.58.48 2.4A5.3 5.3 0 0038 26.82l-.34-.34c-.35-.34-.7-.96-.9-2.27-.14-1.1.28-2.2.41-2.54.07.27.21.55.35.62 0 0 0-.28.07-.55.13-.76.96-1.93 2.06-2.62.2-.13.41-.27.55-.34.2-.07.34-.2.48-.34-.2 0-.48.06-.69.06H39.31c-.55 0-1.17-.06-1.65-.48a2.23 2.23 0 01-.76-1.1h-.83c-.4 0-.75-.13-.96-.13a3.9 3.9 0 01-1.79.55h-.27c.2.2.48.34.69.48h.07l-.14.07c.07-.07-.9.48-2.34 2.68zM40.34 16.7h-.76v.42c.07.2.14.34.28.48.2-.14.4-.48.48-.9z" fill="#344887"/><path d="M40.89 15.13c-.07 0-.07 0 0 0h-.28c-.55 0-1.1.13-1.65.27-.55.14-1.17.28-1.72.28H36.42h-.07-.07a6.98 6.98 0 01-2.47-.76c.06.14.2.27.4.48l.21.2c.14.14.35.28.55.42.28.14 1.45.62 2.96.41 1.72-.27 2.06-.2 2.48-.2h.13c.62.06 1.52.4 1.86.61.14-.34.34-.68.41-1.03a1.7 1.7 0 00-.48-.34c-.07-.07-.14-.07-.27-.14a1.37 1.37 0 00-.62-.14c-.28-.06-.42-.06-.55-.06zM45.7 20.76c-.07 0-.69.35-2-.48a10 10 0 00-2.81-1.3c-.14.06-.2.13-.35.2l-.55.34c-.06.07-.13.07-.2.14h.14c1.23.14 2.2.83 2.26 1.1h.07c.14-.41-.07-.75-.07-.75s.55.34 1.65.96c1.17.75 1.65.07 1.86-.2zM39.17 17.4c-.07-.07-.14-.21-.2-.28-.08-.14-.08-.2-.08-.28-.27 0-.62.07-1.03.14h-.27c.2.41.55.83 1.23.96h.28c.27.07.62.07.82.07.49 0 1.04-.07 1.59-.2.13-.14.2-.35.34-.48 0 0-.07-.07-.14-.07-.14-.07-.48-.28-.69-.35-.06.2-.2.41-.34.55-.2.14-.48.2-.76.2-.27 0-.55-.06-.68-.2-.07 0-.07-.07-.07-.07zM42.81 16.36a5.97 5.97 0 01-1.58 2.34c3.1-.83 3.65.76 3.65.82 0 .07 0 .07.06 0 .07-.06 1.1-1.16.35-2.2-.62-.82-2-.96-2.48-.96zm0 .83c.14-.14.2-.42.2-.42.22 0 .63.07.63.35-.28-.07-.62-.07-.83.07zM19.58 17.12v-.41h-.76c.07.4.27.75.48.89.14-.14.2-.28.28-.48zM23.08 15.6c-.07 0-.07 0 0 0-.07 0-.07 0 0 0H22.12c-.62 0-1.17-.13-1.72-.27-.62-.07-1.17-.2-1.72-.2h-.14H18.13c-.27 0-.48.06-.62.13-.07.07-.2.07-.27.14-.2.14-.35.2-.48.34.06.35.27.76.4 1.03.35-.2 1.25-.61 1.86-.61h.14c.41 0 .76-.07 2.48.2 1.51.2 2.61-.27 2.95-.41.21-.14.42-.28.55-.41l.21-.2c.14-.22.27-.35.41-.49-.62.2-1.44.62-2.68.76zM13.46 20.76c.2.2.68.97 1.78.35s1.65-.97 1.65-.97-.2.35-.07.76h.07c.14-.27 1.1-1.03 2.27-1.1h.14c-.07-.07-.14-.07-.2-.14-.21-.13-.42-.27-.56-.34-.13-.07-.2-.14-.34-.2a8.3 8.3 0 00-2.82 1.3c-1.24.69-1.86.34-1.92.34z" fill="#344887"/><path d="M18.13 16.91l-.69.35c-.07 0-.07.06-.13.06.13.21.2.35.34.49.55.13 1.1.2 1.58.2.28 0 .55 0 .83-.07h.27a1.7 1.7 0 001.24-.96h-.28c-.41-.07-.75-.14-1.03-.14 0 .07-.07.21-.07.28-.07.14-.13.2-.2.27l-.07.07c-.2.14-.41.2-.69.2-.27 0-.55-.06-.76-.2-.2-.14-.27-.34-.34-.55zM13.8 17.32c-.76 1.04.27 2.14.34 2.2.07.07.07 0 .07 0 0-.06.55-1.65 3.65-.82a5.97 5.97 0 01-1.59-2.34c-.4 0-1.85.14-2.47.96zm2.54-.13c-.2-.14-.55-.14-.82-.07 0-.28.41-.35.62-.35 0 0 .07.28.2.42z" fill="#344887"/><path d="M26.04 17.33h-.28c-.69 0-1.24-.21-1.79-.55-.2.06-.62.13-.96.13h-.82c-.07.28-.28.76-.76 1.1-.48.42-1.1.48-1.65.48h-.69c-.14 0-.41-.06-.69-.06.21.13.35.2.49.34l.55.34c1.1.76 1.92 1.86 2.06 2.62.07.27.07.55.07.55.13-.07.27-.35.34-.62.14.34.62 1.44.41 2.54-.2 1.3-.55 1.93-.89 2.27l-.34.34a5.29 5.29 0 002.47-2.47c.34-.76.48-2.34.48-2.34v-.48l.41.2s.62.35 1.24 1.24c.2.35.41.69.55 1.03.07-.27.14-.55.2-.89.08-.82-.13-1.65-.13-1.65l-.14-.55.55.2s.55.21 1.17.7c.41.27.69.54.9.82-.28-.69-.55-1.38-1.04-2-1.44-2.2-2.33-2.68-2.33-2.68l-.14-.06h.07c.2-.21.48-.42.69-.55z" fill="#344887"/></svg>
