<svg width="143" height="38" viewBox="0 0 143 38" fill="none" xmlns="http://www.w3.org/2000/svg">
<path d="M44.3223 12.8353H43.5723V8.25195H44.3223L45.8639 10.3353L47.4056 8.25195H48.1556V12.8353H47.4056V9.33529L46.0723 11.0853H45.6139L44.2806 9.33529L44.3223 12.8353Z" fill="#344887"/>
<path d="M50.03 12.8353H49.3633V8.25195H50.1133V11.627L52.7383 8.25195H53.405V12.8353H52.655V9.46029L50.03 12.8353Z" fill="#344887"/>
<path d="M55.3213 12.8353H54.5713V8.25195H55.3213V10.0853H57.8213V8.25195H58.5713V12.8353H57.8213V10.7103H55.3213V12.8353Z" fill="#344887"/>
<path d="M60.4053 12.8353H59.7803V8.25195H60.5303V11.627L63.1553 8.25195H63.822V12.8353H63.072V9.46029L60.4053 12.8353Z" fill="#344887"/>
<path d="M67.2803 12.918C66.5719 12.918 65.9469 12.7097 65.4886 12.2513C64.9886 11.793 64.7803 11.2096 64.7803 10.543C64.7803 9.83464 65.0303 9.29297 65.4886 8.83464C65.9886 8.3763 66.5719 8.16797 67.2803 8.16797C67.7803 8.16797 68.197 8.29297 68.572 8.45964V9.16797C68.197 8.91797 67.7803 8.79297 67.2803 8.79297C66.7803 8.79297 66.3636 8.95964 66.0303 9.29297C65.6969 9.62631 65.5303 10.0013 65.5303 10.5013C65.5303 11.0013 65.6969 11.418 66.0303 11.7097C66.3636 12.043 66.7803 12.2097 67.322 12.2097C67.8636 12.2097 68.322 12.0847 68.697 11.793V12.5013C68.2386 12.793 67.7803 12.918 67.2803 12.918Z" fill="#344887"/>
<path d="M69.2803 8.91862V8.25195H73.197V8.91862H71.6136V12.877H70.8636V8.91862H69.2803Z" fill="#344887"/>
<path d="M77.4893 12.8353H73.9893V8.25195H77.4059V8.91862H74.7393V10.0853H76.9059V10.752H74.7393V12.1686H77.4893V12.8353Z" fill="#344887"/>
<path d="M79.0296 12.8353H78.3213V8.25195H80.4046C80.9046 8.25195 81.3213 8.37695 81.5713 8.62695C81.863 8.87696 82.0296 9.21029 82.0296 9.58529C82.0296 9.96029 81.863 10.2936 81.5713 10.5853C81.2796 10.8353 80.9046 10.9603 80.4046 10.9603H79.0713V12.8353H79.0296ZM79.0296 8.91862V10.2936H80.2796C80.5713 10.2936 80.7796 10.2103 80.9463 10.127C81.113 10.002 81.1963 9.83529 81.1963 9.62696C81.1963 9.41862 81.113 9.25196 80.9463 9.12696C80.7796 9.00196 80.5713 8.96029 80.2796 8.96029L79.0296 8.91862Z" fill="#344887"/>
<path d="M85.1553 12.918C84.4469 12.918 83.822 12.7097 83.3636 12.2513C82.8636 11.793 82.6553 11.2096 82.6553 10.543C82.6553 9.83464 82.9053 9.29297 83.3636 8.83464C83.8636 8.3763 84.4469 8.16797 85.1553 8.16797C85.6553 8.16797 86.072 8.29297 86.447 8.45964V9.16797C86.072 8.91797 85.6553 8.79297 85.1553 8.79297C84.6553 8.79297 84.2386 8.95964 83.9053 9.29297C83.5719 9.62631 83.4053 10.0013 83.4053 10.5013C83.4053 11.0013 83.5719 11.418 83.9053 11.7097C84.2386 12.043 84.6553 12.2097 85.197 12.2097C85.7386 12.2097 86.197 12.0847 86.572 11.793V12.5013C86.1553 12.793 85.697 12.918 85.1553 12.918Z" fill="#344887"/>
<path d="M87.1553 8.91862V8.25195H91.072V8.91862H89.4886V12.877H88.7386V8.91862H87.1553Z" fill="#344887"/>
<path d="M94.1986 12.8353H91.8652V8.25195H94.0319C94.4902 8.25195 94.7819 8.37695 95.0736 8.54362C95.3236 8.75195 95.4486 9.04362 95.4486 9.37696C95.4486 9.58529 95.3652 9.79363 95.2819 9.96029C95.1569 10.127 95.0319 10.252 94.8236 10.2936C95.1153 10.3353 95.3653 10.502 95.5319 10.7103C95.6986 10.9186 95.8236 11.2103 95.8236 11.5436C95.8236 11.9186 95.6569 12.252 95.3652 12.502C95.1152 12.7103 94.7403 12.8353 94.1986 12.8353ZM92.6152 8.91862V10.0853H93.9069C94.1569 10.0853 94.3652 10.0436 94.4902 9.91863C94.6152 9.79363 94.6986 9.66863 94.6986 9.46029C94.6986 9.25196 94.6152 9.12696 94.4902 9.00196C94.3652 8.87696 94.1569 8.83529 93.9069 8.83529H92.6152V8.91862ZM92.6152 10.7103V12.1686H94.0736C94.3652 12.1686 94.6152 12.0853 94.7402 11.9603C94.9069 11.8353 94.9902 11.6686 94.9902 11.4186C94.9902 11.2103 94.9069 11.0436 94.7402 10.877C94.5736 10.752 94.3652 10.7103 94.0736 10.7103H92.6152Z" fill="#344887"/>
<path d="M100.739 12.2513C100.281 12.7097 99.6973 12.918 98.9889 12.918C98.2806 12.918 97.6973 12.7097 97.2389 12.2513C96.7806 11.793 96.5723 11.2096 96.5723 10.543C96.5723 9.87631 96.7806 9.29297 97.2389 8.87631C97.6973 8.41797 98.2806 8.16797 98.9889 8.16797C99.6973 8.16797 100.281 8.41797 100.739 8.87631C101.197 9.33464 101.447 9.91798 101.447 10.543C101.447 11.168 101.197 11.793 100.739 12.2513ZM97.8223 11.7513C98.1556 12.0847 98.5306 12.2513 98.9889 12.2513C99.4473 12.2513 99.8639 12.0847 100.156 11.7513C100.489 11.418 100.656 11.0013 100.656 10.543C100.656 10.043 100.489 9.62631 100.156 9.33464C99.8223 9.00131 99.4473 8.83464 98.9889 8.83464C98.5306 8.83464 98.1139 9.00131 97.8223 9.33464C97.4889 9.66798 97.3223 10.043 97.3223 10.543C97.3223 11.043 97.4889 11.418 97.8223 11.7513Z" fill="#344887"/>
<path d="M104.989 12.8353H104.239V8.25195H104.989V10.0853H107.489V8.25195H108.239V12.8353H107.489V10.7103H104.989V12.8353Z" fill="#344887"/>
<path d="M109.781 12.834H108.989L111.073 8.20898H111.781L113.864 12.834H113.073L112.531 11.709H110.281L109.781 12.834ZM111.448 9.12566L110.573 11.0423H112.323L111.448 9.12566Z" fill="#344887"/>
<path d="M115.323 12.9173C115.031 12.9173 114.781 12.8757 114.656 12.7923V12.1257C114.823 12.209 114.989 12.2507 115.198 12.2507C115.406 12.2507 115.531 12.209 115.698 12.084C115.823 12.0007 115.948 11.7923 116.114 11.459L114.239 8.20898H115.114L116.531 10.709L117.698 8.20898H118.489L116.739 11.834C116.364 12.584 115.906 12.9173 115.323 12.9173Z" fill="#344887"/>
<path d="M119.947 12.8353H119.197V8.25195H119.947V10.127L121.906 8.25195H122.864L120.656 10.3353L123.239 12.8353H122.239L119.989 10.627V12.8353H119.947Z" fill="#344887"/>
<path d="M124.572 12.8353H123.947V8.25195H124.697V11.627L127.322 8.25195H127.989V12.8353H127.239V9.46029L124.572 12.8353Z" fill="#344887"/>
<path d="M44.2393 20.7923H43.6143V16.209H44.3643V19.584L46.9893 16.209H47.6559V20.7923H46.9059V17.4173L44.2393 20.7923Z" fill="#344887"/>
<path d="M52.9476 20.7923H50.6143V16.209H52.7809C53.2393 16.209 53.5309 16.334 53.8226 16.5007C54.0726 16.709 54.1976 17.0007 54.1976 17.334C54.1976 17.5423 54.1143 17.7507 54.0309 17.9173C53.9476 18.084 53.7809 18.209 53.5726 18.2507C53.8643 18.2923 54.1143 18.459 54.2809 18.6673C54.4476 18.8757 54.5726 19.1673 54.5726 19.5007C54.5726 19.8757 54.4059 20.209 54.1143 20.459C53.8226 20.6673 53.4476 20.7923 52.9476 20.7923ZM51.3643 16.834V18.0007H52.6559C52.9059 18.0007 53.1143 17.959 53.2393 17.834C53.3643 17.709 53.4476 17.584 53.4476 17.3757C53.4476 17.1673 53.3643 17.0423 53.2393 16.9173C53.1143 16.7923 52.9059 16.7507 52.6559 16.7507H51.3643V16.834ZM51.3643 18.6673V20.1257H52.8226C53.1143 20.1257 53.3643 20.0423 53.4893 19.9173C53.6559 19.7923 53.7393 19.6257 53.7393 19.3757C53.7393 19.1673 53.6559 19.0007 53.4893 18.834C53.3226 18.709 53.1143 18.6673 52.8226 18.6673H51.3643Z" fill="#344887"/>
<path d="M57.3216 20.7923H55.4883V16.209H56.2383V17.7923H57.3216C57.8633 17.7923 58.3216 17.9173 58.655 18.209C58.9883 18.5007 59.155 18.834 59.155 19.2923C59.155 19.7507 58.9883 20.084 58.655 20.3757C58.28 20.6673 57.8633 20.7923 57.3216 20.7923ZM56.2383 18.459V20.1257H57.28C57.6133 20.1257 57.8633 20.0423 58.0716 19.9173C58.28 19.7923 58.3633 19.584 58.3633 19.2923C58.3633 19.0007 58.28 18.7923 58.0716 18.6673C57.8633 18.5423 57.6133 18.459 57.28 18.459H56.2383ZM60.4883 20.7923H59.7383V16.209H60.4883V20.7923Z" fill="#344887"/>
<path d="M63.9473 20.877C63.2389 20.877 62.6139 20.6686 62.1556 20.2103C61.6556 19.752 61.4473 19.1686 61.4473 18.502C61.4473 17.7936 61.6973 17.252 62.1556 16.7936C62.6556 16.3353 63.2389 16.127 63.9473 16.127C64.4473 16.127 64.864 16.252 65.239 16.4186V17.127C64.864 16.877 64.4473 16.752 63.9473 16.752C63.4473 16.752 63.0306 16.9186 62.6973 17.252C62.3639 17.5853 62.1973 17.9603 62.1973 18.4603C62.1973 18.9603 62.3639 19.377 62.6973 19.6686C63.0306 20.002 63.4473 20.1686 63.9889 20.1686C64.5306 20.1686 64.9889 20.0436 65.3639 19.752V20.4603C64.9473 20.752 64.4889 20.877 63.9473 20.877Z" fill="#344887"/>
<path d="M72.1146 20.7923H66.2812V16.209H67.0312V20.1673H68.8229V16.209H69.5729V20.1673H71.3646V16.209H72.1146V20.7923Z" fill="#344887"/>
<path d="M76.7383 20.7923H73.2383V16.209H76.655V16.8757H73.9883V18.0007H76.155V18.6673H73.9883V20.1257H76.7383V20.7923Z" fill="#344887"/>
<path d="M78.3223 20.7923H77.5723V16.209H80.9473V16.8757H78.3223V20.7923Z" fill="#344887"/>
<path d="M85.5729 20.2103C85.1146 20.6686 84.5313 20.877 83.8229 20.877C83.1146 20.877 82.5313 20.6686 82.0729 20.2103C81.6146 19.752 81.4062 19.1686 81.4062 18.502C81.4062 17.8353 81.6146 17.252 82.0729 16.8353C82.5313 16.377 83.1146 16.127 83.8229 16.127C84.5313 16.127 85.1146 16.377 85.5729 16.8353C86.0313 17.2936 86.2813 17.877 86.2813 18.502C86.2813 19.127 86.0313 19.752 85.5729 20.2103ZM82.6146 19.7103C82.9479 20.0436 83.3229 20.2103 83.7813 20.2103C84.2396 20.2103 84.6563 20.0436 84.9479 19.7103C85.2813 19.377 85.4479 18.9603 85.4479 18.502C85.4479 18.002 85.2813 17.5853 84.9479 17.2936C84.6146 16.9603 84.2396 16.7936 83.7813 16.7936C83.3229 16.7936 82.9063 16.9603 82.6146 17.2936C82.2813 17.627 82.1146 18.002 82.1146 18.502C82.1563 19.002 82.2813 19.377 82.6146 19.7103Z" fill="#344887"/>
<path d="M93.0739 20.2103C92.6156 20.6686 92.0322 20.877 91.3239 20.877C90.6156 20.877 90.0322 20.6686 89.5739 20.2103C89.1156 19.752 88.9072 19.1686 88.9072 18.502C88.9072 17.8353 89.1156 17.252 89.5739 16.8353C90.0322 16.377 90.6156 16.127 91.3239 16.127C92.0322 16.127 92.6156 16.377 93.0739 16.8353C93.5322 17.2936 93.7823 17.877 93.7823 18.502C93.7823 19.127 93.5322 19.752 93.0739 20.2103ZM90.1156 19.7103C90.4489 20.0436 90.8239 20.2103 91.2822 20.2103C91.7406 20.2103 92.1572 20.0436 92.4489 19.7103C92.7822 19.377 92.9489 18.9603 92.9489 18.502C92.9489 18.002 92.7822 17.5853 92.4489 17.2936C92.1156 16.9603 91.7406 16.7936 91.2822 16.7936C90.8239 16.7936 90.4072 16.9603 90.1156 17.2936C89.7822 17.627 89.6156 18.002 89.6156 18.502C89.6572 19.002 89.8239 19.377 90.1156 19.7103Z" fill="#344887"/>
<path d="M96.7402 20.7923H94.7402V16.209H98.1153V16.8757H95.4902V17.834H96.7819C97.3236 17.834 97.7402 17.959 98.0736 18.2507C98.3653 18.5007 98.5736 18.8757 98.5736 19.334C98.5736 19.7923 98.4069 20.1257 98.0736 20.4173C97.7402 20.6673 97.2819 20.7923 96.7402 20.7923ZM95.4486 18.5007V20.1257H96.6569C96.9902 20.1257 97.2402 20.0423 97.4486 19.9173C97.6152 19.7507 97.7403 19.584 97.7403 19.334C97.7403 19.084 97.6569 18.8757 97.4486 18.709C97.2402 18.5423 96.9902 18.5007 96.6569 18.5007H95.4486Z" fill="#344887"/>
<path d="M100.113 20.7923H99.3633V16.209H101.405C101.905 16.209 102.322 16.334 102.572 16.584C102.863 16.834 103.03 17.1673 103.03 17.5423C103.03 17.9173 102.863 18.2507 102.572 18.5423C102.28 18.7923 101.905 18.9173 101.405 18.9173H100.072V20.7923H100.113ZM100.113 16.834V18.209H101.363C101.655 18.209 101.863 18.1257 102.03 18.0423C102.197 17.959 102.28 17.7507 102.28 17.5423C102.28 17.334 102.197 17.1673 102.03 17.0423C101.863 16.9173 101.655 16.8757 101.363 16.8757L100.113 16.834Z" fill="#344887"/>
<path d="M103.739 20.793H102.947L105.031 16.168H105.739L107.822 20.793H107.072L106.531 19.668H104.281L103.739 20.793ZM105.406 17.043L104.531 18.9596H106.281L105.406 17.043Z" fill="#344887"/>
<path d="M110.115 20.8757C109.448 20.8757 108.907 20.7507 108.448 20.5007V19.7923C108.657 19.9173 108.907 20.0423 109.198 20.084C109.49 20.1673 109.74 20.209 110.032 20.209C110.407 20.209 110.74 20.1257 110.99 20.0007C111.24 19.834 111.323 19.6673 111.323 19.4173C111.323 19.209 111.198 19.0423 110.99 18.8757C110.782 18.7507 110.49 18.6673 110.115 18.6673H109.573V18.0007H110.24C110.532 18.0007 110.782 17.9173 110.907 17.834C111.073 17.709 111.157 17.584 111.157 17.3757C111.157 17.1673 111.073 17.0423 110.865 16.9173C110.698 16.7923 110.407 16.7507 110.115 16.7507C109.615 16.7507 109.115 16.8757 108.657 17.084V16.4173C109.115 16.1673 109.615 16.084 110.157 16.084C110.698 16.084 111.115 16.209 111.407 16.4173C111.74 16.6257 111.907 16.959 111.907 17.334C111.907 17.584 111.823 17.7923 111.657 17.959C111.49 18.1257 111.323 18.2507 111.157 18.2923C111.407 18.3757 111.615 18.5007 111.823 18.709C112.032 18.9173 112.115 19.1673 112.115 19.459C112.115 19.8757 111.948 20.209 111.573 20.5007C111.157 20.7507 110.698 20.8757 110.115 20.8757Z" fill="#344887"/>
<path d="M116.989 20.2103C116.531 20.6686 115.947 20.877 115.239 20.877C114.531 20.877 113.947 20.6686 113.489 20.2103C113.031 19.752 112.822 19.1686 112.822 18.502C112.822 17.8353 113.031 17.252 113.489 16.8353C113.947 16.377 114.531 16.127 115.239 16.127C115.947 16.127 116.531 16.377 116.989 16.8353C117.447 17.2936 117.697 17.877 117.697 18.502C117.697 19.127 117.447 19.752 116.989 20.2103ZM114.031 19.7103C114.364 20.0436 114.739 20.2103 115.197 20.2103C115.656 20.2103 116.072 20.0436 116.364 19.7103C116.697 19.377 116.864 18.9603 116.864 18.502C116.864 18.002 116.697 17.5853 116.364 17.2936C116.031 17.002 115.656 16.7936 115.197 16.7936C114.739 16.7936 114.322 16.9603 114.031 17.2936C113.697 17.627 113.531 18.002 113.531 18.502C113.572 19.002 113.739 19.377 114.031 19.7103Z" fill="#344887"/>
<path d="M120.99 20.7923H118.656V16.209H120.823C121.281 16.209 121.573 16.334 121.865 16.5007C122.115 16.709 122.24 17.0007 122.24 17.334C122.24 17.5423 122.156 17.7507 122.073 17.9173C121.948 18.084 121.823 18.209 121.615 18.2507C121.906 18.2923 122.156 18.459 122.323 18.6673C122.49 18.8757 122.615 19.1673 122.615 19.5007C122.615 19.8757 122.448 20.209 122.156 20.459C121.865 20.6673 121.448 20.7923 120.99 20.7923ZM119.365 16.834V18.0007H120.656C120.906 18.0007 121.115 17.959 121.24 17.834C121.365 17.709 121.448 17.584 121.448 17.3757C121.448 17.1673 121.365 17.0423 121.24 16.9173C121.115 16.7923 120.906 16.7507 120.656 16.7507H119.365V16.834ZM119.365 18.6673V20.1257H120.823C121.115 20.1257 121.365 20.0423 121.49 19.9173C121.656 19.7923 121.74 19.6257 121.74 19.3757C121.74 19.1673 121.656 19.0007 121.49 18.834C121.323 18.709 121.115 18.6673 120.823 18.6673H119.365Z" fill="#344887"/>
<path d="M123.822 20.793H123.03L125.114 16.168H125.822L127.905 20.793H127.114L126.572 19.668H124.322L123.822 20.793ZM125.489 17.043L124.614 18.9596H126.364L125.489 17.043Z" fill="#344887"/>
<path d="M129.448 20.793H128.698V16.2096H129.448V18.0013H131.948V16.168H132.698V20.7513H131.948V18.6263H129.448V20.793Z" fill="#344887"/>
<path d="M134.488 20.7923H133.863V16.209H134.613V19.584L137.238 16.209H137.905V20.7923H137.155V17.4173L134.488 20.7923Z" fill="#344887"/>
<path d="M139.572 20.7936H138.655L140.197 18.7936C139.864 18.7103 139.614 18.5853 139.405 18.3353C139.197 18.127 139.114 17.8353 139.114 17.5436C139.114 17.1686 139.239 16.8353 139.53 16.5853C139.822 16.3353 140.197 16.252 140.697 16.252H142.864V20.8353H142.114V18.8353H140.989L139.572 20.7936ZM140.739 18.2103H142.155V16.8353H140.739C140.489 16.8353 140.239 16.9186 140.114 17.002C139.947 17.127 139.905 17.2936 139.905 17.502C139.905 17.7103 139.989 17.877 140.114 18.002C140.28 18.127 140.489 18.2103 140.739 18.2103Z" fill="#344887"/>
<path d="M44.3223 28.7513H43.5723V24.168H45.6556C46.1556 24.168 46.5723 24.293 46.8223 24.543C47.114 24.793 47.2806 25.1263 47.2806 25.5013C47.2806 25.8763 47.114 26.2096 46.8223 26.5013C46.5306 26.7513 46.1556 26.8763 45.6556 26.8763H44.3223V28.7513ZM44.3223 24.793V26.168H45.5723C45.8639 26.168 46.0723 26.0846 46.2389 26.0013C46.4056 25.8763 46.4889 25.7096 46.4889 25.5013C46.4889 25.293 46.4056 25.1263 46.2389 25.0013C46.0723 24.8763 45.8639 24.8346 45.5723 24.8346L44.3223 24.793Z" fill="#344887"/>
<path d="M52.1149 28.1263C51.6566 28.5847 51.0733 28.793 50.3649 28.793C49.6566 28.793 49.0732 28.5847 48.6149 28.1263C48.1566 27.668 47.9482 27.0846 47.9482 26.418C47.9482 25.7513 48.1566 25.168 48.6149 24.7513C49.0732 24.293 49.6566 24.043 50.3649 24.043C51.0733 24.043 51.6566 24.293 52.1149 24.7513C52.5733 25.2096 52.8233 25.793 52.8233 26.418C52.8233 27.0846 52.5733 27.668 52.1149 28.1263ZM49.1982 27.6263C49.5316 27.9597 49.9066 28.1263 50.3649 28.1263C50.8233 28.1263 51.2399 27.9597 51.5316 27.6263C51.8649 27.293 52.0316 26.8763 52.0316 26.418C52.0316 25.9596 51.8649 25.5013 51.5316 25.2096C51.1983 24.8763 50.8233 24.7096 50.3649 24.7096C49.9066 24.7096 49.4899 24.8763 49.1982 25.2096C48.8649 25.543 48.6982 25.918 48.6982 26.418C48.6982 26.918 48.8649 27.3347 49.1982 27.6263Z" fill="#344887"/>
<path d="M56.1553 28.834C55.4469 28.834 54.8219 28.6257 54.3636 28.1673C53.8636 27.709 53.6553 27.1257 53.6553 26.459C53.6553 25.7507 53.9053 25.209 54.3636 24.7507C54.8636 24.2923 55.4469 24.084 56.1553 24.084C56.6553 24.084 57.072 24.209 57.447 24.3757V25.084C57.072 24.834 56.6553 24.709 56.1553 24.709C55.6553 24.709 55.2386 24.8757 54.9053 25.209C54.5719 25.5423 54.4053 25.9173 54.4053 26.4173C54.4053 26.9173 54.5719 27.334 54.9053 27.6257C55.2386 27.959 55.6553 28.1257 56.1969 28.1257C56.7386 28.1257 57.197 28.0007 57.572 27.709V28.4173C57.1553 28.709 56.697 28.834 56.1553 28.834Z" fill="#344887"/>
<path d="M60.6963 28.834C59.988 28.834 59.363 28.6257 58.9046 28.1673C58.4046 27.709 58.1963 27.1257 58.1963 26.459C58.1963 25.7507 58.4463 25.209 58.9046 24.7507C59.4046 24.2923 59.988 24.084 60.6963 24.084C61.1963 24.084 61.613 24.209 61.988 24.3757V25.084C61.613 24.834 61.1963 24.709 60.6963 24.709C60.1963 24.709 59.7796 24.8757 59.4463 25.209C59.113 25.5423 58.9463 25.9173 58.9463 26.4173C58.9463 26.9173 59.113 27.334 59.4463 27.6257C59.7796 27.959 60.1963 28.1257 60.738 28.1257C61.2796 28.1257 61.738 28.0007 62.113 27.709V28.4173C61.6546 28.709 61.1963 28.834 60.6963 28.834Z" fill="#344887"/>
<path d="M63.6133 28.7513H62.9883V24.168H63.7383V27.543L66.3633 24.168H67.03V28.7513H66.28V25.3763L63.6133 28.7513Z" fill="#344887"/>
<path d="M68.8213 28.752H68.1963V24.1686H68.9463V27.5436L71.5713 24.1686H72.238V28.752H71.488V25.377L68.8213 28.752ZM70.1963 23.8353C69.863 23.8353 69.5296 23.7103 69.3213 23.5436C69.113 23.3353 68.988 23.0853 68.988 22.752H69.613C69.613 22.9186 69.6546 23.0436 69.7796 23.127C69.9046 23.252 70.0296 23.2936 70.1963 23.2936C70.363 23.2936 70.5296 23.252 70.613 23.127C70.738 23.002 70.7796 22.877 70.7796 22.752H71.4046C71.4046 23.0853 71.2796 23.3353 71.0713 23.5436C70.863 23.752 70.5713 23.8353 70.1963 23.8353Z" fill="#344887"/>
<path d="M75.6963 28.834C74.988 28.834 74.363 28.6257 73.9046 28.1673C73.4046 27.709 73.1963 27.1257 73.1963 26.459C73.1963 25.7507 73.4463 25.209 73.9046 24.7507C74.4046 24.2923 74.988 24.084 75.6963 24.084C76.1963 24.084 76.613 24.209 76.988 24.3757V25.084C76.613 24.834 76.1963 24.709 75.6963 24.709C75.1963 24.709 74.7796 24.8757 74.4463 25.209C74.113 25.5423 73.9463 25.9173 73.9463 26.4173C73.9463 26.9173 74.113 27.334 74.4463 27.6257C74.7796 27.959 75.1963 28.1257 75.738 28.1257C76.2796 28.1257 76.738 28.0007 77.113 27.709V28.4173C76.6963 28.709 76.238 28.834 75.6963 28.834Z" fill="#344887"/>
<path d="M78.7803 28.7513H78.0303V24.168H78.7803V26.043L80.7386 24.168H81.697L79.4886 26.2513L82.072 28.7513H81.0303L78.7803 26.543V28.7513Z" fill="#344887"/>
<path d="M86.2809 28.1263C85.8226 28.5847 85.2393 28.793 84.5309 28.793C83.8226 28.793 83.2393 28.5847 82.7809 28.1263C82.3226 27.668 82.1143 27.0846 82.1143 26.418C82.1143 25.7513 82.3226 25.168 82.7809 24.7513C83.2393 24.293 83.8226 24.043 84.5309 24.043C85.2393 24.043 85.8226 24.293 86.2809 24.7513C86.7393 25.2096 86.9893 25.793 86.9893 26.418C86.9476 27.0846 86.7393 27.668 86.2809 28.1263ZM83.3226 27.6263C83.6559 27.9597 84.0309 28.1263 84.4893 28.1263C84.9476 28.1263 85.3643 27.9597 85.6559 27.6263C85.9893 27.293 86.1559 26.8763 86.1559 26.418C86.1559 25.9596 85.9893 25.5013 85.6559 25.2096C85.3226 24.8763 84.9476 24.7096 84.4893 24.7096C84.0309 24.7096 83.6143 24.8763 83.3226 25.2096C82.9893 25.543 82.8226 25.918 82.8226 26.418C82.8643 26.918 82.9893 27.3347 83.3226 27.6263Z" fill="#344887"/>
<path d="M88.5719 28.752H87.9053V24.1686H88.6553V27.5436L91.2803 24.1686H91.947V28.752H91.197V25.377L88.5719 28.752ZM89.9053 23.8353C89.5719 23.8353 89.2386 23.7103 89.0303 23.5436C88.8219 23.3353 88.6969 23.0853 88.6969 22.752H89.3219C89.3219 22.9186 89.3636 23.0436 89.4886 23.127C89.6136 23.252 89.7386 23.2936 89.9053 23.2936C90.072 23.2936 90.2386 23.252 90.322 23.127C90.447 23.002 90.4886 22.877 90.4886 22.752H91.1136C91.1136 23.0853 90.9886 23.3353 90.7803 23.5436C90.5303 23.752 90.2803 23.8353 89.9053 23.8353Z" fill="#344887"/>
<path d="M97.8236 28.8757H97.0736V28.3757C96.3236 28.334 95.7402 28.1673 95.3236 27.7923C94.9486 27.4173 94.7402 26.959 94.7402 26.4173C94.7402 26.1673 94.7819 25.9173 94.9069 25.709C94.9902 25.459 95.1569 25.2507 95.3236 25.084C95.4902 24.8757 95.7819 24.7507 96.0736 24.6257C96.3652 24.5007 96.7402 24.459 97.1153 24.4173V23.959H97.8652V24.4173C98.2403 24.4173 98.5736 24.5007 98.9069 24.584C99.1986 24.709 99.4486 24.834 99.6569 25.0423C99.8653 25.2507 99.9903 25.4173 100.074 25.6673C100.157 25.9173 100.24 26.1673 100.24 26.3757C100.24 26.584 100.199 26.8757 100.074 27.084C99.9486 27.2923 99.8236 27.5423 99.6569 27.709C99.4486 27.9173 99.1986 28.0423 98.9069 28.1673C98.6153 28.2923 98.2403 28.334 97.8652 28.334L97.8236 28.8757ZM97.0736 27.7507V25.0423C96.5736 25.0423 96.1569 25.1673 95.9069 25.4173C95.6569 25.6673 95.5319 26.0007 95.5319 26.3757C95.5319 26.7507 95.6569 27.084 95.9069 27.334C96.1569 27.584 96.5736 27.709 97.0736 27.7507ZM97.8236 25.0423V27.7507C98.3653 27.7507 98.7403 27.6257 98.9903 27.3757C99.2403 27.1257 99.3653 26.7923 99.3653 26.4173C99.3653 26.0423 99.2403 25.709 98.9903 25.459C98.7403 25.1673 98.3236 25.0423 97.8236 25.0423Z" fill="#344887"/>
<path d="M104.531 28.7513H101.031V24.168H104.448V24.8346H101.781V26.0013H103.948V26.668H101.781V28.1263H104.531V28.7513Z" fill="#344887"/>
<path d="M105.865 29.7097H105.156V28.0847H105.615C105.865 27.7097 106.073 27.293 106.156 26.793C106.281 26.293 106.323 25.6263 106.323 24.793V24.168H109.49V28.1263H110.156V29.7513H109.448V28.7513H105.823L105.865 29.7097ZM106.406 28.043H108.74V24.7513H107.031C107.031 25.5013 106.99 26.168 106.865 26.668C106.823 27.2513 106.656 27.7097 106.406 28.043Z" fill="#344887"/>
<path d="M114.448 28.7513H110.948V24.168H114.365V24.8346H111.698V26.0013H113.865V26.668H111.698V28.1263H114.448V28.7513Z" fill="#344887"/>
<path d="M116.03 28.7513H115.28V24.168H117.364C117.864 24.168 118.28 24.293 118.53 24.543C118.822 24.793 118.989 25.1263 118.989 25.5013C118.989 25.8763 118.822 26.2096 118.53 26.5013C118.239 26.7513 117.864 26.8763 117.364 26.8763H116.03V28.7513ZM116.03 24.793V26.168H117.28C117.572 26.168 117.78 26.0846 117.947 26.0013C118.114 25.8763 118.197 25.7096 118.197 25.5013C118.197 25.293 118.114 25.1263 117.947 25.0013C117.78 24.8763 117.572 24.8346 117.28 24.8346L116.03 24.793Z" fill="#344887"/>
<path d="M119.657 28.752H118.865L120.949 24.127H121.657L123.74 28.752H122.949L122.407 27.627H120.157L119.657 28.752ZM121.324 25.002L120.449 26.9186H122.199L121.324 25.002Z" fill="#344887"/>
<path d="M129.073 29.7103H128.365V28.7103H124.531V24.127H125.281V28.0853H127.615V24.127H128.365V28.0853H129.031V29.7103H129.073Z" fill="#344887"/>
<path d="M130.489 28.7513H129.864V24.168H130.614V27.543L133.239 24.168H133.906V28.7513H133.156V25.3763L130.489 28.7513Z" fill="#344887"/>
<path d="M135.697 28.7513H135.072V24.168H135.822V27.543L138.447 24.168H139.114V28.7513H138.364V25.3763L135.697 28.7513Z" fill="#344887"/>
<path d="M28.1136 27.834C27.9886 27.834 27.9053 27.9173 27.9053 28.0423C27.9053 28.1673 27.9886 28.2507 28.1136 28.2507C28.2386 28.2507 28.3219 28.1673 28.3219 28.0423C28.3219 27.959 28.2386 27.834 28.1136 27.834Z" fill="#344887"/>
<path d="M28.8223 29.8763C28.8223 30.0013 28.9056 30.0846 29.0306 30.0846C29.1556 30.0846 29.2389 30.0013 29.2389 29.8763C29.2389 29.7513 29.1556 29.668 29.0306 29.668C28.9056 29.668 28.8223 29.7513 28.8223 29.8763Z" fill="#344887"/>
<path d="M28.1136 29.668C27.9886 29.668 27.9053 29.7513 27.9053 29.8763C27.9053 30.0013 27.9886 30.0846 28.1136 30.0846C28.2386 30.0846 28.3219 30.0013 28.3219 29.8763C28.3219 29.7513 28.2386 29.668 28.1136 29.668Z" fill="#344887"/>
<path d="M29.7393 29.8763C29.7393 30.0013 29.8226 30.0846 29.9476 30.0846C30.0726 30.0846 30.1559 30.0013 30.1559 29.8763C30.1559 29.7513 30.0726 29.668 29.9476 29.668C29.8226 29.668 29.7393 29.7513 29.7393 29.8763Z" fill="#344887"/>
<path d="M27.8229 25.793L27.8646 26.3346L27.4062 26.293V26.8763L27.8646 26.793L27.8229 27.3346H28.4063L28.3646 26.793L28.8229 26.8763V26.293L28.3646 26.3346L28.4063 25.793H27.8229Z" fill="#344887"/>
<path d="M28.4883 27.668V29.543H30.28C30.155 28.5846 29.405 27.8346 28.4883 27.668Z" fill="#344887"/>
<path d="M28.1136 28.75C27.9886 28.75 27.9053 28.8333 27.9053 28.9583C27.9053 29.0833 27.9886 29.1667 28.1136 29.1667C28.2386 29.1667 28.3219 29.0833 28.3219 28.9583C28.3219 28.8333 28.2386 28.75 28.1136 28.75Z" fill="#344887"/>
<path d="M28.8633 31.125C28.8216 31.125 28.655 31.5833 28.8216 31.9167C28.905 32.0833 29.0716 32.1667 29.2383 32.125C29.405 32.0833 29.4466 31.9167 29.4466 31.8333C29.405 31.4583 29.1133 31.125 28.8633 31.125Z" fill="#344887"/>
<path d="M27.3649 31.125C27.1149 31.125 26.8232 31.4583 26.8232 31.8333C26.8232 31.9583 26.8649 32.0833 27.0316 32.125C27.1982 32.1667 27.3649 32.0833 27.4482 31.9167C27.5316 31.5833 27.4066 31.125 27.3649 31.125Z" fill="#344887"/>
<path d="M28.1135 30.875C27.9468 30.875 27.4468 31.8333 27.8218 32.2917C27.9052 32.375 27.9885 32.4167 28.1135 32.4167C28.2385 32.4167 28.3635 32.375 28.4052 32.2917C28.7385 31.8333 28.2802 30.875 28.1135 30.875Z" fill="#344887"/>
<path d="M25.9063 29.875C25.9063 29.6667 25.9479 29.5 25.9479 29.5H27.7396V29.3333V28V27.625C26.8646 27.7917 26.1563 28.4583 25.9479 29.3333C25.9063 29.4167 25.7396 29.4584 25.6146 29.4167C24.9479 29.3333 23.6146 29.0833 23.6146 28.7917C23.6146 28.375 23.9063 28.2083 24.1563 28.2083C24.5313 28.2083 24.9479 28.4167 25.2813 27.9167C24.0729 27.9583 24.9896 26.2083 23.9896 25.875C24.0313 26.3333 23.9896 27.125 23.8229 27.5417C23.8229 27.5417 23.4479 27.1667 23.0729 27C23.1146 27.3333 23.0313 28 22.9063 28.3333C22.9063 28.3333 22.4896 27.9167 22.0312 27.7917C22.4479 28.375 22.4479 29.25 22.3229 29.75C22.2812 29.9167 22.4063 30.0834 22.6979 30.0834C23.1979 30.0417 24.8646 30.125 25.5729 30.4167C25.7813 30.5 25.9896 30.625 26.0729 30.7917C26.1563 31 26.3229 31.3334 26.5729 31.5C26.6979 31.125 27.1146 30.7084 27.4063 30.75C27.4896 30.75 27.5729 30.9167 27.6146 31.0417C27.6563 30.9167 27.8646 30.5417 28.0729 30.5417C28.2813 30.5417 28.4896 30.8334 28.5729 31.0834C28.6146 30.9167 28.6979 30.75 28.7813 30.75C29.0729 30.75 29.448 31 29.573 31.4584C29.698 31.3334 30.198 30.6667 30.2396 30.2084H25.9063C25.9063 30.25 25.9063 30.0834 25.9063 29.875Z" fill="#344887"/>
<path d="M26.9883 29.8763C26.9883 30.0013 27.0716 30.0846 27.1966 30.0846C27.3216 30.0846 27.4049 30.0013 27.4049 29.8763C27.4049 29.7513 27.3216 29.668 27.1966 29.668C27.0716 29.668 26.9883 29.7513 26.9883 29.8763Z" fill="#344887"/>
<path d="M26.1133 29.8763C26.1133 30.0013 26.1966 30.0846 26.3216 30.0846C26.4466 30.0846 26.5299 30.0013 26.5299 29.8763C26.5299 29.7513 26.4466 29.668 26.3216 29.668C26.1966 29.668 26.1133 29.7513 26.1133 29.8763Z" fill="#344887"/>
<path d="M8.86321 30.793C8.77987 30.8763 8.61321 31.3346 8.69654 31.6263C8.73821 31.7513 8.77987 31.793 8.90487 31.793C9.02988 31.793 9.07154 31.7096 9.11321 31.5846C9.15488 31.293 8.94654 30.8346 8.86321 30.793Z" fill="#344887"/>
<path d="M10.4043 32.0846C10.321 32.2096 10.196 32.2513 10.1543 32.293C10.196 32.3346 10.321 32.418 10.446 32.418C10.5293 32.418 10.6126 32.3763 10.6543 32.3346C10.7793 32.0846 10.6543 31.8763 10.6126 31.793C10.571 31.8763 10.5293 32.0013 10.4043 32.0846Z" fill="#344887"/>
<path d="M9.82162 31.5013C9.98829 31.3346 10.03 31.2096 9.98829 31.1263C9.94662 31.0013 9.57162 30.6263 9.15495 30.168C9.15495 30.2513 9.11328 30.3346 9.11328 30.418C9.40495 30.8346 9.52995 31.2513 9.44662 31.6263C9.48828 31.668 9.48828 31.668 9.52995 31.668C9.61328 31.7513 9.73828 31.6263 9.82162 31.5013Z" fill="#344887"/>
<path d="M10.4056 31.5417C10.4056 31.4583 10.4056 31.4167 10.3639 31.375H10.3223C10.2806 31.375 10.2389 31.4583 10.1973 31.5C10.1556 31.5417 10.1139 31.625 10.0306 31.7083C9.94727 31.7917 9.9056 31.8333 9.82227 31.9167C9.73893 31.9583 9.69727 32.0417 9.69727 32.0833C9.69727 32.0833 9.69727 32.0833 9.69727 32.125C9.73893 32.1667 9.73893 32.1667 9.7806 32.1667C9.82227 32.1667 9.94727 32.125 10.1556 31.9167C10.3639 31.7083 10.4056 31.625 10.4056 31.5417Z" fill="#344887"/>
<path d="M7.6556 29.334C7.6556 29.334 7.61393 29.3757 7.57227 29.459C7.6556 29.459 7.7806 29.459 7.86393 29.5007C7.86393 29.4173 7.86393 29.2923 7.86393 29.209C7.7806 29.209 7.69727 29.2923 7.6556 29.334Z" fill="#344887"/>
<path d="M8.78125 29.4597C8.78125 29.4597 9.65626 30.2097 9.94792 30.5013C10.0313 30.5847 10.1146 30.5847 10.1979 30.543C10.2396 30.5013 10.3229 30.5013 10.4063 30.4597C11.2813 30.168 12.6979 30.1263 13.1979 30.1263C13.5313 30.1263 13.6146 29.9597 13.5729 29.793C13.4896 29.293 13.4479 28.418 13.8646 27.8346C13.4063 28.0013 12.9896 28.3763 12.9896 28.3763C12.8229 28.0846 12.7813 27.3763 12.8229 27.043C12.4063 27.168 12.0729 27.5846 12.0729 27.5846C11.9063 27.168 11.8646 26.3763 11.9063 25.918C10.9063 26.2513 11.8229 28.043 10.6146 27.9596C10.9479 28.4596 11.3646 28.2513 11.7396 28.2513C11.9896 28.2513 12.3229 28.418 12.2813 28.8346C12.2396 29.1263 10.6146 29.4597 9.94792 29.4597C9.48959 29.4597 9.15625 29.3347 8.94792 29.0013C8.82292 28.8346 8.73959 28.793 8.61459 28.793C8.44792 28.8346 8.28125 28.9597 8.28125 29.3763C8.28125 29.6263 8.40625 30.2097 8.69792 30.2097C8.86459 30.2513 8.86459 29.7513 8.78125 29.4597Z" fill="#344887"/>
<path d="M7.11395 29.2083C7.15561 29.2083 7.19728 29.2083 7.23895 29.2083C7.11395 29.375 7.11395 29.5 7.15561 29.5417C7.23895 29.625 7.28061 29.4583 7.48895 29.25C7.69728 29.0417 7.82228 28.9583 7.78062 28.875C7.73895 28.8333 7.61395 28.8333 7.44728 28.9583C7.44728 28.9167 7.48895 28.875 7.44728 28.8333C7.36395 28.625 7.07228 28.375 6.86394 28.375C6.82228 28.375 6.82228 28.375 6.78061 28.375C6.86394 28.25 6.82228 28.1667 6.78061 28.0833C6.73894 28.0417 6.69728 28.0833 6.61394 28.1667C6.61394 28.125 6.61394 28.0417 6.57228 27.9583C6.32227 27.5417 4.9056 26.2083 4.57227 26.0833C4.36393 26 4.32227 26.125 4.32227 26.125C4.32227 26.125 4.19727 26.2083 4.2806 26.375C4.4056 26.7083 5.78061 28.0833 6.15561 28.3333C6.23894 28.375 6.32227 28.4167 6.36394 28.375C6.28061 28.4583 6.23894 28.4583 6.32227 28.5417C6.36394 28.5833 6.44728 28.625 6.57228 28.5417C6.57228 28.5833 6.57228 28.5833 6.57228 28.625C6.65561 28.7917 6.90561 29.125 7.11395 29.2083Z" fill="#344887"/>
<path d="M8.11329 30.209C8.11329 30.084 7.86329 29.834 7.52995 29.834C7.07162 29.834 6.86328 30.1257 6.86328 30.2923C6.86328 30.584 7.15495 30.6257 7.23828 30.6257C7.52995 30.6257 8.07162 30.2923 8.11329 30.209Z" fill="#344887"/>
<path d="M7.69727 30.9173C7.57227 31.084 7.5306 31.2507 7.57227 31.3757C7.61393 31.5423 7.7806 31.6257 7.94727 31.6257C8.11393 31.6257 8.2806 31.5423 8.36394 31.4173C8.5306 31.1257 8.5306 30.5007 8.48894 30.459C8.32227 30.459 7.9056 30.6257 7.69727 30.9173Z" fill="#344887"/>
<path d="M3.61517 24.4175C3.49017 24.2925 3.1985 24.5009 3.03184 24.3759C3.11517 23.9592 3.40684 24.3759 3.65684 24.1259C3.78184 24.0009 3.69851 23.8342 3.65684 23.7925C3.53184 23.9175 3.36517 23.8759 3.3235 23.7925C3.61517 23.0425 3.03184 22.2508 2.4485 22.3342C2.5735 22.5008 2.61517 23.0425 2.53183 23.1675C2.74017 23.3342 2.61517 23.7092 2.36517 23.5842C2.1985 23.5009 1.90683 23.0842 2.24017 22.8342C2.24017 22.7092 2.03183 22.7092 1.86516 22.9592C1.99016 22.5008 1.11516 22.6258 0.948494 22.7508C0.86516 22.9592 0.740159 23.8342 1.19849 23.6675C0.948494 23.8759 0.99016 24.0842 1.07349 24.0842C1.36516 23.7509 1.74016 24.0009 1.8235 24.1675C1.9485 24.4175 1.5735 24.5842 1.40683 24.3759C1.28183 24.4175 0.740159 24.4175 0.615159 24.2925C0.531825 24.8759 1.36516 25.5009 2.0735 25.1675C2.15683 25.1675 2.1985 25.3759 2.0735 25.5009C2.11517 25.5842 2.3235 25.6259 2.40683 25.5009C2.6985 25.2092 2.28183 24.9175 2.65683 24.8342C2.74017 25.0009 2.5735 25.2925 2.6985 25.4175C2.90684 25.6259 3.15684 25.2092 3.44851 25.2092C3.44851 24.8759 3.82351 24.6259 3.61517 24.4175ZM1.4485 23.4592C1.4485 23.4592 1.3235 23.3759 1.49016 23.1675C1.65683 23.0009 1.74016 23.1258 1.74016 23.1258C1.74016 23.1258 1.90683 23.4592 1.9485 23.6259C1.78183 23.6259 1.4485 23.4592 1.4485 23.4592ZM2.78184 24.5009C2.6985 24.5009 2.49017 24.7092 2.40683 24.5842L1.9485 24.1259L2.1985 23.8759L2.4485 23.6259L2.90684 24.0842C2.9485 24.2092 2.78184 24.4175 2.78184 24.5009Z" fill="#344887"/>
<path d="M3.73893 25.25C3.69727 25.25 3.6556 25.25 3.61393 25.2917C3.57227 25.3333 3.57227 25.4167 3.57227 25.5C3.57227 25.5833 3.6556 25.6667 3.73893 25.75C3.7806 25.875 3.9056 25.9167 3.98893 25.9167C4.0306 25.9167 4.07227 25.9167 4.11393 25.875C4.19727 25.7917 4.1556 25.5417 4.0306 25.4167C3.94727 25.3333 3.82227 25.25 3.73893 25.25Z" fill="#344887"/>
<path d="M2.4043 23.875L2.2793 24L2.1543 24.125C2.1543 24.125 2.4043 24.4583 2.61263 24.3333C2.73763 24.125 2.4043 23.875 2.4043 23.875Z" fill="#344887"/>
<path d="M26.7383 22.6263C26.7383 22.7096 26.405 22.8763 26.155 22.418C25.9049 22.3763 25.6549 22.293 25.4883 22.2096C25.7799 22.793 26.03 23.293 26.4466 23.543C27.0716 23.918 28.03 23.8346 28.3216 23.418C27.78 23.1263 27.155 22.3763 26.8216 21.668C26.7383 21.8346 26.6133 22.1263 26.53 22.3346C26.5716 22.418 26.655 22.543 26.7383 22.6263Z" fill="#344887"/>
<path d="M32.5306 13.5C33.1973 13.2083 34.1556 12.5417 34.6139 12.125C34.6556 12.2083 34.8223 12.5833 34.3223 13C33.9473 13.2917 33.1973 13.6667 32.6556 13.875C32.4056 14.25 31.9056 14.6667 31.2389 15.125C32.5723 14.9167 34.1556 14.375 34.9473 13.625C36.4056 12.1667 35.6556 10.4167 35.4473 10C34.4889 11.2083 32.6556 12.4583 30.9473 13.125C31.5306 13.2083 32.1139 13.3333 32.5306 13.5Z" fill="#344887"/>
<path d="M31.4473 10.834C32.3223 10.1257 33.2389 8.709 33.4056 8.209C33.6139 8.334 33.6973 8.75067 33.4473 9.209C32.9889 10.0007 32.1556 10.709 31.4473 11.2923C31.4056 11.7923 31.1973 12.4174 30.9473 12.8757C31.9889 12.1673 33.1973 11.1257 33.7389 10.4173C34.4473 9.50067 34.7389 8.584 34.6139 7.66733C34.6556 6.62566 33.9056 5.58399 33.6139 5.33398C33.4056 6.45899 32.2806 8.37566 31.2806 9.459C31.3639 9.834 31.4473 10.3757 31.4473 10.834Z" fill="#344887"/>
<path d="M30.7806 17.416C30.9889 17.666 31.1973 17.9577 31.3639 18.2077C32.1556 18.3744 33.1139 18.3327 33.1139 18.3327C33.1139 18.3327 33.0723 18.7494 32.5306 18.791C32.2806 18.791 31.5306 18.666 31.2389 18.5827C31.1139 18.6244 30.5306 18.791 29.9473 18.8744C30.7806 19.166 31.9889 19.4577 32.7389 19.4577C32.8223 19.4577 32.8639 19.4577 32.9473 19.4577C34.1556 19.3327 34.7806 18.2077 34.8223 17.5827C34.4473 17.666 33.8223 17.7077 33.1973 17.7077C32.6139 17.7077 31.5723 17.666 30.7806 17.416Z" fill="#344887"/>
<path d="M35.8216 14.25C34.7383 14.8333 32.8216 15.4167 31.2799 15.4167C31.655 15.6667 32.03 15.9167 32.28 16.1667C32.905 16.125 33.78 15.9167 34.28 15.75C34.28 15.8333 34.28 16.25 33.6966 16.4167C33.28 16.5417 32.6966 16.5417 32.2383 16.5417C31.8633 16.7917 31.3216 17 30.8633 17.1667C31.2799 17.2083 31.8216 17.25 32.28 17.25C33.0716 17.25 33.8216 17.1667 34.28 17C34.6966 16.875 36.0716 16.2917 35.8216 14.25Z" fill="#344887"/>
<path d="M29.9889 19.9994C30.4473 20.2077 30.9473 20.3744 31.3639 20.416C31.3639 20.416 31.2806 20.8327 30.6556 20.7494C30.2806 20.7077 29.8639 20.416 29.7806 20.3744C29.4889 20.416 28.9056 20.416 28.6973 20.3744C29.4056 20.8744 30.4889 21.4577 31.4056 21.541C31.4473 21.541 31.4889 21.541 31.5306 21.541C32.4889 21.541 33.239 20.5827 33.4473 20.1244C32.489 20.1244 30.8223 19.7077 29.8223 19.166C29.8639 19.3327 29.9473 19.666 29.9889 19.9994Z" fill="#344887"/>
<path d="M28.3229 21.291C28.5729 21.5827 28.9896 21.7494 28.9896 21.7494C28.9896 21.7494 28.8646 21.9577 28.6146 21.9577C28.5313 21.9577 28.4479 21.916 28.3646 21.8744C28.1979 21.791 27.9479 21.4994 27.9479 21.4994C27.6146 21.4577 27.3229 21.416 27.0312 21.3327C27.5313 21.9577 28.3646 22.7494 29.2813 22.9577C29.4063 22.9994 29.5313 22.9994 29.6979 22.9994C30.4896 22.9994 31.1563 22.416 31.3229 22.041C30.4063 21.916 29.0729 21.2077 28.4063 20.541C28.4063 20.791 28.3646 21.0827 28.3229 21.291Z" fill="#344887"/>
<path d="M22.364 31.5C22.8223 31.5 23.114 31.3333 23.3223 30.875C22.6973 31.1667 22.0306 31 20.7806 30.625C20.7806 30.625 20.3223 30.8333 20.0306 30.875C20.7806 31.0833 21.864 31.4583 22.0306 31.875C22.114 32.2083 21.9056 32.2917 21.9056 32.2917C21.489 31.7917 20.989 31.5 19.9056 31.1667C19.9056 31.375 19.864 31.5 19.864 31.5C19.864 31.5 19.6556 31.5417 19.1556 31.4583C19.5723 31.7917 20.5723 32.6667 20.6973 33.5833C20.7806 34.2083 20.3223 34.25 20.3223 34.25C20.2806 33.2917 19.864 32.7083 18.9473 31.75C18.9473 31.75 18.7806 31.9583 18.614 32.0833C18.614 32.0833 18.2806 32.0417 18.0306 31.8333C18.1556 33.0833 18.1973 36.0834 18.114 36.5417C18.0723 36.875 17.864 37.0417 17.864 37.0417C17.864 37.0417 17.6556 36.9167 17.614 36.5417C17.5306 36.0417 17.614 33.0417 17.6973 31.8333C17.4056 32 17.114 32.0833 17.114 32.0833C16.9056 31.9583 16.7806 31.75 16.7806 31.75C15.9056 32.7083 15.4889 33.3333 15.4056 34.25C15.4056 34.25 14.9889 34.2083 15.0306 33.5833C15.1556 32.6667 16.1556 31.7917 16.5723 31.4583C16.114 31.5417 15.8639 31.5 15.8639 31.5C15.8639 31.5 15.8223 31.375 15.8223 31.1667C14.7389 31.5 14.2806 31.7917 13.8223 32.2917C13.8223 32.2917 13.6139 32.25 13.6973 31.875C13.8639 31.4583 14.9473 31.125 15.6973 30.875C15.4473 30.8333 14.9473 30.625 14.9473 30.625C13.7389 31 13.0306 31.1667 12.4056 30.875C12.5723 31.3333 12.9056 31.5 13.3639 31.5C12.7806 31.7083 12.2389 32.2917 12.0723 32.875C12.4889 34.4167 13.8223 34.875 13.8223 34.875C13.4889 34.125 13.6139 32.6667 15.6139 31.6667C14.4056 32.875 13.9056 34 14.2389 35.0417C14.5306 36 15.5306 36.375 16.239 36.4167C15.7389 34.8334 15.9473 33.375 17.0306 32.25C16.5723 33.5 15.9056 37.375 17.7806 38C19.6556 37.375 18.989 33.5 18.5306 32.25C19.614 33.4167 19.8223 34.8334 19.3223 36.4167C20.0723 36.4167 21.0306 36 21.3223 35.0417C21.6556 34 21.1973 32.875 19.9473 31.6667C21.9473 32.6667 22.0723 34.1667 21.739 34.875C21.739 34.875 23.0723 34.4167 23.489 32.875C23.489 32.2917 22.9056 31.75 22.364 31.5Z" fill="#344887"/>
<path d="M9.44727 23.543C9.86394 23.293 10.1139 22.793 10.4056 22.2096C10.2389 22.293 9.98894 22.3763 9.73894 22.418C9.48894 22.8763 9.15561 22.7096 9.15561 22.6263C9.23894 22.543 9.32227 22.418 9.36394 22.3346C9.28061 22.1263 9.15561 21.8346 9.07227 21.668C8.73894 22.418 8.07227 23.1263 7.57227 23.418C7.86393 23.8346 8.82227 23.918 9.44727 23.543Z" fill="#344887"/>
<path d="M4.61321 15.1244C3.90487 14.666 3.44654 14.2494 3.19654 13.8744C2.6132 13.666 1.8632 13.291 1.52986 12.9994C1.02986 12.5827 1.19653 12.2077 1.2382 12.1244C1.65486 12.5827 2.6132 13.2077 3.32154 13.4994C3.73821 13.3327 4.32154 13.2077 4.90488 13.1244C3.19654 12.4994 1.3632 11.2077 0.404858 10.041C0.196524 10.416 -0.595146 12.2077 0.904861 13.666C1.65486 14.3744 3.27987 14.916 4.61321 15.1244Z" fill="#344887"/>
<path d="M4.9051 12.8327C4.65509 12.3744 4.44676 11.791 4.40509 11.2494C3.69676 10.7077 2.90509 9.99937 2.40508 9.16603C2.15508 8.7077 2.23842 8.29103 2.44675 8.16603C2.61342 8.66603 3.53009 10.0827 4.40509 10.791C4.40509 10.3327 4.48843 9.79104 4.61343 9.41603C3.61342 8.3327 2.44675 6.41602 2.28008 5.29102C1.98841 5.54102 1.23841 6.58269 1.28008 7.62436C1.15508 8.54103 1.44675 9.4577 2.15508 10.3744C2.65508 11.0827 3.86342 12.166 4.9051 12.8327Z" fill="#344887"/>
<path d="M4.48895 18.2077C4.61395 17.9577 4.86395 17.666 5.07228 17.416C4.28061 17.6243 3.23894 17.666 2.69727 17.666C2.0306 17.666 1.4056 17.6244 1.07227 17.541C1.11393 18.2077 1.73894 19.3327 2.94727 19.416C3.03061 19.416 3.07227 19.416 3.15561 19.416C3.90561 19.416 5.11395 19.1244 5.94729 18.8327C5.36395 18.7494 4.78062 18.6244 4.65562 18.541C4.32228 18.7077 3.57228 18.8327 3.32228 18.791C2.78061 18.7494 2.73894 18.3327 2.73894 18.3327C2.73894 18.3327 3.69728 18.3744 4.48895 18.2077Z" fill="#344887"/>
<path d="M1.57182 17.041C2.03015 17.2077 2.73849 17.291 3.57183 17.291C4.07183 17.291 4.57183 17.2494 4.9885 17.2077C4.53017 17.041 3.9885 16.8327 3.6135 16.5827C3.15516 16.5827 2.53016 16.541 2.15516 16.4577C1.57182 16.291 1.57182 15.8744 1.57182 15.791C2.07182 15.9994 2.94683 16.2077 3.57183 16.2077C3.82183 15.9994 4.15516 15.7077 4.57183 15.4577C3.07183 15.4577 1.11348 14.8744 0.0301454 14.291C-0.219856 16.291 1.15515 16.8744 1.57182 17.041Z" fill="#344887"/>
<path d="M4.36394 21.5007C4.40561 21.5007 4.44727 21.5007 4.48894 21.5007C5.40561 21.4173 6.48895 20.834 7.19729 20.334C6.98895 20.3757 6.36395 20.3757 6.11395 20.334C6.03062 20.4173 5.57228 20.6673 5.23895 20.709C4.57228 20.7923 4.53061 20.3757 4.53061 20.3757C4.94728 20.334 5.44728 20.1673 5.90561 19.959C5.94728 19.6257 6.03062 19.2923 6.11395 19.084C5.07228 19.6673 3.4056 20.084 2.44727 20.084C2.6556 20.5423 3.4056 21.5007 4.36394 21.5007Z" fill="#344887"/>
<path d="M6.1543 22.9994C6.27931 22.9994 6.44597 22.9994 6.57097 22.9577C7.44598 22.7494 8.32098 21.9577 8.82098 21.3327C8.52932 21.416 8.23765 21.4994 7.90431 21.4994C7.90431 21.4994 7.69598 21.7494 7.48764 21.8744C7.40431 21.916 7.32098 21.9577 7.23764 21.9577C6.98764 21.9577 6.86264 21.7494 6.86264 21.7494C6.86264 21.7494 7.27931 21.541 7.52931 21.291C7.48764 21.0827 7.44598 20.791 7.44598 20.541C6.73764 21.2494 5.44597 21.916 4.5293 22.041C4.69596 22.416 5.32097 22.9994 6.1543 22.9994Z" fill="#344887"/>
<path d="M16.0716 4.95899C16.1133 4.95899 16.1966 5.00065 16.2383 5.00065H19.5716C19.655 5.00065 19.6966 5.00065 19.7383 4.95899C19.8633 4.91732 19.905 4.83398 19.9466 4.70898H15.8633C15.9049 4.87565 15.9883 4.91732 16.0716 4.95899Z" fill="#344887"/>
<path d="M19.737 4.45833C19.7787 4.45833 19.7787 4.41667 19.7787 4.41667V4.16667C19.7787 4.125 19.737 4.125 19.737 4.125H16.112C16.0703 4.125 16.0703 4.16667 16.0703 4.16667V4.41667C16.0703 4.45833 16.112 4.45833 16.112 4.45833H19.737Z" fill="#344887"/>
<path d="M20.1127 3.83335C20.196 3.70835 20.6543 2.83334 20.6543 1.91667C20.6543 1.08334 19.6127 0.625 19.0293 0.625C18.946 1.79167 18.4876 3.62501 17.9043 3.62501C17.3626 3.62501 16.8626 1.79167 16.7793 0.625C16.1543 0.625 15.1543 1.08334 15.1543 1.91667C15.1543 2.83334 15.6126 3.75001 15.696 3.83335H20.1127Z" fill="#344887"/>
<path d="M17.9063 3.04233C18.1979 3.04233 18.5313 2.16732 18.6563 1.29232C18.6563 1.12565 18.3646 0.875651 17.9063 0.833984C17.4479 0.833984 17.1562 1.08399 17.1562 1.29232C17.2813 2.08399 17.6563 3.04233 17.9063 3.04233Z" fill="#344887"/>
<path d="M23.196 16.7083C23.196 16.5833 23.1127 16.5 22.9877 16.5H12.8626C12.7376 16.5 12.6543 16.5833 12.6543 16.7083V23.6667V23.7084V23.75C12.6543 23.75 12.6543 24.125 12.821 24.5417C13.0293 25.0417 13.9043 25.875 14.9876 26.4584C16.5293 27.2501 17.446 27.8751 17.9043 28.2501C18.3627 27.8751 19.2793 27.2501 20.821 26.4584C21.946 25.875 22.7793 25.0417 22.9877 24.5417C23.196 24.0834 23.1543 23.75 23.1543 23.75L23.196 16.7083ZM19.7793 19.25C19.9043 19.7917 20.0293 20.3334 20.071 20.8334C20.4877 21.1667 20.8627 21.5 21.196 21.8334C21.821 21.125 22.1543 20.4584 22.1543 19.9167C21.8627 19.9167 21.6127 19.6667 21.6127 19.375C21.6127 19.25 21.6543 19.1667 21.696 19.0833C21.4043 18.9583 21.071 18.9167 20.7793 18.9167C20.5293 18.9167 20.2793 18.9583 19.9877 19H19.946L19.8627 19.0417L19.9043 19C19.946 18.9167 19.946 18.875 19.9877 18.7917C20.821 18.625 21.4877 18.7083 21.9043 18.9583C21.9877 18.9167 22.071 18.875 22.1543 18.875C22.446 18.875 22.696 19.125 22.696 19.4167C22.696 19.625 22.571 19.7917 22.4043 19.875C22.4043 20.4584 22.071 21.2084 21.3627 22.0417C21.4043 22.0834 21.446 22.125 21.4877 22.1667C21.5293 22.2084 21.5293 22.2084 21.571 22.25V22.2917C21.5293 22.3334 21.4877 22.375 21.446 22.4167H21.4043C21.4043 22.4167 21.4043 22.4167 21.3627 22.4167C21.321 22.375 21.321 22.375 21.321 22.3334C21.2793 22.2917 21.2793 22.25 21.2377 22.2084C21.1543 22.2917 21.071 22.375 20.9877 22.4584L20.9043 22.5834C20.7793 22.6667 20.6543 22.7084 20.571 22.6667H20.5293L20.571 22.625C20.7793 22.4584 20.946 22.25 21.1127 22.125C20.8627 21.8334 20.5293 21.5417 20.196 21.25C20.2377 21.5417 20.2377 21.8334 20.2377 22.125C20.2377 22.375 20.2377 22.6667 20.196 22.9584C20.1543 23 20.071 23.0417 20.0293 23.0834L19.9877 23.125V23.0834C20.0293 22.75 20.0293 22.4167 20.0293 22.125C20.0293 22.0417 20.0293 21.9167 20.0293 21.8334V21.75C20.0293 21.5417 19.9877 20.9584 19.946 20.5834C19.9043 20.25 19.821 19.9167 19.7377 19.5833V19.5417C19.7793 19.5 19.821 19.4583 19.8627 19.4167L19.7793 19.25ZM16.3626 18.5C16.7793 17.5 17.3627 16.9583 17.946 16.9583C18.5293 16.9583 19.1127 17.5 19.5293 18.5V18.5417H19.4877C19.446 18.5417 19.4043 18.5833 19.321 18.625H19.2793V18.5833C18.9043 17.7083 18.4043 17.2083 17.9043 17.2083C17.4043 17.2083 16.9043 17.7083 16.5293 18.5833V18.625H16.4876C16.446 18.5417 16.3626 18.5417 16.3626 18.5ZM16.196 18.75C16.321 18.8333 16.696 19.0417 17.1127 18.9167C17.4877 18.7917 17.9043 18.7917 17.9043 18.7917C17.9043 18.7917 18.3627 18.7917 18.696 18.9167C19.1127 19.0417 19.4877 18.8333 19.6127 18.75C19.6543 18.75 19.6543 18.75 19.6543 18.7917C19.6127 18.9583 19.4877 19.375 18.8627 19.5417C18.2793 19.6667 17.9877 20.3334 17.9043 20.625C17.9043 20.6667 17.8627 20.6667 17.821 20.625C17.7377 20.3334 17.446 19.6667 16.8626 19.5417C16.2376 19.4167 16.1126 18.9583 16.071 18.7917C16.1543 18.75 16.196 18.75 16.196 18.75ZM17.196 20.4167C17.2793 20.4167 17.4043 20.375 17.4877 20.3333C17.5293 20.4167 17.571 20.5417 17.6127 20.625C17.4877 20.7084 17.3627 20.75 17.196 20.75C16.7376 20.75 16.4043 20.375 16.4043 19.9583C16.4043 19.8333 16.446 19.75 16.4876 19.6667C16.571 19.7083 16.6543 19.75 16.7793 19.7917C16.7376 19.8333 16.7376 19.9167 16.7376 19.9583C16.696 20.2084 16.946 20.4167 17.196 20.4167ZM16.9877 19.9167C16.9877 19.875 16.9877 19.875 16.9877 19.8333C17.1127 19.875 17.2377 20 17.321 20.0833C17.2793 20.125 17.2377 20.125 17.196 20.125C17.071 20.125 16.9877 20.0417 16.9877 19.9167ZM17.196 21C17.3627 21 17.571 20.9584 17.7377 20.8334C17.7793 20.875 17.8627 21.0417 17.9043 21.0417C17.9877 21.0417 18.0293 20.875 18.071 20.8334C18.2377 20.9167 18.446 21 18.6127 21C18.9043 21 19.1543 20.875 19.3627 20.7084C19.3627 20.7084 19.3627 20.7084 19.3627 20.75C19.446 21.0834 19.4877 21.5 19.446 21.6667C19.446 21.8334 19.3627 22 19.321 22.1667C19.2377 22.375 19.196 22.5417 19.196 22.5417C19.196 22.5417 19.196 22.5834 19.1543 22.6667C19.1127 22.8334 18.9877 23.125 18.821 23.4167C18.4877 23.2084 18.1543 23.125 17.7377 23.125C17.3627 23.125 17.0293 23.2084 16.7376 23.375C16.6126 23.0834 16.4876 22.8334 16.446 22.7084C16.4043 22.625 16.4043 22.5834 16.4043 22.5834C16.4043 22.5834 16.321 22.4167 16.2376 22.1667C16.196 22.0417 16.1543 21.875 16.1543 21.7084C16.1543 21.5834 16.1126 21.1667 16.2376 20.7917C16.2376 20.75 16.2793 20.7084 16.2793 20.6667C16.571 20.8334 16.9043 21 17.196 21ZM18.6543 20.4167C18.946 20.4167 19.1543 20.2083 19.1543 19.9167C19.1543 19.8333 19.1543 19.7917 19.1127 19.75C19.196 19.7083 19.321 19.6667 19.4043 19.625C19.446 19.7083 19.4877 19.8333 19.4877 19.9167C19.4877 20.375 19.1127 20.7084 18.696 20.7084C18.5293 20.7084 18.4043 20.6667 18.2793 20.5834C18.321 20.5 18.3627 20.4167 18.4043 20.2917C18.446 20.375 18.571 20.4167 18.6543 20.4167ZM18.5293 20.0833C18.6127 19.9583 18.7377 19.875 18.8627 19.8333C18.8627 19.875 18.8627 19.875 18.8627 19.9167C18.8627 20.0417 18.7793 20.125 18.6543 20.125C18.6127 20.125 18.571 20.125 18.5293 20.0833ZM13.696 18.9167C13.821 18.9167 13.9043 18.9583 13.9876 19C14.2793 18.8333 14.6126 18.75 15.071 18.75C15.321 18.75 15.571 18.7917 15.8626 18.8333H15.9043C15.9043 18.875 15.946 18.9583 15.9876 19.0417L16.0293 19.0833L15.946 19.0417C15.9043 19.0417 15.9043 19.0417 15.8626 19.0417C15.6126 19 15.3626 18.9583 15.1126 18.9583C14.821 18.9583 14.446 19 14.196 19.1667C14.2376 19.25 14.2793 19.3333 14.2793 19.4583C14.2793 19.75 14.0293 20 13.7376 20C13.7376 20.5 14.071 21.1667 14.696 21.9167C15.0293 21.5834 15.4043 21.2084 15.821 20.9167C15.8626 20.4167 15.9876 19.875 16.1126 19.375V19.3333L16.1543 19.375C16.196 19.4167 16.2376 19.4583 16.2793 19.5C16.2793 19.5 16.2793 19.5 16.321 19.5417V19.5833C16.2376 19.9167 16.1543 20.2083 16.1126 20.5417V20.5834C16.071 20.8334 16.0293 21.1667 16.0293 21.5C16.0293 21.75 15.9876 21.9584 15.9876 22.125C15.9876 22.375 15.9876 22.625 16.0293 22.9584V23H15.9876C15.9043 22.9584 15.8626 22.9584 15.821 22.9584H15.7793V22.9167C15.7793 22.7084 15.7376 22.4167 15.7376 22.125C15.7376 21.8334 15.7376 21.5417 15.7793 21.25C15.446 21.5417 15.1126 21.8334 14.8626 22.125C15.071 22.375 15.3626 22.625 15.696 22.9167L15.7376 22.9584H15.696C15.6126 23 15.4876 23 15.4043 22.9584C15.1543 22.7084 14.946 22.5417 14.7376 22.3334C14.696 22.375 14.6543 22.4167 14.6543 22.4584L14.6126 22.5C14.571 22.5 14.5293 22.5417 14.446 22.5834L14.4043 22.5417C14.4043 22.5417 14.3626 22.5417 14.3626 22.5H14.321V22.4584C14.4043 22.3334 14.4876 22.25 14.571 22.1667C13.8626 21.375 13.5293 20.625 13.5293 20.0417C13.3626 19.9583 13.2376 19.7917 13.2376 19.5833C13.1543 19.1667 13.4043 18.9167 13.696 18.9167ZM19.6127 25.375C19.321 26.2084 18.9043 26.7917 18.446 27.0417C18.4043 27.2917 18.196 27.5001 17.946 27.5001C17.696 27.5001 17.4877 27.2917 17.446 27.0417C16.9877 26.7917 16.571 26.25 16.2793 25.4167V25.375L16.5293 25.2917V25.3334C16.7793 26.0417 17.1127 26.5417 17.4877 26.7917C17.571 26.5834 17.7377 26.4167 17.9877 26.4167C18.2377 26.4167 18.4043 26.5834 18.4877 26.75C18.8627 26.5 19.196 26 19.446 25.3334V25.2917H19.4877C19.4877 25.3334 19.5293 25.3334 19.6127 25.375ZM17.4877 25.3334C17.4877 25.1667 17.5293 24.7084 17.6127 24.5417C17.696 24.5 17.821 24.4584 17.946 24.4584C18.071 24.4584 18.196 24.5 18.321 24.5834C18.3627 24.75 18.446 25.1667 18.446 25.3334C18.446 25.5 18.0293 25.625 17.9877 25.6667C17.8627 25.625 17.4877 25.5417 17.4877 25.3334ZM22.821 23.6667C22.7793 23.7084 22.7377 23.75 22.696 23.75C22.6543 23.75 22.6127 23.7917 22.5293 23.7917H22.4877C22.4043 23.7917 22.321 23.7917 22.2793 23.75C22.2377 23.75 22.2377 23.7084 22.196 23.7084C22.071 23.7084 21.7793 23.7917 21.696 23.8334C21.7377 23.8334 22.1127 23.875 22.3627 24.0834C22.4877 24.1667 22.7377 24.2084 22.821 24.2084C22.821 24.25 22.4043 24.5417 21.6127 24.375L21.4043 24.3334C21.0293 24.25 20.696 24.2084 20.321 24.2084C20.3627 24.2084 20.4043 24.25 20.4043 24.25C20.4877 24.2917 20.6127 24.3334 20.696 24.375C20.696 24.375 20.7377 24.375 20.7377 24.4167H20.7793C20.821 24.4167 20.8627 24.4167 20.8627 24.4584C20.9043 24.4584 20.946 24.5 20.9877 24.5C21.0293 24.5417 21.1127 24.5834 21.1127 24.625C21.1127 24.6667 21.1543 24.6667 21.1543 24.7084C21.1543 24.7917 21.1543 24.8334 21.1127 24.9167C20.9877 25.0834 20.821 25.0834 20.6543 24.9167L20.6127 24.875C20.571 24.8334 20.5293 24.7917 20.4877 24.7084V24.6667C20.4877 24.6667 20.4877 24.6667 20.446 24.6667C20.3627 24.625 20.321 24.5417 20.2377 24.5417C20.1127 24.5 19.946 24.4584 19.821 24.4167C19.7793 24.4167 19.7377 24.4167 19.696 24.4167C19.821 24.5 19.946 24.5834 19.9877 24.6667C19.9877 24.6667 19.9877 24.6667 19.9877 24.7084C20.071 24.8334 20.071 24.9584 20.1127 25.0834C20.2377 25.3334 20.2793 25.375 20.4043 25.4584C20.2793 25.5 19.6543 25.5 19.3627 25.0417C19.3627 25.0417 19.321 25 19.321 24.9584C19.2377 24.7917 19.196 24.625 19.1543 24.5C19.1127 24.375 19.196 24.25 19.1127 24.2084C19.0293 24.1667 18.9877 24.2084 18.9877 24.2084C18.946 24.25 18.946 24.25 18.946 24.25V24.2917C18.946 24.3334 18.9043 24.3334 18.9043 24.3334V24.375C18.9043 24.375 18.9043 24.4167 18.8627 24.4167C18.8627 24.4167 18.8627 24.4167 18.821 24.4167C18.7793 24.4167 18.7793 24.4167 18.7377 24.4167C18.7377 24.4167 18.7377 24.4167 18.696 24.4167C18.696 24.4167 18.6543 24.4167 18.6543 24.4584C18.6127 24.4584 18.571 24.5 18.5293 24.5C18.4877 24.5 18.446 24.4584 18.446 24.4167C18.446 24.375 18.446 24.375 18.446 24.3334C18.4043 24.3334 18.4043 24.3334 18.3627 24.3334C18.321 24.3334 18.321 24.3334 18.2793 24.2917C18.2793 24.25 18.2793 24.2084 18.2793 24.2084C18.2793 24.1667 18.2793 24.1667 18.2793 24.1667C18.2377 24.2084 18.2377 24.2084 18.196 24.2084C18.1543 24.2084 18.1543 24.2084 18.1127 24.2084C18.071 24.2084 18.071 24.1667 18.071 24.125V24.0834C18.071 24.0834 18.071 24.0834 18.071 24.0417C18.071 24.0417 18.071 24.0417 18.0293 24.0417H17.9877C17.946 24.0417 17.8627 24 17.821 24C17.821 24 17.821 24 17.7793 24C17.7377 24 17.6543 24.0417 17.6127 24.0417H17.571H17.5293C17.5293 24.0417 17.5293 24.0417 17.5293 24C17.5293 24 17.5293 24 17.5293 23.9584L17.571 23.9167C17.571 23.9167 17.571 23.9167 17.571 23.875C17.5293 23.875 17.5293 23.875 17.4877 23.875V23.9167C17.4877 23.9167 17.4877 23.9167 17.446 23.9167V23.9584V24C17.446 24.0417 17.446 24.0834 17.4043 24.0834C17.3627 24.125 17.3627 24.125 17.321 24.0834C17.321 24.0834 17.2793 24.0834 17.2793 24.0417C17.2793 24.0417 17.2377 24.0417 17.2377 24C17.2377 24 17.2377 24.0417 17.2793 24.0417C17.2793 24.0834 17.2793 24.0834 17.2793 24.125C17.2377 24.1667 17.2377 24.1667 17.196 24.1667H17.1543H17.1127C17.1127 24.2084 17.1543 24.2084 17.1127 24.25C17.1127 24.2917 17.071 24.2917 17.0293 24.2917C16.9877 24.2917 16.9877 24.2917 16.946 24.2917C16.946 24.2917 16.946 24.2917 16.9043 24.2917H16.8626L16.821 24.25C16.821 24.25 16.7793 24.25 16.7376 24.25C16.7376 24.25 16.696 24.25 16.696 24.2084L16.6543 24.1667V24.125C16.571 24.0417 16.446 24.3334 16.446 24.3334C16.071 25.125 15.1543 25.2917 15.1543 25.25C15.1543 25.25 15.3626 25.1667 15.446 24.875C15.4876 24.7084 15.4876 24.6667 15.571 24.5C15.571 24.4584 15.6126 24.4584 15.6126 24.4167C15.6543 24.3334 15.7793 24.2917 15.8626 24.2084C15.821 24.2084 15.7793 24.2084 15.7376 24.2084C15.6126 24.25 15.4876 24.25 15.321 24.3334C15.2376 24.375 15.196 24.4167 15.1126 24.4584C15.1126 24.4584 15.1126 24.4584 15.071 24.4584V24.5C15.071 24.5417 15.0293 24.5834 14.9876 24.6667L14.946 24.7084C14.7793 24.875 14.6543 24.875 14.4876 24.7084L14.446 24.6667C14.4043 24.625 14.4043 24.5417 14.446 24.5C14.446 24.4584 14.4876 24.4167 14.5293 24.375C14.571 24.3334 14.6126 24.3334 14.6543 24.2917C14.696 24.25 14.7376 24.25 14.7793 24.25C14.821 24.25 14.821 24.25 14.8626 24.2084C14.8626 24.2084 14.9043 24.2084 14.946 24.2084C14.946 24.2084 14.946 24.1667 14.9876 24.1667C15.0293 24.1667 15.071 24.125 15.1126 24.125C15.1543 24.125 15.196 24.0834 15.2376 24.0834C15.2376 24.0834 15.2793 24.0834 15.321 24.0417C14.9876 24.0417 14.6543 24.0834 14.2793 24.1667C14.2376 24.1667 14.1543 24.2084 14.071 24.2084C13.6543 24.2917 12.8626 24.0834 12.8626 24.0417C12.8626 24 13.071 24 13.2793 23.875C13.446 23.7917 13.5293 23.7084 13.6543 23.6667C13.8626 23.8334 14.1126 23.8334 14.1543 23.8334C14.071 23.7917 13.696 23.75 13.571 23.7084C13.571 23.7084 13.5293 23.75 13.4876 23.75C13.4043 23.7917 13.321 23.7917 13.2376 23.7917C13.196 23.7917 13.1126 23.7917 13.071 23.75C13.0293 23.75 12.9876 23.7084 12.946 23.6667C12.9043 23.625 12.9043 23.5834 12.9043 23.4584C12.946 23.2917 13.1126 23.2084 13.321 23.25C13.446 23.2917 13.5293 23.3334 13.571 23.375L13.6126 23.4167C13.7376 23.4167 13.9043 23.5 14.071 23.5417C14.2376 23.625 14.3626 23.6667 14.446 23.6667C14.4043 23.6667 14.3626 23.625 14.321 23.625C14.2793 23.625 14.2376 23.5834 14.2376 23.5834C14.196 23.5417 14.1543 23.5417 14.1126 23.5C13.8626 23.375 13.6126 23.25 13.446 23.0834C13.321 22.9167 13.2793 22.8334 13.2376 22.6667C13.196 22.2917 13.0293 22.125 13.0293 22.0834C13.071 22.0417 13.6543 22.3334 13.8626 22.5417C13.9876 22.7084 14.0293 22.8334 14.071 22.9584V23C14.1126 23.125 14.2376 23.25 14.446 23.375C14.4876 23.375 14.4876 23.4167 14.5293 23.4167C14.4876 23.3334 14.446 23.2917 14.4043 23.2084V23.1667L14.3626 23.125C14.3626 23.125 14.321 23.0834 14.321 23.0417C14.2793 23 14.2793 22.9584 14.2376 22.9167C14.196 22.7917 14.196 22.6667 14.2376 22.625C14.2793 22.5834 14.321 22.5417 14.4043 22.5C14.571 22.4584 14.696 22.5417 14.7376 22.7917C14.7376 22.8334 14.7376 22.875 14.7376 22.9167C14.7376 22.9584 14.7376 23 14.7376 23.0417V23.0834C14.7376 23.0834 14.7376 23.0834 14.7376 23.125C14.821 23.375 15.0293 23.5834 15.2793 23.75C14.9876 23.5 14.821 22.9167 14.8626 22.9167C14.9043 22.875 15.1543 23.0417 15.4043 23.1667C15.5293 23.2084 15.6543 23.2917 15.7793 23.375C15.8626 23.4167 15.946 23.5 15.9876 23.5417C16.071 23.5834 16.1126 23.6667 16.1543 23.7084C16.196 23.75 16.2376 23.7917 16.2793 23.8334C16.321 23.875 16.321 23.875 16.3626 23.9167C16.446 23.9584 16.571 23.9167 16.571 23.9167C16.6126 23.9167 16.6543 23.9167 16.696 23.875C16.696 23.875 16.696 23.875 16.7376 23.8334C16.7793 23.7917 16.821 23.7917 16.8626 23.7917V23.75C16.8626 23.6667 16.9043 23.625 16.9877 23.5834C16.9877 23.5834 17.0293 23.5834 17.0293 23.5417H17.071H17.1127H17.1543C17.1543 23.5 17.196 23.5 17.2377 23.4584C17.321 23.4167 17.446 23.4167 17.5293 23.5C17.571 23.5417 17.571 23.5834 17.6127 23.625V23.6667C17.6127 23.7084 17.6127 23.7084 17.6127 23.75C17.6127 23.7917 17.6127 23.7917 17.6127 23.8334C17.6543 23.8334 17.7377 23.8334 17.7793 23.8334C17.821 23.8334 17.821 23.8334 17.8627 23.8334C17.9043 23.8334 17.946 23.8334 17.9877 23.875C18.0293 23.875 18.071 23.8334 18.1127 23.8334C18.1543 23.8334 18.1543 23.8334 18.196 23.8334H18.2377C18.2377 23.7917 18.2377 23.75 18.2377 23.7084C18.2377 23.6667 18.2377 23.625 18.2793 23.5834C18.2793 23.5834 18.2793 23.5417 18.321 23.5417L18.3627 23.5C18.446 23.4584 18.5293 23.4584 18.6127 23.5C18.6543 23.5 18.6543 23.5417 18.696 23.5834C18.7377 23.5834 18.7377 23.5834 18.7793 23.5834H18.821H18.8627C18.946 23.625 18.9877 23.6667 18.9877 23.75C18.9877 23.75 18.9877 23.75 19.0293 23.75H19.071C19.071 23.75 19.2793 23.75 19.321 23.7917H19.5293C19.571 23.75 19.571 23.75 19.6127 23.7084C19.6543 23.6667 19.7377 23.5834 19.7793 23.5417C19.8627 23.5 19.9043 23.4167 19.9877 23.375C20.1127 23.2917 20.2793 23.25 20.4043 23.2084C20.821 23.0417 20.8627 22.7917 20.9043 22.7917C20.946 22.8334 20.821 23.5 20.5293 23.75C20.7377 23.5834 20.946 23.375 21.071 23.125C21.071 23.125 21.071 23.125 21.071 23.0834V23.0417C21.071 23 21.071 22.9584 21.071 22.9167C21.071 22.875 21.071 22.8334 21.071 22.7917C21.1543 22.5834 21.2377 22.4584 21.4043 22.5C21.4877 22.5417 21.5293 22.5834 21.571 22.625C21.6127 22.7084 21.6127 22.7917 21.571 22.9167C21.571 22.9584 21.5293 23 21.4877 23.0417C21.446 23.0834 21.446 23.0834 21.4043 23.125L21.3627 23.1667V23.2084C21.321 23.2917 21.2793 23.3334 21.196 23.4167C21.2377 23.375 21.2377 23.375 21.2793 23.3334C21.4877 23.1667 21.6127 23.0417 21.6543 22.9167C21.696 22.7917 21.7377 22.6667 21.8627 22.5C22.071 22.2917 22.1127 22.2084 22.321 22.0834C22.3627 22.0417 22.6543 22 22.696 22C22.7377 22.0417 22.4877 22.125 22.4043 22.5417C22.3627 22.6667 22.321 22.875 22.196 23.0417C22.0293 23.25 21.8627 23.2917 21.6543 23.4167L21.6127 23.4584C21.571 23.5 21.5293 23.5 21.446 23.5417C21.3627 23.5834 21.321 23.625 21.2793 23.625C21.4043 23.5834 21.5293 23.5417 21.696 23.5C21.821 23.4167 21.9877 23.375 22.1543 23.375C22.1543 23.375 22.1543 23.3334 22.196 23.3334C22.2377 23.2917 22.321 23.25 22.446 23.2084C22.6543 23.125 22.821 23.2084 22.8627 23.4167C22.9043 23.5417 22.8627 23.625 22.821 23.6667Z" fill="#344887"/>
<path d="M30.1134 15.291C30.7384 14.9994 31.7801 14.291 32.1968 13.791C31.6134 13.5827 30.4467 13.4577 29.7801 13.4577C31.1551 12.4994 31.1967 10.4994 30.8217 9.04102C30.4884 10.2077 29.6551 11.166 29.1134 11.7494C29.1551 12.3327 28.9884 13.3327 28.6551 13.916C29.1134 14.0827 29.6551 14.3327 30.0301 14.6244C29.7801 14.9577 29.2384 15.416 28.9051 15.7077C29.1967 15.9994 29.6551 16.541 29.9051 16.8744C29.5717 17.1244 28.9051 17.3744 28.5301 17.4994C28.6967 17.8744 28.9467 18.4994 29.0301 18.9577C28.6134 19.0411 28.0717 19.0827 27.4884 19.0827C27.5301 19.4994 27.4467 20.1661 27.3634 20.5827C26.8217 20.5411 26.1967 20.3327 25.9051 20.1661C25.7384 20.7494 25.3634 21.3327 25.3634 21.3744C24.8634 20.7911 24.3634 20.5827 23.905 20.5827V20.2077C24.3634 20.2077 24.8634 20.3744 25.2384 20.7494C25.405 20.4577 25.5717 19.9161 25.6551 19.5827C25.9884 19.7494 26.5301 19.9577 26.9884 20.0411C27.0301 19.6244 27.0717 19.0827 27.0301 18.6661C27.4884 18.7077 27.9884 18.7077 28.5301 18.6244C28.4467 18.2494 28.1134 17.6244 27.9051 17.2911C28.3634 17.1661 28.9467 16.9161 29.2384 16.7494C28.9884 16.416 28.5717 15.9577 28.2801 15.666C28.6134 15.416 29.1551 14.9994 29.3634 14.7494C28.9884 14.4994 28.4884 14.2494 28.0717 14.0827C28.6551 13.291 28.7801 11.666 28.6551 10.916C28.1551 12.6244 26.6551 13.8744 25.7384 14.4577C25.6967 14.4994 25.6551 14.541 25.6134 14.541C25.5717 14.5827 25.4051 14.791 25.4884 15.041C25.4884 15.1244 25.5301 15.166 25.5301 15.2494C25.6134 15.5827 25.6134 16.0827 25.1134 16.5411C24.6967 16.9161 24.1967 16.9577 23.905 16.9161V15.9994C23.905 15.8744 23.8217 15.791 23.6967 15.791H23.0717L22.78 15.4994C22.78 15.4994 23.0717 15.4994 23.405 15.4994C23.7384 15.4577 24.1134 15.291 24.1134 15.291C24.1134 15.291 23.7384 15.291 23.5717 15.2494C23.3634 15.291 22.905 15.0827 22.53 14.666C22.405 14.4994 22.28 14.3327 22.1967 14.166C21.8634 13.8744 21.4884 13.4994 21.2384 12.9577C21.0717 12.5827 20.9884 12.041 20.9467 11.7077C20.8217 11.791 20.6967 11.9577 20.53 12.166C20.2384 12.541 20.1134 13.0827 20.1134 13.0827L19.9884 13.4994L19.78 13.1244C19.78 13.1244 19.4884 12.6244 19.4467 11.9994C19.4467 11.7077 19.4467 11.4577 19.4884 11.2494C19.405 11.291 19.28 11.3744 19.155 11.4577C18.655 11.8327 18.3633 12.2077 18.3633 12.2077C18.1133 12.541 17.9467 12.8327 17.905 12.9577C17.8633 12.791 17.6967 12.541 17.4467 12.2077C17.4467 12.2077 17.1967 11.791 16.655 11.4577C16.53 11.3744 16.405 11.291 16.3217 11.2494C16.3633 11.4577 16.3633 11.7494 16.3633 11.9994C16.3217 12.6244 16.03 13.0827 16.03 13.1244L15.8217 13.4577L15.6967 13.041C15.6967 13.041 15.53 12.4994 15.28 12.1244C15.1133 11.916 14.9883 11.7494 14.8633 11.666C14.8217 11.9994 14.7383 12.5827 14.5717 12.916C14.3217 13.4577 13.9883 13.8744 13.6133 14.1244C13.53 14.291 13.405 14.4577 13.28 14.6244C12.905 15.041 12.4467 15.2494 12.2383 15.291C12.0717 15.3327 11.6967 15.3327 11.6967 15.3327C11.6967 15.3327 12.0717 15.4994 12.405 15.541C12.7383 15.5827 13.03 15.541 13.03 15.541L12.7383 15.8327H12.1133C11.9883 15.8327 11.905 15.916 11.905 16.041V16.9577C11.6133 16.9994 11.0716 16.9577 10.6966 16.5827C10.2383 16.1244 10.1966 15.6244 10.28 15.291C10.3216 15.2494 10.3216 15.166 10.3216 15.0827C10.405 14.8327 10.2383 14.6244 10.1966 14.5827C10.155 14.541 10.1133 14.4994 10.0716 14.4994C9.15497 13.916 7.69663 12.666 7.15496 10.9577C7.02996 11.7077 7.19663 13.291 7.7383 14.1244C7.32163 14.291 6.77996 14.541 6.44663 14.791C6.65496 15.041 7.19663 15.4994 7.52997 15.7077C7.2383 15.9577 6.77996 16.4577 6.57163 16.7911C6.8633 16.9577 7.44663 17.2077 7.90497 17.3327C7.69663 17.6661 7.3633 18.2911 7.27997 18.6661C7.77997 18.7494 8.32164 18.7494 8.77997 18.7077C8.73831 19.1244 8.77997 19.7077 8.82164 20.0827C9.27997 19.9994 9.82164 19.8327 10.155 19.6244C10.2383 19.9161 10.405 20.4994 10.5716 20.7911C10.9466 20.4161 11.4467 20.2494 11.905 20.2494V20.6244C11.4467 20.6244 10.9466 20.8327 10.4466 21.4161C10.4466 21.3744 10.0716 20.7911 9.90498 20.2077C9.61331 20.3327 8.98831 20.5827 8.44664 20.6244C8.3633 20.2077 8.32164 19.5411 8.32164 19.1244C7.7383 19.1244 7.19663 19.0827 6.77996 18.9994C6.8633 18.5411 7.1133 17.9161 7.27997 17.5411C6.90496 17.4161 6.23829 17.1244 5.90496 16.9161C6.11329 16.5827 6.6133 16.041 6.90496 15.7494C6.57163 15.4994 6.02996 14.9994 5.77996 14.666C6.15496 14.3744 6.69663 14.1244 7.15496 13.9577C6.82163 13.3327 6.65496 12.3327 6.69663 11.791C6.11329 11.2077 5.27996 10.2494 4.98829 9.08268C4.57162 10.541 4.65495 12.5827 6.02996 13.4994C5.36329 13.4994 4.19662 13.666 3.61328 13.8327C4.02995 14.3327 5.07162 14.9994 5.69662 15.3327C5.19662 15.4994 4.32162 15.9994 3.94662 16.3327C4.40495 16.6244 5.44662 16.9577 5.94663 17.0827C5.65496 17.3327 5.07162 17.9994 4.86329 18.3327C5.27996 18.4577 6.11329 18.5827 6.65496 18.5827C6.48829 18.9577 6.27996 19.5827 6.23829 19.9577C6.48829 19.9994 7.3633 19.9577 7.82163 19.8327C7.77997 20.2077 7.77997 20.8327 7.8633 21.1244C8.27997 21.0827 8.90497 20.8744 9.19664 20.7911C9.27997 21.1244 9.57164 21.7911 9.69664 21.9577C9.90498 21.9161 10.1133 21.8744 10.3216 21.7911C10.905 21.5827 11.53 21.8327 11.78 22.3744C12.1967 23.3327 12.03 24.4578 11.2383 24.2494C10.3216 24.4161 10.9466 25.5828 10.405 25.9578C11.1133 26.4578 11.3217 25.2911 12.2383 25.4994C12.155 25.9161 12.155 26.7078 12.2383 27.0411C12.53 26.8328 12.9467 26.6661 13.1967 26.6244C13.1133 26.8744 13.0717 27.4578 13.155 27.8328C13.3217 27.7078 14.53 27.3744 14.53 27.3744C14.53 27.3744 14.0717 28.2911 14.3633 29.2078C14.53 29.3328 15.6133 28.7911 15.6133 28.4994C15.655 28.8744 15.1967 29.7078 14.4883 29.8744C15.2383 30.6244 15.905 30.5828 15.9883 30.5828C16.1133 30.5828 16.1967 30.5828 16.28 30.4994C16.2383 30.7078 16.1967 30.9995 16.2383 31.1661C16.28 31.1661 16.3217 31.1661 16.3633 31.1661C16.5717 31.1661 16.7383 31.1245 16.8633 31.0828C16.905 31.2911 16.9883 31.4995 17.1133 31.6661C17.155 31.7078 17.155 31.7078 17.1967 31.7495C17.3633 31.7495 17.78 31.5411 17.8633 31.4161C17.9467 31.5411 18.3633 31.7495 18.53 31.7495C18.5717 31.7078 18.6134 31.7078 18.6134 31.6661C18.78 31.4995 18.8634 31.2495 18.8634 31.0828C19.03 31.1661 19.1967 31.1661 19.3634 31.1661C19.405 31.1661 19.4467 31.1661 19.4884 31.1661C19.53 30.9995 19.53 30.7078 19.4467 30.4994C19.53 30.5411 19.655 30.5828 19.7384 30.5828C19.8217 30.5828 20.4884 30.6244 21.2384 29.8744C20.53 29.7078 20.0717 28.8744 20.1134 28.4994C20.1134 28.8328 21.1967 29.3328 21.3634 29.2078C21.655 28.2911 21.1967 27.3744 21.1967 27.3744C21.1967 27.3744 22.3634 27.6661 22.5717 27.8328C22.655 27.4578 22.6134 26.8744 22.53 26.6244C22.78 26.6244 23.1967 26.8328 23.4884 27.0411C23.5717 26.7078 23.5717 25.9578 23.4884 25.4994C24.3634 25.2911 24.5717 26.4578 25.3217 25.9578C24.8217 25.5828 25.4467 24.4161 24.4884 24.2494C23.6967 24.4994 23.53 23.3327 23.9467 22.3744C24.1967 21.8327 24.8634 21.5827 25.4051 21.7911C25.6134 21.8744 25.8217 21.9161 26.0301 21.9577C26.1134 21.7911 26.4467 21.1244 26.5301 20.7911C26.8217 20.9161 27.4467 21.0827 27.8634 21.1244C27.9051 20.8327 27.9467 20.2077 27.9051 19.8327C28.3217 19.9161 29.2384 19.9577 29.4884 19.9577C29.4467 19.5411 29.2384 18.9161 29.0717 18.5827C29.6134 18.5411 30.4467 18.4577 30.8634 18.3327C30.6551 17.9577 30.0717 17.2911 29.7801 17.0827C30.2801 16.9577 31.3217 16.6244 31.7801 16.3327C31.4884 15.9577 30.6134 15.4577 30.1134 15.291ZM23.3634 24.6661C23.3217 24.7494 23.28 24.7911 23.2384 24.8744C23.2384 24.9161 23.1967 24.9161 23.1967 24.9578C23.155 24.9994 23.1134 25.0411 23.0717 25.1244C23.03 25.1661 23.03 25.1661 22.9884 25.2078C22.9467 25.2911 22.8634 25.3328 22.8217 25.4161C22.78 25.4578 22.7384 25.4994 22.6967 25.5411C22.655 25.5828 22.6134 25.6244 22.5717 25.6661C22.53 25.7078 22.4884 25.7494 22.405 25.8328C22.3634 25.8744 22.3634 25.8744 22.3217 25.9161C22.1967 26.0411 22.03 26.1661 21.8634 26.2494C21.655 26.4161 21.4467 26.5411 21.1967 26.6661C21.1134 26.7078 21.03 26.7494 20.9467 26.7911C19.0717 27.7494 18.155 28.4994 17.8633 28.7078H17.8217C17.53 28.4578 16.6133 27.7494 14.7383 26.7911C14.655 26.7494 14.5717 26.7078 14.4883 26.6661C14.2383 26.5411 14.03 26.4161 13.8217 26.2494C13.655 26.1244 13.53 25.9994 13.3633 25.9161C13.3217 25.8744 13.28 25.8744 13.28 25.8328C13.2383 25.7911 13.155 25.7494 13.1133 25.6661C13.0717 25.6244 13.03 25.5828 12.9883 25.5411C12.9467 25.4994 12.905 25.4578 12.8633 25.4161C12.78 25.3328 12.7383 25.2911 12.6967 25.2078C12.655 25.1661 12.655 25.1661 12.6133 25.1244C12.5717 25.0828 12.53 25.0411 12.4883 24.9578C12.4883 24.9161 12.4467 24.9161 12.4467 24.8744C12.405 24.7911 12.3633 24.7494 12.3217 24.6661C12.0717 24.1244 12.1133 23.6661 12.1133 23.6661V16.3744C12.1133 16.2494 12.1967 16.166 12.3217 16.166H12.9467H17.905H22.6967H23.3217C23.4467 16.166 23.53 16.2494 23.53 16.3744V23.6661C23.5717 23.6661 23.6134 24.1244 23.3634 24.6661Z" fill="#344887"/>
<path d="M23.1133 4.66732C23.2799 4.66732 23.3633 4.54232 23.3633 4.37565C23.3633 4.20898 23.2383 4.08398 23.1133 4.08398C22.9466 4.08398 22.8633 4.20898 22.8633 4.37565C22.8633 4.54232 22.9883 4.66732 23.1133 4.66732Z" fill="#344887"/>
<path d="M23.1126 6.20899C23.2793 6.20899 23.446 5.50065 23.446 5.16732C23.446 4.95899 23.2793 4.83398 23.1126 4.83398C22.946 4.83398 22.7793 4.95899 22.7793 5.16732C22.7793 5.50065 22.946 6.20899 23.1126 6.20899Z" fill="#344887"/>
<path d="M22.946 3.66667H23.321L23.2376 3.20834L23.696 3.25V2.875L23.2376 2.95834L23.321 2.5H22.946L22.9876 2.95834L22.5293 2.875V3.25L22.9876 3.20834L22.946 3.66667Z" fill="#344887"/>
<path d="M21.4883 7.04103C21.6133 7.08269 21.7383 7.08269 21.8633 7.12436H21.905H21.9466C21.9883 7.12436 21.9883 7.12436 21.9883 7.12436H22.0716C22.1133 7.12436 22.155 7.12436 22.1966 7.12436C22.2383 7.12436 22.2383 7.12436 22.28 7.12436C22.3216 7.12436 22.3633 7.12436 22.405 7.12436C22.7383 7.12436 23.0716 7.04103 23.405 6.95769C23.7383 6.87436 24.0716 6.79103 24.4466 6.79103H24.4883H24.53H24.5716H24.6133H24.655H24.6966C24.78 6.41602 24.905 5.99936 24.905 5.74935C24.905 5.24935 24.6133 4.70768 23.655 4.54102C23.655 5.16602 23.3633 6.62436 23.03 6.62436H22.9883C22.655 6.62436 22.3633 5.16602 22.3633 4.54102C21.4049 4.70768 21.1133 5.24935 21.1133 5.74935C21.1133 6.04102 21.2383 6.58269 21.3633 6.95769C21.4883 6.99936 21.4883 6.99936 21.4883 7.04103Z" fill="#344887"/>
<path d="M26.4888 4.41682C26.4888 4.41682 26.2388 3.75015 26.6554 3.54182C27.1138 3.37515 26.4888 3.45848 26.8221 2.54181C27.1971 1.45847 28.0304 1.70848 28.0304 1.70848C27.4471 1.25014 26.9888 1.29181 26.6554 1.54181C26.4471 1.70848 26.1554 2.04181 25.9471 2.70848C25.7804 3.54182 26.0721 4.33349 26.4888 4.41682Z" fill="#344887"/>
<path d="M28.6563 2.79204C28.6979 4.16704 30.9896 4.75038 30.9896 4.75038C30.9896 4.75038 29.6563 3.79204 29.9063 3.0837C29.9063 3.0837 30.7813 3.45871 31.7813 3.29204C29.6563 2.8337 30.3646 2.16703 29.8229 1.62536C29.2813 1.04203 28.4479 1.00036 28.2396 0.958695C27.6979 0.917028 27.6563 0.917028 27.0312 1.0837C28.4896 1.12536 28.6563 1.87537 28.6563 2.79204Z" fill="#344887"/>
<path d="M28.3646 5.37461C28.6563 4.29127 28.1146 3.79127 28.1146 3.79127C27.9479 3.58293 27.0729 3.6246 26.7396 3.83293C26.7396 3.83293 27.5729 3.83293 27.4479 5.04127C27.3229 6.24961 25.6563 6.49961 25.1979 6.54128L25.1562 6.70795C25.9479 6.70795 28.0313 6.45795 28.3646 5.37461Z" fill="#344887"/>
<path d="M19.6536 5.33398H18.8203C19.237 6.50066 20.4453 6.87566 21.237 7.00066L21.1953 6.87566C20.362 6.54232 19.9453 6.20899 19.6536 5.33398Z" fill="#344887"/>
<path d="M12.7385 4.66732C12.9052 4.66732 12.9885 4.54232 12.9885 4.37565C12.9885 4.20898 12.8635 4.08398 12.7385 4.08398C12.5719 4.08398 12.4885 4.20898 12.4885 4.37565C12.4469 4.54232 12.5719 4.66732 12.7385 4.66732Z" fill="#344887"/>
<path d="M12.7376 6.20899C12.9043 6.20899 13.071 5.50065 13.071 5.16732C13.071 4.95899 12.9043 4.83398 12.7376 4.83398C12.571 4.83398 12.4043 4.95899 12.4043 5.16732C12.4043 5.50065 12.5293 6.20899 12.7376 6.20899Z" fill="#344887"/>
<path d="M12.5293 3.66667H12.9043L12.8626 3.20834L13.321 3.25V2.875L12.8626 2.95834L12.9043 2.5H12.5293L12.6126 2.95834L12.1543 2.875V3.25L12.6126 3.20834L12.5293 3.66667Z" fill="#344887"/>
<path d="M11.0729 6.79233H11.1146H11.1563H11.2396C11.2813 6.79233 11.2813 6.79233 11.2813 6.79233H11.3229C11.6979 6.83399 12.0729 6.87566 12.3646 6.959C12.6563 7.04233 13.0313 7.12566 13.3646 7.12566C13.4063 7.12566 13.4479 7.12566 13.4896 7.12566C13.5313 7.12566 13.5313 7.12566 13.5729 7.12566C13.6146 7.12566 13.6563 7.12566 13.6979 7.12566H13.7813H13.8229H13.8646H13.9063C14.0313 7.12566 14.1563 7.084 14.2813 7.04233C14.2813 7.00066 14.2813 7.00066 14.3229 7.00066C14.4479 6.62566 14.5729 6.08399 14.5729 5.79232C14.5729 5.29232 14.3229 4.75065 13.3229 4.58398C13.3229 5.16732 13.0313 6.66733 12.6979 6.66733H12.6563C12.3229 6.66733 12.0313 5.20899 12.0313 4.58398C11.0729 4.75065 10.7812 5.29232 10.7812 5.79232C10.7812 6.04232 10.8646 6.45899 10.9896 6.834C11.0313 6.79233 11.0313 6.79233 11.0729 6.79233Z" fill="#344887"/>
<path d="M7.7793 1.70777C7.7793 1.70777 8.61263 1.45777 8.98764 2.54111C9.32097 3.45778 8.69597 3.37444 9.1543 3.54111C9.61264 3.70778 9.32097 4.41612 9.32097 4.41612C9.77931 4.33278 10.071 3.54111 9.82097 2.66611C9.61264 1.99944 9.32097 1.6661 9.11264 1.49944C8.7793 1.2911 8.36263 1.24943 7.7793 1.70777Z" fill="#344887"/>
<path d="M5.90496 3.08399C6.15496 3.79233 4.82162 4.75067 4.82162 4.75067C4.82162 4.75067 7.15496 4.16733 7.15496 2.79233C7.19663 1.87566 7.32163 1.12565 8.7383 1.08399C8.1133 0.958984 8.07163 0.958984 7.52996 0.958984C7.32163 0.958984 6.48829 1.04232 5.94662 1.62565C5.44662 2.16732 6.11329 2.83399 3.98828 3.29233C5.02995 3.459 5.90496 3.08399 5.90496 3.08399Z" fill="#344887"/>
<path d="M8.40526 5.04211C8.28026 3.83377 9.11359 3.83377 9.11359 3.83377C8.82192 3.62543 7.94692 3.62543 7.73859 3.7921C7.73859 3.7921 7.19692 4.25044 7.48859 5.37544C7.78025 6.45878 9.90526 6.70878 10.6969 6.70878L10.6553 6.54211C10.1969 6.50045 8.53026 6.25045 8.40526 5.04211Z" fill="#344887"/>
<path d="M17.03 5.33398H16.1966C15.905 6.20899 15.4883 6.54232 14.6549 6.87566L14.6133 7.00066C15.4466 6.87566 16.6133 6.50066 17.03 5.33398Z" fill="#344887"/>
<path d="M18.9883 10.4577C18.7383 10.8327 18.5299 11.2494 18.3633 11.666C18.4883 11.4994 18.6966 11.3327 18.905 11.166C19.28 10.916 19.6133 10.7494 19.6133 10.7494L19.9466 10.6244L19.8633 10.9577C19.8633 10.9577 19.7383 11.4994 19.78 11.9577C19.78 12.166 19.8633 12.3744 19.905 12.4994C19.9883 12.291 20.1133 12.0827 20.2383 11.8744C20.655 11.3327 20.9883 11.1244 20.9883 11.1244L21.2383 10.9994V11.291C21.2383 11.291 21.3216 12.2494 21.53 12.7494C21.905 13.5827 22.6133 14.041 23.03 14.2494C22.9883 14.2077 22.905 14.1244 22.8216 14.041C22.6133 13.8327 22.405 13.4577 22.28 12.666C22.1966 11.9994 22.4466 11.3327 22.53 11.1244C22.5716 11.291 22.655 11.4577 22.7383 11.4994C22.7383 11.4994 22.7383 11.3327 22.78 11.166C22.8633 10.7077 23.3633 9.99936 24.03 9.58269C24.155 9.49936 24.28 9.41602 24.3633 9.37435C24.4883 9.33269 24.5716 9.24935 24.655 9.16602C24.53 9.16602 24.3633 9.20769 24.2383 9.20769H24.1966C24.1133 9.20769 23.9883 9.20769 23.8216 9.20769C23.4883 9.20769 23.1133 9.16602 22.8216 8.91602C22.53 8.66602 22.405 8.41602 22.3633 8.24935C22.2383 8.24935 22.0716 8.24935 21.8633 8.24935C21.6133 8.24935 21.405 8.16602 21.28 8.16602C20.9466 8.37435 20.6133 8.45768 20.1966 8.49935C20.155 8.49935 20.0716 8.49935 20.03 8.49935C20.155 8.62435 20.3216 8.70768 20.4466 8.79102C20.4466 8.79102 20.4466 8.79102 20.4883 8.79102L20.405 8.83269C20.4466 8.79102 19.8633 9.12435 18.9883 10.4577Z" fill="#344887"/>
<path d="M24.4466 8.125C24.28 8.125 24.1549 8.125 23.9883 8.125C23.9883 8.20833 23.9883 8.29167 23.9883 8.375C24.0299 8.5 24.0716 8.58334 24.1549 8.66667C24.2799 8.58334 24.405 8.375 24.4466 8.125Z" fill="#344887"/>
<path d="M24.78 7.16602C24.7383 7.16602 24.7383 7.16602 24.78 7.16602C24.7383 7.16602 24.7383 7.16602 24.6966 7.16602C24.655 7.16602 24.655 7.16602 24.6133 7.16602C24.28 7.16602 23.9466 7.24935 23.6133 7.33268C23.28 7.41602 22.905 7.49935 22.5716 7.49935C22.4883 7.49935 22.4466 7.49935 22.3633 7.49935C22.3216 7.49935 22.28 7.49935 22.2383 7.49935C22.1966 7.49935 22.1966 7.49935 22.155 7.49935C22.1133 7.49935 22.1133 7.49935 22.0716 7.49935C22.0716 7.49935 22.0716 7.49935 22.03 7.49935C22.03 7.49935 22.03 7.49935 21.9883 7.49935C21.2383 7.41602 20.7383 7.16602 20.4883 7.04102C20.5299 7.12435 20.6133 7.20768 20.7383 7.33268C20.7799 7.37435 20.8216 7.41602 20.8633 7.45768C20.9466 7.54102 21.0716 7.62435 21.1966 7.70768C21.3633 7.79102 22.0716 8.08269 22.9883 7.95769C24.03 7.79102 24.2383 7.83269 24.4883 7.83269H24.5716C24.9466 7.87435 25.4883 8.08269 25.6966 8.20769C25.78 7.99935 25.905 7.79102 25.9466 7.58268C25.905 7.54102 25.8216 7.45768 25.655 7.37435C25.6133 7.33268 25.5716 7.33268 25.4883 7.29102C25.405 7.24935 25.28 7.20768 25.1133 7.20768C24.9466 7.16602 24.8633 7.16602 24.78 7.16602Z" fill="#344887"/>
<path d="M27.6986 10.5833C27.6569 10.5833 27.2819 10.7917 26.4902 10.2917C25.6986 9.79167 25.1152 9.58333 24.7819 9.5C24.6986 9.54167 24.6569 9.58333 24.5736 9.625C24.4902 9.66667 24.3652 9.75 24.2402 9.83333C24.1986 9.875 24.1569 9.875 24.1152 9.91667C24.1152 9.91667 24.1569 9.91667 24.1986 9.91667C24.9486 10 25.5319 10.4167 25.5736 10.5833H25.6152C25.6986 10.3333 25.5736 10.125 25.5736 10.125C25.5736 10.125 25.9069 10.3333 26.5736 10.7083C27.2819 11.1667 27.5736 10.75 27.6986 10.5833Z" fill="#344887"/>
<path d="M23.7376 8.54232C23.696 8.50065 23.6543 8.41732 23.6126 8.37565C23.571 8.29232 23.571 8.25065 23.571 8.20898C23.4043 8.20898 23.196 8.25065 22.946 8.29232C22.9043 8.29232 22.821 8.29232 22.7793 8.29232C22.9043 8.54232 23.1126 8.79232 23.5293 8.87565C23.571 8.87565 23.571 8.87565 23.6126 8.87565C23.6543 8.87565 23.6543 8.87565 23.696 8.87565C23.8626 8.91732 24.071 8.91732 24.196 8.91732C24.4876 8.91732 24.821 8.87565 25.1543 8.79232C25.2376 8.70899 25.2793 8.58399 25.3626 8.50065C25.3626 8.50065 25.321 8.45899 25.2793 8.45899C25.196 8.41732 24.9876 8.29232 24.8626 8.25065C24.821 8.37565 24.7376 8.50065 24.6543 8.58399C24.5293 8.66732 24.3626 8.70899 24.196 8.70899C24.0293 8.70899 23.8626 8.66732 23.7793 8.58399C23.7376 8.58399 23.7376 8.54232 23.7376 8.54232Z" fill="#344887"/>
<path d="M25.9476 7.91602C25.6976 8.58269 25.2809 9.08269 24.9893 9.33269C26.8643 8.83269 27.1976 9.79102 27.1976 9.83269C27.1976 9.87436 27.1976 9.87436 27.2393 9.83269C27.2809 9.79102 27.9059 9.12436 27.4476 8.49935C27.0726 7.99935 26.2393 7.91602 25.9476 7.91602ZM25.9476 8.41602C26.0309 8.33268 26.0726 8.16602 26.0726 8.16602C26.1976 8.16602 26.4476 8.20768 26.4476 8.37435C26.2809 8.33268 26.0726 8.33268 25.9476 8.41602Z" fill="#344887"/>
<path d="M11.8646 8.375C11.8646 8.29167 11.8646 8.20833 11.8646 8.125C11.6979 8.125 11.5313 8.125 11.4062 8.125C11.4479 8.375 11.5729 8.58334 11.6979 8.66667C11.7813 8.58334 11.8229 8.5 11.8646 8.375Z" fill="#344887"/>
<path d="M13.9876 7.45834C13.946 7.45834 13.946 7.45834 13.9876 7.45834C13.946 7.45834 13.946 7.45834 13.9876 7.45834C13.946 7.45834 13.946 7.45834 13.9043 7.45834C13.8626 7.45834 13.8626 7.45834 13.821 7.45834C13.7793 7.45834 13.7793 7.45834 13.7376 7.45834C13.696 7.45834 13.6543 7.45834 13.6126 7.45834C13.5293 7.45834 13.4876 7.45834 13.4043 7.45834C13.0293 7.45834 12.696 7.375 12.3626 7.29167C11.9876 7.25 11.6543 7.16667 11.321 7.16667C11.2793 7.16667 11.2793 7.16667 11.2376 7.16667C11.2376 7.16667 11.2376 7.16667 11.196 7.16667C11.1126 7.16667 11.0293 7.16667 10.9876 7.16667C10.821 7.16667 10.696 7.20833 10.6126 7.25C10.571 7.29167 10.4876 7.29167 10.446 7.33333C10.321 7.41667 10.2376 7.45834 10.1543 7.54167C10.196 7.75 10.321 8 10.4043 8.16667C10.6126 8.04167 11.1543 7.79167 11.5293 7.79167H11.6126C11.8626 7.79167 12.071 7.75 13.1126 7.91667C14.0293 8.04167 14.696 7.75 14.9043 7.66667C15.0293 7.58334 15.1543 7.5 15.2377 7.41667C15.2793 7.375 15.321 7.33333 15.3627 7.29167C15.446 7.16667 15.5293 7.08333 15.6127 7C15.2377 7.125 14.7377 7.375 13.9876 7.45834Z" fill="#344887"/>
<path d="M8.1543 10.584C8.2793 10.709 8.57097 11.1673 9.23764 10.7923C9.90431 10.4173 10.2376 10.209 10.2376 10.209C10.2376 10.209 10.1126 10.4173 10.196 10.6673C10.196 10.6673 10.196 10.6673 10.2376 10.6673C10.321 10.5007 10.9043 10.0423 11.6126 10.0007C11.6543 10.0007 11.6543 10.0007 11.696 10.0007C11.6543 9.95899 11.6126 9.95899 11.571 9.91732C11.446 9.83399 11.321 9.75065 11.2376 9.70899C11.1543 9.66732 11.1126 9.62565 11.0293 9.58398C10.696 9.62565 10.1126 9.87565 9.32097 10.3757C8.57097 10.7923 8.19596 10.584 8.1543 10.584Z" fill="#344887"/>
<path d="M10.9883 8.25065C10.9049 8.29232 10.6549 8.41732 10.5716 8.45899C10.5299 8.45899 10.5299 8.50065 10.4883 8.50065C10.5716 8.62565 10.6133 8.70899 10.6966 8.79232C11.03 8.87565 11.3633 8.91732 11.655 8.91732C11.8216 8.91732 11.9883 8.91732 12.155 8.87565C12.1966 8.87565 12.1966 8.87565 12.2383 8.87565C12.28 8.87565 12.28 8.87565 12.3216 8.87565C12.7383 8.79232 12.9883 8.50065 13.0716 8.29232C13.03 8.29232 12.9466 8.29232 12.905 8.29232C12.655 8.25065 12.4466 8.20898 12.28 8.20898C12.28 8.25065 12.2383 8.33398 12.2383 8.37565C12.1966 8.45899 12.155 8.50065 12.1133 8.54232L12.0716 8.58399C11.9466 8.66732 11.8216 8.70899 11.655 8.70899C11.4883 8.70899 11.3216 8.66732 11.1966 8.58399C11.0716 8.50065 11.0299 8.37565 10.9883 8.25065Z" fill="#344887"/>
<path d="M8.36443 8.49935C7.90609 9.12436 8.5311 9.79102 8.57276 9.83269C8.61443 9.87436 8.61443 9.83269 8.61443 9.83269C8.61443 9.79102 8.94776 8.83269 10.8228 9.33269C10.5311 9.08269 10.1144 8.58269 9.86444 7.91602C9.61443 7.91602 8.73943 7.99935 8.36443 8.49935ZM9.9061 8.41602C9.7811 8.33268 9.57277 8.33268 9.4061 8.37435C9.4061 8.20768 9.6561 8.16602 9.7811 8.16602C9.7811 8.16602 9.82277 8.33268 9.9061 8.41602Z" fill="#344887"/>
<path d="M15.7793 8.49935C15.7377 8.49935 15.6543 8.49935 15.6127 8.49935C15.196 8.49935 14.8626 8.37435 14.5293 8.16602C14.4043 8.20768 14.1543 8.24935 13.946 8.24935C13.7376 8.24935 13.5293 8.24935 13.446 8.24935C13.4043 8.41602 13.2793 8.70769 12.9876 8.91602C12.696 9.16602 12.321 9.20769 11.9876 9.20769C11.821 9.20769 11.696 9.20769 11.6126 9.20769H11.571C11.4876 9.20769 11.321 9.16602 11.1543 9.16602C11.2793 9.24935 11.3626 9.29102 11.446 9.37435C11.5293 9.41602 11.6543 9.49936 11.7793 9.58269C12.446 10.041 12.946 10.7077 13.0293 11.166C13.071 11.3327 13.071 11.4994 13.071 11.4994C13.1543 11.4577 13.2376 11.291 13.2793 11.1244C13.3626 11.3327 13.6543 11.9994 13.5293 12.666C13.4043 13.4577 13.196 13.8327 12.9876 14.041C12.9043 14.1244 12.821 14.2077 12.7793 14.2494C13.196 14.041 13.9043 13.5827 14.2793 12.7494C14.4876 12.291 14.571 11.3327 14.571 11.3327V11.041L14.821 11.166C14.821 11.166 15.196 11.3744 15.571 11.916C15.696 12.1244 15.821 12.3327 15.9043 12.541C15.946 12.3744 15.9877 12.2077 16.0293 11.9994C16.071 11.4994 15.946 10.9994 15.946 10.9994L15.8627 10.666L16.196 10.791C16.196 10.791 16.5293 10.916 16.9043 11.2077C17.1543 11.3744 17.321 11.541 17.446 11.7077C17.2793 11.291 17.1127 10.8744 16.821 10.4994C15.946 9.16602 15.4043 8.87435 15.4043 8.87435L15.321 8.83269C15.321 8.83269 15.321 8.83269 15.3627 8.83269C15.4877 8.70768 15.6543 8.58268 15.7793 8.49935Z" fill="#344887"/>
</svg>
